<svg xmlns="http://www.w3.org/2000/svg" viewBox="0 0 905.89 284.87"><defs><style>.a{fill:#2e3348;}.b{fill:#5f9f7c;}.c{fill:#437387;}.d{fill:#84b65b;}.e{fill:#673320;}</style></defs><title>logo</title><path class="a" d="M558.86,38.19l-59.44,184.7H471.06q-5.08,0-6.91-6.73L425.25,95.82q-1.46-4.54-2.54-9t-2-9a130.3,130.3,0,0,1-4.55,18.36l-39.44,120q-1.83,6.74-7.82,6.73H342L282.37,38.19h28a11.85,11.85,0,0,1,7,2,9.48,9.48,0,0,1,3.72,5.1l33.27,113.43q1.63,6.9,2.91,13.45t2.36,13.09q1.64-6.54,3.54-13.09t3.91-13.45L404,44.56a9.34,9.34,0,0,1,3.45-5,9.93,9.93,0,0,1,6.18-1.91h15.45a11,11,0,0,1,6.64,1.91,9.28,9.28,0,0,1,3.54,5l36,114.16q2,6.9,3.82,13.54t3.27,13.36q1.1-6.54,2.55-13.18t3.27-13.72L522,45.29a9.45,9.45,0,0,1,3.73-5.1,10.87,10.87,0,0,1,6.45-2Z"/><path class="a" d="M619,65.82a111.87,111.87,0,0,1,12.46-12.63,78.1,78.1,0,0,1,14.26-9.82A75.16,75.16,0,0,1,662,37a72.52,72.52,0,0,1,18.45-2.27,65.1,65.1,0,0,1,28.64,6.18A59.94,59.94,0,0,1,731,59.1q9.09,12,14.09,29.63t5,40.54a125.57,125.57,0,0,1-5.55,38.08,93.8,93.8,0,0,1-15.81,30.45,73.41,73.41,0,0,1-25.09,20.27q-14.82,7.37-33.35,7.36-16.56,0-28.36-5.45a68,68,0,0,1-21.09-15.27v80.16H585.4V38.19h21.27q7.46,0,9.27,7.1Zm1.82,111.62q8.73,11.44,18.82,16A54.45,54.45,0,0,0,662.3,198q24.36,0,37.72-17.54t13.36-51.17q0-17.63-3-30.09t-8.73-20.36a34.54,34.54,0,0,0-14.09-11.63,46,46,0,0,0-18.9-3.73q-15.45,0-26.81,6.91T620.85,90Z"/><path class="a" d="M895.16,70a10,10,0,0,1-3.09,3.36,7.86,7.86,0,0,1-4.18,1,13.38,13.38,0,0,1-6.45-2q-3.56-2-8.55-4.36a81.88,81.88,0,0,0-11.72-4.36,56.32,56.32,0,0,0-16-2,47.75,47.75,0,0,0-13.91,1.9,33,33,0,0,0-10.63,5.28,23.39,23.39,0,0,0-6.72,8,21.48,21.48,0,0,0-2.37,9.91,16.43,16.43,0,0,0,4.09,11.45A35,35,0,0,0,826.36,106a104.66,104.66,0,0,0,15.09,5.91q8.44,2.64,17.26,5.54T876,124.09a62.73,62.73,0,0,1,15.08,9.27,43.67,43.67,0,0,1,10.73,13.36q4.08,7.82,4.09,19.09a60.91,60.91,0,0,1-4.64,23.9,52.2,52.2,0,0,1-13.63,19,64.62,64.62,0,0,1-22.27,12.54q-13.27,4.55-30.36,4.54a95.62,95.62,0,0,1-35.27-6.36q-16.17-6.36-27.08-16.18L781,189.62a9.71,9.71,0,0,1,9.45-5.27,12.43,12.43,0,0,1,7.09,2.54c2.43,1.7,5.33,3.55,8.73,5.55a66.11,66.11,0,0,0,12.36,5.45q7.27,2.46,18.18,2.45a49.35,49.35,0,0,0,15.81-2.27,32.28,32.28,0,0,0,11.18-6.18,25,25,0,0,0,6.64-9,27,27,0,0,0,2.18-10.72,18,18,0,0,0-4.09-12.09,35.13,35.13,0,0,0-10.72-8.27,87,87,0,0,0-15.18-6q-8.55-2.53-17.46-5.45a178,178,0,0,1-17.45-6.73A59.13,59.13,0,0,1,792.55,124a44.66,44.66,0,0,1-10.73-14.17q-4.1-8.37-4.09-20.36a49.13,49.13,0,0,1,4.45-20.54,50.81,50.81,0,0,1,12.91-17.27A63.56,63.56,0,0,1,816,39.74a84.1,84.1,0,0,1,28.44-4.45,90.32,90.32,0,0,1,33.18,5.81A76,76,0,0,1,903,57.1Z"/><path class="b" d="M56.19,64.39,34.13,42.33A130.12,130.12,0,0,0,0,124.73H31.2a99.05,99.05,0,0,1,25-60.34"/><path class="c" d="M124.73,31.2V0a130.12,130.12,0,0,0-82.4,34.13L64.39,56.19a99.11,99.11,0,0,1,60.34-25"/><path class="d" d="M218.72,34.13A130.14,130.14,0,0,0,136.32,0V31.2a99.08,99.08,0,0,1,60.34,25Z"/><path class="a" d="M31.2,136.32H0a130.14,130.14,0,0,0,34.13,82.4l22.06-22.06a99.08,99.08,0,0,1-25-60.34"/><path class="d" d="M42.33,226.91a130.13,130.13,0,0,0,82.4,34.14v-31.2a99.06,99.06,0,0,1-60.34-25Z"/><path class="a" d="M204.85,64.39a99.06,99.06,0,0,1,25,60.34h31.2a130.19,130.19,0,0,0-34.14-82.4Z"/><path class="e" d="M136.32,229.85v31.2a130.15,130.15,0,0,0,82.4-34.14l-22.06-22.06a99.09,99.09,0,0,1-60.34,25"/><path class="b" d="M204.85,196.66l22.06,22.06a130.21,130.21,0,0,0,34.14-82.4h-31.2a99.15,99.15,0,0,1-25,60.34"/><path class="e" d="M80.5,84.75a67.52,67.52,0,0,0-17.72,42.77H79A51.37,51.37,0,0,1,92,96.2Z"/><path class="c" d="M80.5,176.3,92,164.85a51.4,51.4,0,0,1-13-31.32H62.78A67.54,67.54,0,0,0,80.5,176.3"/><path class="a" d="M127.51,182.07a51.42,51.42,0,0,1-31.31-13L84.75,180.55a67.57,67.57,0,0,0,42.76,17.72Z"/><path class="a" d="M180.55,84.75,169.1,96.2a51.42,51.42,0,0,1,13,31.32h16.19a67.51,67.51,0,0,0-17.71-42.77"/><path class="d" d="M164.85,169.1a51.47,51.47,0,0,1-31.32,13v16.19a67.53,67.53,0,0,0,42.77-17.71Z"/><path class="b" d="M169.1,164.85l11.45,11.45a67.53,67.53,0,0,0,17.71-42.77H182.07a51.45,51.45,0,0,1-13,31.32"/><path class="c" d="M44.59,90.37,65.51,99A72,72,0,0,1,99,65.52L90.38,44.59A94.5,94.5,0,0,0,44.59,90.37"/><path class="e" d="M170.67,44.59,162,65.52A71.89,71.89,0,0,1,195.53,99l20.92-8.66a94.46,94.46,0,0,0-45.78-45.79"/><path class="b" d="M41.37,162.9l20.93-8.67a71.88,71.88,0,0,1,0-47.41L41.37,98.15a94.48,94.48,0,0,0,0,64.75"/><path class="a" d="M90.37,216.46,99,195.53A71.89,71.89,0,0,1,65.52,162l-20.93,8.67a94.55,94.55,0,0,0,45.78,45.79"/><path class="c" d="M219.67,98.15l-20.92,8.67a72,72,0,0,1,0,47.41l20.92,8.67a94.42,94.42,0,0,0,0-64.75"/><path class="c" d="M154.23,198.75a72,72,0,0,1-47.41,0l-8.67,20.92a94.42,94.42,0,0,0,64.75,0Z"/><path class="d" d="M216.45,170.67,195.53,162A71.87,71.87,0,0,1,162,195.53l8.67,20.92a94.4,94.4,0,0,0,45.78-45.78"/><path class="c" d="M165.76,91,176.3,80.5a67.72,67.72,0,0,0-24.56-14.39c4.62,7.93,9.49,16,14,24.92"/><path class="d" d="M109.31,66.11A67.63,67.63,0,0,0,84.75,80.5L95.28,91c4.53-8.88,9.41-17,14-24.92"/><path class="b" d="M112.49,60.58l1.06-1.87c4.33-7.76,9-16.54,12.3-22.94a95.38,95.38,0,0,0-27.7,5.6l8.67,20.93c1.86-.65,3.76-1.22,5.67-1.72"/><path class="b" d="M147.5,58.71c.35.62.7,1.25,1.06,1.87q2.85.73,5.67,1.72l8.67-20.93a94.54,94.54,0,0,0-27.69-5.59c3.33,6.41,8,15.18,12.29,22.93"/></svg>