<svg xmlns="http://www.w3.org/2000/svg" xmlns:xlink="http://www.w3.org/1999/xlink" viewBox="0 0 200.13 62.94"><defs><style>.a{fill:none;}.b{clip-path:url(#a);}.c{fill:#fff;}</style><clipPath id="a" transform="translate(0 0)"><rect class="a" width="200.13" height="62.94"/></clipPath></defs><title>logo_white</title><g class="b"><path class="c" d="M43.45,45.26a21.91,21.91,0,0,1-13.33,5.52v6.89a28.73,28.73,0,0,0,18.2-7.54Zm-6.09-24a11.33,11.33,0,0,1,2.86,6.92H43.8a15,15,0,0,0-3.91-9.45Zm2.86,8.25a11.33,11.33,0,0,1-2.86,6.92L39.89,39A14.92,14.92,0,0,0,43.8,29.5Zm-3.6-9.39L39,17.78a15,15,0,0,0-5.43-3.17c1,1.75,2.1,3.54,3.1,5.5M37.71,9.85l-1.92,4.62a15.94,15.94,0,0,1,7.41,7.41L47.82,20A20.89,20.89,0,0,0,37.71,9.85M48.53,21.68,43.91,23.6a15.92,15.92,0,0,1,0,10.47L48.53,36a20.88,20.88,0,0,0,0-14.31m-.71,16L43.2,35.79a15.94,15.94,0,0,1-7.41,7.41l1.91,4.62A20.89,20.89,0,0,0,47.82,37.71m-33.6,7.55L9.35,50.13a28.73,28.73,0,0,0,18.2,7.54V50.78a21.91,21.91,0,0,1-13.33-5.52m-.46-11.19a15.92,15.92,0,0,1,0-10.47L9.14,21.68A20.88,20.88,0,0,0,9.14,36ZM9.85,20l4.62,1.91a15.94,15.94,0,0,1,7.41-7.41L20,9.85A20.87,20.87,0,0,0,9.85,20m7.93-1.25a15,15,0,0,0-3.91,9.45h3.58a11.39,11.39,0,0,1,2.86-6.92Zm6.37-4.11a15,15,0,0,0-5.43,3.17l2.33,2.33c1-2,2.08-3.75,3.1-5.5M17.78,39l2.53-2.53a11.39,11.39,0,0,1-2.86-6.92H13.87A14.92,14.92,0,0,0,17.78,39m4.1,4.25a15.94,15.94,0,0,1-7.41-7.41L9.85,37.71A20.89,20.89,0,0,0,20,47.82Zm-15-13.08H0a28.78,28.78,0,0,0,7.54,18.2l4.87-4.87A22,22,0,0,1,6.89,30.12m5.52-15.89L7.54,9.35A28.79,28.79,0,0,0,0,27.56H6.89a21.92,21.92,0,0,1,5.52-13.33m1.81-1.82A22,22,0,0,1,27.55,6.89V0A28.78,28.78,0,0,0,9.35,7.54ZM25.08,13c1-1.71,2-3.65,2.72-5.07a21.22,21.22,0,0,0-6.12,1.24l1.92,4.62c.41-.14.83-.27,1.25-.38.08-.13.16-.27.23-.41M18.72,39.89a14.94,14.94,0,0,0,9.45,3.91V40.22a11.33,11.33,0,0,1-6.92-2.86Zm15.35,4a15.92,15.92,0,0,1-10.47,0l-1.92,4.62a20.88,20.88,0,0,0,14.31,0Zm2.35-6.55a11.33,11.33,0,0,1-6.92,2.86V43.8A14.92,14.92,0,0,0,39,39.89ZM36,9.14a21,21,0,0,0-6.12-1.23c.74,1.41,1.76,3.35,2.72,5.06.07.14.15.28.23.41.42.11.84.24,1.25.38Zm7.46,3.27,4.87-4.87A28.78,28.78,0,0,0,30.12,0V6.89a22,22,0,0,1,13.33,5.52m7.33,15.15h6.89A28.73,28.73,0,0,0,50.13,9.35l-4.87,4.88a21.86,21.86,0,0,1,5.52,13.33m-.65,20.76a28.73,28.73,0,0,0,7.54-18.2H50.78a21.91,21.91,0,0,1-5.52,13.33Zm60.2.92,13.14-40.8h-5.91a2.42,2.42,0,0,0-1.42.44,2.08,2.08,0,0,0-.83,1.12l-7.47,25.06c-.26,1-.51,2.06-.72,3s-.4,1.94-.56,2.91c-.22-1-.46-2-.72-2.95s-.55-2-.85-3L97,9.84a2.06,2.06,0,0,0-.78-1.1,2.46,2.46,0,0,0-1.47-.42H91.38A2.23,2.23,0,0,0,90,8.74a2.08,2.08,0,0,0-.76,1.1L81.1,35.06c-.3,1-.59,2-.87,3s-.54,1.92-.78,2.89c-.16-1-.33-1.93-.52-2.89s-.4-2-.64-3L70.94,10a2.08,2.08,0,0,0-.83-1.12,2.62,2.62,0,0,0-1.54-.44H62.38l13.17,40.8h6a1.72,1.72,0,0,0,1.73-1.48l8.71-26.51a28.33,28.33,0,0,0,1-4.06c.14.67.28,1.34.45,2s.34,1.32.56,2l8.59,26.59c.27,1,.78,1.48,1.53,1.48ZM157.6,28.56q0,7.43-2.95,11.3a9.86,9.86,0,0,1-8.33,3.88,12.16,12.16,0,0,1-5-1,11.09,11.09,0,0,1-4.16-3.54V19.88a16.77,16.77,0,0,1,4.64-4.33A11.15,11.15,0,0,1,147.72,14a10.32,10.32,0,0,1,4.18.82A7.68,7.68,0,0,1,155,17.41a12.79,12.79,0,0,1,1.93,4.5,28.93,28.93,0,0,1,.66,6.65M164.49,37a27.66,27.66,0,0,0,1.22-8.41,32.8,32.8,0,0,0-1.1-9,19.58,19.58,0,0,0-3.11-6.54,13.29,13.29,0,0,0-4.84-4,14.4,14.4,0,0,0-6.33-1.36,15.71,15.71,0,0,0-4.07.5,16.31,16.31,0,0,0-3.6,1.4,18.19,18.19,0,0,0-3.15,2.17,24.18,24.18,0,0,0-2.75,2.79L136.08,10A1.92,1.92,0,0,0,134,8.44h-4.7v54.5h7.83V45.23a15.13,15.13,0,0,0,4.66,3.37,14.91,14.91,0,0,0,6.26,1.2A16,16,0,0,0,161,43.7,20.75,20.75,0,0,0,164.49,37m33.27-21.5,1.73-2.85a16.83,16.83,0,0,0-5.6-3.54,19.89,19.89,0,0,0-7.33-1.28,18.54,18.54,0,0,0-6.29,1,14.18,14.18,0,0,0-4.62,2.63,11.36,11.36,0,0,0-2.85,3.82,10.89,10.89,0,0,0-1,4.53,10.2,10.2,0,0,0,.9,4.5,9.75,9.75,0,0,0,2.37,3.13,13.27,13.27,0,0,0,3.35,2.13A41,41,0,0,0,182.3,31c1.31.43,2.6.83,3.86,1.2a19.65,19.65,0,0,1,3.35,1.33,7.71,7.71,0,0,1,2.37,1.83,4,4,0,0,1,.9,2.67,6,6,0,0,1-.48,2.37,5.4,5.4,0,0,1-1.47,2,7.15,7.15,0,0,1-2.47,1.37,11,11,0,0,1-3.49.5,12.77,12.77,0,0,1-4-.54,14,14,0,0,1-2.73-1.21c-.75-.44-1.39-.85-1.92-1.22a2.72,2.72,0,0,0-1.57-.56,2.44,2.44,0,0,0-1.29.3,2.38,2.38,0,0,0-.8.86l-1.85,3a19.49,19.49,0,0,0,6,3.58,21,21,0,0,0,7.79,1.4,20.72,20.72,0,0,0,6.71-1,14.17,14.17,0,0,0,4.91-2.77,11.63,11.63,0,0,0,3-4.2,13.5,13.5,0,0,0,1-5.28,9.07,9.07,0,0,0-.9-4.22,9.58,9.58,0,0,0-2.37-2.95,14.31,14.31,0,0,0-3.33-2.05c-1.25-.54-2.52-1-3.82-1.46s-2.57-.84-3.82-1.23a22.69,22.69,0,0,1-3.33-1.3,7.65,7.65,0,0,1-2.37-1.73,3.65,3.65,0,0,1-.9-2.53,4.74,4.74,0,0,1,.52-2.19,5.1,5.1,0,0,1,1.49-1.76A7.09,7.09,0,0,1,183.65,14a10.5,10.5,0,0,1,3.07-.42,12.65,12.65,0,0,1,3.53.44,19.84,19.84,0,0,1,2.59,1c.74.35,1.37.67,1.89,1a3,3,0,0,0,1.43.44,1.72,1.72,0,0,0,.92-.22,2.25,2.25,0,0,0,.68-.74" transform="translate(0 0)"/></g></svg>