<?xml version="1.0" encoding="UTF-8" standalone="no"?>
<!DOCTYPE svg PUBLIC "-//W3C//DTD SVG 1.1//EN" "http://www.w3.org/Graphics/SVG/1.1/DTD/svg11.dtd">
<!-- Generated by graphviz version 2.40.1 (20161225.0304)
 -->
<!-- Title: causalModel Pages: 1 -->
<svg xmlns="http://www.w3.org/2000/svg" xmlns:xlink="http://www.w3.org/1999/xlink" width="" height="" viewBox="0.00 0.00 470.00 847.00" preserveAspectRatio="xMinYMin">
<g id="graph0" class="graph" transform="scale(1 1) rotate(0) translate(4 843)">
<title>causalModel</title>
<polygon fill="#ffffff" stroke="transparent" points="-4,4 -4,-843 466,-843 466,4 -4,4"/>
<text text-anchor="middle" x="231" y="-7.8" font-family="Helvetica, Arial, sans-serif" font-size="14.00" fill="#000000">Causal Model: East Asia and Pacific</text>
<!-- spam_P_i_sum_s -->
<g id="node1" class="node rankB">
<title>spam_P_i_sum_s</title>
<path fill="none" stroke="#000000" d="M84.5,-285.5C84.5,-285.5 195.5,-285.5 195.5,-285.5 201.5,-285.5 207.5,-291.5 207.5,-297.5 207.5,-297.5 207.5,-380.5 207.5,-380.5 207.5,-386.5 201.5,-392.5 195.5,-392.5 195.5,-392.5 84.5,-392.5 84.5,-392.5 78.5,-392.5 72.5,-386.5 72.5,-380.5 72.5,-380.5 72.5,-297.5 72.5,-297.5 72.5,-291.5 78.5,-285.5 84.5,-285.5"/>
<text text-anchor="start" x="86" y="-373.7" font-family="Helvetica, Arial, sans-serif" font-size="16.00" fill="#000000">Metric tons of</text>
<text text-anchor="start" x="82" y="-355.7" font-family="Helvetica, Arial, sans-serif" font-size="16.00" fill="#000000">irrigated crops</text>
<text text-anchor="start" x="103" y="-337.7" font-family="Helvetica, Arial, sans-serif" font-size="16.00" fill="#000000">produced</text>
<polyline fill="none" stroke="#000000" points="72.5,-326.5 207.5,-326.5 "/>
<text text-anchor="start" x="92" y="-309.8" font-family="Helvetica, Arial, sans-serif" font-size="14.00" fill="#000000">effect: -0.342</text>
<text text-anchor="start" x="97" y="-293.8" font-family="Helvetica, Arial, sans-serif" font-size="14.00" fill="#000000">error: 2.209</text>
</g>
<!-- loccount_y -->
<g id="node4" class="node rankB">
<title>loccount_y</title>
<path fill="none" stroke="#000000" d="M192,-143.5C192,-143.5 312,-143.5 312,-143.5 318,-143.5 324,-149.5 324,-155.5 324,-155.5 324,-236.5 324,-236.5 324,-242.5 318,-248.5 312,-248.5 312,-248.5 192,-248.5 192,-248.5 186,-248.5 180,-242.5 180,-236.5 180,-236.5 180,-155.5 180,-155.5 180,-149.5 186,-143.5 192,-143.5"/>
<text text-anchor="start" x="189" y="-229.7" font-family="Helvetica, Arial, sans-serif" font-size="16.00" fill="#000000">Total population</text>
<text text-anchor="start" x="229.5" y="-211.7" font-family="Helvetica, Arial, sans-serif" font-size="16.00" fill="#000000">count</text>
<polyline fill="none" stroke="#000000" points="180,-200.5 324,-200.5 "/>
<text text-anchor="start" x="206.5" y="-183.8" font-family="Helvetica, Arial, sans-serif" font-size="14.00" fill="#000000">effect: 1.387</text>
<text text-anchor="start" x="209" y="-167.8" font-family="Helvetica, Arial, sans-serif" font-size="14.00" fill="#000000">error: 0.879</text>
<text text-anchor="start" x="194" y="-151.8" font-family="Helvetica, Arial, sans-serif" font-size="14.00" fill="#000000">significance: 0.1</text>
</g>
<!-- spam_P_i_sum_s&#45;&gt;loccount_y -->
<g id="edge1" class="edge">
<title>spam_P_i_sum_s-&gt;loccount_y</title>
<path fill="none" stroke="#666666" stroke-width="2" d="M182.0233,-285.3452C188.952,-276.4988 196.1857,-267.2629 203.262,-258.228"/>
<polygon fill="#666666" stroke="#666666" stroke-width="2" points="206.7641,-260.568 210.8569,-248.531 200.151,-255.3885 206.7641,-260.568"/>
</g>
<!-- rurpop_s -->
<g id="node2" class="node rankB">
<title>rurpop_s</title>
<path fill="none" stroke="#000000" d="M177.5,-607.5C177.5,-607.5 274.5,-607.5 274.5,-607.5 280.5,-607.5 286.5,-613.5 286.5,-619.5 286.5,-619.5 286.5,-684.5 286.5,-684.5 286.5,-690.5 280.5,-696.5 274.5,-696.5 274.5,-696.5 177.5,-696.5 177.5,-696.5 171.5,-696.5 165.5,-690.5 165.5,-684.5 165.5,-684.5 165.5,-619.5 165.5,-619.5 165.5,-613.5 171.5,-607.5 177.5,-607.5"/>
<text text-anchor="start" x="175" y="-677.7" font-family="Helvetica, Arial, sans-serif" font-size="16.00" fill="#000000">Population in</text>
<text text-anchor="start" x="182.5" y="-659.7" font-family="Helvetica, Arial, sans-serif" font-size="16.00" fill="#000000">rural areas</text>
<polyline fill="none" stroke="#000000" points="165.5,-648.5 286.5,-648.5 "/>
<text text-anchor="start" x="181" y="-631.8" font-family="Helvetica, Arial, sans-serif" font-size="14.00" fill="#000000">effect: 3.303</text>
<text text-anchor="start" x="183.5" y="-615.8" font-family="Helvetica, Arial, sans-serif" font-size="14.00" fill="#000000">error: 2.726</text>
</g>
<!-- rurpop_s&#45;&gt;spam_P_i_sum_s -->
<g id="edge2" class="edge">
<title>rurpop_s-&gt;spam_P_i_sum_s</title>
<path fill="none" stroke="#666666" stroke-width="2" d="M152,-500C143.7526,-469.4563 140.4451,-434.5473 139.3247,-405.0605"/>
<polygon fill="#666666" stroke="#666666" stroke-width="2" points="143.515,-404.6576 138.9705,-392.7838 135.1185,-404.9 143.515,-404.6576"/>
</g>
<!-- rurpop_s&#45;&gt;loccount_y -->
<g id="edge3" class="edge">
<title>rurpop_s-&gt;loccount_y</title>
<path fill="none" stroke="#666666" stroke-width="2" d="M152,-500C142.5009,-464.8209 172.3979,-459.0559 193,-429 204.6162,-412.0534 213.7233,-411.8048 222,-393 240.3372,-351.3376 247.7498,-300.4616 250.6236,-260.8485"/>
<polygon fill="#666666" stroke="#666666" stroke-width="2" points="254.8277,-260.9148 251.3911,-248.6743 246.4443,-260.3863 254.8277,-260.9148"/>
</g>
<!-- yield_gap_rice_s -->
<g id="node6" class="node rankB">
<title>yield_gap_rice_s</title>
<path fill="none" stroke="#000000" d="M220,-429.5C220,-429.5 322,-429.5 322,-429.5 328,-429.5 334,-435.5 334,-441.5 334,-441.5 334,-558.5 334,-558.5 334,-564.5 328,-570.5 322,-570.5 322,-570.5 220,-570.5 220,-570.5 214,-570.5 208,-564.5 208,-558.5 208,-558.5 208,-441.5 208,-441.5 208,-435.5 214,-429.5 220,-429.5"/>
<text text-anchor="start" x="218.5" y="-551.7" font-family="Helvetica, Arial, sans-serif" font-size="16.00" fill="#000000">Gap between</text>
<text text-anchor="start" x="217" y="-533.7" font-family="Helvetica, Arial, sans-serif" font-size="16.00" fill="#000000">observed and</text>
<text text-anchor="start" x="218" y="-515.7" font-family="Helvetica, Arial, sans-serif" font-size="16.00" fill="#000000">potential rice</text>
<text text-anchor="start" x="252" y="-497.7" font-family="Helvetica, Arial, sans-serif" font-size="16.00" fill="#000000">yield</text>
<polyline fill="none" stroke="#000000" points="208,-486.5 334,-486.5 "/>
<text text-anchor="start" x="226" y="-469.8" font-family="Helvetica, Arial, sans-serif" font-size="14.00" fill="#000000">effect: 0.389</text>
<text text-anchor="start" x="228.5" y="-453.8" font-family="Helvetica, Arial, sans-serif" font-size="14.00" fill="#000000">error: 0.162</text>
<text text-anchor="start" x="220" y="-437.8" font-family="Helvetica, Arial, sans-serif" font-size="14.00" fill="#000000">significance: 5</text>
</g>
<!-- rurpop_s&#45;&gt;yield_gap_rice_s -->
<g id="edge4" class="edge">
<title>rurpop_s-&gt;yield_gap_rice_s</title>
<path fill="none" stroke="#666666" stroke-width="2" d="M239.2581,-607.2171C241.593,-599.3303 244.0887,-590.9005 246.6162,-582.363"/>
<polygon fill="#666666" stroke="#666666" stroke-width="2" points="250.6913,-583.3935 250.0706,-570.6949 242.6368,-581.0089 250.6913,-583.3935"/>
</g>
<!-- acl_sum_fatl_m -->
<g id="node9" class="node rankC">
<title>acl_sum_fatl_m</title>
<path fill="none" stroke="#000000" d="M112,-107C112,-107 12,-107 12,-107 6,-107 0,-101 0,-95 0,-95 0,-51 0,-51 0,-45 6,-39 12,-39 12,-39 112,-39 112,-39 118,-39 124,-45 124,-51 124,-51 124,-95 124,-95 124,-101 118,-107 112,-107"/>
<text text-anchor="middle" x="62" y="-87.2" font-family="Helvetica, Arial, sans-serif" font-size="16.00" fill="#000000">Reported</text>
<text text-anchor="middle" x="62" y="-69.2" font-family="Helvetica, Arial, sans-serif" font-size="16.00" fill="#000000">fatalities from</text>
<text text-anchor="middle" x="62" y="-51.2" font-family="Helvetica, Arial, sans-serif" font-size="16.00" fill="#000000">conflict events</text>
</g>
<!-- rurpop_s&#45;&gt;acl_sum_fatl_m -->
<g id="edge5" class="edge">
<title>rurpop_s-&gt;acl_sum_fatl_m</title>
<path fill="none" stroke="#666666" stroke-width="2" d="M199.2183,-607.4127C182.8245,-577.957 162.9541,-537.9255 152,-500"/>
<path fill="none" stroke="#666666" stroke-width="2" d="M152,-500C134.4349,-439.1857 80.3231,-452.2334 58,-393 23.2829,-300.8795 38.5401,-182.9814 51.2248,-119.12"/>
<polygon fill="#666666" stroke="#666666" stroke-width="2" points="55.3949,-119.6937 53.7118,-107.0918 47.1689,-117.9928 55.3949,-119.6937"/>
</g>
<!-- Cropland2000_mean_percent_s -->
<g id="node3" class="node rankA">
<title>Cropland2000_mean_percent_s</title>
<path fill="none" stroke="#000000" d="M110.5,-733.5C110.5,-733.5 253.5,-733.5 253.5,-733.5 259.5,-733.5 265.5,-739.5 265.5,-745.5 265.5,-745.5 265.5,-826.5 265.5,-826.5 265.5,-832.5 259.5,-838.5 253.5,-838.5 253.5,-838.5 110.5,-838.5 110.5,-838.5 104.5,-838.5 98.5,-832.5 98.5,-826.5 98.5,-826.5 98.5,-745.5 98.5,-745.5 98.5,-739.5 104.5,-733.5 110.5,-733.5"/>
<text text-anchor="start" x="108" y="-819.7" font-family="Helvetica, Arial, sans-serif" font-size="16.00" fill="#000000">Percentage of land</text>
<text text-anchor="start" x="120.5" y="-801.7" font-family="Helvetica, Arial, sans-serif" font-size="16.00" fill="#000000">that is cropland</text>
<polyline fill="none" stroke="#000000" points="98.5,-790.5 265.5,-790.5 "/>
<text text-anchor="start" x="134" y="-773.8" font-family="Helvetica, Arial, sans-serif" font-size="14.00" fill="#000000">effect: -0.065</text>
<text text-anchor="start" x="139" y="-757.8" font-family="Helvetica, Arial, sans-serif" font-size="14.00" fill="#000000">error: 0.066</text>
<text text-anchor="start" x="124" y="-741.8" font-family="Helvetica, Arial, sans-serif" font-size="14.00" fill="#000000">significance: 0.1</text>
</g>
<!-- Cropland2000_mean_percent_s&#45;&gt;rurpop_s -->
<g id="edge6" class="edge">
<title>Cropland2000_mean_percent_s-&gt;rurpop_s</title>
<path fill="none" stroke="#666666" stroke-width="2" d="M199.2637,-733.4242C201.9801,-725.1515 204.7977,-716.5707 207.5399,-708.2194"/>
<polygon fill="#666666" stroke="#666666" stroke-width="2" points="211.5948,-709.3329 211.3482,-696.6215 203.6141,-706.7123 211.5948,-709.3329"/>
</g>
<!-- acl_sum_evnt_m -->
<g id="node8" class="node rankC">
<title>acl_sum_evnt_m</title>
<path fill="none" stroke="#000000" d="M306,-98C306,-98 198,-98 198,-98 192,-98 186,-92 186,-86 186,-86 186,-60 186,-60 186,-54 192,-48 198,-48 198,-48 306,-48 306,-48 312,-48 318,-54 318,-60 318,-60 318,-86 318,-86 318,-92 312,-98 306,-98"/>
<text text-anchor="middle" x="252" y="-78.2" font-family="Helvetica, Arial, sans-serif" font-size="16.00" fill="#000000">Total number of</text>
<text text-anchor="middle" x="252" y="-60.2" font-family="Helvetica, Arial, sans-serif" font-size="16.00" fill="#000000">conflict events</text>
</g>
<!-- loccount_y&#45;&gt;acl_sum_evnt_m -->
<g id="edge7" class="edge">
<title>loccount_y-&gt;acl_sum_evnt_m</title>
<path fill="none" stroke="#666666" stroke-width="2" d="M252,-143.4802C252,-132.3392 252,-120.7964 252,-110.3569"/>
<polygon fill="#666666" stroke="#666666" stroke-width="2" points="256.2001,-110.2713 252,-98.2714 247.8001,-110.2714 256.2001,-110.2713"/>
</g>
<!-- locdensity_y -->
<g id="node5" class="node rankB">
<title>locdensity_y</title>
<path fill="none" stroke="#000000" d="M308.5,-295.5C308.5,-295.5 447.5,-295.5 447.5,-295.5 453.5,-295.5 459.5,-301.5 459.5,-307.5 459.5,-307.5 459.5,-370.5 459.5,-370.5 459.5,-376.5 453.5,-382.5 447.5,-382.5 447.5,-382.5 308.5,-382.5 308.5,-382.5 302.5,-382.5 296.5,-376.5 296.5,-370.5 296.5,-370.5 296.5,-307.5 296.5,-307.5 296.5,-301.5 302.5,-295.5 308.5,-295.5"/>
<text text-anchor="start" x="306" y="-363.7" font-family="Helvetica, Arial, sans-serif" font-size="16.00" fill="#000000">Population density</text>
<polyline fill="none" stroke="#000000" points="296.5,-352.5 459.5,-352.5 "/>
<text text-anchor="start" x="332.5" y="-335.8" font-family="Helvetica, Arial, sans-serif" font-size="14.00" fill="#000000">effect: 0.772</text>
<text text-anchor="start" x="335" y="-319.8" font-family="Helvetica, Arial, sans-serif" font-size="14.00" fill="#000000">error: 0.775</text>
<text text-anchor="start" x="320" y="-303.8" font-family="Helvetica, Arial, sans-serif" font-size="14.00" fill="#000000">significance: 0.1</text>
</g>
<!-- locdensity_y&#45;&gt;loccount_y -->
<g id="edge8" class="edge">
<title>locdensity_y-&gt;loccount_y</title>
<path fill="none" stroke="#666666" stroke-width="2" d="M339.5112,-295.3183C329.0869,-283.4875 317.6018,-270.4528 306.4778,-257.828"/>
<polygon fill="#666666" stroke="#666666" stroke-width="2" points="309.5465,-254.9576 298.462,-248.7306 303.244,-260.5109 309.5465,-254.9576"/>
</g>
<!-- locdensity_y&#45;&gt;acl_sum_evnt_m -->
<g id="edge9" class="edge">
<title>locdensity_y-&gt;acl_sum_evnt_m</title>
<path fill="none" stroke="#666666" stroke-width="2" d="M377.3976,-295.4579C374.9969,-253.5973 366.4214,-189.9379 338,-143 329.4184,-128.8275 316.8872,-116.2728 304.0319,-105.8499"/>
<polygon fill="#666666" stroke="#666666" stroke-width="2" points="306.275,-102.2772 294.1981,-98.3035 301.1611,-108.9411 306.275,-102.2772"/>
</g>
<!-- yield_gap_rice_s&#45;&gt;locdensity_y -->
<g id="edge10" class="edge">
<title>yield_gap_rice_s-&gt;locdensity_y</title>
<path fill="none" stroke="#666666" stroke-width="2" d="M317.9318,-429.3831C326.0965,-417.0977 334.4685,-404.5006 342.2715,-392.7597"/>
<polygon fill="#666666" stroke="#666666" stroke-width="2" points="345.8185,-395.0106 348.9627,-382.6917 338.8226,-390.3611 345.8185,-395.0106"/>
</g>
<!-- et_actl_m_MIN_m -->
<g id="node7" class="node rankA">
<title>et_actl_m_MIN_m</title>
<path fill="none" stroke="#000000" d="M306,-733.5C306,-733.5 450,-733.5 450,-733.5 456,-733.5 462,-739.5 462,-745.5 462,-745.5 462,-826.5 462,-826.5 462,-832.5 456,-838.5 450,-838.5 450,-838.5 306,-838.5 306,-838.5 300,-838.5 294,-832.5 294,-826.5 294,-826.5 294,-745.5 294,-745.5 294,-739.5 300,-733.5 306,-733.5"/>
<text text-anchor="start" x="353" y="-819.7" font-family="Helvetica, Arial, sans-serif" font-size="16.00" fill="#000000">Actual</text>
<text text-anchor="start" x="303" y="-801.7" font-family="Helvetica, Arial, sans-serif" font-size="16.00" fill="#000000">evapotranspiration</text>
<polyline fill="none" stroke="#000000" points="294,-790.5 462,-790.5 "/>
<text text-anchor="start" x="330" y="-773.8" font-family="Helvetica, Arial, sans-serif" font-size="14.00" fill="#000000">effect: -0.464</text>
<text text-anchor="start" x="335" y="-757.8" font-family="Helvetica, Arial, sans-serif" font-size="14.00" fill="#000000">error: 0.116</text>
<text text-anchor="start" x="320" y="-741.8" font-family="Helvetica, Arial, sans-serif" font-size="14.00" fill="#000000">significance: 0.1</text>
</g>
<!-- et_actl_m_MIN_m&#45;&gt;rurpop_s -->
<g id="edge11" class="edge">
<title>et_actl_m_MIN_m-&gt;rurpop_s</title>
<path fill="none" stroke="#666666" stroke-width="2" d="M318.3618,-733.4242C307.6834,-724.0104 296.5526,-714.1977 285.8678,-704.7782"/>
<polygon fill="#666666" stroke="#666666" stroke-width="2" points="288.3944,-701.4066 276.6154,-696.6215 282.8395,-707.7076 288.3944,-701.4066"/>
</g>
<!-- et_actl_m_MIN_m&#45;&gt;locdensity_y -->
<g id="edge12" class="edge">
<title>et_actl_m_MIN_m-&gt;locdensity_y</title>
<path fill="none" stroke="#666666" stroke-width="2" d="M378,-652C362.7929,-562.9915 367.3279,-457.6552 372.3829,-394.6913"/>
<polygon fill="#666666" stroke="#666666" stroke-width="2" points="376.5724,-394.9912 373.3951,-382.6808 368.2021,-394.2857 376.5724,-394.9912"/>
</g>
<!-- et_actl_m_MIN_m&#45;&gt;yield_gap_rice_s -->
<g id="edge13" class="edge">
<title>et_actl_m_MIN_m-&gt;yield_gap_rice_s</title>
<path fill="none" stroke="#666666" stroke-width="2" d="M382.0776,-733.4723C382.9708,-708.6077 382.5447,-678.6007 378,-652"/>
<path fill="none" stroke="#666666" stroke-width="2" d="M378,-652C373.1256,-623.4698 358.5335,-596.2739 341.631,-572.9791"/>
<polygon fill="#666666" stroke="#666666" stroke-width="2" points="344.8555,-570.2797 334.2673,-563.2419 338.1556,-575.3465 344.8555,-570.2797"/>
</g>
<!-- acl_sum_fatl_m&#45;&gt;acl_sum_evnt_m -->
<g id="edge14" class="edge">
<title>acl_sum_fatl_m-&gt;acl_sum_evnt_m</title>
<path fill="none" stroke="#666666" stroke-width="2" d="M124.3438,-73C140.6358,-73 156.9279,-73 173.2199,-73"/>
<polygon fill="#666666" stroke="#666666" stroke-width="2" points="173.6786,-77.2001 185.6786,-73 173.6786,-68.8001 173.6786,-77.2001"/>
</g>
</g>
<style>.node path {
  stroke: #fff;
}
.node text {
  fill: #fff;
}
.node polyline {
  stroke: #fff;
}
.rankA path {
  fill: #1b6002;
}
.rankB path {
  fill: #437387;
}
.rankC path {
  fill: #2e3348;
}
</style></svg>
