<?xml version="1.0" encoding="UTF-8" standalone="no"?>
<!DOCTYPE svg PUBLIC "-//W3C//DTD SVG 1.1//EN" "http://www.w3.org/Graphics/SVG/1.1/DTD/svg11.dtd">
<!-- Generated by graphviz version 2.40.1 (20161225.0304)
 -->
<!-- Title: causalModel Pages: 1 -->
<svg xmlns="http://www.w3.org/2000/svg" xmlns:xlink="http://www.w3.org/1999/xlink" width="" height="" viewBox="0.00 0.00 470.00 829.00" preserveAspectRatio="xMinYMin">
<g id="graph0" class="graph" transform="scale(1 1) rotate(0) translate(4 825)">
<title>causalModel</title>
<polygon fill="#ffffff" stroke="transparent" points="-4,4 -4,-825 466,-825 466,4 -4,4"/>
<text text-anchor="start" x="87" y="-48.3" font-family="Helvetica, Arial, sans-serif" font-weight="bold" font-size="14.00" fill="#000000">Causal Model: East Asia and Pacific</text>
<text text-anchor="start" x="87" y="-28.3" font-family="Helvetica, Arial, sans-serif" font-size="14.00" fill="#000000">***significance of 0.1%</text>
<text text-anchor="start" x="87" y="-9.3" font-family="Helvetica, Arial, sans-serif" font-size="14.00" fill="#000000">*significance of 5%</text>
<!-- spam_P_i_sum_s -->
<g id="node1" class="node rankB">
<title>spam_P_i_sum_s</title>
<path fill="none" stroke="#000000" d="M84.5,-299.5C84.5,-299.5 195.5,-299.5 195.5,-299.5 201.5,-299.5 207.5,-305.5 207.5,-311.5 207.5,-311.5 207.5,-394.5 207.5,-394.5 207.5,-400.5 201.5,-406.5 195.5,-406.5 195.5,-406.5 84.5,-406.5 84.5,-406.5 78.5,-406.5 72.5,-400.5 72.5,-394.5 72.5,-394.5 72.5,-311.5 72.5,-311.5 72.5,-305.5 78.5,-299.5 84.5,-299.5"/>
<text text-anchor="start" x="86" y="-387.7" font-family="Helvetica, Arial, sans-serif" font-size="16.00" fill="#000000">Metric tons of</text>
<text text-anchor="start" x="82" y="-369.7" font-family="Helvetica, Arial, sans-serif" font-size="16.00" fill="#000000">irrigated crops</text>
<text text-anchor="start" x="103" y="-351.7" font-family="Helvetica, Arial, sans-serif" font-size="16.00" fill="#000000">produced</text>
<polyline fill="none" stroke="#000000" points="72.5,-340.5 207.5,-340.5 "/>
<text text-anchor="start" x="92" y="-323.8" font-family="Helvetica, Arial, sans-serif" font-size="14.00" fill="#000000">effect: -0.342</text>
<text text-anchor="start" x="97" y="-307.8" font-family="Helvetica, Arial, sans-serif" font-size="14.00" fill="#000000">error: 2.209</text>
</g>
<!-- loccount_y -->
<g id="node4" class="node rankB">
<title>loccount_y</title>
<path fill="none" stroke="#000000" d="M192,-173.5C192,-173.5 312,-173.5 312,-173.5 318,-173.5 324,-179.5 324,-185.5 324,-185.5 324,-250.5 324,-250.5 324,-256.5 318,-262.5 312,-262.5 312,-262.5 192,-262.5 192,-262.5 186,-262.5 180,-256.5 180,-250.5 180,-250.5 180,-185.5 180,-185.5 180,-179.5 186,-173.5 192,-173.5"/>
<text text-anchor="start" x="189" y="-243.7" font-family="Helvetica, Arial, sans-serif" font-size="16.00" fill="#000000">Total population</text>
<text text-anchor="start" x="229.5" y="-225.7" font-family="Helvetica, Arial, sans-serif" font-size="16.00" fill="#000000">count</text>
<polyline fill="none" stroke="#000000" points="180,-214.5 324,-214.5 "/>
<text text-anchor="start" x="207" y="-197.8" font-family="Helvetica, Arial, sans-serif" font-size="14.00" fill="#000000">effect: 1.387</text>
<text text-anchor="start" x="209.5" y="-181.8" font-family="Helvetica, Arial, sans-serif" font-size="14.00" fill="#000000">error: 0.879</text>
</g>
<!-- spam_P_i_sum_s&#45;&gt;loccount_y -->
<g id="edge1" class="edge">
<title>spam_P_i_sum_s-&gt;loccount_y</title>
<path fill="none" stroke="#666666" stroke-width="2" d="M184.5872,-299.2565C191.9341,-290.4008 199.5548,-281.2152 206.9139,-272.3449"/>
<polygon fill="#666666" stroke="#666666" stroke-width="2" points="210.3416,-274.7911 214.7713,-262.8739 203.8768,-269.4277 210.3416,-274.7911"/>
</g>
<!-- rurpop_s -->
<g id="node2" class="node rankB">
<title>rurpop_s</title>
<path fill="none" stroke="#000000" d="M177.5,-605.5C177.5,-605.5 274.5,-605.5 274.5,-605.5 280.5,-605.5 286.5,-611.5 286.5,-617.5 286.5,-617.5 286.5,-682.5 286.5,-682.5 286.5,-688.5 280.5,-694.5 274.5,-694.5 274.5,-694.5 177.5,-694.5 177.5,-694.5 171.5,-694.5 165.5,-688.5 165.5,-682.5 165.5,-682.5 165.5,-617.5 165.5,-617.5 165.5,-611.5 171.5,-605.5 177.5,-605.5"/>
<text text-anchor="start" x="175" y="-675.7" font-family="Helvetica, Arial, sans-serif" font-size="16.00" fill="#000000">Population in</text>
<text text-anchor="start" x="182.5" y="-657.7" font-family="Helvetica, Arial, sans-serif" font-size="16.00" fill="#000000">rural areas</text>
<polyline fill="none" stroke="#000000" points="165.5,-646.5 286.5,-646.5 "/>
<text text-anchor="start" x="181" y="-629.8" font-family="Helvetica, Arial, sans-serif" font-size="14.00" fill="#000000">effect: 3.303</text>
<text text-anchor="start" x="183.5" y="-613.8" font-family="Helvetica, Arial, sans-serif" font-size="14.00" fill="#000000">error: 2.726</text>
</g>
<!-- rurpop_s&#45;&gt;spam_P_i_sum_s -->
<g id="edge2" class="edge">
<title>rurpop_s-&gt;spam_P_i_sum_s</title>
<path fill="none" stroke="#666666" stroke-width="2" d="M152,-506C144.0845,-478.104 140.7303,-446.2747 139.4899,-418.898"/>
<polygon fill="#666666" stroke="#666666" stroke-width="2" points="143.6789,-418.5081 139.0599,-406.663 135.284,-418.8032 143.6789,-418.5081"/>
</g>
<!-- rurpop_s&#45;&gt;loccount_y -->
<g id="edge3" class="edge">
<title>rurpop_s-&gt;loccount_y</title>
<path fill="none" stroke="#666666" stroke-width="2" d="M152,-506C137.29,-454.1587 200.1365,-456.2533 222,-407 240.6095,-365.0772 247.8721,-313.4037 250.6142,-274.6891"/>
<polygon fill="#666666" stroke="#666666" stroke-width="2" points="254.8129,-274.8379 251.3543,-262.6036 246.4286,-274.3244 254.8129,-274.8379"/>
</g>
<!-- yield_gap_rice_s -->
<g id="node6" class="node rankB">
<title>yield_gap_rice_s</title>
<path fill="none" stroke="#000000" d="M220,-443.5C220,-443.5 322,-443.5 322,-443.5 328,-443.5 334,-449.5 334,-455.5 334,-455.5 334,-556.5 334,-556.5 334,-562.5 328,-568.5 322,-568.5 322,-568.5 220,-568.5 220,-568.5 214,-568.5 208,-562.5 208,-556.5 208,-556.5 208,-455.5 208,-455.5 208,-449.5 214,-443.5 220,-443.5"/>
<text text-anchor="start" x="218.5" y="-549.7" font-family="Helvetica, Arial, sans-serif" font-size="16.00" fill="#000000">Gap between</text>
<text text-anchor="start" x="217" y="-531.7" font-family="Helvetica, Arial, sans-serif" font-size="16.00" fill="#000000">observed and</text>
<text text-anchor="start" x="218" y="-513.7" font-family="Helvetica, Arial, sans-serif" font-size="16.00" fill="#000000">potential rice</text>
<text text-anchor="start" x="252" y="-495.7" font-family="Helvetica, Arial, sans-serif" font-size="16.00" fill="#000000">yield</text>
<polyline fill="none" stroke="#000000" points="208,-484.5 334,-484.5 "/>
<text text-anchor="start" x="222" y="-467.8" font-family="Helvetica, Arial, sans-serif" font-size="14.00" fill="#000000">effect: 0.389*</text>
<text text-anchor="start" x="228" y="-451.8" font-family="Helvetica, Arial, sans-serif" font-size="14.00" fill="#000000">error: 0.162</text>
</g>
<!-- rurpop_s&#45;&gt;yield_gap_rice_s -->
<g id="edge4" class="edge">
<title>rurpop_s-&gt;yield_gap_rice_s</title>
<path fill="none" stroke="#666666" stroke-width="2" d="M239.9916,-605.2269C242.4749,-597.2803 245.1204,-588.8148 247.7793,-580.3064"/>
<polygon fill="#666666" stroke="#666666" stroke-width="2" points="251.8288,-581.4285 251.3994,-568.722 243.8112,-578.923 251.8288,-581.4285"/>
</g>
<!-- acl_sum_fatl_m -->
<g id="node9" class="node rankC">
<title>acl_sum_fatl_m</title>
<path fill="none" stroke="#000000" d="M112,-137C112,-137 12,-137 12,-137 6,-137 0,-131 0,-125 0,-125 0,-81 0,-81 0,-75 6,-69 12,-69 12,-69 112,-69 112,-69 118,-69 124,-75 124,-81 124,-81 124,-125 124,-125 124,-131 118,-137 112,-137"/>
<text text-anchor="middle" x="62" y="-117.2" font-family="Helvetica, Arial, sans-serif" font-size="16.00" fill="#000000">Reported</text>
<text text-anchor="middle" x="62" y="-99.2" font-family="Helvetica, Arial, sans-serif" font-size="16.00" fill="#000000">fatalities from</text>
<text text-anchor="middle" x="62" y="-81.2" font-family="Helvetica, Arial, sans-serif" font-size="16.00" fill="#000000">conflict events</text>
</g>
<!-- rurpop_s&#45;&gt;acl_sum_fatl_m -->
<g id="edge5" class="edge">
<title>rurpop_s-&gt;acl_sum_fatl_m</title>
<path fill="none" stroke="#666666" stroke-width="2" d="M197.7413,-605.4227C181.6431,-577.8437 162.6208,-541.1095 152,-506"/>
<path fill="none" stroke="#666666" stroke-width="2" d="M152,-506C134.432,-447.9246 80.4912,-463.3518 58,-407 23.7703,-321.2373 38.193,-210.7192 50.7571,-149.3336"/>
<polygon fill="#666666" stroke="#666666" stroke-width="2" points="54.9131,-149.9826 53.3109,-137.3702 46.6982,-148.229 54.9131,-149.9826"/>
</g>
<!-- Cropland2000_mean_percent_s -->
<g id="node3" class="node rankA">
<title>Cropland2000_mean_percent_s</title>
<path fill="none" stroke="#000000" d="M110.5,-731.5C110.5,-731.5 253.5,-731.5 253.5,-731.5 259.5,-731.5 265.5,-737.5 265.5,-743.5 265.5,-743.5 265.5,-808.5 265.5,-808.5 265.5,-814.5 259.5,-820.5 253.5,-820.5 253.5,-820.5 110.5,-820.5 110.5,-820.5 104.5,-820.5 98.5,-814.5 98.5,-808.5 98.5,-808.5 98.5,-743.5 98.5,-743.5 98.5,-737.5 104.5,-731.5 110.5,-731.5"/>
<text text-anchor="start" x="108" y="-801.7" font-family="Helvetica, Arial, sans-serif" font-size="16.00" fill="#000000">Percentage of land</text>
<text text-anchor="start" x="120.5" y="-783.7" font-family="Helvetica, Arial, sans-serif" font-size="16.00" fill="#000000">that is cropland</text>
<polyline fill="none" stroke="#000000" points="98.5,-772.5 265.5,-772.5 "/>
<text text-anchor="start" x="134" y="-755.8" font-family="Helvetica, Arial, sans-serif" font-size="14.00" fill="#000000">effect: -0.065</text>
<text text-anchor="start" x="139" y="-739.8" font-family="Helvetica, Arial, sans-serif" font-size="14.00" fill="#000000">error: 0.066</text>
</g>
<!-- Cropland2000_mean_percent_s&#45;&gt;rurpop_s -->
<g id="edge6" class="edge">
<title>Cropland2000_mean_percent_s-&gt;rurpop_s</title>
<path fill="none" stroke="#666666" stroke-width="2" d="M197.6366,-731.2223C200.4896,-723.0525 203.4988,-714.4354 206.4485,-705.9885"/>
<polygon fill="#666666" stroke="#666666" stroke-width="2" points="210.4226,-707.3473 210.4137,-694.6335 202.4923,-704.5779 210.4226,-707.3473"/>
</g>
<!-- acl_sum_evnt_m -->
<g id="node8" class="node rankC">
<title>acl_sum_evnt_m</title>
<path fill="none" stroke="#000000" d="M306,-128C306,-128 198,-128 198,-128 192,-128 186,-122 186,-116 186,-116 186,-90 186,-90 186,-84 192,-78 198,-78 198,-78 306,-78 306,-78 312,-78 318,-84 318,-90 318,-90 318,-116 318,-116 318,-122 312,-128 306,-128"/>
<text text-anchor="middle" x="252" y="-108.2" font-family="Helvetica, Arial, sans-serif" font-size="16.00" fill="#000000">Total number of</text>
<text text-anchor="middle" x="252" y="-90.2" font-family="Helvetica, Arial, sans-serif" font-size="16.00" fill="#000000">conflict events</text>
</g>
<!-- loccount_y&#45;&gt;acl_sum_evnt_m -->
<g id="edge7" class="edge">
<title>loccount_y-&gt;acl_sum_evnt_m</title>
<path fill="none" stroke="#666666" stroke-width="2" d="M252,-173.2087C252,-162.3583 252,-150.8723 252,-140.4031"/>
<polygon fill="#666666" stroke="#666666" stroke-width="2" points="256.2001,-140.2483 252,-128.2484 247.8001,-140.2484 256.2001,-140.2483"/>
</g>
<!-- locdensity_y -->
<g id="node5" class="node rankB">
<title>locdensity_y</title>
<path fill="none" stroke="#000000" d="M308.5,-317.5C308.5,-317.5 447.5,-317.5 447.5,-317.5 453.5,-317.5 459.5,-323.5 459.5,-329.5 459.5,-329.5 459.5,-376.5 459.5,-376.5 459.5,-382.5 453.5,-388.5 447.5,-388.5 447.5,-388.5 308.5,-388.5 308.5,-388.5 302.5,-388.5 296.5,-382.5 296.5,-376.5 296.5,-376.5 296.5,-329.5 296.5,-329.5 296.5,-323.5 302.5,-317.5 308.5,-317.5"/>
<text text-anchor="start" x="306" y="-369.7" font-family="Helvetica, Arial, sans-serif" font-size="16.00" fill="#000000">Population density</text>
<polyline fill="none" stroke="#000000" points="296.5,-358.5 459.5,-358.5 "/>
<text text-anchor="start" x="333" y="-341.8" font-family="Helvetica, Arial, sans-serif" font-size="14.00" fill="#000000">effect: 0.772</text>
<text text-anchor="start" x="335.5" y="-325.8" font-family="Helvetica, Arial, sans-serif" font-size="14.00" fill="#000000">error: 0.775</text>
</g>
<!-- locdensity_y&#45;&gt;loccount_y -->
<g id="edge8" class="edge">
<title>locdensity_y-&gt;loccount_y</title>
<path fill="none" stroke="#666666" stroke-width="2" d="M344.5651,-317.1769C331.5228,-303.203 316.2943,-286.8867 301.9994,-271.5707"/>
<polygon fill="#666666" stroke="#666666" stroke-width="2" points="304.9725,-268.6007 293.7142,-262.6938 298.8316,-274.3322 304.9725,-268.6007"/>
</g>
<!-- locdensity_y&#45;&gt;acl_sum_evnt_m -->
<g id="edge9" class="edge">
<title>locdensity_y-&gt;acl_sum_evnt_m</title>
<path fill="none" stroke="#666666" stroke-width="2" d="M376.9015,-317.2756C374.2402,-278.9796 365.5814,-217.6714 338,-173 329.2152,-158.772 316.4913,-146.1405 303.5126,-135.6601"/>
<polygon fill="#666666" stroke="#666666" stroke-width="2" points="305.6814,-132.0311 293.5991,-128.0741 300.5767,-138.7021 305.6814,-132.0311"/>
</g>
<!-- yield_gap_rice_s&#45;&gt;locdensity_y -->
<g id="edge10" class="edge">
<title>yield_gap_rice_s-&gt;locdensity_y</title>
<path fill="none" stroke="#666666" stroke-width="2" d="M314.8297,-443.3276C325.3255,-428.3196 336.335,-412.5771 346.169,-398.5153"/>
<polygon fill="#666666" stroke="#666666" stroke-width="2" points="349.6624,-400.8487 353.0978,-388.6078 342.7787,-396.0346 349.6624,-400.8487"/>
</g>
<!-- et_actl_m_MIN_m -->
<g id="node7" class="node rankA">
<title>et_actl_m_MIN_m</title>
<path fill="none" stroke="#000000" d="M306,-731.5C306,-731.5 450,-731.5 450,-731.5 456,-731.5 462,-737.5 462,-743.5 462,-743.5 462,-808.5 462,-808.5 462,-814.5 456,-820.5 450,-820.5 450,-820.5 306,-820.5 306,-820.5 300,-820.5 294,-814.5 294,-808.5 294,-808.5 294,-743.5 294,-743.5 294,-737.5 300,-731.5 306,-731.5"/>
<text text-anchor="start" x="353" y="-801.7" font-family="Helvetica, Arial, sans-serif" font-size="16.00" fill="#000000">Actual</text>
<text text-anchor="start" x="303" y="-783.7" font-family="Helvetica, Arial, sans-serif" font-size="16.00" fill="#000000">evapotranspiration</text>
<polyline fill="none" stroke="#000000" points="294,-772.5 462,-772.5 "/>
<text text-anchor="start" x="319" y="-755.8" font-family="Helvetica, Arial, sans-serif" font-size="14.00" fill="#000000">effect: -0.464***</text>
<text text-anchor="start" x="335" y="-739.8" font-family="Helvetica, Arial, sans-serif" font-size="14.00" fill="#000000">error: 0.116</text>
</g>
<!-- et_actl_m_MIN_m&#45;&gt;rurpop_s -->
<g id="edge11" class="edge">
<title>et_actl_m_MIN_m-&gt;rurpop_s</title>
<path fill="none" stroke="#666666" stroke-width="2" d="M323.9825,-731.2223C312.7829,-721.9384 300.8864,-712.0769 289.3864,-702.544"/>
<polygon fill="#666666" stroke="#666666" stroke-width="2" points="291.7625,-699.0583 279.8435,-694.6335 286.4017,-705.5253 291.7625,-699.0583"/>
</g>
<!-- et_actl_m_MIN_m&#45;&gt;locdensity_y -->
<g id="edge12" class="edge">
<title>et_actl_m_MIN_m-&gt;locdensity_y</title>
<path fill="none" stroke="#666666" stroke-width="2" d="M378,-650C362.4042,-563.2414 367.638,-459.9091 372.8366,-400.829"/>
<polygon fill="#666666" stroke="#666666" stroke-width="2" points="377.048,-400.8988 373.9721,-388.5628 368.6838,-400.1245 377.048,-400.8988"/>
</g>
<!-- et_actl_m_MIN_m&#45;&gt;yield_gap_rice_s -->
<g id="edge13" class="edge">
<title>et_actl_m_MIN_m-&gt;yield_gap_rice_s</title>
<path fill="none" stroke="#666666" stroke-width="2" d="M381.8278,-731.3416C382.9491,-707.0934 382.7991,-676.6971 378,-650"/>
<path fill="none" stroke="#666666" stroke-width="2" d="M378,-650C373.0798,-622.6292 358.5756,-596.8341 341.7713,-574.845"/>
<polygon fill="#666666" stroke="#666666" stroke-width="2" points="344.9527,-572.0981 334.1836,-565.3403 338.3879,-577.3388 344.9527,-572.0981"/>
</g>
<!-- acl_sum_fatl_m&#45;&gt;acl_sum_evnt_m -->
<g id="edge14" class="edge">
<title>acl_sum_fatl_m-&gt;acl_sum_evnt_m</title>
<path fill="none" stroke="#666666" stroke-width="2" d="M124.3438,-103C140.6358,-103 156.9279,-103 173.2199,-103"/>
<polygon fill="#666666" stroke="#666666" stroke-width="2" points="173.6786,-107.2001 185.6786,-103 173.6786,-98.8001 173.6786,-107.2001"/>
</g>
</g>
<style>.node path {
  stroke: #fff;
}
.node text {
  fill: #fff;
}
.node polyline {
  stroke: #fff;
}
.rankA path {
  fill: #1b6002;
}
.rankB path {
  fill: #437387;
}
.rankC path {
  fill: #2e3348;
}
</style></svg>
