<?xml version="1.0" encoding="UTF-8" standalone="no"?>
<!DOCTYPE svg PUBLIC "-//W3C//DTD SVG 1.1//EN" "http://www.w3.org/Graphics/SVG/1.1/DTD/svg11.dtd">
<!-- Generated by graphviz version 2.40.1 (20161225.0304)
 -->
<!-- Title: causalModel Pages: 1 -->
<svg xmlns="http://www.w3.org/2000/svg" xmlns:xlink="http://www.w3.org/1999/xlink" width="" height="" viewBox="0.00 0.00 658.50 831.00" preserveAspectRatio="xMinYMin">
<g id="graph0" class="graph" transform="scale(1 1) rotate(0) translate(4 827)">
<title>causalModel</title>
<polygon fill="#ffffff" stroke="transparent" points="-4,4 -4,-827 654.5,-827 654.5,4 -4,4"/>
<!-- spam_P_i_sum_s -->
<g id="node1" class="node rankB">
<title>spam_P_i_sum_s</title>
<path fill="none" stroke="#000000" d="M135,-265.5C135,-265.5 307,-265.5 307,-265.5 313,-265.5 319,-271.5 319,-277.5 319,-277.5 319,-342.5 319,-342.5 319,-348.5 313,-354.5 307,-354.5 307,-354.5 135,-354.5 135,-354.5 129,-354.5 123,-348.5 123,-342.5 123,-342.5 123,-277.5 123,-277.5 123,-271.5 129,-265.5 135,-265.5"/>
<text text-anchor="start" x="130" y="-335.7" font-family="Helvetica, Arial, sans-serif" font-size="16.00" fill="#000000">Metric tons of irrigated</text>
<text text-anchor="start" x="159" y="-317.7" font-family="Helvetica, Arial, sans-serif" font-size="16.00" fill="#000000">crops produced</text>
<polyline fill="none" stroke="#000000" points="123,-306.5 319,-306.5 "/>
<text text-anchor="start" x="173" y="-289.8" font-family="Helvetica, Arial, sans-serif" font-size="14.00" fill="#000000">effect: -0.342</text>
<text text-anchor="start" x="178" y="-273.8" font-family="Helvetica, Arial, sans-serif" font-size="14.00" fill="#000000">error: 2.209</text>
</g>
<!-- loccount_y -->
<g id="node2" class="node rankB">
<title>loccount_y</title>
<path fill="none" stroke="#000000" d="M264.5,-121.5C264.5,-121.5 429.5,-121.5 429.5,-121.5 435.5,-121.5 441.5,-127.5 441.5,-133.5 441.5,-133.5 441.5,-180.5 441.5,-180.5 441.5,-186.5 435.5,-192.5 429.5,-192.5 429.5,-192.5 264.5,-192.5 264.5,-192.5 258.5,-192.5 252.5,-186.5 252.5,-180.5 252.5,-180.5 252.5,-133.5 252.5,-133.5 252.5,-127.5 258.5,-121.5 264.5,-121.5"/>
<text text-anchor="start" x="260" y="-173.7" font-family="Helvetica, Arial, sans-serif" font-size="16.00" fill="#000000">Total population count</text>
<polyline fill="none" stroke="#000000" points="252.5,-162.5 441.5,-162.5 "/>
<text text-anchor="start" x="302" y="-145.8" font-family="Helvetica, Arial, sans-serif" font-size="14.00" fill="#000000">effect: 1.387</text>
<text text-anchor="start" x="304.5" y="-129.8" font-family="Helvetica, Arial, sans-serif" font-size="14.00" fill="#000000">error: 0.879</text>
</g>
<!-- spam_P_i_sum_s&#45;&gt;loccount_y -->
<g id="edge1" class="edge">
<title>spam_P_i_sum_s-&gt;loccount_y</title>
<path fill="none" stroke="#000000" stroke-width="2" d="M257.7831,-265.3348C274.138,-245.4753 293.3619,-222.1319 309.7687,-202.2095"/>
<polygon fill="#000000" stroke="#000000" stroke-width="2" points="313.1853,-204.6676 317.5717,-192.7344 306.701,-199.3276 313.1853,-204.6676"/>
</g>
<!-- acl_sum_evnt_m -->
<g id="node7" class="node rankC">
<title>acl_sum_evnt_m</title>
<path fill="none" stroke="#000000" d="M258.5,-.5C258.5,-.5 435.5,-.5 435.5,-.5 441.5,-.5 447.5,-6.5 447.5,-12.5 447.5,-12.5 447.5,-36.5 447.5,-36.5 447.5,-42.5 441.5,-48.5 435.5,-48.5 435.5,-48.5 258.5,-48.5 258.5,-48.5 252.5,-48.5 246.5,-42.5 246.5,-36.5 246.5,-36.5 246.5,-12.5 246.5,-12.5 246.5,-6.5 252.5,-.5 258.5,-.5"/>
<text text-anchor="start" x="254" y="-29.7" font-family="Helvetica, Arial, sans-serif" font-size="16.00" fill="#000000">Total number of conflict</text>
<text text-anchor="start" x="321" y="-11.7" font-family="Helvetica, Arial, sans-serif" font-size="16.00" fill="#000000">events</text>
</g>
<!-- loccount_y&#45;&gt;acl_sum_evnt_m -->
<g id="edge7" class="edge">
<title>loccount_y-&gt;acl_sum_evnt_m</title>
<path fill="none" stroke="#000000" stroke-width="2" d="M347,-121.4924C347,-102.7176 347,-79.7102 347,-60.816"/>
<polygon fill="#000000" stroke="#000000" stroke-width="2" points="351.2001,-60.788 347,-48.7881 342.8001,-60.7881 351.2001,-60.788"/>
</g>
<!-- rurpop_s -->
<g id="node3" class="node rankB">
<title>rurpop_s</title>
<path fill="none" stroke="#000000" d="M248.5,-589.5C248.5,-589.5 433.5,-589.5 433.5,-589.5 439.5,-589.5 445.5,-595.5 445.5,-601.5 445.5,-601.5 445.5,-648.5 445.5,-648.5 445.5,-654.5 439.5,-660.5 433.5,-660.5 433.5,-660.5 248.5,-660.5 248.5,-660.5 242.5,-660.5 236.5,-654.5 236.5,-648.5 236.5,-648.5 236.5,-601.5 236.5,-601.5 236.5,-595.5 242.5,-589.5 248.5,-589.5"/>
<text text-anchor="start" x="244" y="-641.7" font-family="Helvetica, Arial, sans-serif" font-size="16.00" fill="#000000">Population in rural areas</text>
<polyline fill="none" stroke="#000000" points="236.5,-630.5 445.5,-630.5 "/>
<text text-anchor="start" x="296" y="-613.8" font-family="Helvetica, Arial, sans-serif" font-size="14.00" fill="#000000">effect: 3.303</text>
<text text-anchor="start" x="298.5" y="-597.8" font-family="Helvetica, Arial, sans-serif" font-size="14.00" fill="#000000">error: 2.726</text>
</g>
<!-- rurpop_s&#45;&gt;spam_P_i_sum_s -->
<g id="edge2" class="edge">
<title>rurpop_s-&gt;spam_P_i_sum_s</title>
<path fill="none" stroke="#000000" stroke-width="2" d="M221,-472C209.409,-438.4396 209.2498,-398.5835 212.0663,-366.8021"/>
<polygon fill="#000000" stroke="#000000" stroke-width="2" points="216.2708,-366.9742 213.3255,-354.6063 207.9152,-366.1115 216.2708,-366.9742"/>
</g>
<!-- rurpop_s&#45;&gt;loccount_y -->
<g id="edge3" class="edge">
<title>rurpop_s-&gt;loccount_y</title>
<path fill="none" stroke="#000000" stroke-width="2" d="M221,-472C213.153,-449.2799 235.1662,-445.0851 251,-427 282.9478,-390.5098 311.4507,-398.4491 333,-355 356.3622,-307.8956 356.8495,-246.6057 353.4302,-204.7723"/>
<polygon fill="#000000" stroke="#000000" stroke-width="2" points="357.6016,-204.271 352.2932,-192.7184 349.2388,-205.0599 357.6016,-204.271"/>
</g>
<!-- yield_gap_rice_s -->
<g id="node4" class="node rankB">
<title>yield_gap_rice_s</title>
<path fill="none" stroke="#000000" d="M277.5,-427.5C277.5,-427.5 484.5,-427.5 484.5,-427.5 490.5,-427.5 496.5,-433.5 496.5,-439.5 496.5,-439.5 496.5,-504.5 496.5,-504.5 496.5,-510.5 490.5,-516.5 484.5,-516.5 484.5,-516.5 277.5,-516.5 277.5,-516.5 271.5,-516.5 265.5,-510.5 265.5,-504.5 265.5,-504.5 265.5,-439.5 265.5,-439.5 265.5,-433.5 271.5,-427.5 277.5,-427.5"/>
<text text-anchor="start" x="273" y="-497.7" font-family="Helvetica, Arial, sans-serif" font-size="16.00" fill="#000000">Gap between observed and</text>
<text text-anchor="start" x="307.5" y="-479.7" font-family="Helvetica, Arial, sans-serif" font-size="16.00" fill="#000000">potential rice yield</text>
<polyline fill="none" stroke="#000000" points="265.5,-468.5 496.5,-468.5 "/>
<text text-anchor="start" x="336" y="-451.8" font-family="Helvetica, Arial, sans-serif" font-size="14.00" fill="#000000">effect: 0.389</text>
<text text-anchor="start" x="338.5" y="-435.8" font-family="Helvetica, Arial, sans-serif" font-size="14.00" fill="#000000">error: 0.162</text>
</g>
<!-- rurpop_s&#45;&gt;yield_gap_rice_s -->
<g id="edge4" class="edge">
<title>rurpop_s-&gt;yield_gap_rice_s</title>
<path fill="none" stroke="#000000" stroke-width="2" d="M350.3782,-589.1283C355.1074,-571.039 360.9529,-548.6801 366.2649,-528.3618"/>
<polygon fill="#000000" stroke="#000000" stroke-width="2" points="370.3465,-529.3543 369.3184,-516.6821 362.2197,-527.2296 370.3465,-529.3543"/>
</g>
<!-- acl_sum_fatl_m -->
<g id="node5" class="node rankC">
<title>acl_sum_fatl_m</title>
<path fill="none" stroke="#000000" d="M12,-133C12,-133 190,-133 190,-133 196,-133 202,-139 202,-145 202,-145 202,-169 202,-169 202,-175 196,-181 190,-181 190,-181 12,-181 12,-181 6,-181 0,-175 0,-169 0,-169 0,-145 0,-145 0,-139 6,-133 12,-133"/>
<text text-anchor="start" x="7" y="-162.2" font-family="Helvetica, Arial, sans-serif" font-size="16.00" fill="#000000">Reported fatalities from</text>
<text text-anchor="start" x="43" y="-144.2" font-family="Helvetica, Arial, sans-serif" font-size="16.00" fill="#000000">conflict events</text>
</g>
<!-- rurpop_s&#45;&gt;acl_sum_fatl_m -->
<g id="edge5" class="edge">
<title>rurpop_s-&gt;acl_sum_fatl_m</title>
<path fill="none" stroke="#000000" stroke-width="2" d="M302.1109,-589.268C273.8867,-560.6323 237.8223,-517.7877 221,-472"/>
<path fill="none" stroke="#000000" stroke-width="2" d="M221,-472C196.0691,-404.1419 136.2636,-421.539 108,-355 85.5636,-302.1796 89.3989,-234.1076 94.7917,-193.0995"/>
<polygon fill="#000000" stroke="#000000" stroke-width="2" points="98.975,-193.515 96.5269,-181.0391 90.6607,-192.3186 98.975,-193.515"/>
</g>
<!-- locdensity_y -->
<g id="node8" class="node rankB">
<title>locdensity_y</title>
<path fill="none" stroke="#000000" d="M418.5,-274.5C418.5,-274.5 553.5,-274.5 553.5,-274.5 559.5,-274.5 565.5,-280.5 565.5,-286.5 565.5,-286.5 565.5,-333.5 565.5,-333.5 565.5,-339.5 559.5,-345.5 553.5,-345.5 553.5,-345.5 418.5,-345.5 418.5,-345.5 412.5,-345.5 406.5,-339.5 406.5,-333.5 406.5,-333.5 406.5,-286.5 406.5,-286.5 406.5,-280.5 412.5,-274.5 418.5,-274.5"/>
<text text-anchor="start" x="414" y="-326.7" font-family="Helvetica, Arial, sans-serif" font-size="16.00" fill="#000000">Population density</text>
<polyline fill="none" stroke="#000000" points="406.5,-315.5 565.5,-315.5 "/>
<text text-anchor="start" x="441" y="-298.8" font-family="Helvetica, Arial, sans-serif" font-size="14.00" fill="#000000">effect: 0.772</text>
<text text-anchor="start" x="443.5" y="-282.8" font-family="Helvetica, Arial, sans-serif" font-size="14.00" fill="#000000">error: 0.775</text>
</g>
<!-- yield_gap_rice_s&#45;&gt;locdensity_y -->
<g id="edge10" class="edge">
<title>yield_gap_rice_s-&gt;locdensity_y</title>
<path fill="none" stroke="#000000" stroke-width="2" d="M409.9697,-427.304C424.3804,-405.0702 441.7735,-378.2351 456.2851,-355.8459"/>
<polygon fill="#000000" stroke="#000000" stroke-width="2" points="459.9372,-357.9332 462.9395,-345.579 452.8883,-353.3645 459.9372,-357.9332"/>
</g>
<!-- acl_sum_fatl_m&#45;&gt;acl_sum_evnt_m -->
<g id="edge14" class="edge">
<title>acl_sum_fatl_m-&gt;acl_sum_evnt_m</title>
<path fill="none" stroke="#000000" stroke-width="2" d="M145.8341,-132.8515C186.7163,-110.8317 247.27,-78.2164 291.2551,-54.5252"/>
<polygon fill="#000000" stroke="#000000" stroke-width="2" points="293.4854,-58.0945 302.0587,-48.7062 289.502,-50.699 293.4854,-58.0945"/>
</g>
<!-- Cropland2000_mean_percent_s -->
<g id="node6" class="node rankA">
<title>Cropland2000_mean_percent_s</title>
<path fill="none" stroke="#000000" d="M214,-733.5C214,-733.5 390,-733.5 390,-733.5 396,-733.5 402,-739.5 402,-745.5 402,-745.5 402,-810.5 402,-810.5 402,-816.5 396,-822.5 390,-822.5 390,-822.5 214,-822.5 214,-822.5 208,-822.5 202,-816.5 202,-810.5 202,-810.5 202,-745.5 202,-745.5 202,-739.5 208,-733.5 214,-733.5"/>
<text text-anchor="start" x="209" y="-803.7" font-family="Helvetica, Arial, sans-serif" font-size="16.00" fill="#000000">Percentage of land that</text>
<text text-anchor="start" x="258" y="-785.7" font-family="Helvetica, Arial, sans-serif" font-size="16.00" fill="#000000">is cropland</text>
<polyline fill="none" stroke="#000000" points="202,-774.5 402,-774.5 "/>
<text text-anchor="start" x="254" y="-757.8" font-family="Helvetica, Arial, sans-serif" font-size="14.00" fill="#000000">effect: -0.065</text>
<text text-anchor="start" x="259" y="-741.8" font-family="Helvetica, Arial, sans-serif" font-size="14.00" fill="#000000">error: 0.066</text>
</g>
<!-- Cropland2000_mean_percent_s&#45;&gt;rurpop_s -->
<g id="edge6" class="edge">
<title>Cropland2000_mean_percent_s-&gt;rurpop_s</title>
<path fill="none" stroke="#000000" stroke-width="2" d="M313.3853,-733.3348C318.2634,-714.1974 323.9662,-691.825 328.9187,-672.3961"/>
<polygon fill="#000000" stroke="#000000" stroke-width="2" points="332.997,-673.4 331.8912,-660.7344 324.8573,-671.3251 332.997,-673.4"/>
</g>
<!-- locdensity_y&#45;&gt;loccount_y -->
<g id="edge8" class="edge">
<title>locdensity_y-&gt;loccount_y</title>
<path fill="none" stroke="#000000" stroke-width="2" d="M453.4107,-274.1283C433.7174,-252.4515 408.454,-224.6437 387.4854,-201.5631"/>
<polygon fill="#000000" stroke="#000000" stroke-width="2" points="390.563,-198.7047 379.3851,-192.647 384.3457,-204.3531 390.563,-198.7047"/>
</g>
<!-- locdensity_y&#45;&gt;acl_sum_evnt_m -->
<g id="edge9" class="edge">
<title>locdensity_y-&gt;acl_sum_evnt_m</title>
<path fill="none" stroke="#000000" stroke-width="2" d="M487.3193,-274.2741C487.2659,-234.4666 482.5269,-169.352 456,-121 441.7155,-94.9629 417.58,-72.4972 395.6461,-55.8098"/>
<polygon fill="#000000" stroke="#000000" stroke-width="2" points="397.9254,-52.2728 385.7666,-48.5571 392.9545,-59.0441 397.9254,-52.2728"/>
</g>
<!-- et_actl_m_MIN_m -->
<g id="node9" class="node rankA">
<title>et_actl_m_MIN_m</title>
<path fill="none" stroke="#000000" d="M443.5,-742.5C443.5,-742.5 638.5,-742.5 638.5,-742.5 644.5,-742.5 650.5,-748.5 650.5,-754.5 650.5,-754.5 650.5,-801.5 650.5,-801.5 650.5,-807.5 644.5,-813.5 638.5,-813.5 638.5,-813.5 443.5,-813.5 443.5,-813.5 437.5,-813.5 431.5,-807.5 431.5,-801.5 431.5,-801.5 431.5,-754.5 431.5,-754.5 431.5,-748.5 437.5,-742.5 443.5,-742.5"/>
<text text-anchor="start" x="439" y="-794.7" font-family="Helvetica, Arial, sans-serif" font-size="16.00" fill="#000000">Actual evapotranspiration</text>
<polyline fill="none" stroke="#000000" points="431.5,-783.5 650.5,-783.5 "/>
<text text-anchor="start" x="493" y="-766.8" font-family="Helvetica, Arial, sans-serif" font-size="14.00" fill="#000000">effect: -0.464</text>
<text text-anchor="start" x="498" y="-750.8" font-family="Helvetica, Arial, sans-serif" font-size="14.00" fill="#000000">error: 0.116</text>
</g>
<!-- et_actl_m_MIN_m&#45;&gt;rurpop_s -->
<g id="edge11" class="edge">
<title>et_actl_m_MIN_m-&gt;rurpop_s</title>
<path fill="none" stroke="#000000" stroke-width="2" d="M494.3613,-742.3214C465.4064,-720.1709 428.0103,-691.5629 397.3951,-668.1422"/>
<polygon fill="#000000" stroke="#000000" stroke-width="2" points="399.7955,-664.6905 387.7126,-660.7351 394.6916,-671.3622 399.7955,-664.6905"/>
</g>
<!-- et_actl_m_MIN_m&#45;&gt;yield_gap_rice_s -->
<g id="edge13" class="edge">
<title>et_actl_m_MIN_m-&gt;yield_gap_rice_s</title>
<path fill="none" stroke="#000000" stroke-width="2" d="M545.7388,-742.4858C548.8141,-711.1025 550.6638,-664.3382 541,-625"/>
<path fill="none" stroke="#000000" stroke-width="2" d="M541,-625C530.8605,-583.7254 499.6253,-549.5601 467.4119,-524.0639"/>
<polygon fill="#000000" stroke="#000000" stroke-width="2" points="469.9484,-520.7163 457.863,-516.7684 464.8487,-527.3911 469.9484,-520.7163"/>
</g>
<!-- et_actl_m_MIN_m&#45;&gt;locdensity_y -->
<g id="edge12" class="edge">
<title>et_actl_m_MIN_m-&gt;locdensity_y</title>
<path fill="none" stroke="#000000" stroke-width="2" d="M541,-625C519.7665,-538.5655 526.973,-514.5594 511,-427 506.8245,-404.1109 501.5165,-378.8518 496.8667,-357.6791"/>
<polygon fill="#000000" stroke="#000000" stroke-width="2" points="500.9163,-356.5403 494.2185,-345.7339 492.7154,-358.3585 500.9163,-356.5403"/>
</g>
</g>
<style>.node path {
  stroke: #fff;
}
.node text {
  fill: #fff;
}
.rankC.node text {
  fill: #000;
}
.node polyline {
  stroke: #fff;
}
.rankA path {
  fill: #292a40;
}
.rankB path {
  fill: #4a6e81;
}
.rankC path {
  fill: #73b85f;
}
.edge path {
  stroke: #666;
};
</style></svg>
