<?xml version="1.0" encoding="UTF-8" standalone="no"?>
<!DOCTYPE svg PUBLIC "-//W3C//DTD SVG 1.1//EN" "http://www.w3.org/Graphics/SVG/1.1/DTD/svg11.dtd">
<!-- Generated by graphviz version 2.40.1 (20161225.0304)
 -->
<!-- Title: causalModel Pages: 1 -->
<svg xmlns="http://www.w3.org/2000/svg" xmlns:xlink="http://www.w3.org/1999/xlink" width="" height="" viewBox="0.00 0.00 470.00 799.00" preserveAspectRatio="xMinYMin">
<g id="graph0" class="graph" transform="scale(1 1) rotate(0) translate(4 795)">
<title>causalModel</title>
<polygon fill="#ffffff" stroke="transparent" points="-4,4 -4,-795 466,-795 466,4 -4,4"/>
<text text-anchor="middle" x="231" y="-7.8" font-family="Helvetica, Arial, sans-serif" font-size="14.00" fill="#000000">Causal Model: East Asia and Pacific</text>
<!-- spam_P_i_sum_s -->
<g id="node1" class="node rankB">
<title>spam_P_i_sum_s</title>
<path fill="none" stroke="#000000" d="M84.5,-269.5C84.5,-269.5 195.5,-269.5 195.5,-269.5 201.5,-269.5 207.5,-275.5 207.5,-281.5 207.5,-281.5 207.5,-364.5 207.5,-364.5 207.5,-370.5 201.5,-376.5 195.5,-376.5 195.5,-376.5 84.5,-376.5 84.5,-376.5 78.5,-376.5 72.5,-370.5 72.5,-364.5 72.5,-364.5 72.5,-281.5 72.5,-281.5 72.5,-275.5 78.5,-269.5 84.5,-269.5"/>
<text text-anchor="start" x="86" y="-357.7" font-family="Helvetica, Arial, sans-serif" font-size="16.00" fill="#000000">Metric tons of</text>
<text text-anchor="start" x="82" y="-339.7" font-family="Helvetica, Arial, sans-serif" font-size="16.00" fill="#000000">irrigated crops</text>
<text text-anchor="start" x="103" y="-321.7" font-family="Helvetica, Arial, sans-serif" font-size="16.00" fill="#000000">produced</text>
<polyline fill="none" stroke="#000000" points="72.5,-310.5 207.5,-310.5 "/>
<text text-anchor="start" x="92" y="-293.8" font-family="Helvetica, Arial, sans-serif" font-size="14.00" fill="#000000">effect: -0.342</text>
<text text-anchor="start" x="97" y="-277.8" font-family="Helvetica, Arial, sans-serif" font-size="14.00" fill="#000000">error: 2.209</text>
</g>
<!-- loccount_y -->
<g id="node4" class="node rankB">
<title>loccount_y</title>
<path fill="none" stroke="#000000" d="M192,-143.5C192,-143.5 312,-143.5 312,-143.5 318,-143.5 324,-149.5 324,-155.5 324,-155.5 324,-220.5 324,-220.5 324,-226.5 318,-232.5 312,-232.5 312,-232.5 192,-232.5 192,-232.5 186,-232.5 180,-226.5 180,-220.5 180,-220.5 180,-155.5 180,-155.5 180,-149.5 186,-143.5 192,-143.5"/>
<text text-anchor="start" x="189" y="-213.7" font-family="Helvetica, Arial, sans-serif" font-size="16.00" fill="#000000">Total population</text>
<text text-anchor="start" x="229.5" y="-195.7" font-family="Helvetica, Arial, sans-serif" font-size="16.00" fill="#000000">count</text>
<polyline fill="none" stroke="#000000" points="180,-184.5 324,-184.5 "/>
<text text-anchor="start" x="207" y="-167.8" font-family="Helvetica, Arial, sans-serif" font-size="14.00" fill="#000000">effect: 1.387</text>
<text text-anchor="start" x="209.5" y="-151.8" font-family="Helvetica, Arial, sans-serif" font-size="14.00" fill="#000000">error: 0.879</text>
</g>
<!-- spam_P_i_sum_s&#45;&gt;loccount_y -->
<g id="edge1" class="edge">
<title>spam_P_i_sum_s-&gt;loccount_y</title>
<path fill="none" stroke="#666666" stroke-width="2" d="M184.5872,-269.2565C191.9341,-260.4008 199.5548,-251.2152 206.9139,-242.3449"/>
<polygon fill="#666666" stroke="#666666" stroke-width="2" points="210.3416,-244.7911 214.7713,-232.8739 203.8768,-239.4277 210.3416,-244.7911"/>
</g>
<!-- rurpop_s -->
<g id="node2" class="node rankB">
<title>rurpop_s</title>
<path fill="none" stroke="#000000" d="M177.5,-575.5C177.5,-575.5 274.5,-575.5 274.5,-575.5 280.5,-575.5 286.5,-581.5 286.5,-587.5 286.5,-587.5 286.5,-652.5 286.5,-652.5 286.5,-658.5 280.5,-664.5 274.5,-664.5 274.5,-664.5 177.5,-664.5 177.5,-664.5 171.5,-664.5 165.5,-658.5 165.5,-652.5 165.5,-652.5 165.5,-587.5 165.5,-587.5 165.5,-581.5 171.5,-575.5 177.5,-575.5"/>
<text text-anchor="start" x="175" y="-645.7" font-family="Helvetica, Arial, sans-serif" font-size="16.00" fill="#000000">Population in</text>
<text text-anchor="start" x="182.5" y="-627.7" font-family="Helvetica, Arial, sans-serif" font-size="16.00" fill="#000000">rural areas</text>
<polyline fill="none" stroke="#000000" points="165.5,-616.5 286.5,-616.5 "/>
<text text-anchor="start" x="181" y="-599.8" font-family="Helvetica, Arial, sans-serif" font-size="14.00" fill="#000000">effect: 3.303</text>
<text text-anchor="start" x="183.5" y="-583.8" font-family="Helvetica, Arial, sans-serif" font-size="14.00" fill="#000000">error: 2.726</text>
</g>
<!-- rurpop_s&#45;&gt;spam_P_i_sum_s -->
<g id="edge2" class="edge">
<title>rurpop_s-&gt;spam_P_i_sum_s</title>
<path fill="none" stroke="#666666" stroke-width="2" d="M152,-476C144.0845,-448.104 140.7303,-416.2747 139.4899,-388.898"/>
<polygon fill="#666666" stroke="#666666" stroke-width="2" points="143.6789,-388.5081 139.0599,-376.663 135.284,-388.8032 143.6789,-388.5081"/>
</g>
<!-- rurpop_s&#45;&gt;loccount_y -->
<g id="edge3" class="edge">
<title>rurpop_s-&gt;loccount_y</title>
<path fill="none" stroke="#666666" stroke-width="2" d="M152,-476C137.29,-424.1587 200.1365,-426.2533 222,-377 240.6095,-335.0772 247.8721,-283.4037 250.6142,-244.6891"/>
<polygon fill="#666666" stroke="#666666" stroke-width="2" points="254.8129,-244.8379 251.3543,-232.6036 246.4286,-244.3244 254.8129,-244.8379"/>
</g>
<!-- yield_gap_rice_s -->
<g id="node6" class="node rankB">
<title>yield_gap_rice_s</title>
<path fill="none" stroke="#000000" d="M220,-413.5C220,-413.5 322,-413.5 322,-413.5 328,-413.5 334,-419.5 334,-425.5 334,-425.5 334,-526.5 334,-526.5 334,-532.5 328,-538.5 322,-538.5 322,-538.5 220,-538.5 220,-538.5 214,-538.5 208,-532.5 208,-526.5 208,-526.5 208,-425.5 208,-425.5 208,-419.5 214,-413.5 220,-413.5"/>
<text text-anchor="start" x="218.5" y="-519.7" font-family="Helvetica, Arial, sans-serif" font-size="16.00" fill="#000000">Gap between</text>
<text text-anchor="start" x="217" y="-501.7" font-family="Helvetica, Arial, sans-serif" font-size="16.00" fill="#000000">observed and</text>
<text text-anchor="start" x="218" y="-483.7" font-family="Helvetica, Arial, sans-serif" font-size="16.00" fill="#000000">potential rice</text>
<text text-anchor="start" x="252" y="-465.7" font-family="Helvetica, Arial, sans-serif" font-size="16.00" fill="#000000">yield</text>
<polyline fill="none" stroke="#000000" points="208,-454.5 334,-454.5 "/>
<text text-anchor="start" x="226" y="-437.8" font-family="Helvetica, Arial, sans-serif" font-size="14.00" fill="#000000">effect: 0.389</text>
<text text-anchor="start" x="228.5" y="-421.8" font-family="Helvetica, Arial, sans-serif" font-size="14.00" fill="#000000">error: 0.162</text>
</g>
<!-- rurpop_s&#45;&gt;yield_gap_rice_s -->
<g id="edge4" class="edge">
<title>rurpop_s-&gt;yield_gap_rice_s</title>
<path fill="none" stroke="#666666" stroke-width="2" d="M239.9916,-575.2269C242.4749,-567.2803 245.1204,-558.8148 247.7793,-550.3064"/>
<polygon fill="#666666" stroke="#666666" stroke-width="2" points="251.8288,-551.4285 251.3994,-538.722 243.8112,-548.923 251.8288,-551.4285"/>
</g>
<!-- acl_sum_fatl_m -->
<g id="node9" class="node rankC">
<title>acl_sum_fatl_m</title>
<path fill="none" stroke="#000000" d="M112,-107C112,-107 12,-107 12,-107 6,-107 0,-101 0,-95 0,-95 0,-51 0,-51 0,-45 6,-39 12,-39 12,-39 112,-39 112,-39 118,-39 124,-45 124,-51 124,-51 124,-95 124,-95 124,-101 118,-107 112,-107"/>
<text text-anchor="middle" x="62" y="-87.2" font-family="Helvetica, Arial, sans-serif" font-size="16.00" fill="#000000">Reported</text>
<text text-anchor="middle" x="62" y="-69.2" font-family="Helvetica, Arial, sans-serif" font-size="16.00" fill="#000000">fatalities from</text>
<text text-anchor="middle" x="62" y="-51.2" font-family="Helvetica, Arial, sans-serif" font-size="16.00" fill="#000000">conflict events</text>
</g>
<!-- rurpop_s&#45;&gt;acl_sum_fatl_m -->
<g id="edge5" class="edge">
<title>rurpop_s-&gt;acl_sum_fatl_m</title>
<path fill="none" stroke="#666666" stroke-width="2" d="M197.7413,-575.4227C181.6431,-547.8437 162.6208,-511.1095 152,-476"/>
<path fill="none" stroke="#666666" stroke-width="2" d="M152,-476C134.432,-417.9246 80.4912,-433.3518 58,-377 23.7703,-291.2373 38.193,-180.7192 50.7571,-119.3336"/>
<polygon fill="#666666" stroke="#666666" stroke-width="2" points="54.9131,-119.9826 53.3109,-107.3702 46.6982,-118.229 54.9131,-119.9826"/>
</g>
<!-- Cropland2000_mean_percent_s -->
<g id="node3" class="node rankA">
<title>Cropland2000_mean_percent_s</title>
<path fill="none" stroke="#000000" d="M110.5,-701.5C110.5,-701.5 253.5,-701.5 253.5,-701.5 259.5,-701.5 265.5,-707.5 265.5,-713.5 265.5,-713.5 265.5,-778.5 265.5,-778.5 265.5,-784.5 259.5,-790.5 253.5,-790.5 253.5,-790.5 110.5,-790.5 110.5,-790.5 104.5,-790.5 98.5,-784.5 98.5,-778.5 98.5,-778.5 98.5,-713.5 98.5,-713.5 98.5,-707.5 104.5,-701.5 110.5,-701.5"/>
<text text-anchor="start" x="108" y="-771.7" font-family="Helvetica, Arial, sans-serif" font-size="16.00" fill="#000000">Percentage of land</text>
<text text-anchor="start" x="120.5" y="-753.7" font-family="Helvetica, Arial, sans-serif" font-size="16.00" fill="#000000">that is cropland</text>
<polyline fill="none" stroke="#000000" points="98.5,-742.5 265.5,-742.5 "/>
<text text-anchor="start" x="134" y="-725.8" font-family="Helvetica, Arial, sans-serif" font-size="14.00" fill="#000000">effect: -0.065</text>
<text text-anchor="start" x="139" y="-709.8" font-family="Helvetica, Arial, sans-serif" font-size="14.00" fill="#000000">error: 0.066</text>
</g>
<!-- Cropland2000_mean_percent_s&#45;&gt;rurpop_s -->
<g id="edge6" class="edge">
<title>Cropland2000_mean_percent_s-&gt;rurpop_s</title>
<path fill="none" stroke="#666666" stroke-width="2" d="M197.6366,-701.2223C200.4896,-693.0525 203.4988,-684.4354 206.4485,-675.9885"/>
<polygon fill="#666666" stroke="#666666" stroke-width="2" points="210.4226,-677.3473 210.4137,-664.6335 202.4923,-674.5779 210.4226,-677.3473"/>
</g>
<!-- acl_sum_evnt_m -->
<g id="node8" class="node rankC">
<title>acl_sum_evnt_m</title>
<path fill="none" stroke="#000000" d="M306,-98C306,-98 198,-98 198,-98 192,-98 186,-92 186,-86 186,-86 186,-60 186,-60 186,-54 192,-48 198,-48 198,-48 306,-48 306,-48 312,-48 318,-54 318,-60 318,-60 318,-86 318,-86 318,-92 312,-98 306,-98"/>
<text text-anchor="middle" x="252" y="-78.2" font-family="Helvetica, Arial, sans-serif" font-size="16.00" fill="#000000">Total number of</text>
<text text-anchor="middle" x="252" y="-60.2" font-family="Helvetica, Arial, sans-serif" font-size="16.00" fill="#000000">conflict events</text>
</g>
<!-- loccount_y&#45;&gt;acl_sum_evnt_m -->
<g id="edge7" class="edge">
<title>loccount_y-&gt;acl_sum_evnt_m</title>
<path fill="none" stroke="#666666" stroke-width="2" d="M252,-143.2087C252,-132.3583 252,-120.8723 252,-110.4031"/>
<polygon fill="#666666" stroke="#666666" stroke-width="2" points="256.2001,-110.2483 252,-98.2484 247.8001,-110.2484 256.2001,-110.2483"/>
</g>
<!-- locdensity_y -->
<g id="node5" class="node rankB">
<title>locdensity_y</title>
<path fill="none" stroke="#000000" d="M308.5,-287.5C308.5,-287.5 447.5,-287.5 447.5,-287.5 453.5,-287.5 459.5,-293.5 459.5,-299.5 459.5,-299.5 459.5,-346.5 459.5,-346.5 459.5,-352.5 453.5,-358.5 447.5,-358.5 447.5,-358.5 308.5,-358.5 308.5,-358.5 302.5,-358.5 296.5,-352.5 296.5,-346.5 296.5,-346.5 296.5,-299.5 296.5,-299.5 296.5,-293.5 302.5,-287.5 308.5,-287.5"/>
<text text-anchor="start" x="306" y="-339.7" font-family="Helvetica, Arial, sans-serif" font-size="16.00" fill="#000000">Population density</text>
<polyline fill="none" stroke="#000000" points="296.5,-328.5 459.5,-328.5 "/>
<text text-anchor="start" x="333" y="-311.8" font-family="Helvetica, Arial, sans-serif" font-size="14.00" fill="#000000">effect: 0.772</text>
<text text-anchor="start" x="335.5" y="-295.8" font-family="Helvetica, Arial, sans-serif" font-size="14.00" fill="#000000">error: 0.775</text>
</g>
<!-- locdensity_y&#45;&gt;loccount_y -->
<g id="edge8" class="edge">
<title>locdensity_y-&gt;loccount_y</title>
<path fill="none" stroke="#666666" stroke-width="2" d="M344.5651,-287.1769C331.5228,-273.203 316.2943,-256.8867 301.9994,-241.5707"/>
<polygon fill="#666666" stroke="#666666" stroke-width="2" points="304.9725,-238.6007 293.7142,-232.6938 298.8316,-244.3322 304.9725,-238.6007"/>
</g>
<!-- locdensity_y&#45;&gt;acl_sum_evnt_m -->
<g id="edge9" class="edge">
<title>locdensity_y-&gt;acl_sum_evnt_m</title>
<path fill="none" stroke="#666666" stroke-width="2" d="M376.9015,-287.2756C374.2402,-248.9796 365.5814,-187.6714 338,-143 329.2152,-128.772 316.4913,-116.1405 303.5126,-105.6601"/>
<polygon fill="#666666" stroke="#666666" stroke-width="2" points="305.6814,-102.0311 293.5991,-98.0741 300.5767,-108.7021 305.6814,-102.0311"/>
</g>
<!-- yield_gap_rice_s&#45;&gt;locdensity_y -->
<g id="edge10" class="edge">
<title>yield_gap_rice_s-&gt;locdensity_y</title>
<path fill="none" stroke="#666666" stroke-width="2" d="M314.8297,-413.3276C325.3255,-398.3196 336.335,-382.5771 346.169,-368.5153"/>
<polygon fill="#666666" stroke="#666666" stroke-width="2" points="349.6624,-370.8487 353.0978,-358.6078 342.7787,-366.0346 349.6624,-370.8487"/>
</g>
<!-- et_actl_m_MIN_m -->
<g id="node7" class="node rankA">
<title>et_actl_m_MIN_m</title>
<path fill="none" stroke="#000000" d="M306,-701.5C306,-701.5 450,-701.5 450,-701.5 456,-701.5 462,-707.5 462,-713.5 462,-713.5 462,-778.5 462,-778.5 462,-784.5 456,-790.5 450,-790.5 450,-790.5 306,-790.5 306,-790.5 300,-790.5 294,-784.5 294,-778.5 294,-778.5 294,-713.5 294,-713.5 294,-707.5 300,-701.5 306,-701.5"/>
<text text-anchor="start" x="353" y="-771.7" font-family="Helvetica, Arial, sans-serif" font-size="16.00" fill="#000000">Actual</text>
<text text-anchor="start" x="303" y="-753.7" font-family="Helvetica, Arial, sans-serif" font-size="16.00" fill="#000000">evapotranspiration</text>
<polyline fill="none" stroke="#000000" points="294,-742.5 462,-742.5 "/>
<text text-anchor="start" x="330" y="-725.8" font-family="Helvetica, Arial, sans-serif" font-size="14.00" fill="#000000">effect: -0.464</text>
<text text-anchor="start" x="335" y="-709.8" font-family="Helvetica, Arial, sans-serif" font-size="14.00" fill="#000000">error: 0.116</text>
</g>
<!-- et_actl_m_MIN_m&#45;&gt;rurpop_s -->
<g id="edge11" class="edge">
<title>et_actl_m_MIN_m-&gt;rurpop_s</title>
<path fill="none" stroke="#666666" stroke-width="2" d="M323.9825,-701.2223C312.7829,-691.9384 300.8864,-682.0769 289.3864,-672.544"/>
<polygon fill="#666666" stroke="#666666" stroke-width="2" points="291.7625,-669.0583 279.8435,-664.6335 286.4017,-675.5253 291.7625,-669.0583"/>
</g>
<!-- et_actl_m_MIN_m&#45;&gt;locdensity_y -->
<g id="edge12" class="edge">
<title>et_actl_m_MIN_m-&gt;locdensity_y</title>
<path fill="none" stroke="#666666" stroke-width="2" d="M378,-620C362.4042,-533.2414 367.638,-429.9091 372.8366,-370.829"/>
<polygon fill="#666666" stroke="#666666" stroke-width="2" points="377.048,-370.8988 373.9721,-358.5628 368.6838,-370.1245 377.048,-370.8988"/>
</g>
<!-- et_actl_m_MIN_m&#45;&gt;yield_gap_rice_s -->
<g id="edge13" class="edge">
<title>et_actl_m_MIN_m-&gt;yield_gap_rice_s</title>
<path fill="none" stroke="#666666" stroke-width="2" d="M381.8278,-701.3416C382.9491,-677.0934 382.7991,-646.6971 378,-620"/>
<path fill="none" stroke="#666666" stroke-width="2" d="M378,-620C373.0798,-592.6292 358.5756,-566.8341 341.7713,-544.845"/>
<polygon fill="#666666" stroke="#666666" stroke-width="2" points="344.9527,-542.0981 334.1836,-535.3403 338.3879,-547.3388 344.9527,-542.0981"/>
</g>
<!-- acl_sum_fatl_m&#45;&gt;acl_sum_evnt_m -->
<g id="edge14" class="edge">
<title>acl_sum_fatl_m-&gt;acl_sum_evnt_m</title>
<path fill="none" stroke="#666666" stroke-width="2" d="M124.3438,-73C140.6358,-73 156.9279,-73 173.2199,-73"/>
<polygon fill="#666666" stroke="#666666" stroke-width="2" points="173.6786,-77.2001 185.6786,-73 173.6786,-68.8001 173.6786,-77.2001"/>
</g>
</g>
<style>.node path {
  stroke: #fff;
}
.node text {
  fill: #fff;
}
.node polyline {
  stroke: #fff;
}
.rankA path {
  fill: #1b6002;
}
.rankB path {
  fill: #437387;
}
.rankC path {
  fill: #2e3348;
}
</style></svg>
