<?xml version="1.0" encoding="UTF-8" standalone="no"?>
<!DOCTYPE svg PUBLIC "-//W3C//DTD SVG 1.1//EN" "http://www.w3.org/Graphics/SVG/1.1/DTD/svg11.dtd">
<!-- Generated by graphviz version 2.40.1 (20161225.0304)
 -->
<!-- Title: causalModel Pages: 1 -->
<svg xmlns="http://www.w3.org/2000/svg" xmlns:xlink="http://www.w3.org/1999/xlink" width="" height="" viewBox="0.00 0.00 476.00 793.00" preserveAspectRatio="xMinYMin">
<g id="graph0" class="graph" transform="scale(1 1) rotate(0) translate(4 789)">
<title>causalModel</title>
<polygon fill="#ffffff" stroke="transparent" points="-4,4 -4,-789 472,-789 472,4 -4,4"/>
<text text-anchor="middle" x="234" y="-7.8" font-family="Helvetica, Arial, sans-serif" font-size="14.00" fill="#000000">Causal Model: East Asia and Pacific</text>
<!-- spam_P_i_sum_s -->
<g id="node1" class="node rankB">
<title>spam_P_i_sum_s</title>
<path fill="none" stroke="#000000" d="M90.5,-263.5C90.5,-263.5 201.5,-263.5 201.5,-263.5 207.5,-263.5 213.5,-269.5 213.5,-275.5 213.5,-275.5 213.5,-358.5 213.5,-358.5 213.5,-364.5 207.5,-370.5 201.5,-370.5 201.5,-370.5 90.5,-370.5 90.5,-370.5 84.5,-370.5 78.5,-364.5 78.5,-358.5 78.5,-358.5 78.5,-275.5 78.5,-275.5 78.5,-269.5 84.5,-263.5 90.5,-263.5"/>
<text text-anchor="start" x="92" y="-351.7" font-family="Helvetica, Arial, sans-serif" font-size="16.00" fill="#000000">Metric tons of</text>
<text text-anchor="start" x="88" y="-333.7" font-family="Helvetica, Arial, sans-serif" font-size="16.00" fill="#000000">irrigated crops</text>
<text text-anchor="start" x="109" y="-315.7" font-family="Helvetica, Arial, sans-serif" font-size="16.00" fill="#000000">produced</text>
<polyline fill="none" stroke="#000000" points="78.5,-304.5 213.5,-304.5 "/>
<text text-anchor="start" x="98" y="-287.8" font-family="Helvetica, Arial, sans-serif" font-size="14.00" fill="#000000">effect: -0.342</text>
<text text-anchor="start" x="103" y="-271.8" font-family="Helvetica, Arial, sans-serif" font-size="14.00" fill="#000000">error: 2.209</text>
</g>
<!-- loccount_y -->
<g id="node4" class="node rankB">
<title>loccount_y</title>
<path fill="none" stroke="#000000" d="M198,-137.5C198,-137.5 318,-137.5 318,-137.5 324,-137.5 330,-143.5 330,-149.5 330,-149.5 330,-214.5 330,-214.5 330,-220.5 324,-226.5 318,-226.5 318,-226.5 198,-226.5 198,-226.5 192,-226.5 186,-220.5 186,-214.5 186,-214.5 186,-149.5 186,-149.5 186,-143.5 192,-137.5 198,-137.5"/>
<text text-anchor="start" x="195" y="-207.7" font-family="Helvetica, Arial, sans-serif" font-size="16.00" fill="#000000">Total population</text>
<text text-anchor="start" x="235.5" y="-189.7" font-family="Helvetica, Arial, sans-serif" font-size="16.00" fill="#000000">count</text>
<polyline fill="none" stroke="#000000" points="186,-178.5 330,-178.5 "/>
<text text-anchor="start" x="213" y="-161.8" font-family="Helvetica, Arial, sans-serif" font-size="14.00" fill="#000000">effect: 1.387</text>
<text text-anchor="start" x="215.5" y="-145.8" font-family="Helvetica, Arial, sans-serif" font-size="14.00" fill="#000000">error: 0.879</text>
</g>
<!-- spam_P_i_sum_s&#45;&gt;loccount_y -->
<g id="edge1" class="edge">
<title>spam_P_i_sum_s-&gt;loccount_y</title>
<path fill="none" stroke="#000000" stroke-width="2" d="M190.5872,-263.2565C197.9341,-254.4008 205.5548,-245.2152 212.9139,-236.3449"/>
<polygon fill="#000000" stroke="#000000" stroke-width="2" points="216.3416,-238.7911 220.7713,-226.8739 209.8768,-233.4277 216.3416,-238.7911"/>
</g>
<!-- rurpop_s -->
<g id="node2" class="node rankB">
<title>rurpop_s</title>
<path fill="none" stroke="#000000" d="M183.5,-569.5C183.5,-569.5 280.5,-569.5 280.5,-569.5 286.5,-569.5 292.5,-575.5 292.5,-581.5 292.5,-581.5 292.5,-646.5 292.5,-646.5 292.5,-652.5 286.5,-658.5 280.5,-658.5 280.5,-658.5 183.5,-658.5 183.5,-658.5 177.5,-658.5 171.5,-652.5 171.5,-646.5 171.5,-646.5 171.5,-581.5 171.5,-581.5 171.5,-575.5 177.5,-569.5 183.5,-569.5"/>
<text text-anchor="start" x="181" y="-639.7" font-family="Helvetica, Arial, sans-serif" font-size="16.00" fill="#000000">Population in</text>
<text text-anchor="start" x="188.5" y="-621.7" font-family="Helvetica, Arial, sans-serif" font-size="16.00" fill="#000000">rural areas</text>
<polyline fill="none" stroke="#000000" points="171.5,-610.5 292.5,-610.5 "/>
<text text-anchor="start" x="187" y="-593.8" font-family="Helvetica, Arial, sans-serif" font-size="14.00" fill="#000000">effect: 3.303</text>
<text text-anchor="start" x="189.5" y="-577.8" font-family="Helvetica, Arial, sans-serif" font-size="14.00" fill="#000000">error: 2.726</text>
</g>
<!-- rurpop_s&#45;&gt;spam_P_i_sum_s -->
<g id="edge2" class="edge">
<title>rurpop_s-&gt;spam_P_i_sum_s</title>
<path fill="none" stroke="#000000" stroke-width="2" d="M158,-470C150.0845,-442.104 146.7303,-410.2747 145.4899,-382.898"/>
<polygon fill="#000000" stroke="#000000" stroke-width="2" points="149.6789,-382.5081 145.0599,-370.663 141.284,-382.8032 149.6789,-382.5081"/>
</g>
<!-- rurpop_s&#45;&gt;loccount_y -->
<g id="edge3" class="edge">
<title>rurpop_s-&gt;loccount_y</title>
<path fill="none" stroke="#000000" stroke-width="2" d="M158,-470C143.29,-418.1587 206.1365,-420.2533 228,-371 246.6095,-329.0772 253.8721,-277.4037 256.6142,-238.6891"/>
<polygon fill="#000000" stroke="#000000" stroke-width="2" points="260.8129,-238.8379 257.3543,-226.6036 252.4286,-238.3244 260.8129,-238.8379"/>
</g>
<!-- yield_gap_rice_s -->
<g id="node6" class="node rankB">
<title>yield_gap_rice_s</title>
<path fill="none" stroke="#000000" d="M226,-407.5C226,-407.5 328,-407.5 328,-407.5 334,-407.5 340,-413.5 340,-419.5 340,-419.5 340,-520.5 340,-520.5 340,-526.5 334,-532.5 328,-532.5 328,-532.5 226,-532.5 226,-532.5 220,-532.5 214,-526.5 214,-520.5 214,-520.5 214,-419.5 214,-419.5 214,-413.5 220,-407.5 226,-407.5"/>
<text text-anchor="start" x="224.5" y="-513.7" font-family="Helvetica, Arial, sans-serif" font-size="16.00" fill="#000000">Gap between</text>
<text text-anchor="start" x="223" y="-495.7" font-family="Helvetica, Arial, sans-serif" font-size="16.00" fill="#000000">observed and</text>
<text text-anchor="start" x="224" y="-477.7" font-family="Helvetica, Arial, sans-serif" font-size="16.00" fill="#000000">potential rice</text>
<text text-anchor="start" x="258" y="-459.7" font-family="Helvetica, Arial, sans-serif" font-size="16.00" fill="#000000">yield</text>
<polyline fill="none" stroke="#000000" points="214,-448.5 340,-448.5 "/>
<text text-anchor="start" x="232" y="-431.8" font-family="Helvetica, Arial, sans-serif" font-size="14.00" fill="#000000">effect: 0.389</text>
<text text-anchor="start" x="234.5" y="-415.8" font-family="Helvetica, Arial, sans-serif" font-size="14.00" fill="#000000">error: 0.162</text>
</g>
<!-- rurpop_s&#45;&gt;yield_gap_rice_s -->
<g id="edge4" class="edge">
<title>rurpop_s-&gt;yield_gap_rice_s</title>
<path fill="none" stroke="#000000" stroke-width="2" d="M245.9916,-569.2269C248.4749,-561.2803 251.1204,-552.8148 253.7793,-544.3064"/>
<polygon fill="#000000" stroke="#000000" stroke-width="2" points="257.8288,-545.4285 257.3994,-532.722 249.8112,-542.923 257.8288,-545.4285"/>
</g>
<!-- acl_sum_fatl_m -->
<g id="node9" class="node rankC">
<title>acl_sum_fatl_m</title>
<path fill="none" stroke="#000000" d="M118,-101C118,-101 12,-101 12,-101 6,-101 0,-95 0,-89 0,-89 0,-51 0,-51 0,-45 6,-39 12,-39 12,-39 118,-39 118,-39 124,-39 130,-45 130,-51 130,-51 130,-89 130,-89 130,-95 124,-101 118,-101"/>
<text text-anchor="middle" x="65" y="-84.2" font-family="Helvetica, Arial, sans-serif" font-size="16.00" fill="#000000">Reported</text>
<text text-anchor="middle" x="65" y="-66.2" font-family="Helvetica, Arial, sans-serif" font-size="16.00" fill="#000000">fatalities from</text>
<text text-anchor="middle" x="65" y="-48.2" font-family="Helvetica, Arial, sans-serif" font-size="16.00" fill="#000000">conflict events</text>
</g>
<!-- rurpop_s&#45;&gt;acl_sum_fatl_m -->
<g id="edge5" class="edge">
<title>rurpop_s-&gt;acl_sum_fatl_m</title>
<path fill="none" stroke="#000000" stroke-width="2" d="M203.7413,-569.4227C187.6431,-541.8437 168.6208,-505.1095 158,-470"/>
<path fill="none" stroke="#000000" stroke-width="2" d="M158,-470C140.432,-411.9246 86.4912,-427.3518 64,-371 29.639,-284.9085 43.3757,-173.609 55.0533,-113.3684"/>
<polygon fill="#000000" stroke="#000000" stroke-width="2" points="59.2286,-113.9113 57.4959,-101.3161 50.996,-112.2428 59.2286,-113.9113"/>
</g>
<!-- Cropland2000_mean_percent_s -->
<g id="node3" class="node rankA">
<title>Cropland2000_mean_percent_s</title>
<path fill="none" stroke="#000000" d="M116.5,-695.5C116.5,-695.5 259.5,-695.5 259.5,-695.5 265.5,-695.5 271.5,-701.5 271.5,-707.5 271.5,-707.5 271.5,-772.5 271.5,-772.5 271.5,-778.5 265.5,-784.5 259.5,-784.5 259.5,-784.5 116.5,-784.5 116.5,-784.5 110.5,-784.5 104.5,-778.5 104.5,-772.5 104.5,-772.5 104.5,-707.5 104.5,-707.5 104.5,-701.5 110.5,-695.5 116.5,-695.5"/>
<text text-anchor="start" x="114" y="-765.7" font-family="Helvetica, Arial, sans-serif" font-size="16.00" fill="#000000">Percentage of land</text>
<text text-anchor="start" x="126.5" y="-747.7" font-family="Helvetica, Arial, sans-serif" font-size="16.00" fill="#000000">that is cropland</text>
<polyline fill="none" stroke="#000000" points="104.5,-736.5 271.5,-736.5 "/>
<text text-anchor="start" x="140" y="-719.8" font-family="Helvetica, Arial, sans-serif" font-size="14.00" fill="#000000">effect: -0.065</text>
<text text-anchor="start" x="145" y="-703.8" font-family="Helvetica, Arial, sans-serif" font-size="14.00" fill="#000000">error: 0.066</text>
</g>
<!-- Cropland2000_mean_percent_s&#45;&gt;rurpop_s -->
<g id="edge6" class="edge">
<title>Cropland2000_mean_percent_s-&gt;rurpop_s</title>
<path fill="none" stroke="#000000" stroke-width="2" d="M203.6366,-695.2223C206.4896,-687.0525 209.4988,-678.4354 212.4485,-669.9885"/>
<polygon fill="#000000" stroke="#000000" stroke-width="2" points="216.4226,-671.3473 216.4137,-658.6335 208.4923,-668.5779 216.4226,-671.3473"/>
</g>
<!-- acl_sum_evnt_m -->
<g id="node8" class="node rankC">
<title>acl_sum_evnt_m</title>
<path fill="none" stroke="#000000" d="M315,-92C315,-92 201,-92 201,-92 195,-92 189,-86 189,-80 189,-80 189,-60 189,-60 189,-54 195,-48 201,-48 201,-48 315,-48 315,-48 321,-48 327,-54 327,-60 327,-60 327,-80 327,-80 327,-86 321,-92 315,-92"/>
<text text-anchor="middle" x="258" y="-75.2" font-family="Helvetica, Arial, sans-serif" font-size="16.00" fill="#000000">Total number of</text>
<text text-anchor="middle" x="258" y="-57.2" font-family="Helvetica, Arial, sans-serif" font-size="16.00" fill="#000000">conflict events</text>
</g>
<!-- loccount_y&#45;&gt;acl_sum_evnt_m -->
<g id="edge7" class="edge">
<title>loccount_y-&gt;acl_sum_evnt_m</title>
<path fill="none" stroke="#000000" stroke-width="2" d="M258,-137.4128C258,-126.3971 258,-114.7662 258,-104.3242"/>
<polygon fill="#000000" stroke="#000000" stroke-width="2" points="262.2001,-104.2981 258,-92.2982 253.8001,-104.2982 262.2001,-104.2981"/>
</g>
<!-- locdensity_y -->
<g id="node5" class="node rankB">
<title>locdensity_y</title>
<path fill="none" stroke="#000000" d="M314.5,-281.5C314.5,-281.5 453.5,-281.5 453.5,-281.5 459.5,-281.5 465.5,-287.5 465.5,-293.5 465.5,-293.5 465.5,-340.5 465.5,-340.5 465.5,-346.5 459.5,-352.5 453.5,-352.5 453.5,-352.5 314.5,-352.5 314.5,-352.5 308.5,-352.5 302.5,-346.5 302.5,-340.5 302.5,-340.5 302.5,-293.5 302.5,-293.5 302.5,-287.5 308.5,-281.5 314.5,-281.5"/>
<text text-anchor="start" x="312" y="-333.7" font-family="Helvetica, Arial, sans-serif" font-size="16.00" fill="#000000">Population density</text>
<polyline fill="none" stroke="#000000" points="302.5,-322.5 465.5,-322.5 "/>
<text text-anchor="start" x="339" y="-305.8" font-family="Helvetica, Arial, sans-serif" font-size="14.00" fill="#000000">effect: 0.772</text>
<text text-anchor="start" x="341.5" y="-289.8" font-family="Helvetica, Arial, sans-serif" font-size="14.00" fill="#000000">error: 0.775</text>
</g>
<!-- locdensity_y&#45;&gt;loccount_y -->
<g id="edge8" class="edge">
<title>locdensity_y-&gt;loccount_y</title>
<path fill="none" stroke="#000000" stroke-width="2" d="M350.5651,-281.1769C337.5228,-267.203 322.2943,-250.8867 307.9994,-235.5707"/>
<polygon fill="#000000" stroke="#000000" stroke-width="2" points="310.9725,-232.6007 299.7142,-226.6938 304.8316,-238.3322 310.9725,-232.6007"/>
</g>
<!-- locdensity_y&#45;&gt;acl_sum_evnt_m -->
<g id="edge9" class="edge">
<title>locdensity_y-&gt;acl_sum_evnt_m</title>
<path fill="none" stroke="#000000" stroke-width="2" d="M383.0856,-281.1606C380.5817,-242.7662 372.0566,-181.3745 344,-137 334.7214,-122.3249 321.0496,-109.5639 307.3246,-99.2295"/>
<polygon fill="#000000" stroke="#000000" stroke-width="2" points="309.5922,-95.6881 297.3833,-92.1407 304.7153,-102.5274 309.5922,-95.6881"/>
</g>
<!-- yield_gap_rice_s&#45;&gt;locdensity_y -->
<g id="edge10" class="edge">
<title>yield_gap_rice_s-&gt;locdensity_y</title>
<path fill="none" stroke="#000000" stroke-width="2" d="M320.8297,-407.3276C331.3255,-392.3196 342.335,-376.5771 352.169,-362.5153"/>
<polygon fill="#000000" stroke="#000000" stroke-width="2" points="355.6624,-364.8487 359.0978,-352.6078 348.7787,-360.0346 355.6624,-364.8487"/>
</g>
<!-- et_actl_m_MIN_m -->
<g id="node7" class="node rankA">
<title>et_actl_m_MIN_m</title>
<path fill="none" stroke="#000000" d="M312,-695.5C312,-695.5 456,-695.5 456,-695.5 462,-695.5 468,-701.5 468,-707.5 468,-707.5 468,-772.5 468,-772.5 468,-778.5 462,-784.5 456,-784.5 456,-784.5 312,-784.5 312,-784.5 306,-784.5 300,-778.5 300,-772.5 300,-772.5 300,-707.5 300,-707.5 300,-701.5 306,-695.5 312,-695.5"/>
<text text-anchor="start" x="359" y="-765.7" font-family="Helvetica, Arial, sans-serif" font-size="16.00" fill="#000000">Actual</text>
<text text-anchor="start" x="309" y="-747.7" font-family="Helvetica, Arial, sans-serif" font-size="16.00" fill="#000000">evapotranspiration</text>
<polyline fill="none" stroke="#000000" points="300,-736.5 468,-736.5 "/>
<text text-anchor="start" x="336" y="-719.8" font-family="Helvetica, Arial, sans-serif" font-size="14.00" fill="#000000">effect: -0.464</text>
<text text-anchor="start" x="341" y="-703.8" font-family="Helvetica, Arial, sans-serif" font-size="14.00" fill="#000000">error: 0.116</text>
</g>
<!-- et_actl_m_MIN_m&#45;&gt;rurpop_s -->
<g id="edge11" class="edge">
<title>et_actl_m_MIN_m-&gt;rurpop_s</title>
<path fill="none" stroke="#000000" stroke-width="2" d="M329.9825,-695.2223C318.7829,-685.9384 306.8864,-676.0769 295.3864,-666.544"/>
<polygon fill="#000000" stroke="#000000" stroke-width="2" points="297.7625,-663.0583 285.8435,-658.6335 292.4017,-669.5253 297.7625,-663.0583"/>
</g>
<!-- et_actl_m_MIN_m&#45;&gt;locdensity_y -->
<g id="edge12" class="edge">
<title>et_actl_m_MIN_m-&gt;locdensity_y</title>
<path fill="none" stroke="#000000" stroke-width="2" d="M384,-614C368.4042,-527.2414 373.638,-423.9091 378.8366,-364.829"/>
<polygon fill="#000000" stroke="#000000" stroke-width="2" points="383.048,-364.8988 379.9721,-352.5628 374.6838,-364.1245 383.048,-364.8988"/>
</g>
<!-- et_actl_m_MIN_m&#45;&gt;yield_gap_rice_s -->
<g id="edge13" class="edge">
<title>et_actl_m_MIN_m-&gt;yield_gap_rice_s</title>
<path fill="none" stroke="#000000" stroke-width="2" d="M387.8278,-695.3416C388.9491,-671.0934 388.7991,-640.6971 384,-614"/>
<path fill="none" stroke="#000000" stroke-width="2" d="M384,-614C379.0798,-586.6292 364.5756,-560.8341 347.7713,-538.845"/>
<polygon fill="#000000" stroke="#000000" stroke-width="2" points="350.9527,-536.0981 340.1836,-529.3403 344.3879,-541.3388 350.9527,-536.0981"/>
</g>
<!-- acl_sum_fatl_m&#45;&gt;acl_sum_evnt_m -->
<g id="edge14" class="edge">
<title>acl_sum_fatl_m-&gt;acl_sum_evnt_m</title>
<path fill="none" stroke="#000000" stroke-width="2" d="M130.2129,-70C145.574,-70 160.9351,-70 176.2963,-70"/>
<polygon fill="#000000" stroke="#000000" stroke-width="2" points="176.6156,-74.2001 188.6156,-70 176.6156,-65.8001 176.6156,-74.2001"/>
</g>
</g>
<style>.node path {
  stroke: #fff;
}
.node text {
  fill: #fff;
}
.node polyline {
  stroke: #fff;
}
.rankA path {
  fill: #2e3348;
}
.rankB path {
  fill: #437387;
}
.rankC path {
  fill: #1b6002;
}
.edge path {
  stroke: #666;
};
</style></svg>
