<?xml version="1.0" encoding="UTF-8" standalone="no"?>
<!DOCTYPE svg PUBLIC "-//W3C//DTD SVG 1.1//EN" "http://www.w3.org/Graphics/SVG/1.1/DTD/svg11.dtd">
<!-- Generated by graphviz version 2.40.1 (20161225.0304)
 -->
<!-- Title: causalModel Pages: 1 -->
<svg xmlns="http://www.w3.org/2000/svg" xmlns:xlink="http://www.w3.org/1999/xlink" width="" height="" viewBox="0.00 0.00 607.50 785.00" preserveAspectRatio="xMinYMin">
<g id="graph0" class="graph" transform="scale(1 1) rotate(0) translate(4 781)">
<title>causalModel</title>
<polygon fill="#ffffff" stroke="transparent" points="-4,4 -4,-781 603.5,-781 603.5,4 -4,4"/>
<!-- et_anom_m_STD_m -->
<g id="node1" class="node rankA">
<title>et_anom_m_STD_m</title>
<path fill="none" stroke="#000000" d="M12,-699C12,-699 152,-699 152,-699 158,-699 164,-705 164,-711 164,-711 164,-753 164,-753 164,-759 158,-765 152,-765 152,-765 12,-765 12,-765 6,-765 0,-759 0,-753 0,-753 0,-711 0,-711 0,-705 6,-699 12,-699"/>
<text text-anchor="start" x="37" y="-746.2" font-family="Helvetica, Arial, sans-serif" font-size="16.00" fill="#000000">Variation in</text>
<text text-anchor="start" x="7" y="-728.2" font-family="Helvetica, Arial, sans-serif" font-size="16.00" fill="#000000">evapotranspiration</text>
<text text-anchor="start" x="48.5" y="-710.2" font-family="Helvetica, Arial, sans-serif" font-size="16.00" fill="#000000">patterns</text>
</g>
<!-- yield_gap_barley_s -->
<g id="node3" class="node rankB">
<title>yield_gap_barley_s</title>
<path fill="none" stroke="#000000" d="M241.5,-525.5C241.5,-525.5 356.5,-525.5 356.5,-525.5 362.5,-525.5 368.5,-531.5 368.5,-537.5 368.5,-537.5 368.5,-638.5 368.5,-638.5 368.5,-644.5 362.5,-650.5 356.5,-650.5 356.5,-650.5 241.5,-650.5 241.5,-650.5 235.5,-650.5 229.5,-644.5 229.5,-638.5 229.5,-638.5 229.5,-537.5 229.5,-537.5 229.5,-531.5 235.5,-525.5 241.5,-525.5"/>
<text text-anchor="start" x="247" y="-631.7" font-family="Helvetica, Arial, sans-serif" font-size="16.00" fill="#000000">Gap between</text>
<text text-anchor="start" x="245.5" y="-613.7" font-family="Helvetica, Arial, sans-serif" font-size="16.00" fill="#000000">observed and</text>
<text text-anchor="start" x="237" y="-595.7" font-family="Helvetica, Arial, sans-serif" font-size="16.00" fill="#000000">potential barley</text>
<text text-anchor="start" x="280.5" y="-577.7" font-family="Helvetica, Arial, sans-serif" font-size="16.00" fill="#000000">yield</text>
<polyline fill="none" stroke="#000000" points="229.5,-566.5 368.5,-566.5 "/>
<text text-anchor="start" x="251" y="-549.8" font-family="Helvetica, Arial, sans-serif" font-size="14.00" fill="#000000">effect: -0.224</text>
<text text-anchor="start" x="256" y="-533.8" font-family="Helvetica, Arial, sans-serif" font-size="14.00" fill="#000000">error: 0.062</text>
</g>
<!-- et_anom_m_STD_m&#45;&gt;yield_gap_barley_s -->
<g id="edge1" class="edge">
<title>et_anom_m_STD_m-&gt;yield_gap_barley_s</title>
<path fill="none" stroke="#000000" stroke-width="2" d="M131.7842,-698.9635C157.6403,-681.8055 189.8626,-660.423 219.101,-641.0206"/>
<polygon fill="#000000" stroke="#000000" stroke-width="2" points="221.6267,-644.3852 229.3031,-634.2505 216.982,-637.3861 221.6267,-644.3852"/>
</g>
<!-- rurpop_s -->
<g id="node4" class="node rankB">
<title>rurpop_s</title>
<path fill="none" stroke="#000000" d="M242.5,-206.5C242.5,-206.5 335.5,-206.5 335.5,-206.5 341.5,-206.5 347.5,-212.5 347.5,-218.5 347.5,-218.5 347.5,-242.5 347.5,-242.5 347.5,-248.5 341.5,-254.5 335.5,-254.5 335.5,-254.5 242.5,-254.5 242.5,-254.5 236.5,-254.5 230.5,-248.5 230.5,-242.5 230.5,-242.5 230.5,-218.5 230.5,-218.5 230.5,-212.5 236.5,-206.5 242.5,-206.5"/>
<text text-anchor="start" x="238" y="-235.7" font-family="Helvetica, Arial, sans-serif" font-size="16.00" fill="#000000">Population in</text>
<text text-anchor="start" x="245.5" y="-217.7" font-family="Helvetica, Arial, sans-serif" font-size="16.00" fill="#000000">rural areas</text>
</g>
<!-- et_anom_m_STD_m&#45;&gt;rurpop_s -->
<g id="edge2" class="edge">
<title>et_anom_m_STD_m-&gt;rurpop_s</title>
<path fill="none" stroke="#000000" stroke-width="2" d="M69.2443,-698.7926C59.557,-669.7683 48.591,-626.383 53,-588"/>
<path fill="none" stroke="#000000" stroke-width="2" d="M53,-588C69.0812,-448.003 58.5337,-384.4593 164,-291 179.9889,-276.8314 199.8851,-265.2229 219.0681,-256.0997"/>
<polygon fill="#000000" stroke="#000000" stroke-width="2" points="221.0619,-259.8069 230.2455,-251.0147 217.5834,-252.161 221.0619,-259.8069"/>
</g>
<!-- DeliveredkcalFraction_s -->
<g id="node8" class="node rankB">
<title>DeliveredkcalFraction_s</title>
<path fill="none" stroke="#000000" d="M109,-420C109,-420 243,-420 243,-420 249,-420 255,-426 255,-432 255,-432 255,-474 255,-474 255,-480 249,-486 243,-486 243,-486 109,-486 109,-486 103,-486 97,-480 97,-474 97,-474 97,-432 97,-432 97,-426 103,-420 109,-420"/>
<text text-anchor="start" x="138" y="-467.2" font-family="Helvetica, Arial, sans-serif" font-size="16.00" fill="#000000">Portion of</text>
<text text-anchor="start" x="105" y="-449.2" font-family="Helvetica, Arial, sans-serif" font-size="16.00" fill="#000000">calories produced</text>
<text text-anchor="start" x="104" y="-431.2" font-family="Helvetica, Arial, sans-serif" font-size="16.00" fill="#000000">going toward food</text>
</g>
<!-- et_anom_m_STD_m&#45;&gt;DeliveredkcalFraction_s -->
<g id="edge3" class="edge">
<title>et_anom_m_STD_m-&gt;DeliveredkcalFraction_s</title>
<path fill="none" stroke="#000000" stroke-width="2" d="M53,-588C57.4049,-549.6529 85.4354,-517.2483 113.6255,-493.8061"/>
<polygon fill="#000000" stroke="#000000" stroke-width="2" points="116.3947,-496.9698 123.1579,-486.2041 111.1573,-490.4025 116.3947,-496.9698"/>
</g>
<!-- chicken_number_s -->
<g id="node2" class="node rankA">
<title>chicken_number_s</title>
<path fill="none" stroke="#000000" d="M233,-687.5C233,-687.5 365,-687.5 365,-687.5 371,-687.5 377,-693.5 377,-699.5 377,-699.5 377,-764.5 377,-764.5 377,-770.5 371,-776.5 365,-776.5 365,-776.5 233,-776.5 233,-776.5 227,-776.5 221,-770.5 221,-764.5 221,-764.5 221,-699.5 221,-699.5 221,-693.5 227,-687.5 233,-687.5"/>
<text text-anchor="start" x="228" y="-757.7" font-family="Helvetica, Arial, sans-serif" font-size="16.00" fill="#000000">Count of livestock</text>
<text text-anchor="start" x="264.5" y="-739.7" font-family="Helvetica, Arial, sans-serif" font-size="16.00" fill="#000000">chickens</text>
<polyline fill="none" stroke="#000000" points="221,-728.5 377,-728.5 "/>
<text text-anchor="start" x="251" y="-711.8" font-family="Helvetica, Arial, sans-serif" font-size="14.00" fill="#000000">effect: -0.201</text>
<text text-anchor="start" x="256" y="-695.8" font-family="Helvetica, Arial, sans-serif" font-size="14.00" fill="#000000">error: 0.081</text>
</g>
<!-- chicken_number_s&#45;&gt;yield_gap_barley_s -->
<g id="edge4" class="edge">
<title>chicken_number_s-&gt;yield_gap_barley_s</title>
<path fill="none" stroke="#000000" stroke-width="2" d="M299,-687.2269C299,-679.4609 299,-671.1994 299,-662.8864"/>
<polygon fill="#000000" stroke="#000000" stroke-width="2" points="303.2001,-662.7219 299,-650.722 294.8001,-662.722 303.2001,-662.7219"/>
</g>
<!-- Cropland2000_mean_percent_s -->
<g id="node5" class="node rankB">
<title>Cropland2000_mean_percent_s</title>
<path fill="none" stroke="#000000" d="M448.5,-291.5C448.5,-291.5 587.5,-291.5 587.5,-291.5 593.5,-291.5 599.5,-297.5 599.5,-303.5 599.5,-303.5 599.5,-368.5 599.5,-368.5 599.5,-374.5 593.5,-380.5 587.5,-380.5 587.5,-380.5 448.5,-380.5 448.5,-380.5 442.5,-380.5 436.5,-374.5 436.5,-368.5 436.5,-368.5 436.5,-303.5 436.5,-303.5 436.5,-297.5 442.5,-291.5 448.5,-291.5"/>
<text text-anchor="start" x="444" y="-361.7" font-family="Helvetica, Arial, sans-serif" font-size="16.00" fill="#000000">Percentage of land</text>
<text text-anchor="start" x="456.5" y="-343.7" font-family="Helvetica, Arial, sans-serif" font-size="16.00" fill="#000000">that is cropland</text>
<polyline fill="none" stroke="#000000" points="436.5,-332.5 599.5,-332.5 "/>
<text text-anchor="start" x="473" y="-315.8" font-family="Helvetica, Arial, sans-serif" font-size="14.00" fill="#000000">effect: 0.174</text>
<text text-anchor="start" x="475.5" y="-299.8" font-family="Helvetica, Arial, sans-serif" font-size="14.00" fill="#000000">error: 0.072</text>
</g>
<!-- chicken_number_s&#45;&gt;Cropland2000_mean_percent_s -->
<g id="edge5" class="edge">
<title>chicken_number_s-&gt;Cropland2000_mean_percent_s</title>
<path fill="none" stroke="#000000" stroke-width="2" d="M358.8631,-687.4594C412.0041,-643.7521 485.7733,-571.7449 516,-489 527.126,-458.5429 528.0968,-422.3464 526.067,-392.8079"/>
<polygon fill="#000000" stroke="#000000" stroke-width="2" points="530.2304,-392.1958 525.0343,-380.5923 521.8602,-392.9035 530.2304,-392.1958"/>
</g>
<!-- chicken_number_s&#45;&gt;DeliveredkcalFraction_s -->
<g id="edge6" class="edge">
<title>chicken_number_s-&gt;DeliveredkcalFraction_s</title>
<path fill="none" stroke="#000000" stroke-width="2" d="M242.8775,-687.3512C232.2202,-676.4848 222.1746,-664.1634 215,-651 188.8842,-603.0848 180.1103,-540.1794 177.2435,-498.2619"/>
<polygon fill="#000000" stroke="#000000" stroke-width="2" points="181.4335,-497.9675 176.5434,-486.2318 173.0477,-498.4556 181.4335,-497.9675"/>
</g>
<!-- yield_gap_barley_s&#45;&gt;rurpop_s -->
<g id="edge7" class="edge">
<title>yield_gap_barley_s-&gt;rurpop_s</title>
<path fill="none" stroke="#000000" stroke-width="2" d="M297.2467,-525.3192C295.154,-450.5071 291.7246,-327.9059 290.0234,-267.0862"/>
<polygon fill="#000000" stroke="#000000" stroke-width="2" points="294.212,-266.6172 289.678,-254.7394 285.8153,-266.8521 294.212,-266.6172"/>
</g>
<!-- locdensity_y -->
<g id="node7" class="node rankB">
<title>locdensity_y</title>
<path fill="none" stroke="#000000" d="M354.5,-417.5C354.5,-417.5 489.5,-417.5 489.5,-417.5 495.5,-417.5 501.5,-423.5 501.5,-429.5 501.5,-429.5 501.5,-476.5 501.5,-476.5 501.5,-482.5 495.5,-488.5 489.5,-488.5 489.5,-488.5 354.5,-488.5 354.5,-488.5 348.5,-488.5 342.5,-482.5 342.5,-476.5 342.5,-476.5 342.5,-429.5 342.5,-429.5 342.5,-423.5 348.5,-417.5 354.5,-417.5"/>
<text text-anchor="start" x="350" y="-469.7" font-family="Helvetica, Arial, sans-serif" font-size="16.00" fill="#000000">Population density</text>
<polyline fill="none" stroke="#000000" points="342.5,-458.5 501.5,-458.5 "/>
<text text-anchor="start" x="381" y="-441.8" font-family="Helvetica, Arial, sans-serif" font-size="14.00" fill="#000000">effect: 0.38</text>
<text text-anchor="start" x="379" y="-425.8" font-family="Helvetica, Arial, sans-serif" font-size="14.00" fill="#000000">error: 0.259</text>
</g>
<!-- yield_gap_barley_s&#45;&gt;locdensity_y -->
<g id="edge8" class="edge">
<title>yield_gap_barley_s-&gt;locdensity_y</title>
<path fill="none" stroke="#000000" stroke-width="2" d="M356.1789,-525.2426C364.6532,-515.9416 373.2373,-506.52 381.2836,-497.6887"/>
<polygon fill="#000000" stroke="#000000" stroke-width="2" points="384.4695,-500.4282 389.4468,-488.7291 378.2603,-494.7708 384.4695,-500.4282"/>
</g>
<!-- loccount_y -->
<g id="node6" class="node rankB">
<title>loccount_y</title>
<path fill="none" stroke="#000000" d="M231,-80.5C231,-80.5 347,-80.5 347,-80.5 353,-80.5 359,-86.5 359,-92.5 359,-92.5 359,-157.5 359,-157.5 359,-163.5 353,-169.5 347,-169.5 347,-169.5 231,-169.5 231,-169.5 225,-169.5 219,-163.5 219,-157.5 219,-157.5 219,-92.5 219,-92.5 219,-86.5 225,-80.5 231,-80.5"/>
<text text-anchor="start" x="226" y="-150.7" font-family="Helvetica, Arial, sans-serif" font-size="16.00" fill="#000000">Total population</text>
<text text-anchor="start" x="266.5" y="-132.7" font-family="Helvetica, Arial, sans-serif" font-size="16.00" fill="#000000">count</text>
<polyline fill="none" stroke="#000000" points="219,-121.5 359,-121.5 "/>
<text text-anchor="start" x="244" y="-104.8" font-family="Helvetica, Arial, sans-serif" font-size="14.00" fill="#000000">effect: 2.366</text>
<text text-anchor="start" x="246.5" y="-88.8" font-family="Helvetica, Arial, sans-serif" font-size="14.00" fill="#000000">error: 0.936</text>
</g>
<!-- rurpop_s&#45;&gt;loccount_y -->
<g id="edge9" class="edge">
<title>rurpop_s-&gt;loccount_y</title>
<path fill="none" stroke="#000000" stroke-width="2" d="M289,-206.2962C289,-198.9362 289,-190.5152 289,-181.9455"/>
<polygon fill="#000000" stroke="#000000" stroke-width="2" points="293.2001,-181.8263 289,-169.8263 284.8001,-181.8264 293.2001,-181.8263"/>
</g>
<!-- Cropland2000_mean_percent_s&#45;&gt;rurpop_s -->
<g id="edge10" class="edge">
<title>Cropland2000_mean_percent_s-&gt;rurpop_s</title>
<path fill="none" stroke="#000000" stroke-width="2" d="M436.2956,-298.3589C408.7705,-285.6781 378.484,-271.7252 352.5691,-259.7862"/>
<polygon fill="#000000" stroke="#000000" stroke-width="2" points="354.031,-255.8355 341.3746,-254.6289 350.5162,-263.4648 354.031,-255.8355"/>
</g>
<!-- Cropland2000_mean_percent_s&#45;&gt;loccount_y -->
<g id="edge11" class="edge">
<title>Cropland2000_mean_percent_s-&gt;loccount_y</title>
<path fill="none" stroke="#000000" stroke-width="2" d="M454.0408,-291.4064C432.4314,-274.1552 409.3992,-253.111 392,-230.5"/>
</g>
<!-- acl_sum_evnt_m -->
<g id="node9" class="node rankC">
<title>acl_sum_evnt_m</title>
<path fill="none" stroke="#000000" d="M344,-44C344,-44 234,-44 234,-44 228,-44 222,-38 222,-32 222,-32 222,-12 222,-12 222,-6 228,0 234,0 234,0 344,0 344,0 350,0 356,-6 356,-12 356,-12 356,-32 356,-32 356,-38 350,-44 344,-44"/>
<text text-anchor="middle" x="289" y="-27.2" font-family="Helvetica, Arial, sans-serif" font-size="16.00" fill="#000000">Total number of</text>
<text text-anchor="middle" x="289" y="-9.2" font-family="Helvetica, Arial, sans-serif" font-size="16.00" fill="#000000">conflict events</text>
</g>
<!-- loccount_y&#45;&gt;acl_sum_evnt_m -->
<g id="edge12" class="edge">
<title>loccount_y-&gt;acl_sum_evnt_m</title>
<path fill="none" stroke="#000000" stroke-width="2" d="M289,-80.4218C289,-72.4108 289,-64.1723 289,-56.5007"/>
<polygon fill="#000000" stroke="#000000" stroke-width="2" points="293.2001,-56.2652 289,-44.2652 284.8001,-56.2653 293.2001,-56.2652"/>
</g>
<!-- locdensity_y&#45;&gt;Cropland2000_mean_percent_s -->
<g id="edge13" class="edge">
<title>locdensity_y-&gt;Cropland2000_mean_percent_s</title>
<path fill="none" stroke="#000000" stroke-width="2" d="M451.3248,-417.2604C458.3638,-408.6816 466.0376,-399.3292 473.5921,-390.1221"/>
<polygon fill="#000000" stroke="#000000" stroke-width="2" points="477.0249,-392.5597 481.3898,-380.6186 470.5311,-387.2314 477.0249,-392.5597"/>
</g>
<!-- locdensity_y&#45;&gt;loccount_y -->
<g id="edge14" class="edge">
<title>locdensity_y-&gt;loccount_y</title>
<path fill="none" stroke="#000000" stroke-width="2" d="M421.4183,-417.2946C419.8315,-361.9875 413.9284,-258.9968 392,-230.5"/>
<path fill="none" stroke="#000000" stroke-width="2" d="M392,-230.5C377.3544,-212.9035 360.3704,-194.7253 344.4694,-178.5196"/>
<polygon fill="#000000" stroke="#000000" stroke-width="2" points="347.1975,-175.3056 335.7687,-169.7356 341.2295,-181.2169 347.1975,-175.3056"/>
</g>
<!-- DeliveredkcalFraction_s&#45;&gt;rurpop_s -->
<g id="edge15" class="edge">
<title>DeliveredkcalFraction_s-&gt;rurpop_s</title>
<path fill="none" stroke="#000000" stroke-width="2" d="M186,-336C194.3547,-305.7764 218.2983,-280.3206 240.9988,-261.9902"/>
<polygon fill="#000000" stroke="#000000" stroke-width="2" points="243.6693,-265.2346 250.6023,-254.5775 238.5367,-258.585 243.6693,-265.2346"/>
</g>
<!-- DeliveredkcalFraction_s&#45;&gt;loccount_y -->
<g id="edge16" class="edge">
<title>DeliveredkcalFraction_s-&gt;loccount_y</title>
<path fill="none" stroke="#000000" stroke-width="2" d="M175.6096,-419.9013C176.1016,-396.1535 178.3684,-363.6077 186,-336"/>
<path fill="none" stroke="#000000" stroke-width="2" d="M186,-336C201.7987,-278.8471 188.6104,-258.5915 216,-206 220.8285,-196.7287 226.9704,-187.6884 233.6344,-179.2108"/>
<polygon fill="#000000" stroke="#000000" stroke-width="2" points="236.9267,-181.8201 241.338,-169.8961 230.4536,-176.4666 236.9267,-181.8201"/>
</g>
</g>
<style>.node path {
  stroke: #fff;
}
.node text {
  fill: #fff;
}
.node polyline {
  stroke: #fff;
}
.rankA path {
  fill: #2e3348;
}
.rankB path {
  fill: #437387;
}
.rankC path {
  fill: #1b6002;
}
.edge path {
  stroke: #666;
};
</style></svg>
