<?xml version="1.0" encoding="UTF-8" standalone="no"?>
<!DOCTYPE svg PUBLIC "-//W3C//DTD SVG 1.1//EN" "http://www.w3.org/Graphics/SVG/1.1/DTD/svg11.dtd">
<!-- Generated by graphviz version 2.40.1 (20161225.0304)
 -->
<!-- Title: causalModel Pages: 1 -->
<svg xmlns="http://www.w3.org/2000/svg" xmlns:xlink="http://www.w3.org/1999/xlink" width="" height="" viewBox="0.00 0.00 618.50 824.00" preserveAspectRatio="xMinYMin">
<g id="graph0" class="graph" transform="scale(1 1) rotate(0) translate(4 820)">
<title>causalModel</title>
<polygon fill="#ffffff" stroke="transparent" points="-4,4 -4,-820 614.5,-820 614.5,4 -4,4"/>
<text text-anchor="middle" x="305.25" y="-7.8" font-family="Helvetica, Arial, sans-serif" font-size="14.00" fill="#000000">Causal Model: Europe and Central Asia</text>
<!-- et_anom_m_STD_m -->
<g id="node1" class="node rankA">
<title>et_anom_m_STD_m</title>
<path fill="none" stroke="#000000" d="M12,-738C12,-738 156,-738 156,-738 162,-738 168,-744 168,-750 168,-750 168,-792 168,-792 168,-798 162,-804 156,-804 156,-804 12,-804 12,-804 6,-804 0,-798 0,-792 0,-792 0,-750 0,-750 0,-744 6,-738 12,-738"/>
<text text-anchor="start" x="39" y="-785.2" font-family="Helvetica, Arial, sans-serif" font-size="16.00" fill="#000000">Variation in</text>
<text text-anchor="start" x="9" y="-767.2" font-family="Helvetica, Arial, sans-serif" font-size="16.00" fill="#000000">evapotranspiration</text>
<text text-anchor="start" x="50.5" y="-749.2" font-family="Helvetica, Arial, sans-serif" font-size="16.00" fill="#000000">patterns</text>
</g>
<!-- yield_gap_barley_s -->
<g id="node3" class="node rankB">
<title>yield_gap_barley_s</title>
<path fill="none" stroke="#000000" d="M245.5,-564.5C245.5,-564.5 364.5,-564.5 364.5,-564.5 370.5,-564.5 376.5,-570.5 376.5,-576.5 376.5,-576.5 376.5,-677.5 376.5,-677.5 376.5,-683.5 370.5,-689.5 364.5,-689.5 364.5,-689.5 245.5,-689.5 245.5,-689.5 239.5,-689.5 233.5,-683.5 233.5,-677.5 233.5,-677.5 233.5,-576.5 233.5,-576.5 233.5,-570.5 239.5,-564.5 245.5,-564.5"/>
<text text-anchor="start" x="253" y="-670.7" font-family="Helvetica, Arial, sans-serif" font-size="16.00" fill="#000000">Gap between</text>
<text text-anchor="start" x="251.5" y="-652.7" font-family="Helvetica, Arial, sans-serif" font-size="16.00" fill="#000000">observed and</text>
<text text-anchor="start" x="243" y="-634.7" font-family="Helvetica, Arial, sans-serif" font-size="16.00" fill="#000000">potential barley</text>
<text text-anchor="start" x="286.5" y="-616.7" font-family="Helvetica, Arial, sans-serif" font-size="16.00" fill="#000000">yield</text>
<polyline fill="none" stroke="#000000" points="233.5,-605.5 376.5,-605.5 "/>
<text text-anchor="start" x="257" y="-588.8" font-family="Helvetica, Arial, sans-serif" font-size="14.00" fill="#000000">effect: -0.224</text>
<text text-anchor="start" x="262" y="-572.8" font-family="Helvetica, Arial, sans-serif" font-size="14.00" fill="#000000">error: 0.062</text>
</g>
<!-- et_anom_m_STD_m&#45;&gt;yield_gap_barley_s -->
<g id="edge1" class="edge">
<title>et_anom_m_STD_m-&gt;yield_gap_barley_s</title>
<path fill="none" stroke="#000000" stroke-width="2" d="M134.7019,-737.9635C160.8066,-720.954 193.2831,-699.7929 222.854,-680.525"/>
<polygon fill="#000000" stroke="#000000" stroke-width="2" points="225.4161,-683.8685 233.1773,-673.7985 220.8303,-676.8307 225.4161,-683.8685"/>
</g>
<!-- rurpop_s -->
<g id="node4" class="node rankB">
<title>rurpop_s</title>
<path fill="none" stroke="#000000" d="M246.5,-245.5C246.5,-245.5 343.5,-245.5 343.5,-245.5 349.5,-245.5 355.5,-251.5 355.5,-257.5 355.5,-257.5 355.5,-281.5 355.5,-281.5 355.5,-287.5 349.5,-293.5 343.5,-293.5 343.5,-293.5 246.5,-293.5 246.5,-293.5 240.5,-293.5 234.5,-287.5 234.5,-281.5 234.5,-281.5 234.5,-257.5 234.5,-257.5 234.5,-251.5 240.5,-245.5 246.5,-245.5"/>
<text text-anchor="start" x="244" y="-274.7" font-family="Helvetica, Arial, sans-serif" font-size="16.00" fill="#000000">Population in</text>
<text text-anchor="start" x="251.5" y="-256.7" font-family="Helvetica, Arial, sans-serif" font-size="16.00" fill="#000000">rural areas</text>
</g>
<!-- et_anom_m_STD_m&#45;&gt;rurpop_s -->
<g id="edge2" class="edge">
<title>et_anom_m_STD_m-&gt;rurpop_s</title>
<path fill="none" stroke="#000000" stroke-width="2" d="M71.1856,-737.7858C61.4611,-708.7572 50.4736,-665.3694 55,-627"/>
<path fill="none" stroke="#000000" stroke-width="2" d="M55,-627C71.5461,-486.7413 61.4907,-422.7472 168,-330 184.1646,-315.9241 204.1722,-304.3888 223.488,-295.3065"/>
<polygon fill="#000000" stroke="#000000" stroke-width="2" points="225.2149,-299.1351 234.4315,-290.3776 221.7653,-291.4761 225.2149,-299.1351"/>
</g>
<!-- DeliveredkcalFraction_s -->
<g id="node8" class="node rankB">
<title>DeliveredkcalFraction_s</title>
<path fill="none" stroke="#000000" d="M111,-459C111,-459 249,-459 249,-459 255,-459 261,-465 261,-471 261,-471 261,-513 261,-513 261,-519 255,-525 249,-525 249,-525 111,-525 111,-525 105,-525 99,-519 99,-513 99,-513 99,-471 99,-471 99,-465 105,-459 111,-459"/>
<text text-anchor="start" x="142" y="-506.2" font-family="Helvetica, Arial, sans-serif" font-size="16.00" fill="#000000">Portion of</text>
<text text-anchor="start" x="109" y="-488.2" font-family="Helvetica, Arial, sans-serif" font-size="16.00" fill="#000000">calories produced</text>
<text text-anchor="start" x="108" y="-470.2" font-family="Helvetica, Arial, sans-serif" font-size="16.00" fill="#000000">going toward food</text>
</g>
<!-- et_anom_m_STD_m&#45;&gt;DeliveredkcalFraction_s -->
<g id="edge3" class="edge">
<title>et_anom_m_STD_m-&gt;DeliveredkcalFraction_s</title>
<path fill="none" stroke="#000000" stroke-width="2" d="M55,-627C59.5556,-588.3826 88.0458,-555.9648 116.6766,-532.5831"/>
<polygon fill="#000000" stroke="#000000" stroke-width="2" points="119.4976,-535.7087 126.3572,-525.0042 114.3194,-529.0945 119.4976,-535.7087"/>
</g>
<!-- chicken_number_s -->
<g id="node2" class="node rankA">
<title>chicken_number_s</title>
<path fill="none" stroke="#000000" d="M237,-726.5C237,-726.5 373,-726.5 373,-726.5 379,-726.5 385,-732.5 385,-738.5 385,-738.5 385,-803.5 385,-803.5 385,-809.5 379,-815.5 373,-815.5 373,-815.5 237,-815.5 237,-815.5 231,-815.5 225,-809.5 225,-803.5 225,-803.5 225,-738.5 225,-738.5 225,-732.5 231,-726.5 237,-726.5"/>
<text text-anchor="start" x="234" y="-796.7" font-family="Helvetica, Arial, sans-serif" font-size="16.00" fill="#000000">Count of livestock</text>
<text text-anchor="start" x="270.5" y="-778.7" font-family="Helvetica, Arial, sans-serif" font-size="16.00" fill="#000000">chickens</text>
<polyline fill="none" stroke="#000000" points="225,-767.5 385,-767.5 "/>
<text text-anchor="start" x="257" y="-750.8" font-family="Helvetica, Arial, sans-serif" font-size="14.00" fill="#000000">effect: -0.201</text>
<text text-anchor="start" x="262" y="-734.8" font-family="Helvetica, Arial, sans-serif" font-size="14.00" fill="#000000">error: 0.081</text>
</g>
<!-- chicken_number_s&#45;&gt;yield_gap_barley_s -->
<g id="edge4" class="edge">
<title>chicken_number_s-&gt;yield_gap_barley_s</title>
<path fill="none" stroke="#000000" stroke-width="2" d="M305,-726.2269C305,-718.4609 305,-710.1994 305,-701.8864"/>
<polygon fill="#000000" stroke="#000000" stroke-width="2" points="309.2001,-701.7219 305,-689.722 300.8001,-701.722 309.2001,-701.7219"/>
</g>
<!-- Cropland2000_mean_percent_s -->
<g id="node5" class="node rankB">
<title>Cropland2000_mean_percent_s</title>
<path fill="none" stroke="#000000" d="M455.5,-330.5C455.5,-330.5 598.5,-330.5 598.5,-330.5 604.5,-330.5 610.5,-336.5 610.5,-342.5 610.5,-342.5 610.5,-407.5 610.5,-407.5 610.5,-413.5 604.5,-419.5 598.5,-419.5 598.5,-419.5 455.5,-419.5 455.5,-419.5 449.5,-419.5 443.5,-413.5 443.5,-407.5 443.5,-407.5 443.5,-342.5 443.5,-342.5 443.5,-336.5 449.5,-330.5 455.5,-330.5"/>
<text text-anchor="start" x="453" y="-400.7" font-family="Helvetica, Arial, sans-serif" font-size="16.00" fill="#000000">Percentage of land</text>
<text text-anchor="start" x="465.5" y="-382.7" font-family="Helvetica, Arial, sans-serif" font-size="16.00" fill="#000000">that is cropland</text>
<polyline fill="none" stroke="#000000" points="443.5,-371.5 610.5,-371.5 "/>
<text text-anchor="start" x="482" y="-354.8" font-family="Helvetica, Arial, sans-serif" font-size="14.00" fill="#000000">effect: 0.174</text>
<text text-anchor="start" x="484.5" y="-338.8" font-family="Helvetica, Arial, sans-serif" font-size="14.00" fill="#000000">error: 0.072</text>
</g>
<!-- chicken_number_s&#45;&gt;Cropland2000_mean_percent_s -->
<g id="edge5" class="edge">
<title>chicken_number_s-&gt;Cropland2000_mean_percent_s</title>
<path fill="none" stroke="#000000" stroke-width="2" d="M366.9861,-726.4468C421.4636,-682.9828 496.6483,-611.3598 527,-528 538.0929,-497.5338 538.6075,-461.3369 536.1094,-431.8004"/>
<polygon fill="#000000" stroke="#000000" stroke-width="2" points="540.2605,-431.1033 534.8764,-419.5858 531.903,-431.947 540.2605,-431.1033"/>
</g>
<!-- chicken_number_s&#45;&gt;DeliveredkcalFraction_s -->
<g id="edge6" class="edge">
<title>chicken_number_s-&gt;DeliveredkcalFraction_s</title>
<path fill="none" stroke="#000000" stroke-width="2" d="M247.0938,-726.092C236.3477,-715.3215 226.2426,-703.1043 219,-690 192.6031,-642.2391 183.8902,-579.3002 181.1142,-537.3328"/>
<polygon fill="#000000" stroke="#000000" stroke-width="2" points="185.3042,-537.0347 180.4422,-525.2873 176.9172,-537.5026 185.3042,-537.0347"/>
</g>
<!-- yield_gap_barley_s&#45;&gt;rurpop_s -->
<g id="edge7" class="edge">
<title>yield_gap_barley_s-&gt;rurpop_s</title>
<path fill="none" stroke="#000000" stroke-width="2" d="M303.2467,-564.3192C301.154,-489.5071 297.7246,-366.9059 296.0234,-306.0862"/>
<polygon fill="#000000" stroke="#000000" stroke-width="2" points="300.212,-305.6172 295.678,-293.7394 291.8153,-305.8521 300.212,-305.6172"/>
</g>
<!-- locdensity_y -->
<g id="node7" class="node rankB">
<title>locdensity_y</title>
<path fill="none" stroke="#000000" d="M361.5,-456.5C361.5,-456.5 500.5,-456.5 500.5,-456.5 506.5,-456.5 512.5,-462.5 512.5,-468.5 512.5,-468.5 512.5,-515.5 512.5,-515.5 512.5,-521.5 506.5,-527.5 500.5,-527.5 500.5,-527.5 361.5,-527.5 361.5,-527.5 355.5,-527.5 349.5,-521.5 349.5,-515.5 349.5,-515.5 349.5,-468.5 349.5,-468.5 349.5,-462.5 355.5,-456.5 361.5,-456.5"/>
<text text-anchor="start" x="359" y="-508.7" font-family="Helvetica, Arial, sans-serif" font-size="16.00" fill="#000000">Population density</text>
<polyline fill="none" stroke="#000000" points="349.5,-497.5 512.5,-497.5 "/>
<text text-anchor="start" x="390" y="-480.8" font-family="Helvetica, Arial, sans-serif" font-size="14.00" fill="#000000">effect: 0.38</text>
<text text-anchor="start" x="388" y="-464.8" font-family="Helvetica, Arial, sans-serif" font-size="14.00" fill="#000000">error: 0.259</text>
</g>
<!-- yield_gap_barley_s&#45;&gt;locdensity_y -->
<g id="edge8" class="edge">
<title>yield_gap_barley_s-&gt;locdensity_y</title>
<path fill="none" stroke="#000000" stroke-width="2" d="M363.5736,-564.2426C372.2545,-554.9416 381.048,-545.52 389.2905,-536.6887"/>
<polygon fill="#000000" stroke="#000000" stroke-width="2" points="392.5354,-539.3675 397.6528,-527.7291 386.3945,-533.6361 392.5354,-539.3675"/>
</g>
<!-- loccount_y -->
<g id="node6" class="node rankB">
<title>loccount_y</title>
<path fill="none" stroke="#000000" d="M235,-119.5C235,-119.5 355,-119.5 355,-119.5 361,-119.5 367,-125.5 367,-131.5 367,-131.5 367,-196.5 367,-196.5 367,-202.5 361,-208.5 355,-208.5 355,-208.5 235,-208.5 235,-208.5 229,-208.5 223,-202.5 223,-196.5 223,-196.5 223,-131.5 223,-131.5 223,-125.5 229,-119.5 235,-119.5"/>
<text text-anchor="start" x="232" y="-189.7" font-family="Helvetica, Arial, sans-serif" font-size="16.00" fill="#000000">Total population</text>
<text text-anchor="start" x="272.5" y="-171.7" font-family="Helvetica, Arial, sans-serif" font-size="16.00" fill="#000000">count</text>
<polyline fill="none" stroke="#000000" points="223,-160.5 367,-160.5 "/>
<text text-anchor="start" x="250" y="-143.8" font-family="Helvetica, Arial, sans-serif" font-size="14.00" fill="#000000">effect: 2.366</text>
<text text-anchor="start" x="252.5" y="-127.8" font-family="Helvetica, Arial, sans-serif" font-size="14.00" fill="#000000">error: 0.936</text>
</g>
<!-- rurpop_s&#45;&gt;loccount_y -->
<g id="edge9" class="edge">
<title>rurpop_s-&gt;loccount_y</title>
<path fill="none" stroke="#000000" stroke-width="2" d="M295,-245.2962C295,-237.9362 295,-229.5152 295,-220.9455"/>
<polygon fill="#000000" stroke="#000000" stroke-width="2" points="299.2001,-220.8263 295,-208.8263 290.8001,-220.8264 299.2001,-220.8263"/>
</g>
<!-- Cropland2000_mean_percent_s&#45;&gt;rurpop_s -->
<g id="edge10" class="edge">
<title>Cropland2000_mean_percent_s-&gt;rurpop_s</title>
<path fill="none" stroke="#000000" stroke-width="2" d="M443.2427,-336.9121C415.5427,-324.3157 385.1782,-310.5077 359.1833,-298.6868"/>
<polygon fill="#000000" stroke="#000000" stroke-width="2" points="360.6151,-294.7241 347.9528,-293.5799 357.1378,-302.3706 360.6151,-294.7241"/>
</g>
<!-- Cropland2000_mean_percent_s&#45;&gt;loccount_y -->
<g id="edge11" class="edge">
<title>Cropland2000_mean_percent_s-&gt;loccount_y</title>
<path fill="none" stroke="#000000" stroke-width="2" d="M462.6353,-330.396C440.864,-313.1438 417.629,-292.1017 400,-269.5"/>
</g>
<!-- acl_sum_evnt_m -->
<g id="node9" class="node rankC">
<title>acl_sum_evnt_m</title>
<path fill="none" stroke="#000000" d="M352,-83C352,-83 238,-83 238,-83 232,-83 226,-77 226,-71 226,-71 226,-51 226,-51 226,-45 232,-39 238,-39 238,-39 352,-39 352,-39 358,-39 364,-45 364,-51 364,-51 364,-71 364,-71 364,-77 358,-83 352,-83"/>
<text text-anchor="middle" x="295" y="-66.2" font-family="Helvetica, Arial, sans-serif" font-size="16.00" fill="#000000">Total number of</text>
<text text-anchor="middle" x="295" y="-48.2" font-family="Helvetica, Arial, sans-serif" font-size="16.00" fill="#000000">conflict events</text>
</g>
<!-- loccount_y&#45;&gt;acl_sum_evnt_m -->
<g id="edge12" class="edge">
<title>loccount_y-&gt;acl_sum_evnt_m</title>
<path fill="none" stroke="#000000" stroke-width="2" d="M295,-119.4218C295,-111.4108 295,-103.1723 295,-95.5007"/>
<polygon fill="#000000" stroke="#000000" stroke-width="2" points="299.2001,-95.2652 295,-83.2652 290.8001,-95.2653 299.2001,-95.2652"/>
</g>
<!-- locdensity_y&#45;&gt;Cropland2000_mean_percent_s -->
<g id="edge13" class="edge">
<title>locdensity_y-&gt;Cropland2000_mean_percent_s</title>
<path fill="none" stroke="#000000" stroke-width="2" d="M460.3248,-456.2604C467.3638,-447.6816 475.0376,-438.3292 482.5921,-429.1221"/>
<polygon fill="#000000" stroke="#000000" stroke-width="2" points="486.0249,-431.5597 490.3898,-419.6186 479.5311,-426.2314 486.0249,-431.5597"/>
</g>
<!-- locdensity_y&#45;&gt;loccount_y -->
<g id="edge14" class="edge">
<title>locdensity_y-&gt;loccount_y</title>
<path fill="none" stroke="#000000" stroke-width="2" d="M430.2746,-456.2648C428.4623,-400.9165 422.128,-297.8697 400,-269.5"/>
<path fill="none" stroke="#000000" stroke-width="2" d="M400,-269.5C385.0741,-251.8541 367.7615,-233.661 351.5516,-217.4569"/>
<polygon fill="#000000" stroke="#000000" stroke-width="2" points="354.1644,-214.1334 342.6818,-208.6753 348.2545,-220.1028 354.1644,-214.1334"/>
</g>
<!-- DeliveredkcalFraction_s&#45;&gt;rurpop_s -->
<g id="edge15" class="edge">
<title>DeliveredkcalFraction_s-&gt;rurpop_s</title>
<path fill="none" stroke="#000000" stroke-width="2" d="M190,-375C198.52,-344.6298 222.7864,-319.2362 245.8462,-300.9779"/>
<polygon fill="#000000" stroke="#000000" stroke-width="2" points="248.5687,-304.1848 255.6057,-293.5961 243.5014,-297.4854 248.5687,-304.1848"/>
</g>
<!-- DeliveredkcalFraction_s&#45;&gt;loccount_y -->
<g id="edge16" class="edge">
<title>DeliveredkcalFraction_s-&gt;loccount_y</title>
<path fill="none" stroke="#000000" stroke-width="2" d="M179.5453,-458.8834C180.0067,-435.1271 182.2632,-402.5784 190,-375"/>
<path fill="none" stroke="#000000" stroke-width="2" d="M190,-375C206.0165,-317.9078 192.2572,-297.406 220,-245 224.9513,-235.6471 231.256,-226.5604 238.1,-218.0602"/>
<polygon fill="#000000" stroke="#000000" stroke-width="2" points="241.4546,-220.5982 246.0128,-208.7296 235.0481,-215.1652 241.4546,-220.5982"/>
</g>
</g>
<style>.node path {
  stroke: #fff;
}
.node text {
  fill: #fff;
}
.node polyline {
  stroke: #fff;
}
.rankA path {
  fill: #2e3348;
}
.rankB path {
  fill: #437387;
}
.rankC path {
  fill: #1b6002;
}
.edge path {
  stroke: #666;
};
</style></svg>
