<?xml version="1.0" encoding="UTF-8" standalone="no"?>
<!DOCTYPE svg PUBLIC "-//W3C//DTD SVG 1.1//EN" "http://www.w3.org/Graphics/SVG/1.1/DTD/svg11.dtd">
<!-- Generated by graphviz version 2.40.1 (20161225.0304)
 -->
<!-- Title: causalModel Pages: 1 -->
<svg xmlns="http://www.w3.org/2000/svg" xmlns:xlink="http://www.w3.org/1999/xlink" width="" height="" viewBox="0.00 0.00 639.50 886.00" preserveAspectRatio="xMinYMin">
<g id="graph0" class="graph" transform="scale(1 1) rotate(0) translate(4 882)">
<title>causalModel</title>
<polygon fill="#ffffff" stroke="transparent" points="-4,4 -4,-882 635.5,-882 635.5,4 -4,4"/>
<text text-anchor="start" x="156.75" y="-29.8" font-family="Helvetica, Arial, sans-serif" font-weight="bold" font-size="14.00" fill="#000000">Causal Model: Europe and Central Asia</text>
<text text-anchor="start" x="156.75" y="-9.8" font-family="Helvetica, Arial, sans-serif" font-size="14.00" fill="#000000">***significance of 0.1%</text>
<!-- et_anom_m_STD_m -->
<g id="node1" class="node rankA">
<title>et_anom_m_STD_m</title>
<path fill="none" stroke="#000000" d="M12,-796.5C12,-796.5 156,-796.5 156,-796.5 162,-796.5 168,-802.5 168,-808.5 168,-808.5 168,-857.5 168,-857.5 168,-863.5 162,-869.5 156,-869.5 156,-869.5 12,-869.5 12,-869.5 6,-869.5 0,-863.5 0,-857.5 0,-857.5 0,-808.5 0,-808.5 0,-802.5 6,-796.5 12,-796.5"/>
<text text-anchor="start" x="39" y="-850.7" font-family="Helvetica, Arial, sans-serif" font-size="16.00" fill="#000000">Variation in</text>
<text text-anchor="start" x="9" y="-832.7" font-family="Helvetica, Arial, sans-serif" font-size="16.00" fill="#000000">evapotranspiration</text>
<polyline fill="none" stroke="#000000" points="0,-821.5 168,-821.5 "/>
<text text-anchor="start" x="17" y="-804.8" font-family="Helvetica, Arial, sans-serif" font-size="14.00" fill="#000000">effect: Inestimable</text>
</g>
<!-- yield_gap_barley_s -->
<g id="node3" class="node rankB">
<title>yield_gap_barley_s</title>
<path fill="none" stroke="#000000" d="M245.5,-626.5C245.5,-626.5 364.5,-626.5 364.5,-626.5 370.5,-626.5 376.5,-632.5 376.5,-638.5 376.5,-638.5 376.5,-739.5 376.5,-739.5 376.5,-745.5 370.5,-751.5 364.5,-751.5 364.5,-751.5 245.5,-751.5 245.5,-751.5 239.5,-751.5 233.5,-745.5 233.5,-739.5 233.5,-739.5 233.5,-638.5 233.5,-638.5 233.5,-632.5 239.5,-626.5 245.5,-626.5"/>
<text text-anchor="start" x="253" y="-732.7" font-family="Helvetica, Arial, sans-serif" font-size="16.00" fill="#000000">Gap between</text>
<text text-anchor="start" x="251.5" y="-714.7" font-family="Helvetica, Arial, sans-serif" font-size="16.00" fill="#000000">observed and</text>
<text text-anchor="start" x="243" y="-696.7" font-family="Helvetica, Arial, sans-serif" font-size="16.00" fill="#000000">potential barley</text>
<text text-anchor="start" x="286.5" y="-678.7" font-family="Helvetica, Arial, sans-serif" font-size="16.00" fill="#000000">yield</text>
<polyline fill="none" stroke="#000000" points="233.5,-667.5 376.5,-667.5 "/>
<text text-anchor="start" x="246" y="-650.8" font-family="Helvetica, Arial, sans-serif" font-size="14.00" fill="#000000">effect: -0.224***</text>
<text text-anchor="start" x="262" y="-634.8" font-family="Helvetica, Arial, sans-serif" font-size="14.00" fill="#000000">error: 0.062</text>
</g>
<!-- et_anom_m_STD_m&#45;&gt;yield_gap_barley_s -->
<g id="edge1" class="edge">
<title>et_anom_m_STD_m-&gt;yield_gap_barley_s</title>
<path fill="none" stroke="#666666" stroke-width="2" d="M140.0533,-796.4766C165.1129,-780.1481 195.1532,-760.5744 222.6905,-742.6315"/>
<polygon fill="#666666" stroke="#666666" stroke-width="2" points="225.3451,-745.9148 233.1063,-735.8448 220.7593,-738.877 225.3451,-745.9148"/>
</g>
<!-- rurpop_s -->
<g id="node4" class="node rankB">
<title>rurpop_s</title>
<path fill="none" stroke="#000000" d="M239,-262.5C239,-262.5 365,-262.5 365,-262.5 371,-262.5 377,-268.5 377,-274.5 377,-274.5 377,-323.5 377,-323.5 377,-329.5 371,-335.5 365,-335.5 365,-335.5 239,-335.5 239,-335.5 233,-335.5 227,-329.5 227,-323.5 227,-323.5 227,-274.5 227,-274.5 227,-268.5 233,-262.5 239,-262.5"/>
<text text-anchor="start" x="251" y="-316.7" font-family="Helvetica, Arial, sans-serif" font-size="16.00" fill="#000000">Population in</text>
<text text-anchor="start" x="258.5" y="-298.7" font-family="Helvetica, Arial, sans-serif" font-size="16.00" fill="#000000">rural areas</text>
<polyline fill="none" stroke="#000000" points="227,-287.5 377,-287.5 "/>
<text text-anchor="start" x="235" y="-270.8" font-family="Helvetica, Arial, sans-serif" font-size="14.00" fill="#000000">effect: Inestimable</text>
</g>
<!-- et_anom_m_STD_m&#45;&gt;rurpop_s -->
<g id="edge2" class="edge">
<title>et_anom_m_STD_m-&gt;rurpop_s</title>
<path fill="none" stroke="#666666" stroke-width="2" d="M70.2996,-796.301C61.0388,-767.3755 51.1436,-725.9044 55,-689"/>
<path fill="none" stroke="#666666" stroke-width="2" d="M55,-689C70.4398,-541.2477 52.5956,-473.5757 161,-372 176.9536,-357.0513 196.5558,-344.3584 216.0145,-333.9583"/>
<polygon fill="#666666" stroke="#666666" stroke-width="2" points="218.0369,-337.6412 226.786,-328.4166 214.194,-330.1717 218.0369,-337.6412"/>
</g>
<!-- DeliveredkcalFraction_s -->
<g id="node8" class="node rankB">
<title>DeliveredkcalFraction_s</title>
<path fill="none" stroke="#000000" d="M111,-498.5C111,-498.5 249,-498.5 249,-498.5 255,-498.5 261,-504.5 261,-510.5 261,-510.5 261,-577.5 261,-577.5 261,-583.5 255,-589.5 249,-589.5 249,-589.5 111,-589.5 111,-589.5 105,-589.5 99,-583.5 99,-577.5 99,-577.5 99,-510.5 99,-510.5 99,-504.5 105,-498.5 111,-498.5"/>
<text text-anchor="start" x="142" y="-570.7" font-family="Helvetica, Arial, sans-serif" font-size="16.00" fill="#000000">Portion of</text>
<text text-anchor="start" x="109" y="-552.7" font-family="Helvetica, Arial, sans-serif" font-size="16.00" fill="#000000">calories produced</text>
<text text-anchor="start" x="108" y="-534.7" font-family="Helvetica, Arial, sans-serif" font-size="16.00" fill="#000000">going toward food</text>
<polyline fill="none" stroke="#000000" points="99,-523.5 261,-523.5 "/>
<text text-anchor="start" x="113" y="-506.8" font-family="Helvetica, Arial, sans-serif" font-size="14.00" fill="#000000">effect: Inestimable</text>
</g>
<!-- et_anom_m_STD_m&#45;&gt;DeliveredkcalFraction_s -->
<g id="edge3" class="edge">
<title>et_anom_m_STD_m-&gt;DeliveredkcalFraction_s</title>
<path fill="none" stroke="#666666" stroke-width="2" d="M55,-689C58.708,-653.516 81.2842,-622.2955 106.2533,-598.0018"/>
<polygon fill="#666666" stroke="#666666" stroke-width="2" points="109.2433,-600.9564 115.1579,-589.7022 103.516,-594.8117 109.2433,-600.9564"/>
</g>
<!-- chicken_number_s -->
<g id="node2" class="node rankA">
<title>chicken_number_s</title>
<path fill="none" stroke="#000000" d="M237,-788.5C237,-788.5 373,-788.5 373,-788.5 379,-788.5 385,-794.5 385,-800.5 385,-800.5 385,-865.5 385,-865.5 385,-871.5 379,-877.5 373,-877.5 373,-877.5 237,-877.5 237,-877.5 231,-877.5 225,-871.5 225,-865.5 225,-865.5 225,-800.5 225,-800.5 225,-794.5 231,-788.5 237,-788.5"/>
<text text-anchor="start" x="234" y="-858.7" font-family="Helvetica, Arial, sans-serif" font-size="16.00" fill="#000000">Count of livestock</text>
<text text-anchor="start" x="270.5" y="-840.7" font-family="Helvetica, Arial, sans-serif" font-size="16.00" fill="#000000">chickens</text>
<polyline fill="none" stroke="#000000" points="225,-829.5 385,-829.5 "/>
<text text-anchor="start" x="246" y="-812.8" font-family="Helvetica, Arial, sans-serif" font-size="14.00" fill="#000000">effect: -0.201***</text>
<text text-anchor="start" x="262" y="-796.8" font-family="Helvetica, Arial, sans-serif" font-size="14.00" fill="#000000">error: 0.081</text>
</g>
<!-- chicken_number_s&#45;&gt;yield_gap_barley_s -->
<g id="edge4" class="edge">
<title>chicken_number_s-&gt;yield_gap_barley_s</title>
<path fill="none" stroke="#666666" stroke-width="2" d="M305,-788.2269C305,-780.4609 305,-772.1994 305,-763.8864"/>
<polygon fill="#666666" stroke="#666666" stroke-width="2" points="309.2001,-763.7219 305,-751.722 300.8001,-763.722 309.2001,-763.7219"/>
</g>
<!-- Cropland2000_mean_percent_s -->
<g id="node5" class="node rankB">
<title>Cropland2000_mean_percent_s</title>
<path fill="none" stroke="#000000" d="M476.5,-372.5C476.5,-372.5 619.5,-372.5 619.5,-372.5 625.5,-372.5 631.5,-378.5 631.5,-384.5 631.5,-384.5 631.5,-449.5 631.5,-449.5 631.5,-455.5 625.5,-461.5 619.5,-461.5 619.5,-461.5 476.5,-461.5 476.5,-461.5 470.5,-461.5 464.5,-455.5 464.5,-449.5 464.5,-449.5 464.5,-384.5 464.5,-384.5 464.5,-378.5 470.5,-372.5 476.5,-372.5"/>
<text text-anchor="start" x="474" y="-442.7" font-family="Helvetica, Arial, sans-serif" font-size="16.00" fill="#000000">Percentage of land</text>
<text text-anchor="start" x="486.5" y="-424.7" font-family="Helvetica, Arial, sans-serif" font-size="16.00" fill="#000000">that is cropland</text>
<polyline fill="none" stroke="#000000" points="464.5,-413.5 631.5,-413.5 "/>
<text text-anchor="start" x="492" y="-396.8" font-family="Helvetica, Arial, sans-serif" font-size="14.00" fill="#000000">effect: 0.174***</text>
<text text-anchor="start" x="505.5" y="-380.8" font-family="Helvetica, Arial, sans-serif" font-size="14.00" fill="#000000">error: 0.072</text>
</g>
<!-- chicken_number_s&#45;&gt;Cropland2000_mean_percent_s -->
<g id="edge5" class="edge">
<title>chicken_number_s-&gt;Cropland2000_mean_percent_s</title>
<path fill="none" stroke="#666666" stroke-width="2" d="M363.6548,-788.3736C416.5901,-744.3489 491.4443,-671.8998 527,-590 542.8277,-553.5421 547.9412,-508.9457 549.1687,-474.1638"/>
<polygon fill="#666666" stroke="#666666" stroke-width="2" points="553.3754,-473.9218 549.4577,-461.8267 544.9777,-473.725 553.3754,-473.9218"/>
</g>
<!-- chicken_number_s&#45;&gt;DeliveredkcalFraction_s -->
<g id="edge6" class="edge">
<title>chicken_number_s-&gt;DeliveredkcalFraction_s</title>
<path fill="none" stroke="#666666" stroke-width="2" d="M247.0019,-788.1424C236.262,-777.3686 226.1827,-765.1372 219,-752 193.5997,-705.5425 184.438,-645.4748 181.2815,-601.8429"/>
<polygon fill="#666666" stroke="#666666" stroke-width="2" points="185.4641,-601.4306 180.5271,-589.7145 177.0803,-601.9521 185.4641,-601.4306"/>
</g>
<!-- yield_gap_barley_s&#45;&gt;rurpop_s -->
<g id="edge7" class="edge">
<title>yield_gap_barley_s-&gt;rurpop_s</title>
<path fill="none" stroke="#666666" stroke-width="2" d="M304.518,-626.3398C303.9211,-548.7462 302.9171,-418.2202 302.3747,-347.7115"/>
<polygon fill="#666666" stroke="#666666" stroke-width="2" points="306.5745,-347.6521 302.2822,-335.6848 298.1747,-347.7168 306.5745,-347.6521"/>
</g>
<!-- locdensity_y -->
<g id="node7" class="node rankB">
<title>locdensity_y</title>
<path fill="none" stroke="#000000" d="M361.5,-508.5C361.5,-508.5 500.5,-508.5 500.5,-508.5 506.5,-508.5 512.5,-514.5 512.5,-520.5 512.5,-520.5 512.5,-567.5 512.5,-567.5 512.5,-573.5 506.5,-579.5 500.5,-579.5 500.5,-579.5 361.5,-579.5 361.5,-579.5 355.5,-579.5 349.5,-573.5 349.5,-567.5 349.5,-567.5 349.5,-520.5 349.5,-520.5 349.5,-514.5 355.5,-508.5 361.5,-508.5"/>
<text text-anchor="start" x="359" y="-560.7" font-family="Helvetica, Arial, sans-serif" font-size="16.00" fill="#000000">Population density</text>
<polyline fill="none" stroke="#000000" points="349.5,-549.5 512.5,-549.5 "/>
<text text-anchor="start" x="390" y="-532.8" font-family="Helvetica, Arial, sans-serif" font-size="14.00" fill="#000000">effect: 0.38</text>
<text text-anchor="start" x="388" y="-516.8" font-family="Helvetica, Arial, sans-serif" font-size="14.00" fill="#000000">error: 0.259</text>
</g>
<!-- yield_gap_barley_s&#45;&gt;locdensity_y -->
<g id="edge8" class="edge">
<title>yield_gap_barley_s-&gt;locdensity_y</title>
<path fill="none" stroke="#666666" stroke-width="2" d="M359.5326,-626.2442C370.4485,-613.6823 381.7098,-600.7228 391.9734,-588.9115"/>
<polygon fill="#666666" stroke="#666666" stroke-width="2" points="395.2643,-591.5277 399.9651,-579.7148 388.9237,-586.0179 395.2643,-591.5277"/>
</g>
<!-- loccount_y -->
<g id="node6" class="node rankB">
<title>loccount_y</title>
<path fill="none" stroke="#000000" d="M242,-136.5C242,-136.5 362,-136.5 362,-136.5 368,-136.5 374,-142.5 374,-148.5 374,-148.5 374,-213.5 374,-213.5 374,-219.5 368,-225.5 362,-225.5 362,-225.5 242,-225.5 242,-225.5 236,-225.5 230,-219.5 230,-213.5 230,-213.5 230,-148.5 230,-148.5 230,-142.5 236,-136.5 242,-136.5"/>
<text text-anchor="start" x="239" y="-206.7" font-family="Helvetica, Arial, sans-serif" font-size="16.00" fill="#000000">Total population</text>
<text text-anchor="start" x="279.5" y="-188.7" font-family="Helvetica, Arial, sans-serif" font-size="16.00" fill="#000000">count</text>
<polyline fill="none" stroke="#000000" points="230,-177.5 374,-177.5 "/>
<text text-anchor="start" x="246" y="-160.8" font-family="Helvetica, Arial, sans-serif" font-size="14.00" fill="#000000">effect: 2.366***</text>
<text text-anchor="start" x="259.5" y="-144.8" font-family="Helvetica, Arial, sans-serif" font-size="14.00" fill="#000000">error: 0.936</text>
</g>
<!-- rurpop_s&#45;&gt;loccount_y -->
<g id="edge9" class="edge">
<title>rurpop_s-&gt;loccount_y</title>
<path fill="none" stroke="#666666" stroke-width="2" d="M302,-262.3109C302,-254.4926 302,-246.0612 302,-237.6919"/>
<polygon fill="#666666" stroke="#666666" stroke-width="2" points="306.2001,-237.5529 302,-225.5529 297.8001,-237.553 306.2001,-237.5529"/>
</g>
<!-- Cropland2000_mean_percent_s&#45;&gt;rurpop_s -->
<g id="edge10" class="edge">
<title>Cropland2000_mean_percent_s-&gt;rurpop_s</title>
<path fill="none" stroke="#666666" stroke-width="2" d="M464.3724,-376.8859C439.7417,-365.0712 412.7562,-352.127 387.9806,-340.2427"/>
<polygon fill="#666666" stroke="#666666" stroke-width="2" points="389.7777,-336.4466 377.1415,-335.0435 386.1447,-344.0203 389.7777,-336.4466"/>
</g>
<!-- Cropland2000_mean_percent_s&#45;&gt;loccount_y -->
<g id="edge11" class="edge">
<title>Cropland2000_mean_percent_s-&gt;loccount_y</title>
<path fill="none" stroke="#666666" stroke-width="2" d="M491.4875,-372.3509C467.7663,-351.7338 441.0852,-325.8836 421,-299"/>
</g>
<!-- acl_sum_evnt_m -->
<g id="node9" class="node rankC">
<title>acl_sum_evnt_m</title>
<path fill="none" stroke="#000000" d="M356,-100C356,-100 248,-100 248,-100 242,-100 236,-94 236,-88 236,-88 236,-62 236,-62 236,-56 242,-50 248,-50 248,-50 356,-50 356,-50 362,-50 368,-56 368,-62 368,-62 368,-88 368,-88 368,-94 362,-100 356,-100"/>
<text text-anchor="middle" x="302" y="-80.2" font-family="Helvetica, Arial, sans-serif" font-size="16.00" fill="#000000">Total number of</text>
<text text-anchor="middle" x="302" y="-62.2" font-family="Helvetica, Arial, sans-serif" font-size="16.00" fill="#000000">conflict events</text>
</g>
<!-- loccount_y&#45;&gt;acl_sum_evnt_m -->
<g id="edge12" class="edge">
<title>loccount_y-&gt;acl_sum_evnt_m</title>
<path fill="none" stroke="#666666" stroke-width="2" d="M302,-136.3537C302,-128.3555 302,-120.097 302,-112.3316"/>
<polygon fill="#666666" stroke="#666666" stroke-width="2" points="306.2001,-112.256 302,-100.256 297.8001,-112.2561 306.2001,-112.256"/>
</g>
<!-- locdensity_y&#45;&gt;Cropland2000_mean_percent_s -->
<g id="edge13" class="edge">
<title>locdensity_y-&gt;Cropland2000_mean_percent_s</title>
<path fill="none" stroke="#666666" stroke-width="2" d="M463.9024,-508.2854C474.5625,-496.7142 486.6351,-483.6097 498.2386,-471.0146"/>
<polygon fill="#666666" stroke="#666666" stroke-width="2" points="501.5361,-473.634 506.5778,-461.9626 495.3581,-467.9425 501.5361,-473.634"/>
</g>
<!-- locdensity_y&#45;&gt;loccount_y -->
<g id="edge14" class="edge">
<title>locdensity_y-&gt;loccount_y</title>
<path fill="none" stroke="#666666" stroke-width="2" d="M434.3277,-508.1098C439.1167,-448.1604 444.9504,-331.0571 421,-299"/>
<path fill="none" stroke="#666666" stroke-width="2" d="M421,-299C408.046,-282.6068 406.2629,-277.268 392,-262 383.2106,-252.5912 373.475,-243.0479 363.7492,-233.973"/>
<polygon fill="#666666" stroke="#666666" stroke-width="2" points="366.5238,-230.8186 354.8476,-225.7879 360.8382,-237.0019 366.5238,-230.8186"/>
</g>
<!-- DeliveredkcalFraction_s&#45;&gt;rurpop_s -->
<g id="edge15" class="edge">
<title>DeliveredkcalFraction_s-&gt;rurpop_s</title>
<path fill="none" stroke="#666666" stroke-width="2" d="M183,-417C190.3596,-387.605 211.4273,-362.597 233.8311,-343.2718"/>
<polygon fill="#666666" stroke="#666666" stroke-width="2" points="236.541,-346.4811 243.1351,-335.611 231.2016,-339.9964 236.541,-346.4811"/>
</g>
<!-- DeliveredkcalFraction_s&#45;&gt;loccount_y -->
<g id="edge16" class="edge">
<title>DeliveredkcalFraction_s-&gt;loccount_y</title>
<path fill="none" stroke="#666666" stroke-width="2" d="M176.2627,-498.3872C175.454,-473.9078 176.3848,-443.4221 183,-417"/>
<path fill="none" stroke="#666666" stroke-width="2" d="M183,-417C200.0416,-348.9336 178.6355,-323.1763 213,-262 218.5437,-252.1309 225.7274,-242.8111 233.6084,-234.2502"/>
<polygon fill="#666666" stroke="#666666" stroke-width="2" points="236.6616,-237.1351 242.0343,-225.6122 230.6485,-231.2696 236.6616,-237.1351"/>
</g>
</g>
<style>.node path {
  stroke: #fff;
}
.node text {
  fill: #fff;
}
.node polyline {
  stroke: #fff;
}
.rankA path {
  fill: #1b6002;
}
.rankB path {
  fill: #437387;
}
.rankC path {
  fill: #2e3348;
}
</style></svg>
