<?xml version="1.0" encoding="UTF-8" standalone="no"?>
<!DOCTYPE svg PUBLIC "-//W3C//DTD SVG 1.1//EN" "http://www.w3.org/Graphics/SVG/1.1/DTD/svg11.dtd">
<!-- Generated by graphviz version 2.40.1 (20161225.0304)
 -->
<!-- Title: causalModel Pages: 1 -->
<svg xmlns="http://www.w3.org/2000/svg" xmlns:xlink="http://www.w3.org/1999/xlink" width="" height="" viewBox="0.00 0.00 510.50 785.00" preserveAspectRatio="xMinYMin">
<g id="graph0" class="graph" transform="scale(1 1) rotate(0) translate(4 781)">
<title>causalModel</title>
<polygon fill="#ffffff" stroke="transparent" points="-4,4 -4,-781 506.5,-781 506.5,4 -4,4"/>
<!-- et_anom_m_STD_m -->
<g id="node1" class="node rankA">
<title>et_anom_m_STD_m</title>
<path fill="none" stroke="#000000" d="M12,-699C12,-699 152,-699 152,-699 158,-699 164,-705 164,-711 164,-711 164,-753 164,-753 164,-759 158,-765 152,-765 152,-765 12,-765 12,-765 6,-765 0,-759 0,-753 0,-753 0,-711 0,-711 0,-705 6,-699 12,-699"/>
<text text-anchor="start" x="37" y="-746.2" font-family="Helvetica, Arial, sans-serif" font-size="16.00" fill="#000000">Variation in</text>
<text text-anchor="start" x="7" y="-728.2" font-family="Helvetica, Arial, sans-serif" font-size="16.00" fill="#000000">evapotranspiration</text>
<text text-anchor="start" x="48.5" y="-710.2" font-family="Helvetica, Arial, sans-serif" font-size="16.00" fill="#000000">patterns</text>
</g>
<!-- yield_gap_barley_s -->
<g id="node3" class="node rankB">
<title>yield_gap_barley_s</title>
<path fill="none" stroke="#000000" d="M110.5,-525.5C110.5,-525.5 225.5,-525.5 225.5,-525.5 231.5,-525.5 237.5,-531.5 237.5,-537.5 237.5,-537.5 237.5,-638.5 237.5,-638.5 237.5,-644.5 231.5,-650.5 225.5,-650.5 225.5,-650.5 110.5,-650.5 110.5,-650.5 104.5,-650.5 98.5,-644.5 98.5,-638.5 98.5,-638.5 98.5,-537.5 98.5,-537.5 98.5,-531.5 104.5,-525.5 110.5,-525.5"/>
<text text-anchor="start" x="116" y="-631.7" font-family="Helvetica, Arial, sans-serif" font-size="16.00" fill="#000000">Gap between</text>
<text text-anchor="start" x="114.5" y="-613.7" font-family="Helvetica, Arial, sans-serif" font-size="16.00" fill="#000000">observed and</text>
<text text-anchor="start" x="106" y="-595.7" font-family="Helvetica, Arial, sans-serif" font-size="16.00" fill="#000000">potential barley</text>
<text text-anchor="start" x="149.5" y="-577.7" font-family="Helvetica, Arial, sans-serif" font-size="16.00" fill="#000000">yield</text>
<polyline fill="none" stroke="#000000" points="98.5,-566.5 237.5,-566.5 "/>
<text text-anchor="start" x="120" y="-549.8" font-family="Helvetica, Arial, sans-serif" font-size="14.00" fill="#000000">effect: -0.224</text>
<text text-anchor="start" x="125" y="-533.8" font-family="Helvetica, Arial, sans-serif" font-size="14.00" fill="#000000">error: 0.062</text>
</g>
<!-- et_anom_m_STD_m&#45;&gt;yield_gap_barley_s -->
<g id="edge1" class="edge">
<title>et_anom_m_STD_m-&gt;yield_gap_barley_s</title>
<path fill="none" stroke="#000000" stroke-width="2" d="M101.7301,-698.9635C108.4996,-687.6286 116.3701,-674.4501 124.2733,-661.2167"/>
<polygon fill="#000000" stroke="#000000" stroke-width="2" points="128.0511,-663.0823 130.5982,-650.6263 120.8394,-658.7753 128.0511,-663.0823"/>
</g>
<!-- rurpop_s -->
<g id="node4" class="node rankB">
<title>rurpop_s</title>
<path fill="none" stroke="#000000" d="M139.5,-206.5C139.5,-206.5 232.5,-206.5 232.5,-206.5 238.5,-206.5 244.5,-212.5 244.5,-218.5 244.5,-218.5 244.5,-242.5 244.5,-242.5 244.5,-248.5 238.5,-254.5 232.5,-254.5 232.5,-254.5 139.5,-254.5 139.5,-254.5 133.5,-254.5 127.5,-248.5 127.5,-242.5 127.5,-242.5 127.5,-218.5 127.5,-218.5 127.5,-212.5 133.5,-206.5 139.5,-206.5"/>
<text text-anchor="start" x="135" y="-235.7" font-family="Helvetica, Arial, sans-serif" font-size="16.00" fill="#000000">Population in</text>
<text text-anchor="start" x="142.5" y="-217.7" font-family="Helvetica, Arial, sans-serif" font-size="16.00" fill="#000000">rural areas</text>
</g>
<!-- et_anom_m_STD_m&#45;&gt;rurpop_s -->
<g id="edge2" class="edge">
<title>et_anom_m_STD_m-&gt;rurpop_s</title>
<path fill="none" stroke="#000000" stroke-width="2" d="M69.547,-698.7598C60.1069,-669.7147 49.4688,-626.3174 54,-588"/>
<path fill="none" stroke="#000000" stroke-width="2" d="M54,-588C61.0462,-528.4152 65.9059,-511.8069 54,-453"/>
<path fill="none" stroke="#000000" stroke-width="2" d="M54,-453C38.7732,-377.7902 102.6615,-303.8677 146.848,-263.0118"/>
<polygon fill="#000000" stroke="#000000" stroke-width="2" points="149.846,-265.9638 155.9424,-254.807 144.2191,-259.727 149.846,-265.9638"/>
</g>
<!-- DeliveredkcalFraction_s -->
<g id="node5" class="node rankB">
<title>DeliveredkcalFraction_s</title>
<path fill="none" stroke="#000000" d="M110,-420C110,-420 244,-420 244,-420 250,-420 256,-426 256,-432 256,-432 256,-474 256,-474 256,-480 250,-486 244,-486 244,-486 110,-486 110,-486 104,-486 98,-480 98,-474 98,-474 98,-432 98,-432 98,-426 104,-420 110,-420"/>
<text text-anchor="start" x="139" y="-467.2" font-family="Helvetica, Arial, sans-serif" font-size="16.00" fill="#000000">Portion of</text>
<text text-anchor="start" x="106" y="-449.2" font-family="Helvetica, Arial, sans-serif" font-size="16.00" fill="#000000">calories produced</text>
<text text-anchor="start" x="105" y="-431.2" font-family="Helvetica, Arial, sans-serif" font-size="16.00" fill="#000000">going toward food</text>
</g>
<!-- et_anom_m_STD_m&#45;&gt;DeliveredkcalFraction_s -->
<g id="edge3" class="edge">
<title>et_anom_m_STD_m-&gt;DeliveredkcalFraction_s</title>
<path fill="none" stroke="#000000" stroke-width="2" d="M54,-588C58.533,-549.6679 86.5697,-517.264 114.7312,-493.8185"/>
<polygon fill="#000000" stroke="#000000" stroke-width="2" points="117.4964,-496.9852 124.2527,-486.2152 112.2548,-490.4213 117.4964,-496.9852"/>
</g>
<!-- chicken_number_s -->
<g id="node2" class="node rankA">
<title>chicken_number_s</title>
<path fill="none" stroke="#000000" d="M219,-687.5C219,-687.5 351,-687.5 351,-687.5 357,-687.5 363,-693.5 363,-699.5 363,-699.5 363,-764.5 363,-764.5 363,-770.5 357,-776.5 351,-776.5 351,-776.5 219,-776.5 219,-776.5 213,-776.5 207,-770.5 207,-764.5 207,-764.5 207,-699.5 207,-699.5 207,-693.5 213,-687.5 219,-687.5"/>
<text text-anchor="start" x="214" y="-757.7" font-family="Helvetica, Arial, sans-serif" font-size="16.00" fill="#000000">Count of livestock</text>
<text text-anchor="start" x="250.5" y="-739.7" font-family="Helvetica, Arial, sans-serif" font-size="16.00" fill="#000000">chickens</text>
<polyline fill="none" stroke="#000000" points="207,-728.5 363,-728.5 "/>
<text text-anchor="start" x="237" y="-711.8" font-family="Helvetica, Arial, sans-serif" font-size="14.00" fill="#000000">effect: -0.201</text>
<text text-anchor="start" x="242" y="-695.8" font-family="Helvetica, Arial, sans-serif" font-size="14.00" fill="#000000">error: 0.081</text>
</g>
<!-- chicken_number_s&#45;&gt;yield_gap_barley_s -->
<g id="edge4" class="edge">
<title>chicken_number_s-&gt;yield_gap_barley_s</title>
<path fill="none" stroke="#000000" stroke-width="2" d="M248.6218,-687.2269C241.6517,-678.6482 234.1901,-669.4648 226.7237,-660.2754"/>
<polygon fill="#000000" stroke="#000000" stroke-width="2" points="229.7884,-657.3869 218.9616,-650.722 223.2691,-662.6839 229.7884,-657.3869"/>
</g>
<!-- chicken_number_s&#45;&gt;DeliveredkcalFraction_s -->
<g id="edge6" class="edge">
<title>chicken_number_s-&gt;DeliveredkcalFraction_s</title>
<path fill="none" stroke="#000000" stroke-width="2" d="M295.731,-687.387C301.0953,-658.8543 305.4068,-621.1171 300,-588"/>
<path fill="none" stroke="#000000" stroke-width="2" d="M300,-588C293.7575,-549.7646 265.4534,-517.2739 237.5695,-493.7545"/>
<polygon fill="#000000" stroke="#000000" stroke-width="2" points="240.1282,-490.422 228.1618,-486.1269 234.8379,-496.9469 240.1282,-490.422"/>
</g>
<!-- Cropland2000_mean_percent_s -->
<g id="node6" class="node rankB">
<title>Cropland2000_mean_percent_s</title>
<path fill="none" stroke="#000000" d="M230.5,-291.5C230.5,-291.5 369.5,-291.5 369.5,-291.5 375.5,-291.5 381.5,-297.5 381.5,-303.5 381.5,-303.5 381.5,-368.5 381.5,-368.5 381.5,-374.5 375.5,-380.5 369.5,-380.5 369.5,-380.5 230.5,-380.5 230.5,-380.5 224.5,-380.5 218.5,-374.5 218.5,-368.5 218.5,-368.5 218.5,-303.5 218.5,-303.5 218.5,-297.5 224.5,-291.5 230.5,-291.5"/>
<text text-anchor="start" x="226" y="-361.7" font-family="Helvetica, Arial, sans-serif" font-size="16.00" fill="#000000">Percentage of land</text>
<text text-anchor="start" x="238.5" y="-343.7" font-family="Helvetica, Arial, sans-serif" font-size="16.00" fill="#000000">that is cropland</text>
<polyline fill="none" stroke="#000000" points="218.5,-332.5 381.5,-332.5 "/>
<text text-anchor="start" x="255" y="-315.8" font-family="Helvetica, Arial, sans-serif" font-size="14.00" fill="#000000">effect: 0.174</text>
<text text-anchor="start" x="257.5" y="-299.8" font-family="Helvetica, Arial, sans-serif" font-size="14.00" fill="#000000">error: 0.072</text>
</g>
<!-- chicken_number_s&#45;&gt;Cropland2000_mean_percent_s -->
<g id="edge5" class="edge">
<title>chicken_number_s-&gt;Cropland2000_mean_percent_s</title>
<path fill="none" stroke="#000000" stroke-width="2" d="M300,-588C289.1567,-521.5842 291.3438,-444.0032 294.8173,-392.6516"/>
<polygon fill="#000000" stroke="#000000" stroke-width="2" points="299.0191,-392.7772 295.6961,-380.5053 290.641,-392.1709 299.0191,-392.7772"/>
</g>
<!-- yield_gap_barley_s&#45;&gt;rurpop_s -->
<g id="edge7" class="edge">
<title>yield_gap_barley_s-&gt;rurpop_s</title>
<path fill="none" stroke="#000000" stroke-width="2" d="M98.4523,-531.2074C78.2548,-509.4265 59.9958,-482.6152 54,-453"/>
</g>
<!-- locdensity_y -->
<g id="node7" class="node rankB">
<title>locdensity_y</title>
<path fill="none" stroke="#000000" d="M355.5,-417.5C355.5,-417.5 490.5,-417.5 490.5,-417.5 496.5,-417.5 502.5,-423.5 502.5,-429.5 502.5,-429.5 502.5,-476.5 502.5,-476.5 502.5,-482.5 496.5,-488.5 490.5,-488.5 490.5,-488.5 355.5,-488.5 355.5,-488.5 349.5,-488.5 343.5,-482.5 343.5,-476.5 343.5,-476.5 343.5,-429.5 343.5,-429.5 343.5,-423.5 349.5,-417.5 355.5,-417.5"/>
<text text-anchor="start" x="351" y="-469.7" font-family="Helvetica, Arial, sans-serif" font-size="16.00" fill="#000000">Population density</text>
<polyline fill="none" stroke="#000000" points="343.5,-458.5 502.5,-458.5 "/>
<text text-anchor="start" x="382" y="-441.8" font-family="Helvetica, Arial, sans-serif" font-size="14.00" fill="#000000">effect: 0.38</text>
<text text-anchor="start" x="380" y="-425.8" font-family="Helvetica, Arial, sans-serif" font-size="14.00" fill="#000000">error: 0.259</text>
</g>
<!-- yield_gap_barley_s&#45;&gt;locdensity_y -->
<g id="edge8" class="edge">
<title>yield_gap_barley_s-&gt;locdensity_y</title>
<path fill="none" stroke="#000000" stroke-width="2" d="M237.7768,-547.2123C251.0554,-539.6853 264.8964,-531.9978 278,-525 297.3497,-514.6666 318.3782,-503.9417 338.2635,-494.0246"/>
<polygon fill="#000000" stroke="#000000" stroke-width="2" points="340.2957,-497.7049 349.1754,-488.6058 336.5596,-490.1814 340.2957,-497.7049"/>
</g>
<!-- loccount_y -->
<g id="node8" class="node rankB">
<title>loccount_y</title>
<path fill="none" stroke="#000000" d="M179,-80.5C179,-80.5 295,-80.5 295,-80.5 301,-80.5 307,-86.5 307,-92.5 307,-92.5 307,-157.5 307,-157.5 307,-163.5 301,-169.5 295,-169.5 295,-169.5 179,-169.5 179,-169.5 173,-169.5 167,-163.5 167,-157.5 167,-157.5 167,-92.5 167,-92.5 167,-86.5 173,-80.5 179,-80.5"/>
<text text-anchor="start" x="174" y="-150.7" font-family="Helvetica, Arial, sans-serif" font-size="16.00" fill="#000000">Total population</text>
<text text-anchor="start" x="214.5" y="-132.7" font-family="Helvetica, Arial, sans-serif" font-size="16.00" fill="#000000">count</text>
<polyline fill="none" stroke="#000000" points="167,-121.5 307,-121.5 "/>
<text text-anchor="start" x="192" y="-104.8" font-family="Helvetica, Arial, sans-serif" font-size="14.00" fill="#000000">effect: 2.366</text>
<text text-anchor="start" x="194.5" y="-88.8" font-family="Helvetica, Arial, sans-serif" font-size="14.00" fill="#000000">error: 0.936</text>
</g>
<!-- rurpop_s&#45;&gt;loccount_y -->
<g id="edge9" class="edge">
<title>rurpop_s-&gt;loccount_y</title>
<path fill="none" stroke="#000000" stroke-width="2" d="M197.7004,-206.2962C201.4219,-198.5978 205.7046,-189.7386 210.0436,-180.7627"/>
<polygon fill="#000000" stroke="#000000" stroke-width="2" points="213.889,-182.4582 215.3304,-169.8263 206.3263,-178.8022 213.889,-182.4582"/>
</g>
<!-- DeliveredkcalFraction_s&#45;&gt;rurpop_s -->
<g id="edge15" class="edge">
<title>DeliveredkcalFraction_s-&gt;rurpop_s</title>
<path fill="none" stroke="#000000" stroke-width="2" d="M170.9551,-419.8122C167.8642,-396.0219 166.1988,-363.4619 174,-336"/>
<path fill="none" stroke="#000000" stroke-width="2" d="M174,-336C180.3825,-313.5324 183.3867,-287.4615 184.7932,-266.8578"/>
<polygon fill="#000000" stroke="#000000" stroke-width="2" points="188.9897,-267.0359 185.4784,-254.8166 180.6033,-266.5586 188.9897,-267.0359"/>
</g>
<!-- DeliveredkcalFraction_s&#45;&gt;loccount_y -->
<g id="edge16" class="edge">
<title>DeliveredkcalFraction_s-&gt;loccount_y</title>
<path fill="none" stroke="#000000" stroke-width="2" d="M174,-336C180.5684,-312.8779 186.7865,-307.7772 204,-291 240.116,-255.7993 313.4113,-279.1168 300,-230.5"/>
<path fill="none" stroke="#000000" stroke-width="2" d="M300,-230.5C295.1833,-213.039 286.6315,-195.5552 277.3521,-179.9845"/>
<polygon fill="#000000" stroke="#000000" stroke-width="2" points="280.7549,-177.5033 270.8486,-169.5342 273.6232,-181.9416 280.7549,-177.5033"/>
</g>
<!-- Cropland2000_mean_percent_s&#45;&gt;rurpop_s -->
<g id="edge10" class="edge">
<title>Cropland2000_mean_percent_s-&gt;rurpop_s</title>
<path fill="none" stroke="#000000" stroke-width="2" d="M251.6537,-291.2585C241.3525,-281.7253 230.6651,-271.8348 220.98,-262.8719"/>
<polygon fill="#000000" stroke="#000000" stroke-width="2" points="223.7067,-259.6727 212.0467,-254.6046 218.0013,-265.8378 223.7067,-259.6727"/>
</g>
<!-- Cropland2000_mean_percent_s&#45;&gt;loccount_y -->
<g id="edge11" class="edge">
<title>Cropland2000_mean_percent_s-&gt;loccount_y</title>
<path fill="none" stroke="#000000" stroke-width="2" d="M305.2158,-291.407C306.1179,-272.3339 305.3821,-250.0104 300,-230.5"/>
</g>
<!-- locdensity_y&#45;&gt;Cropland2000_mean_percent_s -->
<g id="edge13" class="edge">
<title>locdensity_y-&gt;Cropland2000_mean_percent_s</title>
<path fill="none" stroke="#000000" stroke-width="2" d="M385.4276,-417.2604C376.0291,-408.3204 365.7474,-398.5402 355.6759,-388.96"/>
<polygon fill="#000000" stroke="#000000" stroke-width="2" points="358.4962,-385.8461 346.9068,-380.6186 352.7068,-391.9324 358.4962,-385.8461"/>
</g>
<!-- locdensity_y&#45;&gt;loccount_y -->
<g id="edge14" class="edge">
<title>locdensity_y-&gt;loccount_y</title>
<path fill="none" stroke="#000000" stroke-width="2" d="M425.1171,-417.4402C425.4655,-382.437 421.1814,-328.8703 396,-291 368.0753,-249.004 313.4113,-279.1168 300,-230.5"/>
</g>
<!-- acl_sum_evnt_m -->
<g id="node9" class="node rankC">
<title>acl_sum_evnt_m</title>
<path fill="none" stroke="#000000" d="M292,-44C292,-44 182,-44 182,-44 176,-44 170,-38 170,-32 170,-32 170,-12 170,-12 170,-6 176,0 182,0 182,0 292,0 292,0 298,0 304,-6 304,-12 304,-12 304,-32 304,-32 304,-38 298,-44 292,-44"/>
<text text-anchor="middle" x="237" y="-27.2" font-family="Helvetica, Arial, sans-serif" font-size="16.00" fill="#000000">Total number of</text>
<text text-anchor="middle" x="237" y="-9.2" font-family="Helvetica, Arial, sans-serif" font-size="16.00" fill="#000000">conflict events</text>
</g>
<!-- loccount_y&#45;&gt;acl_sum_evnt_m -->
<g id="edge12" class="edge">
<title>loccount_y-&gt;acl_sum_evnt_m</title>
<path fill="none" stroke="#000000" stroke-width="2" d="M237,-80.4218C237,-72.4108 237,-64.1723 237,-56.5007"/>
<polygon fill="#000000" stroke="#000000" stroke-width="2" points="241.2001,-56.2652 237,-44.2652 232.8001,-56.2653 241.2001,-56.2652"/>
</g>
</g>
<style>.node path {
  stroke: #fff;
}
.node text {
  fill: #fff;
}
.node polyline {
  stroke: #fff;
}
.rankA path {
  fill: #2e3348;
}
.rankB path {
  fill: #437387;
}
.rankC path {
  fill: #1b6002;
}
.edge path {
  stroke: #666;
};
</style></svg>
