<?xml version="1.0" encoding="UTF-8" standalone="no"?>
<!DOCTYPE svg PUBLIC "-//W3C//DTD SVG 1.1//EN" "http://www.w3.org/Graphics/SVG/1.1/DTD/svg11.dtd">
<!-- Generated by graphviz version 2.40.1 (20161225.0304)
 -->
<!-- Title: causalModel Pages: 1 -->
<svg xmlns="http://www.w3.org/2000/svg" xmlns:xlink="http://www.w3.org/1999/xlink" width="" height="" viewBox="0.00 0.00 547.50 940.00" preserveAspectRatio="xMinYMin">
<g id="graph0" class="graph" transform="scale(1 1) rotate(0) translate(4 936)">
<title>causalModel</title>
<polygon fill="#ffffff" stroke="transparent" points="-4,4 -4,-936 543.5,-936 543.5,4 -4,4"/>
<!-- et_anom_m_STD_m -->
<g id="node1" class="node rankA">
<title>et_anom_m_STD_m</title>
<path fill="none" stroke="#000000" d="M12,-854C12,-854 152,-854 152,-854 158,-854 164,-860 164,-866 164,-866 164,-908 164,-908 164,-914 158,-920 152,-920 152,-920 12,-920 12,-920 6,-920 0,-914 0,-908 0,-908 0,-866 0,-866 0,-860 6,-854 12,-854"/>
<text text-anchor="start" x="37" y="-901.2" font-family="Helvetica, Arial, sans-serif" font-size="16.00" fill="#000000">Variation in</text>
<text text-anchor="start" x="7" y="-883.2" font-family="Helvetica, Arial, sans-serif" font-size="16.00" fill="#000000">evapotranspiration</text>
<text text-anchor="start" x="48.5" y="-865.2" font-family="Helvetica, Arial, sans-serif" font-size="16.00" fill="#000000">patterns</text>
</g>
<!-- yield_gap_barley_s -->
<g id="node2" class="node rankB">
<title>yield_gap_barley_s</title>
<path fill="none" stroke="#000000" d="M73.5,-680.5C73.5,-680.5 280.5,-680.5 280.5,-680.5 286.5,-680.5 292.5,-686.5 292.5,-692.5 292.5,-692.5 292.5,-757.5 292.5,-757.5 292.5,-763.5 286.5,-769.5 280.5,-769.5 280.5,-769.5 73.5,-769.5 73.5,-769.5 67.5,-769.5 61.5,-763.5 61.5,-757.5 61.5,-757.5 61.5,-692.5 61.5,-692.5 61.5,-686.5 67.5,-680.5 73.5,-680.5"/>
<text text-anchor="start" x="69" y="-750.7" font-family="Helvetica, Arial, sans-serif" font-size="16.00" fill="#000000">Gap between observed and</text>
<text text-anchor="start" x="93.5" y="-732.7" font-family="Helvetica, Arial, sans-serif" font-size="16.00" fill="#000000">potential barley yield</text>
<polyline fill="none" stroke="#000000" points="61.5,-721.5 292.5,-721.5 "/>
<text text-anchor="start" x="129" y="-704.8" font-family="Helvetica, Arial, sans-serif" font-size="14.00" fill="#000000">effect: -0.224</text>
<text text-anchor="start" x="134" y="-688.8" font-family="Helvetica, Arial, sans-serif" font-size="14.00" fill="#000000">error: 0.062</text>
</g>
<!-- et_anom_m_STD_m&#45;&gt;yield_gap_barley_s -->
<g id="edge1" class="edge">
<title>et_anom_m_STD_m-&gt;yield_gap_barley_s</title>
<path fill="none" stroke="#000000" stroke-width="2" d="M101.4539,-853.826C113.843,-832.6993 130.1979,-804.8099 144.5214,-780.3846"/>
<polygon fill="#000000" stroke="#000000" stroke-width="2" points="148.28,-782.2778 150.7274,-769.8018 141.034,-778.0286 148.28,-782.2778"/>
</g>
<!-- rurpop_s -->
<g id="node3" class="node rankB">
<title>rurpop_s</title>
<path fill="none" stroke="#000000" d="M95.5,-265.5C95.5,-265.5 280.5,-265.5 280.5,-265.5 286.5,-265.5 292.5,-271.5 292.5,-277.5 292.5,-277.5 292.5,-289.5 292.5,-289.5 292.5,-295.5 286.5,-301.5 280.5,-301.5 280.5,-301.5 95.5,-301.5 95.5,-301.5 89.5,-301.5 83.5,-295.5 83.5,-289.5 83.5,-289.5 83.5,-277.5 83.5,-277.5 83.5,-271.5 89.5,-265.5 95.5,-265.5"/>
<text text-anchor="start" x="91" y="-279.7" font-family="Helvetica, Arial, sans-serif" font-size="16.00" fill="#000000">Population in rural areas</text>
</g>
<!-- et_anom_m_STD_m&#45;&gt;rurpop_s -->
<g id="edge2" class="edge">
<title>et_anom_m_STD_m-&gt;rurpop_s</title>
<path fill="none" stroke="#000000" stroke-width="2" d="M57.7931,-853.9668C37.2062,-822.1826 11.744,-772.1343 17,-725"/>
<path fill="none" stroke="#000000" stroke-width="2" d="M17,-725C24.7198,-655.7703 61.136,-640.9174 51,-572"/>
<path fill="none" stroke="#000000" stroke-width="2" d="M51,-572C35.721,-468.1143 118.0169,-360.0525 161.8874,-310.8418"/>
<polygon fill="#000000" stroke="#000000" stroke-width="2" points="165.1414,-313.5063 170.1089,-301.8031 158.9274,-307.8542 165.1414,-313.5063"/>
</g>
<!-- DeliveredkcalFraction_s -->
<g id="node4" class="node rankB">
<title>DeliveredkcalFraction_s</title>
<path fill="none" stroke="#000000" d="M107,-539C107,-539 281,-539 281,-539 287,-539 293,-545 293,-551 293,-551 293,-593 293,-593 293,-599 287,-605 281,-605 281,-605 107,-605 107,-605 101,-605 95,-599 95,-593 95,-593 95,-551 95,-551 95,-545 101,-539 107,-539"/>
<text text-anchor="start" x="122" y="-586.2" font-family="Helvetica, Arial, sans-serif" font-size="16.00" fill="#000000">Portion of calories</text>
<text text-anchor="start" x="102" y="-568.2" font-family="Helvetica, Arial, sans-serif" font-size="16.00" fill="#000000">produced going toward</text>
<text text-anchor="start" x="176.5" y="-550.2" font-family="Helvetica, Arial, sans-serif" font-size="16.00" fill="#000000">food</text>
</g>
<!-- et_anom_m_STD_m&#45;&gt;DeliveredkcalFraction_s -->
<g id="edge3" class="edge">
<title>et_anom_m_STD_m-&gt;DeliveredkcalFraction_s</title>
<path fill="none" stroke="#000000" stroke-width="2" d="M17,-725C22.6437,-674.3885 65.2131,-636.6533 107.1861,-611.3214"/>
<polygon fill="#000000" stroke="#000000" stroke-width="2" points="109.5517,-614.8047 117.8216,-605.1481 105.3347,-607.5398 109.5517,-614.8047"/>
</g>
<!-- yield_gap_barley_s&#45;&gt;rurpop_s -->
<g id="edge7" class="edge">
<title>yield_gap_barley_s-&gt;rurpop_s</title>
<path fill="none" stroke="#000000" stroke-width="2" d="M117.7551,-680.2163C88.1742,-652.9294 57.3339,-615.066 51,-572"/>
</g>
<!-- locdensity_y -->
<g id="node7" class="node rankB">
<title>locdensity_y</title>
<path fill="none" stroke="#000000" d="M392.5,-536.5C392.5,-536.5 527.5,-536.5 527.5,-536.5 533.5,-536.5 539.5,-542.5 539.5,-548.5 539.5,-548.5 539.5,-595.5 539.5,-595.5 539.5,-601.5 533.5,-607.5 527.5,-607.5 527.5,-607.5 392.5,-607.5 392.5,-607.5 386.5,-607.5 380.5,-601.5 380.5,-595.5 380.5,-595.5 380.5,-548.5 380.5,-548.5 380.5,-542.5 386.5,-536.5 392.5,-536.5"/>
<text text-anchor="start" x="388" y="-588.7" font-family="Helvetica, Arial, sans-serif" font-size="16.00" fill="#000000">Population density</text>
<polyline fill="none" stroke="#000000" points="380.5,-577.5 539.5,-577.5 "/>
<text text-anchor="start" x="419" y="-560.8" font-family="Helvetica, Arial, sans-serif" font-size="14.00" fill="#000000">effect: 0.38</text>
<text text-anchor="start" x="417" y="-544.8" font-family="Helvetica, Arial, sans-serif" font-size="14.00" fill="#000000">error: 0.259</text>
</g>
<!-- yield_gap_barley_s&#45;&gt;locdensity_y -->
<g id="edge8" class="edge">
<title>yield_gap_barley_s-&gt;locdensity_y</title>
<path fill="none" stroke="#000000" stroke-width="2" d="M259.6161,-680.3348C298.6873,-659.2115 345.0486,-634.1469 383.3321,-613.4494"/>
<polygon fill="#000000" stroke="#000000" stroke-width="2" points="385.3444,-617.1361 393.9031,-607.7344 381.3495,-609.7468 385.3444,-617.1361"/>
</g>
<!-- loccount_y -->
<g id="node8" class="node rankB">
<title>loccount_y</title>
<path fill="none" stroke="#000000" d="M179.5,-121.5C179.5,-121.5 344.5,-121.5 344.5,-121.5 350.5,-121.5 356.5,-127.5 356.5,-133.5 356.5,-133.5 356.5,-180.5 356.5,-180.5 356.5,-186.5 350.5,-192.5 344.5,-192.5 344.5,-192.5 179.5,-192.5 179.5,-192.5 173.5,-192.5 167.5,-186.5 167.5,-180.5 167.5,-180.5 167.5,-133.5 167.5,-133.5 167.5,-127.5 173.5,-121.5 179.5,-121.5"/>
<text text-anchor="start" x="175" y="-173.7" font-family="Helvetica, Arial, sans-serif" font-size="16.00" fill="#000000">Total population count</text>
<polyline fill="none" stroke="#000000" points="167.5,-162.5 356.5,-162.5 "/>
<text text-anchor="start" x="217" y="-145.8" font-family="Helvetica, Arial, sans-serif" font-size="14.00" fill="#000000">effect: 2.366</text>
<text text-anchor="start" x="219.5" y="-129.8" font-family="Helvetica, Arial, sans-serif" font-size="14.00" fill="#000000">error: 0.936</text>
</g>
<!-- rurpop_s&#45;&gt;loccount_y -->
<g id="edge9" class="edge">
<title>rurpop_s-&gt;loccount_y</title>
<path fill="none" stroke="#000000" stroke-width="2" d="M198.6024,-265.3756C208.0725,-249.1869 222.3567,-224.7686 234.9703,-203.2062"/>
<polygon fill="#000000" stroke="#000000" stroke-width="2" points="238.7552,-205.0539 241.1892,-192.5753 231.5047,-200.8125 238.7552,-205.0539"/>
</g>
<!-- DeliveredkcalFraction_s&#45;&gt;rurpop_s -->
<g id="edge15" class="edge">
<title>DeliveredkcalFraction_s-&gt;rurpop_s</title>
<path fill="none" stroke="#000000" stroke-width="2" d="M189.3014,-538.9554C185.8904,-507.6162 183.3732,-459.4412 193,-419"/>
<path fill="none" stroke="#000000" stroke-width="2" d="M193,-419C201.4238,-383.6126 197.8562,-341.5757 193.7045,-313.8106"/>
<polygon fill="#000000" stroke="#000000" stroke-width="2" points="197.8178,-312.9393 191.7333,-301.776 189.5283,-314.2971 197.8178,-312.9393"/>
</g>
<!-- DeliveredkcalFraction_s&#45;&gt;loccount_y -->
<g id="edge16" class="edge">
<title>DeliveredkcalFraction_s-&gt;loccount_y</title>
<path fill="none" stroke="#000000" stroke-width="2" d="M193,-419C198.5663,-395.6164 206.7229,-391.6871 223,-374 266.8067,-326.3984 354.1046,-345.8889 337,-283.5"/>
<path fill="none" stroke="#000000" stroke-width="2" d="M337,-283.5C329.0677,-254.567 312.6162,-225.5434 297.1373,-202.608"/>
<polygon fill="#000000" stroke="#000000" stroke-width="2" points="300.4246,-199.9785 290.1279,-192.5207 293.5265,-204.7718 300.4246,-199.9785"/>
</g>
<!-- chicken_number_s -->
<g id="node5" class="node rankA">
<title>chicken_number_s</title>
<path fill="none" stroke="#000000" d="M238,-842.5C238,-842.5 370,-842.5 370,-842.5 376,-842.5 382,-848.5 382,-854.5 382,-854.5 382,-919.5 382,-919.5 382,-925.5 376,-931.5 370,-931.5 370,-931.5 238,-931.5 238,-931.5 232,-931.5 226,-925.5 226,-919.5 226,-919.5 226,-854.5 226,-854.5 226,-848.5 232,-842.5 238,-842.5"/>
<text text-anchor="start" x="233" y="-912.7" font-family="Helvetica, Arial, sans-serif" font-size="16.00" fill="#000000">Count of livestock</text>
<text text-anchor="start" x="269.5" y="-894.7" font-family="Helvetica, Arial, sans-serif" font-size="16.00" fill="#000000">chickens</text>
<polyline fill="none" stroke="#000000" points="226,-883.5 382,-883.5 "/>
<text text-anchor="start" x="256" y="-866.8" font-family="Helvetica, Arial, sans-serif" font-size="14.00" fill="#000000">effect: -0.201</text>
<text text-anchor="start" x="261" y="-850.8" font-family="Helvetica, Arial, sans-serif" font-size="14.00" fill="#000000">error: 0.081</text>
</g>
<!-- chicken_number_s&#45;&gt;yield_gap_barley_s -->
<g id="edge4" class="edge">
<title>chicken_number_s-&gt;yield_gap_barley_s</title>
<path fill="none" stroke="#000000" stroke-width="2" d="M268.9605,-842.304C253.622,-822.7382 235.49,-799.6093 219.398,-779.0825"/>
<polygon fill="#000000" stroke="#000000" stroke-width="2" points="222.6341,-776.4029 211.9251,-769.5502 216.0234,-781.5854 222.6341,-776.4029"/>
</g>
<!-- chicken_number_s&#45;&gt;DeliveredkcalFraction_s -->
<g id="edge6" class="edge">
<title>chicken_number_s-&gt;DeliveredkcalFraction_s</title>
<path fill="none" stroke="#000000" stroke-width="2" d="M320.9924,-842.2825C331.3477,-809.9318 341.7518,-765.0462 337,-725"/>
<path fill="none" stroke="#000000" stroke-width="2" d="M337,-725C331.4198,-677.972 294.498,-639.1912 259.5726,-612.4398"/>
<polygon fill="#000000" stroke="#000000" stroke-width="2" points="261.9487,-608.9733 249.8025,-605.2167 256.955,-615.7278 261.9487,-608.9733"/>
</g>
<!-- Cropland2000_mean_percent_s -->
<g id="node6" class="node rankB">
<title>Cropland2000_mean_percent_s</title>
<path fill="none" stroke="#000000" d="M249,-374.5C249,-374.5 425,-374.5 425,-374.5 431,-374.5 437,-380.5 437,-386.5 437,-386.5 437,-451.5 437,-451.5 437,-457.5 431,-463.5 425,-463.5 425,-463.5 249,-463.5 249,-463.5 243,-463.5 237,-457.5 237,-451.5 237,-451.5 237,-386.5 237,-386.5 237,-380.5 243,-374.5 249,-374.5"/>
<text text-anchor="start" x="244" y="-444.7" font-family="Helvetica, Arial, sans-serif" font-size="16.00" fill="#000000">Percentage of land that</text>
<text text-anchor="start" x="293" y="-426.7" font-family="Helvetica, Arial, sans-serif" font-size="16.00" fill="#000000">is cropland</text>
<polyline fill="none" stroke="#000000" points="237,-415.5 437,-415.5 "/>
<text text-anchor="start" x="292" y="-398.8" font-family="Helvetica, Arial, sans-serif" font-size="14.00" fill="#000000">effect: 0.174</text>
<text text-anchor="start" x="294.5" y="-382.8" font-family="Helvetica, Arial, sans-serif" font-size="14.00" fill="#000000">error: 0.072</text>
</g>
<!-- chicken_number_s&#45;&gt;Cropland2000_mean_percent_s -->
<g id="edge5" class="edge">
<title>chicken_number_s-&gt;Cropland2000_mean_percent_s</title>
<path fill="none" stroke="#000000" stroke-width="2" d="M337,-725C326.7369,-638.5059 329.6197,-537.2887 333.0196,-475.6847"/>
<polygon fill="#000000" stroke="#000000" stroke-width="2" points="337.2224,-475.7576 333.7255,-463.5342 328.8365,-475.2703 337.2224,-475.7576"/>
</g>
<!-- Cropland2000_mean_percent_s&#45;&gt;rurpop_s -->
<g id="edge10" class="edge">
<title>Cropland2000_mean_percent_s-&gt;rurpop_s</title>
<path fill="none" stroke="#000000" stroke-width="2" d="M287.7989,-374.2567C264.3822,-352.9616 237.1815,-328.2255 217.0971,-309.9608"/>
<polygon fill="#000000" stroke="#000000" stroke-width="2" points="219.8372,-306.7757 208.1335,-301.8093 214.1857,-312.9902 219.8372,-306.7757"/>
</g>
<!-- Cropland2000_mean_percent_s&#45;&gt;loccount_y -->
<g id="edge11" class="edge">
<title>Cropland2000_mean_percent_s-&gt;loccount_y</title>
<path fill="none" stroke="#000000" stroke-width="2" d="M342.8764,-374.2719C344.9596,-347.4743 345.0859,-312.9933 337,-283.5"/>
</g>
<!-- locdensity_y&#45;&gt;Cropland2000_mean_percent_s -->
<g id="edge13" class="edge">
<title>locdensity_y-&gt;Cropland2000_mean_percent_s</title>
<path fill="none" stroke="#000000" stroke-width="2" d="M431.162,-536.1283C416.076,-517.3628 397.2961,-494.0024 380.4857,-473.0919"/>
<polygon fill="#000000" stroke="#000000" stroke-width="2" points="383.713,-470.4031 372.9209,-463.6821 377.1663,-475.6662 383.713,-470.4031"/>
</g>
<!-- locdensity_y&#45;&gt;loccount_y -->
<g id="edge14" class="edge">
<title>locdensity_y-&gt;loccount_y</title>
<path fill="none" stroke="#000000" stroke-width="2" d="M467.1335,-536.142C473.5196,-494.6584 478.2899,-425.4718 452,-374 422.4157,-316.0782 354.1968,-346.2251 337,-283.5"/>
</g>
<!-- acl_sum_evnt_m -->
<g id="node9" class="node rankC">
<title>acl_sum_evnt_m</title>
<path fill="none" stroke="#000000" d="M173.5,-.5C173.5,-.5 350.5,-.5 350.5,-.5 356.5,-.5 362.5,-6.5 362.5,-12.5 362.5,-12.5 362.5,-36.5 362.5,-36.5 362.5,-42.5 356.5,-48.5 350.5,-48.5 350.5,-48.5 173.5,-48.5 173.5,-48.5 167.5,-48.5 161.5,-42.5 161.5,-36.5 161.5,-36.5 161.5,-12.5 161.5,-12.5 161.5,-6.5 167.5,-.5 173.5,-.5"/>
<text text-anchor="start" x="169" y="-29.7" font-family="Helvetica, Arial, sans-serif" font-size="16.00" fill="#000000">Total number of conflict</text>
<text text-anchor="start" x="236" y="-11.7" font-family="Helvetica, Arial, sans-serif" font-size="16.00" fill="#000000">events</text>
</g>
<!-- loccount_y&#45;&gt;acl_sum_evnt_m -->
<g id="edge12" class="edge">
<title>loccount_y-&gt;acl_sum_evnt_m</title>
<path fill="none" stroke="#000000" stroke-width="2" d="M262,-121.4924C262,-102.7176 262,-79.7102 262,-60.816"/>
<polygon fill="#000000" stroke="#000000" stroke-width="2" points="266.2001,-60.788 262,-48.7881 257.8001,-60.7881 266.2001,-60.788"/>
</g>
</g>
<style>.node path {
  stroke: #fff;
}
.node text {
  fill: #fff;
}
.rankC.node text {
  fill: #000;
}
.node polyline {
  stroke: #fff;
}
.rankA path {
  fill: #292a40;
}
.rankB path {
  fill: #4a6e81;
}
.rankC path {
  fill: #73b85f;
}
.edge path {
  stroke: #666;
};
</style></svg>
