<?xml version="1.0" encoding="UTF-8" standalone="no"?>
<!DOCTYPE svg PUBLIC "-//W3C//DTD SVG 1.1//EN" "http://www.w3.org/Graphics/SVG/1.1/DTD/svg11.dtd">
<!-- Generated by graphviz version 2.40.1 (20161225.0304)
 -->
<!-- Title: causalModel Pages: 1 -->
<svg xmlns="http://www.w3.org/2000/svg" xmlns:xlink="http://www.w3.org/1999/xlink" width="" height="" viewBox="0.00 0.00 618.50 894.00" preserveAspectRatio="xMinYMin">
<g id="graph0" class="graph" transform="scale(1 1) rotate(0) translate(4 890)">
<title>causalModel</title>
<polygon fill="#ffffff" stroke="transparent" points="-4,4 -4,-890 614.5,-890 614.5,4 -4,4"/>
<text text-anchor="middle" x="305.25" y="-7.8" font-family="Helvetica, Arial, sans-serif" font-size="14.00" fill="#000000">Causal Model: Europe and Central Asia</text>
<!-- et_anom_m_STD_m -->
<g id="node1" class="node rankA">
<title>et_anom_m_STD_m</title>
<path fill="none" stroke="#000000" d="M12,-809C12,-809 156,-809 156,-809 162,-809 168,-815 168,-821 168,-821 168,-845 168,-845 168,-851 162,-857 156,-857 156,-857 12,-857 12,-857 6,-857 0,-851 0,-845 0,-845 0,-821 0,-821 0,-815 6,-809 12,-809"/>
<text text-anchor="start" x="39" y="-838.2" font-family="Helvetica, Arial, sans-serif" font-size="16.00" fill="#000000">Variation in</text>
<text text-anchor="start" x="9" y="-820.2" font-family="Helvetica, Arial, sans-serif" font-size="16.00" fill="#000000">evapotranspiration</text>
</g>
<!-- yield_gap_barley_s -->
<g id="node3" class="node rankB">
<title>yield_gap_barley_s</title>
<path fill="none" stroke="#000000" d="M245.5,-602.5C245.5,-602.5 364.5,-602.5 364.5,-602.5 370.5,-602.5 376.5,-608.5 376.5,-614.5 376.5,-614.5 376.5,-731.5 376.5,-731.5 376.5,-737.5 370.5,-743.5 364.5,-743.5 364.5,-743.5 245.5,-743.5 245.5,-743.5 239.5,-743.5 233.5,-737.5 233.5,-731.5 233.5,-731.5 233.5,-614.5 233.5,-614.5 233.5,-608.5 239.5,-602.5 245.5,-602.5"/>
<text text-anchor="start" x="253" y="-724.7" font-family="Helvetica, Arial, sans-serif" font-size="16.00" fill="#000000">Gap between</text>
<text text-anchor="start" x="251.5" y="-706.7" font-family="Helvetica, Arial, sans-serif" font-size="16.00" fill="#000000">observed and</text>
<text text-anchor="start" x="243" y="-688.7" font-family="Helvetica, Arial, sans-serif" font-size="16.00" fill="#000000">potential barley</text>
<text text-anchor="start" x="286.5" y="-670.7" font-family="Helvetica, Arial, sans-serif" font-size="16.00" fill="#000000">yield</text>
<polyline fill="none" stroke="#000000" points="233.5,-659.5 376.5,-659.5 "/>
<text text-anchor="start" x="257" y="-642.8" font-family="Helvetica, Arial, sans-serif" font-size="14.00" fill="#000000">effect: -0.224</text>
<text text-anchor="start" x="262" y="-626.8" font-family="Helvetica, Arial, sans-serif" font-size="14.00" fill="#000000">error: 0.062</text>
<text text-anchor="start" x="247" y="-610.8" font-family="Helvetica, Arial, sans-serif" font-size="14.00" fill="#000000">significance: 0.1</text>
</g>
<!-- et_anom_m_STD_m&#45;&gt;yield_gap_barley_s -->
<g id="edge1" class="edge">
<title>et_anom_m_STD_m-&gt;yield_gap_barley_s</title>
<path fill="none" stroke="#666666" stroke-width="2" d="M117.5651,-808.6994C145.4896,-788.4827 186.4271,-758.8446 222.9256,-732.4204"/>
<polygon fill="#666666" stroke="#666666" stroke-width="2" points="225.8307,-735.5023 233.0878,-725.0632 220.9047,-728.6983 225.8307,-735.5023"/>
</g>
<!-- rurpop_s -->
<g id="node4" class="node rankB">
<title>rurpop_s</title>
<path fill="none" stroke="#000000" d="M246.5,-267.5C246.5,-267.5 343.5,-267.5 343.5,-267.5 349.5,-267.5 355.5,-273.5 355.5,-279.5 355.5,-279.5 355.5,-303.5 355.5,-303.5 355.5,-309.5 349.5,-315.5 343.5,-315.5 343.5,-315.5 246.5,-315.5 246.5,-315.5 240.5,-315.5 234.5,-309.5 234.5,-303.5 234.5,-303.5 234.5,-279.5 234.5,-279.5 234.5,-273.5 240.5,-267.5 246.5,-267.5"/>
<text text-anchor="start" x="244" y="-296.7" font-family="Helvetica, Arial, sans-serif" font-size="16.00" fill="#000000">Population in</text>
<text text-anchor="start" x="251.5" y="-278.7" font-family="Helvetica, Arial, sans-serif" font-size="16.00" fill="#000000">rural areas</text>
</g>
<!-- et_anom_m_STD_m&#45;&gt;rurpop_s -->
<g id="edge2" class="edge">
<title>et_anom_m_STD_m-&gt;rurpop_s</title>
<path fill="none" stroke="#666666" stroke-width="2" d="M75.0432,-808.7467C64.5667,-777.5234 49.3295,-721.5082 55,-673"/>
<path fill="none" stroke="#666666" stroke-width="2" d="M55,-673C72.5611,-522.7746 56.6358,-454.3428 168,-352 183.8575,-337.4271 203.8598,-325.7151 223.2697,-316.6224"/>
<polygon fill="#666666" stroke="#666666" stroke-width="2" points="225.0337,-320.4344 234.2765,-311.7045 221.607,-312.7651 225.0337,-320.4344"/>
</g>
<!-- DeliveredkcalFraction_s -->
<g id="node8" class="node rankB">
<title>DeliveredkcalFraction_s</title>
<path fill="none" stroke="#000000" d="M111,-497C111,-497 249,-497 249,-497 255,-497 261,-503 261,-509 261,-509 261,-551 261,-551 261,-557 255,-563 249,-563 249,-563 111,-563 111,-563 105,-563 99,-557 99,-551 99,-551 99,-509 99,-509 99,-503 105,-497 111,-497"/>
<text text-anchor="start" x="142" y="-544.2" font-family="Helvetica, Arial, sans-serif" font-size="16.00" fill="#000000">Portion of</text>
<text text-anchor="start" x="109" y="-526.2" font-family="Helvetica, Arial, sans-serif" font-size="16.00" fill="#000000">calories produced</text>
<text text-anchor="start" x="108" y="-508.2" font-family="Helvetica, Arial, sans-serif" font-size="16.00" fill="#000000">going toward food</text>
</g>
<!-- et_anom_m_STD_m&#45;&gt;DeliveredkcalFraction_s -->
<g id="edge3" class="edge">
<title>et_anom_m_STD_m-&gt;DeliveredkcalFraction_s</title>
<path fill="none" stroke="#666666" stroke-width="2" d="M55,-673C59.8365,-631.626 90.3387,-596.2634 119.9983,-571.0544"/>
<polygon fill="#666666" stroke="#666666" stroke-width="2" points="122.934,-574.0793 129.5649,-563.2316 117.6166,-567.5766 122.934,-574.0793"/>
</g>
<!-- chicken_number_s -->
<g id="node2" class="node rankA">
<title>chicken_number_s</title>
<path fill="none" stroke="#000000" d="M237,-780.5C237,-780.5 373,-780.5 373,-780.5 379,-780.5 385,-786.5 385,-792.5 385,-792.5 385,-873.5 385,-873.5 385,-879.5 379,-885.5 373,-885.5 373,-885.5 237,-885.5 237,-885.5 231,-885.5 225,-879.5 225,-873.5 225,-873.5 225,-792.5 225,-792.5 225,-786.5 231,-780.5 237,-780.5"/>
<text text-anchor="start" x="234" y="-866.7" font-family="Helvetica, Arial, sans-serif" font-size="16.00" fill="#000000">Count of livestock</text>
<text text-anchor="start" x="270.5" y="-848.7" font-family="Helvetica, Arial, sans-serif" font-size="16.00" fill="#000000">chickens</text>
<polyline fill="none" stroke="#000000" points="225,-837.5 385,-837.5 "/>
<text text-anchor="start" x="257" y="-820.8" font-family="Helvetica, Arial, sans-serif" font-size="14.00" fill="#000000">effect: -0.201</text>
<text text-anchor="start" x="262" y="-804.8" font-family="Helvetica, Arial, sans-serif" font-size="14.00" fill="#000000">error: 0.081</text>
<text text-anchor="start" x="247" y="-788.8" font-family="Helvetica, Arial, sans-serif" font-size="14.00" fill="#000000">significance: 0.1</text>
</g>
<!-- chicken_number_s&#45;&gt;yield_gap_barley_s -->
<g id="edge4" class="edge">
<title>chicken_number_s-&gt;yield_gap_barley_s</title>
<path fill="none" stroke="#666666" stroke-width="2" d="M305,-780.1666C305,-772.3385 305,-764.1166 305,-755.8541"/>
<polygon fill="#666666" stroke="#666666" stroke-width="2" points="309.2001,-755.7605 305,-743.7606 300.8001,-755.7606 309.2001,-755.7605"/>
</g>
<!-- Cropland2000_mean_percent_s -->
<g id="node5" class="node rankB">
<title>Cropland2000_mean_percent_s</title>
<path fill="none" stroke="#000000" d="M455.5,-352.5C455.5,-352.5 598.5,-352.5 598.5,-352.5 604.5,-352.5 610.5,-358.5 610.5,-364.5 610.5,-364.5 610.5,-445.5 610.5,-445.5 610.5,-451.5 604.5,-457.5 598.5,-457.5 598.5,-457.5 455.5,-457.5 455.5,-457.5 449.5,-457.5 443.5,-451.5 443.5,-445.5 443.5,-445.5 443.5,-364.5 443.5,-364.5 443.5,-358.5 449.5,-352.5 455.5,-352.5"/>
<text text-anchor="start" x="453" y="-438.7" font-family="Helvetica, Arial, sans-serif" font-size="16.00" fill="#000000">Percentage of land</text>
<text text-anchor="start" x="465.5" y="-420.7" font-family="Helvetica, Arial, sans-serif" font-size="16.00" fill="#000000">that is cropland</text>
<polyline fill="none" stroke="#000000" points="443.5,-409.5 610.5,-409.5 "/>
<text text-anchor="start" x="481.5" y="-392.8" font-family="Helvetica, Arial, sans-serif" font-size="14.00" fill="#000000">effect: 0.174</text>
<text text-anchor="start" x="484" y="-376.8" font-family="Helvetica, Arial, sans-serif" font-size="14.00" fill="#000000">error: 0.072</text>
<text text-anchor="start" x="469" y="-360.8" font-family="Helvetica, Arial, sans-serif" font-size="14.00" fill="#000000">significance: 0.1</text>
</g>
<!-- chicken_number_s&#45;&gt;Cropland2000_mean_percent_s -->
<g id="edge5" class="edge">
<title>chicken_number_s-&gt;Cropland2000_mean_percent_s</title>
<path fill="none" stroke="#666666" stroke-width="2" d="M369.8064,-780.3049C424.1588,-731.4204 497.4908,-653.2276 527,-566 537.3131,-535.5149 538.3495,-499.8846 536.3676,-469.9038"/>
<polygon fill="#666666" stroke="#666666" stroke-width="2" points="540.5474,-469.4836 535.3928,-457.8616 532.1748,-470.1614 540.5474,-469.4836"/>
</g>
<!-- chicken_number_s&#45;&gt;DeliveredkcalFraction_s -->
<g id="edge6" class="edge">
<title>chicken_number_s-&gt;DeliveredkcalFraction_s</title>
<path fill="none" stroke="#666666" stroke-width="2" d="M244.3389,-780.0394C234.5981,-769.0066 225.5743,-756.807 219,-744 191.4125,-690.2585 183.074,-620.1245 180.7002,-575.0662"/>
<polygon fill="#666666" stroke="#666666" stroke-width="2" points="184.8955,-574.863 180.1779,-563.0569 176.5034,-575.2281 184.8955,-574.863"/>
</g>
<!-- yield_gap_barley_s&#45;&gt;rurpop_s -->
<g id="edge7" class="edge">
<title>yield_gap_barley_s-&gt;rurpop_s</title>
<path fill="none" stroke="#666666" stroke-width="2" d="M303.1425,-602.1369C301.0121,-520.863 297.6018,-390.7577 295.9534,-327.8709"/>
<polygon fill="#666666" stroke="#666666" stroke-width="2" points="300.1425,-327.3994 295.6295,-315.5136 291.7454,-327.6195 300.1425,-327.3994"/>
</g>
<!-- locdensity_y -->
<g id="node7" class="node rankB">
<title>locdensity_y</title>
<path fill="none" stroke="#000000" d="M361.5,-494.5C361.5,-494.5 500.5,-494.5 500.5,-494.5 506.5,-494.5 512.5,-500.5 512.5,-506.5 512.5,-506.5 512.5,-553.5 512.5,-553.5 512.5,-559.5 506.5,-565.5 500.5,-565.5 500.5,-565.5 361.5,-565.5 361.5,-565.5 355.5,-565.5 349.5,-559.5 349.5,-553.5 349.5,-553.5 349.5,-506.5 349.5,-506.5 349.5,-500.5 355.5,-494.5 361.5,-494.5"/>
<text text-anchor="start" x="359" y="-546.7" font-family="Helvetica, Arial, sans-serif" font-size="16.00" fill="#000000">Population density</text>
<polyline fill="none" stroke="#000000" points="349.5,-535.5 512.5,-535.5 "/>
<text text-anchor="start" x="390" y="-518.8" font-family="Helvetica, Arial, sans-serif" font-size="14.00" fill="#000000">effect: 0.38</text>
<text text-anchor="start" x="388" y="-502.8" font-family="Helvetica, Arial, sans-serif" font-size="14.00" fill="#000000">error: 0.259</text>
</g>
<!-- yield_gap_barley_s&#45;&gt;locdensity_y -->
<g id="edge8" class="edge">
<title>yield_gap_barley_s-&gt;locdensity_y</title>
<path fill="none" stroke="#666666" stroke-width="2" d="M367.2617,-602.3379C375.4574,-593.0364 383.6697,-583.7161 391.3438,-575.0066"/>
<polygon fill="#666666" stroke="#666666" stroke-width="2" points="394.6515,-577.6057 399.4335,-565.8255 388.349,-572.0524 394.6515,-577.6057"/>
</g>
<!-- loccount_y -->
<g id="node6" class="node rankB">
<title>loccount_y</title>
<path fill="none" stroke="#000000" d="M235,-125.5C235,-125.5 355,-125.5 355,-125.5 361,-125.5 367,-131.5 367,-137.5 367,-137.5 367,-218.5 367,-218.5 367,-224.5 361,-230.5 355,-230.5 355,-230.5 235,-230.5 235,-230.5 229,-230.5 223,-224.5 223,-218.5 223,-218.5 223,-137.5 223,-137.5 223,-131.5 229,-125.5 235,-125.5"/>
<text text-anchor="start" x="232" y="-211.7" font-family="Helvetica, Arial, sans-serif" font-size="16.00" fill="#000000">Total population</text>
<text text-anchor="start" x="272.5" y="-193.7" font-family="Helvetica, Arial, sans-serif" font-size="16.00" fill="#000000">count</text>
<polyline fill="none" stroke="#000000" points="223,-182.5 367,-182.5 "/>
<text text-anchor="start" x="249.5" y="-165.8" font-family="Helvetica, Arial, sans-serif" font-size="14.00" fill="#000000">effect: 2.366</text>
<text text-anchor="start" x="252" y="-149.8" font-family="Helvetica, Arial, sans-serif" font-size="14.00" fill="#000000">error: 0.936</text>
<text text-anchor="start" x="237" y="-133.8" font-family="Helvetica, Arial, sans-serif" font-size="14.00" fill="#000000">significance: 0.1</text>
</g>
<!-- rurpop_s&#45;&gt;loccount_y -->
<g id="edge9" class="edge">
<title>rurpop_s-&gt;loccount_y</title>
<path fill="none" stroke="#666666" stroke-width="2" d="M295,-267.4296C295,-260.0032 295,-251.4443 295,-242.6266"/>
<polygon fill="#666666" stroke="#666666" stroke-width="2" points="299.2001,-242.5242 295,-230.5242 290.8001,-242.5243 299.2001,-242.5242"/>
</g>
<!-- Cropland2000_mean_percent_s&#45;&gt;rurpop_s -->
<g id="edge10" class="edge">
<title>Cropland2000_mean_percent_s-&gt;rurpop_s</title>
<path fill="none" stroke="#666666" stroke-width="2" d="M443.2427,-364.0239C414.0394,-349.737 381.8746,-334.0012 354.9909,-320.849"/>
<polygon fill="#666666" stroke="#666666" stroke-width="2" points="356.8262,-317.0712 344.2012,-315.5704 353.1347,-324.6166 356.8262,-317.0712"/>
</g>
<!-- Cropland2000_mean_percent_s&#45;&gt;loccount_y -->
<g id="edge11" class="edge">
<title>Cropland2000_mean_percent_s-&gt;loccount_y</title>
<path fill="none" stroke="#666666" stroke-width="2" d="M457.4341,-352.3261C437.117,-334.5849 416.0772,-313.6292 400,-291.5"/>
</g>
<!-- acl_sum_evnt_m -->
<g id="node9" class="node rankC">
<title>acl_sum_evnt_m</title>
<path fill="none" stroke="#000000" d="M349,-89C349,-89 241,-89 241,-89 235,-89 229,-83 229,-77 229,-77 229,-51 229,-51 229,-45 235,-39 241,-39 241,-39 349,-39 349,-39 355,-39 361,-45 361,-51 361,-51 361,-77 361,-77 361,-83 355,-89 349,-89"/>
<text text-anchor="middle" x="295" y="-69.2" font-family="Helvetica, Arial, sans-serif" font-size="16.00" fill="#000000">Total number of</text>
<text text-anchor="middle" x="295" y="-51.2" font-family="Helvetica, Arial, sans-serif" font-size="16.00" fill="#000000">conflict events</text>
</g>
<!-- loccount_y&#45;&gt;acl_sum_evnt_m -->
<g id="edge12" class="edge">
<title>loccount_y-&gt;acl_sum_evnt_m</title>
<path fill="none" stroke="#666666" stroke-width="2" d="M295,-125.3381C295,-117.2653 295,-109.0758 295,-101.4223"/>
<polygon fill="#666666" stroke="#666666" stroke-width="2" points="299.2001,-101.1633 295,-89.1633 290.8001,-101.1634 299.2001,-101.1633"/>
</g>
<!-- locdensity_y&#45;&gt;Cropland2000_mean_percent_s -->
<g id="edge13" class="edge">
<title>locdensity_y-&gt;Cropland2000_mean_percent_s</title>
<path fill="none" stroke="#666666" stroke-width="2" d="M458.5097,-494.18C465.007,-485.7201 472.1208,-476.4573 479.2279,-467.2032"/>
<polygon fill="#666666" stroke="#666666" stroke-width="2" points="482.6276,-469.672 486.6058,-457.5966 475.9656,-464.5556 482.6276,-469.672"/>
</g>
<!-- locdensity_y&#45;&gt;loccount_y -->
<g id="edge14" class="edge">
<title>locdensity_y-&gt;loccount_y</title>
<path fill="none" stroke="#666666" stroke-width="2" d="M428.2458,-494.3096C423.1472,-431.8008 411.6882,-307.588 400,-291.5"/>
<path fill="none" stroke="#666666" stroke-width="2" d="M400,-291.5C386.4079,-273.9519 370.6418,-255.8987 355.5242,-239.4973"/>
<polygon fill="#666666" stroke="#666666" stroke-width="2" points="358.4617,-236.4888 347.2102,-230.5691 352.3143,-242.2133 358.4617,-236.4888"/>
</g>
<!-- DeliveredkcalFraction_s&#45;&gt;rurpop_s -->
<g id="edge15" class="edge">
<title>DeliveredkcalFraction_s-&gt;rurpop_s</title>
<path fill="none" stroke="#666666" stroke-width="2" d="M190,-405C198.7489,-371.6479 225.1527,-343.1904 249.292,-323.1124"/>
<polygon fill="#666666" stroke="#666666" stroke-width="2" points="251.9831,-326.3383 258.7387,-315.5679 246.7411,-319.7747 251.9831,-326.3383"/>
</g>
<!-- DeliveredkcalFraction_s&#45;&gt;loccount_y -->
<g id="edge16" class="edge">
<title>DeliveredkcalFraction_s-&gt;loccount_y</title>
<path fill="none" stroke="#666666" stroke-width="2" d="M179.4959,-496.8354C179.8608,-471.3326 182.0179,-435.4292 190,-405"/>
<path fill="none" stroke="#666666" stroke-width="2" d="M190,-405C205.9258,-344.2882 192.2956,-323.3207 220,-267 224.4873,-257.8777 230.1077,-248.9034 236.2424,-240.3714"/>
<polygon fill="#666666" stroke="#666666" stroke-width="2" points="239.7603,-242.6825 243.6434,-230.5762 233.0582,-237.6186 239.7603,-242.6825"/>
</g>
</g>
<style>.node path {
  stroke: #fff;
}
.node text {
  fill: #fff;
}
.node polyline {
  stroke: #fff;
}
.rankA path {
  fill: #1b6002;
}
.rankB path {
  fill: #437387;
}
.rankC path {
  fill: #2e3348;
}
</style></svg>
