<?xml version="1.0" encoding="UTF-8" standalone="no"?>
<!DOCTYPE svg PUBLIC "-//W3C//DTD SVG 1.1//EN" "http://www.w3.org/Graphics/SVG/1.1/DTD/svg11.dtd">
<!-- Generated by graphviz version 2.40.1 (20161225.0304)
 -->
<!-- Title: causalModel Pages: 1 -->
<svg xmlns="http://www.w3.org/2000/svg" xmlns:xlink="http://www.w3.org/1999/xlink" width="" height="" viewBox="0.00 0.00 618.50 830.00" preserveAspectRatio="xMinYMin">
<g id="graph0" class="graph" transform="scale(1 1) rotate(0) translate(4 826)">
<title>causalModel</title>
<polygon fill="#ffffff" stroke="transparent" points="-4,4 -4,-826 614.5,-826 614.5,4 -4,4"/>
<text text-anchor="middle" x="305.25" y="-7.8" font-family="Helvetica, Arial, sans-serif" font-size="14.00" fill="#000000">Causal Model: Europe and Central Asia</text>
<!-- et_anom_m_STD_m -->
<g id="node1" class="node rankA">
<title>et_anom_m_STD_m</title>
<path fill="none" stroke="#000000" d="M12,-744C12,-744 156,-744 156,-744 162,-744 168,-750 168,-756 168,-756 168,-798 168,-798 168,-804 162,-810 156,-810 156,-810 12,-810 12,-810 6,-810 0,-804 0,-798 0,-798 0,-756 0,-756 0,-750 6,-744 12,-744"/>
<text text-anchor="start" x="39" y="-791.2" font-family="Helvetica, Arial, sans-serif" font-size="16.00" fill="#000000">Variation in</text>
<text text-anchor="start" x="9" y="-773.2" font-family="Helvetica, Arial, sans-serif" font-size="16.00" fill="#000000">evapotranspiration</text>
<text text-anchor="start" x="50.5" y="-755.2" font-family="Helvetica, Arial, sans-serif" font-size="16.00" fill="#000000">patterns</text>
</g>
<!-- yield_gap_barley_s -->
<g id="node3" class="node rankB">
<title>yield_gap_barley_s</title>
<path fill="none" stroke="#000000" d="M245.5,-570.5C245.5,-570.5 364.5,-570.5 364.5,-570.5 370.5,-570.5 376.5,-576.5 376.5,-582.5 376.5,-582.5 376.5,-683.5 376.5,-683.5 376.5,-689.5 370.5,-695.5 364.5,-695.5 364.5,-695.5 245.5,-695.5 245.5,-695.5 239.5,-695.5 233.5,-689.5 233.5,-683.5 233.5,-683.5 233.5,-582.5 233.5,-582.5 233.5,-576.5 239.5,-570.5 245.5,-570.5"/>
<text text-anchor="start" x="253" y="-676.7" font-family="Helvetica, Arial, sans-serif" font-size="16.00" fill="#000000">Gap between</text>
<text text-anchor="start" x="251.5" y="-658.7" font-family="Helvetica, Arial, sans-serif" font-size="16.00" fill="#000000">observed and</text>
<text text-anchor="start" x="243" y="-640.7" font-family="Helvetica, Arial, sans-serif" font-size="16.00" fill="#000000">potential barley</text>
<text text-anchor="start" x="286.5" y="-622.7" font-family="Helvetica, Arial, sans-serif" font-size="16.00" fill="#000000">yield</text>
<polyline fill="none" stroke="#000000" points="233.5,-611.5 376.5,-611.5 "/>
<text text-anchor="start" x="257" y="-594.8" font-family="Helvetica, Arial, sans-serif" font-size="14.00" fill="#000000">effect: -0.224</text>
<text text-anchor="start" x="262" y="-578.8" font-family="Helvetica, Arial, sans-serif" font-size="14.00" fill="#000000">error: 0.062</text>
</g>
<!-- et_anom_m_STD_m&#45;&gt;yield_gap_barley_s -->
<g id="edge1" class="edge">
<title>et_anom_m_STD_m-&gt;yield_gap_barley_s</title>
<path fill="none" stroke="#666666" stroke-width="2" d="M134.7019,-743.9635C160.8066,-726.954 193.2831,-705.7929 222.854,-686.525"/>
<polygon fill="#666666" stroke="#666666" stroke-width="2" points="225.4161,-689.8685 233.1773,-679.7985 220.8303,-682.8307 225.4161,-689.8685"/>
</g>
<!-- rurpop_s -->
<g id="node4" class="node rankB">
<title>rurpop_s</title>
<path fill="none" stroke="#000000" d="M246.5,-251.5C246.5,-251.5 343.5,-251.5 343.5,-251.5 349.5,-251.5 355.5,-257.5 355.5,-263.5 355.5,-263.5 355.5,-287.5 355.5,-287.5 355.5,-293.5 349.5,-299.5 343.5,-299.5 343.5,-299.5 246.5,-299.5 246.5,-299.5 240.5,-299.5 234.5,-293.5 234.5,-287.5 234.5,-287.5 234.5,-263.5 234.5,-263.5 234.5,-257.5 240.5,-251.5 246.5,-251.5"/>
<text text-anchor="start" x="244" y="-280.7" font-family="Helvetica, Arial, sans-serif" font-size="16.00" fill="#000000">Population in</text>
<text text-anchor="start" x="251.5" y="-262.7" font-family="Helvetica, Arial, sans-serif" font-size="16.00" fill="#000000">rural areas</text>
</g>
<!-- et_anom_m_STD_m&#45;&gt;rurpop_s -->
<g id="edge2" class="edge">
<title>et_anom_m_STD_m-&gt;rurpop_s</title>
<path fill="none" stroke="#666666" stroke-width="2" d="M71.1856,-743.7858C61.4611,-714.7572 50.4736,-671.3694 55,-633"/>
<path fill="none" stroke="#666666" stroke-width="2" d="M55,-633C71.5461,-492.7413 61.4907,-428.7472 168,-336 184.1646,-321.9241 204.1722,-310.3888 223.488,-301.3065"/>
<polygon fill="#666666" stroke="#666666" stroke-width="2" points="225.2149,-305.1351 234.4315,-296.3776 221.7653,-297.4761 225.2149,-305.1351"/>
</g>
<!-- DeliveredkcalFraction_s -->
<g id="node8" class="node rankB">
<title>DeliveredkcalFraction_s</title>
<path fill="none" stroke="#000000" d="M111,-465C111,-465 249,-465 249,-465 255,-465 261,-471 261,-477 261,-477 261,-519 261,-519 261,-525 255,-531 249,-531 249,-531 111,-531 111,-531 105,-531 99,-525 99,-519 99,-519 99,-477 99,-477 99,-471 105,-465 111,-465"/>
<text text-anchor="start" x="142" y="-512.2" font-family="Helvetica, Arial, sans-serif" font-size="16.00" fill="#000000">Portion of</text>
<text text-anchor="start" x="109" y="-494.2" font-family="Helvetica, Arial, sans-serif" font-size="16.00" fill="#000000">calories produced</text>
<text text-anchor="start" x="108" y="-476.2" font-family="Helvetica, Arial, sans-serif" font-size="16.00" fill="#000000">going toward food</text>
</g>
<!-- et_anom_m_STD_m&#45;&gt;DeliveredkcalFraction_s -->
<g id="edge3" class="edge">
<title>et_anom_m_STD_m-&gt;DeliveredkcalFraction_s</title>
<path fill="none" stroke="#666666" stroke-width="2" d="M55,-633C59.5556,-594.3826 88.0458,-561.9648 116.6766,-538.5831"/>
<polygon fill="#666666" stroke="#666666" stroke-width="2" points="119.4976,-541.7087 126.3572,-531.0042 114.3194,-535.0945 119.4976,-541.7087"/>
</g>
<!-- chicken_number_s -->
<g id="node2" class="node rankA">
<title>chicken_number_s</title>
<path fill="none" stroke="#000000" d="M237,-732.5C237,-732.5 373,-732.5 373,-732.5 379,-732.5 385,-738.5 385,-744.5 385,-744.5 385,-809.5 385,-809.5 385,-815.5 379,-821.5 373,-821.5 373,-821.5 237,-821.5 237,-821.5 231,-821.5 225,-815.5 225,-809.5 225,-809.5 225,-744.5 225,-744.5 225,-738.5 231,-732.5 237,-732.5"/>
<text text-anchor="start" x="234" y="-802.7" font-family="Helvetica, Arial, sans-serif" font-size="16.00" fill="#000000">Count of livestock</text>
<text text-anchor="start" x="270.5" y="-784.7" font-family="Helvetica, Arial, sans-serif" font-size="16.00" fill="#000000">chickens</text>
<polyline fill="none" stroke="#000000" points="225,-773.5 385,-773.5 "/>
<text text-anchor="start" x="257" y="-756.8" font-family="Helvetica, Arial, sans-serif" font-size="14.00" fill="#000000">effect: -0.201</text>
<text text-anchor="start" x="262" y="-740.8" font-family="Helvetica, Arial, sans-serif" font-size="14.00" fill="#000000">error: 0.081</text>
</g>
<!-- chicken_number_s&#45;&gt;yield_gap_barley_s -->
<g id="edge4" class="edge">
<title>chicken_number_s-&gt;yield_gap_barley_s</title>
<path fill="none" stroke="#666666" stroke-width="2" d="M305,-732.2269C305,-724.4609 305,-716.1994 305,-707.8864"/>
<polygon fill="#666666" stroke="#666666" stroke-width="2" points="309.2001,-707.7219 305,-695.722 300.8001,-707.722 309.2001,-707.7219"/>
</g>
<!-- Cropland2000_mean_percent_s -->
<g id="node5" class="node rankB">
<title>Cropland2000_mean_percent_s</title>
<path fill="none" stroke="#000000" d="M455.5,-336.5C455.5,-336.5 598.5,-336.5 598.5,-336.5 604.5,-336.5 610.5,-342.5 610.5,-348.5 610.5,-348.5 610.5,-413.5 610.5,-413.5 610.5,-419.5 604.5,-425.5 598.5,-425.5 598.5,-425.5 455.5,-425.5 455.5,-425.5 449.5,-425.5 443.5,-419.5 443.5,-413.5 443.5,-413.5 443.5,-348.5 443.5,-348.5 443.5,-342.5 449.5,-336.5 455.5,-336.5"/>
<text text-anchor="start" x="453" y="-406.7" font-family="Helvetica, Arial, sans-serif" font-size="16.00" fill="#000000">Percentage of land</text>
<text text-anchor="start" x="465.5" y="-388.7" font-family="Helvetica, Arial, sans-serif" font-size="16.00" fill="#000000">that is cropland</text>
<polyline fill="none" stroke="#000000" points="443.5,-377.5 610.5,-377.5 "/>
<text text-anchor="start" x="482" y="-360.8" font-family="Helvetica, Arial, sans-serif" font-size="14.00" fill="#000000">effect: 0.174</text>
<text text-anchor="start" x="484.5" y="-344.8" font-family="Helvetica, Arial, sans-serif" font-size="14.00" fill="#000000">error: 0.072</text>
</g>
<!-- chicken_number_s&#45;&gt;Cropland2000_mean_percent_s -->
<g id="edge5" class="edge">
<title>chicken_number_s-&gt;Cropland2000_mean_percent_s</title>
<path fill="none" stroke="#666666" stroke-width="2" d="M366.9861,-732.4468C421.4636,-688.9828 496.6483,-617.3598 527,-534 538.0929,-503.5338 538.6075,-467.3369 536.1094,-437.8004"/>
<polygon fill="#666666" stroke="#666666" stroke-width="2" points="540.2605,-437.1033 534.8764,-425.5858 531.903,-437.947 540.2605,-437.1033"/>
</g>
<!-- chicken_number_s&#45;&gt;DeliveredkcalFraction_s -->
<g id="edge6" class="edge">
<title>chicken_number_s-&gt;DeliveredkcalFraction_s</title>
<path fill="none" stroke="#666666" stroke-width="2" d="M247.0938,-732.092C236.3477,-721.3215 226.2426,-709.1043 219,-696 192.6031,-648.2391 183.8902,-585.3002 181.1142,-543.3328"/>
<polygon fill="#666666" stroke="#666666" stroke-width="2" points="185.3042,-543.0347 180.4422,-531.2873 176.9172,-543.5026 185.3042,-543.0347"/>
</g>
<!-- yield_gap_barley_s&#45;&gt;rurpop_s -->
<g id="edge7" class="edge">
<title>yield_gap_barley_s-&gt;rurpop_s</title>
<path fill="none" stroke="#666666" stroke-width="2" d="M303.2467,-570.3192C301.154,-495.5071 297.7246,-372.9059 296.0234,-312.0862"/>
<polygon fill="#666666" stroke="#666666" stroke-width="2" points="300.212,-311.6172 295.678,-299.7394 291.8153,-311.8521 300.212,-311.6172"/>
</g>
<!-- locdensity_y -->
<g id="node7" class="node rankB">
<title>locdensity_y</title>
<path fill="none" stroke="#000000" d="M361.5,-462.5C361.5,-462.5 500.5,-462.5 500.5,-462.5 506.5,-462.5 512.5,-468.5 512.5,-474.5 512.5,-474.5 512.5,-521.5 512.5,-521.5 512.5,-527.5 506.5,-533.5 500.5,-533.5 500.5,-533.5 361.5,-533.5 361.5,-533.5 355.5,-533.5 349.5,-527.5 349.5,-521.5 349.5,-521.5 349.5,-474.5 349.5,-474.5 349.5,-468.5 355.5,-462.5 361.5,-462.5"/>
<text text-anchor="start" x="359" y="-514.7" font-family="Helvetica, Arial, sans-serif" font-size="16.00" fill="#000000">Population density</text>
<polyline fill="none" stroke="#000000" points="349.5,-503.5 512.5,-503.5 "/>
<text text-anchor="start" x="390" y="-486.8" font-family="Helvetica, Arial, sans-serif" font-size="14.00" fill="#000000">effect: 0.38</text>
<text text-anchor="start" x="388" y="-470.8" font-family="Helvetica, Arial, sans-serif" font-size="14.00" fill="#000000">error: 0.259</text>
</g>
<!-- yield_gap_barley_s&#45;&gt;locdensity_y -->
<g id="edge8" class="edge">
<title>yield_gap_barley_s-&gt;locdensity_y</title>
<path fill="none" stroke="#666666" stroke-width="2" d="M363.5736,-570.2426C372.2545,-560.9416 381.048,-551.52 389.2905,-542.6887"/>
<polygon fill="#666666" stroke="#666666" stroke-width="2" points="392.5354,-545.3675 397.6528,-533.7291 386.3945,-539.6361 392.5354,-545.3675"/>
</g>
<!-- loccount_y -->
<g id="node6" class="node rankB">
<title>loccount_y</title>
<path fill="none" stroke="#000000" d="M235,-125.5C235,-125.5 355,-125.5 355,-125.5 361,-125.5 367,-131.5 367,-137.5 367,-137.5 367,-202.5 367,-202.5 367,-208.5 361,-214.5 355,-214.5 355,-214.5 235,-214.5 235,-214.5 229,-214.5 223,-208.5 223,-202.5 223,-202.5 223,-137.5 223,-137.5 223,-131.5 229,-125.5 235,-125.5"/>
<text text-anchor="start" x="232" y="-195.7" font-family="Helvetica, Arial, sans-serif" font-size="16.00" fill="#000000">Total population</text>
<text text-anchor="start" x="272.5" y="-177.7" font-family="Helvetica, Arial, sans-serif" font-size="16.00" fill="#000000">count</text>
<polyline fill="none" stroke="#000000" points="223,-166.5 367,-166.5 "/>
<text text-anchor="start" x="250" y="-149.8" font-family="Helvetica, Arial, sans-serif" font-size="14.00" fill="#000000">effect: 2.366</text>
<text text-anchor="start" x="252.5" y="-133.8" font-family="Helvetica, Arial, sans-serif" font-size="14.00" fill="#000000">error: 0.936</text>
</g>
<!-- rurpop_s&#45;&gt;loccount_y -->
<g id="edge9" class="edge">
<title>rurpop_s-&gt;loccount_y</title>
<path fill="none" stroke="#666666" stroke-width="2" d="M295,-251.2962C295,-243.9362 295,-235.5152 295,-226.9455"/>
<polygon fill="#666666" stroke="#666666" stroke-width="2" points="299.2001,-226.8263 295,-214.8263 290.8001,-226.8264 299.2001,-226.8263"/>
</g>
<!-- Cropland2000_mean_percent_s&#45;&gt;rurpop_s -->
<g id="edge10" class="edge">
<title>Cropland2000_mean_percent_s-&gt;rurpop_s</title>
<path fill="none" stroke="#666666" stroke-width="2" d="M443.2427,-342.9121C415.5427,-330.3157 385.1782,-316.5077 359.1833,-304.6868"/>
<polygon fill="#666666" stroke="#666666" stroke-width="2" points="360.6151,-300.7241 347.9528,-299.5799 357.1378,-308.3706 360.6151,-300.7241"/>
</g>
<!-- Cropland2000_mean_percent_s&#45;&gt;loccount_y -->
<g id="edge11" class="edge">
<title>Cropland2000_mean_percent_s-&gt;loccount_y</title>
<path fill="none" stroke="#666666" stroke-width="2" d="M462.6353,-336.396C440.864,-319.1438 417.629,-298.1017 400,-275.5"/>
</g>
<!-- acl_sum_evnt_m -->
<g id="node9" class="node rankC">
<title>acl_sum_evnt_m</title>
<path fill="none" stroke="#000000" d="M349,-89C349,-89 241,-89 241,-89 235,-89 229,-83 229,-77 229,-77 229,-51 229,-51 229,-45 235,-39 241,-39 241,-39 349,-39 349,-39 355,-39 361,-45 361,-51 361,-51 361,-77 361,-77 361,-83 355,-89 349,-89"/>
<text text-anchor="middle" x="295" y="-69.2" font-family="Helvetica, Arial, sans-serif" font-size="16.00" fill="#000000">Total number of</text>
<text text-anchor="middle" x="295" y="-51.2" font-family="Helvetica, Arial, sans-serif" font-size="16.00" fill="#000000">conflict events</text>
</g>
<!-- loccount_y&#45;&gt;acl_sum_evnt_m -->
<g id="edge12" class="edge">
<title>loccount_y-&gt;acl_sum_evnt_m</title>
<path fill="none" stroke="#666666" stroke-width="2" d="M295,-125.3537C295,-117.3555 295,-109.097 295,-101.3316"/>
<polygon fill="#666666" stroke="#666666" stroke-width="2" points="299.2001,-101.256 295,-89.256 290.8001,-101.2561 299.2001,-101.256"/>
</g>
<!-- locdensity_y&#45;&gt;Cropland2000_mean_percent_s -->
<g id="edge13" class="edge">
<title>locdensity_y-&gt;Cropland2000_mean_percent_s</title>
<path fill="none" stroke="#666666" stroke-width="2" d="M460.3248,-462.2604C467.3638,-453.6816 475.0376,-444.3292 482.5921,-435.1221"/>
<polygon fill="#666666" stroke="#666666" stroke-width="2" points="486.0249,-437.5597 490.3898,-425.6186 479.5311,-432.2314 486.0249,-437.5597"/>
</g>
<!-- locdensity_y&#45;&gt;loccount_y -->
<g id="edge14" class="edge">
<title>locdensity_y-&gt;loccount_y</title>
<path fill="none" stroke="#666666" stroke-width="2" d="M430.2746,-462.2648C428.4623,-406.9165 422.128,-303.8697 400,-275.5"/>
<path fill="none" stroke="#666666" stroke-width="2" d="M400,-275.5C385.0741,-257.8541 367.7615,-239.661 351.5516,-223.4569"/>
<polygon fill="#666666" stroke="#666666" stroke-width="2" points="354.1644,-220.1334 342.6818,-214.6753 348.2545,-226.1028 354.1644,-220.1334"/>
</g>
<!-- DeliveredkcalFraction_s&#45;&gt;rurpop_s -->
<g id="edge15" class="edge">
<title>DeliveredkcalFraction_s-&gt;rurpop_s</title>
<path fill="none" stroke="#666666" stroke-width="2" d="M190,-381C198.52,-350.6298 222.7864,-325.2362 245.8462,-306.9779"/>
<polygon fill="#666666" stroke="#666666" stroke-width="2" points="248.5687,-310.1848 255.6057,-299.5961 243.5014,-303.4854 248.5687,-310.1848"/>
</g>
<!-- DeliveredkcalFraction_s&#45;&gt;loccount_y -->
<g id="edge16" class="edge">
<title>DeliveredkcalFraction_s-&gt;loccount_y</title>
<path fill="none" stroke="#666666" stroke-width="2" d="M179.5453,-464.8834C180.0067,-441.1271 182.2632,-408.5784 190,-381"/>
<path fill="none" stroke="#666666" stroke-width="2" d="M190,-381C206.0165,-323.9078 192.2572,-303.406 220,-251 224.9513,-241.6471 231.256,-232.5604 238.1,-224.0602"/>
<polygon fill="#666666" stroke="#666666" stroke-width="2" points="241.4546,-226.5982 246.0128,-214.7296 235.0481,-221.1652 241.4546,-226.5982"/>
</g>
</g>
<style>.node path {
  stroke: #fff;
}
.node text {
  fill: #fff;
}
.node polyline {
  stroke: #fff;
}
.rankA path {
  fill: #2e3348;
}
.rankB path {
  fill: #437387;
}
.rankC path {
  fill: #1b6002;
}
</style></svg>
