<?xml version="1.0" encoding="UTF-8" standalone="no"?>
<!DOCTYPE svg PUBLIC "-//W3C//DTD SVG 1.1//EN" "http://www.w3.org/Graphics/SVG/1.1/DTD/svg11.dtd">
<!-- Generated by graphviz version 2.40.1 (20161225.0304)
 -->
<!-- Title: causalModel Pages: 1 -->
<svg xmlns="http://www.w3.org/2000/svg" xmlns:xlink="http://www.w3.org/1999/xlink" width="" height="" viewBox="0.00 0.00 639.50 905.00" preserveAspectRatio="xMinYMin">
<g id="graph0" class="graph" transform="scale(1 1) rotate(0) translate(4 901)">
<title>causalModel</title>
<text text-anchor="start" x="156.75" y="-48.3" font-family="Helvetica, Arial, sans-serif" font-weight="bold" font-size="14.00" fill="#000000">Causal Model: Europe and Central Asia</text>
<text text-anchor="start" x="156.75" y="-28.3" font-family="Helvetica, Arial, sans-serif" font-size="14.00" fill="#000000">***significance of 0.1%</text>
<text text-anchor="start" x="156.75" y="-9.3" font-family="Helvetica, Arial, sans-serif" font-size="14.00" fill="#000000">**significance of 1%</text>
<!-- et_anom_m_STD_m -->
<g id="node1" class="node rankA">
<title>et_anom_m_STD_m</title>
<path fill="none" stroke="#000000" d="M12,-815.5C12,-815.5 156,-815.5 156,-815.5 162,-815.5 168,-821.5 168,-827.5 168,-827.5 168,-876.5 168,-876.5 168,-882.5 162,-888.5 156,-888.5 156,-888.5 12,-888.5 12,-888.5 6,-888.5 0,-882.5 0,-876.5 0,-876.5 0,-827.5 0,-827.5 0,-821.5 6,-815.5 12,-815.5"/>
<text text-anchor="start" x="39" y="-869.7" font-family="Helvetica, Arial, sans-serif" font-size="16.00" fill="#000000">Variation in</text>
<text text-anchor="start" x="9" y="-851.7" font-family="Helvetica, Arial, sans-serif" font-size="16.00" fill="#000000">evapotranspiration</text>
<polyline fill="none" stroke="#000000" points="0,-840.5 168,-840.5 "/>
<text text-anchor="start" x="17" y="-823.8" font-family="Helvetica, Arial, sans-serif" font-size="14.00" fill="#000000">effect: Inestimable</text>
</g>
<!-- yield_gap_barley_s -->
<g id="node3" class="node rankB">
<title>yield_gap_barley_s</title>
<path fill="none" stroke="#000000" d="M245.5,-645.5C245.5,-645.5 364.5,-645.5 364.5,-645.5 370.5,-645.5 376.5,-651.5 376.5,-657.5 376.5,-657.5 376.5,-758.5 376.5,-758.5 376.5,-764.5 370.5,-770.5 364.5,-770.5 364.5,-770.5 245.5,-770.5 245.5,-770.5 239.5,-770.5 233.5,-764.5 233.5,-758.5 233.5,-758.5 233.5,-657.5 233.5,-657.5 233.5,-651.5 239.5,-645.5 245.5,-645.5"/>
<text text-anchor="start" x="253" y="-751.7" font-family="Helvetica, Arial, sans-serif" font-size="16.00" fill="#000000">Gap between</text>
<text text-anchor="start" x="251.5" y="-733.7" font-family="Helvetica, Arial, sans-serif" font-size="16.00" fill="#000000">observed and</text>
<text text-anchor="start" x="243" y="-715.7" font-family="Helvetica, Arial, sans-serif" font-size="16.00" fill="#000000">potential barley</text>
<text text-anchor="start" x="286.5" y="-697.7" font-family="Helvetica, Arial, sans-serif" font-size="16.00" fill="#000000">yield</text>
<polyline fill="none" stroke="#000000" points="233.5,-686.5 376.5,-686.5 "/>
<text text-anchor="start" x="246" y="-669.8" font-family="Helvetica, Arial, sans-serif" font-size="14.00" fill="#000000">effect: -0.224***</text>
<text text-anchor="start" x="262" y="-653.8" font-family="Helvetica, Arial, sans-serif" font-size="14.00" fill="#000000">error: 0.062</text>
</g>
<!-- et_anom_m_STD_m&#45;&gt;yield_gap_barley_s -->
<g id="edge1" class="edge">
<title>et_anom_m_STD_m-&gt;yield_gap_barley_s</title>
<path fill="none" stroke="#666666" stroke-width="2" d="M140.0533,-815.4766C165.1129,-799.1481 195.1532,-779.5744 222.6905,-761.6315"/>
<polygon fill="#666666" stroke="#666666" stroke-width="2" points="225.3451,-764.9148 233.1063,-754.8448 220.7593,-757.877 225.3451,-764.9148"/>
</g>
<!-- rurpop_s -->
<g id="node4" class="node rankB">
<title>rurpop_s</title>
<path fill="none" stroke="#000000" d="M239,-281.5C239,-281.5 365,-281.5 365,-281.5 371,-281.5 377,-287.5 377,-293.5 377,-293.5 377,-342.5 377,-342.5 377,-348.5 371,-354.5 365,-354.5 365,-354.5 239,-354.5 239,-354.5 233,-354.5 227,-348.5 227,-342.5 227,-342.5 227,-293.5 227,-293.5 227,-287.5 233,-281.5 239,-281.5"/>
<text text-anchor="start" x="251" y="-335.7" font-family="Helvetica, Arial, sans-serif" font-size="16.00" fill="#000000">Population in</text>
<text text-anchor="start" x="258.5" y="-317.7" font-family="Helvetica, Arial, sans-serif" font-size="16.00" fill="#000000">rural areas</text>
<polyline fill="none" stroke="#000000" points="227,-306.5 377,-306.5 "/>
<text text-anchor="start" x="235" y="-289.8" font-family="Helvetica, Arial, sans-serif" font-size="14.00" fill="#000000">effect: Inestimable</text>
</g>
<!-- et_anom_m_STD_m&#45;&gt;rurpop_s -->
<g id="edge2" class="edge">
<title>et_anom_m_STD_m-&gt;rurpop_s</title>
<path fill="none" stroke="#666666" stroke-width="2" d="M70.2996,-815.301C61.0388,-786.3755 51.1436,-744.9044 55,-708"/>
<path fill="none" stroke="#666666" stroke-width="2" d="M55,-708C70.4398,-560.2477 52.5956,-492.5757 161,-391 176.9536,-376.0513 196.5558,-363.3584 216.0145,-352.9583"/>
<polygon fill="#666666" stroke="#666666" stroke-width="2" points="218.0369,-356.6412 226.786,-347.4166 214.194,-349.1717 218.0369,-356.6412"/>
</g>
<!-- DeliveredkcalFraction_s -->
<g id="node8" class="node rankB">
<title>DeliveredkcalFraction_s</title>
<path fill="none" stroke="#000000" d="M111,-517.5C111,-517.5 249,-517.5 249,-517.5 255,-517.5 261,-523.5 261,-529.5 261,-529.5 261,-596.5 261,-596.5 261,-602.5 255,-608.5 249,-608.5 249,-608.5 111,-608.5 111,-608.5 105,-608.5 99,-602.5 99,-596.5 99,-596.5 99,-529.5 99,-529.5 99,-523.5 105,-517.5 111,-517.5"/>
<text text-anchor="start" x="142" y="-589.7" font-family="Helvetica, Arial, sans-serif" font-size="16.00" fill="#000000">Portion of</text>
<text text-anchor="start" x="109" y="-571.7" font-family="Helvetica, Arial, sans-serif" font-size="16.00" fill="#000000">calories produced</text>
<text text-anchor="start" x="108" y="-553.7" font-family="Helvetica, Arial, sans-serif" font-size="16.00" fill="#000000">going toward food</text>
<polyline fill="none" stroke="#000000" points="99,-542.5 261,-542.5 "/>
<text text-anchor="start" x="113" y="-525.8" font-family="Helvetica, Arial, sans-serif" font-size="14.00" fill="#000000">effect: Inestimable</text>
</g>
<!-- et_anom_m_STD_m&#45;&gt;DeliveredkcalFraction_s -->
<g id="edge3" class="edge">
<title>et_anom_m_STD_m-&gt;DeliveredkcalFraction_s</title>
<path fill="none" stroke="#666666" stroke-width="2" d="M55,-708C58.708,-672.516 81.2842,-641.2955 106.2533,-617.0018"/>
<polygon fill="#666666" stroke="#666666" stroke-width="2" points="109.2433,-619.9564 115.1579,-608.7022 103.516,-613.8117 109.2433,-619.9564"/>
</g>
<!-- chicken_number_s -->
<g id="node2" class="node rankA">
<title>chicken_number_s</title>
<path fill="none" stroke="#000000" d="M237,-807.5C237,-807.5 373,-807.5 373,-807.5 379,-807.5 385,-813.5 385,-819.5 385,-819.5 385,-884.5 385,-884.5 385,-890.5 379,-896.5 373,-896.5 373,-896.5 237,-896.5 237,-896.5 231,-896.5 225,-890.5 225,-884.5 225,-884.5 225,-819.5 225,-819.5 225,-813.5 231,-807.5 237,-807.5"/>
<text text-anchor="start" x="234" y="-877.7" font-family="Helvetica, Arial, sans-serif" font-size="16.00" fill="#000000">Count of livestock</text>
<text text-anchor="start" x="270.5" y="-859.7" font-family="Helvetica, Arial, sans-serif" font-size="16.00" fill="#000000">chickens</text>
<polyline fill="none" stroke="#000000" points="225,-848.5 385,-848.5 "/>
<text text-anchor="start" x="246" y="-831.8" font-family="Helvetica, Arial, sans-serif" font-size="14.00" fill="#000000">effect: -0.201***</text>
<text text-anchor="start" x="262" y="-815.8" font-family="Helvetica, Arial, sans-serif" font-size="14.00" fill="#000000">error: 0.081</text>
</g>
<!-- chicken_number_s&#45;&gt;yield_gap_barley_s -->
<g id="edge4" class="edge">
<title>chicken_number_s-&gt;yield_gap_barley_s</title>
<path fill="none" stroke="#666666" stroke-width="2" d="M305,-807.2269C305,-799.4609 305,-791.1994 305,-782.8864"/>
<polygon fill="#666666" stroke="#666666" stroke-width="2" points="309.2001,-782.7219 305,-770.722 300.8001,-782.722 309.2001,-782.7219"/>
</g>
<!-- Cropland2000_mean_percent_s -->
<g id="node5" class="node rankB">
<title>Cropland2000_mean_percent_s</title>
<path fill="none" stroke="#000000" d="M476.5,-391.5C476.5,-391.5 619.5,-391.5 619.5,-391.5 625.5,-391.5 631.5,-397.5 631.5,-403.5 631.5,-403.5 631.5,-468.5 631.5,-468.5 631.5,-474.5 625.5,-480.5 619.5,-480.5 619.5,-480.5 476.5,-480.5 476.5,-480.5 470.5,-480.5 464.5,-474.5 464.5,-468.5 464.5,-468.5 464.5,-403.5 464.5,-403.5 464.5,-397.5 470.5,-391.5 476.5,-391.5"/>
<text text-anchor="start" x="474" y="-461.7" font-family="Helvetica, Arial, sans-serif" font-size="16.00" fill="#000000">Percentage of land</text>
<text text-anchor="start" x="486.5" y="-443.7" font-family="Helvetica, Arial, sans-serif" font-size="16.00" fill="#000000">that is cropland</text>
<polyline fill="none" stroke="#000000" points="464.5,-432.5 631.5,-432.5 "/>
<text text-anchor="start" x="495" y="-415.8" font-family="Helvetica, Arial, sans-serif" font-size="14.00" fill="#000000">effect: 0.174**</text>
<text text-anchor="start" x="505" y="-399.8" font-family="Helvetica, Arial, sans-serif" font-size="14.00" fill="#000000">error: 0.072</text>
</g>
<!-- chicken_number_s&#45;&gt;Cropland2000_mean_percent_s -->
<g id="edge5" class="edge">
<title>chicken_number_s-&gt;Cropland2000_mean_percent_s</title>
<path fill="none" stroke="#666666" stroke-width="2" d="M363.6548,-807.3736C416.5901,-763.3489 491.4443,-690.8998 527,-609 542.8277,-572.5421 547.9412,-527.9457 549.1687,-493.1638"/>
<polygon fill="#666666" stroke="#666666" stroke-width="2" points="553.3754,-492.9218 549.4577,-480.8267 544.9777,-492.725 553.3754,-492.9218"/>
</g>
<!-- chicken_number_s&#45;&gt;DeliveredkcalFraction_s -->
<g id="edge6" class="edge">
<title>chicken_number_s-&gt;DeliveredkcalFraction_s</title>
<path fill="none" stroke="#666666" stroke-width="2" d="M247.0019,-807.1424C236.262,-796.3686 226.1827,-784.1372 219,-771 193.5997,-724.5425 184.438,-664.4748 181.2815,-620.8429"/>
<polygon fill="#666666" stroke="#666666" stroke-width="2" points="185.4641,-620.4306 180.5271,-608.7145 177.0803,-620.9521 185.4641,-620.4306"/>
</g>
<!-- yield_gap_barley_s&#45;&gt;rurpop_s -->
<g id="edge7" class="edge">
<title>yield_gap_barley_s-&gt;rurpop_s</title>
<path fill="none" stroke="#666666" stroke-width="2" d="M304.518,-645.3398C303.9211,-567.7462 302.9171,-437.2202 302.3747,-366.7115"/>
<polygon fill="#666666" stroke="#666666" stroke-width="2" points="306.5745,-366.6521 302.2822,-354.6848 298.1747,-366.7168 306.5745,-366.6521"/>
</g>
<!-- locdensity_y -->
<g id="node7" class="node rankB">
<title>locdensity_y</title>
<path fill="none" stroke="#000000" d="M361.5,-527.5C361.5,-527.5 500.5,-527.5 500.5,-527.5 506.5,-527.5 512.5,-533.5 512.5,-539.5 512.5,-539.5 512.5,-586.5 512.5,-586.5 512.5,-592.5 506.5,-598.5 500.5,-598.5 500.5,-598.5 361.5,-598.5 361.5,-598.5 355.5,-598.5 349.5,-592.5 349.5,-586.5 349.5,-586.5 349.5,-539.5 349.5,-539.5 349.5,-533.5 355.5,-527.5 361.5,-527.5"/>
<text text-anchor="start" x="359" y="-579.7" font-family="Helvetica, Arial, sans-serif" font-size="16.00" fill="#000000">Population density</text>
<polyline fill="none" stroke="#000000" points="349.5,-568.5 512.5,-568.5 "/>
<text text-anchor="start" x="390" y="-551.8" font-family="Helvetica, Arial, sans-serif" font-size="14.00" fill="#000000">effect: 0.38</text>
<text text-anchor="start" x="388" y="-535.8" font-family="Helvetica, Arial, sans-serif" font-size="14.00" fill="#000000">error: 0.259</text>
</g>
<!-- yield_gap_barley_s&#45;&gt;locdensity_y -->
<g id="edge8" class="edge">
<title>yield_gap_barley_s-&gt;locdensity_y</title>
<path fill="none" stroke="#666666" stroke-width="2" d="M359.5326,-645.2442C370.4485,-632.6823 381.7098,-619.7228 391.9734,-607.9115"/>
<polygon fill="#666666" stroke="#666666" stroke-width="2" points="395.2643,-610.5277 399.9651,-598.7148 388.9237,-605.0179 395.2643,-610.5277"/>
</g>
<!-- loccount_y -->
<g id="node6" class="node rankB">
<title>loccount_y</title>
<path fill="none" stroke="#000000" d="M242,-155.5C242,-155.5 362,-155.5 362,-155.5 368,-155.5 374,-161.5 374,-167.5 374,-167.5 374,-232.5 374,-232.5 374,-238.5 368,-244.5 362,-244.5 362,-244.5 242,-244.5 242,-244.5 236,-244.5 230,-238.5 230,-232.5 230,-232.5 230,-167.5 230,-167.5 230,-161.5 236,-155.5 242,-155.5"/>
<text text-anchor="start" x="239" y="-225.7" font-family="Helvetica, Arial, sans-serif" font-size="16.00" fill="#000000">Total population</text>
<text text-anchor="start" x="279.5" y="-207.7" font-family="Helvetica, Arial, sans-serif" font-size="16.00" fill="#000000">count</text>
<polyline fill="none" stroke="#000000" points="230,-196.5 374,-196.5 "/>
<text text-anchor="start" x="249" y="-179.8" font-family="Helvetica, Arial, sans-serif" font-size="14.00" fill="#000000">effect: 2.366**</text>
<text text-anchor="start" x="259" y="-163.8" font-family="Helvetica, Arial, sans-serif" font-size="14.00" fill="#000000">error: 0.936</text>
</g>
<!-- rurpop_s&#45;&gt;loccount_y -->
<g id="edge9" class="edge">
<title>rurpop_s-&gt;loccount_y</title>
<path fill="none" stroke="#666666" stroke-width="2" d="M302,-281.3109C302,-273.4926 302,-265.0612 302,-256.6919"/>
<polygon fill="#666666" stroke="#666666" stroke-width="2" points="306.2001,-256.5529 302,-244.5529 297.8001,-256.553 306.2001,-256.5529"/>
</g>
<!-- Cropland2000_mean_percent_s&#45;&gt;rurpop_s -->
<g id="edge10" class="edge">
<title>Cropland2000_mean_percent_s-&gt;rurpop_s</title>
<path fill="none" stroke="#666666" stroke-width="2" d="M464.3724,-395.8859C439.7417,-384.0712 412.7562,-371.127 387.9806,-359.2427"/>
<polygon fill="#666666" stroke="#666666" stroke-width="2" points="389.7777,-355.4466 377.1415,-354.0435 386.1447,-363.0203 389.7777,-355.4466"/>
</g>
<!-- Cropland2000_mean_percent_s&#45;&gt;loccount_y -->
<g id="edge11" class="edge">
<title>Cropland2000_mean_percent_s-&gt;loccount_y</title>
<path fill="none" stroke="#666666" stroke-width="2" d="M491.4875,-391.3509C467.7663,-370.7338 441.0852,-344.8836 421,-318"/>
</g>
<!-- acl_sum_evnt_m -->
<g id="node9" class="node rankC">
<title>acl_sum_evnt_m</title>
<path fill="none" stroke="#000000" d="M356,-119C356,-119 248,-119 248,-119 242,-119 236,-113 236,-107 236,-107 236,-81 236,-81 236,-75 242,-69 248,-69 248,-69 356,-69 356,-69 362,-69 368,-75 368,-81 368,-81 368,-107 368,-107 368,-113 362,-119 356,-119"/>
<text text-anchor="middle" x="302" y="-99.2" font-family="Helvetica, Arial, sans-serif" font-size="16.00" fill="#000000">Total number of</text>
<text text-anchor="middle" x="302" y="-81.2" font-family="Helvetica, Arial, sans-serif" font-size="16.00" fill="#000000">conflict events</text>
</g>
<!-- loccount_y&#45;&gt;acl_sum_evnt_m -->
<g id="edge12" class="edge">
<title>loccount_y-&gt;acl_sum_evnt_m</title>
<path fill="none" stroke="#666666" stroke-width="2" d="M302,-155.3537C302,-147.3555 302,-139.097 302,-131.3316"/>
<polygon fill="#666666" stroke="#666666" stroke-width="2" points="306.2001,-131.256 302,-119.256 297.8001,-131.2561 306.2001,-131.256"/>
</g>
<!-- locdensity_y&#45;&gt;Cropland2000_mean_percent_s -->
<g id="edge13" class="edge">
<title>locdensity_y-&gt;Cropland2000_mean_percent_s</title>
<path fill="none" stroke="#666666" stroke-width="2" d="M463.9024,-527.2854C474.5625,-515.7142 486.6351,-502.6097 498.2386,-490.0146"/>
<polygon fill="#666666" stroke="#666666" stroke-width="2" points="501.5361,-492.634 506.5778,-480.9626 495.3581,-486.9425 501.5361,-492.634"/>
</g>
<!-- locdensity_y&#45;&gt;loccount_y -->
<g id="edge14" class="edge">
<title>locdensity_y-&gt;loccount_y</title>
<path fill="none" stroke="#666666" stroke-width="2" d="M434.3277,-527.1098C439.1167,-467.1604 444.9504,-350.0571 421,-318"/>
<path fill="none" stroke="#666666" stroke-width="2" d="M421,-318C408.046,-301.6068 406.2629,-296.268 392,-281 383.2106,-271.5912 373.475,-262.0479 363.7492,-252.973"/>
<polygon fill="#666666" stroke="#666666" stroke-width="2" points="366.5238,-249.8186 354.8476,-244.7879 360.8382,-256.0019 366.5238,-249.8186"/>
</g>
<!-- DeliveredkcalFraction_s&#45;&gt;rurpop_s -->
<g id="edge15" class="edge">
<title>DeliveredkcalFraction_s-&gt;rurpop_s</title>
<path fill="none" stroke="#666666" stroke-width="2" d="M183,-436C190.3596,-406.605 211.4273,-381.597 233.8311,-362.2718"/>
<polygon fill="#666666" stroke="#666666" stroke-width="2" points="236.541,-365.4811 243.1351,-354.611 231.2016,-358.9964 236.541,-365.4811"/>
</g>
<!-- DeliveredkcalFraction_s&#45;&gt;loccount_y -->
<g id="edge16" class="edge">
<title>DeliveredkcalFraction_s-&gt;loccount_y</title>
<path fill="none" stroke="#666666" stroke-width="2" d="M176.2627,-517.3872C175.454,-492.9078 176.3848,-462.4221 183,-436"/>
<path fill="none" stroke="#666666" stroke-width="2" d="M183,-436C200.0416,-367.9336 178.6355,-342.1763 213,-281 218.5437,-271.1309 225.7274,-261.8111 233.6084,-253.2502"/>
<polygon fill="#666666" stroke="#666666" stroke-width="2" points="236.6616,-256.1351 242.0343,-244.6122 230.6485,-250.2696 236.6616,-256.1351"/>
</g>
</g>
<style>.node path {
  stroke: #fff;
}
.node text {
  fill: #fff;
}
.node polyline {
  stroke: #fff;
}
.rankA path {
  fill: #1b6002;
}
.rankB path {
  fill: #437387;
}
.rankC path {
  fill: #2e3348;
}
</style></svg>
