<?xml version="1.0" encoding="UTF-8" standalone="no"?>
<!DOCTYPE svg PUBLIC "-//W3C//DTD SVG 1.1//EN" "http://www.w3.org/Graphics/SVG/1.1/DTD/svg11.dtd">
<!-- Generated by graphviz version 2.40.1 (20161225.0304)
 -->
<!-- Title: causalModel Pages: 1 -->
<svg xmlns="http://www.w3.org/2000/svg" xmlns:xlink="http://www.w3.org/1999/xlink" width="" height="" viewBox="0.00 0.00 531.00 1008.00" preserveAspectRatio="xMinYMin">
<g id="graph0" class="graph" transform="scale(1 1) rotate(0) translate(4 1004)">
<title>causalModel</title>
<polygon fill="#ffffff" stroke="transparent" points="-4,4 -4,-1004 527,-1004 527,4 -4,4"/>
<text text-anchor="middle" x="261.5" y="-7.8" font-family="Helvetica, Arial, sans-serif" font-size="14.00" fill="#000000">Causal Model: Latin America and Caribbean</text>
<!-- et_anom_m_STD_m -->
<g id="node1" class="node rankB">
<title>et_anom_m_STD_m</title>
<path fill="none" stroke="#000000" d="M171.5,-892.5C171.5,-892.5 315.5,-892.5 315.5,-892.5 321.5,-892.5 327.5,-898.5 327.5,-904.5 327.5,-904.5 327.5,-987.5 327.5,-987.5 327.5,-993.5 321.5,-999.5 315.5,-999.5 315.5,-999.5 171.5,-999.5 171.5,-999.5 165.5,-999.5 159.5,-993.5 159.5,-987.5 159.5,-987.5 159.5,-904.5 159.5,-904.5 159.5,-898.5 165.5,-892.5 171.5,-892.5"/>
<text text-anchor="start" x="198.5" y="-980.7" font-family="Helvetica, Arial, sans-serif" font-size="16.00" fill="#000000">Variation in</text>
<text text-anchor="start" x="168.5" y="-962.7" font-family="Helvetica, Arial, sans-serif" font-size="16.00" fill="#000000">evapotranspiration</text>
<text text-anchor="start" x="210" y="-944.7" font-family="Helvetica, Arial, sans-serif" font-size="16.00" fill="#000000">patterns</text>
<polyline fill="none" stroke="#000000" points="159.5,-933.5 327.5,-933.5 "/>
<text text-anchor="start" x="195.5" y="-916.8" font-family="Helvetica, Arial, sans-serif" font-size="14.00" fill="#000000">effect: -0.032</text>
<text text-anchor="start" x="200.5" y="-900.8" font-family="Helvetica, Arial, sans-serif" font-size="14.00" fill="#000000">error: 0.044</text>
</g>
<!-- spi_3_m -->
<g id="node3" class="node rankB">
<title>spi_3_m</title>
<path fill="none" stroke="#000000" d="M176,-789.5C176,-789.5 311,-789.5 311,-789.5 317,-789.5 323,-795.5 323,-801.5 323,-801.5 323,-843.5 323,-843.5 323,-849.5 317,-855.5 311,-855.5 311,-855.5 176,-855.5 176,-855.5 170,-855.5 164,-849.5 164,-843.5 164,-843.5 164,-801.5 164,-801.5 164,-795.5 170,-789.5 176,-789.5"/>
<text text-anchor="start" x="198.5" y="-836.7" font-family="Helvetica, Arial, sans-serif" font-size="16.00" fill="#000000">Variation of</text>
<text text-anchor="start" x="173.5" y="-818.7" font-family="Helvetica, Arial, sans-serif" font-size="16.00" fill="#000000">precipitation over</text>
<text text-anchor="start" x="183" y="-800.7" font-family="Helvetica, Arial, sans-serif" font-size="16.00" fill="#000000">3-month period</text>
</g>
<!-- et_anom_m_STD_m&#45;&gt;spi_3_m -->
<g id="edge1" class="edge">
<title>et_anom_m_STD_m-&gt;spi_3_m</title>
<path fill="none" stroke="#000000" stroke-width="2" d="M243.5,-880.1307C243.5,-875.9995 243.5,-871.8931 243.5,-867.8857"/>
<polygon fill="#000000" stroke="#000000" stroke-width="2" points="239.3001,-880.1903 243.5,-892.1904 247.7001,-880.1904 239.3001,-880.1903"/>
<polygon fill="#000000" stroke="#000000" stroke-width="2" points="247.7001,-867.5146 243.5,-855.5146 239.3001,-867.5146 247.7001,-867.5146"/>
</g>
<!-- rurratio_s -->
<g id="node6" class="node rankB">
<title>rurratio_s</title>
<path fill="none" stroke="#000000" d="M12,-457.5C12,-457.5 127,-457.5 127,-457.5 133,-457.5 139,-463.5 139,-469.5 139,-469.5 139,-529.5 139,-529.5 139,-535.5 133,-541.5 127,-541.5 127,-541.5 12,-541.5 12,-541.5 6,-541.5 0,-535.5 0,-529.5 0,-529.5 0,-469.5 0,-469.5 0,-463.5 6,-457.5 12,-457.5"/>
<text text-anchor="start" x="15" y="-522.7" font-family="Helvetica, Arial, sans-serif" font-size="16.00" fill="#000000">Percentage of</text>
<text text-anchor="start" x="9.5" y="-504.7" font-family="Helvetica, Arial, sans-serif" font-size="16.00" fill="#000000">population that</text>
<text text-anchor="start" x="24.5" y="-486.7" font-family="Helvetica, Arial, sans-serif" font-size="16.00" fill="#000000">live in rural</text>
<text text-anchor="start" x="47.5" y="-468.7" font-family="Helvetica, Arial, sans-serif" font-size="16.00" fill="#000000">areas</text>
</g>
<!-- et_anom_m_STD_m&#45;&gt;rurratio_s -->
<g id="edge2" class="edge">
<title>et_anom_m_STD_m-&gt;rurratio_s</title>
<path fill="none" stroke="#000000" stroke-width="2" d="M159.4014,-896.7622C104.3696,-857.4066 45.2522,-797.5271 60.5,-728.5"/>
<path fill="none" stroke="#000000" stroke-width="2" d="M60.5,-728.5C64.1327,-681.752 73.9089,-667.9307 60.5,-623"/>
<path fill="none" stroke="#000000" stroke-width="2" d="M60.5,-623C53.9169,-600.9415 54.4157,-575.7288 57.2236,-553.86"/>
<polygon fill="#000000" stroke="#000000" stroke-width="2" points="61.412,-554.2511 59.0488,-541.7588 53.106,-552.9982 61.412,-554.2511"/>
</g>
<!-- locdensity_y -->
<g id="node7" class="node rankB">
<title>locdensity_y</title>
<path fill="none" stroke="#000000" d="M372,-384.5C372,-384.5 511,-384.5 511,-384.5 517,-384.5 523,-390.5 523,-396.5 523,-396.5 523,-408.5 523,-408.5 523,-414.5 517,-420.5 511,-420.5 511,-420.5 372,-420.5 372,-420.5 366,-420.5 360,-414.5 360,-408.5 360,-408.5 360,-396.5 360,-396.5 360,-390.5 366,-384.5 372,-384.5"/>
<text text-anchor="start" x="369.5" y="-398.7" font-family="Helvetica, Arial, sans-serif" font-size="16.00" fill="#000000">Population density</text>
</g>
<!-- et_anom_m_STD_m&#45;&gt;locdensity_y -->
<g id="edge3" class="edge">
<title>et_anom_m_STD_m-&gt;locdensity_y</title>
<path fill="none" stroke="#000000" stroke-width="2" d="M327.6514,-915.3845C402.6035,-882.0587 500.5,-820.8539 500.5,-728.5 500.5,-728.5 500.5,-728.5 500.5,-623 500.5,-552.4878 471.9965,-473.4705 454.6129,-431.8363"/>
<polygon fill="#000000" stroke="#000000" stroke-width="2" points="458.4071,-430.0269 449.8281,-420.6438 450.6833,-433.3288 458.4071,-430.0269"/>
</g>
<!-- ndvi_act_min_m -->
<g id="node8" class="node rankB">
<title>ndvi_act_min_m</title>
<path fill="none" stroke="#000000" d="M117,-578.5C117,-578.5 200,-578.5 200,-578.5 206,-578.5 212,-584.5 212,-590.5 212,-590.5 212,-655.5 212,-655.5 212,-661.5 206,-667.5 200,-667.5 200,-667.5 117,-667.5 117,-667.5 111,-667.5 105,-661.5 105,-655.5 105,-655.5 105,-590.5 105,-590.5 105,-584.5 111,-578.5 117,-578.5"/>
<text text-anchor="start" x="118.5" y="-648.7" font-family="Helvetica, Arial, sans-serif" font-size="16.00" fill="#000000">Density of</text>
<text text-anchor="start" x="117.5" y="-630.7" font-family="Helvetica, Arial, sans-serif" font-size="16.00" fill="#000000">greenness</text>
<polyline fill="none" stroke="#000000" points="105,-619.5 212,-619.5 "/>
<text text-anchor="start" x="113.5" y="-602.8" font-family="Helvetica, Arial, sans-serif" font-size="14.00" fill="#000000">effect: 0.044</text>
<text text-anchor="start" x="125" y="-586.8" font-family="Helvetica, Arial, sans-serif" font-size="14.00" fill="#000000">error: 0.1</text>
</g>
<!-- et_anom_m_STD_m&#45;&gt;ndvi_act_min_m -->
<g id="edge4" class="edge">
<title>et_anom_m_STD_m-&gt;ndvi_act_min_m</title>
<path fill="none" stroke="#000000" stroke-width="2" d="M60.5,-728.5C65.4819,-705.947 79.6323,-685.9315 95.6844,-669.5594"/>
<polygon fill="#000000" stroke="#000000" stroke-width="2" points="99.0097,-672.1889 104.7518,-660.8457 93.1892,-666.1322 99.0097,-672.1889"/>
</g>
<!-- chicken_number_s -->
<g id="node2" class="node rankB">
<title>chicken_number_s</title>
<path fill="none" stroke="#000000" d="M175.5,-704.5C175.5,-704.5 311.5,-704.5 311.5,-704.5 317.5,-704.5 323.5,-710.5 323.5,-716.5 323.5,-716.5 323.5,-740.5 323.5,-740.5 323.5,-746.5 317.5,-752.5 311.5,-752.5 311.5,-752.5 175.5,-752.5 175.5,-752.5 169.5,-752.5 163.5,-746.5 163.5,-740.5 163.5,-740.5 163.5,-716.5 163.5,-716.5 163.5,-710.5 169.5,-704.5 175.5,-704.5"/>
<text text-anchor="start" x="172.5" y="-733.7" font-family="Helvetica, Arial, sans-serif" font-size="16.00" fill="#000000">Count of livestock</text>
<text text-anchor="start" x="209" y="-715.7" font-family="Helvetica, Arial, sans-serif" font-size="16.00" fill="#000000">chickens</text>
</g>
<!-- yield_gap_soybean_s -->
<g id="node5" class="node rankB">
<title>yield_gap_soybean_s</title>
<path fill="none" stroke="#000000" d="M123.5,-222.5C123.5,-222.5 259.5,-222.5 259.5,-222.5 265.5,-222.5 271.5,-228.5 271.5,-234.5 271.5,-234.5 271.5,-335.5 271.5,-335.5 271.5,-341.5 265.5,-347.5 259.5,-347.5 259.5,-347.5 123.5,-347.5 123.5,-347.5 117.5,-347.5 111.5,-341.5 111.5,-335.5 111.5,-335.5 111.5,-234.5 111.5,-234.5 111.5,-228.5 117.5,-222.5 123.5,-222.5"/>
<text text-anchor="start" x="139" y="-328.7" font-family="Helvetica, Arial, sans-serif" font-size="16.00" fill="#000000">Gap between</text>
<text text-anchor="start" x="137.5" y="-310.7" font-family="Helvetica, Arial, sans-serif" font-size="16.00" fill="#000000">observed and</text>
<text text-anchor="start" x="120.5" y="-292.7" font-family="Helvetica, Arial, sans-serif" font-size="16.00" fill="#000000">potential soybean</text>
<text text-anchor="start" x="172.5" y="-274.7" font-family="Helvetica, Arial, sans-serif" font-size="16.00" fill="#000000">yield</text>
<polyline fill="none" stroke="#000000" points="111.5,-263.5 271.5,-263.5 "/>
<text text-anchor="start" x="146.5" y="-246.8" font-family="Helvetica, Arial, sans-serif" font-size="14.00" fill="#000000">effect: 0.022</text>
<text text-anchor="start" x="149" y="-230.8" font-family="Helvetica, Arial, sans-serif" font-size="14.00" fill="#000000">error: 0.031</text>
</g>
<!-- chicken_number_s&#45;&gt;yield_gap_soybean_s -->
<g id="edge6" class="edge">
<title>chicken_number_s-&gt;yield_gap_soybean_s</title>
<path fill="none" stroke="#000000" stroke-width="2" d="M242.4836,-704.1436C239.8844,-647.621 231.8629,-503.2658 213.5,-384 212.2759,-376.0496 210.788,-367.7838 209.1695,-359.5683"/>
<polygon fill="#000000" stroke="#000000" stroke-width="2" points="213.2428,-358.5235 206.7202,-347.6104 205.0136,-360.2091 213.2428,-358.5235"/>
</g>
<!-- chicken_number_s&#45;&gt;rurratio_s -->
<g id="edge7" class="edge">
<title>chicken_number_s-&gt;rurratio_s</title>
<path fill="none" stroke="#000000" stroke-width="2" d="M163.0608,-709.8377C120.3905,-694.7662 74.0286,-668.3317 60.5,-623"/>
</g>
<!-- chicken_number_s&#45;&gt;ndvi_act_min_m -->
<g id="edge8" class="edge">
<title>chicken_number_s-&gt;ndvi_act_min_m</title>
<path fill="none" stroke="#000000" stroke-width="2" d="M223.9993,-704.2962C217.456,-696.1748 209.8718,-686.7615 202.2345,-677.2822"/>
<polygon fill="#000000" stroke="#000000" stroke-width="2" points="205.4153,-674.5358 194.616,-667.8263 198.8742,-679.8059 205.4153,-674.5358"/>
</g>
<!-- spi_3_m&#45;&gt;chicken_number_s -->
<g id="edge10" class="edge">
<title>spi_3_m-&gt;chicken_number_s</title>
<path fill="none" stroke="#000000" stroke-width="2" d="M243.5,-777.191C243.5,-773.1093 243.5,-769.0104 243.5,-765.0179"/>
<polygon fill="#000000" stroke="#000000" stroke-width="2" points="239.3001,-777.3591 243.5,-789.3591 247.7001,-777.3592 239.3001,-777.3591"/>
<polygon fill="#000000" stroke="#000000" stroke-width="2" points="247.7001,-764.778 243.5,-752.778 239.3001,-764.778 247.7001,-764.778"/>
</g>
<!-- rurpop_s -->
<g id="node4" class="node rankB">
<title>rurpop_s</title>
<path fill="none" stroke="#000000" d="M65,-137.5C65,-137.5 162,-137.5 162,-137.5 168,-137.5 174,-143.5 174,-149.5 174,-149.5 174,-173.5 174,-173.5 174,-179.5 168,-185.5 162,-185.5 162,-185.5 65,-185.5 65,-185.5 59,-185.5 53,-179.5 53,-173.5 53,-173.5 53,-149.5 53,-149.5 53,-143.5 59,-137.5 65,-137.5"/>
<text text-anchor="start" x="62.5" y="-166.7" font-family="Helvetica, Arial, sans-serif" font-size="16.00" fill="#000000">Population in</text>
<text text-anchor="start" x="70" y="-148.7" font-family="Helvetica, Arial, sans-serif" font-size="16.00" fill="#000000">rural areas</text>
</g>
<!-- spi_3_m&#45;&gt;rurpop_s -->
<g id="edge11" class="edge">
<title>spi_3_m-&gt;rurpop_s</title>
<path fill="none" stroke="#000000" stroke-width="2" d="M298.6137,-789.4774C312.6472,-779.1319 326.7747,-766.7702 337.5,-753 412.3312,-656.9242 476.0904,-616.2638 441.5,-499.5"/>
<path fill="none" stroke="#000000" stroke-width="2" d="M441.5,-499.5C428.4217,-445.959 376.1225,-466.8251 345.5,-421 294.1745,-344.1936 349.3214,-288.7859 285.5,-222 259.4813,-194.7728 220.4977,-179.7857 186.2192,-171.5425"/>
<polygon fill="#000000" stroke="#000000" stroke-width="2" points="186.945,-167.4014 174.3197,-168.899 185.1233,-175.6015 186.945,-167.4014"/>
</g>
<!-- spi_3_m&#45;&gt;rurratio_s -->
<g id="edge12" class="edge">
<title>spi_3_m-&gt;rurratio_s</title>
<path fill="none" stroke="#000000" stroke-width="2" d="M180.3524,-789.4829C157.3156,-774.1224 133.503,-753.6324 119.5,-728.5"/>
<path fill="none" stroke="#000000" stroke-width="2" d="M119.5,-728.5C93.352,-681.5697 75.8633,-674.4795 60.5,-623"/>
</g>
<!-- spi_3_m&#45;&gt;locdensity_y -->
<g id="edge13" class="edge">
<title>spi_3_m-&gt;locdensity_y</title>
<path fill="none" stroke="#000000" stroke-width="2" d="M441.5,-499.5C435.0956,-477.8811 435.3903,-452.3427 437.1286,-432.8982"/>
<polygon fill="#000000" stroke="#000000" stroke-width="2" points="441.32,-433.2067 438.4606,-420.8186 432.9706,-432.286 441.32,-433.2067"/>
</g>
<!-- spi_3_m&#45;&gt;ndvi_act_min_m -->
<g id="edge14" class="edge">
<title>spi_3_m-&gt;ndvi_act_min_m</title>
<path fill="none" stroke="#000000" stroke-width="2" d="M119.5,-728.5C110.8897,-713.0462 113.2575,-695.3181 119.9118,-678.8605"/>
<polygon fill="#000000" stroke="#000000" stroke-width="2" points="123.8456,-680.3631 125.1212,-667.7134 116.2356,-676.8066 123.8456,-680.3631"/>
</g>
<!-- acl_sum_evnt_m -->
<g id="node9" class="node rankC">
<title>acl_sum_evnt_m</title>
<path fill="none" stroke="#000000" d="M431.5,-92C431.5,-92 317.5,-92 317.5,-92 311.5,-92 305.5,-86 305.5,-80 305.5,-80 305.5,-60 305.5,-60 305.5,-54 311.5,-48 317.5,-48 317.5,-48 431.5,-48 431.5,-48 437.5,-48 443.5,-54 443.5,-60 443.5,-60 443.5,-80 443.5,-80 443.5,-86 437.5,-92 431.5,-92"/>
<text text-anchor="middle" x="374.5" y="-75.2" font-family="Helvetica, Arial, sans-serif" font-size="16.00" fill="#000000">Total number of</text>
<text text-anchor="middle" x="374.5" y="-57.2" font-family="Helvetica, Arial, sans-serif" font-size="16.00" fill="#000000">conflict events</text>
</g>
<!-- rurpop_s&#45;&gt;acl_sum_evnt_m -->
<g id="edge15" class="edge">
<title>rurpop_s-&gt;acl_sum_evnt_m</title>
<path fill="none" stroke="#000000" stroke-width="2" d="M174.0347,-140.2781C211.5892,-127.1124 260.1189,-110.0991 300.0227,-96.1098"/>
<polygon fill="#000000" stroke="#000000" stroke-width="2" points="301.634,-99.9957 311.5687,-92.0621 298.8549,-92.0687 301.634,-99.9957"/>
</g>
<!-- acl_sum_fatl_m -->
<g id="node10" class="node rankC">
<title>acl_sum_fatl_m</title>
<path fill="none" stroke="#000000" d="M215.5,-101C215.5,-101 109.5,-101 109.5,-101 103.5,-101 97.5,-95 97.5,-89 97.5,-89 97.5,-51 97.5,-51 97.5,-45 103.5,-39 109.5,-39 109.5,-39 215.5,-39 215.5,-39 221.5,-39 227.5,-45 227.5,-51 227.5,-51 227.5,-89 227.5,-89 227.5,-95 221.5,-101 215.5,-101"/>
<text text-anchor="middle" x="162.5" y="-84.2" font-family="Helvetica, Arial, sans-serif" font-size="16.00" fill="#000000">Reported</text>
<text text-anchor="middle" x="162.5" y="-66.2" font-family="Helvetica, Arial, sans-serif" font-size="16.00" fill="#000000">fatalities from</text>
<text text-anchor="middle" x="162.5" y="-48.2" font-family="Helvetica, Arial, sans-serif" font-size="16.00" fill="#000000">conflict events</text>
</g>
<!-- rurpop_s&#45;&gt;acl_sum_fatl_m -->
<g id="edge16" class="edge">
<title>rurpop_s-&gt;acl_sum_fatl_m</title>
<path fill="none" stroke="#000000" stroke-width="2" d="M126.3742,-137.4595C130.561,-129.6412 135.3375,-120.7218 140.0153,-111.9867"/>
<polygon fill="#000000" stroke="#000000" stroke-width="2" points="143.8735,-113.6788 145.836,-101.1174 136.4684,-109.7132 143.8735,-113.6788"/>
</g>
<!-- yield_gap_soybean_s&#45;&gt;rurpop_s -->
<g id="edge17" class="edge">
<title>yield_gap_soybean_s-&gt;rurpop_s</title>
<path fill="none" stroke="#000000" stroke-width="2" d="M151.8145,-222.1646C146.1099,-213.1324 140.4249,-204.1311 135.2479,-195.9342"/>
<polygon fill="#000000" stroke="#000000" stroke-width="2" points="138.7349,-193.5898 128.7758,-185.6868 131.6327,-198.0754 138.7349,-193.5898"/>
</g>
<!-- rurratio_s&#45;&gt;rurpop_s -->
<g id="edge18" class="edge">
<title>rurratio_s-&gt;rurpop_s</title>
<path fill="none" stroke="#000000" stroke-width="2" d="M8.5,-285C16.0805,-247.7913 44.8393,-215.4972 70.3456,-193.2737"/>
<polygon fill="#000000" stroke="#000000" stroke-width="2" points="73.0566,-196.4816 79.5503,-185.5512 67.6577,-190.0464 73.0566,-196.4816"/>
</g>
<!-- rurratio_s&#45;&gt;locdensity_y -->
<g id="edge19" class="edge">
<title>rurratio_s-&gt;locdensity_y</title>
<path fill="none" stroke="#000000" stroke-width="2" d="M139.034,-481.3688C201.9212,-464.9708 294.5304,-440.8227 360.6887,-423.5718"/>
<polygon fill="#000000" stroke="#000000" stroke-width="2" points="361.7552,-427.6342 372.3071,-420.5422 359.6357,-419.506 361.7552,-427.6342"/>
</g>
<!-- rurratio_s&#45;&gt;acl_sum_fatl_m -->
<g id="edge21" class="edge">
<title>rurratio_s-&gt;acl_sum_fatl_m</title>
<path fill="none" stroke="#000000" stroke-width="2" d="M44.9823,-457.2382C23.0535,-414.3133 -3.8661,-345.699 8.5,-285"/>
<path fill="none" stroke="#000000" stroke-width="2" d="M8.5,-285C17.9774,-218.557 -1.4573,-190.925 38.5,-137 50.7996,-120.4009 68.4738,-107.4631 86.6397,-97.577"/>
<polygon fill="#000000" stroke="#000000" stroke-width="2" points="88.5788,-101.3028 97.3554,-92.1043 84.7581,-93.822 88.5788,-101.3028"/>
</g>
<!-- locdensity_y&#45;&gt;rurpop_s -->
<g id="edge22" class="edge">
<title>locdensity_y-&gt;rurpop_s</title>
<path fill="none" stroke="#000000" stroke-width="2" d="M433.2436,-384.362C421.8679,-360.3622 399.8769,-317.3231 374.5,-285"/>
<path fill="none" stroke="#000000" stroke-width="2" d="M374.5,-285C354.4479,-259.4592 363.3153,-241.6975 337.5,-222 313.7062,-203.8449 242.0628,-186.3821 186.1358,-174.9248"/>
<polygon fill="#000000" stroke="#000000" stroke-width="2" points="186.6968,-170.7535 174.1038,-172.5019 185.0385,-178.9882 186.6968,-170.7535"/>
</g>
<!-- locdensity_y&#45;&gt;yield_gap_soybean_s -->
<g id="edge23" class="edge">
<title>locdensity_y-&gt;yield_gap_soybean_s</title>
<path fill="none" stroke="#000000" stroke-width="2" d="M402.9854,-384.3981C370.9868,-369.3588 324.1574,-347.349 282.694,-327.8612"/>
<polygon fill="#000000" stroke="#000000" stroke-width="2" points="284.3681,-324.0073 271.7213,-322.704 280.795,-331.6095 284.3681,-324.0073"/>
</g>
<!-- locdensity_y&#45;&gt;acl_sum_evnt_m -->
<g id="edge24" class="edge">
<title>locdensity_y-&gt;acl_sum_evnt_m</title>
<path fill="none" stroke="#000000" stroke-width="2" d="M374.5,-161.5C366.3726,-143.7478 366.0492,-121.9508 367.9097,-104.0846"/>
<polygon fill="#000000" stroke="#000000" stroke-width="2" points="372.0756,-104.6186 369.5235,-92.1636 363.7515,-103.4917 372.0756,-104.6186"/>
</g>
<!-- locdensity_y&#45;&gt;acl_sum_fatl_m -->
<g id="edge25" class="edge">
<title>locdensity_y-&gt;acl_sum_fatl_m</title>
<path fill="none" stroke="#000000" stroke-width="2" d="M374.5,-285C340.6048,-241.827 397.3488,-211.4072 374.5,-161.5"/>
<path fill="none" stroke="#000000" stroke-width="2" d="M374.5,-161.5C362.3093,-134.8726 294.978,-108.8347 239.4181,-91.3868"/>
<polygon fill="#000000" stroke="#000000" stroke-width="2" points="240.4696,-87.3161 227.7649,-87.7969 237.9965,-95.3438 240.4696,-87.3161"/>
</g>
<!-- ndvi_act_min_m&#45;&gt;rurpop_s -->
<g id="edge26" class="edge">
<title>ndvi_act_min_m-&gt;rurpop_s</title>
<path fill="none" stroke="#000000" stroke-width="2" d="M175.3586,-578.1724C189.8787,-533.2756 206.3412,-462.4282 191.5,-402.5"/>
<path fill="none" stroke="#000000" stroke-width="2" d="M191.5,-402.5C179.5553,-355.3115 120.8964,-390.1218 96.5,-348 69.4756,-301.3408 84.6,-236.8655 98.6046,-197.2395"/>
<polygon fill="#000000" stroke="#000000" stroke-width="2" points="102.6175,-198.4981 102.867,-185.7868 94.7451,-195.5682 102.6175,-198.4981"/>
</g>
<!-- ndvi_act_min_m&#45;&gt;yield_gap_soybean_s -->
<g id="edge27" class="edge">
<title>ndvi_act_min_m-&gt;yield_gap_soybean_s</title>
<path fill="none" stroke="#000000" stroke-width="2" d="M191.5,-402.5C188.1434,-388.9463 186.5818,-374.2402 186.0953,-359.9671"/>
<polygon fill="#000000" stroke="#000000" stroke-width="2" points="190.2896,-359.5169 185.9263,-347.5753 181.8904,-359.6314 190.2896,-359.5169"/>
</g>
<!-- ndvi_act_min_m&#45;&gt;rurratio_s -->
<g id="edge28" class="edge">
<title>ndvi_act_min_m-&gt;rurratio_s</title>
<path fill="none" stroke="#000000" stroke-width="2" d="M119.3487,-568.6721C115.2539,-562.99 111.0978,-557.2228 107.0219,-551.5668"/>
<polygon fill="#000000" stroke="#000000" stroke-width="2" points="115.9457,-571.1338 126.369,-578.4137 122.7605,-566.2227 115.9457,-571.1338"/>
<polygon fill="#000000" stroke="#000000" stroke-width="2" points="110.2254,-548.8283 99.8021,-541.5485 103.4106,-553.7394 110.2254,-548.8283"/>
</g>
<!-- acl_sum_fatl_m&#45;&gt;acl_sum_evnt_m -->
<g id="edge29" class="edge">
<title>acl_sum_fatl_m-&gt;acl_sum_evnt_m</title>
<path fill="none" stroke="#000000" stroke-width="2" d="M227.5078,-70C249.3898,-70 271.2717,-70 293.1537,-70"/>
<polygon fill="#000000" stroke="#000000" stroke-width="2" points="293.3104,-74.2001 305.3103,-70 293.3103,-65.8001 293.3104,-74.2001"/>
</g>
</g>
<style>.node path {
  stroke: #fff;
}
.node text {
  fill: #fff;
}
.node polyline {
  stroke: #fff;
}
.rankA path {
  fill: #2e3348;
}
.rankB path {
  fill: #437387;
}
.rankC path {
  fill: #1b6002;
}
.edge path {
  stroke: #666;
};
</style></svg>
