<?xml version="1.0" encoding="UTF-8" standalone="no"?>
<!DOCTYPE svg PUBLIC "-//W3C//DTD SVG 1.1//EN" "http://www.w3.org/Graphics/SVG/1.1/DTD/svg11.dtd">
<!-- Generated by graphviz version 2.40.1 (20161225.0304)
 -->
<!-- Title: causalModel Pages: 1 -->
<svg xmlns="http://www.w3.org/2000/svg" xmlns:xlink="http://www.w3.org/1999/xlink" width="" height="" viewBox="0.00 0.00 539.50 1089.00" preserveAspectRatio="xMinYMin">
<g id="graph0" class="graph" transform="scale(1 1) rotate(0) translate(4 1085)">
<title>causalModel</title>
<text text-anchor="start" x="86.75" y="-10.3" font-family="Helvetica, Arial, sans-serif" font-weight="bold" font-size="14.00" fill="#000000">Causal Model: Latin America and Caribbean</text>
<!-- et_anom_m_STD_m -->
<g id="node1" class="node rankB">
<title>et_anom_m_STD_m</title>
<path fill="none" stroke="#000000" d="M180,-991.5C180,-991.5 324,-991.5 324,-991.5 330,-991.5 336,-997.5 336,-1003.5 336,-1003.5 336,-1068.5 336,-1068.5 336,-1074.5 330,-1080.5 324,-1080.5 324,-1080.5 180,-1080.5 180,-1080.5 174,-1080.5 168,-1074.5 168,-1068.5 168,-1068.5 168,-1003.5 168,-1003.5 168,-997.5 174,-991.5 180,-991.5"/>
<text text-anchor="start" x="207" y="-1061.7" font-family="Helvetica, Arial, sans-serif" font-size="16.00" fill="#000000">Variation in</text>
<text text-anchor="start" x="177" y="-1043.7" font-family="Helvetica, Arial, sans-serif" font-size="16.00" fill="#000000">evapotranspiration</text>
<polyline fill="none" stroke="#000000" points="168,-1032.5 336,-1032.5 "/>
<text text-anchor="start" x="204" y="-1015.8" font-family="Helvetica, Arial, sans-serif" font-size="14.00" fill="#000000">effect: -0.032</text>
<text text-anchor="start" x="209" y="-999.8" font-family="Helvetica, Arial, sans-serif" font-size="14.00" fill="#000000">error: 0.044</text>
</g>
<!-- spi_3_m -->
<g id="node3" class="node rankB">
<title>spi_3_m</title>
<path fill="none" stroke="#000000" d="M189,-881.5C189,-881.5 315,-881.5 315,-881.5 321,-881.5 327,-887.5 327,-893.5 327,-893.5 327,-942.5 327,-942.5 327,-948.5 321,-954.5 315,-954.5 315,-954.5 189,-954.5 189,-954.5 183,-954.5 177,-948.5 177,-942.5 177,-942.5 177,-893.5 177,-893.5 177,-887.5 183,-881.5 189,-881.5"/>
<text text-anchor="start" x="206.5" y="-935.7" font-family="Helvetica, Arial, sans-serif" font-size="16.00" fill="#000000">Variation of</text>
<text text-anchor="start" x="202" y="-917.7" font-family="Helvetica, Arial, sans-serif" font-size="16.00" fill="#000000">precipitation</text>
<polyline fill="none" stroke="#000000" points="177,-906.5 327,-906.5 "/>
<text text-anchor="start" x="185" y="-889.8" font-family="Helvetica, Arial, sans-serif" font-size="14.00" fill="#000000">effect: Inestimable</text>
</g>
<!-- et_anom_m_STD_m&#45;&gt;spi_3_m -->
<g id="edge1" class="edge">
<title>et_anom_m_STD_m-&gt;spi_3_m</title>
<path fill="none" stroke="#666666" stroke-width="2" d="M252,-979.239C252,-975.0508 252,-970.8476 252,-966.7139"/>
<polygon fill="#666666" stroke="#666666" stroke-width="2" points="247.8001,-979.3892 252,-991.3893 256.2001,-979.3893 247.8001,-979.3892"/>
<polygon fill="#666666" stroke="#666666" stroke-width="2" points="256.2001,-966.6059 252,-954.6059 247.8001,-966.606 256.2001,-966.6059"/>
</g>
<!-- rurratio_s -->
<g id="node6" class="node rankB">
<title>rurratio_s</title>
<path fill="none" stroke="#000000" d="M12,-499.5C12,-499.5 138,-499.5 138,-499.5 144,-499.5 150,-505.5 150,-511.5 150,-511.5 150,-596.5 150,-596.5 150,-602.5 144,-608.5 138,-608.5 138,-608.5 12,-608.5 12,-608.5 6,-608.5 0,-602.5 0,-596.5 0,-596.5 0,-511.5 0,-511.5 0,-505.5 6,-499.5 12,-499.5"/>
<text text-anchor="start" x="20.5" y="-589.7" font-family="Helvetica, Arial, sans-serif" font-size="16.00" fill="#000000">Percentage of</text>
<text text-anchor="start" x="15" y="-571.7" font-family="Helvetica, Arial, sans-serif" font-size="16.00" fill="#000000">population that</text>
<text text-anchor="start" x="30" y="-553.7" font-family="Helvetica, Arial, sans-serif" font-size="16.00" fill="#000000">live in rural</text>
<text text-anchor="start" x="53" y="-535.7" font-family="Helvetica, Arial, sans-serif" font-size="16.00" fill="#000000">areas</text>
<polyline fill="none" stroke="#000000" points="0,-524.5 150,-524.5 "/>
<text text-anchor="start" x="8" y="-507.8" font-family="Helvetica, Arial, sans-serif" font-size="14.00" fill="#000000">effect: Inestimable</text>
</g>
<!-- et_anom_m_STD_m&#45;&gt;rurratio_s -->
<g id="edge2" class="edge">
<title>et_anom_m_STD_m-&gt;rurratio_s</title>
<path fill="none" stroke="#666666" stroke-width="2" d="M178.7462,-991.3513C121.48,-950.071 53.8904,-883.7853 69,-808"/>
<path fill="none" stroke="#666666" stroke-width="2" d="M69,-808C70.3862,-755.5739 83.3813,-740.4341 69,-690"/>
<path fill="none" stroke="#666666" stroke-width="2" d="M69,-690C62.7115,-667.9466 62.052,-643.0729 63.6578,-620.685"/>
<polygon fill="#666666" stroke="#666666" stroke-width="2" points="67.8585,-620.8676 64.7617,-608.5367 59.4929,-620.1074 67.8585,-620.8676"/>
</g>
<!-- locdensity_y -->
<g id="node7" class="node rankB">
<title>locdensity_y</title>
<path fill="none" stroke="#000000" d="M380.5,-407.5C380.5,-407.5 519.5,-407.5 519.5,-407.5 525.5,-407.5 531.5,-413.5 531.5,-419.5 531.5,-419.5 531.5,-450.5 531.5,-450.5 531.5,-456.5 525.5,-462.5 519.5,-462.5 519.5,-462.5 380.5,-462.5 380.5,-462.5 374.5,-462.5 368.5,-456.5 368.5,-450.5 368.5,-450.5 368.5,-419.5 368.5,-419.5 368.5,-413.5 374.5,-407.5 380.5,-407.5"/>
<text text-anchor="start" x="378" y="-443.7" font-family="Helvetica, Arial, sans-serif" font-size="16.00" fill="#000000">Population density</text>
<polyline fill="none" stroke="#000000" points="368.5,-432.5 531.5,-432.5 "/>
<text text-anchor="start" x="383" y="-415.8" font-family="Helvetica, Arial, sans-serif" font-size="14.00" fill="#000000">effect: Inestimable</text>
</g>
<!-- et_anom_m_STD_m&#45;&gt;locdensity_y -->
<g id="edge3" class="edge">
<title>et_anom_m_STD_m-&gt;locdensity_y</title>
<path fill="none" stroke="#666666" stroke-width="2" d="M336.1514,-1002.7757C411.1035,-967.0025 509,-902.2402 509,-808 509,-808 509,-808 509,-690 509,-611.9189 482.4184,-523.7704 464.9394,-474.2477"/>
<polygon fill="#666666" stroke="#666666" stroke-width="2" points="468.839,-472.6801 460.8215,-462.8129 460.9359,-475.5262 468.839,-472.6801"/>
</g>
<!-- ndvi_act_min_m -->
<g id="node8" class="node rankB">
<title>ndvi_act_min_m</title>
<path fill="none" stroke="#000000" d="M125.5,-645.5C125.5,-645.5 208.5,-645.5 208.5,-645.5 214.5,-645.5 220.5,-651.5 220.5,-657.5 220.5,-657.5 220.5,-722.5 220.5,-722.5 220.5,-728.5 214.5,-734.5 208.5,-734.5 208.5,-734.5 125.5,-734.5 125.5,-734.5 119.5,-734.5 113.5,-728.5 113.5,-722.5 113.5,-722.5 113.5,-657.5 113.5,-657.5 113.5,-651.5 119.5,-645.5 125.5,-645.5"/>
<text text-anchor="start" x="127" y="-715.7" font-family="Helvetica, Arial, sans-serif" font-size="16.00" fill="#000000">Density of</text>
<text text-anchor="start" x="126" y="-697.7" font-family="Helvetica, Arial, sans-serif" font-size="16.00" fill="#000000">greenness</text>
<polyline fill="none" stroke="#000000" points="113.5,-686.5 220.5,-686.5 "/>
<text text-anchor="start" x="122" y="-669.8" font-family="Helvetica, Arial, sans-serif" font-size="14.00" fill="#000000">effect: 0.044</text>
<text text-anchor="start" x="133.5" y="-653.8" font-family="Helvetica, Arial, sans-serif" font-size="14.00" fill="#000000">error: 0.1</text>
</g>
<!-- et_anom_m_STD_m&#45;&gt;ndvi_act_min_m -->
<g id="edge4" class="edge">
<title>et_anom_m_STD_m-&gt;ndvi_act_min_m</title>
<path fill="none" stroke="#666666" stroke-width="2" d="M69,-808C73.9221,-783.3123 88.5719,-760.7672 105.0941,-742.1486"/>
<polygon fill="#666666" stroke="#666666" stroke-width="2" points="108.205,-744.9709 113.3209,-733.3318 102.0634,-739.2402 108.205,-744.9709"/>
</g>
<!-- chicken_number_s -->
<g id="node2" class="node rankB">
<title>chicken_number_s</title>
<path fill="none" stroke="#000000" d="M184,-771.5C184,-771.5 320,-771.5 320,-771.5 326,-771.5 332,-777.5 332,-783.5 332,-783.5 332,-832.5 332,-832.5 332,-838.5 326,-844.5 320,-844.5 320,-844.5 184,-844.5 184,-844.5 178,-844.5 172,-838.5 172,-832.5 172,-832.5 172,-783.5 172,-783.5 172,-777.5 178,-771.5 184,-771.5"/>
<text text-anchor="start" x="181" y="-825.7" font-family="Helvetica, Arial, sans-serif" font-size="16.00" fill="#000000">Count of livestock</text>
<text text-anchor="start" x="217.5" y="-807.7" font-family="Helvetica, Arial, sans-serif" font-size="16.00" fill="#000000">chickens</text>
<polyline fill="none" stroke="#000000" points="172,-796.5 332,-796.5 "/>
<text text-anchor="start" x="185" y="-779.8" font-family="Helvetica, Arial, sans-serif" font-size="14.00" fill="#000000">effect: Inestimable</text>
</g>
<!-- yield_gap_soybean_s -->
<g id="node5" class="node rankB">
<title>yield_gap_soybean_s</title>
<path fill="none" stroke="#000000" d="M132,-245.5C132,-245.5 268,-245.5 268,-245.5 274,-245.5 280,-251.5 280,-257.5 280,-257.5 280,-358.5 280,-358.5 280,-364.5 274,-370.5 268,-370.5 268,-370.5 132,-370.5 132,-370.5 126,-370.5 120,-364.5 120,-358.5 120,-358.5 120,-257.5 120,-257.5 120,-251.5 126,-245.5 132,-245.5"/>
<text text-anchor="start" x="147.5" y="-351.7" font-family="Helvetica, Arial, sans-serif" font-size="16.00" fill="#000000">Gap between</text>
<text text-anchor="start" x="146" y="-333.7" font-family="Helvetica, Arial, sans-serif" font-size="16.00" fill="#000000">observed and</text>
<text text-anchor="start" x="129" y="-315.7" font-family="Helvetica, Arial, sans-serif" font-size="16.00" fill="#000000">potential soybean</text>
<text text-anchor="start" x="181" y="-297.7" font-family="Helvetica, Arial, sans-serif" font-size="16.00" fill="#000000">yield</text>
<polyline fill="none" stroke="#000000" points="120,-286.5 280,-286.5 "/>
<text text-anchor="start" x="155" y="-269.8" font-family="Helvetica, Arial, sans-serif" font-size="14.00" fill="#000000">effect: 0.022</text>
<text text-anchor="start" x="157.5" y="-253.8" font-family="Helvetica, Arial, sans-serif" font-size="14.00" fill="#000000">error: 0.031</text>
</g>
<!-- chicken_number_s&#45;&gt;yield_gap_soybean_s -->
<g id="edge6" class="edge">
<title>chicken_number_s-&gt;yield_gap_soybean_s</title>
<path fill="none" stroke="#666666" stroke-width="2" d="M251.0213,-771.314C248.7431,-700.5227 241.6915,-540.2917 222,-407 220.8244,-399.0423 219.3677,-390.7717 217.7677,-382.5535"/>
<polygon fill="#666666" stroke="#666666" stroke-width="2" points="221.8427,-381.5159 215.3369,-370.5928 213.611,-383.1889 221.8427,-381.5159"/>
</g>
<!-- chicken_number_s&#45;&gt;rurratio_s -->
<g id="edge7" class="edge">
<title>chicken_number_s-&gt;rurratio_s</title>
<path fill="none" stroke="#666666" stroke-width="2" d="M171.6444,-779.4228C146.648,-768.0826 120.1306,-753.3093 99,-735 80.8339,-719.2593 75.5914,-713.1156 69,-690"/>
</g>
<!-- chicken_number_s&#45;&gt;ndvi_act_min_m -->
<g id="edge8" class="edge">
<title>chicken_number_s-&gt;ndvi_act_min_m</title>
<path fill="none" stroke="#666666" stroke-width="2" d="M225.5714,-771.3109C219.4157,-762.7653 212.7324,-753.4873 206.1565,-744.3585"/>
<polygon fill="#666666" stroke="#666666" stroke-width="2" points="209.515,-741.8349 199.0932,-734.5529 202.6992,-746.7446 209.515,-741.8349"/>
</g>
<!-- spi_3_m&#45;&gt;chicken_number_s -->
<g id="edge10" class="edge">
<title>spi_3_m-&gt;chicken_number_s</title>
<path fill="none" stroke="#666666" stroke-width="2" d="M252,-869.1975C252,-865.1085 252,-860.9731 252,-856.8835"/>
<polygon fill="#666666" stroke="#666666" stroke-width="2" points="247.8001,-869.3716 252,-881.3716 256.2001,-869.3716 247.8001,-869.3716"/>
<polygon fill="#666666" stroke="#666666" stroke-width="2" points="256.2001,-856.8435 252,-844.8435 247.8001,-856.8435 256.2001,-856.8435"/>
</g>
<!-- rurpop_s -->
<g id="node4" class="node rankB">
<title>rurpop_s</title>
<path fill="none" stroke="#000000" d="M73,-135.5C73,-135.5 199,-135.5 199,-135.5 205,-135.5 211,-141.5 211,-147.5 211,-147.5 211,-196.5 211,-196.5 211,-202.5 205,-208.5 199,-208.5 199,-208.5 73,-208.5 73,-208.5 67,-208.5 61,-202.5 61,-196.5 61,-196.5 61,-147.5 61,-147.5 61,-141.5 67,-135.5 73,-135.5"/>
<text text-anchor="start" x="85" y="-189.7" font-family="Helvetica, Arial, sans-serif" font-size="16.00" fill="#000000">Population in</text>
<text text-anchor="start" x="92.5" y="-171.7" font-family="Helvetica, Arial, sans-serif" font-size="16.00" fill="#000000">rural areas</text>
<polyline fill="none" stroke="#000000" points="61,-160.5 211,-160.5 "/>
<text text-anchor="start" x="69" y="-143.8" font-family="Helvetica, Arial, sans-serif" font-size="14.00" fill="#000000">effect: Inestimable</text>
</g>
<!-- spi_3_m&#45;&gt;rurpop_s -->
<g id="edge11" class="edge">
<title>spi_3_m-&gt;rurpop_s</title>
<path fill="none" stroke="#666666" stroke-width="2" d="M309.9595,-881.3022C323.1664,-870.8399 336.1821,-858.5546 346,-845 426.5678,-733.7685 483.1072,-687.2948 450,-554"/>
<path fill="none" stroke="#666666" stroke-width="2" d="M450,-554C437.5107,-496.5525 384.2436,-513.4135 354,-463 302.3031,-376.8258 358.9905,-321.6473 294,-245 275.3618,-223.0189 248.6809,-207.2839 222.537,-196.1919"/>
<polygon fill="#666666" stroke="#666666" stroke-width="2" points="224.0913,-192.2901 211.3903,-191.7177 220.9622,-200.0856 224.0913,-192.2901"/>
</g>
<!-- spi_3_m&#45;&gt;rurratio_s -->
<g id="edge12" class="edge">
<title>spi_3_m-&gt;rurratio_s</title>
<path fill="none" stroke="#666666" stroke-width="2" d="M193.7663,-881.327C169.1349,-862.5655 142.7713,-837.4539 128,-808"/>
<path fill="none" stroke="#666666" stroke-width="2" d="M128,-808C101.7147,-755.5871 85.0788,-746.387 69,-690"/>
</g>
<!-- spi_3_m&#45;&gt;locdensity_y -->
<g id="edge13" class="edge">
<title>spi_3_m-&gt;locdensity_y</title>
<path fill="none" stroke="#666666" stroke-width="2" d="M450,-554C443.6131,-528.2852 443.6255,-498.4691 445.2285,-475.1149"/>
<polygon fill="#666666" stroke="#666666" stroke-width="2" points="449.4376,-475.1804 446.2521,-462.8722 441.0668,-474.4805 449.4376,-475.1804"/>
</g>
<!-- spi_3_m&#45;&gt;ndvi_act_min_m -->
<g id="edge14" class="edge">
<title>spi_3_m-&gt;ndvi_act_min_m</title>
<path fill="none" stroke="#666666" stroke-width="2" d="M128,-808C118.166,-788.391 122.2948,-765.7452 130.8468,-745.5677"/>
<polygon fill="#666666" stroke="#666666" stroke-width="2" points="134.677,-747.2925 135.9924,-734.6469 127.0782,-743.7121 134.677,-747.2925"/>
</g>
<!-- acl_sum_evnt_m -->
<g id="node9" class="node rankC">
<title>acl_sum_evnt_m</title>
<path fill="none" stroke="#000000" d="M437,-90C437,-90 329,-90 329,-90 323,-90 317,-84 317,-78 317,-78 317,-52 317,-52 317,-46 323,-40 329,-40 329,-40 437,-40 437,-40 443,-40 449,-46 449,-52 449,-52 449,-78 449,-78 449,-84 443,-90 437,-90"/>
<text text-anchor="middle" x="383" y="-70.2" font-family="Helvetica, Arial, sans-serif" font-size="16.00" fill="#000000">Total number of</text>
<text text-anchor="middle" x="383" y="-52.2" font-family="Helvetica, Arial, sans-serif" font-size="16.00" fill="#000000">conflict events</text>
</g>
<!-- rurpop_s&#45;&gt;acl_sum_evnt_m -->
<g id="edge15" class="edge">
<title>rurpop_s-&gt;acl_sum_evnt_m</title>
<path fill="none" stroke="#666666" stroke-width="2" d="M211.1142,-139.4607C243.8703,-125.2708 282.0207,-108.7441 314.0467,-94.8704"/>
<polygon fill="#666666" stroke="#666666" stroke-width="2" points="315.7588,-98.706 325.1004,-90.082 312.4197,-90.9982 315.7588,-98.706"/>
</g>
<!-- acl_sum_fatl_m -->
<g id="node10" class="node rankC">
<title>acl_sum_fatl_m</title>
<path fill="none" stroke="#000000" d="M231,-99C231,-99 131,-99 131,-99 125,-99 119,-93 119,-87 119,-87 119,-43 119,-43 119,-37 125,-31 131,-31 131,-31 231,-31 231,-31 237,-31 243,-37 243,-43 243,-43 243,-87 243,-87 243,-93 237,-99 231,-99"/>
<text text-anchor="middle" x="181" y="-79.2" font-family="Helvetica, Arial, sans-serif" font-size="16.00" fill="#000000">Reported</text>
<text text-anchor="middle" x="181" y="-61.2" font-family="Helvetica, Arial, sans-serif" font-size="16.00" fill="#000000">fatalities from</text>
<text text-anchor="middle" x="181" y="-43.2" font-family="Helvetica, Arial, sans-serif" font-size="16.00" fill="#000000">conflict events</text>
</g>
<!-- rurpop_s&#45;&gt;acl_sum_fatl_m -->
<g id="edge16" class="edge">
<title>rurpop_s-&gt;acl_sum_fatl_m</title>
<path fill="none" stroke="#666666" stroke-width="2" d="M151.3606,-135.4759C154.7565,-127.4013 158.3944,-118.751 161.9179,-110.373"/>
<polygon fill="#666666" stroke="#666666" stroke-width="2" points="165.8376,-111.8867 166.6182,-99.1968 158.0945,-108.6302 165.8376,-111.8867"/>
</g>
<!-- yield_gap_soybean_s&#45;&gt;rurpop_s -->
<g id="edge17" class="edge">
<title>yield_gap_soybean_s-&gt;rurpop_s</title>
<path fill="none" stroke="#666666" stroke-width="2" d="M170.4354,-245.1752C166.3823,-236.5624 162.2768,-227.8382 158.381,-219.5597"/>
<polygon fill="#666666" stroke="#666666" stroke-width="2" points="162.133,-217.6687 153.2232,-208.5992 154.5325,-221.2454 162.133,-217.6687"/>
</g>
<!-- rurratio_s&#45;&gt;rurpop_s -->
<g id="edge18" class="edge">
<title>rurratio_s-&gt;rurpop_s</title>
<path fill="none" stroke="#666666" stroke-width="2" d="M17,-308C24.5562,-271.8767 50.2935,-240.2359 75.9083,-216.5851"/>
<polygon fill="#666666" stroke="#666666" stroke-width="2" points="78.7578,-219.6717 84.9334,-208.5585 73.1754,-213.3949 78.7578,-219.6717"/>
</g>
<!-- rurratio_s&#45;&gt;locdensity_y -->
<g id="edge19" class="edge">
<title>rurratio_s-&gt;locdensity_y</title>
<path fill="none" stroke="#666666" stroke-width="2" d="M150.4357,-530.0617C209.8332,-511.2129 292.9298,-484.8436 356.5409,-464.6577"/>
<polygon fill="#666666" stroke="#666666" stroke-width="2" points="358.0141,-468.5967 368.1816,-460.9637 355.4733,-460.5901 358.0141,-468.5967"/>
</g>
<!-- rurratio_s&#45;&gt;acl_sum_fatl_m -->
<g id="edge21" class="edge">
<title>rurratio_s-&gt;acl_sum_fatl_m</title>
<path fill="none" stroke="#666666" stroke-width="2" d="M48.1251,-499.462C26.9636,-449.7292 3.1644,-374.1426 17,-308"/>
<path fill="none" stroke="#666666" stroke-width="2" d="M17,-308C29.9527,-231.1218 .1156,-198.0289 46,-135 61.2226,-114.0895 84.5652,-98.9318 107.5834,-88.1863"/>
<polygon fill="#666666" stroke="#666666" stroke-width="2" points="109.5165,-91.9248 118.8202,-83.2598 106.1436,-84.2317 109.5165,-91.9248"/>
</g>
<!-- locdensity_y&#45;&gt;rurpop_s -->
<g id="edge22" class="edge">
<title>locdensity_y-&gt;rurpop_s</title>
<path fill="none" stroke="#666666" stroke-width="2" d="M437.885,-407.3429C425.7026,-380.8125 405.5361,-340.1511 383,-308"/>
<path fill="none" stroke="#666666" stroke-width="2" d="M383,-308C364.3618,-281.4098 371.1024,-265.5983 346,-245 310.8987,-216.1969 263.7133,-198.4504 222.9617,-187.6811"/>
<polygon fill="#666666" stroke="#666666" stroke-width="2" points="223.762,-183.5515 211.0995,-184.6919 221.7094,-191.6969 223.762,-183.5515"/>
</g>
<!-- locdensity_y&#45;&gt;yield_gap_soybean_s -->
<g id="edge23" class="edge">
<title>locdensity_y-&gt;yield_gap_soybean_s</title>
<path fill="none" stroke="#666666" stroke-width="2" d="M395.7537,-407.4429C365.1698,-391.9063 326.16,-372.0893 291.0254,-354.2409"/>
<polygon fill="#666666" stroke="#666666" stroke-width="2" points="292.8605,-350.4623 280.2596,-348.7719 289.056,-357.9514 292.8605,-350.4623"/>
</g>
<!-- locdensity_y&#45;&gt;acl_sum_evnt_m -->
<g id="edge24" class="edge">
<title>locdensity_y-&gt;acl_sum_evnt_m</title>
<path fill="none" stroke="#666666" stroke-width="2" d="M383,-172C374.2663,-150.024 374.2186,-123.4454 376.378,-102.2758"/>
<polygon fill="#666666" stroke="#666666" stroke-width="2" points="380.5665,-102.63 377.9023,-90.1985 372.2326,-101.5781 380.5665,-102.63"/>
</g>
<!-- locdensity_y&#45;&gt;acl_sum_fatl_m -->
<g id="edge25" class="edge">
<title>locdensity_y-&gt;acl_sum_fatl_m</title>
<path fill="none" stroke="#666666" stroke-width="2" d="M383,-308C348.3061,-258.5039 405.3235,-228.1711 383,-172"/>
<path fill="none" stroke="#666666" stroke-width="2" d="M383,-172C372.2585,-144.9718 307.5976,-113.8172 254.2823,-92.1217"/>
<polygon fill="#666666" stroke="#666666" stroke-width="2" points="255.8023,-88.2062 243.101,-87.6406 252.6774,-96.0033 255.8023,-88.2062"/>
</g>
<!-- ndvi_act_min_m&#45;&gt;rurpop_s -->
<g id="edge26" class="edge">
<title>ndvi_act_min_m-&gt;rurpop_s</title>
<path fill="none" stroke="#666666" stroke-width="2" d="M182.2778,-645.3054C197.6264,-594.0199 216.7832,-507.635 200,-435"/>
<path fill="none" stroke="#666666" stroke-width="2" d="M200,-435C188.5387,-385.3972 128.9134,-415.9439 105,-371 79.8755,-323.78 95.847,-261.9355 112.7713,-219.8055"/>
<polygon fill="#666666" stroke="#666666" stroke-width="2" points="116.6439,-221.4312 117.4195,-208.7411 108.8995,-218.1777 116.6439,-221.4312"/>
</g>
<!-- ndvi_act_min_m&#45;&gt;yield_gap_soybean_s -->
<g id="edge27" class="edge">
<title>ndvi_act_min_m-&gt;yield_gap_soybean_s</title>
<path fill="none" stroke="#666666" stroke-width="2" d="M200,-435C196.1468,-418.3241 194.6304,-400.0844 194.3879,-382.7624"/>
<polygon fill="#666666" stroke="#666666" stroke-width="2" points="198.588,-382.6581 194.4157,-370.6485 190.1881,-382.6388 198.588,-382.6581"/>
</g>
<!-- ndvi_act_min_m&#45;&gt;rurratio_s -->
<g id="edge28" class="edge">
<title>ndvi_act_min_m-&gt;rurratio_s</title>
<path fill="none" stroke="#666666" stroke-width="2" d="M130.0083,-635.3166C126.2873,-629.8161 122.4846,-624.1946 118.7025,-618.6037"/>
<polygon fill="#666666" stroke="#666666" stroke-width="2" points="126.6732,-637.8824 136.8758,-645.4685 133.6308,-633.1758 126.6732,-637.8824"/>
<polygon fill="#666666" stroke="#666666" stroke-width="2" points="122.142,-616.1923 111.9395,-608.6062 115.1844,-620.8989 122.142,-616.1923"/>
</g>
<!-- acl_sum_fatl_m&#45;&gt;acl_sum_evnt_m -->
<g id="edge29" class="edge">
<title>acl_sum_fatl_m-&gt;acl_sum_evnt_m</title>
<path fill="none" stroke="#666666" stroke-width="2" d="M243.3359,-65C263.8585,-65 284.381,-65 304.9035,-65"/>
<polygon fill="#666666" stroke="#666666" stroke-width="2" points="304.9869,-69.2001 316.9869,-65 304.9869,-60.8001 304.9869,-69.2001"/>
</g>
</g>
<style>.node path {
  stroke: #fff;
}
.node text {
  fill: #fff;
}
.node polyline {
  stroke: #fff;
}
.rankA path {
  fill: #1b6002;
}
.rankB path {
  fill: #437387;
}
.rankC path {
  fill: #2e3348;
}
</style></svg>
