<?xml version="1.0" encoding="UTF-8" standalone="no"?>
<!DOCTYPE svg PUBLIC "-//W3C//DTD SVG 1.1//EN" "http://www.w3.org/Graphics/SVG/1.1/DTD/svg11.dtd">
<!-- Generated by graphviz version 2.40.1 (20161225.0304)
 -->
<!-- Title: causalModel Pages: 1 -->
<svg xmlns="http://www.w3.org/2000/svg" xmlns:xlink="http://www.w3.org/1999/xlink" width="" height="" viewBox="0.00 0.00 520.00 969.00" preserveAspectRatio="xMinYMin">
<g id="graph0" class="graph" transform="scale(1 1) rotate(0) translate(4 965)">
<title>causalModel</title>
<polygon fill="#ffffff" stroke="transparent" points="-4,4 -4,-965 516,-965 516,4 -4,4"/>
<!-- et_anom_m_STD_m -->
<g id="node1" class="node rankB">
<title>et_anom_m_STD_m</title>
<path fill="none" stroke="#000000" d="M169.5,-853.5C169.5,-853.5 309.5,-853.5 309.5,-853.5 315.5,-853.5 321.5,-859.5 321.5,-865.5 321.5,-865.5 321.5,-948.5 321.5,-948.5 321.5,-954.5 315.5,-960.5 309.5,-960.5 309.5,-960.5 169.5,-960.5 169.5,-960.5 163.5,-960.5 157.5,-954.5 157.5,-948.5 157.5,-948.5 157.5,-865.5 157.5,-865.5 157.5,-859.5 163.5,-853.5 169.5,-853.5"/>
<text text-anchor="start" x="194.5" y="-941.7" font-family="Helvetica, Arial, sans-serif" font-size="16.00" fill="#000000">Variation in</text>
<text text-anchor="start" x="164.5" y="-923.7" font-family="Helvetica, Arial, sans-serif" font-size="16.00" fill="#000000">evapotranspiration</text>
<text text-anchor="start" x="206" y="-905.7" font-family="Helvetica, Arial, sans-serif" font-size="16.00" fill="#000000">patterns</text>
<polyline fill="none" stroke="#000000" points="157.5,-894.5 321.5,-894.5 "/>
<text text-anchor="start" x="191.5" y="-877.8" font-family="Helvetica, Arial, sans-serif" font-size="14.00" fill="#000000">effect: -0.032</text>
<text text-anchor="start" x="196.5" y="-861.8" font-family="Helvetica, Arial, sans-serif" font-size="14.00" fill="#000000">error: 0.044</text>
</g>
<!-- spi_3_m -->
<g id="node3" class="node rankB">
<title>spi_3_m</title>
<path fill="none" stroke="#000000" d="M174,-750.5C174,-750.5 305,-750.5 305,-750.5 311,-750.5 317,-756.5 317,-762.5 317,-762.5 317,-804.5 317,-804.5 317,-810.5 311,-816.5 305,-816.5 305,-816.5 174,-816.5 174,-816.5 168,-816.5 162,-810.5 162,-804.5 162,-804.5 162,-762.5 162,-762.5 162,-756.5 168,-750.5 174,-750.5"/>
<text text-anchor="start" x="194.5" y="-797.7" font-family="Helvetica, Arial, sans-serif" font-size="16.00" fill="#000000">Variation of</text>
<text text-anchor="start" x="169.5" y="-779.7" font-family="Helvetica, Arial, sans-serif" font-size="16.00" fill="#000000">precipitation over</text>
<text text-anchor="start" x="179" y="-761.7" font-family="Helvetica, Arial, sans-serif" font-size="16.00" fill="#000000">3-month period</text>
</g>
<!-- et_anom_m_STD_m&#45;&gt;spi_3_m -->
<g id="edge1" class="edge">
<title>et_anom_m_STD_m-&gt;spi_3_m</title>
<path fill="none" stroke="#000000" stroke-width="2" d="M239.5,-841.1307C239.5,-836.9995 239.5,-832.8931 239.5,-828.8857"/>
<polygon fill="#000000" stroke="#000000" stroke-width="2" points="235.3001,-841.1903 239.5,-853.1904 243.7001,-841.1904 235.3001,-841.1903"/>
<polygon fill="#000000" stroke="#000000" stroke-width="2" points="243.7001,-828.5146 239.5,-816.5146 235.3001,-828.5146 243.7001,-828.5146"/>
</g>
<!-- rurratio_s -->
<g id="node6" class="node rankB">
<title>rurratio_s</title>
<path fill="none" stroke="#000000" d="M12,-418.5C12,-418.5 123,-418.5 123,-418.5 129,-418.5 135,-424.5 135,-430.5 135,-430.5 135,-490.5 135,-490.5 135,-496.5 129,-502.5 123,-502.5 123,-502.5 12,-502.5 12,-502.5 6,-502.5 0,-496.5 0,-490.5 0,-490.5 0,-430.5 0,-430.5 0,-424.5 6,-418.5 12,-418.5"/>
<text text-anchor="start" x="13" y="-483.7" font-family="Helvetica, Arial, sans-serif" font-size="16.00" fill="#000000">Percentage of</text>
<text text-anchor="start" x="7.5" y="-465.7" font-family="Helvetica, Arial, sans-serif" font-size="16.00" fill="#000000">population that</text>
<text text-anchor="start" x="22.5" y="-447.7" font-family="Helvetica, Arial, sans-serif" font-size="16.00" fill="#000000">live in rural</text>
<text text-anchor="start" x="45.5" y="-429.7" font-family="Helvetica, Arial, sans-serif" font-size="16.00" fill="#000000">areas</text>
</g>
<!-- et_anom_m_STD_m&#45;&gt;rurratio_s -->
<g id="edge2" class="edge">
<title>et_anom_m_STD_m-&gt;rurratio_s</title>
<path fill="none" stroke="#000000" stroke-width="2" d="M157.2739,-858.2327C102.655,-818.8109 43.5119,-758.6344 58.5,-689.5"/>
<path fill="none" stroke="#000000" stroke-width="2" d="M58.5,-689.5C61.9498,-642.7382 71.819,-628.9574 58.5,-584"/>
<path fill="none" stroke="#000000" stroke-width="2" d="M58.5,-584C51.9611,-561.9283 52.467,-536.7135 55.2684,-514.8466"/>
<polygon fill="#000000" stroke="#000000" stroke-width="2" points="59.4566,-515.2383 57.0885,-502.747 51.1501,-513.9887 59.4566,-515.2383"/>
</g>
<!-- locdensity_y -->
<g id="node7" class="node rankB">
<title>locdensity_y</title>
<path fill="none" stroke="#000000" d="M365,-345.5C365,-345.5 500,-345.5 500,-345.5 506,-345.5 512,-351.5 512,-357.5 512,-357.5 512,-369.5 512,-369.5 512,-375.5 506,-381.5 500,-381.5 500,-381.5 365,-381.5 365,-381.5 359,-381.5 353,-375.5 353,-369.5 353,-369.5 353,-357.5 353,-357.5 353,-351.5 359,-345.5 365,-345.5"/>
<text text-anchor="start" x="360.5" y="-359.7" font-family="Helvetica, Arial, sans-serif" font-size="16.00" fill="#000000">Population density</text>
</g>
<!-- et_anom_m_STD_m&#45;&gt;locdensity_y -->
<g id="edge3" class="edge">
<title>et_anom_m_STD_m-&gt;locdensity_y</title>
<path fill="none" stroke="#000000" stroke-width="2" d="M321.6655,-876.0857C395.204,-842.4548 491.5,-780.9558 491.5,-689.5 491.5,-689.5 491.5,-689.5 491.5,-584 491.5,-513.4878 462.9965,-434.4705 445.6129,-392.8363"/>
<polygon fill="#000000" stroke="#000000" stroke-width="2" points="449.4071,-391.0269 440.8281,-381.6438 441.6833,-394.3288 449.4071,-391.0269"/>
</g>
<!-- ndvi_act_min_m -->
<g id="node8" class="node rankB">
<title>ndvi_act_min_m</title>
<path fill="none" stroke="#000000" d="M115,-539.5C115,-539.5 194,-539.5 194,-539.5 200,-539.5 206,-545.5 206,-551.5 206,-551.5 206,-616.5 206,-616.5 206,-622.5 200,-628.5 194,-628.5 194,-628.5 115,-628.5 115,-628.5 109,-628.5 103,-622.5 103,-616.5 103,-616.5 103,-551.5 103,-551.5 103,-545.5 109,-539.5 115,-539.5"/>
<text text-anchor="start" x="114.5" y="-609.7" font-family="Helvetica, Arial, sans-serif" font-size="16.00" fill="#000000">Density of</text>
<text text-anchor="start" x="113.5" y="-591.7" font-family="Helvetica, Arial, sans-serif" font-size="16.00" fill="#000000">greenness</text>
<polyline fill="none" stroke="#000000" points="103,-580.5 206,-580.5 "/>
<text text-anchor="start" x="109.5" y="-563.8" font-family="Helvetica, Arial, sans-serif" font-size="14.00" fill="#000000">effect: 0.044</text>
<text text-anchor="start" x="121" y="-547.8" font-family="Helvetica, Arial, sans-serif" font-size="14.00" fill="#000000">error: 0.1</text>
</g>
<!-- et_anom_m_STD_m&#45;&gt;ndvi_act_min_m -->
<g id="edge4" class="edge">
<title>et_anom_m_STD_m-&gt;ndvi_act_min_m</title>
<path fill="none" stroke="#000000" stroke-width="2" d="M58.5,-689.5C63.4361,-666.7315 77.7092,-646.4496 93.79,-629.9017"/>
<polygon fill="#000000" stroke="#000000" stroke-width="2" points="97.1736,-632.4708 102.8619,-621.1004 91.3245,-626.4418 97.1736,-632.4708"/>
</g>
<!-- chicken_number_s -->
<g id="node2" class="node rankB">
<title>chicken_number_s</title>
<path fill="none" stroke="#000000" d="M173.5,-665.5C173.5,-665.5 305.5,-665.5 305.5,-665.5 311.5,-665.5 317.5,-671.5 317.5,-677.5 317.5,-677.5 317.5,-701.5 317.5,-701.5 317.5,-707.5 311.5,-713.5 305.5,-713.5 305.5,-713.5 173.5,-713.5 173.5,-713.5 167.5,-713.5 161.5,-707.5 161.5,-701.5 161.5,-701.5 161.5,-677.5 161.5,-677.5 161.5,-671.5 167.5,-665.5 173.5,-665.5"/>
<text text-anchor="start" x="168.5" y="-694.7" font-family="Helvetica, Arial, sans-serif" font-size="16.00" fill="#000000">Count of livestock</text>
<text text-anchor="start" x="205" y="-676.7" font-family="Helvetica, Arial, sans-serif" font-size="16.00" fill="#000000">chickens</text>
</g>
<!-- yield_gap_soybean_s -->
<g id="node5" class="node rankB">
<title>yield_gap_soybean_s</title>
<path fill="none" stroke="#000000" d="M121.5,-183.5C121.5,-183.5 253.5,-183.5 253.5,-183.5 259.5,-183.5 265.5,-189.5 265.5,-195.5 265.5,-195.5 265.5,-296.5 265.5,-296.5 265.5,-302.5 259.5,-308.5 253.5,-308.5 253.5,-308.5 121.5,-308.5 121.5,-308.5 115.5,-308.5 109.5,-302.5 109.5,-296.5 109.5,-296.5 109.5,-195.5 109.5,-195.5 109.5,-189.5 115.5,-183.5 121.5,-183.5"/>
<text text-anchor="start" x="135" y="-289.7" font-family="Helvetica, Arial, sans-serif" font-size="16.00" fill="#000000">Gap between</text>
<text text-anchor="start" x="133.5" y="-271.7" font-family="Helvetica, Arial, sans-serif" font-size="16.00" fill="#000000">observed and</text>
<text text-anchor="start" x="116.5" y="-253.7" font-family="Helvetica, Arial, sans-serif" font-size="16.00" fill="#000000">potential soybean</text>
<text text-anchor="start" x="168.5" y="-235.7" font-family="Helvetica, Arial, sans-serif" font-size="16.00" fill="#000000">yield</text>
<polyline fill="none" stroke="#000000" points="109.5,-224.5 265.5,-224.5 "/>
<text text-anchor="start" x="142.5" y="-207.8" font-family="Helvetica, Arial, sans-serif" font-size="14.00" fill="#000000">effect: 0.022</text>
<text text-anchor="start" x="145" y="-191.8" font-family="Helvetica, Arial, sans-serif" font-size="14.00" fill="#000000">error: 0.031</text>
</g>
<!-- chicken_number_s&#45;&gt;yield_gap_soybean_s -->
<g id="edge6" class="edge">
<title>chicken_number_s-&gt;yield_gap_soybean_s</title>
<path fill="none" stroke="#000000" stroke-width="2" d="M238.4836,-665.1436C235.8844,-608.621 227.8629,-464.2658 209.5,-345 208.2759,-337.0496 206.788,-328.7838 205.1695,-320.5683"/>
<polygon fill="#000000" stroke="#000000" stroke-width="2" points="209.2428,-319.5235 202.7202,-308.6104 201.0136,-321.2091 209.2428,-319.5235"/>
</g>
<!-- chicken_number_s&#45;&gt;rurratio_s -->
<g id="edge7" class="edge">
<title>chicken_number_s-&gt;rurratio_s</title>
<path fill="none" stroke="#000000" stroke-width="2" d="M161.372,-671.1076C118.7543,-656.0366 71.9828,-629.5102 58.5,-584"/>
</g>
<!-- chicken_number_s&#45;&gt;ndvi_act_min_m -->
<g id="edge8" class="edge">
<title>chicken_number_s-&gt;ndvi_act_min_m</title>
<path fill="none" stroke="#000000" stroke-width="2" d="M219.9993,-665.2962C213.456,-657.1748 205.8718,-647.7615 198.2345,-638.2822"/>
<polygon fill="#000000" stroke="#000000" stroke-width="2" points="201.4153,-635.5358 190.616,-628.8263 194.8742,-640.8059 201.4153,-635.5358"/>
</g>
<!-- spi_3_m&#45;&gt;chicken_number_s -->
<g id="edge10" class="edge">
<title>spi_3_m-&gt;chicken_number_s</title>
<path fill="none" stroke="#000000" stroke-width="2" d="M239.5,-738.191C239.5,-734.1093 239.5,-730.0104 239.5,-726.0179"/>
<polygon fill="#000000" stroke="#000000" stroke-width="2" points="235.3001,-738.3591 239.5,-750.3591 243.7001,-738.3592 235.3001,-738.3591"/>
<polygon fill="#000000" stroke="#000000" stroke-width="2" points="243.7001,-725.778 239.5,-713.778 235.3001,-725.778 243.7001,-725.778"/>
</g>
<!-- rurpop_s -->
<g id="node4" class="node rankB">
<title>rurpop_s</title>
<path fill="none" stroke="#000000" d="M63,-98.5C63,-98.5 156,-98.5 156,-98.5 162,-98.5 168,-104.5 168,-110.5 168,-110.5 168,-134.5 168,-134.5 168,-140.5 162,-146.5 156,-146.5 156,-146.5 63,-146.5 63,-146.5 57,-146.5 51,-140.5 51,-134.5 51,-134.5 51,-110.5 51,-110.5 51,-104.5 57,-98.5 63,-98.5"/>
<text text-anchor="start" x="58.5" y="-127.7" font-family="Helvetica, Arial, sans-serif" font-size="16.00" fill="#000000">Population in</text>
<text text-anchor="start" x="66" y="-109.7" font-family="Helvetica, Arial, sans-serif" font-size="16.00" fill="#000000">rural areas</text>
</g>
<!-- spi_3_m&#45;&gt;rurpop_s -->
<g id="edge11" class="edge">
<title>spi_3_m-&gt;rurpop_s</title>
<path fill="none" stroke="#000000" stroke-width="2" d="M293.5184,-750.3701C307.2536,-740.0242 321.0613,-727.6891 331.5,-714 405.0402,-617.5603 466.3111,-576.9714 432.5,-460.5"/>
<path fill="none" stroke="#000000" stroke-width="2" d="M432.5,-460.5C419.8741,-407.5547 368.4026,-427.4802 338.5,-382 287.82,-304.9185 342.9564,-249.9575 279.5,-183 253.4768,-155.541 214.176,-140.5255 179.9151,-132.3239"/>
<polygon fill="#000000" stroke="#000000" stroke-width="2" points="180.6606,-128.1874 168.0369,-129.6979 178.8473,-136.3893 180.6606,-128.1874"/>
</g>
<!-- spi_3_m&#45;&gt;rurratio_s -->
<g id="edge12" class="edge">
<title>spi_3_m-&gt;rurratio_s</title>
<path fill="none" stroke="#000000" stroke-width="2" d="M177.7943,-750.4259C155.0452,-735.002 131.4443,-714.4818 117.5,-689.5"/>
<path fill="none" stroke="#000000" stroke-width="2" d="M117.5,-689.5C91.3158,-642.5898 73.7603,-635.5101 58.5,-584"/>
</g>
<!-- spi_3_m&#45;&gt;locdensity_y -->
<g id="edge13" class="edge">
<title>spi_3_m-&gt;locdensity_y</title>
<path fill="none" stroke="#000000" stroke-width="2" d="M432.5,-460.5C426.2141,-438.8464 426.5033,-413.3095 428.2095,-393.8745"/>
<polygon fill="#000000" stroke="#000000" stroke-width="2" points="432.4004,-394.1846 429.5168,-381.8022 424.0492,-393.2802 432.4004,-394.1846"/>
</g>
<!-- spi_3_m&#45;&gt;ndvi_act_min_m -->
<g id="edge14" class="edge">
<title>spi_3_m-&gt;ndvi_act_min_m</title>
<path fill="none" stroke="#000000" stroke-width="2" d="M117.5,-689.5C108.8913,-674.0771 111.0781,-656.2881 117.4732,-639.764"/>
<polygon fill="#000000" stroke="#000000" stroke-width="2" points="121.4147,-641.2391 122.492,-628.571 113.7499,-637.8023 121.4147,-641.2391"/>
</g>
<!-- acl_sum_evnt_m -->
<g id="node9" class="node rankC">
<title>acl_sum_evnt_m</title>
<path fill="none" stroke="#000000" d="M423.5,-53C423.5,-53 313.5,-53 313.5,-53 307.5,-53 301.5,-47 301.5,-41 301.5,-41 301.5,-21 301.5,-21 301.5,-15 307.5,-9 313.5,-9 313.5,-9 423.5,-9 423.5,-9 429.5,-9 435.5,-15 435.5,-21 435.5,-21 435.5,-41 435.5,-41 435.5,-47 429.5,-53 423.5,-53"/>
<text text-anchor="middle" x="368.5" y="-36.2" font-family="Helvetica, Arial, sans-serif" font-size="16.00" fill="#000000">Total number of</text>
<text text-anchor="middle" x="368.5" y="-18.2" font-family="Helvetica, Arial, sans-serif" font-size="16.00" fill="#000000">conflict events</text>
</g>
<!-- rurpop_s&#45;&gt;acl_sum_evnt_m -->
<g id="edge15" class="edge">
<title>rurpop_s-&gt;acl_sum_evnt_m</title>
<path fill="none" stroke="#000000" stroke-width="2" d="M168.2711,-101.7372C205.7074,-88.5117 254.5193,-71.2673 294.576,-57.116"/>
<polygon fill="#000000" stroke="#000000" stroke-width="2" points="295.978,-61.0752 305.8936,-53.1177 293.1799,-53.1549 295.978,-61.0752"/>
</g>
<!-- acl_sum_fatl_m -->
<g id="node10" class="node rankC">
<title>acl_sum_fatl_m</title>
<path fill="none" stroke="#000000" d="M210.5,-62C210.5,-62 108.5,-62 108.5,-62 102.5,-62 96.5,-56 96.5,-50 96.5,-50 96.5,-12 96.5,-12 96.5,-6 102.5,0 108.5,0 108.5,0 210.5,0 210.5,0 216.5,0 222.5,-6 222.5,-12 222.5,-12 222.5,-50 222.5,-50 222.5,-56 216.5,-62 210.5,-62"/>
<text text-anchor="middle" x="159.5" y="-45.2" font-family="Helvetica, Arial, sans-serif" font-size="16.00" fill="#000000">Reported</text>
<text text-anchor="middle" x="159.5" y="-27.2" font-family="Helvetica, Arial, sans-serif" font-size="16.00" fill="#000000">fatalities from</text>
<text text-anchor="middle" x="159.5" y="-9.2" font-family="Helvetica, Arial, sans-serif" font-size="16.00" fill="#000000">conflict events</text>
</g>
<!-- rurpop_s&#45;&gt;acl_sum_fatl_m -->
<g id="edge16" class="edge">
<title>rurpop_s-&gt;acl_sum_fatl_m</title>
<path fill="none" stroke="#000000" stroke-width="2" d="M122.6369,-98.4595C126.9566,-90.5543 131.8915,-81.5235 136.7155,-72.6956"/>
<polygon fill="#000000" stroke="#000000" stroke-width="2" points="140.4273,-74.6618 142.496,-62.1174 133.056,-70.6337 140.4273,-74.6618"/>
</g>
<!-- yield_gap_soybean_s&#45;&gt;rurpop_s -->
<g id="edge17" class="edge">
<title>yield_gap_soybean_s-&gt;rurpop_s</title>
<path fill="none" stroke="#000000" stroke-width="2" d="M147.8145,-183.1646C142.1099,-174.1324 136.4249,-165.1311 131.2479,-156.9342"/>
<polygon fill="#000000" stroke="#000000" stroke-width="2" points="134.7349,-154.5898 124.7758,-146.6868 127.6327,-159.0754 134.7349,-154.5898"/>
</g>
<!-- rurratio_s&#45;&gt;rurpop_s -->
<g id="edge18" class="edge">
<title>rurratio_s-&gt;rurpop_s</title>
<path fill="none" stroke="#000000" stroke-width="2" d="M6.5,-246C13.8608,-209.2234 41.8595,-177.0361 66.8093,-154.7488"/>
<polygon fill="#000000" stroke="#000000" stroke-width="2" points="69.8088,-157.7091 76.1729,-146.7028 64.3342,-151.3381 69.8088,-157.7091"/>
</g>
<!-- rurratio_s&#45;&gt;locdensity_y -->
<g id="edge19" class="edge">
<title>rurratio_s-&gt;locdensity_y</title>
<path fill="none" stroke="#000000" stroke-width="2" d="M135.2983,-442.4824C196.9196,-426.1063 287.8809,-401.933 352.9252,-384.6473"/>
<polygon fill="#000000" stroke="#000000" stroke-width="2" points="354.2372,-388.6445 364.7559,-381.5032 352.0797,-380.5263 354.2372,-388.6445"/>
</g>
<!-- rurratio_s&#45;&gt;acl_sum_fatl_m -->
<g id="edge21" class="edge">
<title>rurratio_s-&gt;acl_sum_fatl_m</title>
<path fill="none" stroke="#000000" stroke-width="2" d="M43.0704,-418.256C21.2101,-375.3449 -5.6573,-306.7412 6.5,-246"/>
<path fill="none" stroke="#000000" stroke-width="2" d="M6.5,-246C15.7488,-179.5248 -3.3658,-151.9927 36.5,-98 48.9967,-81.0749 67.0958,-67.9372 85.5829,-57.9601"/>
<polygon fill="#000000" stroke="#000000" stroke-width="2" points="87.6645,-61.6139 96.4733,-52.4462 83.8701,-54.1197 87.6645,-61.6139"/>
</g>
<!-- locdensity_y&#45;&gt;rurpop_s -->
<g id="edge22" class="edge">
<title>locdensity_y-&gt;rurpop_s</title>
<path fill="none" stroke="#000000" stroke-width="2" d="M424.7598,-345.3444C414.0556,-321.3252 393.2283,-278.2645 368.5,-246"/>
<path fill="none" stroke="#000000" stroke-width="2" d="M368.5,-246C348.7471,-220.2271 357.2929,-202.7268 331.5,-183 307.7398,-164.8279 235.8041,-147.2124 180.1901,-135.7213"/>
<polygon fill="#000000" stroke="#000000" stroke-width="2" points="180.8331,-131.5662 168.2371,-133.2929 179.1607,-139.798 180.8331,-131.5662"/>
</g>
<!-- locdensity_y&#45;&gt;yield_gap_soybean_s -->
<g id="edge23" class="edge">
<title>locdensity_y-&gt;yield_gap_soybean_s</title>
<path fill="none" stroke="#000000" stroke-width="2" d="M394.7557,-345.3981C363.3408,-330.3318 317.3396,-308.27 276.6516,-288.7564"/>
<polygon fill="#000000" stroke="#000000" stroke-width="2" points="278.2458,-284.8629 265.6095,-283.4607 274.6133,-292.4369 278.2458,-284.8629"/>
</g>
<!-- locdensity_y&#45;&gt;acl_sum_evnt_m -->
<g id="edge24" class="edge">
<title>locdensity_y-&gt;acl_sum_evnt_m</title>
<path fill="none" stroke="#000000" stroke-width="2" d="M368.5,-122.5C360.4353,-104.7193 360.1144,-82.9211 361.9605,-65.0615"/>
<polygon fill="#000000" stroke="#000000" stroke-width="2" points="366.126,-65.5987 363.5618,-53.1461 357.8008,-64.4798 366.126,-65.5987"/>
</g>
<!-- locdensity_y&#45;&gt;acl_sum_fatl_m -->
<g id="edge25" class="edge">
<title>locdensity_y-&gt;acl_sum_fatl_m</title>
<path fill="none" stroke="#000000" stroke-width="2" d="M368.5,-246C335.1105,-202.4347 391.1725,-172.4875 368.5,-122.5"/>
<path fill="none" stroke="#000000" stroke-width="2" d="M368.5,-122.5C356.452,-95.9371 289.0957,-69.6542 234.0552,-52.1204"/>
<polygon fill="#000000" stroke="#000000" stroke-width="2" points="235.228,-48.0866 222.5214,-48.5147 232.7216,-56.104 235.228,-48.0866"/>
</g>
<!-- ndvi_act_min_m&#45;&gt;rurpop_s -->
<g id="edge26" class="edge">
<title>ndvi_act_min_m-&gt;rurpop_s</title>
<path fill="none" stroke="#000000" stroke-width="2" d="M171.2733,-539.1934C185.7277,-494.3127 202.1409,-423.4775 187.5,-363.5"/>
<path fill="none" stroke="#000000" stroke-width="2" d="M187.5,-363.5C175.8992,-317.0179 118.3194,-350.5668 94.5,-309 67.7157,-262.2593 81.9298,-197.808 95.2634,-158.2092"/>
<polygon fill="#000000" stroke="#000000" stroke-width="2" points="99.2695,-159.4785 99.3268,-146.7648 91.3537,-156.6679 99.2695,-159.4785"/>
</g>
<!-- ndvi_act_min_m&#45;&gt;yield_gap_soybean_s -->
<g id="edge27" class="edge">
<title>ndvi_act_min_m-&gt;yield_gap_soybean_s</title>
<path fill="none" stroke="#000000" stroke-width="2" d="M187.5,-363.5C184.1887,-349.9351 182.6482,-335.2239 182.1682,-320.9491"/>
<polygon fill="#000000" stroke="#000000" stroke-width="2" points="186.3626,-320.4992 182.0015,-308.5568 177.9634,-320.6122 186.3626,-320.4992"/>
</g>
<!-- ndvi_act_min_m&#45;&gt;rurratio_s -->
<g id="edge28" class="edge">
<title>ndvi_act_min_m-&gt;rurratio_s</title>
<path fill="none" stroke="#000000" stroke-width="2" d="M116.0241,-529.3819C112.0619,-523.7574 108.0434,-518.053 104.1024,-512.4585"/>
<polygon fill="#000000" stroke="#000000" stroke-width="2" points="112.7465,-532.0222 123.091,-539.4137 119.6137,-527.1846 112.7465,-532.0222"/>
<polygon fill="#000000" stroke="#000000" stroke-width="2" points="107.4656,-509.9399 97.1212,-502.5485 100.5985,-514.7775 107.4656,-509.9399"/>
</g>
<!-- acl_sum_fatl_m&#45;&gt;acl_sum_evnt_m -->
<g id="edge29" class="edge">
<title>acl_sum_fatl_m-&gt;acl_sum_evnt_m</title>
<path fill="none" stroke="#000000" stroke-width="2" d="M222.7715,-31C244.8656,-31 266.9597,-31 289.0538,-31"/>
<polygon fill="#000000" stroke="#000000" stroke-width="2" points="289.3283,-35.2001 301.3283,-31 289.3282,-26.8001 289.3283,-35.2001"/>
</g>
</g>
<style>.node path {
  stroke: #fff;
}
.node text {
  fill: #fff;
}
.node polyline {
  stroke: #fff;
}
.rankA path {
  fill: #2e3348;
}
.rankB path {
  fill: #437387;
}
.rankC path {
  fill: #1b6002;
}
.edge path {
  stroke: #666;
};
</style></svg>
