<?xml version="1.0" encoding="UTF-8" standalone="no"?>
<!DOCTYPE svg PUBLIC "-//W3C//DTD SVG 1.1//EN" "http://www.w3.org/Graphics/SVG/1.1/DTD/svg11.dtd">
<!-- Generated by graphviz version 2.40.1 (20161225.0304)
 -->
<!-- Title: causalModel Pages: 1 -->
<svg xmlns="http://www.w3.org/2000/svg" xmlns:xlink="http://www.w3.org/1999/xlink" width="" height="" viewBox="0.00 0.00 575.19 1154.00" preserveAspectRatio="xMinYMin">
<g id="graph0" class="graph" transform="scale(1 1) rotate(0) translate(4 1150)">
<title>causalModel</title>
<polygon fill="#ffffff" stroke="transparent" points="-4,4 -4,-1150 571.1894,-1150 571.1894,4 -4,4"/>
<!-- et_anom_m_STD_m -->
<g id="node1" class="node rankB">
<title>et_anom_m_STD_m</title>
<path fill="none" stroke="#000000" d="M242.6894,-1038.5C242.6894,-1038.5 382.6894,-1038.5 382.6894,-1038.5 388.6894,-1038.5 394.6894,-1044.5 394.6894,-1050.5 394.6894,-1050.5 394.6894,-1133.5 394.6894,-1133.5 394.6894,-1139.5 388.6894,-1145.5 382.6894,-1145.5 382.6894,-1145.5 242.6894,-1145.5 242.6894,-1145.5 236.6894,-1145.5 230.6894,-1139.5 230.6894,-1133.5 230.6894,-1133.5 230.6894,-1050.5 230.6894,-1050.5 230.6894,-1044.5 236.6894,-1038.5 242.6894,-1038.5"/>
<text text-anchor="start" x="267.6894" y="-1126.7" font-family="Helvetica, Arial, sans-serif" font-size="16.00" fill="#000000">Variation in</text>
<text text-anchor="start" x="237.6894" y="-1108.7" font-family="Helvetica, Arial, sans-serif" font-size="16.00" fill="#000000">evapotranspiration</text>
<text text-anchor="start" x="279.1894" y="-1090.7" font-family="Helvetica, Arial, sans-serif" font-size="16.00" fill="#000000">patterns</text>
<polyline fill="none" stroke="#000000" points="230.6894,-1079.5 394.6894,-1079.5 "/>
<text text-anchor="start" x="264.6894" y="-1062.8" font-family="Helvetica, Arial, sans-serif" font-size="14.00" fill="#000000">effect: -0.032</text>
<text text-anchor="start" x="269.6894" y="-1046.8" font-family="Helvetica, Arial, sans-serif" font-size="14.00" fill="#000000">error: 0.044</text>
</g>
<!-- spi_3_m -->
<g id="node2" class="node rankB">
<title>spi_3_m</title>
<path fill="none" stroke="#000000" d="M247.1894,-899.5C247.1894,-899.5 378.1894,-899.5 378.1894,-899.5 384.1894,-899.5 390.1894,-905.5 390.1894,-911.5 390.1894,-911.5 390.1894,-953.5 390.1894,-953.5 390.1894,-959.5 384.1894,-965.5 378.1894,-965.5 378.1894,-965.5 247.1894,-965.5 247.1894,-965.5 241.1894,-965.5 235.1894,-959.5 235.1894,-953.5 235.1894,-953.5 235.1894,-911.5 235.1894,-911.5 235.1894,-905.5 241.1894,-899.5 247.1894,-899.5"/>
<text text-anchor="start" x="267.6894" y="-946.7" font-family="Helvetica, Arial, sans-serif" font-size="16.00" fill="#000000">Variation of</text>
<text text-anchor="start" x="242.6894" y="-928.7" font-family="Helvetica, Arial, sans-serif" font-size="16.00" fill="#000000">precipitation over</text>
<text text-anchor="start" x="252.1894" y="-910.7" font-family="Helvetica, Arial, sans-serif" font-size="16.00" fill="#000000">3-month period</text>
</g>
<!-- et_anom_m_STD_m&#45;&gt;spi_3_m -->
<g id="edge1" class="edge">
<title>et_anom_m_STD_m-&gt;spi_3_m</title>
<path fill="none" stroke="#000000" stroke-width="2" d="M312.6894,-1026.3524C312.6894,-1010.0428 312.6894,-992.9203 312.6894,-977.8318"/>
<polygon fill="#000000" stroke="#000000" stroke-width="2" points="308.4895,-1026.4451 312.6894,-1038.4451 316.8895,-1026.4451 308.4895,-1026.4451"/>
<polygon fill="#000000" stroke="#000000" stroke-width="2" points="316.8895,-977.6983 312.6894,-965.6983 308.4895,-977.6984 316.8895,-977.6983"/>
</g>
<!-- rurratio_s -->
<g id="node3" class="node rankB">
<title>rurratio_s</title>
<path fill="none" stroke="#000000" d="M293.1894,-657.5C293.1894,-657.5 482.1894,-657.5 482.1894,-657.5 488.1894,-657.5 494.1894,-663.5 494.1894,-669.5 494.1894,-669.5 494.1894,-693.5 494.1894,-693.5 494.1894,-699.5 488.1894,-705.5 482.1894,-705.5 482.1894,-705.5 293.1894,-705.5 293.1894,-705.5 287.1894,-705.5 281.1894,-699.5 281.1894,-693.5 281.1894,-693.5 281.1894,-669.5 281.1894,-669.5 281.1894,-663.5 287.1894,-657.5 293.1894,-657.5"/>
<text text-anchor="start" x="288.6894" y="-686.7" font-family="Helvetica, Arial, sans-serif" font-size="16.00" fill="#000000">Percentage of population</text>
<text text-anchor="start" x="299.6894" y="-668.7" font-family="Helvetica, Arial, sans-serif" font-size="16.00" fill="#000000">that live in rural areas</text>
</g>
<!-- et_anom_m_STD_m&#45;&gt;rurratio_s -->
<g id="edge2" class="edge">
<title>et_anom_m_STD_m-&gt;rurratio_s</title>
<path fill="none" stroke="#000000" stroke-width="2" d="M394.9876,-1042.514C470.5782,-989.9732 566.9094,-901.0359 538.6894,-802.5"/>
<path fill="none" stroke="#000000" stroke-width="2" d="M538.6894,-802.5C531.8933,-760.886 495.4625,-730.9912 460.0903,-711.3274"/>
<polygon fill="#000000" stroke="#000000" stroke-width="2" points="461.7513,-707.4545 449.1807,-705.5516 457.821,-714.8783 461.7513,-707.4545"/>
</g>
<!-- locdensity_y -->
<g id="node4" class="node rankB">
<title>locdensity_y</title>
<path fill="none" stroke="#000000" d="M420.1894,-531C420.1894,-531 555.1894,-531 555.1894,-531 561.1894,-531 567.1894,-537 567.1894,-543 567.1894,-543 567.1894,-555 567.1894,-555 567.1894,-561 561.1894,-567 555.1894,-567 555.1894,-567 420.1894,-567 420.1894,-567 414.1894,-567 408.1894,-561 408.1894,-555 408.1894,-555 408.1894,-543 408.1894,-543 408.1894,-537 414.1894,-531 420.1894,-531"/>
<text text-anchor="start" x="415.6894" y="-545.2" font-family="Helvetica, Arial, sans-serif" font-size="16.00" fill="#000000">Population density</text>
</g>
<!-- et_anom_m_STD_m&#45;&gt;locdensity_y -->
<g id="edge3" class="edge">
<title>et_anom_m_STD_m-&gt;locdensity_y</title>
<path fill="none" stroke="#000000" stroke-width="2" d="M538.6894,-802.5C530.0216,-749.4253 542.1366,-735.1672 538.6894,-681.5"/>
</g>
<!-- ndvi_act_min_m -->
<g id="node5" class="node rankB">
<title>ndvi_act_min_m</title>
<path fill="none" stroke="#000000" d="M68.1894,-513.5C68.1894,-513.5 225.1894,-513.5 225.1894,-513.5 231.1894,-513.5 237.1894,-519.5 237.1894,-525.5 237.1894,-525.5 237.1894,-572.5 237.1894,-572.5 237.1894,-578.5 231.1894,-584.5 225.1894,-584.5 225.1894,-584.5 68.1894,-584.5 68.1894,-584.5 62.1894,-584.5 56.1894,-578.5 56.1894,-572.5 56.1894,-572.5 56.1894,-525.5 56.1894,-525.5 56.1894,-519.5 62.1894,-513.5 68.1894,-513.5"/>
<text text-anchor="start" x="63.6894" y="-565.7" font-family="Helvetica, Arial, sans-serif" font-size="16.00" fill="#000000">Density of greenness</text>
<polyline fill="none" stroke="#000000" points="56.1894,-554.5 237.1894,-554.5 "/>
<text text-anchor="start" x="101.6894" y="-537.8" font-family="Helvetica, Arial, sans-serif" font-size="14.00" fill="#000000">effect: 0.044</text>
<text text-anchor="start" x="113.1894" y="-521.8" font-family="Helvetica, Arial, sans-serif" font-size="14.00" fill="#000000">error: 0.1</text>
</g>
<!-- et_anom_m_STD_m&#45;&gt;ndvi_act_min_m -->
<g id="edge4" class="edge">
<title>et_anom_m_STD_m-&gt;ndvi_act_min_m</title>
<path fill="none" stroke="#000000" stroke-width="2" d="M258.8019,-1038.3268C212.9183,-988.471 150.4605,-909.6632 124.6894,-827 100.3235,-748.8442 117.7441,-652.6479 132.3802,-596.3415"/>
<polygon fill="#000000" stroke="#000000" stroke-width="2" points="136.4733,-597.2936 135.5394,-584.6142 128.3625,-595.1086 136.4733,-597.2936"/>
</g>
<!-- spi_3_m&#45;&gt;rurratio_s -->
<g id="edge12" class="edge">
<title>spi_3_m-&gt;rurratio_s</title>
<path fill="none" stroke="#000000" stroke-width="2" d="M384.1938,-899.4008C421.1691,-877.7902 462.1518,-845.543 479.6894,-802.5"/>
<path fill="none" stroke="#000000" stroke-width="2" d="M479.6894,-802.5C493.5111,-768.5769 465.2956,-735.867 436.5662,-713.0281"/>
<polygon fill="#000000" stroke="#000000" stroke-width="2" points="438.9638,-709.5753 426.8635,-705.6737 433.8897,-716.2696 438.9638,-709.5753"/>
</g>
<!-- spi_3_m&#45;&gt;locdensity_y -->
<g id="edge13" class="edge">
<title>spi_3_m-&gt;locdensity_y</title>
<path fill="none" stroke="#000000" stroke-width="2" d="M479.6894,-802.5C502.2648,-747.0924 542.5245,-741.2072 538.6894,-681.5"/>
<path fill="none" stroke="#000000" stroke-width="2" d="M538.6894,-681.5C536.267,-643.7883 518.4547,-603.7243 504.5546,-577.651"/>
<polygon fill="#000000" stroke="#000000" stroke-width="2" points="508.1785,-575.525 498.7033,-567.0479 500.8241,-579.5836 508.1785,-575.525"/>
</g>
<!-- spi_3_m&#45;&gt;ndvi_act_min_m -->
<g id="edge14" class="edge">
<title>spi_3_m-&gt;ndvi_act_min_m</title>
<path fill="none" stroke="#000000" stroke-width="2" d="M146.6894,-681.5C140.068,-653.9156 139.8259,-622.16 141.3536,-596.6529"/>
<polygon fill="#000000" stroke="#000000" stroke-width="2" points="145.5428,-596.9522 142.2255,-584.6788 137.165,-596.3421 145.5428,-596.9522"/>
</g>
<!-- chicken_number_s -->
<g id="node6" class="node rankB">
<title>chicken_number_s</title>
<path fill="none" stroke="#000000" d="M246.6894,-778.5C246.6894,-778.5 378.6894,-778.5 378.6894,-778.5 384.6894,-778.5 390.6894,-784.5 390.6894,-790.5 390.6894,-790.5 390.6894,-814.5 390.6894,-814.5 390.6894,-820.5 384.6894,-826.5 378.6894,-826.5 378.6894,-826.5 246.6894,-826.5 246.6894,-826.5 240.6894,-826.5 234.6894,-820.5 234.6894,-814.5 234.6894,-814.5 234.6894,-790.5 234.6894,-790.5 234.6894,-784.5 240.6894,-778.5 246.6894,-778.5"/>
<text text-anchor="start" x="241.6894" y="-807.7" font-family="Helvetica, Arial, sans-serif" font-size="16.00" fill="#000000">Count of livestock</text>
<text text-anchor="start" x="278.1894" y="-789.7" font-family="Helvetica, Arial, sans-serif" font-size="16.00" fill="#000000">chickens</text>
</g>
<!-- spi_3_m&#45;&gt;chicken_number_s -->
<g id="edge10" class="edge">
<title>spi_3_m-&gt;chicken_number_s</title>
<path fill="none" stroke="#000000" stroke-width="2" d="M312.6894,-887.1151C312.6894,-871.3487 312.6894,-853.8834 312.6894,-838.9345"/>
<polygon fill="#000000" stroke="#000000" stroke-width="2" points="308.4895,-887.3591 312.6894,-899.3591 316.8895,-887.3592 308.4895,-887.3591"/>
<polygon fill="#000000" stroke="#000000" stroke-width="2" points="316.8895,-838.5512 312.6894,-826.5512 308.4895,-838.5512 316.8895,-838.5512"/>
</g>
<!-- rurpop_s -->
<g id="node8" class="node rankB">
<title>rurpop_s</title>
<path fill="none" stroke="#000000" d="M117.1894,-242.5C117.1894,-242.5 302.1894,-242.5 302.1894,-242.5 308.1894,-242.5 314.1894,-248.5 314.1894,-254.5 314.1894,-254.5 314.1894,-266.5 314.1894,-266.5 314.1894,-272.5 308.1894,-278.5 302.1894,-278.5 302.1894,-278.5 117.1894,-278.5 117.1894,-278.5 111.1894,-278.5 105.1894,-272.5 105.1894,-266.5 105.1894,-266.5 105.1894,-254.5 105.1894,-254.5 105.1894,-248.5 111.1894,-242.5 117.1894,-242.5"/>
<text text-anchor="start" x="112.6894" y="-256.7" font-family="Helvetica, Arial, sans-serif" font-size="16.00" fill="#000000">Population in rural areas</text>
</g>
<!-- spi_3_m&#45;&gt;rurpop_s -->
<g id="edge11" class="edge">
<title>spi_3_m-&gt;rurpop_s</title>
<path fill="none" stroke="#000000" stroke-width="2" d="M279.3983,-899.3334C237.3674,-854.567 167.9685,-770.1481 146.6894,-681.5"/>
<path fill="none" stroke="#000000" stroke-width="2" d="M146.6894,-681.5C118.7955,-624.5863 71.6574,-640.8494 41.6894,-585 1.4754,-510.0559 -11.6174,-477.7959 11.6894,-396"/>
<path fill="none" stroke="#000000" stroke-width="2" d="M11.6894,-396C26.8677,-338.6569 86.4295,-303.1814 136.2988,-282.9891"/>
<polygon fill="#000000" stroke="#000000" stroke-width="2" points="138.0825,-286.8021 147.7504,-278.5455 135.0438,-278.971 138.0825,-286.8021"/>
</g>
<!-- rurratio_s&#45;&gt;locdensity_y -->
<g id="edge19" class="edge">
<title>rurratio_s-&gt;locdensity_y</title>
<path fill="none" stroke="#000000" stroke-width="2" d="M406.0309,-657.1975C423.1235,-634.5498 448.6013,-600.7917 466.5432,-577.0187"/>
<polygon fill="#000000" stroke="#000000" stroke-width="2" points="470.0853,-579.2975 473.9618,-567.189 463.3805,-574.2372 470.0853,-579.2975"/>
</g>
<!-- rurratio_s&#45;&gt;ndvi_act_min_m -->
<g id="edge20" class="edge">
<title>rurratio_s-&gt;ndvi_act_min_m</title>
<path fill="none" stroke="#000000" stroke-width="2" d="M332.9712,-651.4164C300.3201,-633.465 258.3777,-610.4054 222.5611,-590.7137"/>
<polygon fill="#000000" stroke="#000000" stroke-width="2" points="331.2275,-655.2506 343.7665,-657.3515 335.2744,-647.8897 331.2275,-655.2506"/>
<polygon fill="#000000" stroke="#000000" stroke-width="2" points="224.1984,-586.821 211.6594,-584.72 220.1514,-594.1819 224.1984,-586.821"/>
</g>
<!-- rurratio_s&#45;&gt;rurpop_s -->
<g id="edge18" class="edge">
<title>rurratio_s-&gt;rurpop_s</title>
<path fill="none" stroke="#000000" stroke-width="2" d="M388.6169,-657.3251C389.9065,-607.5083 389.724,-490.194 364.6894,-396"/>
<path fill="none" stroke="#000000" stroke-width="2" d="M364.6894,-396C347.1611,-345.0224 296.4875,-307.0804 257.8069,-284.5081"/>
<polygon fill="#000000" stroke="#000000" stroke-width="2" points="259.7674,-280.7918 247.2526,-278.5511 255.6385,-288.1071 259.7674,-280.7918"/>
</g>
<!-- acl_sum_fatl_m -->
<g id="node10" class="node rankC">
<title>acl_sum_fatl_m</title>
<path fill="none" stroke="#000000" d="M253.6894,-121.5C253.6894,-121.5 431.6894,-121.5 431.6894,-121.5 437.6894,-121.5 443.6894,-127.5 443.6894,-133.5 443.6894,-133.5 443.6894,-157.5 443.6894,-157.5 443.6894,-163.5 437.6894,-169.5 431.6894,-169.5 431.6894,-169.5 253.6894,-169.5 253.6894,-169.5 247.6894,-169.5 241.6894,-163.5 241.6894,-157.5 241.6894,-157.5 241.6894,-133.5 241.6894,-133.5 241.6894,-127.5 247.6894,-121.5 253.6894,-121.5"/>
<text text-anchor="start" x="248.6894" y="-150.7" font-family="Helvetica, Arial, sans-serif" font-size="16.00" fill="#000000">Reported fatalities from</text>
<text text-anchor="start" x="284.6894" y="-132.7" font-family="Helvetica, Arial, sans-serif" font-size="16.00" fill="#000000">conflict events</text>
</g>
<!-- rurratio_s&#45;&gt;acl_sum_fatl_m -->
<g id="edge21" class="edge">
<title>rurratio_s-&gt;acl_sum_fatl_m</title>
<path fill="none" stroke="#000000" stroke-width="2" d="M364.6894,-396C339.6168,-323.081 338.669,-231.5389 340.4916,-181.7822"/>
<polygon fill="#000000" stroke="#000000" stroke-width="2" points="344.6882,-181.9502 341.0165,-169.7781 336.2962,-181.5832 344.6882,-181.9502"/>
</g>
<!-- yield_gap_soybean_s -->
<g id="node7" class="node rankB">
<title>yield_gap_soybean_s</title>
<path fill="none" stroke="#000000" d="M101.1894,-351.5C101.1894,-351.5 308.1894,-351.5 308.1894,-351.5 314.1894,-351.5 320.1894,-357.5 320.1894,-363.5 320.1894,-363.5 320.1894,-428.5 320.1894,-428.5 320.1894,-434.5 314.1894,-440.5 308.1894,-440.5 308.1894,-440.5 101.1894,-440.5 101.1894,-440.5 95.1894,-440.5 89.1894,-434.5 89.1894,-428.5 89.1894,-428.5 89.1894,-363.5 89.1894,-363.5 89.1894,-357.5 95.1894,-351.5 101.1894,-351.5"/>
<text text-anchor="start" x="96.6894" y="-421.7" font-family="Helvetica, Arial, sans-serif" font-size="16.00" fill="#000000">Gap between observed and</text>
<text text-anchor="start" x="113.1894" y="-403.7" font-family="Helvetica, Arial, sans-serif" font-size="16.00" fill="#000000">potential soybean yield</text>
<polyline fill="none" stroke="#000000" points="89.1894,-392.5 320.1894,-392.5 "/>
<text text-anchor="start" x="159.6894" y="-375.8" font-family="Helvetica, Arial, sans-serif" font-size="14.00" fill="#000000">effect: 0.022</text>
<text text-anchor="start" x="162.1894" y="-359.8" font-family="Helvetica, Arial, sans-serif" font-size="14.00" fill="#000000">error: 0.031</text>
</g>
<!-- locdensity_y&#45;&gt;yield_gap_soybean_s -->
<g id="edge23" class="edge">
<title>locdensity_y-&gt;yield_gap_soybean_s</title>
<path fill="none" stroke="#000000" stroke-width="2" d="M454.3935,-530.999C416.1079,-510.3005 351.6077,-475.4294 297.7529,-446.3135"/>
<polygon fill="#000000" stroke="#000000" stroke-width="2" points="299.6883,-442.5854 287.1348,-440.573 295.6934,-449.9746 299.6883,-442.5854"/>
</g>
<!-- locdensity_y&#45;&gt;rurpop_s -->
<g id="edge22" class="edge">
<title>locdensity_y-&gt;rurpop_s</title>
<path fill="none" stroke="#000000" stroke-width="2" d="M492.0955,-530.6704C498.2807,-501.0173 506.7837,-441.2792 487.6894,-396"/>
<path fill="none" stroke="#000000" stroke-width="2" d="M487.6894,-396C460.6349,-331.8445 389.6547,-297.9165 326.1929,-280.0545"/>
<polygon fill="#000000" stroke="#000000" stroke-width="2" points="327.1214,-275.9551 314.443,-276.9025 324.945,-284.0683 327.1214,-275.9551"/>
</g>
<!-- acl_sum_evnt_m -->
<g id="node9" class="node rankC">
<title>acl_sum_evnt_m</title>
<path fill="none" stroke="#000000" d="M254.1894,-.5C254.1894,-.5 431.1894,-.5 431.1894,-.5 437.1894,-.5 443.1894,-6.5 443.1894,-12.5 443.1894,-12.5 443.1894,-36.5 443.1894,-36.5 443.1894,-42.5 437.1894,-48.5 431.1894,-48.5 431.1894,-48.5 254.1894,-48.5 254.1894,-48.5 248.1894,-48.5 242.1894,-42.5 242.1894,-36.5 242.1894,-36.5 242.1894,-12.5 242.1894,-12.5 242.1894,-6.5 248.1894,-.5 254.1894,-.5"/>
<text text-anchor="start" x="249.6894" y="-29.7" font-family="Helvetica, Arial, sans-serif" font-size="16.00" fill="#000000">Total number of conflict</text>
<text text-anchor="start" x="316.6894" y="-11.7" font-family="Helvetica, Arial, sans-serif" font-size="16.00" fill="#000000">events</text>
</g>
<!-- locdensity_y&#45;&gt;acl_sum_evnt_m -->
<g id="edge24" class="edge">
<title>locdensity_y-&gt;acl_sum_evnt_m</title>
<path fill="none" stroke="#000000" stroke-width="2" d="M487.6894,-260.5C470.0875,-199.5742 490.4162,-175.3207 457.6894,-121 441.8725,-94.7468 416.3201,-72.2501 393.3142,-55.5986"/>
<polygon fill="#000000" stroke="#000000" stroke-width="2" points="395.5479,-52.0355 383.3079,-48.5969 390.7321,-58.9179 395.5479,-52.0355"/>
</g>
<!-- locdensity_y&#45;&gt;acl_sum_fatl_m -->
<g id="edge25" class="edge">
<title>locdensity_y-&gt;acl_sum_fatl_m</title>
<path fill="none" stroke="#000000" stroke-width="2" d="M487.6894,-396C464.2891,-340.51 504.4044,-318.3561 487.6894,-260.5"/>
<path fill="none" stroke="#000000" stroke-width="2" d="M487.6894,-260.5C476.7128,-222.5066 442.7713,-194.4631 410.4857,-175.5846"/>
<polygon fill="#000000" stroke="#000000" stroke-width="2" points="412.1616,-171.7103 399.6357,-169.5326 408.0696,-179.0462 412.1616,-171.7103"/>
</g>
<!-- ndvi_act_min_m&#45;&gt;yield_gap_soybean_s -->
<g id="edge27" class="edge">
<title>ndvi_act_min_m-&gt;yield_gap_soybean_s</title>
<path fill="none" stroke="#000000" stroke-width="2" d="M160.2878,-513.1283C167.1772,-494.9545 175.7003,-472.471 183.4314,-452.0771"/>
<polygon fill="#000000" stroke="#000000" stroke-width="2" points="187.4246,-453.3917 187.751,-440.6821 179.57,-450.4141 187.4246,-453.3917"/>
</g>
<!-- ndvi_act_min_m&#45;&gt;rurpop_s -->
<g id="edge26" class="edge">
<title>ndvi_act_min_m-&gt;rurpop_s</title>
<path fill="none" stroke="#000000" stroke-width="2" d="M81.585,-513.4884C40.6467,-485.8662 -2.0466,-444.2067 11.6894,-396"/>
</g>
<!-- chicken_number_s&#45;&gt;rurratio_s -->
<g id="edge7" class="edge">
<title>chicken_number_s-&gt;rurratio_s</title>
<path fill="none" stroke="#000000" stroke-width="2" d="M327.6865,-778.3047C338.7745,-760.4159 354.0278,-735.8073 366.3803,-715.8787"/>
<polygon fill="#000000" stroke="#000000" stroke-width="2" points="369.966,-718.0657 372.7182,-705.6534 362.8263,-713.6403 369.966,-718.0657"/>
</g>
<!-- chicken_number_s&#45;&gt;ndvi_act_min_m -->
<g id="edge8" class="edge">
<title>chicken_number_s-&gt;ndvi_act_min_m</title>
<path fill="none" stroke="#000000" stroke-width="2" d="M293.2745,-778.0859C275.6892,-754.6789 250.4854,-717.6562 236.6894,-681.5"/>
<path fill="none" stroke="#000000" stroke-width="2" d="M236.6894,-681.5C224.6653,-649.9877 203.8323,-618.5929 185.2366,-594.2779"/>
<polygon fill="#000000" stroke="#000000" stroke-width="2" points="188.4075,-591.5146 177.7067,-584.6491 181.7905,-596.6892 188.4075,-591.5146"/>
</g>
<!-- chicken_number_s&#45;&gt;yield_gap_soybean_s -->
<g id="edge6" class="edge">
<title>chicken_number_s-&gt;yield_gap_soybean_s</title>
<path fill="none" stroke="#000000" stroke-width="2" d="M236.6894,-681.5C221.216,-640.9479 248.3461,-628.275 251.6894,-585 254.1542,-553.0951 257.7639,-544.4181 251.6894,-513 247.696,-492.3462 240.0777,-470.7115 232.1187,-451.7428"/>
<polygon fill="#000000" stroke="#000000" stroke-width="2" points="235.9166,-449.9443 227.2838,-440.6108 228.2119,-453.2906 235.9166,-449.9443"/>
</g>
<!-- yield_gap_soybean_s&#45;&gt;rurpop_s -->
<g id="edge17" class="edge">
<title>yield_gap_soybean_s-&gt;rurpop_s</title>
<path fill="none" stroke="#000000" stroke-width="2" d="M206.3404,-351.2567C207.0693,-331.5034 207.9075,-308.7891 208.5629,-291.0258"/>
<polygon fill="#000000" stroke="#000000" stroke-width="2" points="212.7683,-290.9561 209.0137,-278.8093 204.374,-290.6463 212.7683,-290.9561"/>
</g>
<!-- rurpop_s&#45;&gt;acl_sum_evnt_m -->
<g id="edge15" class="edge">
<title>rurpop_s-&gt;acl_sum_evnt_m</title>
<path fill="none" stroke="#000000" stroke-width="2" d="M207.8021,-242.0432C205.8102,-214.0476 205.4365,-159.9878 226.6894,-121 241.2702,-94.2519 266.541,-71.8919 289.7809,-55.453"/>
<polygon fill="#000000" stroke="#000000" stroke-width="2" points="292.367,-58.7734 299.9236,-48.5489 287.6403,-51.8294 292.367,-58.7734"/>
</g>
<!-- rurpop_s&#45;&gt;acl_sum_fatl_m -->
<g id="edge16" class="edge">
<title>rurpop_s-&gt;acl_sum_fatl_m</title>
<path fill="none" stroke="#000000" stroke-width="2" d="M230.7636,-242.2779C250.8092,-224.9452 281.4034,-198.4916 305.5422,-177.6197"/>
<polygon fill="#000000" stroke="#000000" stroke-width="2" points="308.4438,-180.6632 314.774,-169.6373 302.9496,-174.3091 308.4438,-180.6632"/>
</g>
<!-- acl_sum_fatl_m&#45;&gt;acl_sum_evnt_m -->
<g id="edge29" class="edge">
<title>acl_sum_fatl_m-&gt;acl_sum_evnt_m</title>
<path fill="none" stroke="#000000" stroke-width="2" d="M342.6894,-121.3047C342.6894,-103.993 342.6894,-80.388 342.6894,-60.8215"/>
<polygon fill="#000000" stroke="#000000" stroke-width="2" points="346.8895,-60.6534 342.6894,-48.6534 338.4895,-60.6534 346.8895,-60.6534"/>
</g>
</g>
<style>.node path {
  stroke: #fff;
}
.node text {
  fill: #fff;
}
.node polyline {
  stroke: #fff;
}
.rankA path {
  fill: #2e3348;
}
.rankB path {
  fill: #437387;
}
.rankC path {
  fill: #1b6002;
}
.edge path {
  stroke: #666;
};
</style></svg>
