<?xml version="1.0" encoding="UTF-8" standalone="no"?>
<!DOCTYPE svg PUBLIC "-//W3C//DTD SVG 1.1//EN" "http://www.w3.org/Graphics/SVG/1.1/DTD/svg11.dtd">
<!-- Generated by graphviz version 2.40.1 (20161225.0304)
 -->
<!-- Title: causalModel Pages: 1 -->
<svg xmlns="http://www.w3.org/2000/svg" xmlns:xlink="http://www.w3.org/1999/xlink" width="" height="" viewBox="0.00 0.00 531.00 1014.00" preserveAspectRatio="xMinYMin">
<g id="graph0" class="graph" transform="scale(1 1) rotate(0) translate(4 1010)">
<title>causalModel</title>
<polygon fill="#ffffff" stroke="transparent" points="-4,4 -4,-1010 527,-1010 527,4 -4,4"/>
<text text-anchor="middle" x="261.5" y="-7.8" font-family="Helvetica, Arial, sans-serif" font-size="14.00" fill="#000000">Causal Model: Latin America and Caribbean</text>
<!-- et_anom_m_STD_m -->
<g id="node1" class="node rankB">
<title>et_anom_m_STD_m</title>
<path fill="none" stroke="#000000" d="M171.5,-898.5C171.5,-898.5 315.5,-898.5 315.5,-898.5 321.5,-898.5 327.5,-904.5 327.5,-910.5 327.5,-910.5 327.5,-993.5 327.5,-993.5 327.5,-999.5 321.5,-1005.5 315.5,-1005.5 315.5,-1005.5 171.5,-1005.5 171.5,-1005.5 165.5,-1005.5 159.5,-999.5 159.5,-993.5 159.5,-993.5 159.5,-910.5 159.5,-910.5 159.5,-904.5 165.5,-898.5 171.5,-898.5"/>
<text text-anchor="start" x="198.5" y="-986.7" font-family="Helvetica, Arial, sans-serif" font-size="16.00" fill="#000000">Variation in</text>
<text text-anchor="start" x="168.5" y="-968.7" font-family="Helvetica, Arial, sans-serif" font-size="16.00" fill="#000000">evapotranspiration</text>
<text text-anchor="start" x="210" y="-950.7" font-family="Helvetica, Arial, sans-serif" font-size="16.00" fill="#000000">patterns</text>
<polyline fill="none" stroke="#000000" points="159.5,-939.5 327.5,-939.5 "/>
<text text-anchor="start" x="195.5" y="-922.8" font-family="Helvetica, Arial, sans-serif" font-size="14.00" fill="#000000">effect: -0.032</text>
<text text-anchor="start" x="200.5" y="-906.8" font-family="Helvetica, Arial, sans-serif" font-size="14.00" fill="#000000">error: 0.044</text>
</g>
<!-- spi_3_m -->
<g id="node3" class="node rankB">
<title>spi_3_m</title>
<path fill="none" stroke="#000000" d="M176,-795.5C176,-795.5 311,-795.5 311,-795.5 317,-795.5 323,-801.5 323,-807.5 323,-807.5 323,-849.5 323,-849.5 323,-855.5 317,-861.5 311,-861.5 311,-861.5 176,-861.5 176,-861.5 170,-861.5 164,-855.5 164,-849.5 164,-849.5 164,-807.5 164,-807.5 164,-801.5 170,-795.5 176,-795.5"/>
<text text-anchor="start" x="198.5" y="-842.7" font-family="Helvetica, Arial, sans-serif" font-size="16.00" fill="#000000">Variation of</text>
<text text-anchor="start" x="173.5" y="-824.7" font-family="Helvetica, Arial, sans-serif" font-size="16.00" fill="#000000">precipitation over</text>
<text text-anchor="start" x="183" y="-806.7" font-family="Helvetica, Arial, sans-serif" font-size="16.00" fill="#000000">3-month period</text>
</g>
<!-- et_anom_m_STD_m&#45;&gt;spi_3_m -->
<g id="edge1" class="edge">
<title>et_anom_m_STD_m-&gt;spi_3_m</title>
<path fill="none" stroke="#666666" stroke-width="2" d="M243.5,-886.1307C243.5,-881.9995 243.5,-877.8931 243.5,-873.8857"/>
<polygon fill="#666666" stroke="#666666" stroke-width="2" points="239.3001,-886.1903 243.5,-898.1904 247.7001,-886.1904 239.3001,-886.1903"/>
<polygon fill="#666666" stroke="#666666" stroke-width="2" points="247.7001,-873.5146 243.5,-861.5146 239.3001,-873.5146 247.7001,-873.5146"/>
</g>
<!-- rurratio_s -->
<g id="node6" class="node rankB">
<title>rurratio_s</title>
<path fill="none" stroke="#000000" d="M12,-463.5C12,-463.5 127,-463.5 127,-463.5 133,-463.5 139,-469.5 139,-475.5 139,-475.5 139,-535.5 139,-535.5 139,-541.5 133,-547.5 127,-547.5 127,-547.5 12,-547.5 12,-547.5 6,-547.5 0,-541.5 0,-535.5 0,-535.5 0,-475.5 0,-475.5 0,-469.5 6,-463.5 12,-463.5"/>
<text text-anchor="start" x="15" y="-528.7" font-family="Helvetica, Arial, sans-serif" font-size="16.00" fill="#000000">Percentage of</text>
<text text-anchor="start" x="9.5" y="-510.7" font-family="Helvetica, Arial, sans-serif" font-size="16.00" fill="#000000">population that</text>
<text text-anchor="start" x="24.5" y="-492.7" font-family="Helvetica, Arial, sans-serif" font-size="16.00" fill="#000000">live in rural</text>
<text text-anchor="start" x="47.5" y="-474.7" font-family="Helvetica, Arial, sans-serif" font-size="16.00" fill="#000000">areas</text>
</g>
<!-- et_anom_m_STD_m&#45;&gt;rurratio_s -->
<g id="edge2" class="edge">
<title>et_anom_m_STD_m-&gt;rurratio_s</title>
<path fill="none" stroke="#666666" stroke-width="2" d="M159.4014,-902.7622C104.3696,-863.4066 45.2522,-803.5271 60.5,-734.5"/>
<path fill="none" stroke="#666666" stroke-width="2" d="M60.5,-734.5C64.1327,-687.752 73.9089,-673.9307 60.5,-629"/>
<path fill="none" stroke="#666666" stroke-width="2" d="M60.5,-629C53.9169,-606.9415 54.4157,-581.7288 57.2236,-559.86"/>
<polygon fill="#666666" stroke="#666666" stroke-width="2" points="61.412,-560.2511 59.0488,-547.7588 53.106,-558.9982 61.412,-560.2511"/>
</g>
<!-- locdensity_y -->
<g id="node7" class="node rankB">
<title>locdensity_y</title>
<path fill="none" stroke="#000000" d="M372,-390.5C372,-390.5 511,-390.5 511,-390.5 517,-390.5 523,-396.5 523,-402.5 523,-402.5 523,-414.5 523,-414.5 523,-420.5 517,-426.5 511,-426.5 511,-426.5 372,-426.5 372,-426.5 366,-426.5 360,-420.5 360,-414.5 360,-414.5 360,-402.5 360,-402.5 360,-396.5 366,-390.5 372,-390.5"/>
<text text-anchor="start" x="369.5" y="-404.7" font-family="Helvetica, Arial, sans-serif" font-size="16.00" fill="#000000">Population density</text>
</g>
<!-- et_anom_m_STD_m&#45;&gt;locdensity_y -->
<g id="edge3" class="edge">
<title>et_anom_m_STD_m-&gt;locdensity_y</title>
<path fill="none" stroke="#666666" stroke-width="2" d="M327.6514,-921.3845C402.6035,-888.0587 500.5,-826.8539 500.5,-734.5 500.5,-734.5 500.5,-734.5 500.5,-629 500.5,-558.4878 471.9965,-479.4705 454.6129,-437.8363"/>
<polygon fill="#666666" stroke="#666666" stroke-width="2" points="458.4071,-436.0269 449.8281,-426.6438 450.6833,-439.3288 458.4071,-436.0269"/>
</g>
<!-- ndvi_act_min_m -->
<g id="node8" class="node rankB">
<title>ndvi_act_min_m</title>
<path fill="none" stroke="#000000" d="M117,-584.5C117,-584.5 200,-584.5 200,-584.5 206,-584.5 212,-590.5 212,-596.5 212,-596.5 212,-661.5 212,-661.5 212,-667.5 206,-673.5 200,-673.5 200,-673.5 117,-673.5 117,-673.5 111,-673.5 105,-667.5 105,-661.5 105,-661.5 105,-596.5 105,-596.5 105,-590.5 111,-584.5 117,-584.5"/>
<text text-anchor="start" x="118.5" y="-654.7" font-family="Helvetica, Arial, sans-serif" font-size="16.00" fill="#000000">Density of</text>
<text text-anchor="start" x="117.5" y="-636.7" font-family="Helvetica, Arial, sans-serif" font-size="16.00" fill="#000000">greenness</text>
<polyline fill="none" stroke="#000000" points="105,-625.5 212,-625.5 "/>
<text text-anchor="start" x="113.5" y="-608.8" font-family="Helvetica, Arial, sans-serif" font-size="14.00" fill="#000000">effect: 0.044</text>
<text text-anchor="start" x="125" y="-592.8" font-family="Helvetica, Arial, sans-serif" font-size="14.00" fill="#000000">error: 0.1</text>
</g>
<!-- et_anom_m_STD_m&#45;&gt;ndvi_act_min_m -->
<g id="edge4" class="edge">
<title>et_anom_m_STD_m-&gt;ndvi_act_min_m</title>
<path fill="none" stroke="#666666" stroke-width="2" d="M60.5,-734.5C65.4819,-711.947 79.6323,-691.9315 95.6844,-675.5594"/>
<polygon fill="#666666" stroke="#666666" stroke-width="2" points="99.0097,-678.1889 104.7518,-666.8457 93.1892,-672.1322 99.0097,-678.1889"/>
</g>
<!-- chicken_number_s -->
<g id="node2" class="node rankB">
<title>chicken_number_s</title>
<path fill="none" stroke="#000000" d="M175.5,-710.5C175.5,-710.5 311.5,-710.5 311.5,-710.5 317.5,-710.5 323.5,-716.5 323.5,-722.5 323.5,-722.5 323.5,-746.5 323.5,-746.5 323.5,-752.5 317.5,-758.5 311.5,-758.5 311.5,-758.5 175.5,-758.5 175.5,-758.5 169.5,-758.5 163.5,-752.5 163.5,-746.5 163.5,-746.5 163.5,-722.5 163.5,-722.5 163.5,-716.5 169.5,-710.5 175.5,-710.5"/>
<text text-anchor="start" x="172.5" y="-739.7" font-family="Helvetica, Arial, sans-serif" font-size="16.00" fill="#000000">Count of livestock</text>
<text text-anchor="start" x="209" y="-721.7" font-family="Helvetica, Arial, sans-serif" font-size="16.00" fill="#000000">chickens</text>
</g>
<!-- yield_gap_soybean_s -->
<g id="node5" class="node rankB">
<title>yield_gap_soybean_s</title>
<path fill="none" stroke="#000000" d="M123.5,-228.5C123.5,-228.5 259.5,-228.5 259.5,-228.5 265.5,-228.5 271.5,-234.5 271.5,-240.5 271.5,-240.5 271.5,-341.5 271.5,-341.5 271.5,-347.5 265.5,-353.5 259.5,-353.5 259.5,-353.5 123.5,-353.5 123.5,-353.5 117.5,-353.5 111.5,-347.5 111.5,-341.5 111.5,-341.5 111.5,-240.5 111.5,-240.5 111.5,-234.5 117.5,-228.5 123.5,-228.5"/>
<text text-anchor="start" x="139" y="-334.7" font-family="Helvetica, Arial, sans-serif" font-size="16.00" fill="#000000">Gap between</text>
<text text-anchor="start" x="137.5" y="-316.7" font-family="Helvetica, Arial, sans-serif" font-size="16.00" fill="#000000">observed and</text>
<text text-anchor="start" x="120.5" y="-298.7" font-family="Helvetica, Arial, sans-serif" font-size="16.00" fill="#000000">potential soybean</text>
<text text-anchor="start" x="172.5" y="-280.7" font-family="Helvetica, Arial, sans-serif" font-size="16.00" fill="#000000">yield</text>
<polyline fill="none" stroke="#000000" points="111.5,-269.5 271.5,-269.5 "/>
<text text-anchor="start" x="146.5" y="-252.8" font-family="Helvetica, Arial, sans-serif" font-size="14.00" fill="#000000">effect: 0.022</text>
<text text-anchor="start" x="149" y="-236.8" font-family="Helvetica, Arial, sans-serif" font-size="14.00" fill="#000000">error: 0.031</text>
</g>
<!-- chicken_number_s&#45;&gt;yield_gap_soybean_s -->
<g id="edge6" class="edge">
<title>chicken_number_s-&gt;yield_gap_soybean_s</title>
<path fill="none" stroke="#666666" stroke-width="2" d="M242.4836,-710.1436C239.8844,-653.621 231.8629,-509.2658 213.5,-390 212.2759,-382.0496 210.788,-373.7838 209.1695,-365.5683"/>
<polygon fill="#666666" stroke="#666666" stroke-width="2" points="213.2428,-364.5235 206.7202,-353.6104 205.0136,-366.2091 213.2428,-364.5235"/>
</g>
<!-- chicken_number_s&#45;&gt;rurratio_s -->
<g id="edge7" class="edge">
<title>chicken_number_s-&gt;rurratio_s</title>
<path fill="none" stroke="#666666" stroke-width="2" d="M163.0608,-715.8377C120.3905,-700.7662 74.0286,-674.3317 60.5,-629"/>
</g>
<!-- chicken_number_s&#45;&gt;ndvi_act_min_m -->
<g id="edge8" class="edge">
<title>chicken_number_s-&gt;ndvi_act_min_m</title>
<path fill="none" stroke="#666666" stroke-width="2" d="M223.9993,-710.2962C217.456,-702.1748 209.8718,-692.7615 202.2345,-683.2822"/>
<polygon fill="#666666" stroke="#666666" stroke-width="2" points="205.4153,-680.5358 194.616,-673.8263 198.8742,-685.8059 205.4153,-680.5358"/>
</g>
<!-- spi_3_m&#45;&gt;chicken_number_s -->
<g id="edge10" class="edge">
<title>spi_3_m-&gt;chicken_number_s</title>
<path fill="none" stroke="#666666" stroke-width="2" d="M243.5,-783.191C243.5,-779.1093 243.5,-775.0104 243.5,-771.0179"/>
<polygon fill="#666666" stroke="#666666" stroke-width="2" points="239.3001,-783.3591 243.5,-795.3591 247.7001,-783.3592 239.3001,-783.3591"/>
<polygon fill="#666666" stroke="#666666" stroke-width="2" points="247.7001,-770.778 243.5,-758.778 239.3001,-770.778 247.7001,-770.778"/>
</g>
<!-- rurpop_s -->
<g id="node4" class="node rankB">
<title>rurpop_s</title>
<path fill="none" stroke="#000000" d="M65,-143.5C65,-143.5 162,-143.5 162,-143.5 168,-143.5 174,-149.5 174,-155.5 174,-155.5 174,-179.5 174,-179.5 174,-185.5 168,-191.5 162,-191.5 162,-191.5 65,-191.5 65,-191.5 59,-191.5 53,-185.5 53,-179.5 53,-179.5 53,-155.5 53,-155.5 53,-149.5 59,-143.5 65,-143.5"/>
<text text-anchor="start" x="62.5" y="-172.7" font-family="Helvetica, Arial, sans-serif" font-size="16.00" fill="#000000">Population in</text>
<text text-anchor="start" x="70" y="-154.7" font-family="Helvetica, Arial, sans-serif" font-size="16.00" fill="#000000">rural areas</text>
</g>
<!-- spi_3_m&#45;&gt;rurpop_s -->
<g id="edge11" class="edge">
<title>spi_3_m-&gt;rurpop_s</title>
<path fill="none" stroke="#666666" stroke-width="2" d="M298.6137,-795.4774C312.6472,-785.1319 326.7747,-772.7702 337.5,-759 412.3312,-662.9242 476.0904,-622.2638 441.5,-505.5"/>
<path fill="none" stroke="#666666" stroke-width="2" d="M441.5,-505.5C428.4217,-451.959 376.1225,-472.8251 345.5,-427 294.1745,-350.1936 349.3214,-294.7859 285.5,-228 259.4813,-200.7728 220.4977,-185.7857 186.2192,-177.5425"/>
<polygon fill="#666666" stroke="#666666" stroke-width="2" points="186.945,-173.4014 174.3197,-174.899 185.1233,-181.6015 186.945,-173.4014"/>
</g>
<!-- spi_3_m&#45;&gt;rurratio_s -->
<g id="edge12" class="edge">
<title>spi_3_m-&gt;rurratio_s</title>
<path fill="none" stroke="#666666" stroke-width="2" d="M180.3524,-795.4829C157.3156,-780.1224 133.503,-759.6324 119.5,-734.5"/>
<path fill="none" stroke="#666666" stroke-width="2" d="M119.5,-734.5C93.352,-687.5697 75.8633,-680.4795 60.5,-629"/>
</g>
<!-- spi_3_m&#45;&gt;locdensity_y -->
<g id="edge13" class="edge">
<title>spi_3_m-&gt;locdensity_y</title>
<path fill="none" stroke="#666666" stroke-width="2" d="M441.5,-505.5C435.0956,-483.8811 435.3903,-458.3427 437.1286,-438.8982"/>
<polygon fill="#666666" stroke="#666666" stroke-width="2" points="441.32,-439.2067 438.4606,-426.8186 432.9706,-438.286 441.32,-439.2067"/>
</g>
<!-- spi_3_m&#45;&gt;ndvi_act_min_m -->
<g id="edge14" class="edge">
<title>spi_3_m-&gt;ndvi_act_min_m</title>
<path fill="none" stroke="#666666" stroke-width="2" d="M119.5,-734.5C110.8897,-719.0462 113.2575,-701.3181 119.9118,-684.8605"/>
<polygon fill="#666666" stroke="#666666" stroke-width="2" points="123.8456,-686.3631 125.1212,-673.7134 116.2356,-682.8066 123.8456,-686.3631"/>
</g>
<!-- acl_sum_evnt_m -->
<g id="node9" class="node rankC">
<title>acl_sum_evnt_m</title>
<path fill="none" stroke="#000000" d="M428.5,-98C428.5,-98 320.5,-98 320.5,-98 314.5,-98 308.5,-92 308.5,-86 308.5,-86 308.5,-60 308.5,-60 308.5,-54 314.5,-48 320.5,-48 320.5,-48 428.5,-48 428.5,-48 434.5,-48 440.5,-54 440.5,-60 440.5,-60 440.5,-86 440.5,-86 440.5,-92 434.5,-98 428.5,-98"/>
<text text-anchor="middle" x="374.5" y="-78.2" font-family="Helvetica, Arial, sans-serif" font-size="16.00" fill="#000000">Total number of</text>
<text text-anchor="middle" x="374.5" y="-60.2" font-family="Helvetica, Arial, sans-serif" font-size="16.00" fill="#000000">conflict events</text>
</g>
<!-- rurpop_s&#45;&gt;acl_sum_evnt_m -->
<g id="edge15" class="edge">
<title>rurpop_s-&gt;acl_sum_evnt_m</title>
<path fill="none" stroke="#666666" stroke-width="2" d="M174.0347,-145.5823C210.6298,-132.3323 257.6464,-115.309 296.9478,-101.0792"/>
<polygon fill="#666666" stroke="#666666" stroke-width="2" points="298.4902,-104.9877 308.3435,-96.9532 295.6304,-97.0895 298.4902,-104.9877"/>
</g>
<!-- acl_sum_fatl_m -->
<g id="node10" class="node rankC">
<title>acl_sum_fatl_m</title>
<path fill="none" stroke="#000000" d="M215.5,-107C215.5,-107 115.5,-107 115.5,-107 109.5,-107 103.5,-101 103.5,-95 103.5,-95 103.5,-51 103.5,-51 103.5,-45 109.5,-39 115.5,-39 115.5,-39 215.5,-39 215.5,-39 221.5,-39 227.5,-45 227.5,-51 227.5,-51 227.5,-95 227.5,-95 227.5,-101 221.5,-107 215.5,-107"/>
<text text-anchor="middle" x="165.5" y="-87.2" font-family="Helvetica, Arial, sans-serif" font-size="16.00" fill="#000000">Reported</text>
<text text-anchor="middle" x="165.5" y="-69.2" font-family="Helvetica, Arial, sans-serif" font-size="16.00" fill="#000000">fatalities from</text>
<text text-anchor="middle" x="165.5" y="-51.2" font-family="Helvetica, Arial, sans-serif" font-size="16.00" fill="#000000">conflict events</text>
</g>
<!-- rurpop_s&#45;&gt;acl_sum_fatl_m -->
<g id="edge16" class="edge">
<title>rurpop_s-&gt;acl_sum_fatl_m</title>
<path fill="none" stroke="#666666" stroke-width="2" d="M126.8913,-143.1639C131.17,-135.3881 136.0499,-126.5199 140.867,-117.7657"/>
<polygon fill="#666666" stroke="#666666" stroke-width="2" points="144.5616,-119.7635 146.6671,-107.2252 137.2022,-115.7138 144.5616,-119.7635"/>
</g>
<!-- yield_gap_soybean_s&#45;&gt;rurpop_s -->
<g id="edge17" class="edge">
<title>yield_gap_soybean_s-&gt;rurpop_s</title>
<path fill="none" stroke="#666666" stroke-width="2" d="M151.8145,-228.1646C146.1099,-219.1324 140.4249,-210.1311 135.2479,-201.9342"/>
<polygon fill="#666666" stroke="#666666" stroke-width="2" points="138.7349,-199.5898 128.7758,-191.6868 131.6327,-204.0754 138.7349,-199.5898"/>
</g>
<!-- rurratio_s&#45;&gt;rurpop_s -->
<g id="edge18" class="edge">
<title>rurratio_s-&gt;rurpop_s</title>
<path fill="none" stroke="#666666" stroke-width="2" d="M8.5,-291C16.0805,-253.7913 44.8393,-221.4972 70.3456,-199.2737"/>
<polygon fill="#666666" stroke="#666666" stroke-width="2" points="73.0566,-202.4816 79.5503,-191.5512 67.6577,-196.0464 73.0566,-202.4816"/>
</g>
<!-- rurratio_s&#45;&gt;locdensity_y -->
<g id="edge19" class="edge">
<title>rurratio_s-&gt;locdensity_y</title>
<path fill="none" stroke="#666666" stroke-width="2" d="M139.034,-487.3688C201.9212,-470.9708 294.5304,-446.8227 360.6887,-429.5718"/>
<polygon fill="#666666" stroke="#666666" stroke-width="2" points="361.7552,-433.6342 372.3071,-426.5422 359.6357,-425.506 361.7552,-433.6342"/>
</g>
<!-- rurratio_s&#45;&gt;acl_sum_fatl_m -->
<g id="edge21" class="edge">
<title>rurratio_s-&gt;acl_sum_fatl_m</title>
<path fill="none" stroke="#666666" stroke-width="2" d="M44.9823,-463.2382C23.0535,-420.3133 -3.8661,-351.699 8.5,-291"/>
<path fill="none" stroke="#666666" stroke-width="2" d="M8.5,-291C17.9774,-224.557 -1.2314,-197.0917 38.5,-143 52.144,-124.4246 72.2706,-110.1828 92.4986,-99.5507"/>
<polygon fill="#666666" stroke="#666666" stroke-width="2" points="94.4876,-103.2525 103.3777,-94.1637 90.7601,-95.7249 94.4876,-103.2525"/>
</g>
<!-- locdensity_y&#45;&gt;rurpop_s -->
<g id="edge22" class="edge">
<title>locdensity_y-&gt;rurpop_s</title>
<path fill="none" stroke="#666666" stroke-width="2" d="M433.2436,-390.362C421.8679,-366.3622 399.8769,-323.3231 374.5,-291"/>
<path fill="none" stroke="#666666" stroke-width="2" d="M374.5,-291C354.4479,-265.4592 363.3153,-247.6975 337.5,-228 313.7062,-209.8449 242.0628,-192.3821 186.1358,-180.9248"/>
<polygon fill="#666666" stroke="#666666" stroke-width="2" points="186.6968,-176.7535 174.1038,-178.5019 185.0385,-184.9882 186.6968,-176.7535"/>
</g>
<!-- locdensity_y&#45;&gt;yield_gap_soybean_s -->
<g id="edge23" class="edge">
<title>locdensity_y-&gt;yield_gap_soybean_s</title>
<path fill="none" stroke="#666666" stroke-width="2" d="M402.9854,-390.3981C370.9868,-375.3588 324.1574,-353.349 282.694,-333.8612"/>
<polygon fill="#666666" stroke="#666666" stroke-width="2" points="284.3681,-330.0073 271.7213,-328.704 280.795,-337.6095 284.3681,-330.0073"/>
</g>
<!-- locdensity_y&#45;&gt;acl_sum_evnt_m -->
<g id="edge24" class="edge">
<title>locdensity_y-&gt;acl_sum_evnt_m</title>
<path fill="none" stroke="#666666" stroke-width="2" d="M374.5,-167.5C366.6412,-149.7977 366.0306,-128.3258 367.6544,-110.3257"/>
<polygon fill="#666666" stroke="#666666" stroke-width="2" points="371.8469,-110.6398 369.1167,-98.2226 363.5076,-109.6322 371.8469,-110.6398"/>
</g>
<!-- locdensity_y&#45;&gt;acl_sum_fatl_m -->
<g id="edge25" class="edge">
<title>locdensity_y-&gt;acl_sum_fatl_m</title>
<path fill="none" stroke="#666666" stroke-width="2" d="M374.5,-291C340.6048,-247.827 396.7714,-217.6675 374.5,-167.5"/>
<path fill="none" stroke="#666666" stroke-width="2" d="M374.5,-167.5C362.5265,-140.529 294.3666,-113.1136 239.0902,-94.8082"/>
<polygon fill="#666666" stroke="#666666" stroke-width="2" points="240.2259,-90.7611 227.5152,-91.0438 237.6279,-98.7493 240.2259,-90.7611"/>
</g>
<!-- ndvi_act_min_m&#45;&gt;rurpop_s -->
<g id="edge26" class="edge">
<title>ndvi_act_min_m-&gt;rurpop_s</title>
<path fill="none" stroke="#666666" stroke-width="2" d="M175.3586,-584.1724C189.8787,-539.2756 206.3412,-468.4282 191.5,-408.5"/>
<path fill="none" stroke="#666666" stroke-width="2" d="M191.5,-408.5C179.5553,-361.3115 120.8964,-396.1218 96.5,-354 69.4756,-307.3408 84.6,-242.8655 98.6046,-203.2395"/>
<polygon fill="#666666" stroke="#666666" stroke-width="2" points="102.6175,-204.4981 102.867,-191.7868 94.7451,-201.5682 102.6175,-204.4981"/>
</g>
<!-- ndvi_act_min_m&#45;&gt;yield_gap_soybean_s -->
<g id="edge27" class="edge">
<title>ndvi_act_min_m-&gt;yield_gap_soybean_s</title>
<path fill="none" stroke="#666666" stroke-width="2" d="M191.5,-408.5C188.1434,-394.9463 186.5818,-380.2402 186.0953,-365.9671"/>
<polygon fill="#666666" stroke="#666666" stroke-width="2" points="190.2896,-365.5169 185.9263,-353.5753 181.8904,-365.6314 190.2896,-365.5169"/>
</g>
<!-- ndvi_act_min_m&#45;&gt;rurratio_s -->
<g id="edge28" class="edge">
<title>ndvi_act_min_m-&gt;rurratio_s</title>
<path fill="none" stroke="#666666" stroke-width="2" d="M119.3487,-574.6721C115.2539,-568.99 111.0978,-563.2228 107.0219,-557.5668"/>
<polygon fill="#666666" stroke="#666666" stroke-width="2" points="115.9457,-577.1338 126.369,-584.4137 122.7605,-572.2227 115.9457,-577.1338"/>
<polygon fill="#666666" stroke="#666666" stroke-width="2" points="110.2254,-554.8283 99.8021,-547.5485 103.4106,-559.7394 110.2254,-554.8283"/>
</g>
<!-- acl_sum_fatl_m&#45;&gt;acl_sum_evnt_m -->
<g id="edge29" class="edge">
<title>acl_sum_fatl_m-&gt;acl_sum_evnt_m</title>
<path fill="none" stroke="#666666" stroke-width="2" d="M227.5469,-73C250.5218,-73 273.4966,-73 296.4715,-73"/>
<polygon fill="#666666" stroke="#666666" stroke-width="2" points="296.4859,-77.2001 308.4859,-73 296.4859,-68.8001 296.4859,-77.2001"/>
</g>
</g>
<style>.node path {
  stroke: #fff;
}
.node text {
  fill: #fff;
}
.node polyline {
  stroke: #fff;
}
.rankA path {
  fill: #2e3348;
}
.rankB path {
  fill: #437387;
}
.rankC path {
  fill: #1b6002;
}
</style></svg>
