<?xml version="1.0" encoding="UTF-8" standalone="no"?>
<!DOCTYPE svg PUBLIC "-//W3C//DTD SVG 1.1//EN" "http://www.w3.org/Graphics/SVG/1.1/DTD/svg11.dtd">
<!-- Generated by graphviz version 2.40.1 (20161225.0304)
 -->
<!-- Title: causalModel Pages: 1 -->
<svg xmlns="http://www.w3.org/2000/svg" xmlns:xlink="http://www.w3.org/1999/xlink" width="" height="" viewBox="0.00 0.00 580.06 811.00" preserveAspectRatio="xMinYMin">
<g id="graph0" class="graph" transform="scale(1 1) rotate(0) translate(4 807)">
<title>causalModel</title>
<polygon fill="#ffffff" stroke="transparent" points="-4,4 -4,-807 576.0636,-807 576.0636,4 -4,4"/>
<!-- acl_sum_evnt_m -->
<g id="node1" class="node rankC">
<title>acl_sum_evnt_m</title>
<path fill="none" stroke="#000000" d="M417.5,-53C417.5,-53 307.5,-53 307.5,-53 301.5,-53 295.5,-47 295.5,-41 295.5,-41 295.5,-21 295.5,-21 295.5,-15 301.5,-9 307.5,-9 307.5,-9 417.5,-9 417.5,-9 423.5,-9 429.5,-15 429.5,-21 429.5,-21 429.5,-41 429.5,-41 429.5,-47 423.5,-53 417.5,-53"/>
<text text-anchor="middle" x="362.5" y="-36.2" font-family="Helvetica, Arial, sans-serif" font-size="16.00" fill="#000000">Total number of</text>
<text text-anchor="middle" x="362.5" y="-18.2" font-family="Helvetica, Arial, sans-serif" font-size="16.00" fill="#000000">conflict events</text>
</g>
<!-- acl_sum_fatl_m -->
<g id="node2" class="node rankC">
<title>acl_sum_fatl_m</title>
<path fill="none" stroke="#000000" d="M254.5,-62C254.5,-62 152.5,-62 152.5,-62 146.5,-62 140.5,-56 140.5,-50 140.5,-50 140.5,-12 140.5,-12 140.5,-6 146.5,0 152.5,0 152.5,0 254.5,0 254.5,0 260.5,0 266.5,-6 266.5,-12 266.5,-12 266.5,-50 266.5,-50 266.5,-56 260.5,-62 254.5,-62"/>
<text text-anchor="middle" x="203.5" y="-45.2" font-family="Helvetica, Arial, sans-serif" font-size="16.00" fill="#000000">Reported</text>
<text text-anchor="middle" x="203.5" y="-27.2" font-family="Helvetica, Arial, sans-serif" font-size="16.00" fill="#000000">fatalities from</text>
<text text-anchor="middle" x="203.5" y="-9.2" font-family="Helvetica, Arial, sans-serif" font-size="16.00" fill="#000000">conflict events</text>
</g>
<!-- acl_sum_fatl_m&#45;&gt;acl_sum_evnt_m -->
<g id="edge29" class="edge">
<title>acl_sum_fatl_m-&gt;acl_sum_evnt_m</title>
<path fill="none" stroke="#000000" stroke-width="2" d="M266.541,-31C272.1031,-31 277.6652,-31 283.2272,-31"/>
<polygon fill="#000000" stroke="#000000" stroke-width="2" points="283.4036,-35.1999 295.4037,-31 283.4037,-26.7999 283.4036,-35.1999"/>
</g>
<!-- et_anom_m_STD_m -->
<g id="node3" class="node rankB">
<title>et_anom_m_STD_m</title>
<path fill="none" stroke="#000000" d="M124.5,-592.5C124.5,-592.5 264.5,-592.5 264.5,-592.5 270.5,-592.5 276.5,-598.5 276.5,-604.5 276.5,-604.5 276.5,-687.5 276.5,-687.5 276.5,-693.5 270.5,-699.5 264.5,-699.5 264.5,-699.5 124.5,-699.5 124.5,-699.5 118.5,-699.5 112.5,-693.5 112.5,-687.5 112.5,-687.5 112.5,-604.5 112.5,-604.5 112.5,-598.5 118.5,-592.5 124.5,-592.5"/>
<text text-anchor="start" x="149.5" y="-680.7" font-family="Helvetica, Arial, sans-serif" font-size="16.00" fill="#000000">Variation in</text>
<text text-anchor="start" x="119.5" y="-662.7" font-family="Helvetica, Arial, sans-serif" font-size="16.00" fill="#000000">evapotranspiration</text>
<text text-anchor="start" x="161" y="-644.7" font-family="Helvetica, Arial, sans-serif" font-size="16.00" fill="#000000">patterns</text>
<polyline fill="none" stroke="#000000" points="112.5,-633.5 276.5,-633.5 "/>
<text text-anchor="start" x="146.5" y="-616.8" font-family="Helvetica, Arial, sans-serif" font-size="14.00" fill="#000000">effect: -0.032</text>
<text text-anchor="start" x="151.5" y="-600.8" font-family="Helvetica, Arial, sans-serif" font-size="14.00" fill="#000000">error: 0.044</text>
</g>
<!-- spi_3_m -->
<g id="node4" class="node rankB">
<title>spi_3_m</title>
<path fill="none" stroke="#000000" d="M255,-736.5C255,-736.5 386,-736.5 386,-736.5 392,-736.5 398,-742.5 398,-748.5 398,-748.5 398,-790.5 398,-790.5 398,-796.5 392,-802.5 386,-802.5 386,-802.5 255,-802.5 255,-802.5 249,-802.5 243,-796.5 243,-790.5 243,-790.5 243,-748.5 243,-748.5 243,-742.5 249,-736.5 255,-736.5"/>
<text text-anchor="start" x="275.5" y="-783.7" font-family="Helvetica, Arial, sans-serif" font-size="16.00" fill="#000000">Variation of</text>
<text text-anchor="start" x="250.5" y="-765.7" font-family="Helvetica, Arial, sans-serif" font-size="16.00" fill="#000000">precipitation over</text>
<text text-anchor="start" x="260" y="-747.7" font-family="Helvetica, Arial, sans-serif" font-size="16.00" fill="#000000">3-month period</text>
</g>
<!-- rurratio_s -->
<g id="node5" class="node rankB">
<title>rurratio_s</title>
<path fill="none" stroke="#000000" d="M139,-471.5C139,-471.5 250,-471.5 250,-471.5 256,-471.5 262,-477.5 262,-483.5 262,-483.5 262,-543.5 262,-543.5 262,-549.5 256,-555.5 250,-555.5 250,-555.5 139,-555.5 139,-555.5 133,-555.5 127,-549.5 127,-543.5 127,-543.5 127,-483.5 127,-483.5 127,-477.5 133,-471.5 139,-471.5"/>
<text text-anchor="start" x="140" y="-536.7" font-family="Helvetica, Arial, sans-serif" font-size="16.00" fill="#000000">Percentage of</text>
<text text-anchor="start" x="134.5" y="-518.7" font-family="Helvetica, Arial, sans-serif" font-size="16.00" fill="#000000">population that</text>
<text text-anchor="start" x="149.5" y="-500.7" font-family="Helvetica, Arial, sans-serif" font-size="16.00" fill="#000000">live in rural</text>
<text text-anchor="start" x="172.5" y="-482.7" font-family="Helvetica, Arial, sans-serif" font-size="16.00" fill="#000000">areas</text>
</g>
<!-- et_anom_m_STD_m&#45;&gt;rurratio_s -->
<g id="edge2" class="edge">
<title>et_anom_m_STD_m-&gt;rurratio_s</title>
<path fill="none" stroke="#000000" stroke-width="2" d="M194.5,-592.4891C194.5,-584.3809 194.5,-576.0081 194.5,-567.8817"/>
<polygon fill="#000000" stroke="#000000" stroke-width="2" points="198.7001,-567.8038 194.5,-555.8038 190.3001,-567.8038 198.7001,-567.8038"/>
</g>
<!-- locdensity_y -->
<g id="node6" class="node rankB">
<title>locdensity_y</title>
<path fill="none" stroke="#000000" d="M12,-372C12,-372 147,-372 147,-372 153,-372 159,-378 159,-384 159,-384 159,-396 159,-396 159,-402 153,-408 147,-408 147,-408 12,-408 12,-408 6,-408 0,-402 0,-396 0,-396 0,-384 0,-384 0,-378 6,-372 12,-372"/>
<text text-anchor="start" x="7.5" y="-386.2" font-family="Helvetica, Arial, sans-serif" font-size="16.00" fill="#000000">Population density</text>
</g>
<!-- et_anom_m_STD_m&#45;&gt;locdensity_y -->
<g id="edge3" class="edge">
<title>et_anom_m_STD_m-&gt;locdensity_y</title>
<path fill="none" stroke="#000000" stroke-width="2" d="M116.3755,-592.2006C93.9469,-570.9854 74.0209,-544.2765 68.5,-513.5"/>
</g>
<!-- ndvi_act_min_m -->
<g id="node7" class="node rankB">
<title>ndvi_act_min_m</title>
<path fill="none" stroke="#000000" d="M281,-345.5C281,-345.5 360,-345.5 360,-345.5 366,-345.5 372,-351.5 372,-357.5 372,-357.5 372,-422.5 372,-422.5 372,-428.5 366,-434.5 360,-434.5 360,-434.5 281,-434.5 281,-434.5 275,-434.5 269,-428.5 269,-422.5 269,-422.5 269,-357.5 269,-357.5 269,-351.5 275,-345.5 281,-345.5"/>
<text text-anchor="start" x="280.5" y="-415.7" font-family="Helvetica, Arial, sans-serif" font-size="16.00" fill="#000000">Density of</text>
<text text-anchor="start" x="279.5" y="-397.7" font-family="Helvetica, Arial, sans-serif" font-size="16.00" fill="#000000">greenness</text>
<polyline fill="none" stroke="#000000" points="269,-386.5 372,-386.5 "/>
<text text-anchor="start" x="275.5" y="-369.8" font-family="Helvetica, Arial, sans-serif" font-size="14.00" fill="#000000">effect: 0.044</text>
<text text-anchor="start" x="287" y="-353.8" font-family="Helvetica, Arial, sans-serif" font-size="14.00" fill="#000000">error: 0.1</text>
</g>
<!-- et_anom_m_STD_m&#45;&gt;ndvi_act_min_m -->
<g id="edge4" class="edge">
<title>et_anom_m_STD_m-&gt;ndvi_act_min_m</title>
<path fill="none" stroke="#000000" stroke-width="2" d="M270.7391,-592.2108C293.1725,-570.9168 313.583,-544.1558 320.5,-513.5"/>
<path fill="none" stroke="#000000" stroke-width="2" d="M320.5,-513.5C325.3522,-491.9949 326.3068,-467.842 325.7118,-446.6373"/>
<polygon fill="#000000" stroke="#000000" stroke-width="2" points="329.9034,-446.3471 325.2002,-434.5353 321.5109,-446.702 329.9034,-446.3471"/>
</g>
<!-- spi_3_m&#45;&gt;et_anom_m_STD_m -->
<g id="edge9" class="edge">
<title>spi_3_m-&gt;et_anom_m_STD_m</title>
<path fill="none" stroke="#000000" stroke-width="2" d="M278.1016,-727.9429C271.5989,-721.5692 264.7672,-714.873 257.9287,-708.1702"/>
<polygon fill="#000000" stroke="#000000" stroke-width="2" points="275.2245,-731.0039 286.7343,-736.4043 281.1044,-725.0049 275.2245,-731.0039"/>
<polygon fill="#000000" stroke="#000000" stroke-width="2" points="260.7971,-705.1006 249.2873,-699.7002 254.9172,-711.0996 260.7971,-705.1006"/>
</g>
<!-- spi_3_m&#45;&gt;rurratio_s -->
<g id="edge12" class="edge">
<title>spi_3_m-&gt;rurratio_s</title>
<path fill="none" stroke="#000000" stroke-width="2" d="M68.5,-646C55.7555,-609.4663 83.7121,-577.6841 116.5004,-554.4112"/>
<polygon fill="#000000" stroke="#000000" stroke-width="2" points="119.1943,-557.6602 126.7916,-547.4659 114.4953,-550.6974 119.1943,-557.6602"/>
</g>
<!-- spi_3_m&#45;&gt;locdensity_y -->
<g id="edge13" class="edge">
<title>spi_3_m-&gt;locdensity_y</title>
<path fill="none" stroke="#000000" stroke-width="2" d="M242.7528,-760.2608C196.342,-751.3555 138.626,-733.9455 97.5,-700 76.4904,-682.6587 77.4728,-671.7218 68.5,-646"/>
<path fill="none" stroke="#000000" stroke-width="2" d="M68.5,-646C49.1035,-590.3972 78.8979,-571.4636 68.5,-513.5"/>
<path fill="none" stroke="#000000" stroke-width="2" d="M68.5,-513.5C62.8359,-481.9254 67.4938,-445.2614 72.3756,-420.1328"/>
<polygon fill="#000000" stroke="#000000" stroke-width="2" points="76.5399,-420.7387 74.8955,-408.1317 68.3192,-419.0125 76.5399,-420.7387"/>
</g>
<!-- spi_3_m&#45;&gt;ndvi_act_min_m -->
<g id="edge14" class="edge">
<title>spi_3_m-&gt;ndvi_act_min_m</title>
<path fill="none" stroke="#000000" stroke-width="2" d="M315.8927,-736.2536C310.0852,-686.9248 302.8431,-591.755 320.5,-513.5"/>
</g>
<!-- chicken_number_s -->
<g id="node8" class="node rankB">
<title>chicken_number_s</title>
<path fill="none" stroke="#000000" d="M376.5,-622C376.5,-622 508.5,-622 508.5,-622 514.5,-622 520.5,-628 520.5,-634 520.5,-634 520.5,-658 520.5,-658 520.5,-664 514.5,-670 508.5,-670 508.5,-670 376.5,-670 376.5,-670 370.5,-670 364.5,-664 364.5,-658 364.5,-658 364.5,-634 364.5,-634 364.5,-628 370.5,-622 376.5,-622"/>
<text text-anchor="start" x="371.5" y="-651.2" font-family="Helvetica, Arial, sans-serif" font-size="16.00" fill="#000000">Count of livestock</text>
<text text-anchor="start" x="408" y="-633.2" font-family="Helvetica, Arial, sans-serif" font-size="16.00" fill="#000000">chickens</text>
</g>
<!-- spi_3_m&#45;&gt;chicken_number_s -->
<g id="edge10" class="edge">
<title>spi_3_m-&gt;chicken_number_s</title>
<path fill="none" stroke="#000000" stroke-width="2" d="M361.6681,-727.8257C377.3606,-711.9403 395.0179,-694.0659 409.8172,-679.0846"/>
<polygon fill="#000000" stroke="#000000" stroke-width="2" points="358.6391,-724.9156 353.1938,-736.4043 364.615,-730.8189 358.6391,-724.9156"/>
<polygon fill="#000000" stroke="#000000" stroke-width="2" points="413.1741,-681.6628 418.6195,-670.1741 407.1982,-675.7594 413.1741,-681.6628"/>
</g>
<!-- rurpop_s -->
<g id="node10" class="node rankB">
<title>rurpop_s</title>
<path fill="none" stroke="#000000" d="M318,-98.5C318,-98.5 411,-98.5 411,-98.5 417,-98.5 423,-104.5 423,-110.5 423,-110.5 423,-134.5 423,-134.5 423,-140.5 417,-146.5 411,-146.5 411,-146.5 318,-146.5 318,-146.5 312,-146.5 306,-140.5 306,-134.5 306,-134.5 306,-110.5 306,-110.5 306,-104.5 312,-98.5 318,-98.5"/>
<text text-anchor="start" x="313.5" y="-127.7" font-family="Helvetica, Arial, sans-serif" font-size="16.00" fill="#000000">Population in</text>
<text text-anchor="start" x="321" y="-109.7" font-family="Helvetica, Arial, sans-serif" font-size="16.00" fill="#000000">rural areas</text>
</g>
<!-- spi_3_m&#45;&gt;rurpop_s -->
<g id="edge11" class="edge">
<title>spi_3_m-&gt;rurpop_s</title>
<path fill="none" stroke="#000000" stroke-width="2" d="M398.2687,-753.371C452.1182,-740.5921 517.2664,-721.3772 535.5,-700 589.937,-636.1776 564.5,-597.385 564.5,-513.5 564.5,-513.5 564.5,-513.5 564.5,-390 564.5,-297.1015 594.2718,-254.9444 535.5,-183 522.1439,-166.6504 475.8706,-150.831 434.8246,-139.4714"/>
<polygon fill="#000000" stroke="#000000" stroke-width="2" points="435.8188,-135.3895 423.1388,-136.3153 433.6286,-143.4989 435.8188,-135.3895"/>
</g>
<!-- rurratio_s&#45;&gt;acl_sum_fatl_m -->
<g id="edge21" class="edge">
<title>rurratio_s-&gt;acl_sum_fatl_m</title>
<path fill="none" stroke="#000000" stroke-width="2" d="M193.8734,-471.2805C194.3481,-447.1907 196.3649,-416.5885 202.5,-390"/>
<path fill="none" stroke="#000000" stroke-width="2" d="M202.5,-390C216.8894,-327.6386 187.3996,-308.1931 202.5,-246"/>
</g>
<!-- rurratio_s&#45;&gt;locdensity_y -->
<g id="edge19" class="edge">
<title>rurratio_s-&gt;locdensity_y</title>
<path fill="none" stroke="#000000" stroke-width="2" d="M155.2452,-471.3437C138.4923,-453.3526 119.4342,-432.8859 104.6258,-416.9829"/>
<polygon fill="#000000" stroke="#000000" stroke-width="2" points="107.6989,-414.12 96.4474,-408.2 101.5514,-419.8444 107.6989,-414.12"/>
</g>
<!-- rurratio_s&#45;&gt;ndvi_act_min_m -->
<g id="edge20" class="edge">
<title>rurratio_s-&gt;ndvi_act_min_m</title>
<path fill="none" stroke="#000000" stroke-width="2" d="M246.0825,-462.941C252.5944,-456.5583 259.2747,-450.0105 265.8324,-443.5829"/>
<polygon fill="#000000" stroke="#000000" stroke-width="2" points="243.1396,-459.9444 237.5096,-471.3437 249.0195,-465.9433 243.1396,-459.9444"/>
<polygon fill="#000000" stroke="#000000" stroke-width="2" points="269.0414,-446.3186 274.6714,-434.9193 263.1615,-440.3197 269.0414,-446.3186"/>
</g>
<!-- rurratio_s&#45;&gt;rurpop_s -->
<g id="edge18" class="edge">
<title>rurratio_s-&gt;rurpop_s</title>
<path fill="none" stroke="#000000" stroke-width="2" d="M202.5,-390C213.9467,-340.3918 252.3571,-349.2755 283.5,-309 303.3632,-283.312 308.8923,-276.3262 320.5,-246"/>
<path fill="none" stroke="#000000" stroke-width="2" d="M320.5,-246C331.7575,-216.5887 343.6989,-182.8942 352.2967,-158.1375"/>
<polygon fill="#000000" stroke="#000000" stroke-width="2" points="356.2786,-159.4739 356.2312,-146.7602 348.3399,-156.7285 356.2786,-159.4739"/>
</g>
<!-- locdensity_y&#45;&gt;acl_sum_evnt_m -->
<g id="edge24" class="edge">
<title>locdensity_y-&gt;acl_sum_evnt_m</title>
<path fill="none" stroke="#000000" stroke-width="2" d="M125.394,-371.9764C156.1469,-358.1954 196.0603,-336.8321 224.5,-309 247.7076,-286.2882 241.8935,-271.8845 261.5,-246"/>
<path fill="none" stroke="#000000" stroke-width="2" d="M261.5,-246C302.0243,-192.4998 258.9008,-156.6667 291.5,-98 299.1648,-84.2061 310.6463,-71.5831 322.1541,-61.104"/>
<polygon fill="#000000" stroke="#000000" stroke-width="2" points="324.9887,-64.2054 331.3165,-53.1782 319.4931,-57.8525 324.9887,-64.2054"/>
</g>
<!-- locdensity_y&#45;&gt;acl_sum_fatl_m -->
<g id="edge25" class="edge">
<title>locdensity_y-&gt;acl_sum_fatl_m</title>
<path fill="none" stroke="#000000" stroke-width="2" d="M106.309,-371.9777C138.9351,-347.8965 191.0984,-301.7255 202.5,-246"/>
<path fill="none" stroke="#000000" stroke-width="2" d="M202.5,-246C214.4855,-187.4207 211.8631,-117.97 208.2213,-74.1893"/>
<polygon fill="#000000" stroke="#000000" stroke-width="2" points="212.384,-73.5853 207.126,-62.0097 204.0177,-74.3377 212.384,-73.5853"/>
</g>
<!-- yield_gap_soybean_s -->
<g id="node9" class="node rankB">
<title>yield_gap_soybean_s</title>
<path fill="none" stroke="#000000" d="M376.5,-183.5C376.5,-183.5 508.5,-183.5 508.5,-183.5 514.5,-183.5 520.5,-189.5 520.5,-195.5 520.5,-195.5 520.5,-296.5 520.5,-296.5 520.5,-302.5 514.5,-308.5 508.5,-308.5 508.5,-308.5 376.5,-308.5 376.5,-308.5 370.5,-308.5 364.5,-302.5 364.5,-296.5 364.5,-296.5 364.5,-195.5 364.5,-195.5 364.5,-189.5 370.5,-183.5 376.5,-183.5"/>
<text text-anchor="start" x="390" y="-289.7" font-family="Helvetica, Arial, sans-serif" font-size="16.00" fill="#000000">Gap between</text>
<text text-anchor="start" x="388.5" y="-271.7" font-family="Helvetica, Arial, sans-serif" font-size="16.00" fill="#000000">observed and</text>
<text text-anchor="start" x="371.5" y="-253.7" font-family="Helvetica, Arial, sans-serif" font-size="16.00" fill="#000000">potential soybean</text>
<text text-anchor="start" x="423.5" y="-235.7" font-family="Helvetica, Arial, sans-serif" font-size="16.00" fill="#000000">yield</text>
<polyline fill="none" stroke="#000000" points="364.5,-224.5 520.5,-224.5 "/>
<text text-anchor="start" x="397.5" y="-207.8" font-family="Helvetica, Arial, sans-serif" font-size="14.00" fill="#000000">effect: 0.022</text>
<text text-anchor="start" x="400" y="-191.8" font-family="Helvetica, Arial, sans-serif" font-size="14.00" fill="#000000">error: 0.031</text>
</g>
<!-- locdensity_y&#45;&gt;yield_gap_soybean_s -->
<g id="edge23" class="edge">
<title>locdensity_y-&gt;yield_gap_soybean_s</title>
<path fill="none" stroke="#000000" stroke-width="2" d="M115.2688,-371.9545C134.2805,-362.9069 158.2612,-352.3427 180.5,-345 250.5375,-321.8753 274.2941,-337.0705 342.5,-309 346.1527,-307.4967 349.8215,-305.8633 353.4833,-304.1278"/>
<polygon fill="#000000" stroke="#000000" stroke-width="2" points="355.5793,-307.7754 364.4248,-298.6431 351.815,-300.266 355.5793,-307.7754"/>
</g>
<!-- locdensity_y&#45;&gt;rurpop_s -->
<g id="edge22" class="edge">
<title>locdensity_y-&gt;rurpop_s</title>
<path fill="none" stroke="#000000" stroke-width="2" d="M261.5,-246C281.1065,-220.1155 278.0835,-208.2504 298.5,-183 306.4163,-173.2094 315.9305,-163.5575 325.239,-154.9369"/>
<polygon fill="#000000" stroke="#000000" stroke-width="2" points="328.2942,-157.838 334.412,-146.6929 322.6793,-151.5903 328.2942,-157.838"/>
</g>
<!-- ndvi_act_min_m&#45;&gt;yield_gap_soybean_s -->
<g id="edge27" class="edge">
<title>ndvi_act_min_m-&gt;yield_gap_soybean_s</title>
<path fill="none" stroke="#000000" stroke-width="2" d="M358.4328,-345.2269C365.7773,-336.5579 373.6451,-327.2714 381.5126,-317.9852"/>
<polygon fill="#000000" stroke="#000000" stroke-width="2" points="384.8081,-320.5928 389.3606,-308.722 378.399,-315.1628 384.8081,-320.5928"/>
</g>
<!-- ndvi_act_min_m&#45;&gt;rurpop_s -->
<g id="edge26" class="edge">
<title>ndvi_act_min_m-&gt;rurpop_s</title>
<path fill="none" stroke="#000000" stroke-width="2" d="M312.4512,-345.3493C309.1003,-316.1253 308.3907,-277.6367 320.5,-246"/>
</g>
<!-- chicken_number_s&#45;&gt;rurratio_s -->
<g id="edge7" class="edge">
<title>chicken_number_s-&gt;rurratio_s</title>
<path fill="none" stroke="#000000" stroke-width="2" d="M397.3013,-621.8515C362.6739,-603.351 314.0476,-577.3712 273.0902,-555.4887"/>
<polygon fill="#000000" stroke="#000000" stroke-width="2" points="274.8727,-551.6792 262.3093,-549.7288 270.9143,-559.0881 274.8727,-551.6792"/>
</g>
<!-- chicken_number_s&#45;&gt;ndvi_act_min_m -->
<g id="edge8" class="edge">
<title>chicken_number_s-&gt;ndvi_act_min_m</title>
<path fill="none" stroke="#000000" stroke-width="2" d="M445.7716,-621.6867C448.6357,-594.8205 451.1305,-550.4615 442.5,-513.5"/>
<path fill="none" stroke="#000000" stroke-width="2" d="M442.5,-513.5C434.4435,-478.9965 408.0578,-450.138 381.8766,-429.0162"/>
<polygon fill="#000000" stroke="#000000" stroke-width="2" points="384.336,-425.6087 372.2745,-421.5884 379.1963,-432.2528 384.336,-425.6087"/>
</g>
<!-- chicken_number_s&#45;&gt;yield_gap_soybean_s -->
<g id="edge6" class="edge">
<title>chicken_number_s-&gt;yield_gap_soybean_s</title>
<path fill="none" stroke="#000000" stroke-width="2" d="M442.5,-513.5C427.609,-449.7264 429.1231,-375.0444 433.4875,-320.8223"/>
<polygon fill="#000000" stroke="#000000" stroke-width="2" points="437.7002,-320.8567 434.5529,-308.5387 429.3316,-320.1309 437.7002,-320.8567"/>
</g>
<!-- yield_gap_soybean_s&#45;&gt;rurpop_s -->
<g id="edge17" class="edge">
<title>yield_gap_soybean_s-&gt;rurpop_s</title>
<path fill="none" stroke="#000000" stroke-width="2" d="M402.8145,-183.1646C397.1099,-174.1324 391.4249,-165.1311 386.2479,-156.9342"/>
<polygon fill="#000000" stroke="#000000" stroke-width="2" points="389.7349,-154.5898 379.7758,-146.6868 382.6327,-159.0754 389.7349,-154.5898"/>
</g>
<!-- rurpop_s&#45;&gt;acl_sum_evnt_m -->
<g id="edge15" class="edge">
<title>rurpop_s-&gt;acl_sum_evnt_m</title>
<path fill="none" stroke="#000000" stroke-width="2" d="M363.9745,-98.4595C363.7533,-88.3363 363.4916,-76.367 363.2506,-65.3419"/>
<polygon fill="#000000" stroke="#000000" stroke-width="2" points="367.4422,-64.9055 362.9809,-53.0002 359.0442,-65.0892 367.4422,-64.9055"/>
</g>
<!-- rurpop_s&#45;&gt;acl_sum_fatl_m -->
<g id="edge16" class="edge">
<title>rurpop_s-&gt;acl_sum_fatl_m</title>
<path fill="none" stroke="#000000" stroke-width="2" d="M322.1991,-98.4595C305.844,-89.1644 286.7502,-78.313 268.7184,-68.0651"/>
<polygon fill="#000000" stroke="#000000" stroke-width="2" points="270.7611,-64.3952 258.253,-62.1174 266.6106,-71.6982 270.7611,-64.3952"/>
</g>
</g>
<style>.node path {
  stroke: #fff;
}
.node text {
  fill: #fff;
}
.node polyline {
  stroke: #fff;
}
.rankA path {
  fill: #2e3348;
}
.rankB path {
  fill: #437387;
}
.rankC path {
  fill: #1b6002;
}
.edge path {
  stroke: #666;
};
</style></svg>
