<?xml version="1.0" encoding="UTF-8" standalone="no"?>
<!DOCTYPE svg PUBLIC "-//W3C//DTD SVG 1.1//EN" "http://www.w3.org/Graphics/SVG/1.1/DTD/svg11.dtd">
<!-- Generated by graphviz version 2.40.1 (20161225.0304)
 -->
<!-- Title: causalModel Pages: 1 -->
<svg xmlns="http://www.w3.org/2000/svg" xmlns:xlink="http://www.w3.org/1999/xlink" width="" height="" viewBox="0.00 0.00 649.79 908.00" preserveAspectRatio="xMinYMin">
<g id="graph0" class="graph" transform="scale(1 1) rotate(0) translate(4 904)">
<title>causalModel</title>
<text text-anchor="start" x="143.8951" y="-29.8" font-family="Helvetica, Arial, sans-serif" font-weight="bold" font-size="14.00" fill="#000000">Causal Model: Middle East and North Africa</text>
<text text-anchor="start" x="143.8951" y="-9.8" font-family="Helvetica, Arial, sans-serif" font-size="14.00" fill="#000000">**significance of 1%</text>
<!-- DeliveredkcalFraction_s -->
<g id="node1" class="node rankB">
<title>DeliveredkcalFraction_s</title>
<path fill="none" stroke="#000000" d="M324.2902,-503.5C324.2902,-503.5 462.2902,-503.5 462.2902,-503.5 468.2902,-503.5 474.2902,-509.5 474.2902,-515.5 474.2902,-515.5 474.2902,-598.5 474.2902,-598.5 474.2902,-604.5 468.2902,-610.5 462.2902,-610.5 462.2902,-610.5 324.2902,-610.5 324.2902,-610.5 318.2902,-610.5 312.2902,-604.5 312.2902,-598.5 312.2902,-598.5 312.2902,-515.5 312.2902,-515.5 312.2902,-509.5 318.2902,-503.5 324.2902,-503.5"/>
<text text-anchor="start" x="355.2902" y="-591.7" font-family="Helvetica, Arial, sans-serif" font-size="16.00" fill="#000000">Portion of</text>
<text text-anchor="start" x="322.2902" y="-573.7" font-family="Helvetica, Arial, sans-serif" font-size="16.00" fill="#000000">calories produced</text>
<text text-anchor="start" x="321.2902" y="-555.7" font-family="Helvetica, Arial, sans-serif" font-size="16.00" fill="#000000">going toward food</text>
<polyline fill="none" stroke="#000000" points="312.2902,-544.5 474.2902,-544.5 "/>
<text text-anchor="start" x="348.2902" y="-527.8" font-family="Helvetica, Arial, sans-serif" font-size="14.00" fill="#000000">effect: 0.056</text>
<text text-anchor="start" x="350.7902" y="-511.8" font-family="Helvetica, Arial, sans-serif" font-size="14.00" fill="#000000">error: 0.143</text>
</g>
<!-- chicken_number_s -->
<g id="node2" class="node rankB">
<title>chicken_number_s</title>
<path fill="none" stroke="#000000" d="M310.2902,-392.5C310.2902,-392.5 446.2902,-392.5 446.2902,-392.5 452.2902,-392.5 458.2902,-398.5 458.2902,-404.5 458.2902,-404.5 458.2902,-453.5 458.2902,-453.5 458.2902,-459.5 452.2902,-465.5 446.2902,-465.5 446.2902,-465.5 310.2902,-465.5 310.2902,-465.5 304.2902,-465.5 298.2902,-459.5 298.2902,-453.5 298.2902,-453.5 298.2902,-404.5 298.2902,-404.5 298.2902,-398.5 304.2902,-392.5 310.2902,-392.5"/>
<text text-anchor="start" x="307.2902" y="-446.7" font-family="Helvetica, Arial, sans-serif" font-size="16.00" fill="#000000">Count of livestock</text>
<text text-anchor="start" x="343.7902" y="-428.7" font-family="Helvetica, Arial, sans-serif" font-size="16.00" fill="#000000">chickens</text>
<polyline fill="none" stroke="#000000" points="298.2902,-417.5 458.2902,-417.5 "/>
<text text-anchor="start" x="311.2902" y="-400.8" font-family="Helvetica, Arial, sans-serif" font-size="14.00" fill="#000000">effect: Inestimable</text>
</g>
<!-- DeliveredkcalFraction_s&#45;&gt;chicken_number_s -->
<g id="edge1" class="edge">
<title>DeliveredkcalFraction_s-&gt;chicken_number_s</title>
<path fill="none" stroke="#666666" stroke-width="2" d="M387.0157,-503.4581C386.0125,-494.897 384.9791,-486.0792 383.9902,-477.6401"/>
<polygon fill="#666666" stroke="#666666" stroke-width="2" points="388.1499,-477.0503 382.5817,-465.6208 379.807,-478.0281 388.1499,-477.0503"/>
</g>
<!-- spam_P_i_avg_s -->
<g id="node3" class="node rankB">
<title>spam_P_i_avg_s</title>
<path fill="none" stroke="#000000" d="M42.2902,-264.5C42.2902,-264.5 168.2902,-264.5 168.2902,-264.5 174.2902,-264.5 180.2902,-270.5 180.2902,-276.5 180.2902,-276.5 180.2902,-343.5 180.2902,-343.5 180.2902,-349.5 174.2902,-355.5 168.2902,-355.5 168.2902,-355.5 42.2902,-355.5 42.2902,-355.5 36.2902,-355.5 30.2902,-349.5 30.2902,-343.5 30.2902,-343.5 30.2902,-276.5 30.2902,-276.5 30.2902,-270.5 36.2902,-264.5 42.2902,-264.5"/>
<text text-anchor="start" x="51.2902" y="-336.7" font-family="Helvetica, Arial, sans-serif" font-size="16.00" fill="#000000">Metric tons of</text>
<text text-anchor="start" x="47.2902" y="-318.7" font-family="Helvetica, Arial, sans-serif" font-size="16.00" fill="#000000">irrigated crops</text>
<text text-anchor="start" x="68.2902" y="-300.7" font-family="Helvetica, Arial, sans-serif" font-size="16.00" fill="#000000">produced</text>
<polyline fill="none" stroke="#000000" points="30.2902,-289.5 180.2902,-289.5 "/>
<text text-anchor="start" x="38.2902" y="-272.8" font-family="Helvetica, Arial, sans-serif" font-size="14.00" fill="#000000">effect: Inestimable</text>
</g>
<!-- DeliveredkcalFraction_s&#45;&gt;spam_P_i_avg_s -->
<g id="edge2" class="edge">
<title>DeliveredkcalFraction_s-&gt;spam_P_i_avg_s</title>
<path fill="none" stroke="#666666" stroke-width="2" d="M311.9216,-508.3567C281.3703,-487.0063 248.2735,-459.772 224.2902,-429"/>
</g>
<!-- chicken_number_s&#45;&gt;spam_P_i_avg_s -->
<g id="edge3" class="edge">
<title>chicken_number_s-&gt;spam_P_i_avg_s</title>
<path fill="none" stroke="#666666" stroke-width="2" d="M298.2258,-394.1001C264.8663,-379.5588 226.0486,-362.6383 192.0145,-347.8029"/>
<polygon fill="#666666" stroke="#666666" stroke-width="2" points="193.3493,-343.8031 180.6707,-342.8582 189.9927,-351.5034 193.3493,-343.8031"/>
</g>
<!-- rurpop_s -->
<g id="node4" class="node rankB">
<title>rurpop_s</title>
<path fill="none" stroke="#000000" d="M119.2902,-154.5C119.2902,-154.5 245.2902,-154.5 245.2902,-154.5 251.2902,-154.5 257.2902,-160.5 257.2902,-166.5 257.2902,-166.5 257.2902,-215.5 257.2902,-215.5 257.2902,-221.5 251.2902,-227.5 245.2902,-227.5 245.2902,-227.5 119.2902,-227.5 119.2902,-227.5 113.2902,-227.5 107.2902,-221.5 107.2902,-215.5 107.2902,-215.5 107.2902,-166.5 107.2902,-166.5 107.2902,-160.5 113.2902,-154.5 119.2902,-154.5"/>
<text text-anchor="start" x="131.2902" y="-208.7" font-family="Helvetica, Arial, sans-serif" font-size="16.00" fill="#000000">Population in</text>
<text text-anchor="start" x="138.7902" y="-190.7" font-family="Helvetica, Arial, sans-serif" font-size="16.00" fill="#000000">rural areas</text>
<polyline fill="none" stroke="#000000" points="107.2902,-179.5 257.2902,-179.5 "/>
<text text-anchor="start" x="115.2902" y="-162.8" font-family="Helvetica, Arial, sans-serif" font-size="14.00" fill="#000000">effect: Inestimable</text>
</g>
<!-- chicken_number_s&#45;&gt;rurpop_s -->
<g id="edge4" class="edge">
<title>chicken_number_s-&gt;rurpop_s</title>
<path fill="none" stroke="#666666" stroke-width="2" d="M353.1106,-392.4035C337.5207,-369.195 317.4619,-338.3118 301.2902,-310"/>
<path fill="none" stroke="#666666" stroke-width="2" d="M301.2902,-310C285.3693,-282.1275 261.1969,-256.2616 238.7875,-235.8134"/>
<polygon fill="#666666" stroke="#666666" stroke-width="2" points="241.4067,-232.522 229.6515,-227.6789 235.8208,-238.7956 241.4067,-232.522"/>
</g>
<!-- acl_sum_evnt_m -->
<g id="node9" class="node rankC">
<title>acl_sum_evnt_m</title>
<path fill="none" stroke="#000000" d="M295.2902,-109C295.2902,-109 187.2902,-109 187.2902,-109 181.2902,-109 175.2902,-103 175.2902,-97 175.2902,-97 175.2902,-71 175.2902,-71 175.2902,-65 181.2902,-59 187.2902,-59 187.2902,-59 295.2902,-59 295.2902,-59 301.2902,-59 307.2902,-65 307.2902,-71 307.2902,-71 307.2902,-97 307.2902,-97 307.2902,-103 301.2902,-109 295.2902,-109"/>
<text text-anchor="middle" x="241.2902" y="-89.2" font-family="Helvetica, Arial, sans-serif" font-size="16.00" fill="#000000">Total number of</text>
<text text-anchor="middle" x="241.2902" y="-71.2" font-family="Helvetica, Arial, sans-serif" font-size="16.00" fill="#000000">conflict events</text>
</g>
<!-- chicken_number_s&#45;&gt;acl_sum_evnt_m -->
<g id="edge5" class="edge">
<title>chicken_number_s-&gt;acl_sum_evnt_m</title>
<path fill="none" stroke="#666666" stroke-width="2" d="M301.2902,-310C266.2713,-248.6928 291.9823,-221.5035 271.2902,-154 267.8469,-142.7671 263.1795,-130.8984 258.5526,-120.1886"/>
<polygon fill="#666666" stroke="#666666" stroke-width="2" points="262.3333,-118.3542 253.6077,-109.1072 254.6624,-121.7772 262.3333,-118.3542"/>
</g>
<!-- spam_P_i_avg_s&#45;&gt;rurpop_s -->
<g id="edge6" class="edge">
<title>spam_P_i_avg_s-&gt;rurpop_s</title>
<path fill="none" stroke="#666666" stroke-width="2" d="M134.8402,-264.3318C140.51,-255.5694 146.4539,-246.3833 152.1423,-237.5921"/>
<polygon fill="#666666" stroke="#666666" stroke-width="2" points="155.678,-239.859 158.6709,-227.5025 148.6256,-235.2957 155.678,-239.859"/>
</g>
<!-- rurpop_s&#45;&gt;acl_sum_evnt_m -->
<g id="edge7" class="edge">
<title>rurpop_s-&gt;acl_sum_evnt_m</title>
<path fill="none" stroke="#666666" stroke-width="2" d="M202.4296,-154.4759C208.5887,-143.3061 215.3551,-131.0349 221.4913,-119.9065"/>
<polygon fill="#666666" stroke="#666666" stroke-width="2" points="225.2552,-121.7785 227.3716,-109.2421 217.8993,-117.7225 225.2552,-121.7785"/>
</g>
<!-- yield_gap_barley_s -->
<g id="node5" class="node rankB">
<title>yield_gap_barley_s</title>
<path fill="none" stroke="#000000" d="M145.2902,-502.5C145.2902,-502.5 271.2902,-502.5 271.2902,-502.5 277.2902,-502.5 283.2902,-508.5 283.2902,-514.5 283.2902,-514.5 283.2902,-599.5 283.2902,-599.5 283.2902,-605.5 277.2902,-611.5 271.2902,-611.5 271.2902,-611.5 145.2902,-611.5 145.2902,-611.5 139.2902,-611.5 133.2902,-605.5 133.2902,-599.5 133.2902,-599.5 133.2902,-514.5 133.2902,-514.5 133.2902,-508.5 139.2902,-502.5 145.2902,-502.5"/>
<text text-anchor="start" x="156.2902" y="-592.7" font-family="Helvetica, Arial, sans-serif" font-size="16.00" fill="#000000">Gap between</text>
<text text-anchor="start" x="154.7902" y="-574.7" font-family="Helvetica, Arial, sans-serif" font-size="16.00" fill="#000000">observed and</text>
<text text-anchor="start" x="146.2902" y="-556.7" font-family="Helvetica, Arial, sans-serif" font-size="16.00" fill="#000000">potential barley</text>
<text text-anchor="start" x="189.7902" y="-538.7" font-family="Helvetica, Arial, sans-serif" font-size="16.00" fill="#000000">yield</text>
<polyline fill="none" stroke="#000000" points="133.2902,-527.5 283.2902,-527.5 "/>
<text text-anchor="start" x="141.2902" y="-510.8" font-family="Helvetica, Arial, sans-serif" font-size="14.00" fill="#000000">effect: Inestimable</text>
</g>
<!-- yield_gap_barley_s&#45;&gt;chicken_number_s -->
<g id="edge8" class="edge">
<title>yield_gap_barley_s-&gt;chicken_number_s</title>
<path fill="none" stroke="#666666" stroke-width="2" d="M280.8786,-502.3452C293.9098,-492.5334 307.3388,-482.4222 319.9047,-472.9608"/>
<polygon fill="#666666" stroke="#666666" stroke-width="2" points="322.713,-476.1038 329.7732,-465.5304 317.6604,-469.3932 322.713,-476.1038"/>
</g>
<!-- yield_gap_barley_s&#45;&gt;spam_P_i_avg_s -->
<g id="edge9" class="edge">
<title>yield_gap_barley_s-&gt;spam_P_i_avg_s</title>
<path fill="none" stroke="#666666" stroke-width="2" d="M231.7402,-502.4104C238.4719,-477.6923 240.2599,-449.4901 224.2902,-429"/>
<path fill="none" stroke="#666666" stroke-width="2" d="M224.2902,-429C206.6107,-406.3163 184.9334,-383.4831 164.9465,-363.969"/>
<polygon fill="#666666" stroke="#666666" stroke-width="2" points="167.7556,-360.8431 156.2029,-355.5351 161.9239,-366.889 167.7556,-360.8431"/>
</g>
<!-- rurratio_s -->
<g id="node6" class="node rankA">
<title>rurratio_s</title>
<path fill="none" stroke="#000000" d="M514.7902,-774.5C514.7902,-774.5 629.7902,-774.5 629.7902,-774.5 635.7902,-774.5 641.7902,-780.5 641.7902,-786.5 641.7902,-786.5 641.7902,-887.5 641.7902,-887.5 641.7902,-893.5 635.7902,-899.5 629.7902,-899.5 629.7902,-899.5 514.7902,-899.5 514.7902,-899.5 508.7902,-899.5 502.7902,-893.5 502.7902,-887.5 502.7902,-887.5 502.7902,-786.5 502.7902,-786.5 502.7902,-780.5 508.7902,-774.5 514.7902,-774.5"/>
<text text-anchor="start" x="517.7902" y="-880.7" font-family="Helvetica, Arial, sans-serif" font-size="16.00" fill="#000000">Percentage of</text>
<text text-anchor="start" x="512.2902" y="-862.7" font-family="Helvetica, Arial, sans-serif" font-size="16.00" fill="#000000">population that</text>
<text text-anchor="start" x="527.2902" y="-844.7" font-family="Helvetica, Arial, sans-serif" font-size="16.00" fill="#000000">live in rural</text>
<text text-anchor="start" x="550.2902" y="-826.7" font-family="Helvetica, Arial, sans-serif" font-size="16.00" fill="#000000">areas</text>
<polyline fill="none" stroke="#000000" points="502.7902,-815.5 641.7902,-815.5 "/>
<text text-anchor="start" x="524.2902" y="-798.8" font-family="Helvetica, Arial, sans-serif" font-size="14.00" fill="#000000">effect: -0.489</text>
<text text-anchor="start" x="529.2902" y="-782.8" font-family="Helvetica, Arial, sans-serif" font-size="14.00" fill="#000000">error: 0.255</text>
</g>
<!-- rurratio_s&#45;&gt;chicken_number_s -->
<g id="edge10" class="edge">
<title>rurratio_s-&gt;chicken_number_s</title>
<path fill="none" stroke="#666666" stroke-width="2" d="M585.3366,-774.4875C594.7021,-716.4585 601.8162,-628.5135 577.2902,-557"/>
<path fill="none" stroke="#666666" stroke-width="2" d="M577.2902,-557C558.5069,-510.6883 512.633,-479.486 469.6594,-459.4914"/>
<polygon fill="#666666" stroke="#666666" stroke-width="2" points="471.1927,-455.5765 458.5227,-454.5221 467.7698,-463.2474 471.1927,-455.5765"/>
</g>
<!-- rurratio_s&#45;&gt;rurpop_s -->
<g id="edge11" class="edge">
<title>rurratio_s-&gt;rurpop_s</title>
<path fill="none" stroke="#666666" stroke-width="2" d="M577.2902,-557C512.5159,-397.294 466.2964,-360.1818 323.2902,-264 306.0816,-252.426 286.8098,-241.35 268.1738,-231.4789"/>
<polygon fill="#666666" stroke="#666666" stroke-width="2" points="269.8779,-227.631 257.295,-225.8115 265.9969,-235.0807 269.8779,-227.631"/>
</g>
<!-- locdensity_y -->
<g id="node7" class="node rankB">
<title>locdensity_y</title>
<path fill="none" stroke="#000000" d="M330.7902,-648.5C330.7902,-648.5 455.7902,-648.5 455.7902,-648.5 461.7902,-648.5 467.7902,-654.5 467.7902,-660.5 467.7902,-660.5 467.7902,-725.5 467.7902,-725.5 467.7902,-731.5 461.7902,-737.5 455.7902,-737.5 455.7902,-737.5 330.7902,-737.5 330.7902,-737.5 324.7902,-737.5 318.7902,-731.5 318.7902,-725.5 318.7902,-725.5 318.7902,-660.5 318.7902,-660.5 318.7902,-654.5 324.7902,-648.5 330.7902,-648.5"/>
<text text-anchor="start" x="328.2902" y="-718.7" font-family="Helvetica, Arial, sans-serif" font-size="16.00" fill="#000000">Local population</text>
<text text-anchor="start" x="364.7902" y="-700.7" font-family="Helvetica, Arial, sans-serif" font-size="16.00" fill="#000000">density</text>
<polyline fill="none" stroke="#000000" points="318.7902,-689.5 467.7902,-689.5 "/>
<text text-anchor="start" x="338.2902" y="-672.8" font-family="Helvetica, Arial, sans-serif" font-size="14.00" fill="#000000">effect: -1.263**</text>
<text text-anchor="start" x="355.2902" y="-656.8" font-family="Helvetica, Arial, sans-serif" font-size="14.00" fill="#000000">error: 0.68</text>
</g>
<!-- rurratio_s&#45;&gt;locdensity_y -->
<g id="edge12" class="edge">
<title>rurratio_s-&gt;locdensity_y</title>
<path fill="none" stroke="#666666" stroke-width="2" d="M502.5715,-780.9135C487.9159,-769.1235 472.5153,-756.7342 458.0504,-745.0976"/>
<polygon fill="#666666" stroke="#666666" stroke-width="2" points="460.6799,-741.8226 448.6972,-737.5733 455.4146,-748.3676 460.6799,-741.8226"/>
</g>
<!-- locdensity_y&#45;&gt;DeliveredkcalFraction_s -->
<g id="edge13" class="edge">
<title>locdensity_y-&gt;DeliveredkcalFraction_s</title>
<path fill="none" stroke="#666666" stroke-width="2" d="M393.2902,-648.4685C393.2902,-640.2545 393.2902,-631.5198 393.2902,-622.8324"/>
<polygon fill="#666666" stroke="#666666" stroke-width="2" points="397.4903,-622.6409 393.2902,-610.641 389.0903,-622.641 397.4903,-622.6409"/>
</g>
<!-- locdensity_y&#45;&gt;yield_gap_barley_s -->
<g id="edge14" class="edge">
<title>locdensity_y-&gt;yield_gap_barley_s</title>
<path fill="none" stroke="#666666" stroke-width="2" d="M332.7142,-648.4685C319.8251,-638.9933 305.9934,-628.8251 292.4051,-618.8358"/>
<polygon fill="#666666" stroke="#666666" stroke-width="2" points="294.7269,-615.3299 282.5706,-611.6062 289.7515,-622.0979 294.7269,-615.3299"/>
</g>
<!-- ndvi_act_min_m -->
<g id="node8" class="node rankA">
<title>ndvi_act_min_m</title>
<path fill="none" stroke="#000000" d="M330.2902,-800.5C330.2902,-800.5 456.2902,-800.5 456.2902,-800.5 462.2902,-800.5 468.2902,-806.5 468.2902,-812.5 468.2902,-812.5 468.2902,-861.5 468.2902,-861.5 468.2902,-867.5 462.2902,-873.5 456.2902,-873.5 456.2902,-873.5 330.2902,-873.5 330.2902,-873.5 324.2902,-873.5 318.2902,-867.5 318.2902,-861.5 318.2902,-861.5 318.2902,-812.5 318.2902,-812.5 318.2902,-806.5 324.2902,-800.5 330.2902,-800.5"/>
<text text-anchor="start" x="353.2902" y="-854.7" font-family="Helvetica, Arial, sans-serif" font-size="16.00" fill="#000000">Density of</text>
<text text-anchor="start" x="352.2902" y="-836.7" font-family="Helvetica, Arial, sans-serif" font-size="16.00" fill="#000000">greenness</text>
<polyline fill="none" stroke="#000000" points="318.2902,-825.5 468.2902,-825.5 "/>
<text text-anchor="start" x="326.2902" y="-808.8" font-family="Helvetica, Arial, sans-serif" font-size="14.00" fill="#000000">effect: Inestimable</text>
</g>
<!-- ndvi_act_min_m&#45;&gt;DeliveredkcalFraction_s -->
<g id="edge15" class="edge">
<title>ndvi_act_min_m-&gt;DeliveredkcalFraction_s</title>
<path fill="none" stroke="#666666" stroke-width="2" d="M208.2902,-693C203.4642,-680.7218 253.0986,-644.7753 302.16,-612.9219"/>
<polygon fill="#666666" stroke="#666666" stroke-width="2" points="304.461,-616.4357 312.2739,-606.4058 299.9115,-609.3743 304.461,-616.4357"/>
</g>
<!-- ndvi_act_min_m&#45;&gt;chicken_number_s -->
<g id="edge16" class="edge">
<title>ndvi_act_min_m-&gt;chicken_number_s</title>
<path fill="none" stroke="#666666" stroke-width="2" d="M437.1277,-800.4968C454.4049,-783.4484 472.4448,-761.6897 482.2902,-738 522.5613,-641.1001 539.0941,-594.363 489.2902,-502 483.4002,-491.0769 475.0828,-481.5206 465.6186,-473.2391"/>
<polygon fill="#666666" stroke="#666666" stroke-width="2" points="468.2167,-469.9389 456.235,-465.6868 462.95,-476.4827 468.2167,-469.9389"/>
</g>
<!-- ndvi_act_min_m&#45;&gt;spam_P_i_avg_s -->
<g id="edge17" class="edge">
<title>ndvi_act_min_m-&gt;spam_P_i_avg_s</title>
<path fill="none" stroke="#666666" stroke-width="2" d="M105.2902,-429C101.8978,-409.1953 101.083,-387.2629 101.3769,-367.6781"/>
<polygon fill="#666666" stroke="#666666" stroke-width="2" points="105.5799,-367.6192 101.7021,-355.5113 97.1829,-367.3947 105.5799,-367.6192"/>
</g>
<!-- ndvi_act_min_m&#45;&gt;rurpop_s -->
<g id="edge18" class="edge">
<title>ndvi_act_min_m-&gt;rurpop_s</title>
<path fill="none" stroke="#666666" stroke-width="2" d="M317.9921,-803.0238C275.7807,-779.167 227.7945,-742.6228 208.2902,-693"/>
<path fill="none" stroke="#666666" stroke-width="2" d="M208.2902,-693C188.7249,-643.2221 142.7654,-660.0578 119.2902,-612 83.4876,-538.706 119.0621,-509.4 105.2902,-429"/>
<path fill="none" stroke="#666666" stroke-width="2" d="M105.2902,-429C92.2864,-379.1648 37.4445,-402.4955 15.2902,-356 -2.2982,-319.0872 -7.0957,-298.2166 15.2902,-264 33.4929,-236.1773 64.8878,-218.8959 95.5786,-208.1899"/>
<polygon fill="#666666" stroke="#666666" stroke-width="2" points="97.1559,-212.0939 107.2777,-204.4003 94.5674,-204.1026 97.1559,-212.0939"/>
</g>
<!-- ndvi_act_min_m&#45;&gt;yield_gap_barley_s -->
<g id="edge19" class="edge">
<title>ndvi_act_min_m-&gt;yield_gap_barley_s</title>
<path fill="none" stroke="#666666" stroke-width="2" d="M208.2902,-693C199.8366,-671.4923 197.847,-646.5511 198.6144,-623.9456"/>
<polygon fill="#666666" stroke="#666666" stroke-width="2" points="202.8246,-623.8796 199.3009,-611.6639 194.4377,-623.4108 202.8246,-623.8796"/>
</g>
<!-- ndvi_act_min_m&#45;&gt;locdensity_y -->
<g id="edge20" class="edge">
<title>ndvi_act_min_m-&gt;locdensity_y</title>
<path fill="none" stroke="#666666" stroke-width="2" d="M393.2902,-800.2901C393.2902,-784.9351 393.2902,-766.7351 393.2902,-749.7271"/>
<polygon fill="#666666" stroke="#666666" stroke-width="2" points="397.4903,-749.6109 393.2902,-737.6109 389.0903,-749.611 397.4903,-749.6109"/>
</g>
<!-- acl_sum_fatl_m -->
<g id="node10" class="node rankC">
<title>acl_sum_fatl_m</title>
<path fill="none" stroke="#000000" d="M134.2902,-118C134.2902,-118 34.2902,-118 34.2902,-118 28.2902,-118 22.2902,-112 22.2902,-106 22.2902,-106 22.2902,-62 22.2902,-62 22.2902,-56 28.2902,-50 34.2902,-50 34.2902,-50 134.2902,-50 134.2902,-50 140.2902,-50 146.2902,-56 146.2902,-62 146.2902,-62 146.2902,-106 146.2902,-106 146.2902,-112 140.2902,-118 134.2902,-118"/>
<text text-anchor="middle" x="84.2902" y="-98.2" font-family="Helvetica, Arial, sans-serif" font-size="16.00" fill="#000000">Reported</text>
<text text-anchor="middle" x="84.2902" y="-80.2" font-family="Helvetica, Arial, sans-serif" font-size="16.00" fill="#000000">fatalities from</text>
<text text-anchor="middle" x="84.2902" y="-62.2" font-family="Helvetica, Arial, sans-serif" font-size="16.00" fill="#000000">conflict events</text>
</g>
<!-- acl_sum_fatl_m&#45;&gt;acl_sum_evnt_m -->
<g id="edge21" class="edge">
<title>acl_sum_fatl_m-&gt;acl_sum_evnt_m</title>
<path fill="none" stroke="#666666" stroke-width="2" d="M146.5382,-84C152.0303,-84 157.5224,-84 163.0146,-84"/>
<polygon fill="#666666" stroke="#666666" stroke-width="2" points="163.0379,-88.2001 175.0378,-84 163.0378,-79.8001 163.0379,-88.2001"/>
</g>
</g>
<style>.node path {
  stroke: #fff;
}
.node text {
  fill: #fff;
}
.node polyline {
  stroke: #fff;
}
.rankA path {
  fill: #1b6002;
}
.rankB path {
  fill: #437387;
}
.rankC path {
  fill: #2e3348;
}
</style></svg>
