<?xml version="1.0" encoding="UTF-8" standalone="no"?>
<!DOCTYPE svg PUBLIC "-//W3C//DTD SVG 1.1//EN" "http://www.w3.org/Graphics/SVG/1.1/DTD/svg11.dtd">
<!-- Generated by graphviz version 2.40.1 (20161225.0304)
 -->
<!-- Title: causalModel Pages: 1 -->
<svg xmlns="http://www.w3.org/2000/svg" xmlns:xlink="http://www.w3.org/1999/xlink" width="" height="" viewBox="0.00 0.00 620.18 814.00" preserveAspectRatio="xMinYMin">
<g id="graph0" class="graph" transform="scale(1 1) rotate(0) translate(4 810)">
<title>causalModel</title>
<polygon fill="#ffffff" stroke="transparent" points="-4,4 -4,-810 616.1848,-810 616.1848,4 -4,4"/>
<text text-anchor="middle" x="306.0924" y="-7.8" font-family="Helvetica, Arial, sans-serif" font-size="14.00" fill="#000000">Causal Model: Middle East and North Africa</text>
<!-- DeliveredkcalFraction_s -->
<g id="node1" class="node rankB">
<title>DeliveredkcalFraction_s</title>
<path fill="none" stroke="#000000" d="M307.6848,-410.5C307.6848,-410.5 445.6848,-410.5 445.6848,-410.5 451.6848,-410.5 457.6848,-416.5 457.6848,-422.5 457.6848,-422.5 457.6848,-505.5 457.6848,-505.5 457.6848,-511.5 451.6848,-517.5 445.6848,-517.5 445.6848,-517.5 307.6848,-517.5 307.6848,-517.5 301.6848,-517.5 295.6848,-511.5 295.6848,-505.5 295.6848,-505.5 295.6848,-422.5 295.6848,-422.5 295.6848,-416.5 301.6848,-410.5 307.6848,-410.5"/>
<text text-anchor="start" x="338.6848" y="-498.7" font-family="Helvetica, Arial, sans-serif" font-size="16.00" fill="#000000">Portion of</text>
<text text-anchor="start" x="305.6848" y="-480.7" font-family="Helvetica, Arial, sans-serif" font-size="16.00" fill="#000000">calories produced</text>
<text text-anchor="start" x="304.6848" y="-462.7" font-family="Helvetica, Arial, sans-serif" font-size="16.00" fill="#000000">going toward food</text>
<polyline fill="none" stroke="#000000" points="295.6848,-451.5 457.6848,-451.5 "/>
<text text-anchor="start" x="331.6848" y="-434.8" font-family="Helvetica, Arial, sans-serif" font-size="14.00" fill="#000000">effect: 0.056</text>
<text text-anchor="start" x="334.1848" y="-418.8" font-family="Helvetica, Arial, sans-serif" font-size="14.00" fill="#000000">error: 0.143</text>
</g>
<!-- chicken_number_s -->
<g id="node2" class="node rankB">
<title>chicken_number_s</title>
<path fill="none" stroke="#000000" d="M294.6848,-325.5C294.6848,-325.5 430.6848,-325.5 430.6848,-325.5 436.6848,-325.5 442.6848,-331.5 442.6848,-337.5 442.6848,-337.5 442.6848,-361.5 442.6848,-361.5 442.6848,-367.5 436.6848,-373.5 430.6848,-373.5 430.6848,-373.5 294.6848,-373.5 294.6848,-373.5 288.6848,-373.5 282.6848,-367.5 282.6848,-361.5 282.6848,-361.5 282.6848,-337.5 282.6848,-337.5 282.6848,-331.5 288.6848,-325.5 294.6848,-325.5"/>
<text text-anchor="start" x="291.6848" y="-354.7" font-family="Helvetica, Arial, sans-serif" font-size="16.00" fill="#000000">Count of livestock</text>
<text text-anchor="start" x="328.1848" y="-336.7" font-family="Helvetica, Arial, sans-serif" font-size="16.00" fill="#000000">chickens</text>
</g>
<!-- DeliveredkcalFraction_s&#45;&gt;chicken_number_s -->
<g id="edge1" class="edge">
<title>DeliveredkcalFraction_s-&gt;chicken_number_s</title>
<path fill="none" stroke="#000000" stroke-width="2" d="M370.1357,-410.4377C369.1112,-402.0592 368.0739,-393.5749 367.1118,-385.7067"/>
<polygon fill="#000000" stroke="#000000" stroke-width="2" points="371.253,-384.9688 365.6275,-373.5673 362.9151,-385.9883 371.253,-384.9688"/>
</g>
<!-- spam_P_i_avg_s -->
<g id="node3" class="node rankB">
<title>spam_P_i_avg_s</title>
<path fill="none" stroke="#000000" d="M38.1848,-222.5C38.1848,-222.5 149.1848,-222.5 149.1848,-222.5 155.1848,-222.5 161.1848,-228.5 161.1848,-234.5 161.1848,-234.5 161.1848,-276.5 161.1848,-276.5 161.1848,-282.5 155.1848,-288.5 149.1848,-288.5 149.1848,-288.5 38.1848,-288.5 38.1848,-288.5 32.1848,-288.5 26.1848,-282.5 26.1848,-276.5 26.1848,-276.5 26.1848,-234.5 26.1848,-234.5 26.1848,-228.5 32.1848,-222.5 38.1848,-222.5"/>
<text text-anchor="start" x="39.6848" y="-269.7" font-family="Helvetica, Arial, sans-serif" font-size="16.00" fill="#000000">Metric tons of</text>
<text text-anchor="start" x="35.6848" y="-251.7" font-family="Helvetica, Arial, sans-serif" font-size="16.00" fill="#000000">irrigated crops</text>
<text text-anchor="start" x="56.6848" y="-233.7" font-family="Helvetica, Arial, sans-serif" font-size="16.00" fill="#000000">produced</text>
</g>
<!-- DeliveredkcalFraction_s&#45;&gt;spam_P_i_avg_s -->
<g id="edge2" class="edge">
<title>DeliveredkcalFraction_s-&gt;spam_P_i_avg_s</title>
<path fill="none" stroke="#000000" stroke-width="2" d="M295.5608,-419.1725C266.1429,-400.2884 234.1609,-376.4201 209.6848,-349.5"/>
</g>
<!-- chicken_number_s&#45;&gt;spam_P_i_avg_s -->
<g id="edge3" class="edge">
<title>chicken_number_s-&gt;spam_P_i_avg_s</title>
<path fill="none" stroke="#000000" stroke-width="2" d="M293.7599,-325.4147C256.9401,-312.5483 211.4397,-296.6486 173.1373,-283.2641"/>
<polygon fill="#000000" stroke="#000000" stroke-width="2" points="174.2128,-279.1909 161.499,-279.1972 171.4418,-287.1207 174.2128,-279.1909"/>
</g>
<!-- rurpop_s -->
<g id="node4" class="node rankB">
<title>rurpop_s</title>
<path fill="none" stroke="#000000" d="M131.1848,-137.5C131.1848,-137.5 228.1848,-137.5 228.1848,-137.5 234.1848,-137.5 240.1848,-143.5 240.1848,-149.5 240.1848,-149.5 240.1848,-173.5 240.1848,-173.5 240.1848,-179.5 234.1848,-185.5 228.1848,-185.5 228.1848,-185.5 131.1848,-185.5 131.1848,-185.5 125.1848,-185.5 119.1848,-179.5 119.1848,-173.5 119.1848,-173.5 119.1848,-149.5 119.1848,-149.5 119.1848,-143.5 125.1848,-137.5 131.1848,-137.5"/>
<text text-anchor="start" x="128.6848" y="-166.7" font-family="Helvetica, Arial, sans-serif" font-size="16.00" fill="#000000">Population in</text>
<text text-anchor="start" x="136.1848" y="-148.7" font-family="Helvetica, Arial, sans-serif" font-size="16.00" fill="#000000">rural areas</text>
</g>
<!-- chicken_number_s&#45;&gt;rurpop_s -->
<g id="edge4" class="edge">
<title>chicken_number_s-&gt;rurpop_s</title>
<path fill="none" stroke="#000000" stroke-width="2" d="M340.532,-325.3433C324.161,-306.9106 301.8324,-280.511 284.6848,-255.5"/>
<path fill="none" stroke="#000000" stroke-width="2" d="M284.6848,-255.5C268.322,-231.6337 244.6674,-209.7565 223.9509,-193.1244"/>
<polygon fill="#000000" stroke="#000000" stroke-width="2" points="226.4095,-189.7153 214.37,-185.6299 221.2341,-196.3316 226.4095,-189.7153"/>
</g>
<!-- acl_sum_evnt_m -->
<g id="node9" class="node rankC">
<title>acl_sum_evnt_m</title>
<path fill="none" stroke="#000000" d="M289.6848,-92C289.6848,-92 175.6848,-92 175.6848,-92 169.6848,-92 163.6848,-86 163.6848,-80 163.6848,-80 163.6848,-60 163.6848,-60 163.6848,-54 169.6848,-48 175.6848,-48 175.6848,-48 289.6848,-48 289.6848,-48 295.6848,-48 301.6848,-54 301.6848,-60 301.6848,-60 301.6848,-80 301.6848,-80 301.6848,-86 295.6848,-92 289.6848,-92"/>
<text text-anchor="middle" x="232.6848" y="-75.2" font-family="Helvetica, Arial, sans-serif" font-size="16.00" fill="#000000">Total number of</text>
<text text-anchor="middle" x="232.6848" y="-57.2" font-family="Helvetica, Arial, sans-serif" font-size="16.00" fill="#000000">conflict events</text>
</g>
<!-- chicken_number_s&#45;&gt;acl_sum_evnt_m -->
<g id="edge5" class="edge">
<title>chicken_number_s-&gt;acl_sum_evnt_m</title>
<path fill="none" stroke="#000000" stroke-width="2" d="M284.6848,-255.5C253.964,-210.6916 269.835,-189.1731 254.6848,-137 251.5097,-126.0657 247.7381,-114.2337 244.2224,-103.5992"/>
<polygon fill="#000000" stroke="#000000" stroke-width="2" points="248.2022,-102.2569 240.4072,-92.213 240.2374,-104.9257 248.2022,-102.2569"/>
</g>
<!-- spam_P_i_avg_s&#45;&gt;rurpop_s -->
<g id="edge6" class="edge">
<title>spam_P_i_avg_s-&gt;rurpop_s</title>
<path fill="none" stroke="#000000" stroke-width="2" d="M124.0052,-222.3591C132.1885,-213.4146 141.0446,-203.7346 149.2349,-194.7824"/>
<polygon fill="#000000" stroke="#000000" stroke-width="2" points="152.4716,-197.4667 157.473,-185.778 146.274,-191.7966 152.4716,-197.4667"/>
</g>
<!-- rurpop_s&#45;&gt;acl_sum_evnt_m -->
<g id="edge7" class="edge">
<title>rurpop_s-&gt;acl_sum_evnt_m</title>
<path fill="none" stroke="#000000" stroke-width="2" d="M193.6099,-137.4595C199.7923,-126.7861 207.1634,-114.0605 213.8289,-102.5531"/>
<polygon fill="#000000" stroke="#000000" stroke-width="2" points="217.5611,-104.4892 219.9415,-92.0002 210.2924,-100.2789 217.5611,-104.4892"/>
</g>
<!-- yield_gap_barley_s -->
<g id="node5" class="node rankB">
<title>yield_gap_barley_s</title>
<path fill="none" stroke="#000000" d="M135.1848,-422C135.1848,-422 254.1848,-422 254.1848,-422 260.1848,-422 266.1848,-428 266.1848,-434 266.1848,-434 266.1848,-494 266.1848,-494 266.1848,-500 260.1848,-506 254.1848,-506 254.1848,-506 135.1848,-506 135.1848,-506 129.1848,-506 123.1848,-500 123.1848,-494 123.1848,-494 123.1848,-434 123.1848,-434 123.1848,-428 129.1848,-422 135.1848,-422"/>
<text text-anchor="start" x="142.6848" y="-487.2" font-family="Helvetica, Arial, sans-serif" font-size="16.00" fill="#000000">Gap between</text>
<text text-anchor="start" x="141.1848" y="-469.2" font-family="Helvetica, Arial, sans-serif" font-size="16.00" fill="#000000">observed and</text>
<text text-anchor="start" x="132.6848" y="-451.2" font-family="Helvetica, Arial, sans-serif" font-size="16.00" fill="#000000">potential barley</text>
<text text-anchor="start" x="176.1848" y="-433.2" font-family="Helvetica, Arial, sans-serif" font-size="16.00" fill="#000000">yield</text>
</g>
<!-- yield_gap_barley_s&#45;&gt;chicken_number_s -->
<g id="edge8" class="edge">
<title>yield_gap_barley_s-&gt;chicken_number_s</title>
<path fill="none" stroke="#000000" stroke-width="2" d="M256.7645,-421.6897C276.7964,-408.037 298.6166,-393.1656 317.2182,-380.4877"/>
<polygon fill="#000000" stroke="#000000" stroke-width="2" points="319.6389,-383.9206 327.1895,-373.6918 314.9081,-376.9794 319.6389,-383.9206"/>
</g>
<!-- yield_gap_barley_s&#45;&gt;spam_P_i_avg_s -->
<g id="edge9" class="edge">
<title>yield_gap_barley_s-&gt;spam_P_i_avg_s</title>
<path fill="none" stroke="#000000" stroke-width="2" d="M214.847,-421.8278C223.1073,-397.7843 227.1504,-368.7096 209.6848,-349.5"/>
<path fill="none" stroke="#000000" stroke-width="2" d="M209.6848,-349.5C192.1518,-330.2163 170.497,-311.5798 150.6629,-296.0568"/>
<polygon fill="#000000" stroke="#000000" stroke-width="2" points="153.1702,-292.6867 141.0985,-288.6974 148.0477,-299.344 153.1702,-292.6867"/>
</g>
<!-- rurratio_s -->
<g id="node6" class="node rankA">
<title>rurratio_s</title>
<path fill="none" stroke="#000000" d="M485.1848,-680.5C485.1848,-680.5 600.1848,-680.5 600.1848,-680.5 606.1848,-680.5 612.1848,-686.5 612.1848,-692.5 612.1848,-692.5 612.1848,-793.5 612.1848,-793.5 612.1848,-799.5 606.1848,-805.5 600.1848,-805.5 600.1848,-805.5 485.1848,-805.5 485.1848,-805.5 479.1848,-805.5 473.1848,-799.5 473.1848,-793.5 473.1848,-793.5 473.1848,-692.5 473.1848,-692.5 473.1848,-686.5 479.1848,-680.5 485.1848,-680.5"/>
<text text-anchor="start" x="488.1848" y="-786.7" font-family="Helvetica, Arial, sans-serif" font-size="16.00" fill="#000000">Percentage of</text>
<text text-anchor="start" x="482.6848" y="-768.7" font-family="Helvetica, Arial, sans-serif" font-size="16.00" fill="#000000">population that</text>
<text text-anchor="start" x="497.6848" y="-750.7" font-family="Helvetica, Arial, sans-serif" font-size="16.00" fill="#000000">live in rural</text>
<text text-anchor="start" x="520.6848" y="-732.7" font-family="Helvetica, Arial, sans-serif" font-size="16.00" fill="#000000">areas</text>
<polyline fill="none" stroke="#000000" points="473.1848,-721.5 612.1848,-721.5 "/>
<text text-anchor="start" x="494.6848" y="-704.8" font-family="Helvetica, Arial, sans-serif" font-size="14.00" fill="#000000">effect: -0.489</text>
<text text-anchor="start" x="499.6848" y="-688.8" font-family="Helvetica, Arial, sans-serif" font-size="14.00" fill="#000000">error: 0.255</text>
</g>
<!-- rurratio_s&#45;&gt;chicken_number_s -->
<g id="edge10" class="edge">
<title>rurratio_s-&gt;chicken_number_s</title>
<path fill="none" stroke="#000000" stroke-width="2" d="M561.0067,-680.4676C574.7234,-622.476 587.0233,-534.7322 560.6848,-464"/>
<path fill="none" stroke="#000000" stroke-width="2" d="M560.6848,-464C542.0755,-419.6284 496.7231,-391.6089 454.1133,-374.4027"/>
<polygon fill="#000000" stroke="#000000" stroke-width="2" points="455.4849,-370.4304 442.7769,-370.0451 452.4709,-378.2711 455.4849,-370.4304"/>
</g>
<!-- rurratio_s&#45;&gt;rurpop_s -->
<g id="edge11" class="edge">
<title>rurratio_s-&gt;rurpop_s</title>
<path fill="none" stroke="#000000" stroke-width="2" d="M560.6848,-464C502.85,-326.0996 342.771,-234.2524 249.5384,-190.718"/>
<polygon fill="#000000" stroke="#000000" stroke-width="2" points="251.1687,-186.8449 238.5113,-185.6485 247.66,-194.477 251.1687,-186.8449"/>
</g>
<!-- locdensity_y -->
<g id="node7" class="node rankB">
<title>locdensity_y</title>
<path fill="none" stroke="#000000" d="M314.1848,-554.5C314.1848,-554.5 439.1848,-554.5 439.1848,-554.5 445.1848,-554.5 451.1848,-560.5 451.1848,-566.5 451.1848,-566.5 451.1848,-631.5 451.1848,-631.5 451.1848,-637.5 445.1848,-643.5 439.1848,-643.5 439.1848,-643.5 314.1848,-643.5 314.1848,-643.5 308.1848,-643.5 302.1848,-637.5 302.1848,-631.5 302.1848,-631.5 302.1848,-566.5 302.1848,-566.5 302.1848,-560.5 308.1848,-554.5 314.1848,-554.5"/>
<text text-anchor="start" x="311.6848" y="-624.7" font-family="Helvetica, Arial, sans-serif" font-size="16.00" fill="#000000">Local population</text>
<text text-anchor="start" x="348.1848" y="-606.7" font-family="Helvetica, Arial, sans-serif" font-size="16.00" fill="#000000">density</text>
<polyline fill="none" stroke="#000000" points="302.1848,-595.5 451.1848,-595.5 "/>
<text text-anchor="start" x="328.6848" y="-578.8" font-family="Helvetica, Arial, sans-serif" font-size="14.00" fill="#000000">effect: -1.263</text>
<text text-anchor="start" x="338.1848" y="-562.8" font-family="Helvetica, Arial, sans-serif" font-size="14.00" fill="#000000">error: 0.68</text>
</g>
<!-- rurratio_s&#45;&gt;locdensity_y -->
<g id="edge12" class="edge">
<title>rurratio_s-&gt;locdensity_y</title>
<path fill="none" stroke="#000000" stroke-width="2" d="M472.767,-682.3484C460.9511,-672.0985 448.7724,-661.5339 437.2214,-651.5137"/>
<polygon fill="#000000" stroke="#000000" stroke-width="2" points="439.9281,-648.3016 428.1113,-643.6109 434.4238,-654.6469 439.9281,-648.3016"/>
</g>
<!-- locdensity_y&#45;&gt;DeliveredkcalFraction_s -->
<g id="edge13" class="edge">
<title>locdensity_y-&gt;DeliveredkcalFraction_s</title>
<path fill="none" stroke="#000000" stroke-width="2" d="M376.6848,-554.4218C376.6848,-546.5784 376.6848,-538.2665 376.6848,-529.985"/>
<polygon fill="#000000" stroke="#000000" stroke-width="2" points="380.8849,-529.9315 376.6848,-517.9315 372.4849,-529.9316 380.8849,-529.9315"/>
</g>
<!-- locdensity_y&#45;&gt;yield_gap_barley_s -->
<g id="edge14" class="edge">
<title>locdensity_y-&gt;yield_gap_barley_s</title>
<path fill="none" stroke="#000000" stroke-width="2" d="M316.5868,-554.4218C298.7702,-541.2062 279.1603,-526.6604 260.9749,-513.1712"/>
<polygon fill="#000000" stroke="#000000" stroke-width="2" points="263.4668,-509.7903 251.3266,-506.0145 258.4624,-516.5369 263.4668,-509.7903"/>
</g>
<!-- ndvi_act_min_m -->
<g id="node8" class="node rankA">
<title>ndvi_act_min_m</title>
<path fill="none" stroke="#000000" d="M338.6848,-719C338.6848,-719 414.6848,-719 414.6848,-719 420.6848,-719 426.6848,-725 426.6848,-731 426.6848,-731 426.6848,-755 426.6848,-755 426.6848,-761 420.6848,-767 414.6848,-767 414.6848,-767 338.6848,-767 338.6848,-767 332.6848,-767 326.6848,-761 326.6848,-755 326.6848,-755 326.6848,-731 326.6848,-731 326.6848,-725 332.6848,-719 338.6848,-719"/>
<text text-anchor="start" x="336.6848" y="-748.2" font-family="Helvetica, Arial, sans-serif" font-size="16.00" fill="#000000">Density of</text>
<text text-anchor="start" x="335.6848" y="-730.2" font-family="Helvetica, Arial, sans-serif" font-size="16.00" fill="#000000">greenness</text>
</g>
<!-- ndvi_act_min_m&#45;&gt;DeliveredkcalFraction_s -->
<g id="edge15" class="edge">
<title>ndvi_act_min_m-&gt;DeliveredkcalFraction_s</title>
<path fill="none" stroke="#000000" stroke-width="2" d="M194.6848,-599C190.0286,-586.9934 237.747,-551.9525 285.482,-520.581"/>
<polygon fill="#000000" stroke="#000000" stroke-width="2" points="287.8912,-524.0242 295.6495,-513.952 283.3034,-516.9876 287.8912,-524.0242"/>
</g>
<!-- ndvi_act_min_m&#45;&gt;chicken_number_s -->
<g id="edge16" class="edge">
<title>ndvi_act_min_m-&gt;chicken_number_s</title>
<path fill="none" stroke="#000000" stroke-width="2" d="M407.2965,-718.845C427.814,-700.6859 453.2673,-673.8789 465.6848,-644 505.6149,-547.9205 525.6403,-499.5622 472.6848,-410 465.4484,-397.7614 454.7573,-387.8316 442.842,-379.8286"/>
<polygon fill="#000000" stroke="#000000" stroke-width="2" points="445.0207,-376.2379 432.5941,-373.5509 440.6328,-383.4008 445.0207,-376.2379"/>
</g>
<!-- ndvi_act_min_m&#45;&gt;spam_P_i_avg_s -->
<g id="edge17" class="edge">
<title>ndvi_act_min_m-&gt;spam_P_i_avg_s</title>
<path fill="none" stroke="#000000" stroke-width="2" d="M93.6848,-349.5C90.4576,-333.862 89.6973,-316.4463 89.9896,-300.8963"/>
<polygon fill="#000000" stroke="#000000" stroke-width="2" points="94.1871,-301.0387 90.4227,-288.895 85.7926,-300.7357 94.1871,-301.0387"/>
</g>
<!-- ndvi_act_min_m&#45;&gt;rurpop_s -->
<g id="edge18" class="edge">
<title>ndvi_act_min_m-&gt;rurpop_s</title>
<path fill="none" stroke="#000000" stroke-width="2" d="M326.3429,-721.5107C280.8274,-698.7759 217.5565,-657.9777 194.6848,-599"/>
<path fill="none" stroke="#000000" stroke-width="2" d="M194.6848,-599C175.7002,-550.0457 131.6206,-565.2323 108.6848,-518 75.8426,-450.3673 108.8804,-423.1334 93.6848,-349.5"/>
<path fill="none" stroke="#000000" stroke-width="2" d="M93.6848,-349.5C80.1484,-306.2799 32.0981,-329.429 11.6848,-289 -1.7367,-262.4184 -5.4365,-246.3634 11.6848,-222 23.4058,-205.3212 67.4238,-189.8118 107.4608,-178.6723"/>
<polygon fill="#000000" stroke="#000000" stroke-width="2" points="108.68,-182.6935 119.1659,-175.5043 106.4854,-174.5853 108.68,-182.6935"/>
</g>
<!-- ndvi_act_min_m&#45;&gt;yield_gap_barley_s -->
<g id="edge19" class="edge">
<title>ndvi_act_min_m-&gt;yield_gap_barley_s</title>
<path fill="none" stroke="#000000" stroke-width="2" d="M194.6848,-599C184.8534,-573.6484 183.9329,-543.5488 185.8658,-518.2113"/>
<polygon fill="#000000" stroke="#000000" stroke-width="2" points="190.0532,-518.5432 187.0174,-506.1972 181.6915,-517.7416 190.0532,-518.5432"/>
</g>
<!-- ndvi_act_min_m&#45;&gt;locdensity_y -->
<g id="edge20" class="edge">
<title>ndvi_act_min_m-&gt;locdensity_y</title>
<path fill="none" stroke="#000000" stroke-width="2" d="M376.6848,-718.8976C376.6848,-701.6837 376.6848,-677.7847 376.6848,-655.8504"/>
<polygon fill="#000000" stroke="#000000" stroke-width="2" points="380.8849,-655.5763 376.6848,-643.5763 372.4849,-655.5764 380.8849,-655.5763"/>
</g>
<!-- acl_sum_fatl_m -->
<g id="node10" class="node rankC">
<title>acl_sum_fatl_m</title>
<path fill="none" stroke="#000000" d="M122.6848,-101C122.6848,-101 16.6848,-101 16.6848,-101 10.6848,-101 4.6848,-95 4.6848,-89 4.6848,-89 4.6848,-51 4.6848,-51 4.6848,-45 10.6848,-39 16.6848,-39 16.6848,-39 122.6848,-39 122.6848,-39 128.6848,-39 134.6848,-45 134.6848,-51 134.6848,-51 134.6848,-89 134.6848,-89 134.6848,-95 128.6848,-101 122.6848,-101"/>
<text text-anchor="middle" x="69.6848" y="-84.2" font-family="Helvetica, Arial, sans-serif" font-size="16.00" fill="#000000">Reported</text>
<text text-anchor="middle" x="69.6848" y="-66.2" font-family="Helvetica, Arial, sans-serif" font-size="16.00" fill="#000000">fatalities from</text>
<text text-anchor="middle" x="69.6848" y="-48.2" font-family="Helvetica, Arial, sans-serif" font-size="16.00" fill="#000000">conflict events</text>
</g>
<!-- acl_sum_fatl_m&#45;&gt;acl_sum_evnt_m -->
<g id="edge21" class="edge">
<title>acl_sum_fatl_m-&gt;acl_sum_evnt_m</title>
<path fill="none" stroke="#000000" stroke-width="2" d="M134.9485,-70C140.4664,-70 145.9844,-70 151.5023,-70"/>
<polygon fill="#000000" stroke="#000000" stroke-width="2" points="151.5822,-74.2001 163.5822,-70 151.5821,-65.8001 151.5822,-74.2001"/>
</g>
</g>
<style>.node path {
  stroke: #fff;
}
.node text {
  fill: #fff;
}
.node polyline {
  stroke: #fff;
}
.rankA path {
  fill: #2e3348;
}
.rankB path {
  fill: #437387;
}
.rankC path {
  fill: #1b6002;
}
.edge path {
  stroke: #666;
};
</style></svg>
