<?xml version="1.0" encoding="UTF-8" standalone="no"?>
<!DOCTYPE svg PUBLIC "-//W3C//DTD SVG 1.1//EN" "http://www.w3.org/Graphics/SVG/1.1/DTD/svg11.dtd">
<!-- Generated by graphviz version 2.40.1 (20161225.0304)
 -->
<!-- Title: causalModel Pages: 1 -->
<svg xmlns="http://www.w3.org/2000/svg" xmlns:xlink="http://www.w3.org/1999/xlink" width="" height="" viewBox="0.00 0.00 917.50 906.00" preserveAspectRatio="xMinYMin">
<g id="graph0" class="graph" transform="scale(1 1) rotate(0) translate(4 902)">
<title>causalModel</title>
<polygon fill="#ffffff" stroke="transparent" points="-4,4 -4,-902 913.5,-902 913.5,4 -4,4"/>
<!-- DeliveredkcalFraction_s -->
<g id="node1" class="node rankB">
<title>DeliveredkcalFraction_s</title>
<path fill="none" stroke="#000000" d="M253,-484.5C253,-484.5 427,-484.5 427,-484.5 433,-484.5 439,-490.5 439,-496.5 439,-496.5 439,-579.5 439,-579.5 439,-585.5 433,-591.5 427,-591.5 427,-591.5 253,-591.5 253,-591.5 247,-591.5 241,-585.5 241,-579.5 241,-579.5 241,-496.5 241,-496.5 241,-490.5 247,-484.5 253,-484.5"/>
<text text-anchor="start" x="268" y="-572.7" font-family="Helvetica, Arial, sans-serif" font-size="16.00" fill="#000000">Portion of calories</text>
<text text-anchor="start" x="248" y="-554.7" font-family="Helvetica, Arial, sans-serif" font-size="16.00" fill="#000000">produced going toward</text>
<text text-anchor="start" x="322.5" y="-536.7" font-family="Helvetica, Arial, sans-serif" font-size="16.00" fill="#000000">food</text>
<polyline fill="none" stroke="#000000" points="241,-525.5 439,-525.5 "/>
<text text-anchor="start" x="295" y="-508.8" font-family="Helvetica, Arial, sans-serif" font-size="14.00" fill="#000000">effect: 0.056</text>
<text text-anchor="start" x="297.5" y="-492.8" font-family="Helvetica, Arial, sans-serif" font-size="14.00" fill="#000000">error: 0.143</text>
</g>
<!-- chicken_number_s -->
<g id="node2" class="node rankB">
<title>chicken_number_s</title>
<path fill="none" stroke="#000000" d="M487,-363.5C487,-363.5 619,-363.5 619,-363.5 625,-363.5 631,-369.5 631,-375.5 631,-375.5 631,-399.5 631,-399.5 631,-405.5 625,-411.5 619,-411.5 619,-411.5 487,-411.5 487,-411.5 481,-411.5 475,-405.5 475,-399.5 475,-399.5 475,-375.5 475,-375.5 475,-369.5 481,-363.5 487,-363.5"/>
<text text-anchor="start" x="482" y="-392.7" font-family="Helvetica, Arial, sans-serif" font-size="16.00" fill="#000000">Count of livestock</text>
<text text-anchor="start" x="518.5" y="-374.7" font-family="Helvetica, Arial, sans-serif" font-size="16.00" fill="#000000">chickens</text>
</g>
<!-- DeliveredkcalFraction_s&#45;&gt;chicken_number_s -->
<g id="edge1" class="edge">
<title>DeliveredkcalFraction_s-&gt;chicken_number_s</title>
<path fill="none" stroke="#000000" stroke-width="2" d="M415.9958,-484.3034C447.248,-462.2215 482.3275,-437.4352 509.1662,-418.4718"/>
<polygon fill="#000000" stroke="#000000" stroke-width="2" points="511.6469,-421.8617 519.0237,-411.5068 506.7996,-415.0014 511.6469,-421.8617"/>
</g>
<!-- spam_P_i_avg_s -->
<g id="node3" class="node rankB">
<title>spam_P_i_avg_s</title>
<path fill="none" stroke="#000000" d="M183,-242.5C183,-242.5 355,-242.5 355,-242.5 361,-242.5 367,-248.5 367,-254.5 367,-254.5 367,-278.5 367,-278.5 367,-284.5 361,-290.5 355,-290.5 355,-290.5 183,-290.5 183,-290.5 177,-290.5 171,-284.5 171,-278.5 171,-278.5 171,-254.5 171,-254.5 171,-248.5 177,-242.5 183,-242.5"/>
<text text-anchor="start" x="178" y="-271.7" font-family="Helvetica, Arial, sans-serif" font-size="16.00" fill="#000000">Metric tons of irrigated</text>
<text text-anchor="start" x="207" y="-253.7" font-family="Helvetica, Arial, sans-serif" font-size="16.00" fill="#000000">crops produced</text>
</g>
<!-- DeliveredkcalFraction_s&#45;&gt;spam_P_i_avg_s -->
<g id="edge2" class="edge">
<title>DeliveredkcalFraction_s-&gt;spam_P_i_avg_s</title>
<path fill="none" stroke="#000000" stroke-width="2" d="M369.6119,-484.2531C382.2546,-453.4267 390.0287,-415.4297 370,-387.5"/>
<path fill="none" stroke="#000000" stroke-width="2" d="M370,-387.5C347.8559,-356.6204 320.0165,-323.6376 299.1765,-299.9197"/>
<polygon fill="#000000" stroke="#000000" stroke-width="2" points="302.0923,-296.8769 290.9945,-290.6737 295.8017,-302.4436 302.0923,-296.8769"/>
</g>
<!-- chicken_number_s&#45;&gt;spam_P_i_avg_s -->
<g id="edge3" class="edge">
<title>chicken_number_s-&gt;spam_P_i_avg_s</title>
<path fill="none" stroke="#000000" stroke-width="2" d="M496.5512,-363.4496C450.4786,-343.8201 385.2497,-316.0289 336.4339,-295.2306"/>
<polygon fill="#000000" stroke="#000000" stroke-width="2" points="338.028,-291.3446 325.342,-290.5049 334.7355,-299.0724 338.028,-291.3446"/>
</g>
<!-- rurpop_s -->
<g id="node4" class="node rankB">
<title>rurpop_s</title>
<path fill="none" stroke="#000000" d="M243.5,-127.5C243.5,-127.5 428.5,-127.5 428.5,-127.5 434.5,-127.5 440.5,-133.5 440.5,-139.5 440.5,-139.5 440.5,-151.5 440.5,-151.5 440.5,-157.5 434.5,-163.5 428.5,-163.5 428.5,-163.5 243.5,-163.5 243.5,-163.5 237.5,-163.5 231.5,-157.5 231.5,-151.5 231.5,-151.5 231.5,-139.5 231.5,-139.5 231.5,-133.5 237.5,-127.5 243.5,-127.5"/>
<text text-anchor="start" x="239" y="-141.7" font-family="Helvetica, Arial, sans-serif" font-size="16.00" fill="#000000">Population in rural areas</text>
</g>
<!-- chicken_number_s&#45;&gt;rurpop_s -->
<g id="edge4" class="edge">
<title>chicken_number_s-&gt;rurpop_s</title>
<path fill="none" stroke="#000000" stroke-width="2" d="M539.7343,-363.2328C526.2291,-338.6864 504.5554,-299.7277 485,-266.5"/>
<path fill="none" stroke="#000000" stroke-width="2" d="M485,-266.5C460.2929,-224.5188 415.2195,-191.0284 381.0946,-170.0203"/>
<polygon fill="#000000" stroke="#000000" stroke-width="2" points="382.8931,-166.202 370.4395,-163.6432 378.5792,-173.4097 382.8931,-166.202"/>
</g>
<!-- acl_sum_evnt_m -->
<g id="node5" class="node rankC">
<title>acl_sum_evnt_m</title>
<path fill="none" stroke="#000000" d="M247.5,-.5C247.5,-.5 424.5,-.5 424.5,-.5 430.5,-.5 436.5,-6.5 436.5,-12.5 436.5,-12.5 436.5,-36.5 436.5,-36.5 436.5,-42.5 430.5,-48.5 424.5,-48.5 424.5,-48.5 247.5,-48.5 247.5,-48.5 241.5,-48.5 235.5,-42.5 235.5,-36.5 235.5,-36.5 235.5,-12.5 235.5,-12.5 235.5,-6.5 241.5,-.5 247.5,-.5"/>
<text text-anchor="start" x="243" y="-29.7" font-family="Helvetica, Arial, sans-serif" font-size="16.00" fill="#000000">Total number of conflict</text>
<text text-anchor="start" x="310" y="-11.7" font-family="Helvetica, Arial, sans-serif" font-size="16.00" fill="#000000">events</text>
</g>
<!-- chicken_number_s&#45;&gt;acl_sum_evnt_m -->
<g id="edge5" class="edge">
<title>chicken_number_s-&gt;acl_sum_evnt_m</title>
<path fill="none" stroke="#000000" stroke-width="2" d="M485,-266.5C451.5107,-209.5964 489.3076,-177.414 455,-121 438.7951,-94.3533 412.4714,-71.8725 388.6972,-55.3312"/>
<polygon fill="#000000" stroke="#000000" stroke-width="2" points="391.0032,-51.8207 378.7012,-48.611 386.3165,-58.7917 391.0032,-51.8207"/>
</g>
<!-- spam_P_i_avg_s&#45;&gt;rurpop_s -->
<g id="edge6" class="edge">
<title>spam_P_i_avg_s-&gt;rurpop_s</title>
<path fill="none" stroke="#000000" stroke-width="2" d="M282.3974,-242.3047C293.2237,-222.7526 308.4951,-195.1731 319.9696,-174.4504"/>
<polygon fill="#000000" stroke="#000000" stroke-width="2" points="323.7627,-176.2704 325.9014,-163.7377 316.4141,-172.2012 323.7627,-176.2704"/>
</g>
<!-- rurpop_s&#45;&gt;acl_sum_evnt_m -->
<g id="edge7" class="edge">
<title>rurpop_s-&gt;acl_sum_evnt_m</title>
<path fill="none" stroke="#000000" stroke-width="2" d="M336,-127.3851C336,-109.8597 336,-82.7984 336,-60.8274"/>
<polygon fill="#000000" stroke="#000000" stroke-width="2" points="340.2001,-60.59 336,-48.59 331.8001,-60.59 340.2001,-60.59"/>
</g>
<!-- yield_gap_barley_s -->
<g id="node6" class="node rankB">
<title>yield_gap_barley_s</title>
<path fill="none" stroke="#000000" d="M480.5,-514C480.5,-514 687.5,-514 687.5,-514 693.5,-514 699.5,-520 699.5,-526 699.5,-526 699.5,-550 699.5,-550 699.5,-556 693.5,-562 687.5,-562 687.5,-562 480.5,-562 480.5,-562 474.5,-562 468.5,-556 468.5,-550 468.5,-550 468.5,-526 468.5,-526 468.5,-520 474.5,-514 480.5,-514"/>
<text text-anchor="start" x="476" y="-543.2" font-family="Helvetica, Arial, sans-serif" font-size="16.00" fill="#000000">Gap between observed and</text>
<text text-anchor="start" x="500.5" y="-525.2" font-family="Helvetica, Arial, sans-serif" font-size="16.00" fill="#000000">potential barley yield</text>
</g>
<!-- yield_gap_barley_s&#45;&gt;chicken_number_s -->
<g id="edge8" class="edge">
<title>yield_gap_barley_s-&gt;chicken_number_s</title>
<path fill="none" stroke="#000000" stroke-width="2" d="M579.0193,-513.8196C574.0027,-489.4647 566.2025,-451.5961 560.45,-423.6683"/>
<polygon fill="#000000" stroke="#000000" stroke-width="2" points="564.503,-422.5263 557.9683,-411.6204 556.2757,-424.221 564.503,-422.5263"/>
</g>
<!-- yield_gap_barley_s&#45;&gt;spam_P_i_avg_s -->
<g id="edge9" class="edge">
<title>yield_gap_barley_s-&gt;spam_P_i_avg_s</title>
<path fill="none" stroke="#000000" stroke-width="2" d="M531.3856,-513.8852C482.6298,-488.9259 411.5566,-445.45 370,-387.5"/>
</g>
<!-- rurratio_s -->
<g id="node7" class="node rankA">
<title>rurratio_s</title>
<path fill="none" stroke="#000000" d="M708.5,-808.5C708.5,-808.5 897.5,-808.5 897.5,-808.5 903.5,-808.5 909.5,-814.5 909.5,-820.5 909.5,-820.5 909.5,-885.5 909.5,-885.5 909.5,-891.5 903.5,-897.5 897.5,-897.5 897.5,-897.5 708.5,-897.5 708.5,-897.5 702.5,-897.5 696.5,-891.5 696.5,-885.5 696.5,-885.5 696.5,-820.5 696.5,-820.5 696.5,-814.5 702.5,-808.5 708.5,-808.5"/>
<text text-anchor="start" x="704" y="-878.7" font-family="Helvetica, Arial, sans-serif" font-size="16.00" fill="#000000">Percentage of population</text>
<text text-anchor="start" x="715" y="-860.7" font-family="Helvetica, Arial, sans-serif" font-size="16.00" fill="#000000">that live in rural areas</text>
<polyline fill="none" stroke="#000000" points="696.5,-849.5 909.5,-849.5 "/>
<text text-anchor="start" x="755" y="-832.8" font-family="Helvetica, Arial, sans-serif" font-size="14.00" fill="#000000">effect: -0.489</text>
<text text-anchor="start" x="760" y="-816.8" font-family="Helvetica, Arial, sans-serif" font-size="14.00" fill="#000000">error: 0.255</text>
</g>
<!-- rurratio_s&#45;&gt;chicken_number_s -->
<g id="edge10" class="edge">
<title>rurratio_s-&gt;chicken_number_s</title>
<path fill="none" stroke="#000000" stroke-width="2" d="M812.2544,-808.3264C823.1842,-745.7548 836.0169,-629.428 803,-538"/>
<path fill="none" stroke="#000000" stroke-width="2" d="M803,-538C774.7708,-472.6876 702.2685,-433.7403 642.5686,-411.8873"/>
<polygon fill="#000000" stroke="#000000" stroke-width="2" points="643.9144,-407.9084 631.2006,-407.8727 641.1171,-415.829 643.9144,-407.9084"/>
</g>
<!-- rurratio_s&#45;&gt;rurpop_s -->
<g id="edge11" class="edge">
<title>rurratio_s-&gt;rurpop_s</title>
<path fill="none" stroke="#000000" stroke-width="2" d="M803,-538C720.7835,-347.7801 491.4339,-219.0461 387.8929,-168.9312"/>
<polygon fill="#000000" stroke="#000000" stroke-width="2" points="389.4315,-165.0116 376.7933,-163.6275 385.81,-172.5908 389.4315,-165.0116"/>
</g>
<!-- locdensity_y -->
<g id="node8" class="node rankB">
<title>locdensity_y</title>
<path fill="none" stroke="#000000" d="M489.5,-664.5C489.5,-664.5 672.5,-664.5 672.5,-664.5 678.5,-664.5 684.5,-670.5 684.5,-676.5 684.5,-676.5 684.5,-723.5 684.5,-723.5 684.5,-729.5 678.5,-735.5 672.5,-735.5 672.5,-735.5 489.5,-735.5 489.5,-735.5 483.5,-735.5 477.5,-729.5 477.5,-723.5 477.5,-723.5 477.5,-676.5 477.5,-676.5 477.5,-670.5 483.5,-664.5 489.5,-664.5"/>
<text text-anchor="start" x="485" y="-716.7" font-family="Helvetica, Arial, sans-serif" font-size="16.00" fill="#000000">Local population density</text>
<polyline fill="none" stroke="#000000" points="477.5,-705.5 684.5,-705.5 "/>
<text text-anchor="start" x="533" y="-688.8" font-family="Helvetica, Arial, sans-serif" font-size="14.00" fill="#000000">effect: -1.263</text>
<text text-anchor="start" x="542.5" y="-672.8" font-family="Helvetica, Arial, sans-serif" font-size="14.00" fill="#000000">error: 0.68</text>
</g>
<!-- rurratio_s&#45;&gt;locdensity_y -->
<g id="edge12" class="edge">
<title>rurratio_s-&gt;locdensity_y</title>
<path fill="none" stroke="#000000" stroke-width="2" d="M738.1916,-808.3348C708.197,-787.6628 672.7255,-763.2162 643.076,-742.7821"/>
<polygon fill="#000000" stroke="#000000" stroke-width="2" points="645.114,-739.0859 632.8499,-735.7344 640.3472,-746.0024 645.114,-739.0859"/>
</g>
<!-- locdensity_y&#45;&gt;DeliveredkcalFraction_s -->
<g id="edge13" class="edge">
<title>locdensity_y-&gt;DeliveredkcalFraction_s</title>
<path fill="none" stroke="#000000" stroke-width="2" d="M528.1115,-664.4484C499.3562,-645.1191 463.0059,-620.6845 429.9421,-598.459"/>
<polygon fill="#000000" stroke="#000000" stroke-width="2" points="432.1007,-594.8493 419.7985,-591.6405 427.4145,-601.8207 432.1007,-594.8493"/>
</g>
<!-- locdensity_y&#45;&gt;yield_gap_barley_s -->
<g id="edge14" class="edge">
<title>locdensity_y-&gt;yield_gap_barley_s</title>
<path fill="none" stroke="#000000" stroke-width="2" d="M581.6584,-664.4484C582.1505,-637.8746 582.8213,-601.6515 583.3188,-574.7852"/>
<polygon fill="#000000" stroke="#000000" stroke-width="2" points="587.5246,-574.5069 583.5476,-562.4312 579.126,-574.3513 587.5246,-574.5069"/>
</g>
<!-- ndvi_act_min_m -->
<g id="node9" class="node rankA">
<title>ndvi_act_min_m</title>
<path fill="none" stroke="#000000" d="M498.5,-835C498.5,-835 655.5,-835 655.5,-835 661.5,-835 667.5,-841 667.5,-847 667.5,-847 667.5,-859 667.5,-859 667.5,-865 661.5,-871 655.5,-871 655.5,-871 498.5,-871 498.5,-871 492.5,-871 486.5,-865 486.5,-859 486.5,-859 486.5,-847 486.5,-847 486.5,-841 492.5,-835 498.5,-835"/>
<text text-anchor="start" x="494" y="-849.2" font-family="Helvetica, Arial, sans-serif" font-size="16.00" fill="#000000">Density of greenness</text>
</g>
<!-- ndvi_act_min_m&#45;&gt;DeliveredkcalFraction_s -->
<g id="edge15" class="edge">
<title>ndvi_act_min_m-&gt;DeliveredkcalFraction_s</title>
<path fill="none" stroke="#000000" stroke-width="2" d="M340,-700C327.4996,-670.1278 326.2434,-634.3569 328.6457,-604.0356"/>
<polygon fill="#000000" stroke="#000000" stroke-width="2" points="332.8501,-604.192 329.8272,-591.8428 324.4893,-603.3818 332.8501,-604.192"/>
</g>
<!-- ndvi_act_min_m&#45;&gt;chicken_number_s -->
<g id="edge16" class="edge">
<title>ndvi_act_min_m-&gt;chicken_number_s</title>
<path fill="none" stroke="#000000" stroke-width="2" d="M605.2803,-834.9076C634.2647,-814.6512 677.9761,-778.9669 699,-736 748.3123,-635.2194 769.3022,-581.6223 714,-484 696.9048,-453.8228 666.1967,-432.0582 636.1492,-416.9273"/>
<polygon fill="#000000" stroke="#000000" stroke-width="2" points="637.7721,-413.0477 625.1354,-411.6495 634.1421,-420.6228 637.7721,-413.0477"/>
</g>
<!-- ndvi_act_min_m&#45;&gt;spam_P_i_avg_s -->
<g id="edge17" class="edge">
<title>ndvi_act_min_m-&gt;spam_P_i_avg_s</title>
<path fill="none" stroke="#000000" stroke-width="2" d="M269,-387.5C267.7978,-359.0347 267.8694,-326.769 268.2026,-302.7192"/>
<polygon fill="#000000" stroke="#000000" stroke-width="2" points="272.4036,-302.6856 268.4017,-290.6181 264.0047,-302.5473 272.4036,-302.6856"/>
</g>
<!-- ndvi_act_min_m&#45;&gt;rurpop_s -->
<g id="edge18" class="edge">
<title>ndvi_act_min_m-&gt;rurpop_s</title>
<path fill="none" stroke="#000000" stroke-width="2" d="M514.4939,-834.9865C454.9993,-813.8498 370.2017,-772.1731 340,-700"/>
<path fill="none" stroke="#000000" stroke-width="2" d="M340,-700C313.1822,-635.9135 254.3098,-655.8784 227,-592 208.1308,-547.8644 217.2169,-530.9925 227,-484 236.5334,-438.2068 270.9737,-434.2333 269,-387.5"/>
<path fill="none" stroke="#000000" stroke-width="2" d="M269,-387.5C261.7248,-322.198 184.3791,-350.73 157,-291 147.9254,-271.2029 145.8373,-260.6994 157,-242 178.4836,-206.0114 218.537,-182.6486 255.3167,-167.9411"/>
<polygon fill="#000000" stroke="#000000" stroke-width="2" points="256.878,-171.8408 266.6018,-163.6501 253.8925,-163.9893 256.878,-171.8408"/>
</g>
<!-- ndvi_act_min_m&#45;&gt;yield_gap_barley_s -->
<g id="edge19" class="edge">
<title>ndvi_act_min_m-&gt;yield_gap_barley_s</title>
<path fill="none" stroke="#000000" stroke-width="2" d="M340,-700C323.3027,-660.0985 436.5659,-601.6823 514.4256,-566.9837"/>
<polygon fill="#000000" stroke="#000000" stroke-width="2" points="516.3505,-570.7252 525.6366,-562.0414 512.962,-563.039 516.3505,-570.7252"/>
</g>
<!-- ndvi_act_min_m&#45;&gt;locdensity_y -->
<g id="edge20" class="edge">
<title>ndvi_act_min_m-&gt;locdensity_y</title>
<path fill="none" stroke="#000000" stroke-width="2" d="M577.4746,-834.8481C578.0323,-813.5154 578.9796,-777.279 579.7519,-747.7391"/>
<polygon fill="#000000" stroke="#000000" stroke-width="2" points="583.9554,-747.6578 580.0705,-735.5521 575.5583,-747.4382 583.9554,-747.6578"/>
</g>
<!-- acl_sum_fatl_m -->
<g id="node10" class="node rankC">
<title>acl_sum_fatl_m</title>
<path fill="none" stroke="#000000" d="M12,-121.5C12,-121.5 190,-121.5 190,-121.5 196,-121.5 202,-127.5 202,-133.5 202,-133.5 202,-157.5 202,-157.5 202,-163.5 196,-169.5 190,-169.5 190,-169.5 12,-169.5 12,-169.5 6,-169.5 0,-163.5 0,-157.5 0,-157.5 0,-133.5 0,-133.5 0,-127.5 6,-121.5 12,-121.5"/>
<text text-anchor="start" x="7" y="-150.7" font-family="Helvetica, Arial, sans-serif" font-size="16.00" fill="#000000">Reported fatalities from</text>
<text text-anchor="start" x="43" y="-132.7" font-family="Helvetica, Arial, sans-serif" font-size="16.00" fill="#000000">conflict events</text>
</g>
<!-- acl_sum_fatl_m&#45;&gt;acl_sum_evnt_m -->
<g id="edge21" class="edge">
<title>acl_sum_fatl_m-&gt;acl_sum_evnt_m</title>
<path fill="none" stroke="#000000" stroke-width="2" d="M147.7094,-121.4496C185.3513,-102.068 238.4465,-74.7297 278.6637,-54.0221"/>
<polygon fill="#000000" stroke="#000000" stroke-width="2" points="280.6329,-57.7323 289.379,-48.5049 276.7875,-50.2641 280.6329,-57.7323"/>
</g>
</g>
<style>.node path {
  stroke: #fff;
}
.node text {
  fill: #fff;
}
.node polyline {
  stroke: #fff;
}
.rankA path {
  fill: #2e3348;
}
.rankB path {
  fill: #437387;
}
.rankC path {
  fill: #1b6002;
}
.edge path {
  stroke: #666;
};
</style></svg>
