<?xml version="1.0" encoding="UTF-8" standalone="no"?>
<!DOCTYPE svg PUBLIC "-//W3C//DTD SVG 1.1//EN" "http://www.w3.org/Graphics/SVG/1.1/DTD/svg11.dtd">
<!-- Generated by graphviz version 2.40.1 (20161225.0304)
 -->
<!-- Title: causalModel Pages: 1 -->
<svg xmlns="http://www.w3.org/2000/svg" xmlns:xlink="http://www.w3.org/1999/xlink" width="" height="" viewBox="0.00 0.00 620.18 820.00" preserveAspectRatio="xMinYMin">
<g id="graph0" class="graph" transform="scale(1 1) rotate(0) translate(4 816)">
<title>causalModel</title>
<polygon fill="#ffffff" stroke="transparent" points="-4,4 -4,-816 616.1848,-816 616.1848,4 -4,4"/>
<text text-anchor="middle" x="306.0924" y="-7.8" font-family="Helvetica, Arial, sans-serif" font-size="14.00" fill="#000000">Causal Model: Middle East and North Africa</text>
<!-- DeliveredkcalFraction_s -->
<g id="node1" class="node rankB">
<title>DeliveredkcalFraction_s</title>
<path fill="none" stroke="#000000" d="M307.6848,-416.5C307.6848,-416.5 445.6848,-416.5 445.6848,-416.5 451.6848,-416.5 457.6848,-422.5 457.6848,-428.5 457.6848,-428.5 457.6848,-511.5 457.6848,-511.5 457.6848,-517.5 451.6848,-523.5 445.6848,-523.5 445.6848,-523.5 307.6848,-523.5 307.6848,-523.5 301.6848,-523.5 295.6848,-517.5 295.6848,-511.5 295.6848,-511.5 295.6848,-428.5 295.6848,-428.5 295.6848,-422.5 301.6848,-416.5 307.6848,-416.5"/>
<text text-anchor="start" x="338.6848" y="-504.7" font-family="Helvetica, Arial, sans-serif" font-size="16.00" fill="#000000">Portion of</text>
<text text-anchor="start" x="305.6848" y="-486.7" font-family="Helvetica, Arial, sans-serif" font-size="16.00" fill="#000000">calories produced</text>
<text text-anchor="start" x="304.6848" y="-468.7" font-family="Helvetica, Arial, sans-serif" font-size="16.00" fill="#000000">going toward food</text>
<polyline fill="none" stroke="#000000" points="295.6848,-457.5 457.6848,-457.5 "/>
<text text-anchor="start" x="331.6848" y="-440.8" font-family="Helvetica, Arial, sans-serif" font-size="14.00" fill="#000000">effect: 0.056</text>
<text text-anchor="start" x="334.1848" y="-424.8" font-family="Helvetica, Arial, sans-serif" font-size="14.00" fill="#000000">error: 0.143</text>
</g>
<!-- chicken_number_s -->
<g id="node2" class="node rankB">
<title>chicken_number_s</title>
<path fill="none" stroke="#000000" d="M294.6848,-331.5C294.6848,-331.5 430.6848,-331.5 430.6848,-331.5 436.6848,-331.5 442.6848,-337.5 442.6848,-343.5 442.6848,-343.5 442.6848,-367.5 442.6848,-367.5 442.6848,-373.5 436.6848,-379.5 430.6848,-379.5 430.6848,-379.5 294.6848,-379.5 294.6848,-379.5 288.6848,-379.5 282.6848,-373.5 282.6848,-367.5 282.6848,-367.5 282.6848,-343.5 282.6848,-343.5 282.6848,-337.5 288.6848,-331.5 294.6848,-331.5"/>
<text text-anchor="start" x="291.6848" y="-360.7" font-family="Helvetica, Arial, sans-serif" font-size="16.00" fill="#000000">Count of livestock</text>
<text text-anchor="start" x="328.1848" y="-342.7" font-family="Helvetica, Arial, sans-serif" font-size="16.00" fill="#000000">chickens</text>
</g>
<!-- DeliveredkcalFraction_s&#45;&gt;chicken_number_s -->
<g id="edge1" class="edge">
<title>DeliveredkcalFraction_s-&gt;chicken_number_s</title>
<path fill="none" stroke="#666666" stroke-width="2" d="M370.1357,-416.4377C369.1112,-408.0592 368.0739,-399.5749 367.1118,-391.7067"/>
<polygon fill="#666666" stroke="#666666" stroke-width="2" points="371.253,-390.9688 365.6275,-379.5673 362.9151,-391.9883 371.253,-390.9688"/>
</g>
<!-- spam_P_i_avg_s -->
<g id="node3" class="node rankB">
<title>spam_P_i_avg_s</title>
<path fill="none" stroke="#000000" d="M38.1848,-228.5C38.1848,-228.5 149.1848,-228.5 149.1848,-228.5 155.1848,-228.5 161.1848,-234.5 161.1848,-240.5 161.1848,-240.5 161.1848,-282.5 161.1848,-282.5 161.1848,-288.5 155.1848,-294.5 149.1848,-294.5 149.1848,-294.5 38.1848,-294.5 38.1848,-294.5 32.1848,-294.5 26.1848,-288.5 26.1848,-282.5 26.1848,-282.5 26.1848,-240.5 26.1848,-240.5 26.1848,-234.5 32.1848,-228.5 38.1848,-228.5"/>
<text text-anchor="start" x="39.6848" y="-275.7" font-family="Helvetica, Arial, sans-serif" font-size="16.00" fill="#000000">Metric tons of</text>
<text text-anchor="start" x="35.6848" y="-257.7" font-family="Helvetica, Arial, sans-serif" font-size="16.00" fill="#000000">irrigated crops</text>
<text text-anchor="start" x="56.6848" y="-239.7" font-family="Helvetica, Arial, sans-serif" font-size="16.00" fill="#000000">produced</text>
</g>
<!-- DeliveredkcalFraction_s&#45;&gt;spam_P_i_avg_s -->
<g id="edge2" class="edge">
<title>DeliveredkcalFraction_s-&gt;spam_P_i_avg_s</title>
<path fill="none" stroke="#666666" stroke-width="2" d="M295.5608,-425.1725C266.1429,-406.2884 234.1609,-382.4201 209.6848,-355.5"/>
</g>
<!-- chicken_number_s&#45;&gt;spam_P_i_avg_s -->
<g id="edge3" class="edge">
<title>chicken_number_s-&gt;spam_P_i_avg_s</title>
<path fill="none" stroke="#666666" stroke-width="2" d="M293.7599,-331.4147C256.9401,-318.5483 211.4397,-302.6486 173.1373,-289.2641"/>
<polygon fill="#666666" stroke="#666666" stroke-width="2" points="174.2128,-285.1909 161.499,-285.1972 171.4418,-293.1207 174.2128,-285.1909"/>
</g>
<!-- rurpop_s -->
<g id="node4" class="node rankB">
<title>rurpop_s</title>
<path fill="none" stroke="#000000" d="M131.1848,-143.5C131.1848,-143.5 228.1848,-143.5 228.1848,-143.5 234.1848,-143.5 240.1848,-149.5 240.1848,-155.5 240.1848,-155.5 240.1848,-179.5 240.1848,-179.5 240.1848,-185.5 234.1848,-191.5 228.1848,-191.5 228.1848,-191.5 131.1848,-191.5 131.1848,-191.5 125.1848,-191.5 119.1848,-185.5 119.1848,-179.5 119.1848,-179.5 119.1848,-155.5 119.1848,-155.5 119.1848,-149.5 125.1848,-143.5 131.1848,-143.5"/>
<text text-anchor="start" x="128.6848" y="-172.7" font-family="Helvetica, Arial, sans-serif" font-size="16.00" fill="#000000">Population in</text>
<text text-anchor="start" x="136.1848" y="-154.7" font-family="Helvetica, Arial, sans-serif" font-size="16.00" fill="#000000">rural areas</text>
</g>
<!-- chicken_number_s&#45;&gt;rurpop_s -->
<g id="edge4" class="edge">
<title>chicken_number_s-&gt;rurpop_s</title>
<path fill="none" stroke="#666666" stroke-width="2" d="M340.532,-331.3433C324.161,-312.9106 301.8324,-286.511 284.6848,-261.5"/>
<path fill="none" stroke="#666666" stroke-width="2" d="M284.6848,-261.5C268.322,-237.6337 244.6674,-215.7565 223.9509,-199.1244"/>
<polygon fill="#666666" stroke="#666666" stroke-width="2" points="226.4095,-195.7153 214.37,-191.6299 221.2341,-202.3316 226.4095,-195.7153"/>
</g>
<!-- acl_sum_evnt_m -->
<g id="node9" class="node rankC">
<title>acl_sum_evnt_m</title>
<path fill="none" stroke="#000000" d="M286.6848,-98C286.6848,-98 178.6848,-98 178.6848,-98 172.6848,-98 166.6848,-92 166.6848,-86 166.6848,-86 166.6848,-60 166.6848,-60 166.6848,-54 172.6848,-48 178.6848,-48 178.6848,-48 286.6848,-48 286.6848,-48 292.6848,-48 298.6848,-54 298.6848,-60 298.6848,-60 298.6848,-86 298.6848,-86 298.6848,-92 292.6848,-98 286.6848,-98"/>
<text text-anchor="middle" x="232.6848" y="-78.2" font-family="Helvetica, Arial, sans-serif" font-size="16.00" fill="#000000">Total number of</text>
<text text-anchor="middle" x="232.6848" y="-60.2" font-family="Helvetica, Arial, sans-serif" font-size="16.00" fill="#000000">conflict events</text>
</g>
<!-- chicken_number_s&#45;&gt;acl_sum_evnt_m -->
<g id="edge5" class="edge">
<title>chicken_number_s-&gt;acl_sum_evnt_m</title>
<path fill="none" stroke="#666666" stroke-width="2" d="M284.6848,-261.5C253.964,-216.6916 269.5019,-195.2686 254.6848,-143 251.6051,-132.1363 248.0206,-120.4034 244.65,-109.7057"/>
<polygon fill="#666666" stroke="#666666" stroke-width="2" points="248.6189,-108.3273 240.9737,-98.169 240.6154,-110.8778 248.6189,-108.3273"/>
</g>
<!-- spam_P_i_avg_s&#45;&gt;rurpop_s -->
<g id="edge6" class="edge">
<title>spam_P_i_avg_s-&gt;rurpop_s</title>
<path fill="none" stroke="#666666" stroke-width="2" d="M124.0052,-228.3591C132.1885,-219.4146 141.0446,-209.7346 149.2349,-200.7824"/>
<polygon fill="#666666" stroke="#666666" stroke-width="2" points="152.4716,-203.4667 157.473,-191.778 146.274,-197.7966 152.4716,-203.4667"/>
</g>
<!-- rurpop_s&#45;&gt;acl_sum_evnt_m -->
<g id="edge7" class="edge">
<title>rurpop_s-&gt;acl_sum_evnt_m</title>
<path fill="none" stroke="#666666" stroke-width="2" d="M193.3336,-143.1639C199.1908,-132.7204 206.1532,-120.3064 212.5814,-108.8447"/>
<polygon fill="#666666" stroke="#666666" stroke-width="2" points="216.3206,-110.7636 218.5275,-98.2428 208.9942,-106.6546 216.3206,-110.7636"/>
</g>
<!-- yield_gap_barley_s -->
<g id="node5" class="node rankB">
<title>yield_gap_barley_s</title>
<path fill="none" stroke="#000000" d="M135.1848,-428C135.1848,-428 254.1848,-428 254.1848,-428 260.1848,-428 266.1848,-434 266.1848,-440 266.1848,-440 266.1848,-500 266.1848,-500 266.1848,-506 260.1848,-512 254.1848,-512 254.1848,-512 135.1848,-512 135.1848,-512 129.1848,-512 123.1848,-506 123.1848,-500 123.1848,-500 123.1848,-440 123.1848,-440 123.1848,-434 129.1848,-428 135.1848,-428"/>
<text text-anchor="start" x="142.6848" y="-493.2" font-family="Helvetica, Arial, sans-serif" font-size="16.00" fill="#000000">Gap between</text>
<text text-anchor="start" x="141.1848" y="-475.2" font-family="Helvetica, Arial, sans-serif" font-size="16.00" fill="#000000">observed and</text>
<text text-anchor="start" x="132.6848" y="-457.2" font-family="Helvetica, Arial, sans-serif" font-size="16.00" fill="#000000">potential barley</text>
<text text-anchor="start" x="176.1848" y="-439.2" font-family="Helvetica, Arial, sans-serif" font-size="16.00" fill="#000000">yield</text>
</g>
<!-- yield_gap_barley_s&#45;&gt;chicken_number_s -->
<g id="edge8" class="edge">
<title>yield_gap_barley_s-&gt;chicken_number_s</title>
<path fill="none" stroke="#666666" stroke-width="2" d="M256.7645,-427.6897C276.7964,-414.037 298.6166,-399.1656 317.2182,-386.4877"/>
<polygon fill="#666666" stroke="#666666" stroke-width="2" points="319.6389,-389.9206 327.1895,-379.6918 314.9081,-382.9794 319.6389,-389.9206"/>
</g>
<!-- yield_gap_barley_s&#45;&gt;spam_P_i_avg_s -->
<g id="edge9" class="edge">
<title>yield_gap_barley_s-&gt;spam_P_i_avg_s</title>
<path fill="none" stroke="#666666" stroke-width="2" d="M214.847,-427.8278C223.1073,-403.7843 227.1504,-374.7096 209.6848,-355.5"/>
<path fill="none" stroke="#666666" stroke-width="2" d="M209.6848,-355.5C192.1518,-336.2163 170.497,-317.5798 150.6629,-302.0568"/>
<polygon fill="#666666" stroke="#666666" stroke-width="2" points="153.1702,-298.6867 141.0985,-294.6974 148.0477,-305.344 153.1702,-298.6867"/>
</g>
<!-- rurratio_s -->
<g id="node6" class="node rankA">
<title>rurratio_s</title>
<path fill="none" stroke="#000000" d="M485.1848,-686.5C485.1848,-686.5 600.1848,-686.5 600.1848,-686.5 606.1848,-686.5 612.1848,-692.5 612.1848,-698.5 612.1848,-698.5 612.1848,-799.5 612.1848,-799.5 612.1848,-805.5 606.1848,-811.5 600.1848,-811.5 600.1848,-811.5 485.1848,-811.5 485.1848,-811.5 479.1848,-811.5 473.1848,-805.5 473.1848,-799.5 473.1848,-799.5 473.1848,-698.5 473.1848,-698.5 473.1848,-692.5 479.1848,-686.5 485.1848,-686.5"/>
<text text-anchor="start" x="488.1848" y="-792.7" font-family="Helvetica, Arial, sans-serif" font-size="16.00" fill="#000000">Percentage of</text>
<text text-anchor="start" x="482.6848" y="-774.7" font-family="Helvetica, Arial, sans-serif" font-size="16.00" fill="#000000">population that</text>
<text text-anchor="start" x="497.6848" y="-756.7" font-family="Helvetica, Arial, sans-serif" font-size="16.00" fill="#000000">live in rural</text>
<text text-anchor="start" x="520.6848" y="-738.7" font-family="Helvetica, Arial, sans-serif" font-size="16.00" fill="#000000">areas</text>
<polyline fill="none" stroke="#000000" points="473.1848,-727.5 612.1848,-727.5 "/>
<text text-anchor="start" x="494.6848" y="-710.8" font-family="Helvetica, Arial, sans-serif" font-size="14.00" fill="#000000">effect: -0.489</text>
<text text-anchor="start" x="499.6848" y="-694.8" font-family="Helvetica, Arial, sans-serif" font-size="14.00" fill="#000000">error: 0.255</text>
</g>
<!-- rurratio_s&#45;&gt;chicken_number_s -->
<g id="edge10" class="edge">
<title>rurratio_s-&gt;chicken_number_s</title>
<path fill="none" stroke="#666666" stroke-width="2" d="M561.0067,-686.4676C574.7234,-628.476 587.0233,-540.7322 560.6848,-470"/>
<path fill="none" stroke="#666666" stroke-width="2" d="M560.6848,-470C542.0755,-425.6284 496.7231,-397.6089 454.1133,-380.4027"/>
<polygon fill="#666666" stroke="#666666" stroke-width="2" points="455.4849,-376.4304 442.7769,-376.0451 452.4709,-384.2711 455.4849,-376.4304"/>
</g>
<!-- rurratio_s&#45;&gt;rurpop_s -->
<g id="edge11" class="edge">
<title>rurratio_s-&gt;rurpop_s</title>
<path fill="none" stroke="#666666" stroke-width="2" d="M560.6848,-470C502.85,-332.0996 342.771,-240.2524 249.5384,-196.718"/>
<polygon fill="#666666" stroke="#666666" stroke-width="2" points="251.1687,-192.8449 238.5113,-191.6485 247.66,-200.477 251.1687,-192.8449"/>
</g>
<!-- locdensity_y -->
<g id="node7" class="node rankB">
<title>locdensity_y</title>
<path fill="none" stroke="#000000" d="M314.1848,-560.5C314.1848,-560.5 439.1848,-560.5 439.1848,-560.5 445.1848,-560.5 451.1848,-566.5 451.1848,-572.5 451.1848,-572.5 451.1848,-637.5 451.1848,-637.5 451.1848,-643.5 445.1848,-649.5 439.1848,-649.5 439.1848,-649.5 314.1848,-649.5 314.1848,-649.5 308.1848,-649.5 302.1848,-643.5 302.1848,-637.5 302.1848,-637.5 302.1848,-572.5 302.1848,-572.5 302.1848,-566.5 308.1848,-560.5 314.1848,-560.5"/>
<text text-anchor="start" x="311.6848" y="-630.7" font-family="Helvetica, Arial, sans-serif" font-size="16.00" fill="#000000">Local population</text>
<text text-anchor="start" x="348.1848" y="-612.7" font-family="Helvetica, Arial, sans-serif" font-size="16.00" fill="#000000">density</text>
<polyline fill="none" stroke="#000000" points="302.1848,-601.5 451.1848,-601.5 "/>
<text text-anchor="start" x="328.6848" y="-584.8" font-family="Helvetica, Arial, sans-serif" font-size="14.00" fill="#000000">effect: -1.263</text>
<text text-anchor="start" x="338.1848" y="-568.8" font-family="Helvetica, Arial, sans-serif" font-size="14.00" fill="#000000">error: 0.68</text>
</g>
<!-- rurratio_s&#45;&gt;locdensity_y -->
<g id="edge12" class="edge">
<title>rurratio_s-&gt;locdensity_y</title>
<path fill="none" stroke="#666666" stroke-width="2" d="M472.767,-688.3484C460.9511,-678.0985 448.7724,-667.5339 437.2214,-657.5137"/>
<polygon fill="#666666" stroke="#666666" stroke-width="2" points="439.9281,-654.3016 428.1113,-649.6109 434.4238,-660.6469 439.9281,-654.3016"/>
</g>
<!-- locdensity_y&#45;&gt;DeliveredkcalFraction_s -->
<g id="edge13" class="edge">
<title>locdensity_y-&gt;DeliveredkcalFraction_s</title>
<path fill="none" stroke="#666666" stroke-width="2" d="M376.6848,-560.4218C376.6848,-552.5784 376.6848,-544.2665 376.6848,-535.985"/>
<polygon fill="#666666" stroke="#666666" stroke-width="2" points="380.8849,-535.9315 376.6848,-523.9315 372.4849,-535.9316 380.8849,-535.9315"/>
</g>
<!-- locdensity_y&#45;&gt;yield_gap_barley_s -->
<g id="edge14" class="edge">
<title>locdensity_y-&gt;yield_gap_barley_s</title>
<path fill="none" stroke="#666666" stroke-width="2" d="M316.5868,-560.4218C298.7702,-547.2062 279.1603,-532.6604 260.9749,-519.1712"/>
<polygon fill="#666666" stroke="#666666" stroke-width="2" points="263.4668,-515.7903 251.3266,-512.0145 258.4624,-522.5369 263.4668,-515.7903"/>
</g>
<!-- ndvi_act_min_m -->
<g id="node8" class="node rankA">
<title>ndvi_act_min_m</title>
<path fill="none" stroke="#000000" d="M338.6848,-725C338.6848,-725 414.6848,-725 414.6848,-725 420.6848,-725 426.6848,-731 426.6848,-737 426.6848,-737 426.6848,-761 426.6848,-761 426.6848,-767 420.6848,-773 414.6848,-773 414.6848,-773 338.6848,-773 338.6848,-773 332.6848,-773 326.6848,-767 326.6848,-761 326.6848,-761 326.6848,-737 326.6848,-737 326.6848,-731 332.6848,-725 338.6848,-725"/>
<text text-anchor="start" x="336.6848" y="-754.2" font-family="Helvetica, Arial, sans-serif" font-size="16.00" fill="#000000">Density of</text>
<text text-anchor="start" x="335.6848" y="-736.2" font-family="Helvetica, Arial, sans-serif" font-size="16.00" fill="#000000">greenness</text>
</g>
<!-- ndvi_act_min_m&#45;&gt;DeliveredkcalFraction_s -->
<g id="edge15" class="edge">
<title>ndvi_act_min_m-&gt;DeliveredkcalFraction_s</title>
<path fill="none" stroke="#666666" stroke-width="2" d="M194.6848,-605C190.0286,-592.9934 237.747,-557.9525 285.482,-526.581"/>
<polygon fill="#666666" stroke="#666666" stroke-width="2" points="287.8912,-530.0242 295.6495,-519.952 283.3034,-522.9876 287.8912,-530.0242"/>
</g>
<!-- ndvi_act_min_m&#45;&gt;chicken_number_s -->
<g id="edge16" class="edge">
<title>ndvi_act_min_m-&gt;chicken_number_s</title>
<path fill="none" stroke="#666666" stroke-width="2" d="M407.2965,-724.845C427.814,-706.6859 453.2673,-679.8789 465.6848,-650 505.6149,-553.9205 525.6403,-505.5622 472.6848,-416 465.4484,-403.7614 454.7573,-393.8316 442.842,-385.8286"/>
<polygon fill="#666666" stroke="#666666" stroke-width="2" points="445.0207,-382.2379 432.5941,-379.5509 440.6328,-389.4008 445.0207,-382.2379"/>
</g>
<!-- ndvi_act_min_m&#45;&gt;spam_P_i_avg_s -->
<g id="edge17" class="edge">
<title>ndvi_act_min_m-&gt;spam_P_i_avg_s</title>
<path fill="none" stroke="#666666" stroke-width="2" d="M93.6848,-355.5C90.4576,-339.862 89.6973,-322.4463 89.9896,-306.8963"/>
<polygon fill="#666666" stroke="#666666" stroke-width="2" points="94.1871,-307.0387 90.4227,-294.895 85.7926,-306.7357 94.1871,-307.0387"/>
</g>
<!-- ndvi_act_min_m&#45;&gt;rurpop_s -->
<g id="edge18" class="edge">
<title>ndvi_act_min_m-&gt;rurpop_s</title>
<path fill="none" stroke="#666666" stroke-width="2" d="M326.3429,-727.5107C280.8274,-704.7759 217.5565,-663.9777 194.6848,-605"/>
<path fill="none" stroke="#666666" stroke-width="2" d="M194.6848,-605C175.7002,-556.0457 131.6206,-571.2323 108.6848,-524 75.8426,-456.3673 108.8804,-429.1334 93.6848,-355.5"/>
<path fill="none" stroke="#666666" stroke-width="2" d="M93.6848,-355.5C80.1484,-312.2799 32.0981,-335.429 11.6848,-295 -1.7367,-268.4184 -5.4365,-252.3634 11.6848,-228 23.4058,-211.3212 67.4238,-195.8118 107.4608,-184.6723"/>
<polygon fill="#666666" stroke="#666666" stroke-width="2" points="108.68,-188.6935 119.1659,-181.5043 106.4854,-180.5853 108.68,-188.6935"/>
</g>
<!-- ndvi_act_min_m&#45;&gt;yield_gap_barley_s -->
<g id="edge19" class="edge">
<title>ndvi_act_min_m-&gt;yield_gap_barley_s</title>
<path fill="none" stroke="#666666" stroke-width="2" d="M194.6848,-605C184.8534,-579.6484 183.9329,-549.5488 185.8658,-524.2113"/>
<polygon fill="#666666" stroke="#666666" stroke-width="2" points="190.0532,-524.5432 187.0174,-512.1972 181.6915,-523.7416 190.0532,-524.5432"/>
</g>
<!-- ndvi_act_min_m&#45;&gt;locdensity_y -->
<g id="edge20" class="edge">
<title>ndvi_act_min_m-&gt;locdensity_y</title>
<path fill="none" stroke="#666666" stroke-width="2" d="M376.6848,-724.8976C376.6848,-707.6837 376.6848,-683.7847 376.6848,-661.8504"/>
<polygon fill="#666666" stroke="#666666" stroke-width="2" points="380.8849,-661.5763 376.6848,-649.5763 372.4849,-661.5764 380.8849,-661.5763"/>
</g>
<!-- acl_sum_fatl_m -->
<g id="node10" class="node rankC">
<title>acl_sum_fatl_m</title>
<path fill="none" stroke="#000000" d="M125.6848,-107C125.6848,-107 25.6848,-107 25.6848,-107 19.6848,-107 13.6848,-101 13.6848,-95 13.6848,-95 13.6848,-51 13.6848,-51 13.6848,-45 19.6848,-39 25.6848,-39 25.6848,-39 125.6848,-39 125.6848,-39 131.6848,-39 137.6848,-45 137.6848,-51 137.6848,-51 137.6848,-95 137.6848,-95 137.6848,-101 131.6848,-107 125.6848,-107"/>
<text text-anchor="middle" x="75.6848" y="-87.2" font-family="Helvetica, Arial, sans-serif" font-size="16.00" fill="#000000">Reported</text>
<text text-anchor="middle" x="75.6848" y="-69.2" font-family="Helvetica, Arial, sans-serif" font-size="16.00" fill="#000000">fatalities from</text>
<text text-anchor="middle" x="75.6848" y="-51.2" font-family="Helvetica, Arial, sans-serif" font-size="16.00" fill="#000000">conflict events</text>
</g>
<!-- acl_sum_fatl_m&#45;&gt;acl_sum_evnt_m -->
<g id="edge21" class="edge">
<title>acl_sum_fatl_m-&gt;acl_sum_evnt_m</title>
<path fill="none" stroke="#666666" stroke-width="2" d="M137.9328,-73C143.425,-73 148.9171,-73 154.4092,-73"/>
<polygon fill="#666666" stroke="#666666" stroke-width="2" points="154.4325,-77.2001 166.4325,-73 154.4324,-68.8001 154.4325,-77.2001"/>
</g>
</g>
<style>.node path {
  stroke: #fff;
}
.node text {
  fill: #fff;
}
.node polyline {
  stroke: #fff;
}
.rankA path {
  fill: #1b6002;
}
.rankB path {
  fill: #437387;
}
.rankC path {
  fill: #2e3348;
}
</style></svg>
