<?xml version="1.0" encoding="UTF-8" standalone="no"?>
<!DOCTYPE svg PUBLIC "-//W3C//DTD SVG 1.1//EN" "http://www.w3.org/Graphics/SVG/1.1/DTD/svg11.dtd">
<!-- Generated by graphviz version 2.40.1 (20161225.0304)
 -->
<!-- Title: causalModel Pages: 1 -->
<svg xmlns="http://www.w3.org/2000/svg" xmlns:xlink="http://www.w3.org/1999/xlink" width="" height="" viewBox="0.00 0.00 649.79 889.00" preserveAspectRatio="xMinYMin">
<g id="graph0" class="graph" transform="scale(1 1) rotate(0) translate(4 885)">
<title>causalModel</title>
<polygon fill="#ffffff" stroke="transparent" points="-4,4 -4,-885 645.7902,-885 645.7902,4 -4,4"/>
<text text-anchor="start" x="143.8951" y="-10.3" font-family="Helvetica, Arial, sans-serif" font-weight="bold" font-size="14.00" fill="#000000">Causal Model: Middle East and North Africa</text>
<!-- DeliveredkcalFraction_s -->
<g id="node1" class="node rankB">
<title>DeliveredkcalFraction_s</title>
<path fill="none" stroke="#000000" d="M324.2902,-484.5C324.2902,-484.5 462.2902,-484.5 462.2902,-484.5 468.2902,-484.5 474.2902,-490.5 474.2902,-496.5 474.2902,-496.5 474.2902,-579.5 474.2902,-579.5 474.2902,-585.5 468.2902,-591.5 462.2902,-591.5 462.2902,-591.5 324.2902,-591.5 324.2902,-591.5 318.2902,-591.5 312.2902,-585.5 312.2902,-579.5 312.2902,-579.5 312.2902,-496.5 312.2902,-496.5 312.2902,-490.5 318.2902,-484.5 324.2902,-484.5"/>
<text text-anchor="start" x="355.2902" y="-572.7" font-family="Helvetica, Arial, sans-serif" font-size="16.00" fill="#000000">Portion of</text>
<text text-anchor="start" x="322.2902" y="-554.7" font-family="Helvetica, Arial, sans-serif" font-size="16.00" fill="#000000">calories produced</text>
<text text-anchor="start" x="321.2902" y="-536.7" font-family="Helvetica, Arial, sans-serif" font-size="16.00" fill="#000000">going toward food</text>
<polyline fill="none" stroke="#000000" points="312.2902,-525.5 474.2902,-525.5 "/>
<text text-anchor="start" x="348.2902" y="-508.8" font-family="Helvetica, Arial, sans-serif" font-size="14.00" fill="#000000">effect: 0.056</text>
<text text-anchor="start" x="350.7902" y="-492.8" font-family="Helvetica, Arial, sans-serif" font-size="14.00" fill="#000000">error: 0.143</text>
</g>
<!-- chicken_number_s -->
<g id="node2" class="node rankB">
<title>chicken_number_s</title>
<path fill="none" stroke="#000000" d="M310.2902,-373.5C310.2902,-373.5 446.2902,-373.5 446.2902,-373.5 452.2902,-373.5 458.2902,-379.5 458.2902,-385.5 458.2902,-385.5 458.2902,-434.5 458.2902,-434.5 458.2902,-440.5 452.2902,-446.5 446.2902,-446.5 446.2902,-446.5 310.2902,-446.5 310.2902,-446.5 304.2902,-446.5 298.2902,-440.5 298.2902,-434.5 298.2902,-434.5 298.2902,-385.5 298.2902,-385.5 298.2902,-379.5 304.2902,-373.5 310.2902,-373.5"/>
<text text-anchor="start" x="307.2902" y="-427.7" font-family="Helvetica, Arial, sans-serif" font-size="16.00" fill="#000000">Count of livestock</text>
<text text-anchor="start" x="343.7902" y="-409.7" font-family="Helvetica, Arial, sans-serif" font-size="16.00" fill="#000000">chickens</text>
<polyline fill="none" stroke="#000000" points="298.2902,-398.5 458.2902,-398.5 "/>
<text text-anchor="start" x="311.2902" y="-381.8" font-family="Helvetica, Arial, sans-serif" font-size="14.00" fill="#000000">effect: Inestimable</text>
</g>
<!-- DeliveredkcalFraction_s&#45;&gt;chicken_number_s -->
<g id="edge1" class="edge">
<title>DeliveredkcalFraction_s-&gt;chicken_number_s</title>
<path fill="none" stroke="#666666" stroke-width="2" d="M387.0157,-484.4581C386.0125,-475.897 384.9791,-467.0792 383.9902,-458.6401"/>
<polygon fill="#666666" stroke="#666666" stroke-width="2" points="388.1499,-458.0503 382.5817,-446.6208 379.807,-459.0281 388.1499,-458.0503"/>
</g>
<!-- spam_P_i_avg_s -->
<g id="node3" class="node rankB">
<title>spam_P_i_avg_s</title>
<path fill="none" stroke="#000000" d="M42.2902,-245.5C42.2902,-245.5 168.2902,-245.5 168.2902,-245.5 174.2902,-245.5 180.2902,-251.5 180.2902,-257.5 180.2902,-257.5 180.2902,-324.5 180.2902,-324.5 180.2902,-330.5 174.2902,-336.5 168.2902,-336.5 168.2902,-336.5 42.2902,-336.5 42.2902,-336.5 36.2902,-336.5 30.2902,-330.5 30.2902,-324.5 30.2902,-324.5 30.2902,-257.5 30.2902,-257.5 30.2902,-251.5 36.2902,-245.5 42.2902,-245.5"/>
<text text-anchor="start" x="51.2902" y="-317.7" font-family="Helvetica, Arial, sans-serif" font-size="16.00" fill="#000000">Metric tons of</text>
<text text-anchor="start" x="47.2902" y="-299.7" font-family="Helvetica, Arial, sans-serif" font-size="16.00" fill="#000000">irrigated crops</text>
<text text-anchor="start" x="68.2902" y="-281.7" font-family="Helvetica, Arial, sans-serif" font-size="16.00" fill="#000000">produced</text>
<polyline fill="none" stroke="#000000" points="30.2902,-270.5 180.2902,-270.5 "/>
<text text-anchor="start" x="38.2902" y="-253.8" font-family="Helvetica, Arial, sans-serif" font-size="14.00" fill="#000000">effect: Inestimable</text>
</g>
<!-- DeliveredkcalFraction_s&#45;&gt;spam_P_i_avg_s -->
<g id="edge2" class="edge">
<title>DeliveredkcalFraction_s-&gt;spam_P_i_avg_s</title>
<path fill="none" stroke="#666666" stroke-width="2" d="M311.9216,-489.3567C281.3703,-468.0063 248.2735,-440.772 224.2902,-410"/>
</g>
<!-- chicken_number_s&#45;&gt;spam_P_i_avg_s -->
<g id="edge3" class="edge">
<title>chicken_number_s-&gt;spam_P_i_avg_s</title>
<path fill="none" stroke="#666666" stroke-width="2" d="M298.2258,-375.1001C264.8663,-360.5588 226.0486,-343.6383 192.0145,-328.8029"/>
<polygon fill="#666666" stroke="#666666" stroke-width="2" points="193.3493,-324.8031 180.6707,-323.8582 189.9927,-332.5034 193.3493,-324.8031"/>
</g>
<!-- rurpop_s -->
<g id="node4" class="node rankB">
<title>rurpop_s</title>
<path fill="none" stroke="#000000" d="M119.2902,-135.5C119.2902,-135.5 245.2902,-135.5 245.2902,-135.5 251.2902,-135.5 257.2902,-141.5 257.2902,-147.5 257.2902,-147.5 257.2902,-196.5 257.2902,-196.5 257.2902,-202.5 251.2902,-208.5 245.2902,-208.5 245.2902,-208.5 119.2902,-208.5 119.2902,-208.5 113.2902,-208.5 107.2902,-202.5 107.2902,-196.5 107.2902,-196.5 107.2902,-147.5 107.2902,-147.5 107.2902,-141.5 113.2902,-135.5 119.2902,-135.5"/>
<text text-anchor="start" x="131.2902" y="-189.7" font-family="Helvetica, Arial, sans-serif" font-size="16.00" fill="#000000">Population in</text>
<text text-anchor="start" x="138.7902" y="-171.7" font-family="Helvetica, Arial, sans-serif" font-size="16.00" fill="#000000">rural areas</text>
<polyline fill="none" stroke="#000000" points="107.2902,-160.5 257.2902,-160.5 "/>
<text text-anchor="start" x="115.2902" y="-143.8" font-family="Helvetica, Arial, sans-serif" font-size="14.00" fill="#000000">effect: Inestimable</text>
</g>
<!-- chicken_number_s&#45;&gt;rurpop_s -->
<g id="edge4" class="edge">
<title>chicken_number_s-&gt;rurpop_s</title>
<path fill="none" stroke="#666666" stroke-width="2" d="M353.1106,-373.4035C337.5207,-350.195 317.4619,-319.3118 301.2902,-291"/>
<path fill="none" stroke="#666666" stroke-width="2" d="M301.2902,-291C285.3693,-263.1275 261.1969,-237.2616 238.7875,-216.8134"/>
<polygon fill="#666666" stroke="#666666" stroke-width="2" points="241.4067,-213.522 229.6515,-208.6789 235.8208,-219.7956 241.4067,-213.522"/>
</g>
<!-- acl_sum_evnt_m -->
<g id="node9" class="node rankC">
<title>acl_sum_evnt_m</title>
<path fill="none" stroke="#000000" d="M295.2902,-90C295.2902,-90 187.2902,-90 187.2902,-90 181.2902,-90 175.2902,-84 175.2902,-78 175.2902,-78 175.2902,-52 175.2902,-52 175.2902,-46 181.2902,-40 187.2902,-40 187.2902,-40 295.2902,-40 295.2902,-40 301.2902,-40 307.2902,-46 307.2902,-52 307.2902,-52 307.2902,-78 307.2902,-78 307.2902,-84 301.2902,-90 295.2902,-90"/>
<text text-anchor="middle" x="241.2902" y="-70.2" font-family="Helvetica, Arial, sans-serif" font-size="16.00" fill="#000000">Total number of</text>
<text text-anchor="middle" x="241.2902" y="-52.2" font-family="Helvetica, Arial, sans-serif" font-size="16.00" fill="#000000">conflict events</text>
</g>
<!-- chicken_number_s&#45;&gt;acl_sum_evnt_m -->
<g id="edge5" class="edge">
<title>chicken_number_s-&gt;acl_sum_evnt_m</title>
<path fill="none" stroke="#666666" stroke-width="2" d="M301.2902,-291C266.2713,-229.6928 291.9823,-202.5035 271.2902,-135 267.8469,-123.7671 263.1795,-111.8984 258.5526,-101.1886"/>
<polygon fill="#666666" stroke="#666666" stroke-width="2" points="262.3333,-99.3542 253.6077,-90.1072 254.6624,-102.7772 262.3333,-99.3542"/>
</g>
<!-- spam_P_i_avg_s&#45;&gt;rurpop_s -->
<g id="edge6" class="edge">
<title>spam_P_i_avg_s-&gt;rurpop_s</title>
<path fill="none" stroke="#666666" stroke-width="2" d="M134.8402,-245.3318C140.51,-236.5694 146.4539,-227.3833 152.1423,-218.5921"/>
<polygon fill="#666666" stroke="#666666" stroke-width="2" points="155.678,-220.859 158.6709,-208.5025 148.6256,-216.2957 155.678,-220.859"/>
</g>
<!-- rurpop_s&#45;&gt;acl_sum_evnt_m -->
<g id="edge7" class="edge">
<title>rurpop_s-&gt;acl_sum_evnt_m</title>
<path fill="none" stroke="#666666" stroke-width="2" d="M202.4296,-135.4759C208.5887,-124.3061 215.3551,-112.0349 221.4913,-100.9065"/>
<polygon fill="#666666" stroke="#666666" stroke-width="2" points="225.2552,-102.7785 227.3716,-90.2421 217.8993,-98.7225 225.2552,-102.7785"/>
</g>
<!-- yield_gap_barley_s -->
<g id="node5" class="node rankB">
<title>yield_gap_barley_s</title>
<path fill="none" stroke="#000000" d="M145.2902,-483.5C145.2902,-483.5 271.2902,-483.5 271.2902,-483.5 277.2902,-483.5 283.2902,-489.5 283.2902,-495.5 283.2902,-495.5 283.2902,-580.5 283.2902,-580.5 283.2902,-586.5 277.2902,-592.5 271.2902,-592.5 271.2902,-592.5 145.2902,-592.5 145.2902,-592.5 139.2902,-592.5 133.2902,-586.5 133.2902,-580.5 133.2902,-580.5 133.2902,-495.5 133.2902,-495.5 133.2902,-489.5 139.2902,-483.5 145.2902,-483.5"/>
<text text-anchor="start" x="156.2902" y="-573.7" font-family="Helvetica, Arial, sans-serif" font-size="16.00" fill="#000000">Gap between</text>
<text text-anchor="start" x="154.7902" y="-555.7" font-family="Helvetica, Arial, sans-serif" font-size="16.00" fill="#000000">observed and</text>
<text text-anchor="start" x="146.2902" y="-537.7" font-family="Helvetica, Arial, sans-serif" font-size="16.00" fill="#000000">potential barley</text>
<text text-anchor="start" x="189.7902" y="-519.7" font-family="Helvetica, Arial, sans-serif" font-size="16.00" fill="#000000">yield</text>
<polyline fill="none" stroke="#000000" points="133.2902,-508.5 283.2902,-508.5 "/>
<text text-anchor="start" x="141.2902" y="-491.8" font-family="Helvetica, Arial, sans-serif" font-size="14.00" fill="#000000">effect: Inestimable</text>
</g>
<!-- yield_gap_barley_s&#45;&gt;chicken_number_s -->
<g id="edge8" class="edge">
<title>yield_gap_barley_s-&gt;chicken_number_s</title>
<path fill="none" stroke="#666666" stroke-width="2" d="M280.8786,-483.3452C293.9098,-473.5334 307.3388,-463.4222 319.9047,-453.9608"/>
<polygon fill="#666666" stroke="#666666" stroke-width="2" points="322.713,-457.1038 329.7732,-446.5304 317.6604,-450.3932 322.713,-457.1038"/>
</g>
<!-- yield_gap_barley_s&#45;&gt;spam_P_i_avg_s -->
<g id="edge9" class="edge">
<title>yield_gap_barley_s-&gt;spam_P_i_avg_s</title>
<path fill="none" stroke="#666666" stroke-width="2" d="M231.7402,-483.4104C238.4719,-458.6923 240.2599,-430.4901 224.2902,-410"/>
<path fill="none" stroke="#666666" stroke-width="2" d="M224.2902,-410C206.6107,-387.3163 184.9334,-364.4831 164.9465,-344.969"/>
<polygon fill="#666666" stroke="#666666" stroke-width="2" points="167.7556,-341.8431 156.2029,-336.5351 161.9239,-347.889 167.7556,-341.8431"/>
</g>
<!-- rurratio_s -->
<g id="node6" class="node rankA">
<title>rurratio_s</title>
<path fill="none" stroke="#000000" d="M514.7902,-755.5C514.7902,-755.5 629.7902,-755.5 629.7902,-755.5 635.7902,-755.5 641.7902,-761.5 641.7902,-767.5 641.7902,-767.5 641.7902,-868.5 641.7902,-868.5 641.7902,-874.5 635.7902,-880.5 629.7902,-880.5 629.7902,-880.5 514.7902,-880.5 514.7902,-880.5 508.7902,-880.5 502.7902,-874.5 502.7902,-868.5 502.7902,-868.5 502.7902,-767.5 502.7902,-767.5 502.7902,-761.5 508.7902,-755.5 514.7902,-755.5"/>
<text text-anchor="start" x="517.7902" y="-861.7" font-family="Helvetica, Arial, sans-serif" font-size="16.00" fill="#000000">Percentage of</text>
<text text-anchor="start" x="512.2902" y="-843.7" font-family="Helvetica, Arial, sans-serif" font-size="16.00" fill="#000000">population that</text>
<text text-anchor="start" x="527.2902" y="-825.7" font-family="Helvetica, Arial, sans-serif" font-size="16.00" fill="#000000">live in rural</text>
<text text-anchor="start" x="550.2902" y="-807.7" font-family="Helvetica, Arial, sans-serif" font-size="16.00" fill="#000000">areas</text>
<polyline fill="none" stroke="#000000" points="502.7902,-796.5 641.7902,-796.5 "/>
<text text-anchor="start" x="524.2902" y="-779.8" font-family="Helvetica, Arial, sans-serif" font-size="14.00" fill="#000000">effect: -0.489</text>
<text text-anchor="start" x="529.2902" y="-763.8" font-family="Helvetica, Arial, sans-serif" font-size="14.00" fill="#000000">error: 0.255</text>
</g>
<!-- rurratio_s&#45;&gt;chicken_number_s -->
<g id="edge10" class="edge">
<title>rurratio_s-&gt;chicken_number_s</title>
<path fill="none" stroke="#666666" stroke-width="2" d="M585.3366,-755.4875C594.7021,-697.4585 601.8162,-609.5135 577.2902,-538"/>
<path fill="none" stroke="#666666" stroke-width="2" d="M577.2902,-538C558.5069,-491.6883 512.633,-460.486 469.6594,-440.4914"/>
<polygon fill="#666666" stroke="#666666" stroke-width="2" points="471.1927,-436.5765 458.5227,-435.5221 467.7698,-444.2474 471.1927,-436.5765"/>
</g>
<!-- rurratio_s&#45;&gt;rurpop_s -->
<g id="edge11" class="edge">
<title>rurratio_s-&gt;rurpop_s</title>
<path fill="none" stroke="#666666" stroke-width="2" d="M577.2902,-538C512.5159,-378.294 466.2964,-341.1818 323.2902,-245 306.0816,-233.426 286.8098,-222.35 268.1738,-212.4789"/>
<polygon fill="#666666" stroke="#666666" stroke-width="2" points="269.8779,-208.631 257.295,-206.8115 265.9969,-216.0807 269.8779,-208.631"/>
</g>
<!-- locdensity_y -->
<g id="node7" class="node rankB">
<title>locdensity_y</title>
<path fill="none" stroke="#000000" d="M330.7902,-629.5C330.7902,-629.5 455.7902,-629.5 455.7902,-629.5 461.7902,-629.5 467.7902,-635.5 467.7902,-641.5 467.7902,-641.5 467.7902,-706.5 467.7902,-706.5 467.7902,-712.5 461.7902,-718.5 455.7902,-718.5 455.7902,-718.5 330.7902,-718.5 330.7902,-718.5 324.7902,-718.5 318.7902,-712.5 318.7902,-706.5 318.7902,-706.5 318.7902,-641.5 318.7902,-641.5 318.7902,-635.5 324.7902,-629.5 330.7902,-629.5"/>
<text text-anchor="start" x="328.2902" y="-699.7" font-family="Helvetica, Arial, sans-serif" font-size="16.00" fill="#000000">Local population</text>
<text text-anchor="start" x="364.7902" y="-681.7" font-family="Helvetica, Arial, sans-serif" font-size="16.00" fill="#000000">density</text>
<polyline fill="none" stroke="#000000" points="318.7902,-670.5 467.7902,-670.5 "/>
<text text-anchor="start" x="345.2902" y="-653.8" font-family="Helvetica, Arial, sans-serif" font-size="14.00" fill="#000000">effect: -1.263</text>
<text text-anchor="start" x="354.7902" y="-637.8" font-family="Helvetica, Arial, sans-serif" font-size="14.00" fill="#000000">error: 0.68</text>
</g>
<!-- rurratio_s&#45;&gt;locdensity_y -->
<g id="edge12" class="edge">
<title>rurratio_s-&gt;locdensity_y</title>
<path fill="none" stroke="#666666" stroke-width="2" d="M502.5715,-761.9135C487.9159,-750.1235 472.5153,-737.7342 458.0504,-726.0976"/>
<polygon fill="#666666" stroke="#666666" stroke-width="2" points="460.6799,-722.8226 448.6972,-718.5733 455.4146,-729.3676 460.6799,-722.8226"/>
</g>
<!-- locdensity_y&#45;&gt;DeliveredkcalFraction_s -->
<g id="edge13" class="edge">
<title>locdensity_y-&gt;DeliveredkcalFraction_s</title>
<path fill="none" stroke="#666666" stroke-width="2" d="M393.2902,-629.4685C393.2902,-621.2545 393.2902,-612.5198 393.2902,-603.8324"/>
<polygon fill="#666666" stroke="#666666" stroke-width="2" points="397.4903,-603.6409 393.2902,-591.641 389.0903,-603.641 397.4903,-603.6409"/>
</g>
<!-- locdensity_y&#45;&gt;yield_gap_barley_s -->
<g id="edge14" class="edge">
<title>locdensity_y-&gt;yield_gap_barley_s</title>
<path fill="none" stroke="#666666" stroke-width="2" d="M332.7142,-629.4685C319.8251,-619.9933 305.9934,-609.8251 292.4051,-599.8358"/>
<polygon fill="#666666" stroke="#666666" stroke-width="2" points="294.7269,-596.3299 282.5706,-592.6062 289.7515,-603.0979 294.7269,-596.3299"/>
</g>
<!-- ndvi_act_min_m -->
<g id="node8" class="node rankA">
<title>ndvi_act_min_m</title>
<path fill="none" stroke="#000000" d="M330.2902,-781.5C330.2902,-781.5 456.2902,-781.5 456.2902,-781.5 462.2902,-781.5 468.2902,-787.5 468.2902,-793.5 468.2902,-793.5 468.2902,-842.5 468.2902,-842.5 468.2902,-848.5 462.2902,-854.5 456.2902,-854.5 456.2902,-854.5 330.2902,-854.5 330.2902,-854.5 324.2902,-854.5 318.2902,-848.5 318.2902,-842.5 318.2902,-842.5 318.2902,-793.5 318.2902,-793.5 318.2902,-787.5 324.2902,-781.5 330.2902,-781.5"/>
<text text-anchor="start" x="353.2902" y="-835.7" font-family="Helvetica, Arial, sans-serif" font-size="16.00" fill="#000000">Density of</text>
<text text-anchor="start" x="352.2902" y="-817.7" font-family="Helvetica, Arial, sans-serif" font-size="16.00" fill="#000000">greenness</text>
<polyline fill="none" stroke="#000000" points="318.2902,-806.5 468.2902,-806.5 "/>
<text text-anchor="start" x="326.2902" y="-789.8" font-family="Helvetica, Arial, sans-serif" font-size="14.00" fill="#000000">effect: Inestimable</text>
</g>
<!-- ndvi_act_min_m&#45;&gt;DeliveredkcalFraction_s -->
<g id="edge15" class="edge">
<title>ndvi_act_min_m-&gt;DeliveredkcalFraction_s</title>
<path fill="none" stroke="#666666" stroke-width="2" d="M208.2902,-674C203.4642,-661.7218 253.0986,-625.7753 302.16,-593.9219"/>
<polygon fill="#666666" stroke="#666666" stroke-width="2" points="304.461,-597.4357 312.2739,-587.4058 299.9115,-590.3743 304.461,-597.4357"/>
</g>
<!-- ndvi_act_min_m&#45;&gt;chicken_number_s -->
<g id="edge16" class="edge">
<title>ndvi_act_min_m-&gt;chicken_number_s</title>
<path fill="none" stroke="#666666" stroke-width="2" d="M437.1277,-781.4968C454.4049,-764.4484 472.4448,-742.6897 482.2902,-719 522.5613,-622.1001 539.0941,-575.363 489.2902,-483 483.4002,-472.0769 475.0828,-462.5206 465.6186,-454.2391"/>
<polygon fill="#666666" stroke="#666666" stroke-width="2" points="468.2167,-450.9389 456.235,-446.6868 462.95,-457.4827 468.2167,-450.9389"/>
</g>
<!-- ndvi_act_min_m&#45;&gt;spam_P_i_avg_s -->
<g id="edge17" class="edge">
<title>ndvi_act_min_m-&gt;spam_P_i_avg_s</title>
<path fill="none" stroke="#666666" stroke-width="2" d="M105.2902,-410C101.8978,-390.1953 101.083,-368.2629 101.3769,-348.6781"/>
<polygon fill="#666666" stroke="#666666" stroke-width="2" points="105.5799,-348.6192 101.7021,-336.5113 97.1829,-348.3947 105.5799,-348.6192"/>
</g>
<!-- ndvi_act_min_m&#45;&gt;rurpop_s -->
<g id="edge18" class="edge">
<title>ndvi_act_min_m-&gt;rurpop_s</title>
<path fill="none" stroke="#666666" stroke-width="2" d="M317.9921,-784.0238C275.7807,-760.167 227.7945,-723.6228 208.2902,-674"/>
<path fill="none" stroke="#666666" stroke-width="2" d="M208.2902,-674C188.7249,-624.2221 142.7654,-641.0578 119.2902,-593 83.4876,-519.706 119.0621,-490.4 105.2902,-410"/>
<path fill="none" stroke="#666666" stroke-width="2" d="M105.2902,-410C92.2864,-360.1648 37.4445,-383.4955 15.2902,-337 -2.2982,-300.0872 -7.0957,-279.2166 15.2902,-245 33.4929,-217.1773 64.8878,-199.8959 95.5786,-189.1899"/>
<polygon fill="#666666" stroke="#666666" stroke-width="2" points="97.1559,-193.0939 107.2777,-185.4003 94.5674,-185.1026 97.1559,-193.0939"/>
</g>
<!-- ndvi_act_min_m&#45;&gt;yield_gap_barley_s -->
<g id="edge19" class="edge">
<title>ndvi_act_min_m-&gt;yield_gap_barley_s</title>
<path fill="none" stroke="#666666" stroke-width="2" d="M208.2902,-674C199.8366,-652.4923 197.847,-627.5511 198.6144,-604.9456"/>
<polygon fill="#666666" stroke="#666666" stroke-width="2" points="202.8246,-604.8796 199.3009,-592.6639 194.4377,-604.4108 202.8246,-604.8796"/>
</g>
<!-- ndvi_act_min_m&#45;&gt;locdensity_y -->
<g id="edge20" class="edge">
<title>ndvi_act_min_m-&gt;locdensity_y</title>
<path fill="none" stroke="#666666" stroke-width="2" d="M393.2902,-781.2901C393.2902,-765.9351 393.2902,-747.7351 393.2902,-730.7271"/>
<polygon fill="#666666" stroke="#666666" stroke-width="2" points="397.4903,-730.6109 393.2902,-718.6109 389.0903,-730.611 397.4903,-730.6109"/>
</g>
<!-- acl_sum_fatl_m -->
<g id="node10" class="node rankC">
<title>acl_sum_fatl_m</title>
<path fill="none" stroke="#000000" d="M134.2902,-99C134.2902,-99 34.2902,-99 34.2902,-99 28.2902,-99 22.2902,-93 22.2902,-87 22.2902,-87 22.2902,-43 22.2902,-43 22.2902,-37 28.2902,-31 34.2902,-31 34.2902,-31 134.2902,-31 134.2902,-31 140.2902,-31 146.2902,-37 146.2902,-43 146.2902,-43 146.2902,-87 146.2902,-87 146.2902,-93 140.2902,-99 134.2902,-99"/>
<text text-anchor="middle" x="84.2902" y="-79.2" font-family="Helvetica, Arial, sans-serif" font-size="16.00" fill="#000000">Reported</text>
<text text-anchor="middle" x="84.2902" y="-61.2" font-family="Helvetica, Arial, sans-serif" font-size="16.00" fill="#000000">fatalities from</text>
<text text-anchor="middle" x="84.2902" y="-43.2" font-family="Helvetica, Arial, sans-serif" font-size="16.00" fill="#000000">conflict events</text>
</g>
<!-- acl_sum_fatl_m&#45;&gt;acl_sum_evnt_m -->
<g id="edge21" class="edge">
<title>acl_sum_fatl_m-&gt;acl_sum_evnt_m</title>
<path fill="none" stroke="#666666" stroke-width="2" d="M146.5382,-65C152.0303,-65 157.5224,-65 163.0146,-65"/>
<polygon fill="#666666" stroke="#666666" stroke-width="2" points="163.0379,-69.2001 175.0378,-65 163.0378,-60.8001 163.0379,-69.2001"/>
</g>
</g>
<style>.node path {
  stroke: #fff;
}
.node text {
  fill: #fff;
}
.node polyline {
  stroke: #fff;
}
.rankA path {
  fill: #1b6002;
}
.rankB path {
  fill: #437387;
}
.rankC path {
  fill: #2e3348;
}
</style></svg>
