<?xml version="1.0" encoding="UTF-8" standalone="no"?>
<!DOCTYPE svg PUBLIC "-//W3C//DTD SVG 1.1//EN" "http://www.w3.org/Graphics/SVG/1.1/DTD/svg11.dtd">
<!-- Generated by graphviz version 2.40.1 (20161225.0304)
 -->
<!-- Title: causalModel Pages: 1 -->
<svg xmlns="http://www.w3.org/2000/svg" xmlns:xlink="http://www.w3.org/1999/xlink" width="" height="" viewBox="0.00 0.00 527.00 673.00" preserveAspectRatio="xMinYMin">
<g id="graph0" class="graph" transform="scale(1 1) rotate(0) translate(4 669)">
<title>causalModel</title>
<polygon fill="#ffffff" stroke="transparent" points="-4,4 -4,-669 523,-669 523,4 -4,4"/>
<text text-anchor="middle" x="259.5" y="-7.8" font-family="Helvetica, Arial, sans-serif" font-size="14.00" fill="#000000">Causal Model: North America</text>
<!-- rurratio_s -->
<g id="node1" class="node rankB">
<title>rurratio_s</title>
<path fill="none" stroke="#000000" d="M86,-125.5C86,-125.5 201,-125.5 201,-125.5 207,-125.5 213,-131.5 213,-137.5 213,-137.5 213,-238.5 213,-238.5 213,-244.5 207,-250.5 201,-250.5 201,-250.5 86,-250.5 86,-250.5 80,-250.5 74,-244.5 74,-238.5 74,-238.5 74,-137.5 74,-137.5 74,-131.5 80,-125.5 86,-125.5"/>
<text text-anchor="start" x="89" y="-231.7" font-family="Helvetica, Arial, sans-serif" font-size="16.00" fill="#000000">Percentage of</text>
<text text-anchor="start" x="83.5" y="-213.7" font-family="Helvetica, Arial, sans-serif" font-size="16.00" fill="#000000">population that</text>
<text text-anchor="start" x="98.5" y="-195.7" font-family="Helvetica, Arial, sans-serif" font-size="16.00" fill="#000000">live in rural</text>
<text text-anchor="start" x="121.5" y="-177.7" font-family="Helvetica, Arial, sans-serif" font-size="16.00" fill="#000000">areas</text>
<polyline fill="none" stroke="#000000" points="74,-166.5 213,-166.5 "/>
<text text-anchor="start" x="95.5" y="-149.8" font-family="Helvetica, Arial, sans-serif" font-size="14.00" fill="#000000">effect: -2.086</text>
<text text-anchor="start" x="100.5" y="-133.8" font-family="Helvetica, Arial, sans-serif" font-size="14.00" fill="#000000">error: 0.244</text>
</g>
<!-- acl_pprt_evnt_m -->
<g id="node8" class="node rankC">
<title>acl_pprt_evnt_m</title>
<path fill="none" stroke="#000000" d="M197.5,-89C197.5,-89 89.5,-89 89.5,-89 83.5,-89 77.5,-83 77.5,-77 77.5,-77 77.5,-51 77.5,-51 77.5,-45 83.5,-39 89.5,-39 89.5,-39 197.5,-39 197.5,-39 203.5,-39 209.5,-45 209.5,-51 209.5,-51 209.5,-77 209.5,-77 209.5,-83 203.5,-89 197.5,-89"/>
<text text-anchor="middle" x="143.5" y="-69.2" font-family="Helvetica, Arial, sans-serif" font-size="16.00" fill="#000000">Total number of</text>
<text text-anchor="middle" x="143.5" y="-51.2" font-family="Helvetica, Arial, sans-serif" font-size="16.00" fill="#000000">protest events</text>
</g>
<!-- rurratio_s&#45;&gt;acl_pprt_evnt_m -->
<g id="edge1" class="edge">
<title>rurratio_s-&gt;acl_pprt_evnt_m</title>
<path fill="none" stroke="#666666" stroke-width="2" d="M143.5,-125.2735C143.5,-117.0382 143.5,-108.8201 143.5,-101.2003"/>
<polygon fill="#666666" stroke="#666666" stroke-width="2" points="147.7001,-101.0442 143.5,-89.0443 139.3001,-101.0443 147.7001,-101.0442"/>
</g>
<!-- et_anom_m_STD_m -->
<g id="node2" class="node rankB">
<title>et_anom_m_STD_m</title>
<path fill="none" stroke="#000000" d="M71.5,-434C71.5,-434 215.5,-434 215.5,-434 221.5,-434 227.5,-440 227.5,-446 227.5,-446 227.5,-488 227.5,-488 227.5,-494 221.5,-500 215.5,-500 215.5,-500 71.5,-500 71.5,-500 65.5,-500 59.5,-494 59.5,-488 59.5,-488 59.5,-446 59.5,-446 59.5,-440 65.5,-434 71.5,-434"/>
<text text-anchor="start" x="98.5" y="-481.2" font-family="Helvetica, Arial, sans-serif" font-size="16.00" fill="#000000">Variation in</text>
<text text-anchor="start" x="68.5" y="-463.2" font-family="Helvetica, Arial, sans-serif" font-size="16.00" fill="#000000">evapotranspiration</text>
<text text-anchor="start" x="110" y="-445.2" font-family="Helvetica, Arial, sans-serif" font-size="16.00" fill="#000000">patterns</text>
</g>
<!-- et_anom_m_STD_m&#45;&gt;rurratio_s -->
<g id="edge2" class="edge">
<title>et_anom_m_STD_m-&gt;rurratio_s</title>
<path fill="none" stroke="#666666" stroke-width="2" d="M80.6098,-433.9601C45.2635,-410.3451 9.3304,-375.1632 15.5,-332"/>
</g>
<!-- ndvi_act_min_m -->
<g id="node3" class="node rankB">
<title>ndvi_act_min_m</title>
<path fill="none" stroke="#000000" d="M99.5,-287.5C99.5,-287.5 187.5,-287.5 187.5,-287.5 193.5,-287.5 199.5,-293.5 199.5,-299.5 199.5,-299.5 199.5,-364.5 199.5,-364.5 199.5,-370.5 193.5,-376.5 187.5,-376.5 187.5,-376.5 99.5,-376.5 99.5,-376.5 93.5,-376.5 87.5,-370.5 87.5,-364.5 87.5,-364.5 87.5,-299.5 87.5,-299.5 87.5,-293.5 93.5,-287.5 99.5,-287.5"/>
<text text-anchor="start" x="103.5" y="-357.7" font-family="Helvetica, Arial, sans-serif" font-size="16.00" fill="#000000">Density of</text>
<text text-anchor="start" x="102.5" y="-339.7" font-family="Helvetica, Arial, sans-serif" font-size="16.00" fill="#000000">greenness</text>
<polyline fill="none" stroke="#000000" points="87.5,-328.5 199.5,-328.5 "/>
<text text-anchor="start" x="95.5" y="-311.8" font-family="Helvetica, Arial, sans-serif" font-size="14.00" fill="#000000">effect: -0.176</text>
<text text-anchor="start" x="100.5" y="-295.8" font-family="Helvetica, Arial, sans-serif" font-size="14.00" fill="#000000">error: 0.125</text>
</g>
<!-- et_anom_m_STD_m&#45;&gt;ndvi_act_min_m -->
<g id="edge3" class="edge">
<title>et_anom_m_STD_m-&gt;ndvi_act_min_m</title>
<path fill="none" stroke="#666666" stroke-width="2" d="M143.5,-433.9753C143.5,-420.363 143.5,-404.1938 143.5,-388.7884"/>
<polygon fill="#666666" stroke="#666666" stroke-width="2" points="147.7001,-388.6608 143.5,-376.6609 139.3001,-388.6609 147.7001,-388.6608"/>
</g>
<!-- ndvi_act_min_m&#45;&gt;rurratio_s -->
<g id="edge4" class="edge">
<title>ndvi_act_min_m-&gt;rurratio_s</title>
<path fill="none" stroke="#666666" stroke-width="2" d="M143.5,-287.2269C143.5,-279.4609 143.5,-271.1994 143.5,-262.8864"/>
<polygon fill="#666666" stroke="#666666" stroke-width="2" points="147.7001,-262.7219 143.5,-250.722 139.3001,-262.722 147.7001,-262.7219"/>
</g>
<!-- yield_gap_maize_s -->
<g id="node7" class="node rankB">
<title>yield_gap_maize_s</title>
<path fill="none" stroke="#000000" d="M402,-146C402,-146 507,-146 507,-146 513,-146 519,-152 519,-158 519,-158 519,-218 519,-218 519,-224 513,-230 507,-230 507,-230 402,-230 402,-230 396,-230 390,-224 390,-218 390,-218 390,-158 390,-158 390,-152 396,-146 402,-146"/>
<text text-anchor="start" x="402.5" y="-211.2" font-family="Helvetica, Arial, sans-serif" font-size="16.00" fill="#000000">Gap between</text>
<text text-anchor="start" x="401" y="-193.2" font-family="Helvetica, Arial, sans-serif" font-size="16.00" fill="#000000">observed and</text>
<text text-anchor="start" x="399.5" y="-175.2" font-family="Helvetica, Arial, sans-serif" font-size="16.00" fill="#000000">potential corn</text>
<text text-anchor="start" x="436" y="-157.2" font-family="Helvetica, Arial, sans-serif" font-size="16.00" fill="#000000">yield</text>
</g>
<!-- ndvi_act_min_m&#45;&gt;yield_gap_maize_s -->
<g id="edge5" class="edge">
<title>ndvi_act_min_m-&gt;yield_gap_maize_s</title>
<path fill="none" stroke="#666666" stroke-width="2" d="M199.8198,-305.9227C249.8485,-282.7582 323.3843,-248.7095 378.5933,-223.1465"/>
<polygon fill="#666666" stroke="#666666" stroke-width="2" points="380.6047,-226.8436 389.7293,-217.9903 377.0752,-219.2211 380.6047,-226.8436"/>
</g>
<!-- spi_3_m -->
<g id="node4" class="node rankA">
<title>spi_3_m</title>
<path fill="none" stroke="#000000" d="M12,-557.5C12,-557.5 147,-557.5 147,-557.5 153,-557.5 159,-563.5 159,-569.5 159,-569.5 159,-652.5 159,-652.5 159,-658.5 153,-664.5 147,-664.5 147,-664.5 12,-664.5 12,-664.5 6,-664.5 0,-658.5 0,-652.5 0,-652.5 0,-569.5 0,-569.5 0,-563.5 6,-557.5 12,-557.5"/>
<text text-anchor="start" x="34.5" y="-645.7" font-family="Helvetica, Arial, sans-serif" font-size="16.00" fill="#000000">Variation of</text>
<text text-anchor="start" x="9.5" y="-627.7" font-family="Helvetica, Arial, sans-serif" font-size="16.00" fill="#000000">precipitation over</text>
<text text-anchor="start" x="19" y="-609.7" font-family="Helvetica, Arial, sans-serif" font-size="16.00" fill="#000000">3-month period</text>
<polyline fill="none" stroke="#000000" points="0,-598.5 159,-598.5 "/>
<text text-anchor="start" x="34.5" y="-581.8" font-family="Helvetica, Arial, sans-serif" font-size="14.00" fill="#000000">effect: 0.703</text>
<text text-anchor="start" x="37" y="-565.8" font-family="Helvetica, Arial, sans-serif" font-size="14.00" fill="#000000">error: 0.232</text>
</g>
<!-- spi_3_m&#45;&gt;rurratio_s -->
<g id="edge6" class="edge">
<title>spi_3_m-&gt;rurratio_s</title>
<path fill="none" stroke="#666666" stroke-width="2" d="M42.6648,-557.3759C28.216,-531.2742 15.1118,-498.7328 15.5,-467"/>
<path fill="none" stroke="#666666" stroke-width="2" d="M15.5,-467C16.234,-407.0045 7.0101,-391.3963 15.5,-332"/>
<path fill="none" stroke="#666666" stroke-width="2" d="M15.5,-332C20.2844,-298.5281 41.2481,-269.0376 64.8678,-245.6032"/>
<polygon fill="#666666" stroke="#666666" stroke-width="2" points="67.8567,-248.5569 73.665,-237.2474 62.0717,-242.4664 67.8567,-248.5569"/>
</g>
<!-- spi_3_m&#45;&gt;et_anom_m_STD_m -->
<g id="edge7" class="edge">
<title>spi_3_m-&gt;et_anom_m_STD_m</title>
<path fill="none" stroke="#666666" stroke-width="2" d="M103.3312,-557.3797C110.0615,-542.2367 117.3084,-525.9311 123.769,-511.3947"/>
<polygon fill="#666666" stroke="#666666" stroke-width="2" points="127.7211,-512.8436 128.7569,-500.1721 120.0451,-509.432 127.7211,-512.8436"/>
</g>
<!-- spi_3_m&#45;&gt;ndvi_act_min_m -->
<g id="edge8" class="edge">
<title>spi_3_m-&gt;ndvi_act_min_m</title>
<path fill="none" stroke="#666666" stroke-width="2" d="M15.5,-467C15.992,-426.7848 46.2907,-393.7509 77.2826,-370.4273"/>
<polygon fill="#666666" stroke="#666666" stroke-width="2" points="80.0428,-373.6156 87.3323,-363.199 75.138,-366.7962 80.0428,-373.6156"/>
</g>
<!-- rainfed_s -->
<g id="node5" class="node rankB">
<title>rainfed_s</title>
<path fill="none" stroke="#000000" d="M269,-413.5C269,-413.5 398,-413.5 398,-413.5 404,-413.5 410,-419.5 410,-425.5 410,-425.5 410,-508.5 410,-508.5 410,-514.5 404,-520.5 398,-520.5 398,-520.5 269,-520.5 269,-520.5 263,-520.5 257,-514.5 257,-508.5 257,-508.5 257,-425.5 257,-425.5 257,-419.5 263,-413.5 269,-413.5"/>
<text text-anchor="start" x="279" y="-501.7" font-family="Helvetica, Arial, sans-serif" font-size="16.00" fill="#000000">Percentage of</text>
<text text-anchor="start" x="266.5" y="-483.7" font-family="Helvetica, Arial, sans-serif" font-size="16.00" fill="#000000">crops grown that</text>
<text text-anchor="start" x="290" y="-465.7" font-family="Helvetica, Arial, sans-serif" font-size="16.00" fill="#000000">are rainfed</text>
<polyline fill="none" stroke="#000000" points="257,-454.5 410,-454.5 "/>
<text text-anchor="start" x="285.5" y="-437.8" font-family="Helvetica, Arial, sans-serif" font-size="14.00" fill="#000000">effect: -0.168</text>
<text text-anchor="start" x="290.5" y="-421.8" font-family="Helvetica, Arial, sans-serif" font-size="14.00" fill="#000000">error: 0.099</text>
</g>
<!-- rainfed_s&#45;&gt;ndvi_act_min_m -->
<g id="edge9" class="edge">
<title>rainfed_s-&gt;ndvi_act_min_m</title>
<path fill="none" stroke="#666666" stroke-width="2" d="M258.1341,-413.4505C242.1559,-402.0976 225.4029,-390.1942 209.7915,-379.1019"/>
<polygon fill="#666666" stroke="#666666" stroke-width="2" points="211.9319,-375.4704 199.717,-371.9437 207.0665,-382.318 211.9319,-375.4704"/>
</g>
<!-- spam_P_i_sum_s -->
<g id="node6" class="node rankB">
<title>spam_P_i_sum_s</title>
<path fill="none" stroke="#000000" d="M278,-578C278,-578 389,-578 389,-578 395,-578 401,-584 401,-590 401,-590 401,-632 401,-632 401,-638 395,-644 389,-644 389,-644 278,-644 278,-644 272,-644 266,-638 266,-632 266,-632 266,-590 266,-590 266,-584 272,-578 278,-578"/>
<text text-anchor="start" x="279.5" y="-625.2" font-family="Helvetica, Arial, sans-serif" font-size="16.00" fill="#000000">Metric tons of</text>
<text text-anchor="start" x="275.5" y="-607.2" font-family="Helvetica, Arial, sans-serif" font-size="16.00" fill="#000000">irrigated crops</text>
<text text-anchor="start" x="296.5" y="-589.2" font-family="Helvetica, Arial, sans-serif" font-size="16.00" fill="#000000">produced</text>
</g>
<!-- spam_P_i_sum_s&#45;&gt;rurratio_s -->
<g id="edge11" class="edge">
<title>spam_P_i_sum_s-&gt;rurratio_s</title>
<path fill="none" stroke="#666666" stroke-width="2" d="M377.6445,-577.789C394.9688,-562.4203 413.3397,-542.7455 424.5,-521 463.3346,-445.332 488.5496,-409.9385 454.5,-332"/>
<path fill="none" stroke="#666666" stroke-width="2" d="M454.5,-332C436.0643,-286.1484 310.6069,-239.1702 224.7796,-211.8334"/>
<polygon fill="#666666" stroke="#666666" stroke-width="2" points="225.9173,-207.7884 213.2099,-208.1902 223.3944,-215.8005 225.9173,-207.7884"/>
</g>
<!-- spam_P_i_sum_s&#45;&gt;et_anom_m_STD_m -->
<g id="edge12" class="edge">
<title>spam_P_i_sum_s-&gt;et_anom_m_STD_m</title>
<path fill="none" stroke="#666666" stroke-width="2" d="M289.9102,-577.9635C262.2507,-557.0005 226.2708,-529.7315 196.9009,-507.4722"/>
<polygon fill="#666666" stroke="#666666" stroke-width="2" points="199.3161,-504.0328 187.2156,-500.1318 194.2424,-510.7274 199.3161,-504.0328"/>
</g>
<!-- spam_P_i_sum_s&#45;&gt;rainfed_s -->
<g id="edge13" class="edge">
<title>spam_P_i_sum_s-&gt;rainfed_s</title>
<path fill="none" stroke="#666666" stroke-width="2" d="M333.5,-565.8856C333.5,-555.3787 333.5,-543.9798 333.5,-532.783"/>
<polygon fill="#666666" stroke="#666666" stroke-width="2" points="329.3001,-565.9635 333.5,-577.9635 337.7001,-565.9635 329.3001,-565.9635"/>
<polygon fill="#666666" stroke="#666666" stroke-width="2" points="337.7001,-532.7642 333.5,-520.7643 329.3001,-532.7643 337.7001,-532.7642"/>
</g>
<!-- spam_P_i_sum_s&#45;&gt;yield_gap_maize_s -->
<g id="edge14" class="edge">
<title>spam_P_i_sum_s-&gt;yield_gap_maize_s</title>
<path fill="none" stroke="#666666" stroke-width="2" d="M454.5,-332C442.2943,-304.0616 441.7177,-270.0627 444.4604,-242.1179"/>
<polygon fill="#666666" stroke="#666666" stroke-width="2" points="448.6375,-242.5576 445.8691,-230.1489 440.2951,-241.5756 448.6375,-242.5576"/>
</g>
</g>
<style>.node path {
  stroke: #fff;
}
.node text {
  fill: #fff;
}
.node polyline {
  stroke: #fff;
}
.rankA path {
  fill: #2e3348;
}
.rankB path {
  fill: #437387;
}
.rankC path {
  fill: #1b6002;
}
</style></svg>
