<?xml version="1.0" encoding="UTF-8" standalone="no"?>
<!DOCTYPE svg PUBLIC "-//W3C//DTD SVG 1.1//EN" "http://www.w3.org/Graphics/SVG/1.1/DTD/svg11.dtd">
<!-- Generated by graphviz version 2.40.1 (20161225.0304)
 -->
<!-- Title: causalModel Pages: 1 -->
<svg xmlns="http://www.w3.org/2000/svg" xmlns:xlink="http://www.w3.org/1999/xlink" width="" height="" viewBox="0.00 0.00 525.96 668.00" preserveAspectRatio="xMinYMin">
<g id="graph0" class="graph" transform="scale(1 1) rotate(0) translate(4 664)">
<title>causalModel</title>
<text text-anchor="start" x="139.9805" y="-29.8" font-family="Helvetica, Arial, sans-serif" font-weight="bold" font-size="14.00" fill="#000000">Causal Model: North America</text>
<text text-anchor="start" x="139.9805" y="-9.8" font-family="Helvetica, Arial, sans-serif" font-size="14.00" fill="#000000">***significance of 0.1%</text>
<!-- rurratio_s -->
<g id="node1" class="node rankB">
<title>rurratio_s</title>
<path fill="none" stroke="#000000" d="M74.4609,-136.5C74.4609,-136.5 189.4609,-136.5 189.4609,-136.5 195.4609,-136.5 201.4609,-142.5 201.4609,-148.5 201.4609,-148.5 201.4609,-249.5 201.4609,-249.5 201.4609,-255.5 195.4609,-261.5 189.4609,-261.5 189.4609,-261.5 74.4609,-261.5 74.4609,-261.5 68.4609,-261.5 62.4609,-255.5 62.4609,-249.5 62.4609,-249.5 62.4609,-148.5 62.4609,-148.5 62.4609,-142.5 68.4609,-136.5 74.4609,-136.5"/>
<text text-anchor="start" x="77.4609" y="-242.7" font-family="Helvetica, Arial, sans-serif" font-size="16.00" fill="#000000">Percentage of</text>
<text text-anchor="start" x="71.9609" y="-224.7" font-family="Helvetica, Arial, sans-serif" font-size="16.00" fill="#000000">population that</text>
<text text-anchor="start" x="86.9609" y="-206.7" font-family="Helvetica, Arial, sans-serif" font-size="16.00" fill="#000000">live in rural</text>
<text text-anchor="start" x="109.9609" y="-188.7" font-family="Helvetica, Arial, sans-serif" font-size="16.00" fill="#000000">areas</text>
<polyline fill="none" stroke="#000000" points="62.4609,-177.5 201.4609,-177.5 "/>
<text text-anchor="start" x="72.9609" y="-160.8" font-family="Helvetica, Arial, sans-serif" font-size="14.00" fill="#000000">effect: -2.086***</text>
<text text-anchor="start" x="88.9609" y="-144.8" font-family="Helvetica, Arial, sans-serif" font-size="14.00" fill="#000000">error: 0.244</text>
</g>
<!-- acl_pprt_evnt_m -->
<g id="node8" class="node rankC">
<title>acl_pprt_evnt_m</title>
<path fill="none" stroke="#000000" d="M185.9609,-100C185.9609,-100 77.9609,-100 77.9609,-100 71.9609,-100 65.9609,-94 65.9609,-88 65.9609,-88 65.9609,-62 65.9609,-62 65.9609,-56 71.9609,-50 77.9609,-50 77.9609,-50 185.9609,-50 185.9609,-50 191.9609,-50 197.9609,-56 197.9609,-62 197.9609,-62 197.9609,-88 197.9609,-88 197.9609,-94 191.9609,-100 185.9609,-100"/>
<text text-anchor="middle" x="131.9609" y="-80.2" font-family="Helvetica, Arial, sans-serif" font-size="16.00" fill="#000000">Total number of</text>
<text text-anchor="middle" x="131.9609" y="-62.2" font-family="Helvetica, Arial, sans-serif" font-size="16.00" fill="#000000">protest events</text>
</g>
<!-- rurratio_s&#45;&gt;acl_pprt_evnt_m -->
<g id="edge1" class="edge">
<title>rurratio_s-&gt;acl_pprt_evnt_m</title>
<path fill="none" stroke="#666666" stroke-width="2" d="M131.9609,-136.2735C131.9609,-128.0382 131.9609,-119.8201 131.9609,-112.2003"/>
<polygon fill="#666666" stroke="#666666" stroke-width="2" points="136.161,-112.0442 131.9609,-100.0443 127.761,-112.0443 136.161,-112.0442"/>
</g>
<!-- et_anom_m_STD_m -->
<g id="node2" class="node rankB">
<title>et_anom_m_STD_m</title>
<path fill="none" stroke="#000000" d="M59.9609,-441.5C59.9609,-441.5 203.9609,-441.5 203.9609,-441.5 209.9609,-441.5 215.9609,-447.5 215.9609,-453.5 215.9609,-453.5 215.9609,-502.5 215.9609,-502.5 215.9609,-508.5 209.9609,-514.5 203.9609,-514.5 203.9609,-514.5 59.9609,-514.5 59.9609,-514.5 53.9609,-514.5 47.9609,-508.5 47.9609,-502.5 47.9609,-502.5 47.9609,-453.5 47.9609,-453.5 47.9609,-447.5 53.9609,-441.5 59.9609,-441.5"/>
<text text-anchor="start" x="86.9609" y="-495.7" font-family="Helvetica, Arial, sans-serif" font-size="16.00" fill="#000000">Variation in</text>
<text text-anchor="start" x="56.9609" y="-477.7" font-family="Helvetica, Arial, sans-serif" font-size="16.00" fill="#000000">evapotranspiration</text>
<polyline fill="none" stroke="#000000" points="47.9609,-466.5 215.9609,-466.5 "/>
<text text-anchor="start" x="64.9609" y="-449.8" font-family="Helvetica, Arial, sans-serif" font-size="14.00" fill="#000000">effect: Inestimable</text>
</g>
<!-- et_anom_m_STD_m&#45;&gt;rurratio_s -->
<g id="edge2" class="edge">
<title>et_anom_m_STD_m-&gt;rurratio_s</title>
<path fill="none" stroke="#666666" stroke-width="2" d="M63.9659,-441.469C30.3618,-417.9387 -1.9116,-384.085 3.9609,-343"/>
</g>
<!-- ndvi_act_min_m -->
<g id="node3" class="node rankB">
<title>ndvi_act_min_m</title>
<path fill="none" stroke="#000000" d="M87.9609,-298.5C87.9609,-298.5 175.9609,-298.5 175.9609,-298.5 181.9609,-298.5 187.9609,-304.5 187.9609,-310.5 187.9609,-310.5 187.9609,-375.5 187.9609,-375.5 187.9609,-381.5 181.9609,-387.5 175.9609,-387.5 175.9609,-387.5 87.9609,-387.5 87.9609,-387.5 81.9609,-387.5 75.9609,-381.5 75.9609,-375.5 75.9609,-375.5 75.9609,-310.5 75.9609,-310.5 75.9609,-304.5 81.9609,-298.5 87.9609,-298.5"/>
<text text-anchor="start" x="91.9609" y="-368.7" font-family="Helvetica, Arial, sans-serif" font-size="16.00" fill="#000000">Density of</text>
<text text-anchor="start" x="90.9609" y="-350.7" font-family="Helvetica, Arial, sans-serif" font-size="16.00" fill="#000000">greenness</text>
<polyline fill="none" stroke="#000000" points="75.9609,-339.5 187.9609,-339.5 "/>
<text text-anchor="start" x="83.9609" y="-322.8" font-family="Helvetica, Arial, sans-serif" font-size="14.00" fill="#000000">effect: -0.176</text>
<text text-anchor="start" x="88.9609" y="-306.8" font-family="Helvetica, Arial, sans-serif" font-size="14.00" fill="#000000">error: 0.125</text>
</g>
<!-- et_anom_m_STD_m&#45;&gt;ndvi_act_min_m -->
<g id="edge3" class="edge">
<title>et_anom_m_STD_m-&gt;ndvi_act_min_m</title>
<path fill="none" stroke="#666666" stroke-width="2" d="M131.9609,-441.4671C131.9609,-428.6631 131.9609,-413.9613 131.9609,-399.8903"/>
<polygon fill="#666666" stroke="#666666" stroke-width="2" points="136.161,-399.7509 131.9609,-387.7509 127.761,-399.7509 136.161,-399.7509"/>
</g>
<!-- ndvi_act_min_m&#45;&gt;rurratio_s -->
<g id="edge4" class="edge">
<title>ndvi_act_min_m-&gt;rurratio_s</title>
<path fill="none" stroke="#666666" stroke-width="2" d="M131.9609,-298.2269C131.9609,-290.4609 131.9609,-282.1994 131.9609,-273.8864"/>
<polygon fill="#666666" stroke="#666666" stroke-width="2" points="136.161,-273.7219 131.9609,-261.722 127.761,-273.722 136.161,-273.7219"/>
</g>
<!-- yield_gap_maize_s -->
<g id="node7" class="node rankB">
<title>yield_gap_maize_s</title>
<path fill="none" stroke="#000000" d="M379.9609,-144.5C379.9609,-144.5 505.9609,-144.5 505.9609,-144.5 511.9609,-144.5 517.9609,-150.5 517.9609,-156.5 517.9609,-156.5 517.9609,-241.5 517.9609,-241.5 517.9609,-247.5 511.9609,-253.5 505.9609,-253.5 505.9609,-253.5 379.9609,-253.5 379.9609,-253.5 373.9609,-253.5 367.9609,-247.5 367.9609,-241.5 367.9609,-241.5 367.9609,-156.5 367.9609,-156.5 367.9609,-150.5 373.9609,-144.5 379.9609,-144.5"/>
<text text-anchor="start" x="390.9609" y="-234.7" font-family="Helvetica, Arial, sans-serif" font-size="16.00" fill="#000000">Gap between</text>
<text text-anchor="start" x="389.4609" y="-216.7" font-family="Helvetica, Arial, sans-serif" font-size="16.00" fill="#000000">observed and</text>
<text text-anchor="start" x="387.9609" y="-198.7" font-family="Helvetica, Arial, sans-serif" font-size="16.00" fill="#000000">potential corn</text>
<text text-anchor="start" x="424.4609" y="-180.7" font-family="Helvetica, Arial, sans-serif" font-size="16.00" fill="#000000">yield</text>
<polyline fill="none" stroke="#000000" points="367.9609,-169.5 517.9609,-169.5 "/>
<text text-anchor="start" x="375.9609" y="-152.8" font-family="Helvetica, Arial, sans-serif" font-size="14.00" fill="#000000">effect: Inestimable</text>
</g>
<!-- ndvi_act_min_m&#45;&gt;yield_gap_maize_s -->
<g id="edge5" class="edge">
<title>ndvi_act_min_m-&gt;yield_gap_maize_s</title>
<path fill="none" stroke="#666666" stroke-width="2" d="M188.2807,-316.9227C235.2799,-295.161 303.0253,-263.7933 356.8321,-238.8796"/>
<polygon fill="#666666" stroke="#666666" stroke-width="2" points="358.6185,-242.6809 367.7431,-233.8275 355.0891,-235.0583 358.6185,-242.6809"/>
</g>
<!-- spi_3_m -->
<g id="node4" class="node rankA">
<title>spi_3_m</title>
<path fill="none" stroke="#000000" d="M15.4609,-569.5C15.4609,-569.5 120.4609,-569.5 120.4609,-569.5 126.4609,-569.5 132.4609,-575.5 132.4609,-581.5 132.4609,-581.5 132.4609,-646.5 132.4609,-646.5 132.4609,-652.5 126.4609,-658.5 120.4609,-658.5 120.4609,-658.5 15.4609,-658.5 15.4609,-658.5 9.4609,-658.5 3.4609,-652.5 3.4609,-646.5 3.4609,-646.5 3.4609,-581.5 3.4609,-581.5 3.4609,-575.5 9.4609,-569.5 15.4609,-569.5"/>
<text text-anchor="start" x="22.4609" y="-639.7" font-family="Helvetica, Arial, sans-serif" font-size="16.00" fill="#000000">Variation of</text>
<text text-anchor="start" x="17.9609" y="-621.7" font-family="Helvetica, Arial, sans-serif" font-size="16.00" fill="#000000">precipitation</text>
<polyline fill="none" stroke="#000000" points="3.4609,-610.5 132.4609,-610.5 "/>
<text text-anchor="start" x="11.9609" y="-593.8" font-family="Helvetica, Arial, sans-serif" font-size="14.00" fill="#000000">effect: 0.703***</text>
<text text-anchor="start" x="25.4609" y="-577.8" font-family="Helvetica, Arial, sans-serif" font-size="14.00" fill="#000000">error: 0.232</text>
</g>
<!-- spi_3_m&#45;&gt;rurratio_s -->
<g id="edge6" class="edge">
<title>spi_3_m-&gt;rurratio_s</title>
<path fill="none" stroke="#666666" stroke-width="2" d="M34.7996,-569.2339C19.1722,-543.808 3.9145,-510.6185 3.9609,-478"/>
<path fill="none" stroke="#666666" stroke-width="2" d="M3.9609,-478C4.0464,-418.0001 -4.529,-402.3963 3.9609,-343"/>
<path fill="none" stroke="#666666" stroke-width="2" d="M3.9609,-343C8.7453,-309.5281 29.709,-280.0376 53.3288,-256.6032"/>
<polygon fill="#666666" stroke="#666666" stroke-width="2" points="56.3177,-259.5569 62.1259,-248.2474 50.5327,-253.4664 56.3177,-259.5569"/>
</g>
<!-- spi_3_m&#45;&gt;et_anom_m_STD_m -->
<g id="edge7" class="edge">
<title>spi_3_m-&gt;et_anom_m_STD_m</title>
<path fill="none" stroke="#666666" stroke-width="2" d="M88.9169,-569.4685C95.4755,-555.5316 102.7395,-540.0956 109.4034,-525.9348"/>
<polygon fill="#666666" stroke="#666666" stroke-width="2" points="113.2848,-527.5506 114.5941,-514.9044 105.6843,-523.9739 113.2848,-527.5506"/>
</g>
<!-- spi_3_m&#45;&gt;ndvi_act_min_m -->
<g id="edge8" class="edge">
<title>spi_3_m-&gt;ndvi_act_min_m</title>
<path fill="none" stroke="#666666" stroke-width="2" d="M3.9609,-478C4.0185,-437.6361 34.525,-404.5086 65.7375,-381.1718"/>
<polygon fill="#666666" stroke="#666666" stroke-width="2" points="68.5352,-384.3349 75.8586,-373.9421 63.6526,-377.4996 68.5352,-384.3349"/>
</g>
<!-- rainfed_s -->
<g id="node5" class="node rankB">
<title>rainfed_s</title>
<path fill="none" stroke="#000000" d="M257.4609,-424.5C257.4609,-424.5 386.4609,-424.5 386.4609,-424.5 392.4609,-424.5 398.4609,-430.5 398.4609,-436.5 398.4609,-436.5 398.4609,-519.5 398.4609,-519.5 398.4609,-525.5 392.4609,-531.5 386.4609,-531.5 386.4609,-531.5 257.4609,-531.5 257.4609,-531.5 251.4609,-531.5 245.4609,-525.5 245.4609,-519.5 245.4609,-519.5 245.4609,-436.5 245.4609,-436.5 245.4609,-430.5 251.4609,-424.5 257.4609,-424.5"/>
<text text-anchor="start" x="267.4609" y="-512.7" font-family="Helvetica, Arial, sans-serif" font-size="16.00" fill="#000000">Percentage of</text>
<text text-anchor="start" x="254.9609" y="-494.7" font-family="Helvetica, Arial, sans-serif" font-size="16.00" fill="#000000">crops grown that</text>
<text text-anchor="start" x="278.4609" y="-476.7" font-family="Helvetica, Arial, sans-serif" font-size="16.00" fill="#000000">are rainfed</text>
<polyline fill="none" stroke="#000000" points="245.4609,-465.5 398.4609,-465.5 "/>
<text text-anchor="start" x="273.9609" y="-448.8" font-family="Helvetica, Arial, sans-serif" font-size="14.00" fill="#000000">effect: -0.168</text>
<text text-anchor="start" x="278.9609" y="-432.8" font-family="Helvetica, Arial, sans-serif" font-size="14.00" fill="#000000">error: 0.099</text>
</g>
<!-- rainfed_s&#45;&gt;ndvi_act_min_m -->
<g id="edge9" class="edge">
<title>rainfed_s-&gt;ndvi_act_min_m</title>
<path fill="none" stroke="#666666" stroke-width="2" d="M246.595,-424.4505C230.6169,-413.0976 213.8639,-401.1942 198.2524,-390.1019"/>
<polygon fill="#666666" stroke="#666666" stroke-width="2" points="200.3928,-386.4704 188.178,-382.9437 195.5275,-393.318 200.3928,-386.4704"/>
</g>
<!-- spam_P_i_sum_s -->
<g id="node6" class="node rankB">
<title>spam_P_i_sum_s</title>
<path fill="none" stroke="#000000" d="M258.9609,-568.5C258.9609,-568.5 384.9609,-568.5 384.9609,-568.5 390.9609,-568.5 396.9609,-574.5 396.9609,-580.5 396.9609,-580.5 396.9609,-647.5 396.9609,-647.5 396.9609,-653.5 390.9609,-659.5 384.9609,-659.5 384.9609,-659.5 258.9609,-659.5 258.9609,-659.5 252.9609,-659.5 246.9609,-653.5 246.9609,-647.5 246.9609,-647.5 246.9609,-580.5 246.9609,-580.5 246.9609,-574.5 252.9609,-568.5 258.9609,-568.5"/>
<text text-anchor="start" x="267.9609" y="-640.7" font-family="Helvetica, Arial, sans-serif" font-size="16.00" fill="#000000">Metric tons of</text>
<text text-anchor="start" x="263.9609" y="-622.7" font-family="Helvetica, Arial, sans-serif" font-size="16.00" fill="#000000">irrigated crops</text>
<text text-anchor="start" x="284.9609" y="-604.7" font-family="Helvetica, Arial, sans-serif" font-size="16.00" fill="#000000">produced</text>
<polyline fill="none" stroke="#000000" points="246.9609,-593.5 396.9609,-593.5 "/>
<text text-anchor="start" x="254.9609" y="-576.8" font-family="Helvetica, Arial, sans-serif" font-size="14.00" fill="#000000">effect: Inestimable</text>
</g>
<!-- spam_P_i_sum_s&#45;&gt;rurratio_s -->
<g id="edge11" class="edge">
<title>spam_P_i_sum_s-&gt;rurratio_s</title>
<path fill="none" stroke="#666666" stroke-width="2" d="M384.5574,-568.213C395.5486,-557.4861 405.7565,-545.2696 412.9609,-532 453.5423,-457.2542 477.0105,-420.9385 442.9609,-343"/>
<path fill="none" stroke="#666666" stroke-width="2" d="M442.9609,-343C424.5252,-297.1484 299.0678,-250.1702 213.2406,-222.8334"/>
<polygon fill="#666666" stroke="#666666" stroke-width="2" points="214.3783,-218.7884 201.6708,-219.1902 211.8553,-226.8005 214.3783,-218.7884"/>
</g>
<!-- spam_P_i_sum_s&#45;&gt;et_anom_m_STD_m -->
<g id="edge12" class="edge">
<title>spam_P_i_sum_s-&gt;et_anom_m_STD_m</title>
<path fill="none" stroke="#666666" stroke-width="2" d="M258.1651,-568.3356C237.1344,-553.2821 213.8085,-536.5856 192.9895,-521.6836"/>
<polygon fill="#666666" stroke="#666666" stroke-width="2" points="195.1941,-518.0966 182.9916,-514.5272 190.3049,-524.9271 195.1941,-518.0966"/>
</g>
<!-- spam_P_i_sum_s&#45;&gt;rainfed_s -->
<g id="edge13" class="edge">
<title>spam_P_i_sum_s-&gt;rainfed_s</title>
<path fill="none" stroke="#666666" stroke-width="2" d="M321.9609,-556.2386C321.9609,-552.1825 321.9609,-548.0767 321.9609,-543.9806"/>
<polygon fill="#666666" stroke="#666666" stroke-width="2" points="317.761,-556.3356 321.9609,-568.3356 326.161,-556.3357 317.761,-556.3356"/>
<polygon fill="#666666" stroke="#666666" stroke-width="2" points="326.161,-543.7813 321.9609,-531.7813 317.761,-543.7813 326.161,-543.7813"/>
</g>
<!-- spam_P_i_sum_s&#45;&gt;yield_gap_maize_s -->
<g id="edge14" class="edge">
<title>spam_P_i_sum_s-&gt;yield_gap_maize_s</title>
<path fill="none" stroke="#666666" stroke-width="2" d="M442.9609,-343C432.5537,-319.1781 430.601,-290.95 431.9517,-265.8257"/>
<polygon fill="#666666" stroke="#666666" stroke-width="2" points="436.1463,-266.0553 432.8576,-253.7742 427.7699,-265.4256 436.1463,-266.0553"/>
</g>
</g>
<style>.node path {
  stroke: #fff;
}
.node text {
  fill: #fff;
}
.node polyline {
  stroke: #fff;
}
.rankA path {
  fill: #1b6002;
}
.rankB path {
  fill: #437387;
}
.rankC path {
  fill: #2e3348;
}
</style></svg>
