<?xml version="1.0" encoding="UTF-8" standalone="no"?>
<!DOCTYPE svg PUBLIC "-//W3C//DTD SVG 1.1//EN" "http://www.w3.org/Graphics/SVG/1.1/DTD/svg11.dtd">
<!-- Generated by graphviz version 2.40.1 (20161225.0304)
 -->
<!-- Title: causalModel Pages: 1 -->
<svg xmlns="http://www.w3.org/2000/svg" xmlns:xlink="http://www.w3.org/1999/xlink" width="" height="" viewBox="0.00 0.00 527.00 667.00" preserveAspectRatio="xMinYMin">
<g id="graph0" class="graph" transform="scale(1 1) rotate(0) translate(4 663)">
<title>causalModel</title>
<polygon fill="#ffffff" stroke="transparent" points="-4,4 -4,-663 523,-663 523,4 -4,4"/>
<text text-anchor="middle" x="259.5" y="-7.8" font-family="Helvetica, Arial, sans-serif" font-size="14.00" fill="#000000">Causal Model: North America</text>
<!-- rurratio_s -->
<g id="node1" class="node rankB">
<title>rurratio_s</title>
<path fill="none" stroke="#000000" d="M86,-119.5C86,-119.5 201,-119.5 201,-119.5 207,-119.5 213,-125.5 213,-131.5 213,-131.5 213,-232.5 213,-232.5 213,-238.5 207,-244.5 201,-244.5 201,-244.5 86,-244.5 86,-244.5 80,-244.5 74,-238.5 74,-232.5 74,-232.5 74,-131.5 74,-131.5 74,-125.5 80,-119.5 86,-119.5"/>
<text text-anchor="start" x="89" y="-225.7" font-family="Helvetica, Arial, sans-serif" font-size="16.00" fill="#000000">Percentage of</text>
<text text-anchor="start" x="83.5" y="-207.7" font-family="Helvetica, Arial, sans-serif" font-size="16.00" fill="#000000">population that</text>
<text text-anchor="start" x="98.5" y="-189.7" font-family="Helvetica, Arial, sans-serif" font-size="16.00" fill="#000000">live in rural</text>
<text text-anchor="start" x="121.5" y="-171.7" font-family="Helvetica, Arial, sans-serif" font-size="16.00" fill="#000000">areas</text>
<polyline fill="none" stroke="#000000" points="74,-160.5 213,-160.5 "/>
<text text-anchor="start" x="95.5" y="-143.8" font-family="Helvetica, Arial, sans-serif" font-size="14.00" fill="#000000">effect: -2.086</text>
<text text-anchor="start" x="100.5" y="-127.8" font-family="Helvetica, Arial, sans-serif" font-size="14.00" fill="#000000">error: 0.244</text>
</g>
<!-- acl_pprt_evnt_m -->
<g id="node8" class="node rankC">
<title>acl_pprt_evnt_m</title>
<path fill="none" stroke="#000000" d="M200.5,-83C200.5,-83 86.5,-83 86.5,-83 80.5,-83 74.5,-77 74.5,-71 74.5,-71 74.5,-51 74.5,-51 74.5,-45 80.5,-39 86.5,-39 86.5,-39 200.5,-39 200.5,-39 206.5,-39 212.5,-45 212.5,-51 212.5,-51 212.5,-71 212.5,-71 212.5,-77 206.5,-83 200.5,-83"/>
<text text-anchor="middle" x="143.5" y="-66.2" font-family="Helvetica, Arial, sans-serif" font-size="16.00" fill="#000000">Total number of</text>
<text text-anchor="middle" x="143.5" y="-48.2" font-family="Helvetica, Arial, sans-serif" font-size="16.00" fill="#000000">protest events</text>
</g>
<!-- rurratio_s&#45;&gt;acl_pprt_evnt_m -->
<g id="edge1" class="edge">
<title>rurratio_s-&gt;acl_pprt_evnt_m</title>
<path fill="none" stroke="#000000" stroke-width="2" d="M143.5,-119.3734C143.5,-111.0245 143.5,-102.7297 143.5,-95.126"/>
<polygon fill="#000000" stroke="#000000" stroke-width="2" points="147.7001,-95.0943 143.5,-83.0943 139.3001,-95.0943 147.7001,-95.0943"/>
</g>
<!-- et_anom_m_STD_m -->
<g id="node2" class="node rankB">
<title>et_anom_m_STD_m</title>
<path fill="none" stroke="#000000" d="M71.5,-428C71.5,-428 215.5,-428 215.5,-428 221.5,-428 227.5,-434 227.5,-440 227.5,-440 227.5,-482 227.5,-482 227.5,-488 221.5,-494 215.5,-494 215.5,-494 71.5,-494 71.5,-494 65.5,-494 59.5,-488 59.5,-482 59.5,-482 59.5,-440 59.5,-440 59.5,-434 65.5,-428 71.5,-428"/>
<text text-anchor="start" x="98.5" y="-475.2" font-family="Helvetica, Arial, sans-serif" font-size="16.00" fill="#000000">Variation in</text>
<text text-anchor="start" x="68.5" y="-457.2" font-family="Helvetica, Arial, sans-serif" font-size="16.00" fill="#000000">evapotranspiration</text>
<text text-anchor="start" x="110" y="-439.2" font-family="Helvetica, Arial, sans-serif" font-size="16.00" fill="#000000">patterns</text>
</g>
<!-- et_anom_m_STD_m&#45;&gt;rurratio_s -->
<g id="edge2" class="edge">
<title>et_anom_m_STD_m-&gt;rurratio_s</title>
<path fill="none" stroke="#000000" stroke-width="2" d="M80.6098,-427.9601C45.2635,-404.3451 9.3304,-369.1632 15.5,-326"/>
</g>
<!-- ndvi_act_min_m -->
<g id="node3" class="node rankB">
<title>ndvi_act_min_m</title>
<path fill="none" stroke="#000000" d="M99.5,-281.5C99.5,-281.5 187.5,-281.5 187.5,-281.5 193.5,-281.5 199.5,-287.5 199.5,-293.5 199.5,-293.5 199.5,-358.5 199.5,-358.5 199.5,-364.5 193.5,-370.5 187.5,-370.5 187.5,-370.5 99.5,-370.5 99.5,-370.5 93.5,-370.5 87.5,-364.5 87.5,-358.5 87.5,-358.5 87.5,-293.5 87.5,-293.5 87.5,-287.5 93.5,-281.5 99.5,-281.5"/>
<text text-anchor="start" x="103.5" y="-351.7" font-family="Helvetica, Arial, sans-serif" font-size="16.00" fill="#000000">Density of</text>
<text text-anchor="start" x="102.5" y="-333.7" font-family="Helvetica, Arial, sans-serif" font-size="16.00" fill="#000000">greenness</text>
<polyline fill="none" stroke="#000000" points="87.5,-322.5 199.5,-322.5 "/>
<text text-anchor="start" x="95.5" y="-305.8" font-family="Helvetica, Arial, sans-serif" font-size="14.00" fill="#000000">effect: -0.176</text>
<text text-anchor="start" x="100.5" y="-289.8" font-family="Helvetica, Arial, sans-serif" font-size="14.00" fill="#000000">error: 0.125</text>
</g>
<!-- et_anom_m_STD_m&#45;&gt;ndvi_act_min_m -->
<g id="edge3" class="edge">
<title>et_anom_m_STD_m-&gt;ndvi_act_min_m</title>
<path fill="none" stroke="#000000" stroke-width="2" d="M143.5,-427.9753C143.5,-414.363 143.5,-398.1938 143.5,-382.7884"/>
<polygon fill="#000000" stroke="#000000" stroke-width="2" points="147.7001,-382.6608 143.5,-370.6609 139.3001,-382.6609 147.7001,-382.6608"/>
</g>
<!-- ndvi_act_min_m&#45;&gt;rurratio_s -->
<g id="edge4" class="edge">
<title>ndvi_act_min_m-&gt;rurratio_s</title>
<path fill="none" stroke="#000000" stroke-width="2" d="M143.5,-281.2269C143.5,-273.4609 143.5,-265.1994 143.5,-256.8864"/>
<polygon fill="#000000" stroke="#000000" stroke-width="2" points="147.7001,-256.7219 143.5,-244.722 139.3001,-256.722 147.7001,-256.7219"/>
</g>
<!-- yield_gap_maize_s -->
<g id="node7" class="node rankB">
<title>yield_gap_maize_s</title>
<path fill="none" stroke="#000000" d="M402,-140C402,-140 507,-140 507,-140 513,-140 519,-146 519,-152 519,-152 519,-212 519,-212 519,-218 513,-224 507,-224 507,-224 402,-224 402,-224 396,-224 390,-218 390,-212 390,-212 390,-152 390,-152 390,-146 396,-140 402,-140"/>
<text text-anchor="start" x="402.5" y="-205.2" font-family="Helvetica, Arial, sans-serif" font-size="16.00" fill="#000000">Gap between</text>
<text text-anchor="start" x="401" y="-187.2" font-family="Helvetica, Arial, sans-serif" font-size="16.00" fill="#000000">observed and</text>
<text text-anchor="start" x="399.5" y="-169.2" font-family="Helvetica, Arial, sans-serif" font-size="16.00" fill="#000000">potential corn</text>
<text text-anchor="start" x="436" y="-151.2" font-family="Helvetica, Arial, sans-serif" font-size="16.00" fill="#000000">yield</text>
</g>
<!-- ndvi_act_min_m&#45;&gt;yield_gap_maize_s -->
<g id="edge5" class="edge">
<title>ndvi_act_min_m-&gt;yield_gap_maize_s</title>
<path fill="none" stroke="#000000" stroke-width="2" d="M199.8198,-299.9227C249.8485,-276.7582 323.3843,-242.7095 378.5933,-217.1465"/>
<polygon fill="#000000" stroke="#000000" stroke-width="2" points="380.6047,-220.8436 389.7293,-211.9903 377.0752,-213.2211 380.6047,-220.8436"/>
</g>
<!-- spi_3_m -->
<g id="node4" class="node rankA">
<title>spi_3_m</title>
<path fill="none" stroke="#000000" d="M12,-551.5C12,-551.5 147,-551.5 147,-551.5 153,-551.5 159,-557.5 159,-563.5 159,-563.5 159,-646.5 159,-646.5 159,-652.5 153,-658.5 147,-658.5 147,-658.5 12,-658.5 12,-658.5 6,-658.5 0,-652.5 0,-646.5 0,-646.5 0,-563.5 0,-563.5 0,-557.5 6,-551.5 12,-551.5"/>
<text text-anchor="start" x="34.5" y="-639.7" font-family="Helvetica, Arial, sans-serif" font-size="16.00" fill="#000000">Variation of</text>
<text text-anchor="start" x="9.5" y="-621.7" font-family="Helvetica, Arial, sans-serif" font-size="16.00" fill="#000000">precipitation over</text>
<text text-anchor="start" x="19" y="-603.7" font-family="Helvetica, Arial, sans-serif" font-size="16.00" fill="#000000">3-month period</text>
<polyline fill="none" stroke="#000000" points="0,-592.5 159,-592.5 "/>
<text text-anchor="start" x="34.5" y="-575.8" font-family="Helvetica, Arial, sans-serif" font-size="14.00" fill="#000000">effect: 0.703</text>
<text text-anchor="start" x="37" y="-559.8" font-family="Helvetica, Arial, sans-serif" font-size="14.00" fill="#000000">error: 0.232</text>
</g>
<!-- spi_3_m&#45;&gt;rurratio_s -->
<g id="edge6" class="edge">
<title>spi_3_m-&gt;rurratio_s</title>
<path fill="none" stroke="#000000" stroke-width="2" d="M42.6648,-551.3759C28.216,-525.2742 15.1118,-492.7328 15.5,-461"/>
<path fill="none" stroke="#000000" stroke-width="2" d="M15.5,-461C16.234,-401.0045 7.0101,-385.3963 15.5,-326"/>
<path fill="none" stroke="#000000" stroke-width="2" d="M15.5,-326C20.2844,-292.5281 41.2481,-263.0376 64.8678,-239.6032"/>
<polygon fill="#000000" stroke="#000000" stroke-width="2" points="67.8567,-242.5569 73.665,-231.2474 62.0717,-236.4664 67.8567,-242.5569"/>
</g>
<!-- spi_3_m&#45;&gt;et_anom_m_STD_m -->
<g id="edge7" class="edge">
<title>spi_3_m-&gt;et_anom_m_STD_m</title>
<path fill="none" stroke="#000000" stroke-width="2" d="M103.3312,-551.3797C110.0615,-536.2367 117.3084,-519.9311 123.769,-505.3947"/>
<polygon fill="#000000" stroke="#000000" stroke-width="2" points="127.7211,-506.8436 128.7569,-494.1721 120.0451,-503.432 127.7211,-506.8436"/>
</g>
<!-- spi_3_m&#45;&gt;ndvi_act_min_m -->
<g id="edge8" class="edge">
<title>spi_3_m-&gt;ndvi_act_min_m</title>
<path fill="none" stroke="#000000" stroke-width="2" d="M15.5,-461C15.992,-420.7848 46.2907,-387.7509 77.2826,-364.4273"/>
<polygon fill="#000000" stroke="#000000" stroke-width="2" points="80.0428,-367.6156 87.3323,-357.199 75.138,-360.7962 80.0428,-367.6156"/>
</g>
<!-- rainfed_s -->
<g id="node5" class="node rankB">
<title>rainfed_s</title>
<path fill="none" stroke="#000000" d="M269,-407.5C269,-407.5 398,-407.5 398,-407.5 404,-407.5 410,-413.5 410,-419.5 410,-419.5 410,-502.5 410,-502.5 410,-508.5 404,-514.5 398,-514.5 398,-514.5 269,-514.5 269,-514.5 263,-514.5 257,-508.5 257,-502.5 257,-502.5 257,-419.5 257,-419.5 257,-413.5 263,-407.5 269,-407.5"/>
<text text-anchor="start" x="279" y="-495.7" font-family="Helvetica, Arial, sans-serif" font-size="16.00" fill="#000000">Percentage of</text>
<text text-anchor="start" x="266.5" y="-477.7" font-family="Helvetica, Arial, sans-serif" font-size="16.00" fill="#000000">crops grown that</text>
<text text-anchor="start" x="290" y="-459.7" font-family="Helvetica, Arial, sans-serif" font-size="16.00" fill="#000000">are rainfed</text>
<polyline fill="none" stroke="#000000" points="257,-448.5 410,-448.5 "/>
<text text-anchor="start" x="285.5" y="-431.8" font-family="Helvetica, Arial, sans-serif" font-size="14.00" fill="#000000">effect: -0.168</text>
<text text-anchor="start" x="290.5" y="-415.8" font-family="Helvetica, Arial, sans-serif" font-size="14.00" fill="#000000">error: 0.099</text>
</g>
<!-- rainfed_s&#45;&gt;ndvi_act_min_m -->
<g id="edge9" class="edge">
<title>rainfed_s-&gt;ndvi_act_min_m</title>
<path fill="none" stroke="#000000" stroke-width="2" d="M258.1341,-407.4505C242.1559,-396.0976 225.4029,-384.1942 209.7915,-373.1019"/>
<polygon fill="#000000" stroke="#000000" stroke-width="2" points="211.9319,-369.4704 199.717,-365.9437 207.0665,-376.318 211.9319,-369.4704"/>
</g>
<!-- spam_P_i_sum_s -->
<g id="node6" class="node rankB">
<title>spam_P_i_sum_s</title>
<path fill="none" stroke="#000000" d="M278,-572C278,-572 389,-572 389,-572 395,-572 401,-578 401,-584 401,-584 401,-626 401,-626 401,-632 395,-638 389,-638 389,-638 278,-638 278,-638 272,-638 266,-632 266,-626 266,-626 266,-584 266,-584 266,-578 272,-572 278,-572"/>
<text text-anchor="start" x="279.5" y="-619.2" font-family="Helvetica, Arial, sans-serif" font-size="16.00" fill="#000000">Metric tons of</text>
<text text-anchor="start" x="275.5" y="-601.2" font-family="Helvetica, Arial, sans-serif" font-size="16.00" fill="#000000">irrigated crops</text>
<text text-anchor="start" x="296.5" y="-583.2" font-family="Helvetica, Arial, sans-serif" font-size="16.00" fill="#000000">produced</text>
</g>
<!-- spam_P_i_sum_s&#45;&gt;rurratio_s -->
<g id="edge11" class="edge">
<title>spam_P_i_sum_s-&gt;rurratio_s</title>
<path fill="none" stroke="#000000" stroke-width="2" d="M377.6445,-571.789C394.9688,-556.4203 413.3397,-536.7455 424.5,-515 463.3346,-439.332 488.5496,-403.9385 454.5,-326"/>
<path fill="none" stroke="#000000" stroke-width="2" d="M454.5,-326C436.0643,-280.1484 310.6069,-233.1702 224.7796,-205.8334"/>
<polygon fill="#000000" stroke="#000000" stroke-width="2" points="225.9173,-201.7884 213.2099,-202.1902 223.3944,-209.8005 225.9173,-201.7884"/>
</g>
<!-- spam_P_i_sum_s&#45;&gt;et_anom_m_STD_m -->
<g id="edge12" class="edge">
<title>spam_P_i_sum_s-&gt;et_anom_m_STD_m</title>
<path fill="none" stroke="#000000" stroke-width="2" d="M289.9102,-571.9635C262.2507,-551.0005 226.2708,-523.7315 196.9009,-501.4722"/>
<polygon fill="#000000" stroke="#000000" stroke-width="2" points="199.3161,-498.0328 187.2156,-494.1318 194.2424,-504.7274 199.3161,-498.0328"/>
</g>
<!-- spam_P_i_sum_s&#45;&gt;rainfed_s -->
<g id="edge13" class="edge">
<title>spam_P_i_sum_s-&gt;rainfed_s</title>
<path fill="none" stroke="#000000" stroke-width="2" d="M333.5,-559.8856C333.5,-549.3787 333.5,-537.9798 333.5,-526.783"/>
<polygon fill="#000000" stroke="#000000" stroke-width="2" points="329.3001,-559.9635 333.5,-571.9635 337.7001,-559.9635 329.3001,-559.9635"/>
<polygon fill="#000000" stroke="#000000" stroke-width="2" points="337.7001,-526.7642 333.5,-514.7643 329.3001,-526.7643 337.7001,-526.7642"/>
</g>
<!-- spam_P_i_sum_s&#45;&gt;yield_gap_maize_s -->
<g id="edge14" class="edge">
<title>spam_P_i_sum_s-&gt;yield_gap_maize_s</title>
<path fill="none" stroke="#000000" stroke-width="2" d="M454.5,-326C442.2943,-298.0616 441.7177,-264.0627 444.4604,-236.1179"/>
<polygon fill="#000000" stroke="#000000" stroke-width="2" points="448.6375,-236.5576 445.8691,-224.1489 440.2951,-235.5756 448.6375,-236.5576"/>
</g>
</g>
<style>.node path {
  stroke: #fff;
}
.node text {
  fill: #fff;
}
.node polyline {
  stroke: #fff;
}
.rankA path {
  fill: #2e3348;
}
.rankB path {
  fill: #437387;
}
.rankC path {
  fill: #1b6002;
}
.edge path {
  stroke: #666;
};
</style></svg>
