<?xml version="1.0" encoding="UTF-8" standalone="no"?>
<!DOCTYPE svg PUBLIC "-//W3C//DTD SVG 1.1//EN" "http://www.w3.org/Graphics/SVG/1.1/DTD/svg11.dtd">
<!-- Generated by graphviz version 2.40.1 (20161225.0304)
 -->
<!-- Title: causalModel Pages: 1 -->
<svg xmlns="http://www.w3.org/2000/svg" xmlns:xlink="http://www.w3.org/1999/xlink" width="" height="" viewBox="0.00 0.00 525.96 649.00" preserveAspectRatio="xMinYMin">
<g id="graph0" class="graph" transform="scale(1 1) rotate(0) translate(4 645)">
<title>causalModel</title>
<polygon fill="#ffffff" stroke="transparent" points="-4,4 -4,-645 521.9609,-645 521.9609,4 -4,4"/>
<text text-anchor="start" x="139.9805" y="-10.3" font-family="Helvetica, Arial, sans-serif" font-weight="bold" font-size="14.00" fill="#000000">Causal Model: North America</text>
<!-- rurratio_s -->
<g id="node1" class="node rankB">
<title>rurratio_s</title>
<path fill="none" stroke="#000000" d="M74.4609,-117.5C74.4609,-117.5 189.4609,-117.5 189.4609,-117.5 195.4609,-117.5 201.4609,-123.5 201.4609,-129.5 201.4609,-129.5 201.4609,-230.5 201.4609,-230.5 201.4609,-236.5 195.4609,-242.5 189.4609,-242.5 189.4609,-242.5 74.4609,-242.5 74.4609,-242.5 68.4609,-242.5 62.4609,-236.5 62.4609,-230.5 62.4609,-230.5 62.4609,-129.5 62.4609,-129.5 62.4609,-123.5 68.4609,-117.5 74.4609,-117.5"/>
<text text-anchor="start" x="77.4609" y="-223.7" font-family="Helvetica, Arial, sans-serif" font-size="16.00" fill="#000000">Percentage of</text>
<text text-anchor="start" x="71.9609" y="-205.7" font-family="Helvetica, Arial, sans-serif" font-size="16.00" fill="#000000">population that</text>
<text text-anchor="start" x="86.9609" y="-187.7" font-family="Helvetica, Arial, sans-serif" font-size="16.00" fill="#000000">live in rural</text>
<text text-anchor="start" x="109.9609" y="-169.7" font-family="Helvetica, Arial, sans-serif" font-size="16.00" fill="#000000">areas</text>
<polyline fill="none" stroke="#000000" points="62.4609,-158.5 201.4609,-158.5 "/>
<text text-anchor="start" x="83.9609" y="-141.8" font-family="Helvetica, Arial, sans-serif" font-size="14.00" fill="#000000">effect: -2.086</text>
<text text-anchor="start" x="88.9609" y="-125.8" font-family="Helvetica, Arial, sans-serif" font-size="14.00" fill="#000000">error: 0.244</text>
</g>
<!-- acl_pprt_evnt_m -->
<g id="node8" class="node rankC">
<title>acl_pprt_evnt_m</title>
<path fill="none" stroke="#000000" d="M185.9609,-81C185.9609,-81 77.9609,-81 77.9609,-81 71.9609,-81 65.9609,-75 65.9609,-69 65.9609,-69 65.9609,-43 65.9609,-43 65.9609,-37 71.9609,-31 77.9609,-31 77.9609,-31 185.9609,-31 185.9609,-31 191.9609,-31 197.9609,-37 197.9609,-43 197.9609,-43 197.9609,-69 197.9609,-69 197.9609,-75 191.9609,-81 185.9609,-81"/>
<text text-anchor="middle" x="131.9609" y="-61.2" font-family="Helvetica, Arial, sans-serif" font-size="16.00" fill="#000000">Total number of</text>
<text text-anchor="middle" x="131.9609" y="-43.2" font-family="Helvetica, Arial, sans-serif" font-size="16.00" fill="#000000">protest events</text>
</g>
<!-- rurratio_s&#45;&gt;acl_pprt_evnt_m -->
<g id="edge1" class="edge">
<title>rurratio_s-&gt;acl_pprt_evnt_m</title>
<path fill="none" stroke="#666666" stroke-width="2" d="M131.9609,-117.2735C131.9609,-109.0382 131.9609,-100.8201 131.9609,-93.2003"/>
<polygon fill="#666666" stroke="#666666" stroke-width="2" points="136.161,-93.0442 131.9609,-81.0443 127.761,-93.0443 136.161,-93.0442"/>
</g>
<!-- et_anom_m_STD_m -->
<g id="node2" class="node rankB">
<title>et_anom_m_STD_m</title>
<path fill="none" stroke="#000000" d="M59.9609,-422.5C59.9609,-422.5 203.9609,-422.5 203.9609,-422.5 209.9609,-422.5 215.9609,-428.5 215.9609,-434.5 215.9609,-434.5 215.9609,-483.5 215.9609,-483.5 215.9609,-489.5 209.9609,-495.5 203.9609,-495.5 203.9609,-495.5 59.9609,-495.5 59.9609,-495.5 53.9609,-495.5 47.9609,-489.5 47.9609,-483.5 47.9609,-483.5 47.9609,-434.5 47.9609,-434.5 47.9609,-428.5 53.9609,-422.5 59.9609,-422.5"/>
<text text-anchor="start" x="86.9609" y="-476.7" font-family="Helvetica, Arial, sans-serif" font-size="16.00" fill="#000000">Variation in</text>
<text text-anchor="start" x="56.9609" y="-458.7" font-family="Helvetica, Arial, sans-serif" font-size="16.00" fill="#000000">evapotranspiration</text>
<polyline fill="none" stroke="#000000" points="47.9609,-447.5 215.9609,-447.5 "/>
<text text-anchor="start" x="64.9609" y="-430.8" font-family="Helvetica, Arial, sans-serif" font-size="14.00" fill="#000000">effect: Inestimable</text>
</g>
<!-- et_anom_m_STD_m&#45;&gt;rurratio_s -->
<g id="edge2" class="edge">
<title>et_anom_m_STD_m-&gt;rurratio_s</title>
<path fill="none" stroke="#666666" stroke-width="2" d="M63.9659,-422.469C30.3618,-398.9387 -1.9116,-365.085 3.9609,-324"/>
</g>
<!-- ndvi_act_min_m -->
<g id="node3" class="node rankB">
<title>ndvi_act_min_m</title>
<path fill="none" stroke="#000000" d="M87.9609,-279.5C87.9609,-279.5 175.9609,-279.5 175.9609,-279.5 181.9609,-279.5 187.9609,-285.5 187.9609,-291.5 187.9609,-291.5 187.9609,-356.5 187.9609,-356.5 187.9609,-362.5 181.9609,-368.5 175.9609,-368.5 175.9609,-368.5 87.9609,-368.5 87.9609,-368.5 81.9609,-368.5 75.9609,-362.5 75.9609,-356.5 75.9609,-356.5 75.9609,-291.5 75.9609,-291.5 75.9609,-285.5 81.9609,-279.5 87.9609,-279.5"/>
<text text-anchor="start" x="91.9609" y="-349.7" font-family="Helvetica, Arial, sans-serif" font-size="16.00" fill="#000000">Density of</text>
<text text-anchor="start" x="90.9609" y="-331.7" font-family="Helvetica, Arial, sans-serif" font-size="16.00" fill="#000000">greenness</text>
<polyline fill="none" stroke="#000000" points="75.9609,-320.5 187.9609,-320.5 "/>
<text text-anchor="start" x="83.9609" y="-303.8" font-family="Helvetica, Arial, sans-serif" font-size="14.00" fill="#000000">effect: -0.176</text>
<text text-anchor="start" x="88.9609" y="-287.8" font-family="Helvetica, Arial, sans-serif" font-size="14.00" fill="#000000">error: 0.125</text>
</g>
<!-- et_anom_m_STD_m&#45;&gt;ndvi_act_min_m -->
<g id="edge3" class="edge">
<title>et_anom_m_STD_m-&gt;ndvi_act_min_m</title>
<path fill="none" stroke="#666666" stroke-width="2" d="M131.9609,-422.4671C131.9609,-409.6631 131.9609,-394.9613 131.9609,-380.8903"/>
<polygon fill="#666666" stroke="#666666" stroke-width="2" points="136.161,-380.7509 131.9609,-368.7509 127.761,-380.7509 136.161,-380.7509"/>
</g>
<!-- ndvi_act_min_m&#45;&gt;rurratio_s -->
<g id="edge4" class="edge">
<title>ndvi_act_min_m-&gt;rurratio_s</title>
<path fill="none" stroke="#666666" stroke-width="2" d="M131.9609,-279.2269C131.9609,-271.4609 131.9609,-263.1994 131.9609,-254.8864"/>
<polygon fill="#666666" stroke="#666666" stroke-width="2" points="136.161,-254.7219 131.9609,-242.722 127.761,-254.722 136.161,-254.7219"/>
</g>
<!-- yield_gap_maize_s -->
<g id="node7" class="node rankB">
<title>yield_gap_maize_s</title>
<path fill="none" stroke="#000000" d="M379.9609,-125.5C379.9609,-125.5 505.9609,-125.5 505.9609,-125.5 511.9609,-125.5 517.9609,-131.5 517.9609,-137.5 517.9609,-137.5 517.9609,-222.5 517.9609,-222.5 517.9609,-228.5 511.9609,-234.5 505.9609,-234.5 505.9609,-234.5 379.9609,-234.5 379.9609,-234.5 373.9609,-234.5 367.9609,-228.5 367.9609,-222.5 367.9609,-222.5 367.9609,-137.5 367.9609,-137.5 367.9609,-131.5 373.9609,-125.5 379.9609,-125.5"/>
<text text-anchor="start" x="390.9609" y="-215.7" font-family="Helvetica, Arial, sans-serif" font-size="16.00" fill="#000000">Gap between</text>
<text text-anchor="start" x="389.4609" y="-197.7" font-family="Helvetica, Arial, sans-serif" font-size="16.00" fill="#000000">observed and</text>
<text text-anchor="start" x="387.9609" y="-179.7" font-family="Helvetica, Arial, sans-serif" font-size="16.00" fill="#000000">potential corn</text>
<text text-anchor="start" x="424.4609" y="-161.7" font-family="Helvetica, Arial, sans-serif" font-size="16.00" fill="#000000">yield</text>
<polyline fill="none" stroke="#000000" points="367.9609,-150.5 517.9609,-150.5 "/>
<text text-anchor="start" x="375.9609" y="-133.8" font-family="Helvetica, Arial, sans-serif" font-size="14.00" fill="#000000">effect: Inestimable</text>
</g>
<!-- ndvi_act_min_m&#45;&gt;yield_gap_maize_s -->
<g id="edge5" class="edge">
<title>ndvi_act_min_m-&gt;yield_gap_maize_s</title>
<path fill="none" stroke="#666666" stroke-width="2" d="M188.2807,-297.9227C235.2799,-276.161 303.0253,-244.7933 356.8321,-219.8796"/>
<polygon fill="#666666" stroke="#666666" stroke-width="2" points="358.6185,-223.6809 367.7431,-214.8275 355.0891,-216.0583 358.6185,-223.6809"/>
</g>
<!-- spi_3_m -->
<g id="node4" class="node rankA">
<title>spi_3_m</title>
<path fill="none" stroke="#000000" d="M20.9609,-550.5C20.9609,-550.5 114.9609,-550.5 114.9609,-550.5 120.9609,-550.5 126.9609,-556.5 126.9609,-562.5 126.9609,-562.5 126.9609,-627.5 126.9609,-627.5 126.9609,-633.5 120.9609,-639.5 114.9609,-639.5 114.9609,-639.5 20.9609,-639.5 20.9609,-639.5 14.9609,-639.5 8.9609,-633.5 8.9609,-627.5 8.9609,-627.5 8.9609,-562.5 8.9609,-562.5 8.9609,-556.5 14.9609,-550.5 20.9609,-550.5"/>
<text text-anchor="start" x="22.4609" y="-620.7" font-family="Helvetica, Arial, sans-serif" font-size="16.00" fill="#000000">Variation of</text>
<text text-anchor="start" x="17.9609" y="-602.7" font-family="Helvetica, Arial, sans-serif" font-size="16.00" fill="#000000">precipitation</text>
<polyline fill="none" stroke="#000000" points="8.9609,-591.5 126.9609,-591.5 "/>
<text text-anchor="start" x="22.9609" y="-574.8" font-family="Helvetica, Arial, sans-serif" font-size="14.00" fill="#000000">effect: 0.703</text>
<text text-anchor="start" x="25.4609" y="-558.8" font-family="Helvetica, Arial, sans-serif" font-size="14.00" fill="#000000">error: 0.232</text>
</g>
<!-- spi_3_m&#45;&gt;rurratio_s -->
<g id="edge6" class="edge">
<title>spi_3_m-&gt;rurratio_s</title>
<path fill="none" stroke="#666666" stroke-width="2" d="M34.7996,-550.2339C19.1722,-524.808 3.9145,-491.6185 3.9609,-459"/>
<path fill="none" stroke="#666666" stroke-width="2" d="M3.9609,-459C4.0464,-399.0001 -4.529,-383.3963 3.9609,-324"/>
<path fill="none" stroke="#666666" stroke-width="2" d="M3.9609,-324C8.7453,-290.5281 29.709,-261.0376 53.3288,-237.6032"/>
<polygon fill="#666666" stroke="#666666" stroke-width="2" points="56.3177,-240.5569 62.1259,-229.2474 50.5327,-234.4664 56.3177,-240.5569"/>
</g>
<!-- spi_3_m&#45;&gt;et_anom_m_STD_m -->
<g id="edge7" class="edge">
<title>spi_3_m-&gt;et_anom_m_STD_m</title>
<path fill="none" stroke="#666666" stroke-width="2" d="M88.9169,-550.4685C95.4755,-536.5316 102.7395,-521.0956 109.4034,-506.9348"/>
<polygon fill="#666666" stroke="#666666" stroke-width="2" points="113.2848,-508.5506 114.5941,-495.9044 105.6843,-504.9739 113.2848,-508.5506"/>
</g>
<!-- spi_3_m&#45;&gt;ndvi_act_min_m -->
<g id="edge8" class="edge">
<title>spi_3_m-&gt;ndvi_act_min_m</title>
<path fill="none" stroke="#666666" stroke-width="2" d="M3.9609,-459C4.0185,-418.6361 34.525,-385.5086 65.7375,-362.1718"/>
<polygon fill="#666666" stroke="#666666" stroke-width="2" points="68.5352,-365.3349 75.8586,-354.9421 63.6526,-358.4996 68.5352,-365.3349"/>
</g>
<!-- rainfed_s -->
<g id="node5" class="node rankB">
<title>rainfed_s</title>
<path fill="none" stroke="#000000" d="M257.4609,-405.5C257.4609,-405.5 386.4609,-405.5 386.4609,-405.5 392.4609,-405.5 398.4609,-411.5 398.4609,-417.5 398.4609,-417.5 398.4609,-500.5 398.4609,-500.5 398.4609,-506.5 392.4609,-512.5 386.4609,-512.5 386.4609,-512.5 257.4609,-512.5 257.4609,-512.5 251.4609,-512.5 245.4609,-506.5 245.4609,-500.5 245.4609,-500.5 245.4609,-417.5 245.4609,-417.5 245.4609,-411.5 251.4609,-405.5 257.4609,-405.5"/>
<text text-anchor="start" x="267.4609" y="-493.7" font-family="Helvetica, Arial, sans-serif" font-size="16.00" fill="#000000">Percentage of</text>
<text text-anchor="start" x="254.9609" y="-475.7" font-family="Helvetica, Arial, sans-serif" font-size="16.00" fill="#000000">crops grown that</text>
<text text-anchor="start" x="278.4609" y="-457.7" font-family="Helvetica, Arial, sans-serif" font-size="16.00" fill="#000000">are rainfed</text>
<polyline fill="none" stroke="#000000" points="245.4609,-446.5 398.4609,-446.5 "/>
<text text-anchor="start" x="273.9609" y="-429.8" font-family="Helvetica, Arial, sans-serif" font-size="14.00" fill="#000000">effect: -0.168</text>
<text text-anchor="start" x="278.9609" y="-413.8" font-family="Helvetica, Arial, sans-serif" font-size="14.00" fill="#000000">error: 0.099</text>
</g>
<!-- rainfed_s&#45;&gt;ndvi_act_min_m -->
<g id="edge9" class="edge">
<title>rainfed_s-&gt;ndvi_act_min_m</title>
<path fill="none" stroke="#666666" stroke-width="2" d="M246.595,-405.4505C230.6169,-394.0976 213.8639,-382.1942 198.2524,-371.1019"/>
<polygon fill="#666666" stroke="#666666" stroke-width="2" points="200.3928,-367.4704 188.178,-363.9437 195.5275,-374.318 200.3928,-367.4704"/>
</g>
<!-- spam_P_i_sum_s -->
<g id="node6" class="node rankB">
<title>spam_P_i_sum_s</title>
<path fill="none" stroke="#000000" d="M258.9609,-549.5C258.9609,-549.5 384.9609,-549.5 384.9609,-549.5 390.9609,-549.5 396.9609,-555.5 396.9609,-561.5 396.9609,-561.5 396.9609,-628.5 396.9609,-628.5 396.9609,-634.5 390.9609,-640.5 384.9609,-640.5 384.9609,-640.5 258.9609,-640.5 258.9609,-640.5 252.9609,-640.5 246.9609,-634.5 246.9609,-628.5 246.9609,-628.5 246.9609,-561.5 246.9609,-561.5 246.9609,-555.5 252.9609,-549.5 258.9609,-549.5"/>
<text text-anchor="start" x="267.9609" y="-621.7" font-family="Helvetica, Arial, sans-serif" font-size="16.00" fill="#000000">Metric tons of</text>
<text text-anchor="start" x="263.9609" y="-603.7" font-family="Helvetica, Arial, sans-serif" font-size="16.00" fill="#000000">irrigated crops</text>
<text text-anchor="start" x="284.9609" y="-585.7" font-family="Helvetica, Arial, sans-serif" font-size="16.00" fill="#000000">produced</text>
<polyline fill="none" stroke="#000000" points="246.9609,-574.5 396.9609,-574.5 "/>
<text text-anchor="start" x="254.9609" y="-557.8" font-family="Helvetica, Arial, sans-serif" font-size="14.00" fill="#000000">effect: Inestimable</text>
</g>
<!-- spam_P_i_sum_s&#45;&gt;rurratio_s -->
<g id="edge11" class="edge">
<title>spam_P_i_sum_s-&gt;rurratio_s</title>
<path fill="none" stroke="#666666" stroke-width="2" d="M384.5574,-549.213C395.5486,-538.4861 405.7565,-526.2696 412.9609,-513 453.5423,-438.2542 477.0105,-401.9385 442.9609,-324"/>
<path fill="none" stroke="#666666" stroke-width="2" d="M442.9609,-324C424.5252,-278.1484 299.0678,-231.1702 213.2406,-203.8334"/>
<polygon fill="#666666" stroke="#666666" stroke-width="2" points="214.3783,-199.7884 201.6708,-200.1902 211.8553,-207.8005 214.3783,-199.7884"/>
</g>
<!-- spam_P_i_sum_s&#45;&gt;et_anom_m_STD_m -->
<g id="edge12" class="edge">
<title>spam_P_i_sum_s-&gt;et_anom_m_STD_m</title>
<path fill="none" stroke="#666666" stroke-width="2" d="M258.1651,-549.3356C237.1344,-534.2821 213.8085,-517.5856 192.9895,-502.6836"/>
<polygon fill="#666666" stroke="#666666" stroke-width="2" points="195.1941,-499.0966 182.9916,-495.5272 190.3049,-505.9271 195.1941,-499.0966"/>
</g>
<!-- spam_P_i_sum_s&#45;&gt;rainfed_s -->
<g id="edge13" class="edge">
<title>spam_P_i_sum_s-&gt;rainfed_s</title>
<path fill="none" stroke="#666666" stroke-width="2" d="M321.9609,-537.2386C321.9609,-533.1825 321.9609,-529.0767 321.9609,-524.9806"/>
<polygon fill="#666666" stroke="#666666" stroke-width="2" points="317.761,-537.3356 321.9609,-549.3356 326.161,-537.3357 317.761,-537.3356"/>
<polygon fill="#666666" stroke="#666666" stroke-width="2" points="326.161,-524.7813 321.9609,-512.7813 317.761,-524.7813 326.161,-524.7813"/>
</g>
<!-- spam_P_i_sum_s&#45;&gt;yield_gap_maize_s -->
<g id="edge14" class="edge">
<title>spam_P_i_sum_s-&gt;yield_gap_maize_s</title>
<path fill="none" stroke="#666666" stroke-width="2" d="M442.9609,-324C432.5537,-300.1781 430.601,-271.95 431.9517,-246.8257"/>
<polygon fill="#666666" stroke="#666666" stroke-width="2" points="436.1463,-247.0553 432.8576,-234.7742 427.7699,-246.4256 436.1463,-247.0553"/>
</g>
</g>
<style>.node path {
  stroke: #fff;
}
.node text {
  fill: #fff;
}
.node polyline {
  stroke: #fff;
}
.rankA path {
  fill: #1b6002;
}
.rankB path {
  fill: #437387;
}
.rankC path {
  fill: #2e3348;
}
</style></svg>
