<?xml version="1.0" encoding="UTF-8" standalone="no"?>
<!DOCTYPE svg PUBLIC "-//W3C//DTD SVG 1.1//EN" "http://www.w3.org/Graphics/SVG/1.1/DTD/svg11.dtd">
<!-- Generated by graphviz version 2.40.1 (20161225.0304)
 -->
<!-- Title: causalModel Pages: 1 -->
<svg xmlns="http://www.w3.org/2000/svg" xmlns:xlink="http://www.w3.org/1999/xlink" width="" height="" viewBox="0.00 0.00 515.00 628.00" preserveAspectRatio="xMinYMin">
<g id="graph0" class="graph" transform="scale(1 1) rotate(0) translate(4 624)">
<title>causalModel</title>
<polygon fill="#ffffff" stroke="transparent" points="-4,4 -4,-624 511,-624 511,4 -4,4"/>
<!-- rurratio_s -->
<g id="node1" class="node rankB">
<title>rurratio_s</title>
<path fill="none" stroke="#000000" d="M85,-80.5C85,-80.5 196,-80.5 196,-80.5 202,-80.5 208,-86.5 208,-92.5 208,-92.5 208,-193.5 208,-193.5 208,-199.5 202,-205.5 196,-205.5 196,-205.5 85,-205.5 85,-205.5 79,-205.5 73,-199.5 73,-193.5 73,-193.5 73,-92.5 73,-92.5 73,-86.5 79,-80.5 85,-80.5"/>
<text text-anchor="start" x="86" y="-186.7" font-family="Helvetica, Arial, sans-serif" font-size="16.00" fill="#000000">Percentage of</text>
<text text-anchor="start" x="80.5" y="-168.7" font-family="Helvetica, Arial, sans-serif" font-size="16.00" fill="#000000">population that</text>
<text text-anchor="start" x="95.5" y="-150.7" font-family="Helvetica, Arial, sans-serif" font-size="16.00" fill="#000000">live in rural</text>
<text text-anchor="start" x="118.5" y="-132.7" font-family="Helvetica, Arial, sans-serif" font-size="16.00" fill="#000000">areas</text>
<polyline fill="none" stroke="#000000" points="73,-121.5 208,-121.5 "/>
<text text-anchor="start" x="92.5" y="-104.8" font-family="Helvetica, Arial, sans-serif" font-size="14.00" fill="#000000">effect: -2.086</text>
<text text-anchor="start" x="97.5" y="-88.8" font-family="Helvetica, Arial, sans-serif" font-size="14.00" fill="#000000">error: 0.244</text>
</g>
<!-- acl_pprt_evnt_m -->
<g id="node2" class="node rankC">
<title>acl_pprt_evnt_m</title>
<path fill="none" stroke="#000000" d="M195.5,-44C195.5,-44 85.5,-44 85.5,-44 79.5,-44 73.5,-38 73.5,-32 73.5,-32 73.5,-12 73.5,-12 73.5,-6 79.5,0 85.5,0 85.5,0 195.5,0 195.5,0 201.5,0 207.5,-6 207.5,-12 207.5,-12 207.5,-32 207.5,-32 207.5,-38 201.5,-44 195.5,-44"/>
<text text-anchor="middle" x="140.5" y="-27.2" font-family="Helvetica, Arial, sans-serif" font-size="16.00" fill="#000000">Total number of</text>
<text text-anchor="middle" x="140.5" y="-9.2" font-family="Helvetica, Arial, sans-serif" font-size="16.00" fill="#000000">protest events</text>
</g>
<!-- rurratio_s&#45;&gt;acl_pprt_evnt_m -->
<g id="edge1" class="edge">
<title>rurratio_s-&gt;acl_pprt_evnt_m</title>
<path fill="none" stroke="#000000" stroke-width="2" d="M140.5,-80.3734C140.5,-72.0245 140.5,-63.7297 140.5,-56.126"/>
<polygon fill="#000000" stroke="#000000" stroke-width="2" points="144.7001,-56.0943 140.5,-44.0943 136.3001,-56.0943 144.7001,-56.0943"/>
</g>
<!-- et_anom_m_STD_m -->
<g id="node3" class="node rankB">
<title>et_anom_m_STD_m</title>
<path fill="none" stroke="#000000" d="M70.5,-389C70.5,-389 210.5,-389 210.5,-389 216.5,-389 222.5,-395 222.5,-401 222.5,-401 222.5,-443 222.5,-443 222.5,-449 216.5,-455 210.5,-455 210.5,-455 70.5,-455 70.5,-455 64.5,-455 58.5,-449 58.5,-443 58.5,-443 58.5,-401 58.5,-401 58.5,-395 64.5,-389 70.5,-389"/>
<text text-anchor="start" x="95.5" y="-436.2" font-family="Helvetica, Arial, sans-serif" font-size="16.00" fill="#000000">Variation in</text>
<text text-anchor="start" x="65.5" y="-418.2" font-family="Helvetica, Arial, sans-serif" font-size="16.00" fill="#000000">evapotranspiration</text>
<text text-anchor="start" x="107" y="-400.2" font-family="Helvetica, Arial, sans-serif" font-size="16.00" fill="#000000">patterns</text>
</g>
<!-- et_anom_m_STD_m&#45;&gt;rurratio_s -->
<g id="edge2" class="edge">
<title>et_anom_m_STD_m-&gt;rurratio_s</title>
<path fill="none" stroke="#000000" stroke-width="2" d="M78.5834,-388.7506C43.7857,-365.0496 8.4133,-329.8506 14.5,-287"/>
</g>
<!-- ndvi_act_min_m -->
<g id="node4" class="node rankB">
<title>ndvi_act_min_m</title>
<path fill="none" stroke="#000000" d="M98.5,-242.5C98.5,-242.5 182.5,-242.5 182.5,-242.5 188.5,-242.5 194.5,-248.5 194.5,-254.5 194.5,-254.5 194.5,-319.5 194.5,-319.5 194.5,-325.5 188.5,-331.5 182.5,-331.5 182.5,-331.5 98.5,-331.5 98.5,-331.5 92.5,-331.5 86.5,-325.5 86.5,-319.5 86.5,-319.5 86.5,-254.5 86.5,-254.5 86.5,-248.5 92.5,-242.5 98.5,-242.5"/>
<text text-anchor="start" x="100.5" y="-312.7" font-family="Helvetica, Arial, sans-serif" font-size="16.00" fill="#000000">Density of</text>
<text text-anchor="start" x="99.5" y="-294.7" font-family="Helvetica, Arial, sans-serif" font-size="16.00" fill="#000000">greenness</text>
<polyline fill="none" stroke="#000000" points="86.5,-283.5 194.5,-283.5 "/>
<text text-anchor="start" x="92.5" y="-266.8" font-family="Helvetica, Arial, sans-serif" font-size="14.00" fill="#000000">effect: -0.176</text>
<text text-anchor="start" x="97.5" y="-250.8" font-family="Helvetica, Arial, sans-serif" font-size="14.00" fill="#000000">error: 0.125</text>
</g>
<!-- et_anom_m_STD_m&#45;&gt;ndvi_act_min_m -->
<g id="edge3" class="edge">
<title>et_anom_m_STD_m-&gt;ndvi_act_min_m</title>
<path fill="none" stroke="#000000" stroke-width="2" d="M140.5,-388.9753C140.5,-375.363 140.5,-359.1938 140.5,-343.7884"/>
<polygon fill="#000000" stroke="#000000" stroke-width="2" points="144.7001,-343.6608 140.5,-331.6609 136.3001,-343.6609 144.7001,-343.6608"/>
</g>
<!-- ndvi_act_min_m&#45;&gt;rurratio_s -->
<g id="edge4" class="edge">
<title>ndvi_act_min_m-&gt;rurratio_s</title>
<path fill="none" stroke="#000000" stroke-width="2" d="M140.5,-242.2269C140.5,-234.4609 140.5,-226.1994 140.5,-217.8864"/>
<polygon fill="#000000" stroke="#000000" stroke-width="2" points="144.7001,-217.7219 140.5,-205.722 136.3001,-217.722 144.7001,-217.7219"/>
</g>
<!-- yield_gap_maize_s -->
<g id="node5" class="node rankB">
<title>yield_gap_maize_s</title>
<path fill="none" stroke="#000000" d="M394,-101C394,-101 495,-101 495,-101 501,-101 507,-107 507,-113 507,-113 507,-173 507,-173 507,-179 501,-185 495,-185 495,-185 394,-185 394,-185 388,-185 382,-179 382,-173 382,-173 382,-113 382,-113 382,-107 388,-101 394,-101"/>
<text text-anchor="start" x="392.5" y="-166.2" font-family="Helvetica, Arial, sans-serif" font-size="16.00" fill="#000000">Gap between</text>
<text text-anchor="start" x="391" y="-148.2" font-family="Helvetica, Arial, sans-serif" font-size="16.00" fill="#000000">observed and</text>
<text text-anchor="start" x="389.5" y="-130.2" font-family="Helvetica, Arial, sans-serif" font-size="16.00" fill="#000000">potential corn</text>
<text text-anchor="start" x="426" y="-112.2" font-family="Helvetica, Arial, sans-serif" font-size="16.00" fill="#000000">yield</text>
</g>
<!-- ndvi_act_min_m&#45;&gt;yield_gap_maize_s -->
<g id="edge5" class="edge">
<title>ndvi_act_min_m-&gt;yield_gap_maize_s</title>
<path fill="none" stroke="#000000" stroke-width="2" d="M194.8491,-261.2557C243.9802,-237.983 316.7162,-203.5292 371.02,-177.8063"/>
<polygon fill="#000000" stroke="#000000" stroke-width="2" points="372.9205,-181.5535 381.9673,-172.6207 369.3245,-173.9621 372.9205,-181.5535"/>
</g>
<!-- spi_3_m -->
<g id="node6" class="node rankA">
<title>spi_3_m</title>
<path fill="none" stroke="#000000" d="M12,-512.5C12,-512.5 143,-512.5 143,-512.5 149,-512.5 155,-518.5 155,-524.5 155,-524.5 155,-607.5 155,-607.5 155,-613.5 149,-619.5 143,-619.5 143,-619.5 12,-619.5 12,-619.5 6,-619.5 0,-613.5 0,-607.5 0,-607.5 0,-524.5 0,-524.5 0,-518.5 6,-512.5 12,-512.5"/>
<text text-anchor="start" x="32.5" y="-600.7" font-family="Helvetica, Arial, sans-serif" font-size="16.00" fill="#000000">Variation of</text>
<text text-anchor="start" x="7.5" y="-582.7" font-family="Helvetica, Arial, sans-serif" font-size="16.00" fill="#000000">precipitation over</text>
<text text-anchor="start" x="17" y="-564.7" font-family="Helvetica, Arial, sans-serif" font-size="16.00" fill="#000000">3-month period</text>
<polyline fill="none" stroke="#000000" points="0,-553.5 155,-553.5 "/>
<text text-anchor="start" x="32.5" y="-536.8" font-family="Helvetica, Arial, sans-serif" font-size="14.00" fill="#000000">effect: 0.703</text>
<text text-anchor="start" x="35" y="-520.8" font-family="Helvetica, Arial, sans-serif" font-size="14.00" fill="#000000">error: 0.232</text>
</g>
<!-- spi_3_m&#45;&gt;rurratio_s -->
<g id="edge6" class="edge">
<title>spi_3_m-&gt;rurratio_s</title>
<path fill="none" stroke="#000000" stroke-width="2" d="M41.2394,-512.303C27.0161,-486.1854 14.1167,-453.6516 14.5,-422"/>
<path fill="none" stroke="#000000" stroke-width="2" d="M14.5,-422C15.2265,-362.0044 6.062,-346.4037 14.5,-287"/>
<path fill="none" stroke="#000000" stroke-width="2" d="M14.5,-287C19.2849,-253.3144 40.4097,-223.5332 64.0337,-199.9242"/>
<polygon fill="#000000" stroke="#000000" stroke-width="2" points="67.06,-202.8414 72.8247,-191.5096 61.2517,-196.7732 67.06,-202.8414"/>
</g>
<!-- spi_3_m&#45;&gt;et_anom_m_STD_m -->
<g id="edge7" class="edge">
<title>spi_3_m-&gt;et_anom_m_STD_m</title>
<path fill="none" stroke="#000000" stroke-width="2" d="M100.9589,-512.3797C107.584,-497.2367 114.7176,-480.9311 121.0773,-466.3947"/>
<polygon fill="#000000" stroke="#000000" stroke-width="2" points="125.0252,-467.8494 125.9872,-455.1721 117.3295,-464.4825 125.0252,-467.8494"/>
</g>
<!-- spi_3_m&#45;&gt;ndvi_act_min_m -->
<g id="edge8" class="edge">
<title>spi_3_m-&gt;ndvi_act_min_m</title>
<path fill="none" stroke="#000000" stroke-width="2" d="M14.5,-422C14.9886,-381.647 45.4605,-348.338 76.3115,-324.9022"/>
<polygon fill="#000000" stroke="#000000" stroke-width="2" points="79.0634,-328.0944 86.3038,-317.6437 74.1266,-321.2982 79.0634,-328.0944"/>
</g>
<!-- rainfed_s -->
<g id="node7" class="node rankB">
<title>rainfed_s</title>
<path fill="none" stroke="#000000" d="M264,-368.5C264,-368.5 389,-368.5 389,-368.5 395,-368.5 401,-374.5 401,-380.5 401,-380.5 401,-463.5 401,-463.5 401,-469.5 395,-475.5 389,-475.5 389,-475.5 264,-475.5 264,-475.5 258,-475.5 252,-469.5 252,-463.5 252,-463.5 252,-380.5 252,-380.5 252,-374.5 258,-368.5 264,-368.5"/>
<text text-anchor="start" x="272" y="-456.7" font-family="Helvetica, Arial, sans-serif" font-size="16.00" fill="#000000">Percentage of</text>
<text text-anchor="start" x="259.5" y="-438.7" font-family="Helvetica, Arial, sans-serif" font-size="16.00" fill="#000000">crops grown that</text>
<text text-anchor="start" x="283" y="-420.7" font-family="Helvetica, Arial, sans-serif" font-size="16.00" fill="#000000">are rainfed</text>
<polyline fill="none" stroke="#000000" points="252,-409.5 401,-409.5 "/>
<text text-anchor="start" x="278.5" y="-392.8" font-family="Helvetica, Arial, sans-serif" font-size="14.00" fill="#000000">effect: -0.168</text>
<text text-anchor="start" x="283.5" y="-376.8" font-family="Helvetica, Arial, sans-serif" font-size="14.00" fill="#000000">error: 0.099</text>
</g>
<!-- rainfed_s&#45;&gt;ndvi_act_min_m -->
<g id="edge9" class="edge">
<title>rainfed_s-&gt;ndvi_act_min_m</title>
<path fill="none" stroke="#000000" stroke-width="2" d="M252.7207,-368.4505C236.8294,-356.9165 220.155,-344.8141 204.6651,-333.5715"/>
<polygon fill="#000000" stroke="#000000" stroke-width="2" points="206.8559,-329.9719 194.6772,-326.3222 201.9218,-336.77 206.8559,-329.9719"/>
</g>
<!-- spam_P_i_sum_s -->
<g id="node8" class="node rankB">
<title>spam_P_i_sum_s</title>
<path fill="none" stroke="#000000" d="M273,-533C273,-533 380,-533 380,-533 386,-533 392,-539 392,-545 392,-545 392,-587 392,-587 392,-593 386,-599 380,-599 380,-599 273,-599 273,-599 267,-599 261,-593 261,-587 261,-587 261,-545 261,-545 261,-539 267,-533 273,-533"/>
<text text-anchor="start" x="272.5" y="-580.2" font-family="Helvetica, Arial, sans-serif" font-size="16.00" fill="#000000">Metric tons of</text>
<text text-anchor="start" x="268.5" y="-562.2" font-family="Helvetica, Arial, sans-serif" font-size="16.00" fill="#000000">irrigated crops</text>
<text text-anchor="start" x="289.5" y="-544.2" font-family="Helvetica, Arial, sans-serif" font-size="16.00" fill="#000000">produced</text>
</g>
<!-- spam_P_i_sum_s&#45;&gt;rurratio_s -->
<g id="edge11" class="edge">
<title>spam_P_i_sum_s-&gt;rurratio_s</title>
<path fill="none" stroke="#000000" stroke-width="2" d="M369.7264,-532.6415C386.6788,-517.2479 404.6384,-497.5944 415.5,-476 453.6867,-400.0796 478.0794,-365.0676 444.5,-287"/>
<path fill="none" stroke="#000000" stroke-width="2" d="M444.5,-287C426.6537,-241.8757 303.8713,-194.6549 219.9127,-167.0749"/>
<polygon fill="#000000" stroke="#000000" stroke-width="2" points="221.049,-163.028 208.3385,-163.3158 218.4543,-171.0172 221.049,-163.028"/>
</g>
<!-- spam_P_i_sum_s&#45;&gt;et_anom_m_STD_m -->
<g id="edge12" class="edge">
<title>spam_P_i_sum_s-&gt;et_anom_m_STD_m</title>
<path fill="none" stroke="#000000" stroke-width="2" d="M283.8278,-532.9635C256.8684,-512.0916 221.8343,-484.9685 193.152,-462.7628"/>
<polygon fill="#000000" stroke="#000000" stroke-width="2" points="195.3551,-459.1569 183.2953,-455.1318 190.2128,-465.799 195.3551,-459.1569"/>
</g>
<!-- spam_P_i_sum_s&#45;&gt;yield_gap_maize_s -->
<g id="edge14" class="edge">
<title>spam_P_i_sum_s-&gt;yield_gap_maize_s</title>
<path fill="none" stroke="#000000" stroke-width="2" d="M444.5,-287C432.4532,-258.9927 431.8841,-224.9906 434.5911,-197.0612"/>
<polygon fill="#000000" stroke="#000000" stroke-width="2" points="438.7677,-197.5049 435.9815,-185.1002 430.4239,-196.5349 438.7677,-197.5049"/>
</g>
<!-- spam_P_i_sum_s&#45;&gt;rainfed_s -->
<g id="edge13" class="edge">
<title>spam_P_i_sum_s-&gt;rainfed_s</title>
<path fill="none" stroke="#000000" stroke-width="2" d="M326.5,-520.8856C326.5,-510.3787 326.5,-498.9798 326.5,-487.783"/>
<polygon fill="#000000" stroke="#000000" stroke-width="2" points="322.3001,-520.9635 326.5,-532.9635 330.7001,-520.9635 322.3001,-520.9635"/>
<polygon fill="#000000" stroke="#000000" stroke-width="2" points="330.7001,-487.7642 326.5,-475.7643 322.3001,-487.7643 330.7001,-487.7642"/>
</g>
</g>
<style>.node path {
  stroke: #fff;
}
.node text {
  fill: #fff;
}
.node polyline {
  stroke: #fff;
}
.rankA path {
  fill: #2e3348;
}
.rankB path {
  fill: #437387;
}
.rankC path {
  fill: #1b6002;
}
.edge path {
  stroke: #666;
};
</style></svg>
