<?xml version="1.0" encoding="UTF-8" standalone="no"?>
<!DOCTYPE svg PUBLIC "-//W3C//DTD SVG 1.1//EN" "http://www.w3.org/Graphics/SVG/1.1/DTD/svg11.dtd">
<!-- Generated by graphviz version 2.40.1 (20161225.0304)
 -->
<!-- Title: causalModel Pages: 1 -->
<svg xmlns="http://www.w3.org/2000/svg" xmlns:xlink="http://www.w3.org/1999/xlink" width="" height="" viewBox="0.00 0.00 515.48 655.00" preserveAspectRatio="xMinYMin">
<g id="graph0" class="graph" transform="scale(1 1) rotate(0) translate(4 651)">
<title>causalModel</title>
<polygon fill="#ffffff" stroke="transparent" points="-4,4 -4,-651 511.4796,-651 511.4796,4 -4,4"/>
<text text-anchor="middle" x="253.7398" y="-7.8" font-family="Helvetica, Arial, sans-serif" font-size="14.00" fill="#000000">Causal Model: North America</text>
<!-- rurratio_s -->
<g id="node1" class="node rankB">
<title>rurratio_s</title>
<path fill="none" stroke="#000000" d="M74.4796,-125.5C74.4796,-125.5 189.4796,-125.5 189.4796,-125.5 195.4796,-125.5 201.4796,-131.5 201.4796,-137.5 201.4796,-137.5 201.4796,-238.5 201.4796,-238.5 201.4796,-244.5 195.4796,-250.5 189.4796,-250.5 189.4796,-250.5 74.4796,-250.5 74.4796,-250.5 68.4796,-250.5 62.4796,-244.5 62.4796,-238.5 62.4796,-238.5 62.4796,-137.5 62.4796,-137.5 62.4796,-131.5 68.4796,-125.5 74.4796,-125.5"/>
<text text-anchor="start" x="77.4796" y="-231.7" font-family="Helvetica, Arial, sans-serif" font-size="16.00" fill="#000000">Percentage of</text>
<text text-anchor="start" x="71.9796" y="-213.7" font-family="Helvetica, Arial, sans-serif" font-size="16.00" fill="#000000">population that</text>
<text text-anchor="start" x="86.9796" y="-195.7" font-family="Helvetica, Arial, sans-serif" font-size="16.00" fill="#000000">live in rural</text>
<text text-anchor="start" x="109.9796" y="-177.7" font-family="Helvetica, Arial, sans-serif" font-size="16.00" fill="#000000">areas</text>
<polyline fill="none" stroke="#000000" points="62.4796,-166.5 201.4796,-166.5 "/>
<text text-anchor="start" x="83.9796" y="-149.8" font-family="Helvetica, Arial, sans-serif" font-size="14.00" fill="#000000">effect: -2.086</text>
<text text-anchor="start" x="88.9796" y="-133.8" font-family="Helvetica, Arial, sans-serif" font-size="14.00" fill="#000000">error: 0.244</text>
</g>
<!-- acl_pprt_evnt_m -->
<g id="node8" class="node rankC">
<title>acl_pprt_evnt_m</title>
<path fill="none" stroke="#000000" d="M185.9796,-89C185.9796,-89 77.9796,-89 77.9796,-89 71.9796,-89 65.9796,-83 65.9796,-77 65.9796,-77 65.9796,-51 65.9796,-51 65.9796,-45 71.9796,-39 77.9796,-39 77.9796,-39 185.9796,-39 185.9796,-39 191.9796,-39 197.9796,-45 197.9796,-51 197.9796,-51 197.9796,-77 197.9796,-77 197.9796,-83 191.9796,-89 185.9796,-89"/>
<text text-anchor="middle" x="131.9796" y="-69.2" font-family="Helvetica, Arial, sans-serif" font-size="16.00" fill="#000000">Total number of</text>
<text text-anchor="middle" x="131.9796" y="-51.2" font-family="Helvetica, Arial, sans-serif" font-size="16.00" fill="#000000">protest events</text>
</g>
<!-- rurratio_s&#45;&gt;acl_pprt_evnt_m -->
<g id="edge1" class="edge">
<title>rurratio_s-&gt;acl_pprt_evnt_m</title>
<path fill="none" stroke="#666666" stroke-width="2" d="M131.9796,-125.2735C131.9796,-117.0382 131.9796,-108.8201 131.9796,-101.2003"/>
<polygon fill="#666666" stroke="#666666" stroke-width="2" points="136.1797,-101.0442 131.9796,-89.0443 127.7797,-101.0443 136.1797,-101.0442"/>
</g>
<!-- et_anom_m_STD_m -->
<g id="node2" class="node rankB">
<title>et_anom_m_STD_m</title>
<path fill="none" stroke="#000000" d="M59.9796,-443C59.9796,-443 203.9796,-443 203.9796,-443 209.9796,-443 215.9796,-449 215.9796,-455 215.9796,-455 215.9796,-479 215.9796,-479 215.9796,-485 209.9796,-491 203.9796,-491 203.9796,-491 59.9796,-491 59.9796,-491 53.9796,-491 47.9796,-485 47.9796,-479 47.9796,-479 47.9796,-455 47.9796,-455 47.9796,-449 53.9796,-443 59.9796,-443"/>
<text text-anchor="start" x="86.9796" y="-472.2" font-family="Helvetica, Arial, sans-serif" font-size="16.00" fill="#000000">Variation in</text>
<text text-anchor="start" x="56.9796" y="-454.2" font-family="Helvetica, Arial, sans-serif" font-size="16.00" fill="#000000">evapotranspiration</text>
</g>
<!-- et_anom_m_STD_m&#45;&gt;rurratio_s -->
<g id="edge2" class="edge">
<title>et_anom_m_STD_m-&gt;rurratio_s</title>
<path fill="none" stroke="#666666" stroke-width="2" d="M83.0955,-442.7807C44.0738,-419.585 -3.0126,-380.9183 3.9796,-332"/>
</g>
<!-- ndvi_act_min_m -->
<g id="node3" class="node rankB">
<title>ndvi_act_min_m</title>
<path fill="none" stroke="#000000" d="M87.9796,-287.5C87.9796,-287.5 175.9796,-287.5 175.9796,-287.5 181.9796,-287.5 187.9796,-293.5 187.9796,-299.5 187.9796,-299.5 187.9796,-364.5 187.9796,-364.5 187.9796,-370.5 181.9796,-376.5 175.9796,-376.5 175.9796,-376.5 87.9796,-376.5 87.9796,-376.5 81.9796,-376.5 75.9796,-370.5 75.9796,-364.5 75.9796,-364.5 75.9796,-299.5 75.9796,-299.5 75.9796,-293.5 81.9796,-287.5 87.9796,-287.5"/>
<text text-anchor="start" x="91.9796" y="-357.7" font-family="Helvetica, Arial, sans-serif" font-size="16.00" fill="#000000">Density of</text>
<text text-anchor="start" x="90.9796" y="-339.7" font-family="Helvetica, Arial, sans-serif" font-size="16.00" fill="#000000">greenness</text>
<polyline fill="none" stroke="#000000" points="75.9796,-328.5 187.9796,-328.5 "/>
<text text-anchor="start" x="83.9796" y="-311.8" font-family="Helvetica, Arial, sans-serif" font-size="14.00" fill="#000000">effect: -0.176</text>
<text text-anchor="start" x="88.9796" y="-295.8" font-family="Helvetica, Arial, sans-serif" font-size="14.00" fill="#000000">error: 0.125</text>
</g>
<!-- et_anom_m_STD_m&#45;&gt;ndvi_act_min_m -->
<g id="edge3" class="edge">
<title>et_anom_m_STD_m-&gt;ndvi_act_min_m</title>
<path fill="none" stroke="#666666" stroke-width="2" d="M131.9796,-442.8647C131.9796,-427.809 131.9796,-407.7618 131.9796,-388.8572"/>
<polygon fill="#666666" stroke="#666666" stroke-width="2" points="136.1797,-388.663 131.9796,-376.6631 127.7797,-388.6631 136.1797,-388.663"/>
</g>
<!-- ndvi_act_min_m&#45;&gt;rurratio_s -->
<g id="edge4" class="edge">
<title>ndvi_act_min_m-&gt;rurratio_s</title>
<path fill="none" stroke="#666666" stroke-width="2" d="M131.9796,-287.2269C131.9796,-279.4609 131.9796,-271.1994 131.9796,-262.8864"/>
<polygon fill="#666666" stroke="#666666" stroke-width="2" points="136.1797,-262.7219 131.9796,-250.722 127.7797,-262.722 136.1797,-262.7219"/>
</g>
<!-- yield_gap_maize_s -->
<g id="node7" class="node rankB">
<title>yield_gap_maize_s</title>
<path fill="none" stroke="#000000" d="M390.4796,-146C390.4796,-146 495.4796,-146 495.4796,-146 501.4796,-146 507.4796,-152 507.4796,-158 507.4796,-158 507.4796,-218 507.4796,-218 507.4796,-224 501.4796,-230 495.4796,-230 495.4796,-230 390.4796,-230 390.4796,-230 384.4796,-230 378.4796,-224 378.4796,-218 378.4796,-218 378.4796,-158 378.4796,-158 378.4796,-152 384.4796,-146 390.4796,-146"/>
<text text-anchor="start" x="390.9796" y="-211.2" font-family="Helvetica, Arial, sans-serif" font-size="16.00" fill="#000000">Gap between</text>
<text text-anchor="start" x="389.4796" y="-193.2" font-family="Helvetica, Arial, sans-serif" font-size="16.00" fill="#000000">observed and</text>
<text text-anchor="start" x="387.9796" y="-175.2" font-family="Helvetica, Arial, sans-serif" font-size="16.00" fill="#000000">potential corn</text>
<text text-anchor="start" x="424.4796" y="-157.2" font-family="Helvetica, Arial, sans-serif" font-size="16.00" fill="#000000">yield</text>
</g>
<!-- ndvi_act_min_m&#45;&gt;yield_gap_maize_s -->
<g id="edge5" class="edge">
<title>ndvi_act_min_m-&gt;yield_gap_maize_s</title>
<path fill="none" stroke="#666666" stroke-width="2" d="M188.2994,-305.9227C238.3282,-282.7582 311.8639,-248.7095 367.0729,-223.1465"/>
<polygon fill="#666666" stroke="#666666" stroke-width="2" points="369.0843,-226.8436 378.2089,-217.9903 365.5549,-219.2211 369.0843,-226.8436"/>
</g>
<!-- spi_3_m -->
<g id="node4" class="node rankA">
<title>spi_3_m</title>
<path fill="none" stroke="#000000" d="M20.9796,-557.5C20.9796,-557.5 114.9796,-557.5 114.9796,-557.5 120.9796,-557.5 126.9796,-563.5 126.9796,-569.5 126.9796,-569.5 126.9796,-634.5 126.9796,-634.5 126.9796,-640.5 120.9796,-646.5 114.9796,-646.5 114.9796,-646.5 20.9796,-646.5 20.9796,-646.5 14.9796,-646.5 8.9796,-640.5 8.9796,-634.5 8.9796,-634.5 8.9796,-569.5 8.9796,-569.5 8.9796,-563.5 14.9796,-557.5 20.9796,-557.5"/>
<text text-anchor="start" x="22.4796" y="-627.7" font-family="Helvetica, Arial, sans-serif" font-size="16.00" fill="#000000">Variation of</text>
<text text-anchor="start" x="17.9796" y="-609.7" font-family="Helvetica, Arial, sans-serif" font-size="16.00" fill="#000000">precipitation</text>
<polyline fill="none" stroke="#000000" points="8.9796,-598.5 126.9796,-598.5 "/>
<text text-anchor="start" x="22.9796" y="-581.8" font-family="Helvetica, Arial, sans-serif" font-size="14.00" fill="#000000">effect: 0.703</text>
<text text-anchor="start" x="25.4796" y="-565.8" font-family="Helvetica, Arial, sans-serif" font-size="14.00" fill="#000000">error: 0.232</text>
</g>
<!-- spi_3_m&#45;&gt;rurratio_s -->
<g id="edge6" class="edge">
<title>spi_3_m-&gt;rurratio_s</title>
<path fill="none" stroke="#666666" stroke-width="2" d="M34.6675,-557.2942C19.1166,-532.1052 3.9796,-499.2927 3.9796,-467"/>
<path fill="none" stroke="#666666" stroke-width="2" d="M3.9796,-467C3.9796,-407 -4.5103,-391.3963 3.9796,-332"/>
<path fill="none" stroke="#666666" stroke-width="2" d="M3.9796,-332C8.764,-298.5281 29.7277,-269.0376 53.3475,-245.6032"/>
<polygon fill="#666666" stroke="#666666" stroke-width="2" points="56.3364,-248.5569 62.1446,-237.2474 50.5514,-242.4664 56.3364,-248.5569"/>
</g>
<!-- spi_3_m&#45;&gt;et_anom_m_STD_m -->
<g id="edge7" class="edge">
<title>spi_3_m-&gt;et_anom_m_STD_m</title>
<path fill="none" stroke="#666666" stroke-width="2" d="M89.113,-557.4218C97.6329,-539.4502 107.3189,-519.0187 115.3256,-502.1296"/>
<polygon fill="#666666" stroke="#666666" stroke-width="2" points="119.22,-503.7193 120.5654,-491.0769 111.6297,-500.121 119.22,-503.7193"/>
</g>
<!-- spi_3_m&#45;&gt;ndvi_act_min_m -->
<g id="edge8" class="edge">
<title>spi_3_m-&gt;ndvi_act_min_m</title>
<path fill="none" stroke="#666666" stroke-width="2" d="M3.9796,-467C3.9796,-426.636 34.4848,-393.5086 65.711,-370.1717"/>
<polygon fill="#666666" stroke="#666666" stroke-width="2" points="68.5112,-373.3332 75.837,-362.9421 63.6302,-366.4968 68.5112,-373.3332"/>
</g>
<!-- rainfed_s -->
<g id="node5" class="node rankB">
<title>rainfed_s</title>
<path fill="none" stroke="#000000" d="M257.4796,-413.5C257.4796,-413.5 386.4796,-413.5 386.4796,-413.5 392.4796,-413.5 398.4796,-419.5 398.4796,-425.5 398.4796,-425.5 398.4796,-508.5 398.4796,-508.5 398.4796,-514.5 392.4796,-520.5 386.4796,-520.5 386.4796,-520.5 257.4796,-520.5 257.4796,-520.5 251.4796,-520.5 245.4796,-514.5 245.4796,-508.5 245.4796,-508.5 245.4796,-425.5 245.4796,-425.5 245.4796,-419.5 251.4796,-413.5 257.4796,-413.5"/>
<text text-anchor="start" x="267.4796" y="-501.7" font-family="Helvetica, Arial, sans-serif" font-size="16.00" fill="#000000">Percentage of</text>
<text text-anchor="start" x="254.9796" y="-483.7" font-family="Helvetica, Arial, sans-serif" font-size="16.00" fill="#000000">crops grown that</text>
<text text-anchor="start" x="278.4796" y="-465.7" font-family="Helvetica, Arial, sans-serif" font-size="16.00" fill="#000000">are rainfed</text>
<polyline fill="none" stroke="#000000" points="245.4796,-454.5 398.4796,-454.5 "/>
<text text-anchor="start" x="273.9796" y="-437.8" font-family="Helvetica, Arial, sans-serif" font-size="14.00" fill="#000000">effect: -0.168</text>
<text text-anchor="start" x="278.9796" y="-421.8" font-family="Helvetica, Arial, sans-serif" font-size="14.00" fill="#000000">error: 0.099</text>
</g>
<!-- rainfed_s&#45;&gt;ndvi_act_min_m -->
<g id="edge9" class="edge">
<title>rainfed_s-&gt;ndvi_act_min_m</title>
<path fill="none" stroke="#666666" stroke-width="2" d="M246.6137,-413.4505C230.6356,-402.0976 213.8826,-390.1942 198.2711,-379.1019"/>
<polygon fill="#666666" stroke="#666666" stroke-width="2" points="200.4115,-375.4704 188.1967,-371.9437 195.5462,-382.318 200.4115,-375.4704"/>
</g>
<!-- spam_P_i_sum_s -->
<g id="node6" class="node rankB">
<title>spam_P_i_sum_s</title>
<path fill="none" stroke="#000000" d="M266.4796,-569C266.4796,-569 377.4796,-569 377.4796,-569 383.4796,-569 389.4796,-575 389.4796,-581 389.4796,-581 389.4796,-623 389.4796,-623 389.4796,-629 383.4796,-635 377.4796,-635 377.4796,-635 266.4796,-635 266.4796,-635 260.4796,-635 254.4796,-629 254.4796,-623 254.4796,-623 254.4796,-581 254.4796,-581 254.4796,-575 260.4796,-569 266.4796,-569"/>
<text text-anchor="start" x="267.9796" y="-616.2" font-family="Helvetica, Arial, sans-serif" font-size="16.00" fill="#000000">Metric tons of</text>
<text text-anchor="start" x="263.9796" y="-598.2" font-family="Helvetica, Arial, sans-serif" font-size="16.00" fill="#000000">irrigated crops</text>
<text text-anchor="start" x="284.9796" y="-580.2" font-family="Helvetica, Arial, sans-serif" font-size="16.00" fill="#000000">produced</text>
</g>
<!-- spam_P_i_sum_s&#45;&gt;rurratio_s -->
<g id="edge11" class="edge">
<title>spam_P_i_sum_s-&gt;rurratio_s</title>
<path fill="none" stroke="#666666" stroke-width="2" d="M371.3416,-568.701C387.0473,-555.6473 402.9327,-539.3714 412.9796,-521 453.7887,-446.3783 477.0292,-409.9385 442.9796,-332"/>
<path fill="none" stroke="#666666" stroke-width="2" d="M442.9796,-332C424.5439,-286.1484 299.0865,-239.1702 213.2593,-211.8334"/>
<polygon fill="#666666" stroke="#666666" stroke-width="2" points="214.397,-207.7884 201.6895,-208.1902 211.874,-215.8005 214.397,-207.7884"/>
</g>
<!-- spam_P_i_sum_s&#45;&gt;et_anom_m_STD_m -->
<g id="edge12" class="edge">
<title>spam_P_i_sum_s-&gt;et_anom_m_STD_m</title>
<path fill="none" stroke="#666666" stroke-width="2" d="M275.5004,-568.9753C245.1335,-547.3988 205.7251,-519.3981 175.888,-498.198"/>
<polygon fill="#666666" stroke="#666666" stroke-width="2" points="177.9788,-494.5314 165.7639,-491.0046 173.1134,-501.3789 177.9788,-494.5314"/>
</g>
<!-- spam_P_i_sum_s&#45;&gt;rainfed_s -->
<g id="edge13" class="edge">
<title>spam_P_i_sum_s-&gt;rainfed_s</title>
<path fill="none" stroke="#666666" stroke-width="2" d="M321.9796,-556.8652C321.9796,-549.1696 321.9796,-541.0368 321.9796,-532.9341"/>
<polygon fill="#666666" stroke="#666666" stroke-width="2" points="317.7797,-556.9753 321.9796,-568.9753 326.1797,-556.9753 317.7797,-556.9753"/>
<polygon fill="#666666" stroke="#666666" stroke-width="2" points="326.1797,-532.7207 321.9796,-520.7207 317.7797,-532.7208 326.1797,-532.7207"/>
</g>
<!-- spam_P_i_sum_s&#45;&gt;yield_gap_maize_s -->
<g id="edge14" class="edge">
<title>spam_P_i_sum_s-&gt;yield_gap_maize_s</title>
<path fill="none" stroke="#666666" stroke-width="2" d="M442.9796,-332C430.774,-304.0616 430.1973,-270.0627 432.94,-242.1179"/>
<polygon fill="#666666" stroke="#666666" stroke-width="2" points="437.1172,-242.5576 434.3488,-230.1489 428.7748,-241.5756 437.1172,-242.5576"/>
</g>
</g>
<style>.node path {
  stroke: #fff;
}
.node text {
  fill: #fff;
}
.node polyline {
  stroke: #fff;
}
.rankA path {
  fill: #1b6002;
}
.rankB path {
  fill: #437387;
}
.rankC path {
  fill: #2e3348;
}
</style></svg>
