<?xml version="1.0" encoding="UTF-8" standalone="no"?>
<!DOCTYPE svg PUBLIC "-//W3C//DTD SVG 1.1//EN" "http://www.w3.org/Graphics/SVG/1.1/DTD/svg11.dtd">
<!-- Generated by graphviz version 2.40.1 (20161225.0304)
 -->
<!-- Title: causalModel Pages: 1 -->
<svg xmlns="http://www.w3.org/2000/svg" xmlns:xlink="http://www.w3.org/1999/xlink" width="" height="" viewBox="0.00 0.00 647.00 705.00" preserveAspectRatio="xMinYMin">
<g id="graph0" class="graph" transform="scale(1 1) rotate(0) translate(4 701)">
<title>causalModel</title>
<polygon fill="#ffffff" stroke="transparent" points="-4,4 -4,-701 643,-701 643,4 -4,4"/>
<!-- rurratio_s -->
<g id="node1" class="node rankB">
<title>rurratio_s</title>
<path fill="none" stroke="#000000" d="M55,-121.5C55,-121.5 244,-121.5 244,-121.5 250,-121.5 256,-127.5 256,-133.5 256,-133.5 256,-198.5 256,-198.5 256,-204.5 250,-210.5 244,-210.5 244,-210.5 55,-210.5 55,-210.5 49,-210.5 43,-204.5 43,-198.5 43,-198.5 43,-133.5 43,-133.5 43,-127.5 49,-121.5 55,-121.5"/>
<text text-anchor="start" x="50.5" y="-191.7" font-family="Helvetica, Arial, sans-serif" font-size="16.00" fill="#000000">Percentage of population</text>
<text text-anchor="start" x="61.5" y="-173.7" font-family="Helvetica, Arial, sans-serif" font-size="16.00" fill="#000000">that live in rural areas</text>
<polyline fill="none" stroke="#000000" points="43,-162.5 256,-162.5 "/>
<text text-anchor="start" x="101.5" y="-145.8" font-family="Helvetica, Arial, sans-serif" font-size="14.00" fill="#000000">effect: -2.086</text>
<text text-anchor="start" x="106.5" y="-129.8" font-family="Helvetica, Arial, sans-serif" font-size="14.00" fill="#000000">error: 0.244</text>
</g>
<!-- acl_pprt_evnt_m -->
<g id="node2" class="node rankC">
<title>acl_pprt_evnt_m</title>
<path fill="none" stroke="#000000" d="M62,-.5C62,-.5 237,-.5 237,-.5 243,-.5 249,-6.5 249,-12.5 249,-12.5 249,-36.5 249,-36.5 249,-42.5 243,-48.5 237,-48.5 237,-48.5 62,-48.5 62,-48.5 56,-48.5 50,-42.5 50,-36.5 50,-36.5 50,-12.5 50,-12.5 50,-6.5 56,-.5 62,-.5"/>
<text text-anchor="start" x="57.5" y="-29.7" font-family="Helvetica, Arial, sans-serif" font-size="16.00" fill="#000000">Total number of protest</text>
<text text-anchor="start" x="123.5" y="-11.7" font-family="Helvetica, Arial, sans-serif" font-size="16.00" fill="#000000">events</text>
</g>
<!-- rurratio_s&#45;&gt;acl_pprt_evnt_m -->
<g id="edge1" class="edge">
<title>rurratio_s-&gt;acl_pprt_evnt_m</title>
<path fill="none" stroke="#000000" stroke-width="2" d="M149.5,-121.2285C149.5,-101.756 149.5,-79.2345 149.5,-60.8249"/>
<polygon fill="#000000" stroke="#000000" stroke-width="2" points="153.7001,-60.8247 149.5,-48.8247 145.3001,-60.8248 153.7001,-60.8247"/>
</g>
<!-- et_anom_m_STD_m -->
<g id="node3" class="node rankB">
<title>et_anom_m_STD_m</title>
<path fill="none" stroke="#000000" d="M70.5,-439C70.5,-439 210.5,-439 210.5,-439 216.5,-439 222.5,-445 222.5,-451 222.5,-451 222.5,-493 222.5,-493 222.5,-499 216.5,-505 210.5,-505 210.5,-505 70.5,-505 70.5,-505 64.5,-505 58.5,-499 58.5,-493 58.5,-493 58.5,-451 58.5,-451 58.5,-445 64.5,-439 70.5,-439"/>
<text text-anchor="start" x="95.5" y="-486.2" font-family="Helvetica, Arial, sans-serif" font-size="16.00" fill="#000000">Variation in</text>
<text text-anchor="start" x="65.5" y="-468.2" font-family="Helvetica, Arial, sans-serif" font-size="16.00" fill="#000000">evapotranspiration</text>
<text text-anchor="start" x="107" y="-450.2" font-family="Helvetica, Arial, sans-serif" font-size="16.00" fill="#000000">patterns</text>
</g>
<!-- et_anom_m_STD_m&#45;&gt;rurratio_s -->
<g id="edge2" class="edge">
<title>et_anom_m_STD_m-&gt;rurratio_s</title>
<path fill="none" stroke="#000000" stroke-width="2" d="M86.0982,-438.9742C48.3403,-411.3438 6.1893,-368.5472 14.5,-319"/>
</g>
<!-- ndvi_act_min_m -->
<g id="node4" class="node rankB">
<title>ndvi_act_min_m</title>
<path fill="none" stroke="#000000" d="M71,-283.5C71,-283.5 228,-283.5 228,-283.5 234,-283.5 240,-289.5 240,-295.5 240,-295.5 240,-342.5 240,-342.5 240,-348.5 234,-354.5 228,-354.5 228,-354.5 71,-354.5 71,-354.5 65,-354.5 59,-348.5 59,-342.5 59,-342.5 59,-295.5 59,-295.5 59,-289.5 65,-283.5 71,-283.5"/>
<text text-anchor="start" x="66.5" y="-335.7" font-family="Helvetica, Arial, sans-serif" font-size="16.00" fill="#000000">Density of greenness</text>
<polyline fill="none" stroke="#000000" points="59,-324.5 240,-324.5 "/>
<text text-anchor="start" x="101.5" y="-307.8" font-family="Helvetica, Arial, sans-serif" font-size="14.00" fill="#000000">effect: -0.176</text>
<text text-anchor="start" x="106.5" y="-291.8" font-family="Helvetica, Arial, sans-serif" font-size="14.00" fill="#000000">error: 0.125</text>
</g>
<!-- et_anom_m_STD_m&#45;&gt;ndvi_act_min_m -->
<g id="edge3" class="edge">
<title>et_anom_m_STD_m-&gt;ndvi_act_min_m</title>
<path fill="none" stroke="#000000" stroke-width="2" d="M142.4529,-438.8013C143.693,-417.7182 145.3181,-390.0925 146.6951,-366.6831"/>
<polygon fill="#000000" stroke="#000000" stroke-width="2" points="150.8978,-366.7585 147.4099,-354.5325 142.5123,-366.2651 150.8978,-366.7585"/>
</g>
<!-- ndvi_act_min_m&#45;&gt;rurratio_s -->
<g id="edge4" class="edge">
<title>ndvi_act_min_m-&gt;rurratio_s</title>
<path fill="none" stroke="#000000" stroke-width="2" d="M149.5,-283.1283C149.5,-265.2081 149.5,-243.0976 149.5,-222.932"/>
<polygon fill="#000000" stroke="#000000" stroke-width="2" points="153.7001,-222.6821 149.5,-210.6821 145.3001,-222.6822 153.7001,-222.6821"/>
</g>
<!-- yield_gap_maize_s -->
<g id="node5" class="node rankB">
<title>yield_gap_maize_s</title>
<path fill="none" stroke="#000000" d="M420,-142C420,-142 627,-142 627,-142 633,-142 639,-148 639,-154 639,-154 639,-178 639,-178 639,-184 633,-190 627,-190 627,-190 420,-190 420,-190 414,-190 408,-184 408,-178 408,-178 408,-154 408,-154 408,-148 414,-142 420,-142"/>
<text text-anchor="start" x="415.5" y="-171.2" font-family="Helvetica, Arial, sans-serif" font-size="16.00" fill="#000000">Gap between observed and</text>
<text text-anchor="start" x="447" y="-153.2" font-family="Helvetica, Arial, sans-serif" font-size="16.00" fill="#000000">potential corn yield</text>
</g>
<!-- ndvi_act_min_m&#45;&gt;yield_gap_maize_s -->
<g id="edge5" class="edge">
<title>ndvi_act_min_m-&gt;yield_gap_maize_s</title>
<path fill="none" stroke="#000000" stroke-width="2" d="M236.7144,-283.3214C302.7545,-256.305 392.2762,-219.6825 453.6331,-194.5819"/>
<polygon fill="#000000" stroke="#000000" stroke-width="2" points="455.2337,-198.465 464.75,-190.0341 452.0532,-190.6904 455.2337,-198.465"/>
</g>
<!-- spi_3_m -->
<g id="node6" class="node rankA">
<title>spi_3_m</title>
<path fill="none" stroke="#000000" d="M12,-589.5C12,-589.5 143,-589.5 143,-589.5 149,-589.5 155,-595.5 155,-601.5 155,-601.5 155,-684.5 155,-684.5 155,-690.5 149,-696.5 143,-696.5 143,-696.5 12,-696.5 12,-696.5 6,-696.5 0,-690.5 0,-684.5 0,-684.5 0,-601.5 0,-601.5 0,-595.5 6,-589.5 12,-589.5"/>
<text text-anchor="start" x="32.5" y="-677.7" font-family="Helvetica, Arial, sans-serif" font-size="16.00" fill="#000000">Variation of</text>
<text text-anchor="start" x="7.5" y="-659.7" font-family="Helvetica, Arial, sans-serif" font-size="16.00" fill="#000000">precipitation over</text>
<text text-anchor="start" x="17" y="-641.7" font-family="Helvetica, Arial, sans-serif" font-size="16.00" fill="#000000">3-month period</text>
<polyline fill="none" stroke="#000000" points="0,-630.5 155,-630.5 "/>
<text text-anchor="start" x="32.5" y="-613.8" font-family="Helvetica, Arial, sans-serif" font-size="14.00" fill="#000000">effect: 0.703</text>
<text text-anchor="start" x="35" y="-597.8" font-family="Helvetica, Arial, sans-serif" font-size="14.00" fill="#000000">error: 0.232</text>
</g>
<!-- spi_3_m&#45;&gt;rurratio_s -->
<g id="edge6" class="edge">
<title>spi_3_m-&gt;rurratio_s</title>
<path fill="none" stroke="#000000" stroke-width="2" d="M45.8043,-589.38C29.481,-556.5636 13.2149,-513.1096 14.5,-472"/>
<path fill="none" stroke="#000000" stroke-width="2" d="M14.5,-472C16.6247,-404.0332 3.2513,-386.0632 14.5,-319"/>
<path fill="none" stroke="#000000" stroke-width="2" d="M14.5,-319C21.1361,-279.4367 48.3182,-244.9365 76.5703,-218.7617"/>
<polygon fill="#000000" stroke="#000000" stroke-width="2" points="79.6021,-221.6853 85.756,-210.5601 74.0075,-215.4195 79.6021,-221.6853"/>
</g>
<!-- spi_3_m&#45;&gt;et_anom_m_STD_m -->
<g id="edge7" class="edge">
<title>spi_3_m-&gt;et_anom_m_STD_m</title>
<path fill="none" stroke="#000000" stroke-width="2" d="M97.2607,-589.3637C105.8866,-565.9506 115.883,-538.8176 124.09,-516.5415"/>
<polygon fill="#000000" stroke="#000000" stroke-width="2" points="128.1157,-517.7634 128.3232,-505.0513 120.2337,-514.8594 128.1157,-517.7634"/>
</g>
<!-- spi_3_m&#45;&gt;ndvi_act_min_m -->
<g id="edge8" class="edge">
<title>spi_3_m-&gt;ndvi_act_min_m</title>
<path fill="none" stroke="#000000" stroke-width="2" d="M14.5,-472C15.9053,-427.0448 49.124,-389.047 82.2538,-362.1633"/>
<polygon fill="#000000" stroke="#000000" stroke-width="2" points="85.1565,-365.2256 92.0315,-354.531 79.9878,-358.6041 85.1565,-365.2256"/>
</g>
<!-- rainfed_s -->
<g id="node7" class="node rankB">
<title>rainfed_s</title>
<path fill="none" stroke="#000000" d="M264,-427.5C264,-427.5 467,-427.5 467,-427.5 473,-427.5 479,-433.5 479,-439.5 479,-439.5 479,-504.5 479,-504.5 479,-510.5 473,-516.5 467,-516.5 467,-516.5 264,-516.5 264,-516.5 258,-516.5 252,-510.5 252,-504.5 252,-504.5 252,-439.5 252,-439.5 252,-433.5 258,-427.5 264,-427.5"/>
<text text-anchor="start" x="259.5" y="-497.7" font-family="Helvetica, Arial, sans-serif" font-size="16.00" fill="#000000">Percentage of crops grown</text>
<text text-anchor="start" x="304" y="-479.7" font-family="Helvetica, Arial, sans-serif" font-size="16.00" fill="#000000">that are rainfed</text>
<polyline fill="none" stroke="#000000" points="252,-468.5 479,-468.5 "/>
<text text-anchor="start" x="317.5" y="-451.8" font-family="Helvetica, Arial, sans-serif" font-size="14.00" fill="#000000">effect: -0.168</text>
<text text-anchor="start" x="322.5" y="-435.8" font-family="Helvetica, Arial, sans-serif" font-size="14.00" fill="#000000">error: 0.099</text>
</g>
<!-- rainfed_s&#45;&gt;ndvi_act_min_m -->
<g id="edge9" class="edge">
<title>rainfed_s-&gt;ndvi_act_min_m</title>
<path fill="none" stroke="#000000" stroke-width="2" d="M302.4432,-427.3348C273.2593,-406.6628 238.7464,-382.2162 209.8982,-361.7821"/>
<polygon fill="#000000" stroke="#000000" stroke-width="2" points="212.1686,-358.2433 199.9486,-354.7344 207.3132,-365.0979 212.1686,-358.2433"/>
</g>
<!-- spam_P_i_sum_s -->
<g id="node8" class="node rankB">
<title>spam_P_i_sum_s</title>
<path fill="none" stroke="#000000" d="M279.5,-619C279.5,-619 451.5,-619 451.5,-619 457.5,-619 463.5,-625 463.5,-631 463.5,-631 463.5,-655 463.5,-655 463.5,-661 457.5,-667 451.5,-667 451.5,-667 279.5,-667 279.5,-667 273.5,-667 267.5,-661 267.5,-655 267.5,-655 267.5,-631 267.5,-631 267.5,-625 273.5,-619 279.5,-619"/>
<text text-anchor="start" x="274.5" y="-648.2" font-family="Helvetica, Arial, sans-serif" font-size="16.00" fill="#000000">Metric tons of irrigated</text>
<text text-anchor="start" x="303.5" y="-630.2" font-family="Helvetica, Arial, sans-serif" font-size="16.00" fill="#000000">crops produced</text>
</g>
<!-- spam_P_i_sum_s&#45;&gt;rurratio_s -->
<g id="edge11" class="edge">
<title>spam_P_i_sum_s-&gt;rurratio_s</title>
<path fill="none" stroke="#000000" stroke-width="2" d="M400.4576,-618.8604C430.3303,-596.2027 471.8158,-559.4965 493.5,-517 533.9534,-437.7201 561.6144,-399.4306 523.5,-319"/>
<path fill="none" stroke="#000000" stroke-width="2" d="M523.5,-319C501.8178,-269.0998 369.1119,-223.5007 267.8791,-195.3094"/>
<polygon fill="#000000" stroke="#000000" stroke-width="2" points="268.6956,-191.178 256.0113,-192.0434 266.4668,-199.2769 268.6956,-191.178"/>
</g>
<!-- spam_P_i_sum_s&#45;&gt;et_anom_m_STD_m -->
<g id="edge12" class="edge">
<title>spam_P_i_sum_s-&gt;et_anom_m_STD_m</title>
<path fill="none" stroke="#000000" stroke-width="2" d="M333.7402,-618.8626C297.3645,-591.217 237.186,-545.4814 193.6381,-512.385"/>
<polygon fill="#000000" stroke="#000000" stroke-width="2" points="196.1557,-509.0231 184.0604,-505.1059 191.073,-515.7108 196.1557,-509.0231"/>
</g>
<!-- spam_P_i_sum_s&#45;&gt;yield_gap_maize_s -->
<g id="edge14" class="edge">
<title>spam_P_i_sum_s-&gt;yield_gap_maize_s</title>
<path fill="none" stroke="#000000" stroke-width="2" d="M523.5,-319C506.0271,-282.128 509.523,-234.4184 515.1146,-202.1526"/>
<polygon fill="#000000" stroke="#000000" stroke-width="2" points="519.275,-202.7572 517.4079,-190.1813 511.0251,-201.1767 519.275,-202.7572"/>
</g>
<!-- spam_P_i_sum_s&#45;&gt;rainfed_s -->
<g id="edge13" class="edge">
<title>spam_P_i_sum_s-&gt;rainfed_s</title>
<path fill="none" stroke="#000000" stroke-width="2" d="M365.5,-606.7651C365.5,-584.1234 365.5,-554.4853 365.5,-528.7704"/>
<polygon fill="#000000" stroke="#000000" stroke-width="2" points="361.3001,-606.8625 365.5,-618.8626 369.7001,-606.8626 361.3001,-606.8625"/>
<polygon fill="#000000" stroke="#000000" stroke-width="2" points="369.7001,-528.5097 365.5,-516.5097 361.3001,-528.5097 369.7001,-528.5097"/>
</g>
</g>
<style>.node path {
  stroke: #fff;
}
.node text {
  fill: #fff;
}
.node polyline {
  stroke: #fff;
}
.rankA path {
  fill: #2e3348;
}
.rankB path {
  fill: #437387;
}
.rankC path {
  fill: #1b6002;
}
.edge path {
  stroke: #666;
};
</style></svg>
