<?xml version="1.0" encoding="UTF-8" standalone="no"?>
<!DOCTYPE svg PUBLIC "-//W3C//DTD SVG 1.1//EN" "http://www.w3.org/Graphics/SVG/1.1/DTD/svg11.dtd">
<!-- Generated by graphviz version 2.40.1 (20161225.0304)
 -->
<!-- Title: causalModel Pages: 1 -->
<svg xmlns="http://www.w3.org/2000/svg" xmlns:xlink="http://www.w3.org/1999/xlink" width="" height="" viewBox="0.00 0.00 444.37 711.00" preserveAspectRatio="xMinYMin">
<g id="graph0" class="graph" transform="scale(1 1) rotate(0) translate(4 707)">
<title>causalModel</title>
<polygon fill="#ffffff" stroke="transparent" points="-4,4 -4,-707 440.37,-707 440.37,4 -4,4"/>
<text text-anchor="middle" x="218.185" y="-7.8" font-family="Helvetica, Arial, sans-serif" font-size="14.00" fill="#000000">Causal Model: South Asia</text>
<!-- et_anom_m_STD_m -->
<g id="node1" class="node rankA">
<title>et_anom_m_STD_m</title>
<path fill="none" stroke="#000000" d="M221.5,-595.5C221.5,-595.5 365.5,-595.5 365.5,-595.5 371.5,-595.5 377.5,-601.5 377.5,-607.5 377.5,-607.5 377.5,-690.5 377.5,-690.5 377.5,-696.5 371.5,-702.5 365.5,-702.5 365.5,-702.5 221.5,-702.5 221.5,-702.5 215.5,-702.5 209.5,-696.5 209.5,-690.5 209.5,-690.5 209.5,-607.5 209.5,-607.5 209.5,-601.5 215.5,-595.5 221.5,-595.5"/>
<text text-anchor="start" x="248.5" y="-683.7" font-family="Helvetica, Arial, sans-serif" font-size="16.00" fill="#000000">Variation in</text>
<text text-anchor="start" x="218.5" y="-665.7" font-family="Helvetica, Arial, sans-serif" font-size="16.00" fill="#000000">evapotranspiration</text>
<text text-anchor="start" x="260" y="-647.7" font-family="Helvetica, Arial, sans-serif" font-size="16.00" fill="#000000">patterns</text>
<polyline fill="none" stroke="#000000" points="209.5,-636.5 377.5,-636.5 "/>
<text text-anchor="start" x="245.5" y="-619.8" font-family="Helvetica, Arial, sans-serif" font-size="14.00" fill="#000000">effect: -0.053</text>
<text text-anchor="start" x="250.5" y="-603.8" font-family="Helvetica, Arial, sans-serif" font-size="14.00" fill="#000000">error: 0.075</text>
</g>
<!-- ndvi_act_med_m -->
<g id="node3" class="node rankB">
<title>ndvi_act_med_m</title>
<path fill="none" stroke="#000000" d="M157.5,-469.5C157.5,-469.5 245.5,-469.5 245.5,-469.5 251.5,-469.5 257.5,-475.5 257.5,-481.5 257.5,-481.5 257.5,-546.5 257.5,-546.5 257.5,-552.5 251.5,-558.5 245.5,-558.5 245.5,-558.5 157.5,-558.5 157.5,-558.5 151.5,-558.5 145.5,-552.5 145.5,-546.5 145.5,-546.5 145.5,-481.5 145.5,-481.5 145.5,-475.5 151.5,-469.5 157.5,-469.5"/>
<text text-anchor="start" x="161.5" y="-539.7" font-family="Helvetica, Arial, sans-serif" font-size="16.00" fill="#000000">Density of</text>
<text text-anchor="start" x="160.5" y="-521.7" font-family="Helvetica, Arial, sans-serif" font-size="16.00" fill="#000000">greenness</text>
<polyline fill="none" stroke="#000000" points="145.5,-510.5 257.5,-510.5 "/>
<text text-anchor="start" x="153.5" y="-493.8" font-family="Helvetica, Arial, sans-serif" font-size="14.00" fill="#000000">effect: -0.342</text>
<text text-anchor="start" x="158.5" y="-477.8" font-family="Helvetica, Arial, sans-serif" font-size="14.00" fill="#000000">error: 0.113</text>
</g>
<!-- et_anom_m_STD_m&#45;&gt;ndvi_act_med_m -->
<g id="edge1" class="edge">
<title>et_anom_m_STD_m-&gt;ndvi_act_med_m</title>
<path fill="none" stroke="#000000" stroke-width="2" d="M256.8748,-595.2565C250.9682,-586.5892 244.8462,-577.6059 238.9212,-568.9115"/>
<polygon fill="#000000" stroke="#000000" stroke-width="2" points="242.3093,-566.425 232.0807,-558.8739 235.3678,-571.1554 242.3093,-566.425"/>
</g>
<!-- yield_gap_rice_s -->
<g id="node6" class="node rankB">
<title>yield_gap_rice_s</title>
<path fill="none" stroke="#000000" d="M264.5,-119.5C264.5,-119.5 366.5,-119.5 366.5,-119.5 372.5,-119.5 378.5,-125.5 378.5,-131.5 378.5,-131.5 378.5,-191.5 378.5,-191.5 378.5,-197.5 372.5,-203.5 366.5,-203.5 366.5,-203.5 264.5,-203.5 264.5,-203.5 258.5,-203.5 252.5,-197.5 252.5,-191.5 252.5,-191.5 252.5,-131.5 252.5,-131.5 252.5,-125.5 258.5,-119.5 264.5,-119.5"/>
<text text-anchor="start" x="263" y="-184.7" font-family="Helvetica, Arial, sans-serif" font-size="16.00" fill="#000000">Gap between</text>
<text text-anchor="start" x="261.5" y="-166.7" font-family="Helvetica, Arial, sans-serif" font-size="16.00" fill="#000000">observed and</text>
<text text-anchor="start" x="262.5" y="-148.7" font-family="Helvetica, Arial, sans-serif" font-size="16.00" fill="#000000">potential rice</text>
<text text-anchor="start" x="296.5" y="-130.7" font-family="Helvetica, Arial, sans-serif" font-size="16.00" fill="#000000">yield</text>
</g>
<!-- et_anom_m_STD_m&#45;&gt;yield_gap_rice_s -->
<g id="edge2" class="edge">
<title>et_anom_m_STD_m-&gt;yield_gap_rice_s</title>
<path fill="none" stroke="#000000" stroke-width="2" d="M422.5,-285C411.4519,-258.1474 392.1338,-233.025 372.9248,-212.5419"/>
<polygon fill="#000000" stroke="#000000" stroke-width="2" points="375.7937,-209.4669 364.4313,-203.7627 369.7565,-215.3075 375.7937,-209.4669"/>
</g>
<!-- rurpop_s -->
<g id="node7" class="node rankB">
<title>rurpop_s</title>
<path fill="none" stroke="#000000" d="M114,-137.5C114,-137.5 211,-137.5 211,-137.5 217,-137.5 223,-143.5 223,-149.5 223,-149.5 223,-173.5 223,-173.5 223,-179.5 217,-185.5 211,-185.5 211,-185.5 114,-185.5 114,-185.5 108,-185.5 102,-179.5 102,-173.5 102,-173.5 102,-149.5 102,-149.5 102,-143.5 108,-137.5 114,-137.5"/>
<text text-anchor="start" x="111.5" y="-166.7" font-family="Helvetica, Arial, sans-serif" font-size="16.00" fill="#000000">Population in</text>
<text text-anchor="start" x="119" y="-148.7" font-family="Helvetica, Arial, sans-serif" font-size="16.00" fill="#000000">rural areas</text>
</g>
<!-- et_anom_m_STD_m&#45;&gt;rurpop_s -->
<g id="edge3" class="edge">
<title>et_anom_m_STD_m-&gt;rurpop_s</title>
<path fill="none" stroke="#000000" stroke-width="2" d="M337.4792,-595.3253C390.4688,-523.7606 467.1428,-393.5048 422.5,-285"/>
<path fill="none" stroke="#000000" stroke-width="2" d="M422.5,-285C385.9964,-203.4458 318.4722,-243.8503 238.5,-204 230.6861,-200.1063 222.53,-195.8066 214.5838,-191.4821"/>
<polygon fill="#000000" stroke="#000000" stroke-width="2" points="216.4661,-187.7238 203.93,-185.6056 212.409,-195.0791 216.4661,-187.7238"/>
</g>
<!-- acl_sum_evnt_m -->
<g id="node8" class="node rankC">
<title>acl_sum_evnt_m</title>
<path fill="none" stroke="#000000" d="M219.5,-83C219.5,-83 105.5,-83 105.5,-83 99.5,-83 93.5,-77 93.5,-71 93.5,-71 93.5,-51 93.5,-51 93.5,-45 99.5,-39 105.5,-39 105.5,-39 219.5,-39 219.5,-39 225.5,-39 231.5,-45 231.5,-51 231.5,-51 231.5,-71 231.5,-71 231.5,-77 225.5,-83 219.5,-83"/>
<text text-anchor="middle" x="162.5" y="-66.2" font-family="Helvetica, Arial, sans-serif" font-size="16.00" fill="#000000">Total number of</text>
<text text-anchor="middle" x="162.5" y="-48.2" font-family="Helvetica, Arial, sans-serif" font-size="16.00" fill="#000000">conflict events</text>
</g>
<!-- et_anom_m_STD_m&#45;&gt;acl_sum_evnt_m -->
<g id="edge4" class="edge">
<title>et_anom_m_STD_m-&gt;acl_sum_evnt_m</title>
<path fill="none" stroke="#000000" stroke-width="2" d="M422.5,-285C391.9022,-216.6402 444.4898,-173.8573 393.5,-119 373.0989,-97.0515 301.7513,-81.3643 243.6859,-71.884"/>
<polygon fill="#000000" stroke="#000000" stroke-width="2" points="244.0298,-67.6862 231.5201,-69.9552 242.7144,-75.9826 244.0298,-67.6862"/>
</g>
<!-- DeliveredkcalFraction_s -->
<g id="node2" class="node rankB">
<title>DeliveredkcalFraction_s</title>
<path fill="none" stroke="#000000" d="M132.5,-366.5C132.5,-366.5 270.5,-366.5 270.5,-366.5 276.5,-366.5 282.5,-372.5 282.5,-378.5 282.5,-378.5 282.5,-420.5 282.5,-420.5 282.5,-426.5 276.5,-432.5 270.5,-432.5 270.5,-432.5 132.5,-432.5 132.5,-432.5 126.5,-432.5 120.5,-426.5 120.5,-420.5 120.5,-420.5 120.5,-378.5 120.5,-378.5 120.5,-372.5 126.5,-366.5 132.5,-366.5"/>
<text text-anchor="start" x="163.5" y="-413.7" font-family="Helvetica, Arial, sans-serif" font-size="16.00" fill="#000000">Portion of</text>
<text text-anchor="start" x="130.5" y="-395.7" font-family="Helvetica, Arial, sans-serif" font-size="16.00" fill="#000000">calories produced</text>
<text text-anchor="start" x="129.5" y="-377.7" font-family="Helvetica, Arial, sans-serif" font-size="16.00" fill="#000000">going toward food</text>
</g>
<!-- cattle_number_s -->
<g id="node4" class="node rankB">
<title>cattle_number_s</title>
<path fill="none" stroke="#000000" d="M103.5,-240.5C103.5,-240.5 239.5,-240.5 239.5,-240.5 245.5,-240.5 251.5,-246.5 251.5,-252.5 251.5,-252.5 251.5,-317.5 251.5,-317.5 251.5,-323.5 245.5,-329.5 239.5,-329.5 239.5,-329.5 103.5,-329.5 103.5,-329.5 97.5,-329.5 91.5,-323.5 91.5,-317.5 91.5,-317.5 91.5,-252.5 91.5,-252.5 91.5,-246.5 97.5,-240.5 103.5,-240.5"/>
<text text-anchor="start" x="100.5" y="-310.7" font-family="Helvetica, Arial, sans-serif" font-size="16.00" fill="#000000">Count of livestock</text>
<text text-anchor="start" x="148.5" y="-292.7" font-family="Helvetica, Arial, sans-serif" font-size="16.00" fill="#000000">cattle</text>
<polyline fill="none" stroke="#000000" points="91.5,-281.5 251.5,-281.5 "/>
<text text-anchor="start" x="126.5" y="-264.8" font-family="Helvetica, Arial, sans-serif" font-size="14.00" fill="#000000">effect: 1.846</text>
<text text-anchor="start" x="129" y="-248.8" font-family="Helvetica, Arial, sans-serif" font-size="14.00" fill="#000000">error: 0.278</text>
</g>
<!-- DeliveredkcalFraction_s&#45;&gt;cattle_number_s -->
<g id="edge5" class="edge">
<title>DeliveredkcalFraction_s-&gt;cattle_number_s</title>
<path fill="none" stroke="#000000" stroke-width="2" d="M192.8228,-366.3819C190.7527,-358.481 188.4859,-349.8295 186.2274,-341.2095"/>
<polygon fill="#000000" stroke="#000000" stroke-width="2" points="190.2763,-340.0915 183.1719,-329.5479 182.1506,-342.2206 190.2763,-340.0915"/>
</g>
<!-- DeliveredkcalFraction_s&#45;&gt;rurpop_s -->
<g id="edge6" class="edge">
<title>DeliveredkcalFraction_s-&gt;rurpop_s</title>
<path fill="none" stroke="#000000" stroke-width="2" d="M241.8416,-366.4624C251.813,-355.9609 261.1618,-343.5227 266.5,-330 281.1872,-292.794 284.3336,-275.8045 266.5,-240 256.8044,-220.5342 239.7251,-204.6183 222.1747,-192.3311"/>
<polygon fill="#000000" stroke="#000000" stroke-width="2" points="224.1694,-188.6156 211.8391,-185.5166 219.5456,-195.6285 224.1694,-188.6156"/>
</g>
<!-- ndvi_act_med_m&#45;&gt;DeliveredkcalFraction_s -->
<g id="edge7" class="edge">
<title>ndvi_act_med_m-&gt;DeliveredkcalFraction_s</title>
<path fill="none" stroke="#000000" stroke-width="2" d="M201.5,-469.4034C201.5,-461.4092 201.5,-453.0684 201.5,-445.0478"/>
<polygon fill="#000000" stroke="#000000" stroke-width="2" points="205.7001,-444.8032 201.5,-432.8032 197.3001,-444.8032 205.7001,-444.8032"/>
</g>
<!-- ndvi_act_med_m&#45;&gt;yield_gap_rice_s -->
<g id="edge8" class="edge">
<title>ndvi_act_med_m-&gt;yield_gap_rice_s</title>
<path fill="none" stroke="#000000" stroke-width="2" d="M257.5686,-479.3151C273.1789,-466.7376 288.3502,-451.0989 297.5,-433 332.2474,-364.267 330.0368,-272.962 323.8492,-215.7133"/>
<polygon fill="#000000" stroke="#000000" stroke-width="2" points="328.0076,-215.1118 322.436,-203.6838 319.6649,-216.092 328.0076,-215.1118"/>
</g>
<!-- ndvi_act_med_m&#45;&gt;acl_sum_evnt_m -->
<g id="edge9" class="edge">
<title>ndvi_act_med_m-&gt;acl_sum_evnt_m</title>
<path fill="none" stroke="#000000" stroke-width="2" d="M145.4076,-476.1859C130.6478,-463.9121 115.95,-449.2249 105.5,-433 38.6873,-329.2648 23.7537,-282.5828 47.5,-161.5"/>
<path fill="none" stroke="#000000" stroke-width="2" d="M47.5,-161.5C53.8249,-130.325 79.4779,-106.2977 104.9542,-89.5654"/>
<polygon fill="#000000" stroke="#000000" stroke-width="2" points="107.444,-92.9632 115.4234,-83.0652 103.0131,-85.8269 107.444,-92.9632"/>
</g>
<!-- cattle_number_s&#45;&gt;yield_gap_rice_s -->
<g id="edge10" class="edge">
<title>cattle_number_s-&gt;yield_gap_rice_s</title>
<path fill="none" stroke="#000000" stroke-width="2" d="M223.4873,-240.4137C234.4385,-231.0215 246.0607,-221.0538 257.2256,-211.4784"/>
<polygon fill="#000000" stroke="#000000" stroke-width="2" points="260.0972,-214.5487 266.4718,-203.5485 254.6287,-208.1725 260.0972,-214.5487"/>
</g>
<!-- cattle_number_s&#45;&gt;rurpop_s -->
<g id="edge11" class="edge">
<title>cattle_number_s-&gt;rurpop_s</title>
<path fill="none" stroke="#000000" stroke-width="2" d="M168.2508,-240.4137C167.2282,-226.3815 166.112,-211.0649 165.1374,-197.6907"/>
<polygon fill="#000000" stroke="#000000" stroke-width="2" points="169.3151,-197.2315 164.254,-185.5685 160.9374,-197.8421 169.3151,-197.2315"/>
</g>
<!-- cattle_number_s&#45;&gt;acl_sum_evnt_m -->
<g id="edge12" class="edge">
<title>cattle_number_s-&gt;acl_sum_evnt_m</title>
<path fill="none" stroke="#000000" stroke-width="2" d="M91.3464,-243.1519C63.6627,-222.4579 40.9802,-194.7444 47.5,-161.5"/>
</g>
<!-- spi_1_f2_m -->
<g id="node5" class="node rankA">
<title>spi_1_f2_m</title>
<path fill="none" stroke="#000000" d="M12,-616C12,-616 143,-616 143,-616 149,-616 155,-622 155,-628 155,-628 155,-670 155,-670 155,-676 149,-682 143,-682 143,-682 12,-682 12,-682 6,-682 0,-676 0,-670 0,-670 0,-628 0,-628 0,-622 6,-616 12,-616"/>
<text text-anchor="start" x="28" y="-663.2" font-family="Helvetica, Arial, sans-serif" font-size="16.00" fill="#000000">Precipitation</text>
<text text-anchor="start" x="9.5" y="-645.2" font-family="Helvetica, Arial, sans-serif" font-size="16.00" fill="#000000">anomalies over a</text>
<text text-anchor="start" x="44.5" y="-627.2" font-family="Helvetica, Arial, sans-serif" font-size="16.00" fill="#000000">1-month</text>
</g>
<!-- spi_1_f2_m&#45;&gt;ndvi_act_med_m -->
<g id="edge13" class="edge">
<title>spi_1_f2_m-&gt;ndvi_act_med_m</title>
<path fill="none" stroke="#000000" stroke-width="2" d="M107.8338,-615.9753C121.2035,-601.4196 137.2586,-583.9402 152.2697,-567.5975"/>
<polygon fill="#000000" stroke="#000000" stroke-width="2" points="155.4538,-570.3397 160.4782,-558.6609 149.2674,-564.6574 155.4538,-570.3397"/>
</g>
<!-- spi_1_f2_m&#45;&gt;cattle_number_s -->
<g id="edge14" class="edge">
<title>spi_1_f2_m-&gt;cattle_number_s</title>
<path fill="none" stroke="#000000" stroke-width="2" d="M74.7564,-615.6965C71.5661,-561.2246 70.5819,-450.667 105.5,-366 109.2368,-356.9392 114.3363,-348.0949 120.0568,-339.7794"/>
<polygon fill="#000000" stroke="#000000" stroke-width="2" points="123.5789,-342.0788 127.2926,-329.9195 116.8068,-337.109 123.5789,-342.0788"/>
</g>
<!-- rurpop_s&#45;&gt;acl_sum_evnt_m -->
<g id="edge15" class="edge">
<title>rurpop_s-&gt;acl_sum_evnt_m</title>
<path fill="none" stroke="#000000" stroke-width="2" d="M162.5,-137.4277C162.5,-124.8011 162.5,-109.1149 162.5,-95.2452"/>
<polygon fill="#000000" stroke="#000000" stroke-width="2" points="166.7001,-95.1581 162.5,-83.1582 158.3001,-95.1582 166.7001,-95.1581"/>
</g>
</g>
<style>.node path {
  stroke: #fff;
}
.node text {
  fill: #fff;
}
.node polyline {
  stroke: #fff;
}
.rankA path {
  fill: #2e3348;
}
.rankB path {
  fill: #437387;
}
.rankC path {
  fill: #1b6002;
}
.edge path {
  stroke: #666;
};
</style></svg>
