<?xml version="1.0" encoding="UTF-8" standalone="no"?>
<!DOCTYPE svg PUBLIC "-//W3C//DTD SVG 1.1//EN" "http://www.w3.org/Graphics/SVG/1.1/DTD/svg11.dtd">
<!-- Generated by graphviz version 2.40.1 (20161225.0304)
 -->
<!-- Title: causalModel Pages: 1 -->
<svg xmlns="http://www.w3.org/2000/svg" xmlns:xlink="http://www.w3.org/1999/xlink" width="" height="" viewBox="0.00 0.00 637.05 785.00" preserveAspectRatio="xMinYMin">
<g id="graph0" class="graph" transform="scale(1 1) rotate(0) translate(4 781)">
<title>causalModel</title>
<polygon fill="#ffffff" stroke="transparent" points="-4,4 -4,-781 633.0505,-781 633.0505,4 -4,4"/>
<!-- et_anom_m_STD_m -->
<g id="node1" class="node rankA">
<title>et_anom_m_STD_m</title>
<path fill="none" stroke="#000000" d="M293.5,-669.5C293.5,-669.5 433.5,-669.5 433.5,-669.5 439.5,-669.5 445.5,-675.5 445.5,-681.5 445.5,-681.5 445.5,-764.5 445.5,-764.5 445.5,-770.5 439.5,-776.5 433.5,-776.5 433.5,-776.5 293.5,-776.5 293.5,-776.5 287.5,-776.5 281.5,-770.5 281.5,-764.5 281.5,-764.5 281.5,-681.5 281.5,-681.5 281.5,-675.5 287.5,-669.5 293.5,-669.5"/>
<text text-anchor="start" x="318.5" y="-757.7" font-family="Helvetica, Arial, sans-serif" font-size="16.00" fill="#000000">Variation in</text>
<text text-anchor="start" x="288.5" y="-739.7" font-family="Helvetica, Arial, sans-serif" font-size="16.00" fill="#000000">evapotranspiration</text>
<text text-anchor="start" x="330" y="-721.7" font-family="Helvetica, Arial, sans-serif" font-size="16.00" fill="#000000">patterns</text>
<polyline fill="none" stroke="#000000" points="281.5,-710.5 445.5,-710.5 "/>
<text text-anchor="start" x="315.5" y="-693.8" font-family="Helvetica, Arial, sans-serif" font-size="14.00" fill="#000000">effect: -0.053</text>
<text text-anchor="start" x="320.5" y="-677.8" font-family="Helvetica, Arial, sans-serif" font-size="14.00" fill="#000000">error: 0.075</text>
</g>
<!-- ndvi_act_med_m -->
<g id="node2" class="node rankB">
<title>ndvi_act_med_m</title>
<path fill="none" stroke="#000000" d="M154,-525.5C154,-525.5 311,-525.5 311,-525.5 317,-525.5 323,-531.5 323,-537.5 323,-537.5 323,-584.5 323,-584.5 323,-590.5 317,-596.5 311,-596.5 311,-596.5 154,-596.5 154,-596.5 148,-596.5 142,-590.5 142,-584.5 142,-584.5 142,-537.5 142,-537.5 142,-531.5 148,-525.5 154,-525.5"/>
<text text-anchor="start" x="149.5" y="-577.7" font-family="Helvetica, Arial, sans-serif" font-size="16.00" fill="#000000">Density of greenness</text>
<polyline fill="none" stroke="#000000" points="142,-566.5 323,-566.5 "/>
<text text-anchor="start" x="184.5" y="-549.8" font-family="Helvetica, Arial, sans-serif" font-size="14.00" fill="#000000">effect: -0.342</text>
<text text-anchor="start" x="189.5" y="-533.8" font-family="Helvetica, Arial, sans-serif" font-size="14.00" fill="#000000">error: 0.113</text>
</g>
<!-- et_anom_m_STD_m&#45;&gt;ndvi_act_med_m -->
<g id="edge1" class="edge">
<title>et_anom_m_STD_m-&gt;ndvi_act_med_m</title>
<path fill="none" stroke="#000000" stroke-width="2" d="M319.8789,-669.0563C303.4515,-648.7415 284.9497,-625.8614 269.2146,-606.4027"/>
<polygon fill="#000000" stroke="#000000" stroke-width="2" points="272.3108,-603.552 261.4995,-596.862 265.7791,-608.8339 272.3108,-603.552"/>
</g>
<!-- yield_gap_rice_s -->
<g id="node3" class="node rankB">
<title>yield_gap_rice_s</title>
<path fill="none" stroke="#000000" d="M346,-121.5C346,-121.5 553,-121.5 553,-121.5 559,-121.5 565,-127.5 565,-133.5 565,-133.5 565,-157.5 565,-157.5 565,-163.5 559,-169.5 553,-169.5 553,-169.5 346,-169.5 346,-169.5 340,-169.5 334,-163.5 334,-157.5 334,-157.5 334,-133.5 334,-133.5 334,-127.5 340,-121.5 346,-121.5"/>
<text text-anchor="start" x="341.5" y="-150.7" font-family="Helvetica, Arial, sans-serif" font-size="16.00" fill="#000000">Gap between observed and</text>
<text text-anchor="start" x="376" y="-132.7" font-family="Helvetica, Arial, sans-serif" font-size="16.00" fill="#000000">potential rice yield</text>
</g>
<!-- et_anom_m_STD_m&#45;&gt;yield_gap_rice_s -->
<g id="edge2" class="edge">
<title>et_anom_m_STD_m-&gt;yield_gap_rice_s</title>
<path fill="none" stroke="#000000" stroke-width="2" d="M609.5,-278C586.5887,-234.046 542.164,-199.0978 505.9281,-176.1539"/>
<polygon fill="#000000" stroke="#000000" stroke-width="2" points="507.8859,-172.4271 495.4652,-169.7131 503.4825,-179.5804 507.8859,-172.4271"/>
</g>
<!-- rurpop_s -->
<g id="node4" class="node rankB">
<title>rurpop_s</title>
<path fill="none" stroke="#000000" d="M108,-127.5C108,-127.5 293,-127.5 293,-127.5 299,-127.5 305,-133.5 305,-139.5 305,-139.5 305,-151.5 305,-151.5 305,-157.5 299,-163.5 293,-163.5 293,-163.5 108,-163.5 108,-163.5 102,-163.5 96,-157.5 96,-151.5 96,-151.5 96,-139.5 96,-139.5 96,-133.5 102,-127.5 108,-127.5"/>
<text text-anchor="start" x="103.5" y="-141.7" font-family="Helvetica, Arial, sans-serif" font-size="16.00" fill="#000000">Population in rural areas</text>
</g>
<!-- et_anom_m_STD_m&#45;&gt;rurpop_s -->
<g id="edge3" class="edge">
<title>et_anom_m_STD_m-&gt;rurpop_s</title>
<path fill="none" stroke="#000000" stroke-width="2" d="M431.1058,-669.3458C527.2398,-586.1878 683.9667,-420.8603 609.5,-278"/>
<path fill="none" stroke="#000000" stroke-width="2" d="M609.5,-278C593.2821,-248.9207 400.9691,-196.0066 285.9213,-166.6116"/>
<polygon fill="#000000" stroke="#000000" stroke-width="2" points="286.6735,-162.4692 274.0084,-163.5812 284.6026,-170.61 286.6735,-162.4692"/>
</g>
<!-- acl_sum_evnt_m -->
<g id="node5" class="node rankC">
<title>acl_sum_evnt_m</title>
<path fill="none" stroke="#000000" d="M112,-.5C112,-.5 289,-.5 289,-.5 295,-.5 301,-6.5 301,-12.5 301,-12.5 301,-36.5 301,-36.5 301,-42.5 295,-48.5 289,-48.5 289,-48.5 112,-48.5 112,-48.5 106,-48.5 100,-42.5 100,-36.5 100,-36.5 100,-12.5 100,-12.5 100,-6.5 106,-.5 112,-.5"/>
<text text-anchor="start" x="107.5" y="-29.7" font-family="Helvetica, Arial, sans-serif" font-size="16.00" fill="#000000">Total number of conflict</text>
<text text-anchor="start" x="174.5" y="-11.7" font-family="Helvetica, Arial, sans-serif" font-size="16.00" fill="#000000">events</text>
</g>
<!-- et_anom_m_STD_m&#45;&gt;acl_sum_evnt_m -->
<g id="edge4" class="edge">
<title>et_anom_m_STD_m-&gt;acl_sum_evnt_m</title>
<path fill="none" stroke="#000000" stroke-width="2" d="M609.5,-278C574.8976,-215.9566 628.1904,-172.7297 579.5,-121 543.3145,-82.5558 411.2317,-55.2084 313.1154,-39.6626"/>
<polygon fill="#000000" stroke="#000000" stroke-width="2" points="313.5286,-35.4764 301.0251,-37.779 312.2355,-43.7763 313.5286,-35.4764"/>
</g>
<!-- ndvi_act_med_m&#45;&gt;yield_gap_rice_s -->
<g id="edge8" class="edge">
<title>ndvi_act_med_m-&gt;yield_gap_rice_s</title>
<path fill="none" stroke="#000000" stroke-width="2" d="M279.9401,-525.2971C302.7573,-506.0361 328.9058,-480.5818 346.5,-453 403.0348,-364.3724 431.894,-241.4453 443.3737,-181.401"/>
<polygon fill="#000000" stroke="#000000" stroke-width="2" points="447.5079,-182.1418 445.5633,-169.5776 439.2483,-180.6122 447.5079,-182.1418"/>
</g>
<!-- ndvi_act_med_m&#45;&gt;acl_sum_evnt_m -->
<g id="edge9" class="edge">
<title>ndvi_act_med_m-&gt;acl_sum_evnt_m</title>
<path fill="none" stroke="#000000" stroke-width="2" d="M183.7405,-525.2751C160.8753,-506.1859 135.0767,-480.8884 118.5,-453 47.0322,-332.7634 25.1253,-282.864 51.5,-145.5"/>
<path fill="none" stroke="#000000" stroke-width="2" d="M51.5,-145.5C59.7434,-104.1863 96.1822,-74.1683 130.9582,-54.3648"/>
<polygon fill="#000000" stroke="#000000" stroke-width="2" points="133.1269,-57.9665 141.6644,-48.5456 129.1154,-50.5862 133.1269,-57.9665"/>
</g>
<!-- DeliveredkcalFraction_s -->
<g id="node6" class="node rankB">
<title>DeliveredkcalFraction_s</title>
<path fill="none" stroke="#000000" d="M145.5,-386.5C145.5,-386.5 319.5,-386.5 319.5,-386.5 325.5,-386.5 331.5,-392.5 331.5,-398.5 331.5,-398.5 331.5,-440.5 331.5,-440.5 331.5,-446.5 325.5,-452.5 319.5,-452.5 319.5,-452.5 145.5,-452.5 145.5,-452.5 139.5,-452.5 133.5,-446.5 133.5,-440.5 133.5,-440.5 133.5,-398.5 133.5,-398.5 133.5,-392.5 139.5,-386.5 145.5,-386.5"/>
<text text-anchor="start" x="160.5" y="-433.7" font-family="Helvetica, Arial, sans-serif" font-size="16.00" fill="#000000">Portion of calories</text>
<text text-anchor="start" x="140.5" y="-415.7" font-family="Helvetica, Arial, sans-serif" font-size="16.00" fill="#000000">produced going toward</text>
<text text-anchor="start" x="215" y="-397.7" font-family="Helvetica, Arial, sans-serif" font-size="16.00" fill="#000000">food</text>
</g>
<!-- ndvi_act_med_m&#45;&gt;DeliveredkcalFraction_s -->
<g id="edge7" class="edge">
<title>ndvi_act_med_m-&gt;DeliveredkcalFraction_s</title>
<path fill="none" stroke="#000000" stroke-width="2" d="M232.5,-525.2936C232.5,-506.939 232.5,-484.3747 232.5,-464.8062"/>
<polygon fill="#000000" stroke="#000000" stroke-width="2" points="236.7001,-464.7648 232.5,-452.7649 228.3001,-464.7649 236.7001,-464.7648"/>
</g>
<!-- rurpop_s&#45;&gt;acl_sum_evnt_m -->
<g id="edge15" class="edge">
<title>rurpop_s-&gt;acl_sum_evnt_m</title>
<path fill="none" stroke="#000000" stroke-width="2" d="M200.5,-127.3851C200.5,-109.8597 200.5,-82.7984 200.5,-60.8274"/>
<polygon fill="#000000" stroke="#000000" stroke-width="2" points="204.7001,-60.59 200.5,-48.59 196.3001,-60.59 204.7001,-60.59"/>
</g>
<!-- DeliveredkcalFraction_s&#45;&gt;rurpop_s -->
<g id="edge6" class="edge">
<title>DeliveredkcalFraction_s-&gt;rurpop_s</title>
<path fill="none" stroke="#000000" stroke-width="2" d="M269.2533,-386.2166C287.5524,-367.1171 307.7982,-341.5053 317.5,-314 328.1444,-283.8223 331.1463,-270.9444 317.5,-242 302.8449,-210.916 272.7212,-186.4441 246.7111,-169.9217"/>
<polygon fill="#000000" stroke="#000000" stroke-width="2" points="248.6794,-166.2029 236.2457,-163.5487 244.3104,-173.3773 248.6794,-166.2029"/>
</g>
<!-- cattle_number_s -->
<g id="node7" class="node rankB">
<title>cattle_number_s</title>
<path fill="none" stroke="#000000" d="M108,-242.5C108,-242.5 291,-242.5 291,-242.5 297,-242.5 303,-248.5 303,-254.5 303,-254.5 303,-301.5 303,-301.5 303,-307.5 297,-313.5 291,-313.5 291,-313.5 108,-313.5 108,-313.5 102,-313.5 96,-307.5 96,-301.5 96,-301.5 96,-254.5 96,-254.5 96,-248.5 102,-242.5 108,-242.5"/>
<text text-anchor="start" x="103.5" y="-294.7" font-family="Helvetica, Arial, sans-serif" font-size="16.00" fill="#000000">Count of livestock cattle</text>
<polyline fill="none" stroke="#000000" points="96,-283.5 303,-283.5 "/>
<text text-anchor="start" x="154.5" y="-266.8" font-family="Helvetica, Arial, sans-serif" font-size="14.00" fill="#000000">effect: 1.846</text>
<text text-anchor="start" x="157" y="-250.8" font-family="Helvetica, Arial, sans-serif" font-size="14.00" fill="#000000">error: 0.278</text>
</g>
<!-- DeliveredkcalFraction_s&#45;&gt;cattle_number_s -->
<g id="edge5" class="edge">
<title>DeliveredkcalFraction_s-&gt;cattle_number_s</title>
<path fill="none" stroke="#000000" stroke-width="2" d="M224.763,-386.3245C220.5309,-368.1778 215.2153,-345.3852 210.5531,-325.3946"/>
<polygon fill="#000000" stroke="#000000" stroke-width="2" points="214.6396,-324.4239 207.8238,-313.6914 206.4591,-326.3318 214.6396,-324.4239"/>
</g>
<!-- cattle_number_s&#45;&gt;yield_gap_rice_s -->
<g id="edge10" class="edge">
<title>cattle_number_s-&gt;yield_gap_rice_s</title>
<path fill="none" stroke="#000000" stroke-width="2" d="M266.4954,-242.4924C306.1191,-221.4919 355.7344,-195.1958 393.3044,-175.2837"/>
<polygon fill="#000000" stroke="#000000" stroke-width="2" points="395.421,-178.9154 404.057,-169.5848 391.4873,-171.4933 395.421,-178.9154"/>
</g>
<!-- cattle_number_s&#45;&gt;rurpop_s -->
<g id="edge11" class="edge">
<title>cattle_number_s-&gt;rurpop_s</title>
<path fill="none" stroke="#000000" stroke-width="2" d="M199.768,-242.4924C199.9255,-221.6155 200.1226,-195.5053 200.2726,-175.6361"/>
<polygon fill="#000000" stroke="#000000" stroke-width="2" points="204.4726,-175.6295 200.3634,-163.5981 196.0729,-175.5661 204.4726,-175.6295"/>
</g>
<!-- cattle_number_s&#45;&gt;acl_sum_evnt_m -->
<g id="edge12" class="edge">
<title>cattle_number_s-&gt;acl_sum_evnt_m</title>
<path fill="none" stroke="#000000" stroke-width="2" d="M116.0569,-242.4112C78.1867,-220.1575 43.4038,-187.6663 51.5,-145.5"/>
</g>
<!-- spi_1_f2_m -->
<g id="node8" class="node rankA">
<title>spi_1_f2_m</title>
<path fill="none" stroke="#000000" d="M12,-699C12,-699 189,-699 189,-699 195,-699 201,-705 201,-711 201,-711 201,-735 201,-735 201,-741 195,-747 189,-747 189,-747 12,-747 12,-747 6,-747 0,-741 0,-735 0,-735 0,-711 0,-711 0,-705 6,-699 12,-699"/>
<text text-anchor="start" x="7.5" y="-728.2" font-family="Helvetica, Arial, sans-serif" font-size="16.00" fill="#000000">Precipitation anomalies</text>
<text text-anchor="start" x="40" y="-710.2" font-family="Helvetica, Arial, sans-serif" font-size="16.00" fill="#000000">over a 1-month</text>
</g>
<!-- spi_1_f2_m&#45;&gt;ndvi_act_med_m -->
<g id="edge13" class="edge">
<title>spi_1_f2_m-&gt;ndvi_act_med_m</title>
<path fill="none" stroke="#000000" stroke-width="2" d="M120.2617,-698.747C140.1853,-674.2954 171.4059,-635.9791 195.8666,-605.9591"/>
<polygon fill="#000000" stroke="#000000" stroke-width="2" points="199.2239,-608.4879 203.548,-596.532 192.7119,-603.1818 199.2239,-608.4879"/>
</g>
<!-- spi_1_f2_m&#45;&gt;cattle_number_s -->
<g id="edge14" class="edge">
<title>spi_1_f2_m-&gt;cattle_number_s</title>
<path fill="none" stroke="#000000" stroke-width="2" d="M97.1194,-698.7699C90.1857,-642.0323 78.1916,-496.9653 118.5,-386 126.7372,-363.3238 141.4464,-341.4219 156.0911,-323.338"/>
<polygon fill="#000000" stroke="#000000" stroke-width="2" points="159.6803,-325.5948 164.1789,-313.7035 153.2466,-320.194 159.6803,-325.5948"/>
</g>
</g>
<style>.node path {
  stroke: #fff;
}
.node text {
  fill: #fff;
}
.rankC.node text {
  fill: #000;
}
.node polyline {
  stroke: #fff;
}
.rankA path {
  fill: #292a40;
}
.rankB path {
  fill: #4a6e81;
}
.rankC path {
  fill: #73b85f;
}
.edge path {
  stroke: #666;
};
</style></svg>
