<?xml version="1.0" encoding="UTF-8" standalone="no"?>
<!DOCTYPE svg PUBLIC "-//W3C//DTD SVG 1.1//EN" "http://www.w3.org/Graphics/SVG/1.1/DTD/svg11.dtd">
<!-- Generated by graphviz version 2.40.1 (20161225.0304)
 -->
<!-- Title: causalModel Pages: 1 -->
<svg xmlns="http://www.w3.org/2000/svg" xmlns:xlink="http://www.w3.org/1999/xlink" width="" height="" viewBox="0.00 0.00 444.37 717.00" preserveAspectRatio="xMinYMin">
<g id="graph0" class="graph" transform="scale(1 1) rotate(0) translate(4 713)">
<title>causalModel</title>
<polygon fill="#ffffff" stroke="transparent" points="-4,4 -4,-713 440.37,-713 440.37,4 -4,4"/>
<text text-anchor="middle" x="218.185" y="-7.8" font-family="Helvetica, Arial, sans-serif" font-size="14.00" fill="#000000">Causal Model: South Asia</text>
<!-- et_anom_m_STD_m -->
<g id="node1" class="node rankA">
<title>et_anom_m_STD_m</title>
<path fill="none" stroke="#000000" d="M221.5,-601.5C221.5,-601.5 365.5,-601.5 365.5,-601.5 371.5,-601.5 377.5,-607.5 377.5,-613.5 377.5,-613.5 377.5,-696.5 377.5,-696.5 377.5,-702.5 371.5,-708.5 365.5,-708.5 365.5,-708.5 221.5,-708.5 221.5,-708.5 215.5,-708.5 209.5,-702.5 209.5,-696.5 209.5,-696.5 209.5,-613.5 209.5,-613.5 209.5,-607.5 215.5,-601.5 221.5,-601.5"/>
<text text-anchor="start" x="248.5" y="-689.7" font-family="Helvetica, Arial, sans-serif" font-size="16.00" fill="#000000">Variation in</text>
<text text-anchor="start" x="218.5" y="-671.7" font-family="Helvetica, Arial, sans-serif" font-size="16.00" fill="#000000">evapotranspiration</text>
<text text-anchor="start" x="260" y="-653.7" font-family="Helvetica, Arial, sans-serif" font-size="16.00" fill="#000000">patterns</text>
<polyline fill="none" stroke="#000000" points="209.5,-642.5 377.5,-642.5 "/>
<text text-anchor="start" x="245.5" y="-625.8" font-family="Helvetica, Arial, sans-serif" font-size="14.00" fill="#000000">effect: -0.053</text>
<text text-anchor="start" x="250.5" y="-609.8" font-family="Helvetica, Arial, sans-serif" font-size="14.00" fill="#000000">error: 0.075</text>
</g>
<!-- ndvi_act_med_m -->
<g id="node3" class="node rankB">
<title>ndvi_act_med_m</title>
<path fill="none" stroke="#000000" d="M157.5,-475.5C157.5,-475.5 245.5,-475.5 245.5,-475.5 251.5,-475.5 257.5,-481.5 257.5,-487.5 257.5,-487.5 257.5,-552.5 257.5,-552.5 257.5,-558.5 251.5,-564.5 245.5,-564.5 245.5,-564.5 157.5,-564.5 157.5,-564.5 151.5,-564.5 145.5,-558.5 145.5,-552.5 145.5,-552.5 145.5,-487.5 145.5,-487.5 145.5,-481.5 151.5,-475.5 157.5,-475.5"/>
<text text-anchor="start" x="161.5" y="-545.7" font-family="Helvetica, Arial, sans-serif" font-size="16.00" fill="#000000">Density of</text>
<text text-anchor="start" x="160.5" y="-527.7" font-family="Helvetica, Arial, sans-serif" font-size="16.00" fill="#000000">greenness</text>
<polyline fill="none" stroke="#000000" points="145.5,-516.5 257.5,-516.5 "/>
<text text-anchor="start" x="153.5" y="-499.8" font-family="Helvetica, Arial, sans-serif" font-size="14.00" fill="#000000">effect: -0.342</text>
<text text-anchor="start" x="158.5" y="-483.8" font-family="Helvetica, Arial, sans-serif" font-size="14.00" fill="#000000">error: 0.113</text>
</g>
<!-- et_anom_m_STD_m&#45;&gt;ndvi_act_med_m -->
<g id="edge1" class="edge">
<title>et_anom_m_STD_m-&gt;ndvi_act_med_m</title>
<path fill="none" stroke="#666666" stroke-width="2" d="M256.8748,-601.2565C250.9682,-592.5892 244.8462,-583.6059 238.9212,-574.9115"/>
<polygon fill="#666666" stroke="#666666" stroke-width="2" points="242.3093,-572.425 232.0807,-564.8739 235.3678,-577.1554 242.3093,-572.425"/>
</g>
<!-- yield_gap_rice_s -->
<g id="node6" class="node rankB">
<title>yield_gap_rice_s</title>
<path fill="none" stroke="#000000" d="M264.5,-125.5C264.5,-125.5 366.5,-125.5 366.5,-125.5 372.5,-125.5 378.5,-131.5 378.5,-137.5 378.5,-137.5 378.5,-197.5 378.5,-197.5 378.5,-203.5 372.5,-209.5 366.5,-209.5 366.5,-209.5 264.5,-209.5 264.5,-209.5 258.5,-209.5 252.5,-203.5 252.5,-197.5 252.5,-197.5 252.5,-137.5 252.5,-137.5 252.5,-131.5 258.5,-125.5 264.5,-125.5"/>
<text text-anchor="start" x="263" y="-190.7" font-family="Helvetica, Arial, sans-serif" font-size="16.00" fill="#000000">Gap between</text>
<text text-anchor="start" x="261.5" y="-172.7" font-family="Helvetica, Arial, sans-serif" font-size="16.00" fill="#000000">observed and</text>
<text text-anchor="start" x="262.5" y="-154.7" font-family="Helvetica, Arial, sans-serif" font-size="16.00" fill="#000000">potential rice</text>
<text text-anchor="start" x="296.5" y="-136.7" font-family="Helvetica, Arial, sans-serif" font-size="16.00" fill="#000000">yield</text>
</g>
<!-- et_anom_m_STD_m&#45;&gt;yield_gap_rice_s -->
<g id="edge2" class="edge">
<title>et_anom_m_STD_m-&gt;yield_gap_rice_s</title>
<path fill="none" stroke="#666666" stroke-width="2" d="M422.5,-291C411.4519,-264.1474 392.1338,-239.025 372.9248,-218.5419"/>
<polygon fill="#666666" stroke="#666666" stroke-width="2" points="375.7937,-215.4669 364.4313,-209.7627 369.7565,-221.3075 375.7937,-215.4669"/>
</g>
<!-- rurpop_s -->
<g id="node7" class="node rankB">
<title>rurpop_s</title>
<path fill="none" stroke="#000000" d="M114,-143.5C114,-143.5 211,-143.5 211,-143.5 217,-143.5 223,-149.5 223,-155.5 223,-155.5 223,-179.5 223,-179.5 223,-185.5 217,-191.5 211,-191.5 211,-191.5 114,-191.5 114,-191.5 108,-191.5 102,-185.5 102,-179.5 102,-179.5 102,-155.5 102,-155.5 102,-149.5 108,-143.5 114,-143.5"/>
<text text-anchor="start" x="111.5" y="-172.7" font-family="Helvetica, Arial, sans-serif" font-size="16.00" fill="#000000">Population in</text>
<text text-anchor="start" x="119" y="-154.7" font-family="Helvetica, Arial, sans-serif" font-size="16.00" fill="#000000">rural areas</text>
</g>
<!-- et_anom_m_STD_m&#45;&gt;rurpop_s -->
<g id="edge3" class="edge">
<title>et_anom_m_STD_m-&gt;rurpop_s</title>
<path fill="none" stroke="#666666" stroke-width="2" d="M337.4792,-601.3253C390.4688,-529.7606 467.1428,-399.5048 422.5,-291"/>
<path fill="none" stroke="#666666" stroke-width="2" d="M422.5,-291C385.9964,-209.4458 318.4722,-249.8503 238.5,-210 230.6861,-206.1063 222.53,-201.8066 214.5838,-197.4821"/>
<polygon fill="#666666" stroke="#666666" stroke-width="2" points="216.4661,-193.7238 203.93,-191.6056 212.409,-201.0791 216.4661,-193.7238"/>
</g>
<!-- acl_sum_evnt_m -->
<g id="node8" class="node rankC">
<title>acl_sum_evnt_m</title>
<path fill="none" stroke="#000000" d="M216.5,-89C216.5,-89 108.5,-89 108.5,-89 102.5,-89 96.5,-83 96.5,-77 96.5,-77 96.5,-51 96.5,-51 96.5,-45 102.5,-39 108.5,-39 108.5,-39 216.5,-39 216.5,-39 222.5,-39 228.5,-45 228.5,-51 228.5,-51 228.5,-77 228.5,-77 228.5,-83 222.5,-89 216.5,-89"/>
<text text-anchor="middle" x="162.5" y="-69.2" font-family="Helvetica, Arial, sans-serif" font-size="16.00" fill="#000000">Total number of</text>
<text text-anchor="middle" x="162.5" y="-51.2" font-family="Helvetica, Arial, sans-serif" font-size="16.00" fill="#000000">conflict events</text>
</g>
<!-- et_anom_m_STD_m&#45;&gt;acl_sum_evnt_m -->
<g id="edge4" class="edge">
<title>et_anom_m_STD_m-&gt;acl_sum_evnt_m</title>
<path fill="none" stroke="#666666" stroke-width="2" d="M422.5,-291C391.9022,-222.6402 444.1548,-180.1668 393.5,-125 372.7986,-102.4547 299.1939,-85.6308 240.5627,-75.4244"/>
<polygon fill="#666666" stroke="#666666" stroke-width="2" points="241.2135,-71.2749 228.6802,-73.4095 239.8091,-79.5567 241.2135,-71.2749"/>
</g>
<!-- DeliveredkcalFraction_s -->
<g id="node2" class="node rankB">
<title>DeliveredkcalFraction_s</title>
<path fill="none" stroke="#000000" d="M132.5,-372.5C132.5,-372.5 270.5,-372.5 270.5,-372.5 276.5,-372.5 282.5,-378.5 282.5,-384.5 282.5,-384.5 282.5,-426.5 282.5,-426.5 282.5,-432.5 276.5,-438.5 270.5,-438.5 270.5,-438.5 132.5,-438.5 132.5,-438.5 126.5,-438.5 120.5,-432.5 120.5,-426.5 120.5,-426.5 120.5,-384.5 120.5,-384.5 120.5,-378.5 126.5,-372.5 132.5,-372.5"/>
<text text-anchor="start" x="163.5" y="-419.7" font-family="Helvetica, Arial, sans-serif" font-size="16.00" fill="#000000">Portion of</text>
<text text-anchor="start" x="130.5" y="-401.7" font-family="Helvetica, Arial, sans-serif" font-size="16.00" fill="#000000">calories produced</text>
<text text-anchor="start" x="129.5" y="-383.7" font-family="Helvetica, Arial, sans-serif" font-size="16.00" fill="#000000">going toward food</text>
</g>
<!-- cattle_number_s -->
<g id="node4" class="node rankB">
<title>cattle_number_s</title>
<path fill="none" stroke="#000000" d="M103.5,-246.5C103.5,-246.5 239.5,-246.5 239.5,-246.5 245.5,-246.5 251.5,-252.5 251.5,-258.5 251.5,-258.5 251.5,-323.5 251.5,-323.5 251.5,-329.5 245.5,-335.5 239.5,-335.5 239.5,-335.5 103.5,-335.5 103.5,-335.5 97.5,-335.5 91.5,-329.5 91.5,-323.5 91.5,-323.5 91.5,-258.5 91.5,-258.5 91.5,-252.5 97.5,-246.5 103.5,-246.5"/>
<text text-anchor="start" x="100.5" y="-316.7" font-family="Helvetica, Arial, sans-serif" font-size="16.00" fill="#000000">Count of livestock</text>
<text text-anchor="start" x="148.5" y="-298.7" font-family="Helvetica, Arial, sans-serif" font-size="16.00" fill="#000000">cattle</text>
<polyline fill="none" stroke="#000000" points="91.5,-287.5 251.5,-287.5 "/>
<text text-anchor="start" x="126.5" y="-270.8" font-family="Helvetica, Arial, sans-serif" font-size="14.00" fill="#000000">effect: 1.846</text>
<text text-anchor="start" x="129" y="-254.8" font-family="Helvetica, Arial, sans-serif" font-size="14.00" fill="#000000">error: 0.278</text>
</g>
<!-- DeliveredkcalFraction_s&#45;&gt;cattle_number_s -->
<g id="edge5" class="edge">
<title>DeliveredkcalFraction_s-&gt;cattle_number_s</title>
<path fill="none" stroke="#666666" stroke-width="2" d="M192.8228,-372.3819C190.7527,-364.481 188.4859,-355.8295 186.2274,-347.2095"/>
<polygon fill="#666666" stroke="#666666" stroke-width="2" points="190.2763,-346.0915 183.1719,-335.5479 182.1506,-348.2206 190.2763,-346.0915"/>
</g>
<!-- DeliveredkcalFraction_s&#45;&gt;rurpop_s -->
<g id="edge6" class="edge">
<title>DeliveredkcalFraction_s-&gt;rurpop_s</title>
<path fill="none" stroke="#666666" stroke-width="2" d="M241.8416,-372.4624C251.813,-361.9609 261.1618,-349.5227 266.5,-336 281.1872,-298.794 284.3336,-281.8045 266.5,-246 256.8044,-226.5342 239.7251,-210.6183 222.1747,-198.3311"/>
<polygon fill="#666666" stroke="#666666" stroke-width="2" points="224.1694,-194.6156 211.8391,-191.5166 219.5456,-201.6285 224.1694,-194.6156"/>
</g>
<!-- ndvi_act_med_m&#45;&gt;DeliveredkcalFraction_s -->
<g id="edge7" class="edge">
<title>ndvi_act_med_m-&gt;DeliveredkcalFraction_s</title>
<path fill="none" stroke="#666666" stroke-width="2" d="M201.5,-475.4034C201.5,-467.4092 201.5,-459.0684 201.5,-451.0478"/>
<polygon fill="#666666" stroke="#666666" stroke-width="2" points="205.7001,-450.8032 201.5,-438.8032 197.3001,-450.8032 205.7001,-450.8032"/>
</g>
<!-- ndvi_act_med_m&#45;&gt;yield_gap_rice_s -->
<g id="edge8" class="edge">
<title>ndvi_act_med_m-&gt;yield_gap_rice_s</title>
<path fill="none" stroke="#666666" stroke-width="2" d="M257.5686,-485.3151C273.1789,-472.7376 288.3502,-457.0989 297.5,-439 332.2474,-370.267 330.0368,-278.962 323.8492,-221.7133"/>
<polygon fill="#666666" stroke="#666666" stroke-width="2" points="328.0076,-221.1118 322.436,-209.6838 319.6649,-222.092 328.0076,-221.1118"/>
</g>
<!-- ndvi_act_med_m&#45;&gt;acl_sum_evnt_m -->
<g id="edge9" class="edge">
<title>ndvi_act_med_m-&gt;acl_sum_evnt_m</title>
<path fill="none" stroke="#666666" stroke-width="2" d="M145.4076,-482.1859C130.6478,-469.9121 115.95,-455.2249 105.5,-439 38.6873,-335.2648 24.6383,-288.753 47.5,-167.5"/>
<path fill="none" stroke="#666666" stroke-width="2" d="M47.5,-167.5C53.4504,-137.0312 77.4678,-112.978 102.0259,-95.7578"/>
<polygon fill="#666666" stroke="#666666" stroke-width="2" points="104.4862,-99.1659 112.1616,-89.0304 99.8408,-92.1672 104.4862,-99.1659"/>
</g>
<!-- cattle_number_s&#45;&gt;yield_gap_rice_s -->
<g id="edge10" class="edge">
<title>cattle_number_s-&gt;yield_gap_rice_s</title>
<path fill="none" stroke="#666666" stroke-width="2" d="M223.4873,-246.4137C234.4385,-237.0215 246.0607,-227.0538 257.2256,-217.4784"/>
<polygon fill="#666666" stroke="#666666" stroke-width="2" points="260.0972,-220.5487 266.4718,-209.5485 254.6287,-214.1725 260.0972,-220.5487"/>
</g>
<!-- cattle_number_s&#45;&gt;rurpop_s -->
<g id="edge11" class="edge">
<title>cattle_number_s-&gt;rurpop_s</title>
<path fill="none" stroke="#666666" stroke-width="2" d="M168.2508,-246.4137C167.2282,-232.3815 166.112,-217.0649 165.1374,-203.6907"/>
<polygon fill="#666666" stroke="#666666" stroke-width="2" points="169.3151,-203.2315 164.254,-191.5685 160.9374,-203.8421 169.3151,-203.2315"/>
</g>
<!-- cattle_number_s&#45;&gt;acl_sum_evnt_m -->
<g id="edge12" class="edge">
<title>cattle_number_s-&gt;acl_sum_evnt_m</title>
<path fill="none" stroke="#666666" stroke-width="2" d="M91.207,-248.9178C63.7338,-228.2619 41.2513,-200.6418 47.5,-167.5"/>
</g>
<!-- spi_1_f2_m -->
<g id="node5" class="node rankA">
<title>spi_1_f2_m</title>
<path fill="none" stroke="#000000" d="M12,-622C12,-622 143,-622 143,-622 149,-622 155,-628 155,-634 155,-634 155,-676 155,-676 155,-682 149,-688 143,-688 143,-688 12,-688 12,-688 6,-688 0,-682 0,-676 0,-676 0,-634 0,-634 0,-628 6,-622 12,-622"/>
<text text-anchor="start" x="28" y="-669.2" font-family="Helvetica, Arial, sans-serif" font-size="16.00" fill="#000000">Precipitation</text>
<text text-anchor="start" x="9.5" y="-651.2" font-family="Helvetica, Arial, sans-serif" font-size="16.00" fill="#000000">anomalies over a</text>
<text text-anchor="start" x="44.5" y="-633.2" font-family="Helvetica, Arial, sans-serif" font-size="16.00" fill="#000000">1-month</text>
</g>
<!-- spi_1_f2_m&#45;&gt;ndvi_act_med_m -->
<g id="edge13" class="edge">
<title>spi_1_f2_m-&gt;ndvi_act_med_m</title>
<path fill="none" stroke="#666666" stroke-width="2" d="M107.8338,-621.9753C121.2035,-607.4196 137.2586,-589.9402 152.2697,-573.5975"/>
<polygon fill="#666666" stroke="#666666" stroke-width="2" points="155.4538,-576.3397 160.4782,-564.6609 149.2674,-570.6574 155.4538,-576.3397"/>
</g>
<!-- spi_1_f2_m&#45;&gt;cattle_number_s -->
<g id="edge14" class="edge">
<title>spi_1_f2_m-&gt;cattle_number_s</title>
<path fill="none" stroke="#666666" stroke-width="2" d="M74.7564,-621.6965C71.5661,-567.2246 70.5819,-456.667 105.5,-372 109.2368,-362.9392 114.3363,-354.0949 120.0568,-345.7794"/>
<polygon fill="#666666" stroke="#666666" stroke-width="2" points="123.5789,-348.0788 127.2926,-335.9195 116.8068,-343.109 123.5789,-348.0788"/>
</g>
<!-- rurpop_s&#45;&gt;acl_sum_evnt_m -->
<g id="edge15" class="edge">
<title>rurpop_s-&gt;acl_sum_evnt_m</title>
<path fill="none" stroke="#666666" stroke-width="2" d="M162.5,-143.4949C162.5,-131.0589 162.5,-115.5879 162.5,-101.6083"/>
<polygon fill="#666666" stroke="#666666" stroke-width="2" points="166.7001,-101.3189 162.5,-89.3189 158.3001,-101.319 166.7001,-101.3189"/>
</g>
</g>
<style>.node path {
  stroke: #fff;
}
.node text {
  fill: #fff;
}
.node polyline {
  stroke: #fff;
}
.rankA path {
  fill: #1b6002;
}
.rankB path {
  fill: #437387;
}
.rankC path {
  fill: #2e3348;
}
</style></svg>
