<?xml version="1.0" encoding="UTF-8" standalone="no"?>
<!DOCTYPE svg PUBLIC "-//W3C//DTD SVG 1.1//EN" "http://www.w3.org/Graphics/SVG/1.1/DTD/svg11.dtd">
<!-- Generated by graphviz version 2.40.1 (20161225.0304)
 -->
<!-- Title: causalModel Pages: 1 -->
<svg xmlns="http://www.w3.org/2000/svg" xmlns:xlink="http://www.w3.org/1999/xlink" width="" height="" viewBox="0.00 0.00 469.15 741.00" preserveAspectRatio="xMinYMin">
<g id="graph0" class="graph" transform="scale(1 1) rotate(0) translate(4 737)">
<title>causalModel</title>
<polygon fill="#ffffff" stroke="transparent" points="-4,4 -4,-737 465.1512,-737 465.1512,4 -4,4"/>
<text text-anchor="start" x="126.5756" y="-10.3" font-family="Helvetica, Arial, sans-serif" font-weight="bold" font-size="14.00" fill="#000000">Causal Model: South Asia</text>
<!-- et_anom_m_STD_m -->
<g id="node1" class="node rankA">
<title>et_anom_m_STD_m</title>
<path fill="none" stroke="#000000" d="M217,-643.5C217,-643.5 361,-643.5 361,-643.5 367,-643.5 373,-649.5 373,-655.5 373,-655.5 373,-720.5 373,-720.5 373,-726.5 367,-732.5 361,-732.5 361,-732.5 217,-732.5 217,-732.5 211,-732.5 205,-726.5 205,-720.5 205,-720.5 205,-655.5 205,-655.5 205,-649.5 211,-643.5 217,-643.5"/>
<text text-anchor="start" x="244" y="-713.7" font-family="Helvetica, Arial, sans-serif" font-size="16.00" fill="#000000">Variation in</text>
<text text-anchor="start" x="214" y="-695.7" font-family="Helvetica, Arial, sans-serif" font-size="16.00" fill="#000000">evapotranspiration</text>
<polyline fill="none" stroke="#000000" points="205,-684.5 373,-684.5 "/>
<text text-anchor="start" x="241" y="-667.8" font-family="Helvetica, Arial, sans-serif" font-size="14.00" fill="#000000">effect: -0.053</text>
<text text-anchor="start" x="246" y="-651.8" font-family="Helvetica, Arial, sans-serif" font-size="14.00" fill="#000000">error: 0.075</text>
</g>
<!-- ndvi_act_med_m -->
<g id="node3" class="node rankB">
<title>ndvi_act_med_m</title>
<path fill="none" stroke="#000000" d="M138,-517.5C138,-517.5 226,-517.5 226,-517.5 232,-517.5 238,-523.5 238,-529.5 238,-529.5 238,-594.5 238,-594.5 238,-600.5 232,-606.5 226,-606.5 226,-606.5 138,-606.5 138,-606.5 132,-606.5 126,-600.5 126,-594.5 126,-594.5 126,-529.5 126,-529.5 126,-523.5 132,-517.5 138,-517.5"/>
<text text-anchor="start" x="142" y="-587.7" font-family="Helvetica, Arial, sans-serif" font-size="16.00" fill="#000000">Density of</text>
<text text-anchor="start" x="141" y="-569.7" font-family="Helvetica, Arial, sans-serif" font-size="16.00" fill="#000000">greenness</text>
<polyline fill="none" stroke="#000000" points="126,-558.5 238,-558.5 "/>
<text text-anchor="start" x="134" y="-541.8" font-family="Helvetica, Arial, sans-serif" font-size="14.00" fill="#000000">effect: -0.342</text>
<text text-anchor="start" x="139" y="-525.8" font-family="Helvetica, Arial, sans-serif" font-size="14.00" fill="#000000">error: 0.113</text>
</g>
<!-- et_anom_m_STD_m&#45;&gt;ndvi_act_med_m -->
<g id="edge1" class="edge">
<title>et_anom_m_STD_m-&gt;ndvi_act_med_m</title>
<path fill="none" stroke="#666666" stroke-width="2" d="M250.9745,-643.2223C243.4848,-634.4026 235.5523,-625.0616 227.837,-615.9763"/>
<polygon fill="#666666" stroke="#666666" stroke-width="2" points="230.872,-613.0617 219.903,-606.6335 224.4692,-618.499 230.872,-613.0617"/>
</g>
<!-- yield_gap_rice_s -->
<g id="node6" class="node rankB">
<title>yield_gap_rice_s</title>
<path fill="none" stroke="#000000" d="M265,-117.5C265,-117.5 391,-117.5 391,-117.5 397,-117.5 403,-123.5 403,-129.5 403,-129.5 403,-214.5 403,-214.5 403,-220.5 397,-226.5 391,-226.5 391,-226.5 265,-226.5 265,-226.5 259,-226.5 253,-220.5 253,-214.5 253,-214.5 253,-129.5 253,-129.5 253,-123.5 259,-117.5 265,-117.5"/>
<text text-anchor="start" x="275.5" y="-207.7" font-family="Helvetica, Arial, sans-serif" font-size="16.00" fill="#000000">Gap between</text>
<text text-anchor="start" x="274" y="-189.7" font-family="Helvetica, Arial, sans-serif" font-size="16.00" fill="#000000">observed and</text>
<text text-anchor="start" x="275" y="-171.7" font-family="Helvetica, Arial, sans-serif" font-size="16.00" fill="#000000">potential rice</text>
<text text-anchor="start" x="309" y="-153.7" font-family="Helvetica, Arial, sans-serif" font-size="16.00" fill="#000000">yield</text>
<polyline fill="none" stroke="#000000" points="253,-142.5 403,-142.5 "/>
<text text-anchor="start" x="261" y="-125.8" font-family="Helvetica, Arial, sans-serif" font-size="14.00" fill="#000000">effect: Inestimable</text>
</g>
<!-- et_anom_m_STD_m&#45;&gt;yield_gap_rice_s -->
<g id="edge2" class="edge">
<title>et_anom_m_STD_m-&gt;yield_gap_rice_s</title>
<path fill="none" stroke="#666666" stroke-width="2" d="M447,-308C435.8774,-281.5566 417.5188,-256.6529 398.5122,-235.5625"/>
<polygon fill="#666666" stroke="#666666" stroke-width="2" points="401.5878,-232.7023 390.346,-226.7639 395.4309,-238.4166 401.5878,-232.7023"/>
</g>
<!-- rurpop_s -->
<g id="node7" class="node rankB">
<title>rurpop_s</title>
<path fill="none" stroke="#000000" d="M86,-135.5C86,-135.5 212,-135.5 212,-135.5 218,-135.5 224,-141.5 224,-147.5 224,-147.5 224,-196.5 224,-196.5 224,-202.5 218,-208.5 212,-208.5 212,-208.5 86,-208.5 86,-208.5 80,-208.5 74,-202.5 74,-196.5 74,-196.5 74,-147.5 74,-147.5 74,-141.5 80,-135.5 86,-135.5"/>
<text text-anchor="start" x="98" y="-189.7" font-family="Helvetica, Arial, sans-serif" font-size="16.00" fill="#000000">Population in</text>
<text text-anchor="start" x="105.5" y="-171.7" font-family="Helvetica, Arial, sans-serif" font-size="16.00" fill="#000000">rural areas</text>
<polyline fill="none" stroke="#000000" points="74,-160.5 224,-160.5 "/>
<text text-anchor="start" x="82" y="-143.8" font-family="Helvetica, Arial, sans-serif" font-size="14.00" fill="#000000">effect: Inestimable</text>
</g>
<!-- et_anom_m_STD_m&#45;&gt;rurpop_s -->
<g id="edge3" class="edge">
<title>et_anom_m_STD_m-&gt;rurpop_s</title>
<path fill="none" stroke="#666666" stroke-width="2" d="M331.5596,-643.4889C394.048,-572.4726 497.9707,-429.1804 447,-308"/>
<path fill="none" stroke="#666666" stroke-width="2" d="M447,-308C407.8171,-216.859 327.8965,-271.0384 239,-227 231.5277,-223.2983 223.8659,-219.1731 216.3185,-214.8924"/>
<polygon fill="#666666" stroke="#666666" stroke-width="2" points="218.2433,-211.1535 205.756,-208.7645 214.028,-218.4193 218.2433,-211.1535"/>
</g>
<!-- acl_sum_evnt_m -->
<g id="node8" class="node rankC">
<title>acl_sum_evnt_m</title>
<path fill="none" stroke="#000000" d="M203,-81C203,-81 95,-81 95,-81 89,-81 83,-75 83,-69 83,-69 83,-43 83,-43 83,-37 89,-31 95,-31 95,-31 203,-31 203,-31 209,-31 215,-37 215,-43 215,-43 215,-69 215,-69 215,-75 209,-81 203,-81"/>
<text text-anchor="middle" x="149" y="-61.2" font-family="Helvetica, Arial, sans-serif" font-size="16.00" fill="#000000">Total number of</text>
<text text-anchor="middle" x="149" y="-43.2" font-family="Helvetica, Arial, sans-serif" font-size="16.00" fill="#000000">conflict events</text>
</g>
<!-- et_anom_m_STD_m&#45;&gt;acl_sum_evnt_m -->
<g id="edge4" class="edge">
<title>et_anom_m_STD_m-&gt;acl_sum_evnt_m</title>
<path fill="none" stroke="#666666" stroke-width="2" d="M447,-308C413.0878,-229.119 476.4791,-179.8685 418,-117 392.4243,-89.5046 297.2254,-72.8039 227.3089,-63.9911"/>
<polygon fill="#666666" stroke="#666666" stroke-width="2" points="227.43,-59.7748 215.0092,-62.4884 226.4112,-68.1128 227.43,-59.7748"/>
</g>
<!-- DeliveredkcalFraction_s -->
<g id="node2" class="node rankB">
<title>DeliveredkcalFraction_s</title>
<path fill="none" stroke="#000000" d="M113,-389.5C113,-389.5 251,-389.5 251,-389.5 257,-389.5 263,-395.5 263,-401.5 263,-401.5 263,-468.5 263,-468.5 263,-474.5 257,-480.5 251,-480.5 251,-480.5 113,-480.5 113,-480.5 107,-480.5 101,-474.5 101,-468.5 101,-468.5 101,-401.5 101,-401.5 101,-395.5 107,-389.5 113,-389.5"/>
<text text-anchor="start" x="144" y="-461.7" font-family="Helvetica, Arial, sans-serif" font-size="16.00" fill="#000000">Portion of</text>
<text text-anchor="start" x="111" y="-443.7" font-family="Helvetica, Arial, sans-serif" font-size="16.00" fill="#000000">calories produced</text>
<text text-anchor="start" x="110" y="-425.7" font-family="Helvetica, Arial, sans-serif" font-size="16.00" fill="#000000">going toward food</text>
<polyline fill="none" stroke="#000000" points="101,-414.5 263,-414.5 "/>
<text text-anchor="start" x="115" y="-397.8" font-family="Helvetica, Arial, sans-serif" font-size="14.00" fill="#000000">effect: Inestimable</text>
</g>
<!-- cattle_number_s -->
<g id="node4" class="node rankB">
<title>cattle_number_s</title>
<path fill="none" stroke="#000000" d="M84,-263.5C84,-263.5 220,-263.5 220,-263.5 226,-263.5 232,-269.5 232,-275.5 232,-275.5 232,-340.5 232,-340.5 232,-346.5 226,-352.5 220,-352.5 220,-352.5 84,-352.5 84,-352.5 78,-352.5 72,-346.5 72,-340.5 72,-340.5 72,-275.5 72,-275.5 72,-269.5 78,-263.5 84,-263.5"/>
<text text-anchor="start" x="81" y="-333.7" font-family="Helvetica, Arial, sans-serif" font-size="16.00" fill="#000000">Count of livestock</text>
<text text-anchor="start" x="129" y="-315.7" font-family="Helvetica, Arial, sans-serif" font-size="16.00" fill="#000000">cattle</text>
<polyline fill="none" stroke="#000000" points="72,-304.5 232,-304.5 "/>
<text text-anchor="start" x="107" y="-287.8" font-family="Helvetica, Arial, sans-serif" font-size="14.00" fill="#000000">effect: 1.846</text>
<text text-anchor="start" x="109.5" y="-271.8" font-family="Helvetica, Arial, sans-serif" font-size="14.00" fill="#000000">error: 0.278</text>
</g>
<!-- DeliveredkcalFraction_s&#45;&gt;cattle_number_s -->
<g id="edge5" class="edge">
<title>DeliveredkcalFraction_s-&gt;cattle_number_s</title>
<path fill="none" stroke="#666666" stroke-width="2" d="M171.1693,-389.1501C169.2749,-381.1303 167.2841,-372.7025 165.3314,-364.4364"/>
<polygon fill="#666666" stroke="#666666" stroke-width="2" points="169.3599,-363.2206 162.5136,-352.5076 161.1849,-365.1518 169.3599,-363.2206"/>
</g>
<!-- DeliveredkcalFraction_s&#45;&gt;rurpop_s -->
<g id="edge6" class="edge">
<title>DeliveredkcalFraction_s-&gt;rurpop_s</title>
<path fill="none" stroke="#666666" stroke-width="2" d="M226.8118,-389.2864C235.0845,-378.2324 242.5189,-365.8667 247,-353 260.1557,-315.2253 262.9887,-299.6655 247,-263 239.4251,-245.6291 226.7183,-230.0845 212.9221,-216.9674"/>
<polygon fill="#666666" stroke="#666666" stroke-width="2" points="215.4705,-213.6103 203.7417,-208.7034 209.8505,-219.8535 215.4705,-213.6103"/>
</g>
<!-- ndvi_act_med_m&#45;&gt;DeliveredkcalFraction_s -->
<g id="edge7" class="edge">
<title>ndvi_act_med_m-&gt;DeliveredkcalFraction_s</title>
<path fill="none" stroke="#666666" stroke-width="2" d="M182,-517.2246C182,-509.3523 182,-501.0583 182,-492.8892"/>
<polygon fill="#666666" stroke="#666666" stroke-width="2" points="186.2001,-492.6578 182,-480.6579 177.8001,-492.6579 186.2001,-492.6578"/>
</g>
<!-- ndvi_act_med_m&#45;&gt;yield_gap_rice_s -->
<g id="edge8" class="edge">
<title>ndvi_act_med_m-&gt;yield_gap_rice_s</title>
<path fill="none" stroke="#666666" stroke-width="2" d="M238.0481,-525.9495C253.2664,-513.495 268.223,-498.2684 278,-481 320.6353,-405.6967 329.576,-304.5187 330.2436,-238.7908"/>
<polygon fill="#666666" stroke="#666666" stroke-width="2" points="334.4442,-238.5519 330.2764,-226.5407 326.0442,-238.5293 334.4442,-238.5519"/>
</g>
<!-- ndvi_act_med_m&#45;&gt;acl_sum_evnt_m -->
<g id="edge9" class="edge">
<title>ndvi_act_med_m-&gt;acl_sum_evnt_m</title>
<path fill="none" stroke="#666666" stroke-width="2" d="M125.8658,-524.9403C110.9248,-512.5917 96.1408,-497.6756 86,-481 13.3968,-361.6111 1.6957,-309.2335 28,-172"/>
<path fill="none" stroke="#666666" stroke-width="2" d="M28,-172C35.2948,-136.3233 64.3681,-107.8088 92.1865,-87.9788"/>
<polygon fill="#666666" stroke="#666666" stroke-width="2" points="94.7803,-91.2939 102.3359,-81.0687 90.0529,-84.3504 94.7803,-91.2939"/>
</g>
<!-- cattle_number_s&#45;&gt;yield_gap_rice_s -->
<g id="edge10" class="edge">
<title>cattle_number_s-&gt;yield_gap_rice_s</title>
<path fill="none" stroke="#666666" stroke-width="2" d="M209.629,-263.4685C221.772,-254.0853 234.7944,-244.0225 247.6006,-234.1268"/>
<polygon fill="#666666" stroke="#666666" stroke-width="2" points="250.4058,-237.267 257.3332,-226.6062 245.2697,-230.6202 250.4058,-237.267"/>
</g>
<!-- cattle_number_s&#45;&gt;rurpop_s -->
<g id="edge11" class="edge">
<title>cattle_number_s-&gt;rurpop_s</title>
<path fill="none" stroke="#666666" stroke-width="2" d="M151.0177,-263.4685C150.7194,-249.9456 150.39,-235.0113 150.0853,-221.1999"/>
<polygon fill="#666666" stroke="#666666" stroke-width="2" points="154.2778,-220.8089 149.8141,-208.9044 145.8798,-220.9942 154.2778,-220.8089"/>
</g>
<!-- cattle_number_s&#45;&gt;acl_sum_evnt_m -->
<g id="edge12" class="edge">
<title>cattle_number_s-&gt;acl_sum_evnt_m</title>
<path fill="none" stroke="#666666" stroke-width="2" d="M75.4247,-263.4277C46.043,-240.0082 20.9926,-208.5586 28,-172"/>
</g>
<!-- spi_1_f2_m -->
<g id="node5" class="node rankA">
<title>spi_1_f2_m</title>
<path fill="none" stroke="#000000" d="M12,-651.5C12,-651.5 138,-651.5 138,-651.5 144,-651.5 150,-657.5 150,-663.5 150,-663.5 150,-712.5 150,-712.5 150,-718.5 144,-724.5 138,-724.5 138,-724.5 12,-724.5 12,-724.5 6,-724.5 0,-718.5 0,-712.5 0,-712.5 0,-663.5 0,-663.5 0,-657.5 6,-651.5 12,-651.5"/>
<text text-anchor="start" x="30" y="-705.7" font-family="Helvetica, Arial, sans-serif" font-size="16.00" fill="#000000">Variation in</text>
<text text-anchor="start" x="25" y="-687.7" font-family="Helvetica, Arial, sans-serif" font-size="16.00" fill="#000000">precipitation</text>
<polyline fill="none" stroke="#000000" points="0,-676.5 150,-676.5 "/>
<text text-anchor="start" x="8" y="-659.8" font-family="Helvetica, Arial, sans-serif" font-size="14.00" fill="#000000">effect: Inestimable</text>
</g>
<!-- spi_1_f2_m&#45;&gt;ndvi_act_med_m -->
<g id="edge13" class="edge">
<title>spi_1_f2_m-&gt;ndvi_act_med_m</title>
<path fill="none" stroke="#666666" stroke-width="2" d="M106.2365,-651.2169C115.5817,-640.2122 126.03,-627.9086 136.1103,-616.0383"/>
<polygon fill="#666666" stroke="#666666" stroke-width="2" points="139.5214,-618.5101 144.0876,-606.6446 133.1186,-613.0728 139.5214,-618.5101"/>
</g>
<!-- spi_1_f2_m&#45;&gt;cattle_number_s -->
<g id="edge14" class="edge">
<title>spi_1_f2_m-&gt;cattle_number_s</title>
<path fill="none" stroke="#666666" stroke-width="2" d="M69.0625,-651.1027C61.3171,-593.1492 52.4002,-478.2004 86,-389 89.4549,-379.828 94.3914,-370.9195 100.0303,-362.5717"/>
<polygon fill="#666666" stroke="#666666" stroke-width="2" points="103.5547,-364.8661 107.2045,-352.6875 96.7566,-359.932 103.5547,-364.8661"/>
</g>
<!-- rurpop_s&#45;&gt;acl_sum_evnt_m -->
<g id="edge15" class="edge">
<title>rurpop_s-&gt;acl_sum_evnt_m</title>
<path fill="none" stroke="#666666" stroke-width="2" d="M149,-135.2969C149,-121.917 149,-106.7812 149,-93.346"/>
<polygon fill="#666666" stroke="#666666" stroke-width="2" points="153.2001,-93.0988 149,-81.0988 144.8001,-93.0989 153.2001,-93.0988"/>
</g>
</g>
<style>.node path {
  stroke: #fff;
}
.node text {
  fill: #fff;
}
.node polyline {
  stroke: #fff;
}
.rankA path {
  fill: #1b6002;
}
.rankB path {
  fill: #437387;
}
.rankC path {
  fill: #2e3348;
}
</style></svg>
