<?xml version="1.0" encoding="UTF-8" standalone="no"?>
<!DOCTYPE svg PUBLIC "-//W3C//DTD SVG 1.1//EN" "http://www.w3.org/Graphics/SVG/1.1/DTD/svg11.dtd">
<!-- Generated by graphviz version 2.40.1 (20161225.0304)
 -->
<!-- Title: causalModel Pages: 1 -->
<svg xmlns="http://www.w3.org/2000/svg" xmlns:xlink="http://www.w3.org/1999/xlink" width="" height="" viewBox="0.00 0.00 406.44 699.00" preserveAspectRatio="xMinYMin">
<g id="graph0" class="graph" transform="scale(1 1) rotate(0) translate(4 695)">
<title>causalModel</title>
<polygon fill="#ffffff" stroke="transparent" points="-4,4 -4,-695 402.4405,-695 402.4405,4 -4,4"/>
<text text-anchor="middle" x="199.2203" y="-7.8" font-family="Helvetica, Arial, sans-serif" font-size="14.00" fill="#000000">Causal Model: South Asia</text>
<!-- et_anom_m_STD_m -->
<g id="node1" class="node rankA">
<title>et_anom_m_STD_m</title>
<path fill="none" stroke="#000000" d="M202.2588,-601.5C202.2588,-601.5 346.2588,-601.5 346.2588,-601.5 352.2588,-601.5 358.2588,-607.5 358.2588,-613.5 358.2588,-613.5 358.2588,-678.5 358.2588,-678.5 358.2588,-684.5 352.2588,-690.5 346.2588,-690.5 346.2588,-690.5 202.2588,-690.5 202.2588,-690.5 196.2588,-690.5 190.2588,-684.5 190.2588,-678.5 190.2588,-678.5 190.2588,-613.5 190.2588,-613.5 190.2588,-607.5 196.2588,-601.5 202.2588,-601.5"/>
<text text-anchor="start" x="229.2588" y="-671.7" font-family="Helvetica, Arial, sans-serif" font-size="16.00" fill="#000000">Variation in</text>
<text text-anchor="start" x="199.2588" y="-653.7" font-family="Helvetica, Arial, sans-serif" font-size="16.00" fill="#000000">evapotranspiration</text>
<polyline fill="none" stroke="#000000" points="190.2588,-642.5 358.2588,-642.5 "/>
<text text-anchor="start" x="226.2588" y="-625.8" font-family="Helvetica, Arial, sans-serif" font-size="14.00" fill="#000000">effect: -0.053</text>
<text text-anchor="start" x="231.2588" y="-609.8" font-family="Helvetica, Arial, sans-serif" font-size="14.00" fill="#000000">error: 0.075</text>
</g>
<!-- ndvi_act_med_m -->
<g id="node3" class="node rankB">
<title>ndvi_act_med_m</title>
<path fill="none" stroke="#000000" d="M130.2588,-475.5C130.2588,-475.5 218.2588,-475.5 218.2588,-475.5 224.2588,-475.5 230.2588,-481.5 230.2588,-487.5 230.2588,-487.5 230.2588,-552.5 230.2588,-552.5 230.2588,-558.5 224.2588,-564.5 218.2588,-564.5 218.2588,-564.5 130.2588,-564.5 130.2588,-564.5 124.2588,-564.5 118.2588,-558.5 118.2588,-552.5 118.2588,-552.5 118.2588,-487.5 118.2588,-487.5 118.2588,-481.5 124.2588,-475.5 130.2588,-475.5"/>
<text text-anchor="start" x="134.2588" y="-545.7" font-family="Helvetica, Arial, sans-serif" font-size="16.00" fill="#000000">Density of</text>
<text text-anchor="start" x="133.2588" y="-527.7" font-family="Helvetica, Arial, sans-serif" font-size="16.00" fill="#000000">greenness</text>
<polyline fill="none" stroke="#000000" points="118.2588,-516.5 230.2588,-516.5 "/>
<text text-anchor="start" x="126.2588" y="-499.8" font-family="Helvetica, Arial, sans-serif" font-size="14.00" fill="#000000">effect: -0.342</text>
<text text-anchor="start" x="131.2588" y="-483.8" font-family="Helvetica, Arial, sans-serif" font-size="14.00" fill="#000000">error: 0.113</text>
</g>
<!-- et_anom_m_STD_m&#45;&gt;ndvi_act_med_m -->
<g id="edge1" class="edge">
<title>et_anom_m_STD_m-&gt;ndvi_act_med_m</title>
<path fill="none" stroke="#666666" stroke-width="2" d="M238.721,-601.2223C231.7949,-592.4955 224.4637,-583.2582 217.3249,-574.2632"/>
<polygon fill="#666666" stroke="#666666" stroke-width="2" points="220.4319,-571.422 209.6822,-564.6335 213.8523,-576.6439 220.4319,-571.422"/>
</g>
<!-- yield_gap_rice_s -->
<g id="node6" class="node rankB">
<title>yield_gap_rice_s</title>
<path fill="none" stroke="#000000" d="M226.2588,-125.5C226.2588,-125.5 328.2588,-125.5 328.2588,-125.5 334.2588,-125.5 340.2588,-131.5 340.2588,-137.5 340.2588,-137.5 340.2588,-197.5 340.2588,-197.5 340.2588,-203.5 334.2588,-209.5 328.2588,-209.5 328.2588,-209.5 226.2588,-209.5 226.2588,-209.5 220.2588,-209.5 214.2588,-203.5 214.2588,-197.5 214.2588,-197.5 214.2588,-137.5 214.2588,-137.5 214.2588,-131.5 220.2588,-125.5 226.2588,-125.5"/>
<text text-anchor="start" x="224.7588" y="-190.7" font-family="Helvetica, Arial, sans-serif" font-size="16.00" fill="#000000">Gap between</text>
<text text-anchor="start" x="223.2588" y="-172.7" font-family="Helvetica, Arial, sans-serif" font-size="16.00" fill="#000000">observed and</text>
<text text-anchor="start" x="224.2588" y="-154.7" font-family="Helvetica, Arial, sans-serif" font-size="16.00" fill="#000000">potential rice</text>
<text text-anchor="start" x="258.2588" y="-136.7" font-family="Helvetica, Arial, sans-serif" font-size="16.00" fill="#000000">yield</text>
</g>
<!-- et_anom_m_STD_m&#45;&gt;yield_gap_rice_s -->
<g id="edge2" class="edge">
<title>et_anom_m_STD_m-&gt;yield_gap_rice_s</title>
<path fill="none" stroke="#666666" stroke-width="2" d="M384.2588,-291C373.2107,-264.1474 353.8926,-239.025 334.6836,-218.5419"/>
<polygon fill="#666666" stroke="#666666" stroke-width="2" points="337.5525,-215.4669 326.1901,-209.7627 331.5153,-221.3075 337.5525,-215.4669"/>
</g>
<!-- rurpop_s -->
<g id="node7" class="node rankB">
<title>rurpop_s</title>
<path fill="none" stroke="#000000" d="M75.7588,-143.5C75.7588,-143.5 172.7588,-143.5 172.7588,-143.5 178.7588,-143.5 184.7588,-149.5 184.7588,-155.5 184.7588,-155.5 184.7588,-179.5 184.7588,-179.5 184.7588,-185.5 178.7588,-191.5 172.7588,-191.5 172.7588,-191.5 75.7588,-191.5 75.7588,-191.5 69.7588,-191.5 63.7588,-185.5 63.7588,-179.5 63.7588,-179.5 63.7588,-155.5 63.7588,-155.5 63.7588,-149.5 69.7588,-143.5 75.7588,-143.5"/>
<text text-anchor="start" x="73.2588" y="-172.7" font-family="Helvetica, Arial, sans-serif" font-size="16.00" fill="#000000">Population in</text>
<text text-anchor="start" x="80.7588" y="-154.7" font-family="Helvetica, Arial, sans-serif" font-size="16.00" fill="#000000">rural areas</text>
</g>
<!-- et_anom_m_STD_m&#45;&gt;rurpop_s -->
<g id="edge3" class="edge">
<title>et_anom_m_STD_m-&gt;rurpop_s</title>
<path fill="none" stroke="#666666" stroke-width="2" d="M307.7193,-601.3831C354.4928,-533.2122 428.9404,-399.599 384.2588,-291"/>
<path fill="none" stroke="#666666" stroke-width="2" d="M384.2588,-291C347.4009,-209.6053 280.231,-249.8503 200.2588,-210 192.4449,-206.1063 184.2888,-201.8066 176.3426,-197.4821"/>
<polygon fill="#666666" stroke="#666666" stroke-width="2" points="178.2249,-193.7238 165.6888,-191.6056 174.1678,-201.0791 178.2249,-193.7238"/>
</g>
<!-- acl_sum_evnt_m -->
<g id="node8" class="node rankC">
<title>acl_sum_evnt_m</title>
<path fill="none" stroke="#000000" d="M178.2588,-89C178.2588,-89 70.2588,-89 70.2588,-89 64.2588,-89 58.2588,-83 58.2588,-77 58.2588,-77 58.2588,-51 58.2588,-51 58.2588,-45 64.2588,-39 70.2588,-39 70.2588,-39 178.2588,-39 178.2588,-39 184.2588,-39 190.2588,-45 190.2588,-51 190.2588,-51 190.2588,-77 190.2588,-77 190.2588,-83 184.2588,-89 178.2588,-89"/>
<text text-anchor="middle" x="124.2588" y="-69.2" font-family="Helvetica, Arial, sans-serif" font-size="16.00" fill="#000000">Total number of</text>
<text text-anchor="middle" x="124.2588" y="-51.2" font-family="Helvetica, Arial, sans-serif" font-size="16.00" fill="#000000">conflict events</text>
</g>
<!-- et_anom_m_STD_m&#45;&gt;acl_sum_evnt_m -->
<g id="edge4" class="edge">
<title>et_anom_m_STD_m-&gt;acl_sum_evnt_m</title>
<path fill="none" stroke="#666666" stroke-width="2" d="M384.2588,-291C353.3641,-222.7739 405.9136,-180.1668 355.2588,-125 334.5574,-102.4547 260.9527,-85.6308 202.3215,-75.4244"/>
<polygon fill="#666666" stroke="#666666" stroke-width="2" points="202.9723,-71.2749 190.439,-73.4095 201.5679,-79.5567 202.9723,-71.2749"/>
</g>
<!-- DeliveredkcalFraction_s -->
<g id="node2" class="node rankB">
<title>DeliveredkcalFraction_s</title>
<path fill="none" stroke="#000000" d="M105.2588,-372.5C105.2588,-372.5 243.2588,-372.5 243.2588,-372.5 249.2588,-372.5 255.2588,-378.5 255.2588,-384.5 255.2588,-384.5 255.2588,-426.5 255.2588,-426.5 255.2588,-432.5 249.2588,-438.5 243.2588,-438.5 243.2588,-438.5 105.2588,-438.5 105.2588,-438.5 99.2588,-438.5 93.2588,-432.5 93.2588,-426.5 93.2588,-426.5 93.2588,-384.5 93.2588,-384.5 93.2588,-378.5 99.2588,-372.5 105.2588,-372.5"/>
<text text-anchor="start" x="136.2588" y="-419.7" font-family="Helvetica, Arial, sans-serif" font-size="16.00" fill="#000000">Portion of</text>
<text text-anchor="start" x="103.2588" y="-401.7" font-family="Helvetica, Arial, sans-serif" font-size="16.00" fill="#000000">calories produced</text>
<text text-anchor="start" x="102.2588" y="-383.7" font-family="Helvetica, Arial, sans-serif" font-size="16.00" fill="#000000">going toward food</text>
</g>
<!-- cattle_number_s -->
<g id="node4" class="node rankB">
<title>cattle_number_s</title>
<path fill="none" stroke="#000000" d="M65.2588,-246.5C65.2588,-246.5 201.2588,-246.5 201.2588,-246.5 207.2588,-246.5 213.2588,-252.5 213.2588,-258.5 213.2588,-258.5 213.2588,-323.5 213.2588,-323.5 213.2588,-329.5 207.2588,-335.5 201.2588,-335.5 201.2588,-335.5 65.2588,-335.5 65.2588,-335.5 59.2588,-335.5 53.2588,-329.5 53.2588,-323.5 53.2588,-323.5 53.2588,-258.5 53.2588,-258.5 53.2588,-252.5 59.2588,-246.5 65.2588,-246.5"/>
<text text-anchor="start" x="62.2588" y="-316.7" font-family="Helvetica, Arial, sans-serif" font-size="16.00" fill="#000000">Count of livestock</text>
<text text-anchor="start" x="110.2588" y="-298.7" font-family="Helvetica, Arial, sans-serif" font-size="16.00" fill="#000000">cattle</text>
<polyline fill="none" stroke="#000000" points="53.2588,-287.5 213.2588,-287.5 "/>
<text text-anchor="start" x="88.2588" y="-270.8" font-family="Helvetica, Arial, sans-serif" font-size="14.00" fill="#000000">effect: 1.846</text>
<text text-anchor="start" x="90.7588" y="-254.8" font-family="Helvetica, Arial, sans-serif" font-size="14.00" fill="#000000">error: 0.278</text>
</g>
<!-- DeliveredkcalFraction_s&#45;&gt;cattle_number_s -->
<g id="edge5" class="edge">
<title>DeliveredkcalFraction_s-&gt;cattle_number_s</title>
<path fill="none" stroke="#666666" stroke-width="2" d="M162.3999,-372.3819C159.5386,-364.3912 156.4024,-355.6328 153.281,-346.9156"/>
<polygon fill="#666666" stroke="#666666" stroke-width="2" points="157.2101,-345.4295 149.2104,-335.5479 149.3018,-348.2613 157.2101,-345.4295"/>
</g>
<!-- DeliveredkcalFraction_s&#45;&gt;rurpop_s -->
<g id="edge6" class="edge">
<title>DeliveredkcalFraction_s-&gt;rurpop_s</title>
<path fill="none" stroke="#666666" stroke-width="2" d="M207.02,-372.4947C215.6227,-361.7373 223.7495,-349.1533 228.2588,-336 241.2308,-298.1618 246.0924,-281.8045 228.2588,-246 218.5632,-226.5342 201.4839,-210.6183 183.9335,-198.3311"/>
<polygon fill="#666666" stroke="#666666" stroke-width="2" points="185.9282,-194.6156 173.5979,-191.5166 181.3044,-201.6285 185.9282,-194.6156"/>
</g>
<!-- ndvi_act_med_m&#45;&gt;DeliveredkcalFraction_s -->
<g id="edge7" class="edge">
<title>ndvi_act_med_m-&gt;DeliveredkcalFraction_s</title>
<path fill="none" stroke="#666666" stroke-width="2" d="M174.2588,-475.4034C174.2588,-467.4092 174.2588,-459.0684 174.2588,-451.0478"/>
<polygon fill="#666666" stroke="#666666" stroke-width="2" points="178.4589,-450.8032 174.2588,-438.8032 170.0589,-450.8032 178.4589,-450.8032"/>
</g>
<!-- ndvi_act_med_m&#45;&gt;yield_gap_rice_s -->
<g id="edge8" class="edge">
<title>ndvi_act_med_m-&gt;yield_gap_rice_s</title>
<path fill="none" stroke="#666666" stroke-width="2" d="M230.2702,-485.9398C246.0811,-473.3055 261.3823,-457.4767 270.2588,-439 303.548,-369.7078 297.275,-278.5559 288.3293,-221.4921"/>
<polygon fill="#666666" stroke="#666666" stroke-width="2" points="292.447,-220.6499 286.3315,-209.5036 284.1612,-222.0307 292.447,-220.6499"/>
</g>
<!-- ndvi_act_med_m&#45;&gt;acl_sum_evnt_m -->
<g id="edge9" class="edge">
<title>ndvi_act_med_m-&gt;acl_sum_evnt_m</title>
<path fill="none" stroke="#666666" stroke-width="2" d="M117.9009,-480.4715C103.5685,-468.4101 89.1582,-454.2613 78.2588,-439 5.9,-337.6832 -13.8092,-289.8469 9.2588,-167.5"/>
<path fill="none" stroke="#666666" stroke-width="2" d="M9.2588,-167.5C15.0601,-137.0025 39.063,-112.9465 63.6502,-95.7319"/>
<polygon fill="#666666" stroke="#666666" stroke-width="2" points="66.1162,-99.1363 73.8001,-89.0072 61.4767,-92.1338 66.1162,-99.1363"/>
</g>
<!-- cattle_number_s&#45;&gt;yield_gap_rice_s -->
<g id="edge10" class="edge">
<title>cattle_number_s-&gt;yield_gap_rice_s</title>
<path fill="none" stroke="#666666" stroke-width="2" d="M185.2461,-246.4137C196.1973,-237.0215 207.8195,-227.0538 218.9844,-217.4784"/>
<polygon fill="#666666" stroke="#666666" stroke-width="2" points="221.856,-220.5487 228.2306,-209.5485 216.3875,-214.1725 221.856,-220.5487"/>
</g>
<!-- cattle_number_s&#45;&gt;rurpop_s -->
<g id="edge11" class="edge">
<title>cattle_number_s-&gt;rurpop_s</title>
<path fill="none" stroke="#666666" stroke-width="2" d="M130.0096,-246.4137C128.987,-232.3815 127.8708,-217.0649 126.8962,-203.6907"/>
<polygon fill="#666666" stroke="#666666" stroke-width="2" points="131.0739,-203.2315 126.0128,-191.5685 122.6962,-203.8421 131.0739,-203.2315"/>
</g>
<!-- cattle_number_s&#45;&gt;acl_sum_evnt_m -->
<g id="edge12" class="edge">
<title>cattle_number_s-&gt;acl_sum_evnt_m</title>
<path fill="none" stroke="#666666" stroke-width="2" d="M52.9658,-248.9178C25.4926,-228.2619 3.0101,-200.6418 9.2588,-167.5"/>
</g>
<!-- spi_1_f2_m -->
<g id="node5" class="node rankA">
<title>spi_1_f2_m</title>
<path fill="none" stroke="#000000" d="M21.2588,-622C21.2588,-622 115.2588,-622 115.2588,-622 121.2588,-622 127.2588,-628 127.2588,-634 127.2588,-634 127.2588,-658 127.2588,-658 127.2588,-664 121.2588,-670 115.2588,-670 115.2588,-670 21.2588,-670 21.2588,-670 15.2588,-670 9.2588,-664 9.2588,-658 9.2588,-658 9.2588,-634 9.2588,-634 9.2588,-628 15.2588,-622 21.2588,-622"/>
<text text-anchor="start" x="23.2588" y="-651.2" font-family="Helvetica, Arial, sans-serif" font-size="16.00" fill="#000000">Variation in</text>
<text text-anchor="start" x="18.2588" y="-633.2" font-family="Helvetica, Arial, sans-serif" font-size="16.00" fill="#000000">precipitation</text>
</g>
<!-- spi_1_f2_m&#45;&gt;ndvi_act_med_m -->
<g id="edge13" class="edge">
<title>spi_1_f2_m-&gt;ndvi_act_med_m</title>
<path fill="none" stroke="#666666" stroke-width="2" d="M88.6967,-621.7059C100.0624,-608.1958 114.6899,-590.8083 128.6247,-574.2443"/>
<polygon fill="#666666" stroke="#666666" stroke-width="2" points="132.2081,-576.5089 136.7193,-564.6224 125.7802,-571.1013 132.2081,-576.5089"/>
</g>
<!-- spi_1_f2_m&#45;&gt;cattle_number_s -->
<g id="edge14" class="edge">
<title>spi_1_f2_m-&gt;cattle_number_s</title>
<path fill="none" stroke="#666666" stroke-width="2" d="M64.7707,-621.768C58.6891,-573.0176 49.3694,-460.212 78.2588,-372 81.1602,-363.1407 85.3427,-354.3597 90.1243,-346.0302"/>
<polygon fill="#666666" stroke="#666666" stroke-width="2" points="93.7389,-348.1702 96.45,-335.7489 86.5845,-343.7684 93.7389,-348.1702"/>
</g>
<!-- rurpop_s&#45;&gt;acl_sum_evnt_m -->
<g id="edge15" class="edge">
<title>rurpop_s-&gt;acl_sum_evnt_m</title>
<path fill="none" stroke="#666666" stroke-width="2" d="M124.2588,-143.4949C124.2588,-131.0589 124.2588,-115.5879 124.2588,-101.6083"/>
<polygon fill="#666666" stroke="#666666" stroke-width="2" points="128.4589,-101.3189 124.2588,-89.3189 120.0589,-101.319 128.4589,-101.3189"/>
</g>
</g>
<style>.node path {
  stroke: #fff;
}
.node text {
  fill: #fff;
}
.node polyline {
  stroke: #fff;
}
.rankA path {
  fill: #1b6002;
}
.rankB path {
  fill: #437387;
}
.rankC path {
  fill: #2e3348;
}
</style></svg>
