<?xml version="1.0" encoding="UTF-8" standalone="no"?>
<!DOCTYPE svg PUBLIC "-//W3C//DTD SVG 1.1//EN" "http://www.w3.org/Graphics/SVG/1.1/DTD/svg11.dtd">
<!-- Generated by graphviz version 2.40.1 (20161225.0304)
 -->
<!-- Title: causalModel Pages: 1 -->
<svg xmlns="http://www.w3.org/2000/svg" xmlns:xlink="http://www.w3.org/1999/xlink" width="" height="" viewBox="0.00 0.00 469.15 760.00" preserveAspectRatio="xMinYMin">
<g id="graph0" class="graph" transform="scale(1 1) rotate(0) translate(4 756)">
<title>causalModel</title>
<polygon fill="#ffffff" stroke="transparent" points="-4,4 -4,-756 465.1512,-756 465.1512,4 -4,4"/>
<text text-anchor="start" x="126.5756" y="-29.8" font-family="Helvetica, Arial, sans-serif" font-weight="bold" font-size="14.00" fill="#000000">Causal Model: South Asia</text>
<text text-anchor="start" x="126.5756" y="-9.8" font-family="Helvetica, Arial, sans-serif" font-size="14.00" fill="#000000">***significance of 0.1%</text>
<!-- et_anom_m_STD_m -->
<g id="node1" class="node rankA">
<title>et_anom_m_STD_m</title>
<path fill="none" stroke="#000000" d="M217,-662.5C217,-662.5 361,-662.5 361,-662.5 367,-662.5 373,-668.5 373,-674.5 373,-674.5 373,-739.5 373,-739.5 373,-745.5 367,-751.5 361,-751.5 361,-751.5 217,-751.5 217,-751.5 211,-751.5 205,-745.5 205,-739.5 205,-739.5 205,-674.5 205,-674.5 205,-668.5 211,-662.5 217,-662.5"/>
<text text-anchor="start" x="244" y="-732.7" font-family="Helvetica, Arial, sans-serif" font-size="16.00" fill="#000000">Variation in</text>
<text text-anchor="start" x="214" y="-714.7" font-family="Helvetica, Arial, sans-serif" font-size="16.00" fill="#000000">evapotranspiration</text>
<polyline fill="none" stroke="#000000" points="205,-703.5 373,-703.5 "/>
<text text-anchor="start" x="241" y="-686.8" font-family="Helvetica, Arial, sans-serif" font-size="14.00" fill="#000000">effect: -0.053</text>
<text text-anchor="start" x="246" y="-670.8" font-family="Helvetica, Arial, sans-serif" font-size="14.00" fill="#000000">error: 0.075</text>
</g>
<!-- ndvi_act_med_m -->
<g id="node3" class="node rankB">
<title>ndvi_act_med_m</title>
<path fill="none" stroke="#000000" d="M127,-536.5C127,-536.5 237,-536.5 237,-536.5 243,-536.5 249,-542.5 249,-548.5 249,-548.5 249,-613.5 249,-613.5 249,-619.5 243,-625.5 237,-625.5 237,-625.5 127,-625.5 127,-625.5 121,-625.5 115,-619.5 115,-613.5 115,-613.5 115,-548.5 115,-548.5 115,-542.5 121,-536.5 127,-536.5"/>
<text text-anchor="start" x="142" y="-606.7" font-family="Helvetica, Arial, sans-serif" font-size="16.00" fill="#000000">Density of</text>
<text text-anchor="start" x="141" y="-588.7" font-family="Helvetica, Arial, sans-serif" font-size="16.00" fill="#000000">greenness</text>
<polyline fill="none" stroke="#000000" points="115,-577.5 249,-577.5 "/>
<text text-anchor="start" x="123" y="-560.8" font-family="Helvetica, Arial, sans-serif" font-size="14.00" fill="#000000">effect: -0.342***</text>
<text text-anchor="start" x="139" y="-544.8" font-family="Helvetica, Arial, sans-serif" font-size="14.00" fill="#000000">error: 0.113</text>
</g>
<!-- et_anom_m_STD_m&#45;&gt;ndvi_act_med_m -->
<g id="edge1" class="edge">
<title>et_anom_m_STD_m-&gt;ndvi_act_med_m</title>
<path fill="none" stroke="#666666" stroke-width="2" d="M250.9745,-662.2223C243.4848,-653.4026 235.5523,-644.0616 227.837,-634.9763"/>
<polygon fill="#666666" stroke="#666666" stroke-width="2" points="230.872,-632.0617 219.903,-625.6335 224.4692,-637.499 230.872,-632.0617"/>
</g>
<!-- yield_gap_rice_s -->
<g id="node6" class="node rankB">
<title>yield_gap_rice_s</title>
<path fill="none" stroke="#000000" d="M265,-136.5C265,-136.5 391,-136.5 391,-136.5 397,-136.5 403,-142.5 403,-148.5 403,-148.5 403,-233.5 403,-233.5 403,-239.5 397,-245.5 391,-245.5 391,-245.5 265,-245.5 265,-245.5 259,-245.5 253,-239.5 253,-233.5 253,-233.5 253,-148.5 253,-148.5 253,-142.5 259,-136.5 265,-136.5"/>
<text text-anchor="start" x="275.5" y="-226.7" font-family="Helvetica, Arial, sans-serif" font-size="16.00" fill="#000000">Gap between</text>
<text text-anchor="start" x="274" y="-208.7" font-family="Helvetica, Arial, sans-serif" font-size="16.00" fill="#000000">observed and</text>
<text text-anchor="start" x="275" y="-190.7" font-family="Helvetica, Arial, sans-serif" font-size="16.00" fill="#000000">potential rice</text>
<text text-anchor="start" x="309" y="-172.7" font-family="Helvetica, Arial, sans-serif" font-size="16.00" fill="#000000">yield</text>
<polyline fill="none" stroke="#000000" points="253,-161.5 403,-161.5 "/>
<text text-anchor="start" x="261" y="-144.8" font-family="Helvetica, Arial, sans-serif" font-size="14.00" fill="#000000">effect: Inestimable</text>
</g>
<!-- et_anom_m_STD_m&#45;&gt;yield_gap_rice_s -->
<g id="edge2" class="edge">
<title>et_anom_m_STD_m-&gt;yield_gap_rice_s</title>
<path fill="none" stroke="#666666" stroke-width="2" d="M447,-327C435.8774,-300.5566 417.5188,-275.6529 398.5122,-254.5625"/>
<polygon fill="#666666" stroke="#666666" stroke-width="2" points="401.5878,-251.7023 390.346,-245.7639 395.4309,-257.4166 401.5878,-251.7023"/>
</g>
<!-- rurpop_s -->
<g id="node7" class="node rankB">
<title>rurpop_s</title>
<path fill="none" stroke="#000000" d="M86,-154.5C86,-154.5 212,-154.5 212,-154.5 218,-154.5 224,-160.5 224,-166.5 224,-166.5 224,-215.5 224,-215.5 224,-221.5 218,-227.5 212,-227.5 212,-227.5 86,-227.5 86,-227.5 80,-227.5 74,-221.5 74,-215.5 74,-215.5 74,-166.5 74,-166.5 74,-160.5 80,-154.5 86,-154.5"/>
<text text-anchor="start" x="98" y="-208.7" font-family="Helvetica, Arial, sans-serif" font-size="16.00" fill="#000000">Population in</text>
<text text-anchor="start" x="105.5" y="-190.7" font-family="Helvetica, Arial, sans-serif" font-size="16.00" fill="#000000">rural areas</text>
<polyline fill="none" stroke="#000000" points="74,-179.5 224,-179.5 "/>
<text text-anchor="start" x="82" y="-162.8" font-family="Helvetica, Arial, sans-serif" font-size="14.00" fill="#000000">effect: Inestimable</text>
</g>
<!-- et_anom_m_STD_m&#45;&gt;rurpop_s -->
<g id="edge3" class="edge">
<title>et_anom_m_STD_m-&gt;rurpop_s</title>
<path fill="none" stroke="#666666" stroke-width="2" d="M331.5596,-662.4889C394.048,-591.4726 497.9707,-448.1804 447,-327"/>
<path fill="none" stroke="#666666" stroke-width="2" d="M447,-327C407.8171,-235.859 327.8965,-290.0384 239,-246 231.5277,-242.2983 223.8659,-238.1731 216.3185,-233.8924"/>
<polygon fill="#666666" stroke="#666666" stroke-width="2" points="218.2433,-230.1535 205.756,-227.7645 214.028,-237.4193 218.2433,-230.1535"/>
</g>
<!-- acl_sum_evnt_m -->
<g id="node8" class="node rankC">
<title>acl_sum_evnt_m</title>
<path fill="none" stroke="#000000" d="M203,-100C203,-100 95,-100 95,-100 89,-100 83,-94 83,-88 83,-88 83,-62 83,-62 83,-56 89,-50 95,-50 95,-50 203,-50 203,-50 209,-50 215,-56 215,-62 215,-62 215,-88 215,-88 215,-94 209,-100 203,-100"/>
<text text-anchor="middle" x="149" y="-80.2" font-family="Helvetica, Arial, sans-serif" font-size="16.00" fill="#000000">Total number of</text>
<text text-anchor="middle" x="149" y="-62.2" font-family="Helvetica, Arial, sans-serif" font-size="16.00" fill="#000000">conflict events</text>
</g>
<!-- et_anom_m_STD_m&#45;&gt;acl_sum_evnt_m -->
<g id="edge4" class="edge">
<title>et_anom_m_STD_m-&gt;acl_sum_evnt_m</title>
<path fill="none" stroke="#666666" stroke-width="2" d="M447,-327C413.0878,-248.119 476.4791,-198.8685 418,-136 392.4243,-108.5046 297.2254,-91.8039 227.3089,-82.9911"/>
<polygon fill="#666666" stroke="#666666" stroke-width="2" points="227.43,-78.7748 215.0092,-81.4884 226.4112,-87.1128 227.43,-78.7748"/>
</g>
<!-- DeliveredkcalFraction_s -->
<g id="node2" class="node rankB">
<title>DeliveredkcalFraction_s</title>
<path fill="none" stroke="#000000" d="M113,-408.5C113,-408.5 251,-408.5 251,-408.5 257,-408.5 263,-414.5 263,-420.5 263,-420.5 263,-487.5 263,-487.5 263,-493.5 257,-499.5 251,-499.5 251,-499.5 113,-499.5 113,-499.5 107,-499.5 101,-493.5 101,-487.5 101,-487.5 101,-420.5 101,-420.5 101,-414.5 107,-408.5 113,-408.5"/>
<text text-anchor="start" x="144" y="-480.7" font-family="Helvetica, Arial, sans-serif" font-size="16.00" fill="#000000">Portion of</text>
<text text-anchor="start" x="111" y="-462.7" font-family="Helvetica, Arial, sans-serif" font-size="16.00" fill="#000000">calories produced</text>
<text text-anchor="start" x="110" y="-444.7" font-family="Helvetica, Arial, sans-serif" font-size="16.00" fill="#000000">going toward food</text>
<polyline fill="none" stroke="#000000" points="101,-433.5 263,-433.5 "/>
<text text-anchor="start" x="115" y="-416.8" font-family="Helvetica, Arial, sans-serif" font-size="14.00" fill="#000000">effect: Inestimable</text>
</g>
<!-- cattle_number_s -->
<g id="node4" class="node rankB">
<title>cattle_number_s</title>
<path fill="none" stroke="#000000" d="M84,-282.5C84,-282.5 220,-282.5 220,-282.5 226,-282.5 232,-288.5 232,-294.5 232,-294.5 232,-359.5 232,-359.5 232,-365.5 226,-371.5 220,-371.5 220,-371.5 84,-371.5 84,-371.5 78,-371.5 72,-365.5 72,-359.5 72,-359.5 72,-294.5 72,-294.5 72,-288.5 78,-282.5 84,-282.5"/>
<text text-anchor="start" x="81" y="-352.7" font-family="Helvetica, Arial, sans-serif" font-size="16.00" fill="#000000">Count of livestock</text>
<text text-anchor="start" x="129" y="-334.7" font-family="Helvetica, Arial, sans-serif" font-size="16.00" fill="#000000">cattle</text>
<polyline fill="none" stroke="#000000" points="72,-323.5 232,-323.5 "/>
<text text-anchor="start" x="96" y="-306.8" font-family="Helvetica, Arial, sans-serif" font-size="14.00" fill="#000000">effect: 1.846***</text>
<text text-anchor="start" x="109.5" y="-290.8" font-family="Helvetica, Arial, sans-serif" font-size="14.00" fill="#000000">error: 0.278</text>
</g>
<!-- DeliveredkcalFraction_s&#45;&gt;cattle_number_s -->
<g id="edge5" class="edge">
<title>DeliveredkcalFraction_s-&gt;cattle_number_s</title>
<path fill="none" stroke="#666666" stroke-width="2" d="M171.1693,-408.1501C169.2749,-400.1303 167.2841,-391.7025 165.3314,-383.4364"/>
<polygon fill="#666666" stroke="#666666" stroke-width="2" points="169.3599,-382.2206 162.5136,-371.5076 161.1849,-384.1518 169.3599,-382.2206"/>
</g>
<!-- DeliveredkcalFraction_s&#45;&gt;rurpop_s -->
<g id="edge6" class="edge">
<title>DeliveredkcalFraction_s-&gt;rurpop_s</title>
<path fill="none" stroke="#666666" stroke-width="2" d="M226.8118,-408.2864C235.0845,-397.2324 242.5189,-384.8667 247,-372 260.1557,-334.2253 262.9887,-318.6655 247,-282 239.4251,-264.6291 226.7183,-249.0845 212.9221,-235.9674"/>
<polygon fill="#666666" stroke="#666666" stroke-width="2" points="215.4705,-232.6103 203.7417,-227.7034 209.8505,-238.8535 215.4705,-232.6103"/>
</g>
<!-- ndvi_act_med_m&#45;&gt;DeliveredkcalFraction_s -->
<g id="edge7" class="edge">
<title>ndvi_act_med_m-&gt;DeliveredkcalFraction_s</title>
<path fill="none" stroke="#666666" stroke-width="2" d="M182,-536.2246C182,-528.3523 182,-520.0583 182,-511.8892"/>
<polygon fill="#666666" stroke="#666666" stroke-width="2" points="186.2001,-511.6578 182,-499.6579 177.8001,-511.6579 186.2001,-511.6578"/>
</g>
<!-- ndvi_act_med_m&#45;&gt;yield_gap_rice_s -->
<g id="edge8" class="edge">
<title>ndvi_act_med_m-&gt;yield_gap_rice_s</title>
<path fill="none" stroke="#666666" stroke-width="2" d="M247.992,-536.3438C259.5905,-525.7034 270.3718,-513.4731 278,-500 320.6353,-424.6967 329.576,-323.5187 330.2436,-257.7908"/>
<polygon fill="#666666" stroke="#666666" stroke-width="2" points="334.4442,-257.5519 330.2764,-245.5407 326.0442,-257.5293 334.4442,-257.5519"/>
</g>
<!-- ndvi_act_med_m&#45;&gt;acl_sum_evnt_m -->
<g id="edge9" class="edge">
<title>ndvi_act_med_m-&gt;acl_sum_evnt_m</title>
<path fill="none" stroke="#666666" stroke-width="2" d="M117.1531,-536.4083C105.3209,-525.6913 94.158,-513.415 86,-500 13.3968,-380.6111 1.6957,-328.2335 28,-191"/>
<path fill="none" stroke="#666666" stroke-width="2" d="M28,-191C35.2948,-155.3233 64.3681,-126.8088 92.1865,-106.9788"/>
<polygon fill="#666666" stroke="#666666" stroke-width="2" points="94.7803,-110.2939 102.3359,-100.0687 90.0529,-103.3504 94.7803,-110.2939"/>
</g>
<!-- cattle_number_s&#45;&gt;yield_gap_rice_s -->
<g id="edge10" class="edge">
<title>cattle_number_s-&gt;yield_gap_rice_s</title>
<path fill="none" stroke="#666666" stroke-width="2" d="M209.629,-282.4685C221.772,-273.0853 234.7944,-263.0225 247.6006,-253.1268"/>
<polygon fill="#666666" stroke="#666666" stroke-width="2" points="250.4058,-256.267 257.3332,-245.6062 245.2697,-249.6202 250.4058,-256.267"/>
</g>
<!-- cattle_number_s&#45;&gt;rurpop_s -->
<g id="edge11" class="edge">
<title>cattle_number_s-&gt;rurpop_s</title>
<path fill="none" stroke="#666666" stroke-width="2" d="M151.0177,-282.4685C150.7194,-268.9456 150.39,-254.0113 150.0853,-240.1999"/>
<polygon fill="#666666" stroke="#666666" stroke-width="2" points="154.2778,-239.8089 149.8141,-227.9044 145.8798,-239.9942 154.2778,-239.8089"/>
</g>
<!-- cattle_number_s&#45;&gt;acl_sum_evnt_m -->
<g id="edge12" class="edge">
<title>cattle_number_s-&gt;acl_sum_evnt_m</title>
<path fill="none" stroke="#666666" stroke-width="2" d="M75.4247,-282.4277C46.043,-259.0082 20.9926,-227.5586 28,-191"/>
</g>
<!-- spi_1_f2_m -->
<g id="node5" class="node rankA">
<title>spi_1_f2_m</title>
<path fill="none" stroke="#000000" d="M12,-670.5C12,-670.5 138,-670.5 138,-670.5 144,-670.5 150,-676.5 150,-682.5 150,-682.5 150,-731.5 150,-731.5 150,-737.5 144,-743.5 138,-743.5 138,-743.5 12,-743.5 12,-743.5 6,-743.5 0,-737.5 0,-731.5 0,-731.5 0,-682.5 0,-682.5 0,-676.5 6,-670.5 12,-670.5"/>
<text text-anchor="start" x="30" y="-724.7" font-family="Helvetica, Arial, sans-serif" font-size="16.00" fill="#000000">Variation in</text>
<text text-anchor="start" x="25" y="-706.7" font-family="Helvetica, Arial, sans-serif" font-size="16.00" fill="#000000">precipitation</text>
<polyline fill="none" stroke="#000000" points="0,-695.5 150,-695.5 "/>
<text text-anchor="start" x="8" y="-678.8" font-family="Helvetica, Arial, sans-serif" font-size="14.00" fill="#000000">effect: Inestimable</text>
</g>
<!-- spi_1_f2_m&#45;&gt;ndvi_act_med_m -->
<g id="edge13" class="edge">
<title>spi_1_f2_m-&gt;ndvi_act_med_m</title>
<path fill="none" stroke="#666666" stroke-width="2" d="M106.2365,-670.2169C115.5817,-659.2122 126.03,-646.9086 136.1103,-635.0383"/>
<polygon fill="#666666" stroke="#666666" stroke-width="2" points="139.5214,-637.5101 144.0876,-625.6446 133.1186,-632.0728 139.5214,-637.5101"/>
</g>
<!-- spi_1_f2_m&#45;&gt;cattle_number_s -->
<g id="edge14" class="edge">
<title>spi_1_f2_m-&gt;cattle_number_s</title>
<path fill="none" stroke="#666666" stroke-width="2" d="M69.0625,-670.1027C61.3171,-612.1492 52.4002,-497.2004 86,-408 89.4549,-398.828 94.3914,-389.9195 100.0303,-381.5717"/>
<polygon fill="#666666" stroke="#666666" stroke-width="2" points="103.5547,-383.8661 107.2045,-371.6875 96.7566,-378.932 103.5547,-383.8661"/>
</g>
<!-- rurpop_s&#45;&gt;acl_sum_evnt_m -->
<g id="edge15" class="edge">
<title>rurpop_s-&gt;acl_sum_evnt_m</title>
<path fill="none" stroke="#666666" stroke-width="2" d="M149,-154.2969C149,-140.917 149,-125.7812 149,-112.346"/>
<polygon fill="#666666" stroke="#666666" stroke-width="2" points="153.2001,-112.0988 149,-100.0988 144.8001,-112.0989 153.2001,-112.0988"/>
</g>
</g>
<style>.node path {
  stroke: #fff;
}
.node text {
  fill: #fff;
}
.node polyline {
  stroke: #fff;
}
.rankA path {
  fill: #1b6002;
}
.rankB path {
  fill: #437387;
}
.rankC path {
  fill: #2e3348;
}
</style></svg>
