<?xml version="1.0" encoding="UTF-8" standalone="no"?>
<!DOCTYPE svg PUBLIC "-//W3C//DTD SVG 1.1//EN" "http://www.w3.org/Graphics/SVG/1.1/DTD/svg11.dtd">
<!-- Generated by graphviz version 2.40.1 (20161225.0304)
 -->
<!-- Title: causalModel Pages: 1 -->
<svg xmlns="http://www.w3.org/2000/svg" xmlns:xlink="http://www.w3.org/1999/xlink" width="" height="" viewBox="0.00 0.00 408.71 734.00" preserveAspectRatio="xMinYMin">
<g id="graph0" class="graph" transform="scale(1 1) rotate(0) translate(4 730)">
<title>causalModel</title>
<polygon fill="#ffffff" stroke="transparent" points="-4,4 -4,-730 404.7066,-730 404.7066,4 -4,4"/>
<text text-anchor="middle" x="200.3533" y="-7.8" font-family="Helvetica, Arial, sans-serif" font-size="14.00" fill="#000000">Causal Model: Sub-Saharan Africa</text>
<!-- et_actl_m_MAX_m -->
<g id="node1" class="node rankB">
<title>et_actl_m_MAX_m</title>
<path fill="none" stroke="#000000" d="M106.3635,-389.5C106.3635,-389.5 250.3635,-389.5 250.3635,-389.5 256.3635,-389.5 262.3635,-395.5 262.3635,-401.5 262.3635,-401.5 262.3635,-466.5 262.3635,-466.5 262.3635,-472.5 256.3635,-478.5 250.3635,-478.5 250.3635,-478.5 106.3635,-478.5 106.3635,-478.5 100.3635,-478.5 94.3635,-472.5 94.3635,-466.5 94.3635,-466.5 94.3635,-401.5 94.3635,-401.5 94.3635,-395.5 100.3635,-389.5 106.3635,-389.5"/>
<text text-anchor="start" x="153.3635" y="-459.7" font-family="Helvetica, Arial, sans-serif" font-size="16.00" fill="#000000">Actual</text>
<text text-anchor="start" x="103.3635" y="-441.7" font-family="Helvetica, Arial, sans-serif" font-size="16.00" fill="#000000">evapotranspiration</text>
<polyline fill="none" stroke="#000000" points="94.3635,-430.5 262.3635,-430.5 "/>
<text text-anchor="start" x="133.3635" y="-413.8" font-family="Helvetica, Arial, sans-serif" font-size="14.00" fill="#000000">effect: 0.514</text>
<text text-anchor="start" x="135.8635" y="-397.8" font-family="Helvetica, Arial, sans-serif" font-size="14.00" fill="#000000">error: 0.543</text>
</g>
<!-- rurpop_s -->
<g id="node6" class="node rankB">
<title>rurpop_s</title>
<path fill="none" stroke="#000000" d="M117.8635,-263.5C117.8635,-263.5 214.8635,-263.5 214.8635,-263.5 220.8635,-263.5 226.8635,-269.5 226.8635,-275.5 226.8635,-275.5 226.8635,-340.5 226.8635,-340.5 226.8635,-346.5 220.8635,-352.5 214.8635,-352.5 214.8635,-352.5 117.8635,-352.5 117.8635,-352.5 111.8635,-352.5 105.8635,-346.5 105.8635,-340.5 105.8635,-340.5 105.8635,-275.5 105.8635,-275.5 105.8635,-269.5 111.8635,-263.5 117.8635,-263.5"/>
<text text-anchor="start" x="115.3635" y="-333.7" font-family="Helvetica, Arial, sans-serif" font-size="16.00" fill="#000000">Population in</text>
<text text-anchor="start" x="122.8635" y="-315.7" font-family="Helvetica, Arial, sans-serif" font-size="16.00" fill="#000000">rural areas</text>
<polyline fill="none" stroke="#000000" points="105.8635,-304.5 226.8635,-304.5 "/>
<text text-anchor="start" x="121.3635" y="-287.8" font-family="Helvetica, Arial, sans-serif" font-size="14.00" fill="#000000">effect: 3.216</text>
<text text-anchor="start" x="123.8635" y="-271.8" font-family="Helvetica, Arial, sans-serif" font-size="14.00" fill="#000000">error: 2.491</text>
</g>
<!-- et_actl_m_MAX_m&#45;&gt;rurpop_s -->
<g id="edge1" class="edge">
<title>et_actl_m_MAX_m-&gt;rurpop_s</title>
<path fill="none" stroke="#000000" stroke-width="2" d="M174.0989,-389.2223C173.3474,-381.331 172.5561,-373.0224 171.778,-364.8529"/>
<polygon fill="#000000" stroke="#000000" stroke-width="2" points="175.9332,-364.1812 170.6143,-352.6335 167.571,-364.9776 175.9332,-364.1812"/>
</g>
<!-- cattle_number_s -->
<g id="node2" class="node rankB">
<title>cattle_number_s</title>
<path fill="none" stroke="#000000" d="M47.3635,-515.5C47.3635,-515.5 183.3635,-515.5 183.3635,-515.5 189.3635,-515.5 195.3635,-521.5 195.3635,-527.5 195.3635,-527.5 195.3635,-551.5 195.3635,-551.5 195.3635,-557.5 189.3635,-563.5 183.3635,-563.5 183.3635,-563.5 47.3635,-563.5 47.3635,-563.5 41.3635,-563.5 35.3635,-557.5 35.3635,-551.5 35.3635,-551.5 35.3635,-527.5 35.3635,-527.5 35.3635,-521.5 41.3635,-515.5 47.3635,-515.5"/>
<text text-anchor="start" x="44.3635" y="-544.7" font-family="Helvetica, Arial, sans-serif" font-size="16.00" fill="#000000">Count of livestock</text>
<text text-anchor="start" x="92.3635" y="-526.7" font-family="Helvetica, Arial, sans-serif" font-size="16.00" fill="#000000">cattle</text>
</g>
<!-- cattle_number_s&#45;&gt;et_actl_m_MAX_m -->
<g id="edge2" class="edge">
<title>cattle_number_s-&gt;et_actl_m_MAX_m</title>
<path fill="none" stroke="#000000" stroke-width="2" d="M129.817,-515.2962C134.5151,-507.4286 139.9373,-498.3486 145.4179,-489.1707"/>
<polygon fill="#000000" stroke="#000000" stroke-width="2" points="149.0487,-491.2825 151.5951,-478.8263 141.8367,-486.9758 149.0487,-491.2825"/>
</g>
<!-- cattle_number_s&#45;&gt;rurpop_s -->
<g id="edge3" class="edge">
<title>cattle_number_s-&gt;rurpop_s</title>
<path fill="none" stroke="#000000" stroke-width="2" d="M50.3635,-434C48.3416,-400.5619 70.5666,-372.1516 96.0882,-350.8201"/>
<polygon fill="#000000" stroke="#000000" stroke-width="2" points="98.8023,-354.0283 105.6013,-343.2852 93.5867,-347.4435 98.8023,-354.0283"/>
</g>
<!-- ndvi_act_min_m -->
<g id="node7" class="node rankB">
<title>ndvi_act_min_m</title>
<path fill="none" stroke="#000000" d="M72.3635,-137.5C72.3635,-137.5 160.3635,-137.5 160.3635,-137.5 166.3635,-137.5 172.3635,-143.5 172.3635,-149.5 172.3635,-149.5 172.3635,-214.5 172.3635,-214.5 172.3635,-220.5 166.3635,-226.5 160.3635,-226.5 160.3635,-226.5 72.3635,-226.5 72.3635,-226.5 66.3635,-226.5 60.3635,-220.5 60.3635,-214.5 60.3635,-214.5 60.3635,-149.5 60.3635,-149.5 60.3635,-143.5 66.3635,-137.5 72.3635,-137.5"/>
<text text-anchor="start" x="76.3635" y="-207.7" font-family="Helvetica, Arial, sans-serif" font-size="16.00" fill="#000000">Density of</text>
<text text-anchor="start" x="75.3635" y="-189.7" font-family="Helvetica, Arial, sans-serif" font-size="16.00" fill="#000000">greenness</text>
<polyline fill="none" stroke="#000000" points="60.3635,-178.5 172.3635,-178.5 "/>
<text text-anchor="start" x="68.3635" y="-161.8" font-family="Helvetica, Arial, sans-serif" font-size="14.00" fill="#000000">effect: -0.613</text>
<text text-anchor="start" x="73.3635" y="-145.8" font-family="Helvetica, Arial, sans-serif" font-size="14.00" fill="#000000">error: 0.443</text>
</g>
<!-- cattle_number_s&#45;&gt;ndvi_act_min_m -->
<g id="edge4" class="edge">
<title>cattle_number_s-&gt;ndvi_act_min_m</title>
<path fill="none" stroke="#000000" stroke-width="2" d="M90.7238,-515.1693C73.1343,-495.2577 52.2592,-465.3521 50.3635,-434"/>
<path fill="none" stroke="#000000" stroke-width="2" d="M50.3635,-434C46.9836,-378.1021 30.8329,-360.4839 50.3635,-308"/>
</g>
<!-- spi_3_m -->
<g id="node3" class="node rankA">
<title>spi_3_m</title>
<path fill="none" stroke="#000000" d="M57.3635,-600.5C57.3635,-600.5 173.3635,-600.5 173.3635,-600.5 179.3635,-600.5 185.3635,-606.5 185.3635,-612.5 185.3635,-612.5 185.3635,-713.5 185.3635,-713.5 185.3635,-719.5 179.3635,-725.5 173.3635,-725.5 173.3635,-725.5 57.3635,-725.5 57.3635,-725.5 51.3635,-725.5 45.3635,-719.5 45.3635,-713.5 45.3635,-713.5 45.3635,-612.5 45.3635,-612.5 45.3635,-606.5 51.3635,-600.5 57.3635,-600.5"/>
<text text-anchor="start" x="70.3635" y="-706.7" font-family="Helvetica, Arial, sans-serif" font-size="16.00" fill="#000000">Variation in</text>
<text text-anchor="start" x="65.3635" y="-688.7" font-family="Helvetica, Arial, sans-serif" font-size="16.00" fill="#000000">precipitation</text>
<text text-anchor="start" x="61.8635" y="-670.7" font-family="Helvetica, Arial, sans-serif" font-size="16.00" fill="#000000">patterns over</text>
<text text-anchor="start" x="54.3635" y="-652.7" font-family="Helvetica, Arial, sans-serif" font-size="16.00" fill="#000000">3-month period</text>
<polyline fill="none" stroke="#000000" points="45.3635,-641.5 185.3635,-641.5 "/>
<text text-anchor="start" x="70.3635" y="-624.8" font-family="Helvetica, Arial, sans-serif" font-size="14.00" fill="#000000">effect: 0.393</text>
<text text-anchor="start" x="72.8635" y="-608.8" font-family="Helvetica, Arial, sans-serif" font-size="14.00" fill="#000000">error: 0.568</text>
</g>
<!-- spi_3_m&#45;&gt;cattle_number_s -->
<g id="edge5" class="edge">
<title>spi_3_m-&gt;cattle_number_s</title>
<path fill="none" stroke="#000000" stroke-width="2" d="M115.3635,-600.1646C115.3635,-591.8428 115.3635,-583.5473 115.3635,-575.8828"/>
<polygon fill="#000000" stroke="#000000" stroke-width="2" points="119.5636,-575.6867 115.3635,-563.6868 111.1636,-575.6868 119.5636,-575.6867"/>
</g>
<!-- spam_V_agg_t_sum_s -->
<g id="node4" class="node rankB">
<title>spam_V_agg_t_sum_s</title>
<path fill="none" stroke="#000000" d="M236.3635,-515.5C236.3635,-515.5 344.3635,-515.5 344.3635,-515.5 350.3635,-515.5 356.3635,-521.5 356.3635,-527.5 356.3635,-527.5 356.3635,-551.5 356.3635,-551.5 356.3635,-557.5 350.3635,-563.5 344.3635,-563.5 344.3635,-563.5 236.3635,-563.5 236.3635,-563.5 230.3635,-563.5 224.3635,-557.5 224.3635,-551.5 224.3635,-551.5 224.3635,-527.5 224.3635,-527.5 224.3635,-521.5 230.3635,-515.5 236.3635,-515.5"/>
<text text-anchor="start" x="233.3635" y="-544.7" font-family="Helvetica, Arial, sans-serif" font-size="16.00" fill="#000000">Value (USD) of</text>
<text text-anchor="start" x="246.8635" y="-526.7" font-family="Helvetica, Arial, sans-serif" font-size="16.00" fill="#000000">agriculture</text>
</g>
<!-- spi_3_m&#45;&gt;spam_V_agg_t_sum_s -->
<g id="edge6" class="edge">
<title>spi_3_m-&gt;spam_V_agg_t_sum_s</title>
<path fill="none" stroke="#000000" stroke-width="2" d="M185.5343,-613.4794C206.0739,-598.9844 227.9405,-583.5528 246.3589,-570.5546"/>
<polygon fill="#000000" stroke="#000000" stroke-width="2" points="248.8236,-573.9559 256.2063,-563.6052 243.9802,-567.0928 248.8236,-573.9559"/>
</g>
<!-- spi_3_m&#45;&gt;ndvi_act_min_m -->
<g id="edge7" class="edge">
<title>spi_3_m-&gt;ndvi_act_min_m</title>
<path fill="none" stroke="#000000" stroke-width="2" d="M45.2752,-603.8955C35.1091,-591.818 26.141,-578.3652 20.3635,-564 -22.3821,-457.7175 10.4107,-415.3636 50.3635,-308"/>
<path fill="none" stroke="#000000" stroke-width="2" d="M50.3635,-308C58.4503,-283.7514 70.788,-258.5122 82.6168,-237.0479"/>
<polygon fill="#000000" stroke="#000000" stroke-width="2" points="86.3194,-239.0324 88.5457,-226.515 78.9994,-234.912 86.3194,-239.0324"/>
</g>
<!-- spam_V_agg_t_sum_s&#45;&gt;et_actl_m_MAX_m -->
<g id="edge8" class="edge">
<title>spam_V_agg_t_sum_s-&gt;et_actl_m_MAX_m</title>
<path fill="none" stroke="#000000" stroke-width="2" d="M264.6684,-515.2962C255.6874,-506.8364 245.2183,-496.9748 234.7319,-487.0971"/>
<polygon fill="#000000" stroke="#000000" stroke-width="2" points="237.5664,-483.9972 225.9516,-478.8263 231.8068,-490.1116 237.5664,-483.9972"/>
</g>
<!-- spam_V_agg_t_sum_s&#45;&gt;rurpop_s -->
<g id="edge9" class="edge">
<title>spam_V_agg_t_sum_s-&gt;rurpop_s</title>
<path fill="none" stroke="#000000" stroke-width="2" d="M293.8895,-515.3034C297.2234,-483.9924 298.8294,-428.7505 276.3635,-389 266.9348,-372.3172 252.4997,-358.0962 237.1579,-346.445"/>
<polygon fill="#000000" stroke="#000000" stroke-width="2" points="239.1896,-342.734 226.9886,-339.1595 234.2975,-349.5624 239.1896,-342.734"/>
</g>
<!-- yield_gap_maize_s -->
<g id="node5" class="node rankA">
<title>yield_gap_maize_s</title>
<path fill="none" stroke="#000000" d="M237.8635,-600.5C237.8635,-600.5 342.8635,-600.5 342.8635,-600.5 348.8635,-600.5 354.8635,-606.5 354.8635,-612.5 354.8635,-612.5 354.8635,-713.5 354.8635,-713.5 354.8635,-719.5 348.8635,-725.5 342.8635,-725.5 342.8635,-725.5 237.8635,-725.5 237.8635,-725.5 231.8635,-725.5 225.8635,-719.5 225.8635,-713.5 225.8635,-713.5 225.8635,-612.5 225.8635,-612.5 225.8635,-606.5 231.8635,-600.5 237.8635,-600.5"/>
<text text-anchor="start" x="238.3635" y="-706.7" font-family="Helvetica, Arial, sans-serif" font-size="16.00" fill="#000000">Gap between</text>
<text text-anchor="start" x="236.8635" y="-688.7" font-family="Helvetica, Arial, sans-serif" font-size="16.00" fill="#000000">observed and</text>
<text text-anchor="start" x="235.3635" y="-670.7" font-family="Helvetica, Arial, sans-serif" font-size="16.00" fill="#000000">potential corn</text>
<text text-anchor="start" x="271.8635" y="-652.7" font-family="Helvetica, Arial, sans-serif" font-size="16.00" fill="#000000">yield</text>
<polyline fill="none" stroke="#000000" points="225.8635,-641.5 354.8635,-641.5 "/>
<text text-anchor="start" x="242.3635" y="-624.8" font-family="Helvetica, Arial, sans-serif" font-size="14.00" fill="#000000">effect: -0.286</text>
<text text-anchor="start" x="247.3635" y="-608.8" font-family="Helvetica, Arial, sans-serif" font-size="14.00" fill="#000000">error: 0.338</text>
</g>
<!-- yield_gap_maize_s&#45;&gt;et_actl_m_MAX_m -->
<g id="edge10" class="edge">
<title>yield_gap_maize_s-&gt;et_actl_m_MAX_m</title>
<path fill="none" stroke="#000000" stroke-width="2" d="M354.9626,-621.8996C379.6775,-600.7637 401.7359,-572.4911 400.3635,-539.5"/>
<path fill="none" stroke="#000000" stroke-width="2" d="M400.3635,-539.5C399.1284,-509.8099 333.53,-481.1992 273.9662,-461.2811"/>
<polygon fill="#000000" stroke="#000000" stroke-width="2" points="275.2549,-457.2837 262.5437,-457.5404 272.6406,-465.2666 275.2549,-457.2837"/>
</g>
<!-- yield_gap_maize_s&#45;&gt;cattle_number_s -->
<g id="edge11" class="edge">
<title>yield_gap_maize_s-&gt;cattle_number_s</title>
<path fill="none" stroke="#000000" stroke-width="2" d="M225.6971,-617.364C203.8082,-601.9167 179.8696,-585.0229 159.9013,-570.931"/>
<polygon fill="#000000" stroke="#000000" stroke-width="2" points="162.0791,-567.3273 149.853,-563.8397 157.2357,-574.1904 162.0791,-567.3273"/>
</g>
<!-- yield_gap_maize_s&#45;&gt;spam_V_agg_t_sum_s -->
<g id="edge12" class="edge">
<title>yield_gap_maize_s-&gt;spam_V_agg_t_sum_s</title>
<path fill="none" stroke="#000000" stroke-width="2" d="M290.3635,-600.1646C290.3635,-591.8428 290.3635,-583.5473 290.3635,-575.8828"/>
<polygon fill="#000000" stroke="#000000" stroke-width="2" points="294.5636,-575.6867 290.3635,-563.6868 286.1636,-575.6868 294.5636,-575.6867"/>
</g>
<!-- yield_gap_maize_s&#45;&gt;ndvi_act_min_m -->
<g id="edge13" class="edge">
<title>yield_gap_maize_s-&gt;ndvi_act_min_m</title>
<path fill="none" stroke="#000000" stroke-width="2" d="M400.3635,-539.5C394.4716,-397.8641 338.9055,-365.864 241.3635,-263 224.6203,-245.3433 203.2973,-229.723 183.0234,-217.0277"/>
<polygon fill="#000000" stroke="#000000" stroke-width="2" points="184.9828,-213.3037 172.5469,-210.6602 180.62,-220.4819 184.9828,-213.3037"/>
</g>
<!-- rurpop_s&#45;&gt;ndvi_act_min_m -->
<g id="edge14" class="edge">
<title>rurpop_s-&gt;ndvi_act_min_m</title>
<path fill="none" stroke="#000000" stroke-width="2" d="M148.5946,-263.2223C145.3526,-255.0525 141.9331,-246.4354 138.5811,-237.9885"/>
<polygon fill="#000000" stroke="#000000" stroke-width="2" points="142.4052,-236.2382 134.0752,-226.6335 134.5975,-239.3365 142.4052,-236.2382"/>
</g>
<!-- acl_sum_evnt_m -->
<g id="node8" class="node rankC">
<title>acl_sum_evnt_m</title>
<path fill="none" stroke="#000000" d="M211.3635,-92C211.3635,-92 121.3635,-92 121.3635,-92 115.3635,-92 109.3635,-86 109.3635,-80 109.3635,-80 109.3635,-60 109.3635,-60 109.3635,-54 115.3635,-48 121.3635,-48 121.3635,-48 211.3635,-48 211.3635,-48 217.3635,-48 223.3635,-54 223.3635,-60 223.3635,-60 223.3635,-80 223.3635,-80 223.3635,-86 217.3635,-92 211.3635,-92"/>
<text text-anchor="middle" x="166.3635" y="-75.2" font-family="Helvetica, Arial, sans-serif" font-size="16.00" fill="#000000">Total conflict</text>
<text text-anchor="middle" x="166.3635" y="-57.2" font-family="Helvetica, Arial, sans-serif" font-size="16.00" fill="#000000">events</text>
</g>
<!-- rurpop_s&#45;&gt;acl_sum_evnt_m -->
<g id="edge15" class="edge">
<title>rurpop_s-&gt;acl_sum_evnt_m</title>
<path fill="none" stroke="#000000" stroke-width="2" d="M179.4309,-263.3732C182.2992,-251.6447 184.9119,-238.9345 186.3635,-227 191.1931,-187.2926 192.1449,-176.58 186.3635,-137 184.7619,-126.0356 181.7597,-114.3719 178.5593,-103.9016"/>
<polygon fill="#000000" stroke="#000000" stroke-width="2" points="182.4839,-102.3884 174.7833,-92.272 174.4944,-104.9825 182.4839,-102.3884"/>
</g>
<!-- ndvi_act_min_m&#45;&gt;acl_sum_evnt_m -->
<g id="edge16" class="edge">
<title>ndvi_act_min_m-&gt;acl_sum_evnt_m</title>
<path fill="none" stroke="#000000" stroke-width="2" d="M136.2685,-137.4128C141.3483,-126.034 146.7212,-113.9986 151.4995,-103.2954"/>
<polygon fill="#000000" stroke="#000000" stroke-width="2" points="155.3523,-104.968 156.4089,-92.2982 147.6819,-101.5437 155.3523,-104.968"/>
</g>
<!-- acl_sum_fatl_m -->
<g id="node9" class="node rankC">
<title>acl_sum_fatl_m</title>
<path fill="none" stroke="#000000" d="M365.8635,-101C365.8635,-101 264.8635,-101 264.8635,-101 258.8635,-101 252.8635,-95 252.8635,-89 252.8635,-89 252.8635,-51 252.8635,-51 252.8635,-45 258.8635,-39 264.8635,-39 264.8635,-39 365.8635,-39 365.8635,-39 371.8635,-39 377.8635,-45 377.8635,-51 377.8635,-51 377.8635,-89 377.8635,-89 377.8635,-95 371.8635,-101 365.8635,-101"/>
<text text-anchor="middle" x="315.3635" y="-84.2" font-family="Helvetica, Arial, sans-serif" font-size="16.00" fill="#000000">Reported</text>
<text text-anchor="middle" x="315.3635" y="-66.2" font-family="Helvetica, Arial, sans-serif" font-size="16.00" fill="#000000">fatalities from</text>
<text text-anchor="middle" x="315.3635" y="-48.2" font-family="Helvetica, Arial, sans-serif" font-size="16.00" fill="#000000">conflicts</text>
</g>
<!-- acl_sum_evnt_m&#45;&gt;acl_sum_fatl_m -->
<g id="edge17" class="edge">
<title>acl_sum_evnt_m-&gt;acl_sum_fatl_m</title>
<path fill="none" stroke="#000000" stroke-width="2" d="M223.4025,-70C229.079,-70 234.7555,-70 240.4319,-70"/>
<polygon fill="#000000" stroke="#000000" stroke-width="2" points="240.8588,-74.2001 252.8588,-70 240.8587,-65.8001 240.8588,-74.2001"/>
</g>
</g>
<style>.node path {
  stroke: #fff;
}
.node text {
  fill: #fff;
}
.node polyline {
  stroke: #fff;
}
.rankA path {
  fill: #2e3348;
}
.rankB path {
  fill: #437387;
}
.rankC path {
  fill: #1b6002;
}
.edge path {
  stroke: #666;
};
</style></svg>
