<?xml version="1.0" encoding="UTF-8" standalone="no"?>
<!DOCTYPE svg PUBLIC "-//W3C//DTD SVG 1.1//EN" "http://www.w3.org/Graphics/SVG/1.1/DTD/svg11.dtd">
<!-- Generated by graphviz version 2.40.1 (20161225.0304)
 -->
<!-- Title: causalModel Pages: 1 -->
<svg xmlns="http://www.w3.org/2000/svg" xmlns:xlink="http://www.w3.org/1999/xlink" width="" height="" viewBox="0.00 0.00 399.48 695.00" preserveAspectRatio="xMinYMin">
<g id="graph0" class="graph" transform="scale(1 1) rotate(0) translate(4 691)">
<title>causalModel</title>
<polygon fill="#ffffff" stroke="transparent" points="-4,4 -4,-691 395.4757,-691 395.4757,4 -4,4"/>
<!-- spi_3_m -->
<g id="node1" class="node rankA">
<title>spi_3_m</title>
<path fill="none" stroke="#000000" d="M56.1513,-561.5C56.1513,-561.5 168.1513,-561.5 168.1513,-561.5 174.1513,-561.5 180.1513,-567.5 180.1513,-573.5 180.1513,-573.5 180.1513,-674.5 180.1513,-674.5 180.1513,-680.5 174.1513,-686.5 168.1513,-686.5 168.1513,-686.5 56.1513,-686.5 56.1513,-686.5 50.1513,-686.5 44.1513,-680.5 44.1513,-674.5 44.1513,-674.5 44.1513,-573.5 44.1513,-573.5 44.1513,-567.5 50.1513,-561.5 56.1513,-561.5"/>
<text text-anchor="start" x="67.1513" y="-667.7" font-family="Helvetica, Arial, sans-serif" font-size="16.00" fill="#000000">Variation in</text>
<text text-anchor="start" x="62.1513" y="-649.7" font-family="Helvetica, Arial, sans-serif" font-size="16.00" fill="#000000">precipitation</text>
<text text-anchor="start" x="58.6513" y="-631.7" font-family="Helvetica, Arial, sans-serif" font-size="16.00" fill="#000000">patterns over</text>
<text text-anchor="start" x="51.1513" y="-613.7" font-family="Helvetica, Arial, sans-serif" font-size="16.00" fill="#000000">3-month period</text>
<polyline fill="none" stroke="#000000" points="44.1513,-602.5 180.1513,-602.5 "/>
<text text-anchor="start" x="67.1513" y="-585.8" font-family="Helvetica, Arial, sans-serif" font-size="14.00" fill="#000000">effect: 0.393</text>
<text text-anchor="start" x="69.6513" y="-569.8" font-family="Helvetica, Arial, sans-serif" font-size="14.00" fill="#000000">error: 0.568</text>
</g>
<!-- cattle_number_s -->
<g id="node7" class="node rankB">
<title>cattle_number_s</title>
<path fill="none" stroke="#000000" d="M46.1513,-476.5C46.1513,-476.5 178.1513,-476.5 178.1513,-476.5 184.1513,-476.5 190.1513,-482.5 190.1513,-488.5 190.1513,-488.5 190.1513,-512.5 190.1513,-512.5 190.1513,-518.5 184.1513,-524.5 178.1513,-524.5 178.1513,-524.5 46.1513,-524.5 46.1513,-524.5 40.1513,-524.5 34.1513,-518.5 34.1513,-512.5 34.1513,-512.5 34.1513,-488.5 34.1513,-488.5 34.1513,-482.5 40.1513,-476.5 46.1513,-476.5"/>
<text text-anchor="start" x="41.1513" y="-505.7" font-family="Helvetica, Arial, sans-serif" font-size="16.00" fill="#000000">Count of livestock</text>
<text text-anchor="start" x="89.1513" y="-487.7" font-family="Helvetica, Arial, sans-serif" font-size="16.00" fill="#000000">cattle</text>
</g>
<!-- spi_3_m&#45;&gt;cattle_number_s -->
<g id="edge5" class="edge">
<title>spi_3_m-&gt;cattle_number_s</title>
<path fill="none" stroke="#000000" stroke-width="2" d="M112.1513,-561.1646C112.1513,-552.8428 112.1513,-544.5473 112.1513,-536.8828"/>
<polygon fill="#000000" stroke="#000000" stroke-width="2" points="116.3514,-536.6867 112.1513,-524.6868 107.9514,-536.6868 116.3514,-536.6867"/>
</g>
<!-- ndvi_act_min_m -->
<g id="node8" class="node rankB">
<title>ndvi_act_min_m</title>
<path fill="none" stroke="#000000" d="M72.1513,-98.5C72.1513,-98.5 156.1513,-98.5 156.1513,-98.5 162.1513,-98.5 168.1513,-104.5 168.1513,-110.5 168.1513,-110.5 168.1513,-175.5 168.1513,-175.5 168.1513,-181.5 162.1513,-187.5 156.1513,-187.5 156.1513,-187.5 72.1513,-187.5 72.1513,-187.5 66.1513,-187.5 60.1513,-181.5 60.1513,-175.5 60.1513,-175.5 60.1513,-110.5 60.1513,-110.5 60.1513,-104.5 66.1513,-98.5 72.1513,-98.5"/>
<text text-anchor="start" x="74.1513" y="-168.7" font-family="Helvetica, Arial, sans-serif" font-size="16.00" fill="#000000">Density of</text>
<text text-anchor="start" x="73.1513" y="-150.7" font-family="Helvetica, Arial, sans-serif" font-size="16.00" fill="#000000">greenness</text>
<polyline fill="none" stroke="#000000" points="60.1513,-139.5 168.1513,-139.5 "/>
<text text-anchor="start" x="66.1513" y="-122.8" font-family="Helvetica, Arial, sans-serif" font-size="14.00" fill="#000000">effect: -0.613</text>
<text text-anchor="start" x="71.1513" y="-106.8" font-family="Helvetica, Arial, sans-serif" font-size="14.00" fill="#000000">error: 0.443</text>
</g>
<!-- spi_3_m&#45;&gt;ndvi_act_min_m -->
<g id="edge7" class="edge">
<title>spi_3_m-&gt;ndvi_act_min_m</title>
<path fill="none" stroke="#000000" stroke-width="2" d="M44.0197,-564.3325C34.2715,-552.3578 25.6857,-539.0855 20.1513,-525 -21.7231,-418.4259 9.5517,-376.4401 49.1513,-269"/>
<path fill="none" stroke="#000000" stroke-width="2" d="M49.1513,-269C57.1364,-244.805 69.2911,-219.576 80.938,-198.1049"/>
<polygon fill="#000000" stroke="#000000" stroke-width="2" points="84.6345,-200.0995 86.7752,-187.5672 77.2865,-196.0292 84.6345,-200.0995"/>
</g>
<!-- spam_V_agg_t_sum_s -->
<g id="node9" class="node rankB">
<title>spam_V_agg_t_sum_s</title>
<path fill="none" stroke="#000000" d="M231.1513,-476.5C231.1513,-476.5 335.1513,-476.5 335.1513,-476.5 341.1513,-476.5 347.1513,-482.5 347.1513,-488.5 347.1513,-488.5 347.1513,-512.5 347.1513,-512.5 347.1513,-518.5 341.1513,-524.5 335.1513,-524.5 335.1513,-524.5 231.1513,-524.5 231.1513,-524.5 225.1513,-524.5 219.1513,-518.5 219.1513,-512.5 219.1513,-512.5 219.1513,-488.5 219.1513,-488.5 219.1513,-482.5 225.1513,-476.5 231.1513,-476.5"/>
<text text-anchor="start" x="226.1513" y="-505.7" font-family="Helvetica, Arial, sans-serif" font-size="16.00" fill="#000000">Value (USD) of</text>
<text text-anchor="start" x="239.6513" y="-487.7" font-family="Helvetica, Arial, sans-serif" font-size="16.00" fill="#000000">agriculture</text>
</g>
<!-- spi_3_m&#45;&gt;spam_V_agg_t_sum_s -->
<g id="edge6" class="edge">
<title>spi_3_m-&gt;spam_V_agg_t_sum_s</title>
<path fill="none" stroke="#000000" stroke-width="2" d="M180.2264,-574.8347C200.2509,-560.3725 221.6072,-544.9485 239.6457,-531.9207"/>
<polygon fill="#000000" stroke="#000000" stroke-width="2" points="242.3022,-535.1831 249.5712,-524.7523 237.384,-528.3733 242.3022,-535.1831"/>
</g>
<!-- yield_gap_maize_s -->
<g id="node2" class="node rankA">
<title>yield_gap_maize_s</title>
<path fill="none" stroke="#000000" d="M232.6513,-561.5C232.6513,-561.5 333.6513,-561.5 333.6513,-561.5 339.6513,-561.5 345.6513,-567.5 345.6513,-573.5 345.6513,-573.5 345.6513,-674.5 345.6513,-674.5 345.6513,-680.5 339.6513,-686.5 333.6513,-686.5 333.6513,-686.5 232.6513,-686.5 232.6513,-686.5 226.6513,-686.5 220.6513,-680.5 220.6513,-674.5 220.6513,-674.5 220.6513,-573.5 220.6513,-573.5 220.6513,-567.5 226.6513,-561.5 232.6513,-561.5"/>
<text text-anchor="start" x="231.1513" y="-667.7" font-family="Helvetica, Arial, sans-serif" font-size="16.00" fill="#000000">Gap between</text>
<text text-anchor="start" x="229.6513" y="-649.7" font-family="Helvetica, Arial, sans-serif" font-size="16.00" fill="#000000">observed and</text>
<text text-anchor="start" x="228.1513" y="-631.7" font-family="Helvetica, Arial, sans-serif" font-size="16.00" fill="#000000">potential corn</text>
<text text-anchor="start" x="264.6513" y="-613.7" font-family="Helvetica, Arial, sans-serif" font-size="16.00" fill="#000000">yield</text>
<polyline fill="none" stroke="#000000" points="220.6513,-602.5 345.6513,-602.5 "/>
<text text-anchor="start" x="235.1513" y="-585.8" font-family="Helvetica, Arial, sans-serif" font-size="14.00" fill="#000000">effect: -0.286</text>
<text text-anchor="start" x="240.1513" y="-569.8" font-family="Helvetica, Arial, sans-serif" font-size="14.00" fill="#000000">error: 0.338</text>
</g>
<!-- et_actl_m_MAX_m -->
<g id="node5" class="node rankB">
<title>et_actl_m_MAX_m</title>
<path fill="none" stroke="#000000" d="M105.1513,-350.5C105.1513,-350.5 245.1513,-350.5 245.1513,-350.5 251.1513,-350.5 257.1513,-356.5 257.1513,-362.5 257.1513,-362.5 257.1513,-427.5 257.1513,-427.5 257.1513,-433.5 251.1513,-439.5 245.1513,-439.5 245.1513,-439.5 105.1513,-439.5 105.1513,-439.5 99.1513,-439.5 93.1513,-433.5 93.1513,-427.5 93.1513,-427.5 93.1513,-362.5 93.1513,-362.5 93.1513,-356.5 99.1513,-350.5 105.1513,-350.5"/>
<text text-anchor="start" x="150.1513" y="-420.7" font-family="Helvetica, Arial, sans-serif" font-size="16.00" fill="#000000">Actual</text>
<text text-anchor="start" x="100.1513" y="-402.7" font-family="Helvetica, Arial, sans-serif" font-size="16.00" fill="#000000">evapotranspiration</text>
<polyline fill="none" stroke="#000000" points="93.1513,-391.5 257.1513,-391.5 "/>
<text text-anchor="start" x="130.1513" y="-374.8" font-family="Helvetica, Arial, sans-serif" font-size="14.00" fill="#000000">effect: 0.514</text>
<text text-anchor="start" x="132.6513" y="-358.8" font-family="Helvetica, Arial, sans-serif" font-size="14.00" fill="#000000">error: 0.543</text>
</g>
<!-- yield_gap_maize_s&#45;&gt;et_actl_m_MAX_m -->
<g id="edge10" class="edge">
<title>yield_gap_maize_s-&gt;et_actl_m_MAX_m</title>
<path fill="none" stroke="#000000" stroke-width="2" d="M345.887,-583.2132C370.3957,-561.9672 392.4489,-533.5147 391.1513,-500.5"/>
<path fill="none" stroke="#000000" stroke-width="2" d="M391.1513,-500.5C390.0143,-471.5694 326.6586,-443.0079 268.8623,-422.9139"/>
<polygon fill="#000000" stroke="#000000" stroke-width="2" points="270.1106,-418.9022 257.3972,-419.0104 267.4032,-426.854 270.1106,-418.9022"/>
</g>
<!-- yield_gap_maize_s&#45;&gt;cattle_number_s -->
<g id="edge11" class="edge">
<title>yield_gap_maize_s-&gt;cattle_number_s</title>
<path fill="none" stroke="#000000" stroke-width="2" d="M220.4482,-578.7144C198.857,-563.1208 175.1733,-546.0159 155.4748,-531.7891"/>
<polygon fill="#000000" stroke="#000000" stroke-width="2" points="157.7563,-528.2561 145.5691,-524.6351 152.8382,-535.0659 157.7563,-528.2561"/>
</g>
<!-- yield_gap_maize_s&#45;&gt;ndvi_act_min_m -->
<g id="edge13" class="edge">
<title>yield_gap_maize_s-&gt;ndvi_act_min_m</title>
<path fill="none" stroke="#000000" stroke-width="2" d="M391.1513,-500.5C385.6187,-359.728 331.9549,-327.291 236.1513,-224 219.7355,-206.3012 198.7141,-190.5886 178.7616,-177.8235"/>
<polygon fill="#000000" stroke="#000000" stroke-width="2" points="180.865,-174.1858 168.4553,-171.422 176.4329,-181.3214 180.865,-174.1858"/>
</g>
<!-- yield_gap_maize_s&#45;&gt;spam_V_agg_t_sum_s -->
<g id="edge12" class="edge">
<title>yield_gap_maize_s-&gt;spam_V_agg_t_sum_s</title>
<path fill="none" stroke="#000000" stroke-width="2" d="M283.1513,-561.1646C283.1513,-552.8428 283.1513,-544.5473 283.1513,-536.8828"/>
<polygon fill="#000000" stroke="#000000" stroke-width="2" points="287.3514,-536.6867 283.1513,-524.6868 278.9514,-536.6868 287.3514,-536.6867"/>
</g>
<!-- acl_sum_evnt_m -->
<g id="node3" class="node rankC">
<title>acl_sum_evnt_m</title>
<path fill="none" stroke="#000000" d="M206.1513,-53C206.1513,-53 120.1513,-53 120.1513,-53 114.1513,-53 108.1513,-47 108.1513,-41 108.1513,-41 108.1513,-21 108.1513,-21 108.1513,-15 114.1513,-9 120.1513,-9 120.1513,-9 206.1513,-9 206.1513,-9 212.1513,-9 218.1513,-15 218.1513,-21 218.1513,-21 218.1513,-41 218.1513,-41 218.1513,-47 212.1513,-53 206.1513,-53"/>
<text text-anchor="middle" x="163.1513" y="-36.2" font-family="Helvetica, Arial, sans-serif" font-size="16.00" fill="#000000">Total conflict</text>
<text text-anchor="middle" x="163.1513" y="-18.2" font-family="Helvetica, Arial, sans-serif" font-size="16.00" fill="#000000">events</text>
</g>
<!-- acl_sum_fatl_m -->
<g id="node4" class="node rankC">
<title>acl_sum_fatl_m</title>
<path fill="none" stroke="#000000" d="M356.6513,-62C356.6513,-62 259.6513,-62 259.6513,-62 253.6513,-62 247.6513,-56 247.6513,-50 247.6513,-50 247.6513,-12 247.6513,-12 247.6513,-6 253.6513,0 259.6513,0 259.6513,0 356.6513,0 356.6513,0 362.6513,0 368.6513,-6 368.6513,-12 368.6513,-12 368.6513,-50 368.6513,-50 368.6513,-56 362.6513,-62 356.6513,-62"/>
<text text-anchor="middle" x="308.1513" y="-45.2" font-family="Helvetica, Arial, sans-serif" font-size="16.00" fill="#000000">Reported</text>
<text text-anchor="middle" x="308.1513" y="-27.2" font-family="Helvetica, Arial, sans-serif" font-size="16.00" fill="#000000">fatalities from</text>
<text text-anchor="middle" x="308.1513" y="-9.2" font-family="Helvetica, Arial, sans-serif" font-size="16.00" fill="#000000">conflicts</text>
</g>
<!-- acl_sum_evnt_m&#45;&gt;acl_sum_fatl_m -->
<g id="edge17" class="edge">
<title>acl_sum_evnt_m-&gt;acl_sum_fatl_m</title>
<path fill="none" stroke="#000000" stroke-width="2" d="M218.3759,-31C223.9851,-31 229.5942,-31 235.2033,-31"/>
<polygon fill="#000000" stroke="#000000" stroke-width="2" points="235.4828,-35.1999 247.4828,-31 235.4828,-26.7999 235.4828,-35.1999"/>
</g>
<!-- rurpop_s -->
<g id="node6" class="node rankB">
<title>rurpop_s</title>
<path fill="none" stroke="#000000" d="M116.6513,-224.5C116.6513,-224.5 209.6513,-224.5 209.6513,-224.5 215.6513,-224.5 221.6513,-230.5 221.6513,-236.5 221.6513,-236.5 221.6513,-301.5 221.6513,-301.5 221.6513,-307.5 215.6513,-313.5 209.6513,-313.5 209.6513,-313.5 116.6513,-313.5 116.6513,-313.5 110.6513,-313.5 104.6513,-307.5 104.6513,-301.5 104.6513,-301.5 104.6513,-236.5 104.6513,-236.5 104.6513,-230.5 110.6513,-224.5 116.6513,-224.5"/>
<text text-anchor="start" x="112.1513" y="-294.7" font-family="Helvetica, Arial, sans-serif" font-size="16.00" fill="#000000">Population in</text>
<text text-anchor="start" x="119.6513" y="-276.7" font-family="Helvetica, Arial, sans-serif" font-size="16.00" fill="#000000">rural areas</text>
<polyline fill="none" stroke="#000000" points="104.6513,-265.5 221.6513,-265.5 "/>
<text text-anchor="start" x="118.1513" y="-248.8" font-family="Helvetica, Arial, sans-serif" font-size="14.00" fill="#000000">effect: 3.216</text>
<text text-anchor="start" x="120.6513" y="-232.8" font-family="Helvetica, Arial, sans-serif" font-size="14.00" fill="#000000">error: 2.491</text>
</g>
<!-- et_actl_m_MAX_m&#45;&gt;rurpop_s -->
<g id="edge1" class="edge">
<title>et_actl_m_MAX_m-&gt;rurpop_s</title>
<path fill="none" stroke="#000000" stroke-width="2" d="M170.8868,-350.2223C170.1352,-342.331 169.3439,-334.0224 168.5659,-325.8529"/>
<polygon fill="#000000" stroke="#000000" stroke-width="2" points="172.721,-325.1812 167.4021,-313.6335 164.3588,-325.9776 172.721,-325.1812"/>
</g>
<!-- rurpop_s&#45;&gt;acl_sum_evnt_m -->
<g id="edge15" class="edge">
<title>rurpop_s-&gt;acl_sum_evnt_m</title>
<path fill="none" stroke="#000000" stroke-width="2" d="M176.2188,-224.3732C179.087,-212.6447 181.6997,-199.9345 183.1513,-188 187.9809,-148.2926 188.9327,-137.58 183.1513,-98 181.5498,-87.0356 178.5475,-75.3719 175.3471,-64.9016"/>
<polygon fill="#000000" stroke="#000000" stroke-width="2" points="179.2717,-63.3884 171.5711,-53.272 171.2823,-65.9825 179.2717,-63.3884"/>
</g>
<!-- rurpop_s&#45;&gt;ndvi_act_min_m -->
<g id="edge14" class="edge">
<title>rurpop_s-&gt;ndvi_act_min_m</title>
<path fill="none" stroke="#000000" stroke-width="2" d="M145.7378,-224.2223C142.5606,-216.0525 139.2095,-207.4354 135.9246,-198.9885"/>
<polygon fill="#000000" stroke="#000000" stroke-width="2" points="139.7726,-197.2952 131.5088,-187.6335 131.9438,-200.3398 139.7726,-197.2952"/>
</g>
<!-- cattle_number_s&#45;&gt;et_actl_m_MAX_m -->
<g id="edge2" class="edge">
<title>cattle_number_s-&gt;et_actl_m_MAX_m</title>
<path fill="none" stroke="#000000" stroke-width="2" d="M126.6048,-476.2962C131.303,-468.4286 136.7251,-459.3486 142.2058,-450.1707"/>
<polygon fill="#000000" stroke="#000000" stroke-width="2" points="145.8365,-452.2825 148.383,-439.8263 138.6245,-447.9758 145.8365,-452.2825"/>
</g>
<!-- cattle_number_s&#45;&gt;rurpop_s -->
<g id="edge3" class="edge">
<title>cattle_number_s-&gt;rurpop_s</title>
<path fill="none" stroke="#000000" stroke-width="2" d="M49.1513,-395C47.244,-361.4246 69.6419,-332.7661 95.0765,-311.3035"/>
<polygon fill="#000000" stroke="#000000" stroke-width="2" points="97.8002,-314.5031 104.5451,-303.726 92.5516,-307.9447 97.8002,-314.5031"/>
</g>
<!-- cattle_number_s&#45;&gt;ndvi_act_min_m -->
<g id="edge4" class="edge">
<title>cattle_number_s-&gt;ndvi_act_min_m</title>
<path fill="none" stroke="#000000" stroke-width="2" d="M88.5808,-476.437C71.4387,-456.448 50.9299,-426.3093 49.1513,-395"/>
<path fill="none" stroke="#000000" stroke-width="2" d="M49.1513,-395C45.9752,-339.0901 29.7848,-321.5446 49.1513,-269"/>
</g>
<!-- ndvi_act_min_m&#45;&gt;acl_sum_evnt_m -->
<g id="edge16" class="edge">
<title>ndvi_act_min_m-&gt;acl_sum_evnt_m</title>
<path fill="none" stroke="#000000" stroke-width="2" d="M133.6582,-98.4128C138.6365,-87.034 143.9019,-74.9986 148.5846,-64.2954"/>
<polygon fill="#000000" stroke="#000000" stroke-width="2" points="152.4338,-65.9755 153.3959,-53.2982 144.7381,-62.6086 152.4338,-65.9755"/>
</g>
<!-- spam_V_agg_t_sum_s&#45;&gt;et_actl_m_MAX_m -->
<g id="edge8" class="edge">
<title>spam_V_agg_t_sum_s-&gt;et_actl_m_MAX_m</title>
<path fill="none" stroke="#000000" stroke-width="2" d="M258.3739,-476.2962C249.8003,-467.921 239.8202,-458.1719 229.81,-448.3934"/>
<polygon fill="#000000" stroke="#000000" stroke-width="2" points="232.5589,-445.2073 221.0399,-439.8263 226.6891,-451.2161 232.5589,-445.2073"/>
</g>
<!-- spam_V_agg_t_sum_s&#45;&gt;rurpop_s -->
<g id="edge9" class="edge">
<title>spam_V_agg_t_sum_s-&gt;rurpop_s</title>
<path fill="none" stroke="#000000" stroke-width="2" d="M287.2441,-476.3658C291.2934,-445.1223 294.0993,-389.9533 272.1513,-350 262.6098,-332.631 247.5831,-317.9355 231.7019,-306.0304"/>
<polygon fill="#000000" stroke="#000000" stroke-width="2" points="233.965,-302.4866 221.7445,-298.9794 229.1106,-309.3419 233.965,-302.4866"/>
</g>
</g>
<style>.node path {
  stroke: #fff;
}
.node text {
  fill: #fff;
}
.node polyline {
  stroke: #fff;
}
.rankA path {
  fill: #2e3348;
}
.rankB path {
  fill: #437387;
}
.rankC path {
  fill: #1b6002;
}
.edge path {
  stroke: #666;
};
</style></svg>
