<?xml version="1.0" encoding="UTF-8" standalone="no"?>
<!DOCTYPE svg PUBLIC "-//W3C//DTD SVG 1.1//EN" "http://www.w3.org/Graphics/SVG/1.1/DTD/svg11.dtd">
<!-- Generated by graphviz version 2.40.1 (20161225.0304)
 -->
<!-- Title: causalModel Pages: 1 -->
<svg xmlns="http://www.w3.org/2000/svg" xmlns:xlink="http://www.w3.org/1999/xlink" width="" height="" viewBox="0.00 0.00 429.43 757.00" preserveAspectRatio="xMinYMin">
<g id="graph0" class="graph" transform="scale(1 1) rotate(0) translate(4 753)">
<title>causalModel</title>
<polygon fill="#ffffff" stroke="transparent" points="-4,4 -4,-753 425.432,-753 425.432,4 -4,4"/>
<text text-anchor="start" x="71.716" y="-10.3" font-family="Helvetica, Arial, sans-serif" font-weight="bold" font-size="14.00" fill="#000000">Causal Model: Sub-Saharan Africa</text>
<!-- et_actl_m_MAX_m -->
<g id="node1" class="node rankB">
<title>et_actl_m_MAX_m</title>
<path fill="none" stroke="#000000" d="M109.0719,-387.5C109.0719,-387.5 253.0719,-387.5 253.0719,-387.5 259.0719,-387.5 265.0719,-393.5 265.0719,-399.5 265.0719,-399.5 265.0719,-464.5 265.0719,-464.5 265.0719,-470.5 259.0719,-476.5 253.0719,-476.5 253.0719,-476.5 109.0719,-476.5 109.0719,-476.5 103.0719,-476.5 97.0719,-470.5 97.0719,-464.5 97.0719,-464.5 97.0719,-399.5 97.0719,-399.5 97.0719,-393.5 103.0719,-387.5 109.0719,-387.5"/>
<text text-anchor="start" x="156.0719" y="-457.7" font-family="Helvetica, Arial, sans-serif" font-size="16.00" fill="#000000">Actual</text>
<text text-anchor="start" x="106.0719" y="-439.7" font-family="Helvetica, Arial, sans-serif" font-size="16.00" fill="#000000">evapotranspiration</text>
<polyline fill="none" stroke="#000000" points="97.0719,-428.5 265.0719,-428.5 "/>
<text text-anchor="start" x="136.0719" y="-411.8" font-family="Helvetica, Arial, sans-serif" font-size="14.00" fill="#000000">effect: 0.514</text>
<text text-anchor="start" x="138.5719" y="-395.8" font-family="Helvetica, Arial, sans-serif" font-size="14.00" fill="#000000">error: 0.543</text>
</g>
<!-- rurpop_s -->
<g id="node6" class="node rankB">
<title>rurpop_s</title>
<path fill="none" stroke="#000000" d="M120.5719,-261.5C120.5719,-261.5 217.5719,-261.5 217.5719,-261.5 223.5719,-261.5 229.5719,-267.5 229.5719,-273.5 229.5719,-273.5 229.5719,-338.5 229.5719,-338.5 229.5719,-344.5 223.5719,-350.5 217.5719,-350.5 217.5719,-350.5 120.5719,-350.5 120.5719,-350.5 114.5719,-350.5 108.5719,-344.5 108.5719,-338.5 108.5719,-338.5 108.5719,-273.5 108.5719,-273.5 108.5719,-267.5 114.5719,-261.5 120.5719,-261.5"/>
<text text-anchor="start" x="118.0719" y="-331.7" font-family="Helvetica, Arial, sans-serif" font-size="16.00" fill="#000000">Population in</text>
<text text-anchor="start" x="125.5719" y="-313.7" font-family="Helvetica, Arial, sans-serif" font-size="16.00" fill="#000000">rural areas</text>
<polyline fill="none" stroke="#000000" points="108.5719,-302.5 229.5719,-302.5 "/>
<text text-anchor="start" x="124.0719" y="-285.8" font-family="Helvetica, Arial, sans-serif" font-size="14.00" fill="#000000">effect: 3.216</text>
<text text-anchor="start" x="126.5719" y="-269.8" font-family="Helvetica, Arial, sans-serif" font-size="14.00" fill="#000000">error: 2.491</text>
</g>
<!-- et_actl_m_MAX_m&#45;&gt;rurpop_s -->
<g id="edge1" class="edge">
<title>et_actl_m_MAX_m-&gt;rurpop_s</title>
<path fill="none" stroke="#666666" stroke-width="2" d="M176.8073,-387.2223C176.0558,-379.331 175.2645,-371.0224 174.4864,-362.8529"/>
<polygon fill="#666666" stroke="#666666" stroke-width="2" points="178.6416,-362.1812 173.3227,-350.6335 170.2794,-362.9776 178.6416,-362.1812"/>
</g>
<!-- cattle_number_s -->
<g id="node2" class="node rankB">
<title>cattle_number_s</title>
<path fill="none" stroke="#000000" d="M50.0719,-513.5C50.0719,-513.5 186.0719,-513.5 186.0719,-513.5 192.0719,-513.5 198.0719,-519.5 198.0719,-525.5 198.0719,-525.5 198.0719,-574.5 198.0719,-574.5 198.0719,-580.5 192.0719,-586.5 186.0719,-586.5 186.0719,-586.5 50.0719,-586.5 50.0719,-586.5 44.0719,-586.5 38.0719,-580.5 38.0719,-574.5 38.0719,-574.5 38.0719,-525.5 38.0719,-525.5 38.0719,-519.5 44.0719,-513.5 50.0719,-513.5"/>
<text text-anchor="start" x="47.0719" y="-567.7" font-family="Helvetica, Arial, sans-serif" font-size="16.00" fill="#000000">Count of livestock</text>
<text text-anchor="start" x="95.0719" y="-549.7" font-family="Helvetica, Arial, sans-serif" font-size="16.00" fill="#000000">cattle</text>
<polyline fill="none" stroke="#000000" points="38.0719,-538.5 198.0719,-538.5 "/>
<text text-anchor="start" x="51.0719" y="-521.8" font-family="Helvetica, Arial, sans-serif" font-size="14.00" fill="#000000">effect: Inestimable</text>
</g>
<!-- cattle_number_s&#45;&gt;et_actl_m_MAX_m -->
<g id="edge2" class="edge">
<title>cattle_number_s-&gt;et_actl_m_MAX_m</title>
<path fill="none" stroke="#666666" stroke-width="2" d="M137.6601,-513.3109C142.077,-505.038 146.8603,-496.0788 151.5831,-487.2329"/>
<polygon fill="#666666" stroke="#666666" stroke-width="2" points="155.3384,-489.1168 157.2851,-476.5529 147.9284,-485.1606 155.3384,-489.1168"/>
</g>
<!-- cattle_number_s&#45;&gt;rurpop_s -->
<g id="edge3" class="edge">
<title>cattle_number_s-&gt;rurpop_s</title>
<path fill="none" stroke="#666666" stroke-width="2" d="M53.0719,-432C51.8742,-398.7873 73.8357,-370.5572 98.9615,-349.2902"/>
<polygon fill="#666666" stroke="#666666" stroke-width="2" points="101.5961,-352.5611 108.3245,-341.7736 96.3375,-346.0107 101.5961,-352.5611"/>
</g>
<!-- ndvi_act_min_m -->
<g id="node7" class="node rankB">
<title>ndvi_act_min_m</title>
<path fill="none" stroke="#000000" d="M75.0719,-135.5C75.0719,-135.5 163.0719,-135.5 163.0719,-135.5 169.0719,-135.5 175.0719,-141.5 175.0719,-147.5 175.0719,-147.5 175.0719,-212.5 175.0719,-212.5 175.0719,-218.5 169.0719,-224.5 163.0719,-224.5 163.0719,-224.5 75.0719,-224.5 75.0719,-224.5 69.0719,-224.5 63.0719,-218.5 63.0719,-212.5 63.0719,-212.5 63.0719,-147.5 63.0719,-147.5 63.0719,-141.5 69.0719,-135.5 75.0719,-135.5"/>
<text text-anchor="start" x="79.0719" y="-205.7" font-family="Helvetica, Arial, sans-serif" font-size="16.00" fill="#000000">Density of</text>
<text text-anchor="start" x="78.0719" y="-187.7" font-family="Helvetica, Arial, sans-serif" font-size="16.00" fill="#000000">greenness</text>
<polyline fill="none" stroke="#000000" points="63.0719,-176.5 175.0719,-176.5 "/>
<text text-anchor="start" x="71.0719" y="-159.8" font-family="Helvetica, Arial, sans-serif" font-size="14.00" fill="#000000">effect: -0.613</text>
<text text-anchor="start" x="76.0719" y="-143.8" font-family="Helvetica, Arial, sans-serif" font-size="14.00" fill="#000000">error: 0.443</text>
</g>
<!-- cattle_number_s&#45;&gt;ndvi_act_min_m -->
<g id="edge4" class="edge">
<title>cattle_number_s-&gt;ndvi_act_min_m</title>
<path fill="none" stroke="#666666" stroke-width="2" d="M86.381,-513.4385C70.4008,-491.4179 54.1508,-461.9179 53.0719,-432"/>
<path fill="none" stroke="#666666" stroke-width="2" d="M53.0719,-432C51.0537,-376.0364 33.5412,-358.4839 53.0719,-306"/>
</g>
<!-- spi_3_m -->
<g id="node3" class="node rankA">
<title>spi_3_m</title>
<path fill="none" stroke="#000000" d="M71.0719,-641.5C71.0719,-641.5 165.0719,-641.5 165.0719,-641.5 171.0719,-641.5 177.0719,-647.5 177.0719,-653.5 177.0719,-653.5 177.0719,-718.5 177.0719,-718.5 177.0719,-724.5 171.0719,-730.5 165.0719,-730.5 165.0719,-730.5 71.0719,-730.5 71.0719,-730.5 65.0719,-730.5 59.0719,-724.5 59.0719,-718.5 59.0719,-718.5 59.0719,-653.5 59.0719,-653.5 59.0719,-647.5 65.0719,-641.5 71.0719,-641.5"/>
<text text-anchor="start" x="73.0719" y="-711.7" font-family="Helvetica, Arial, sans-serif" font-size="16.00" fill="#000000">Variation in</text>
<text text-anchor="start" x="68.0719" y="-693.7" font-family="Helvetica, Arial, sans-serif" font-size="16.00" fill="#000000">precipitation</text>
<polyline fill="none" stroke="#000000" points="59.0719,-682.5 177.0719,-682.5 "/>
<text text-anchor="start" x="73.0719" y="-665.8" font-family="Helvetica, Arial, sans-serif" font-size="14.00" fill="#000000">effect: 0.393</text>
<text text-anchor="start" x="75.5719" y="-649.8" font-family="Helvetica, Arial, sans-serif" font-size="14.00" fill="#000000">error: 0.568</text>
</g>
<!-- spi_3_m&#45;&gt;cattle_number_s -->
<g id="edge5" class="edge">
<title>spi_3_m-&gt;cattle_number_s</title>
<path fill="none" stroke="#666666" stroke-width="2" d="M118.0719,-641.4685C118.0719,-627.9456 118.0719,-613.0113 118.0719,-599.1999"/>
<polygon fill="#666666" stroke="#666666" stroke-width="2" points="122.272,-598.9044 118.0719,-586.9044 113.872,-598.9045 122.272,-598.9044"/>
</g>
<!-- spam_V_agg_t_sum_s -->
<g id="node4" class="node rankB">
<title>spam_V_agg_t_sum_s</title>
<path fill="none" stroke="#000000" d="M239.0719,-513.5C239.0719,-513.5 365.0719,-513.5 365.0719,-513.5 371.0719,-513.5 377.0719,-519.5 377.0719,-525.5 377.0719,-525.5 377.0719,-574.5 377.0719,-574.5 377.0719,-580.5 371.0719,-586.5 365.0719,-586.5 365.0719,-586.5 239.0719,-586.5 239.0719,-586.5 233.0719,-586.5 227.0719,-580.5 227.0719,-574.5 227.0719,-574.5 227.0719,-525.5 227.0719,-525.5 227.0719,-519.5 233.0719,-513.5 239.0719,-513.5"/>
<text text-anchor="start" x="245.0719" y="-567.7" font-family="Helvetica, Arial, sans-serif" font-size="16.00" fill="#000000">Value (USD) of</text>
<text text-anchor="start" x="258.5719" y="-549.7" font-family="Helvetica, Arial, sans-serif" font-size="16.00" fill="#000000">agriculture</text>
<polyline fill="none" stroke="#000000" points="227.0719,-538.5 377.0719,-538.5 "/>
<text text-anchor="start" x="235.0719" y="-521.8" font-family="Helvetica, Arial, sans-serif" font-size="14.00" fill="#000000">effect: Inestimable</text>
</g>
<!-- spi_3_m&#45;&gt;spam_V_agg_t_sum_s -->
<g id="edge6" class="edge">
<title>spi_3_m-&gt;spam_V_agg_t_sum_s</title>
<path fill="none" stroke="#666666" stroke-width="2" d="M177.3034,-642.2201C198.2537,-626.7352 221.8116,-609.3228 242.7678,-593.8334"/>
<polygon fill="#666666" stroke="#666666" stroke-width="2" points="245.3543,-597.1445 252.508,-586.6342 240.3614,-590.3894 245.3543,-597.1445"/>
</g>
<!-- spi_3_m&#45;&gt;ndvi_act_min_m -->
<g id="edge7" class="edge">
<title>spi_3_m-&gt;ndvi_act_min_m</title>
<path fill="none" stroke="#666666" stroke-width="2" d="M61.3789,-641.4512C45.977,-626.0378 31.2937,-607.4428 23.0719,-587 -23.794,-470.4727 9.268,-423.7125 53.0719,-306"/>
<path fill="none" stroke="#666666" stroke-width="2" d="M53.0719,-306C61.2056,-281.7671 73.5522,-256.5309 85.375,-235.0646"/>
<polygon fill="#666666" stroke="#666666" stroke-width="2" points="89.0779,-237.0485 91.2997,-224.5303 81.7564,-232.9307 89.0779,-237.0485"/>
</g>
<!-- spam_V_agg_t_sum_s&#45;&gt;et_actl_m_MAX_m -->
<g id="edge8" class="edge">
<title>spam_V_agg_t_sum_s-&gt;et_actl_m_MAX_m</title>
<path fill="none" stroke="#666666" stroke-width="2" d="M264.45,-513.3109C255.3142,-504.4016 245.3622,-494.6964 235.6182,-485.194"/>
<polygon fill="#666666" stroke="#666666" stroke-width="2" points="238.281,-481.9242 226.7575,-476.5529 232.4163,-487.938 238.281,-481.9242"/>
</g>
<!-- spam_V_agg_t_sum_s&#45;&gt;rurpop_s -->
<g id="edge9" class="edge">
<title>spam_V_agg_t_sum_s-&gt;rurpop_s</title>
<path fill="none" stroke="#666666" stroke-width="2" d="M304.7232,-513.3418C305.5307,-478.4403 302.1418,-425.6503 279.0719,-387 269.35,-370.7125 254.9659,-356.6959 239.7817,-345.121"/>
<polygon fill="#666666" stroke="#666666" stroke-width="2" points="241.9178,-341.4832 229.7289,-337.868 237.0029,-348.2953 241.9178,-341.4832"/>
</g>
<!-- yield_gap_maize_s -->
<g id="node5" class="node rankA">
<title>yield_gap_maize_s</title>
<path fill="none" stroke="#000000" d="M249.5719,-623.5C249.5719,-623.5 354.5719,-623.5 354.5719,-623.5 360.5719,-623.5 366.5719,-629.5 366.5719,-635.5 366.5719,-635.5 366.5719,-736.5 366.5719,-736.5 366.5719,-742.5 360.5719,-748.5 354.5719,-748.5 354.5719,-748.5 249.5719,-748.5 249.5719,-748.5 243.5719,-748.5 237.5719,-742.5 237.5719,-736.5 237.5719,-736.5 237.5719,-635.5 237.5719,-635.5 237.5719,-629.5 243.5719,-623.5 249.5719,-623.5"/>
<text text-anchor="start" x="250.0719" y="-729.7" font-family="Helvetica, Arial, sans-serif" font-size="16.00" fill="#000000">Gap between</text>
<text text-anchor="start" x="248.5719" y="-711.7" font-family="Helvetica, Arial, sans-serif" font-size="16.00" fill="#000000">observed and</text>
<text text-anchor="start" x="247.0719" y="-693.7" font-family="Helvetica, Arial, sans-serif" font-size="16.00" fill="#000000">potential corn</text>
<text text-anchor="start" x="283.5719" y="-675.7" font-family="Helvetica, Arial, sans-serif" font-size="16.00" fill="#000000">yield</text>
<polyline fill="none" stroke="#000000" points="237.5719,-664.5 366.5719,-664.5 "/>
<text text-anchor="start" x="254.0719" y="-647.8" font-family="Helvetica, Arial, sans-serif" font-size="14.00" fill="#000000">effect: -0.286</text>
<text text-anchor="start" x="259.0719" y="-631.8" font-family="Helvetica, Arial, sans-serif" font-size="14.00" fill="#000000">error: 0.338</text>
</g>
<!-- yield_gap_maize_s&#45;&gt;et_actl_m_MAX_m -->
<g id="edge10" class="edge">
<title>yield_gap_maize_s-&gt;et_actl_m_MAX_m</title>
<path fill="none" stroke="#666666" stroke-width="2" d="M366.5796,-644.9528C395.3258,-621.1969 422.5122,-588.4058 421.0719,-550"/>
<path fill="none" stroke="#666666" stroke-width="2" d="M421.0719,-550C419.8115,-516.3919 343.1206,-483.0331 276.7744,-460.404"/>
<polygon fill="#666666" stroke="#666666" stroke-width="2" points="278.0929,-456.4164 265.3803,-456.5864 275.4243,-464.3812 278.0929,-456.4164"/>
</g>
<!-- yield_gap_maize_s&#45;&gt;cattle_number_s -->
<g id="edge11" class="edge">
<title>yield_gap_maize_s-&gt;cattle_number_s</title>
<path fill="none" stroke="#666666" stroke-width="2" d="M237.4591,-638.2427C217.8832,-623.7736 196.4871,-607.9591 177.2837,-593.7653"/>
<polygon fill="#666666" stroke="#666666" stroke-width="2" points="179.6093,-590.2615 167.4627,-586.5063 174.6164,-597.0166 179.6093,-590.2615"/>
</g>
<!-- yield_gap_maize_s&#45;&gt;spam_V_agg_t_sum_s -->
<g id="edge12" class="edge">
<title>yield_gap_maize_s-&gt;spam_V_agg_t_sum_s</title>
<path fill="none" stroke="#666666" stroke-width="2" d="M302.0719,-623.1752C302.0719,-614.9539 302.0719,-606.6311 302.0719,-598.6913"/>
<polygon fill="#666666" stroke="#666666" stroke-width="2" points="306.272,-598.5992 302.0719,-586.5992 297.872,-598.5993 306.272,-598.5992"/>
</g>
<!-- yield_gap_maize_s&#45;&gt;ndvi_act_min_m -->
<g id="edge13" class="edge">
<title>yield_gap_maize_s-&gt;ndvi_act_min_m</title>
<path fill="none" stroke="#666666" stroke-width="2" d="M421.0719,-550C415.4271,-399.4857 349.2131,-368.8506 244.0719,-261 227.1629,-243.6553 205.8923,-228.1589 185.7157,-215.4803"/>
<polygon fill="#666666" stroke="#666666" stroke-width="2" points="187.7231,-211.7848 175.2933,-209.1122 183.3434,-218.9527 187.7231,-211.7848"/>
</g>
<!-- rurpop_s&#45;&gt;ndvi_act_min_m -->
<g id="edge14" class="edge">
<title>rurpop_s-&gt;ndvi_act_min_m</title>
<path fill="none" stroke="#666666" stroke-width="2" d="M151.303,-261.2223C148.061,-253.0525 144.6415,-244.4354 141.2895,-235.9885"/>
<polygon fill="#666666" stroke="#666666" stroke-width="2" points="145.1136,-234.2382 136.7836,-224.6335 137.3059,-237.3365 145.1136,-234.2382"/>
</g>
<!-- acl_sum_evnt_m -->
<g id="node8" class="node rankC">
<title>acl_sum_evnt_m</title>
<path fill="none" stroke="#000000" d="M211.0719,-90C211.0719,-90 127.0719,-90 127.0719,-90 121.0719,-90 115.0719,-84 115.0719,-78 115.0719,-78 115.0719,-52 115.0719,-52 115.0719,-46 121.0719,-40 127.0719,-40 127.0719,-40 211.0719,-40 211.0719,-40 217.0719,-40 223.0719,-46 223.0719,-52 223.0719,-52 223.0719,-78 223.0719,-78 223.0719,-84 217.0719,-90 211.0719,-90"/>
<text text-anchor="middle" x="169.0719" y="-70.2" font-family="Helvetica, Arial, sans-serif" font-size="16.00" fill="#000000">Total conflict</text>
<text text-anchor="middle" x="169.0719" y="-52.2" font-family="Helvetica, Arial, sans-serif" font-size="16.00" fill="#000000">events</text>
</g>
<!-- rurpop_s&#45;&gt;acl_sum_evnt_m -->
<g id="edge15" class="edge">
<title>rurpop_s-&gt;acl_sum_evnt_m</title>
<path fill="none" stroke="#666666" stroke-width="2" d="M182.1393,-261.3732C185.0076,-249.6447 187.6203,-236.9345 189.0719,-225 193.9015,-185.2926 194.6199,-174.6134 189.0719,-135 187.5473,-124.1142 184.7503,-112.5459 181.7215,-102.0152"/>
<polygon fill="#666666" stroke="#666666" stroke-width="2" points="185.6447,-100.4819 178.1217,-90.2328 177.6113,-102.9363 185.6447,-100.4819"/>
</g>
<!-- ndvi_act_min_m&#45;&gt;acl_sum_evnt_m -->
<g id="edge16" class="edge">
<title>ndvi_act_min_m-&gt;acl_sum_evnt_m</title>
<path fill="none" stroke="#666666" stroke-width="2" d="M138.5463,-135.2087C143.4194,-124.0006 148.5874,-112.1143 153.2583,-101.3711"/>
<polygon fill="#666666" stroke="#666666" stroke-width="2" points="157.1613,-102.9279 158.0943,-90.2484 149.4579,-99.5785 157.1613,-102.9279"/>
</g>
<!-- acl_sum_fatl_m -->
<g id="node9" class="node rankC">
<title>acl_sum_fatl_m</title>
<path fill="none" stroke="#000000" d="M359.5719,-99C359.5719,-99 264.5719,-99 264.5719,-99 258.5719,-99 252.5719,-93 252.5719,-87 252.5719,-87 252.5719,-43 252.5719,-43 252.5719,-37 258.5719,-31 264.5719,-31 264.5719,-31 359.5719,-31 359.5719,-31 365.5719,-31 371.5719,-37 371.5719,-43 371.5719,-43 371.5719,-87 371.5719,-87 371.5719,-93 365.5719,-99 359.5719,-99"/>
<text text-anchor="middle" x="312.0719" y="-79.2" font-family="Helvetica, Arial, sans-serif" font-size="16.00" fill="#000000">Reported</text>
<text text-anchor="middle" x="312.0719" y="-61.2" font-family="Helvetica, Arial, sans-serif" font-size="16.00" fill="#000000">fatalities from</text>
<text text-anchor="middle" x="312.0719" y="-43.2" font-family="Helvetica, Arial, sans-serif" font-size="16.00" fill="#000000">conflicts</text>
</g>
<!-- acl_sum_evnt_m&#45;&gt;acl_sum_fatl_m -->
<g id="edge17" class="edge">
<title>acl_sum_evnt_m-&gt;acl_sum_fatl_m</title>
<path fill="none" stroke="#666666" stroke-width="2" d="M223.2555,-65C228.8715,-65 234.4876,-65 240.1037,-65"/>
<polygon fill="#666666" stroke="#666666" stroke-width="2" points="240.3984,-69.2001 252.3983,-65 240.3983,-60.8001 240.3984,-69.2001"/>
</g>
</g>
<style>.node path {
  stroke: #fff;
}
.node text {
  fill: #fff;
}
.node polyline {
  stroke: #fff;
}
.rankA path {
  fill: #1b6002;
}
.rankB path {
  fill: #437387;
}
.rankC path {
  fill: #2e3348;
}
</style></svg>
