<?xml version="1.0" encoding="UTF-8" standalone="no"?>
<!DOCTYPE svg PUBLIC "-//W3C//DTD SVG 1.1//EN" "http://www.w3.org/Graphics/SVG/1.1/DTD/svg11.dtd">
<!-- Generated by graphviz version 2.40.1 (20161225.0304)
 -->
<!-- Title: causalModel Pages: 1 -->
<svg xmlns="http://www.w3.org/2000/svg" xmlns:xlink="http://www.w3.org/1999/xlink" width="" height="" viewBox="0.00 0.00 400.36 695.00" preserveAspectRatio="xMinYMin">
<g id="graph0" class="graph" transform="scale(1 1) rotate(0) translate(4 691)">
<title>causalModel</title>
<polygon fill="#ffffff" stroke="transparent" points="-4,4 -4,-691 396.3593,-691 396.3593,4 -4,4"/>
<!-- et_actl_m_MAX_m -->
<g id="node1" class="node rankB">
<title>et_actl_m_MAX_m</title>
<path fill="none" stroke="#000000" d="M106.0349,-350.5C106.0349,-350.5 246.0349,-350.5 246.0349,-350.5 252.0349,-350.5 258.0349,-356.5 258.0349,-362.5 258.0349,-362.5 258.0349,-427.5 258.0349,-427.5 258.0349,-433.5 252.0349,-439.5 246.0349,-439.5 246.0349,-439.5 106.0349,-439.5 106.0349,-439.5 100.0349,-439.5 94.0349,-433.5 94.0349,-427.5 94.0349,-427.5 94.0349,-362.5 94.0349,-362.5 94.0349,-356.5 100.0349,-350.5 106.0349,-350.5"/>
<text text-anchor="start" x="151.0349" y="-420.7" font-family="Helvetica, Arial, sans-serif" font-size="16.00" fill="#000000">Actual</text>
<text text-anchor="start" x="101.0349" y="-402.7" font-family="Helvetica, Arial, sans-serif" font-size="16.00" fill="#000000">evapotranspiration</text>
<polyline fill="none" stroke="#000000" points="94.0349,-391.5 258.0349,-391.5 "/>
<text text-anchor="start" x="131.0349" y="-374.8" font-family="Helvetica, Arial, sans-serif" font-size="14.00" fill="#000000">effect: 0.514</text>
<text text-anchor="start" x="133.5349" y="-358.8" font-family="Helvetica, Arial, sans-serif" font-size="14.00" fill="#000000">error: 0.543</text>
</g>
<!-- rurpop_s -->
<g id="node6" class="node rankB">
<title>rurpop_s</title>
<path fill="none" stroke="#000000" d="M117.5349,-224.5C117.5349,-224.5 210.5349,-224.5 210.5349,-224.5 216.5349,-224.5 222.5349,-230.5 222.5349,-236.5 222.5349,-236.5 222.5349,-301.5 222.5349,-301.5 222.5349,-307.5 216.5349,-313.5 210.5349,-313.5 210.5349,-313.5 117.5349,-313.5 117.5349,-313.5 111.5349,-313.5 105.5349,-307.5 105.5349,-301.5 105.5349,-301.5 105.5349,-236.5 105.5349,-236.5 105.5349,-230.5 111.5349,-224.5 117.5349,-224.5"/>
<text text-anchor="start" x="113.0349" y="-294.7" font-family="Helvetica, Arial, sans-serif" font-size="16.00" fill="#000000">Population in</text>
<text text-anchor="start" x="120.5349" y="-276.7" font-family="Helvetica, Arial, sans-serif" font-size="16.00" fill="#000000">rural areas</text>
<polyline fill="none" stroke="#000000" points="105.5349,-265.5 222.5349,-265.5 "/>
<text text-anchor="start" x="119.0349" y="-248.8" font-family="Helvetica, Arial, sans-serif" font-size="14.00" fill="#000000">effect: 3.216</text>
<text text-anchor="start" x="121.5349" y="-232.8" font-family="Helvetica, Arial, sans-serif" font-size="14.00" fill="#000000">error: 2.491</text>
</g>
<!-- et_actl_m_MAX_m&#45;&gt;rurpop_s -->
<g id="edge1" class="edge">
<title>et_actl_m_MAX_m-&gt;rurpop_s</title>
<path fill="none" stroke="#000000" stroke-width="2" d="M171.7703,-350.2223C171.0188,-342.331 170.2275,-334.0224 169.4494,-325.8529"/>
<polygon fill="#000000" stroke="#000000" stroke-width="2" points="173.6045,-325.1812 168.2857,-313.6335 165.2424,-325.9776 173.6045,-325.1812"/>
</g>
<!-- cattle_number_s -->
<g id="node2" class="node rankB">
<title>cattle_number_s</title>
<path fill="none" stroke="#000000" d="M47.0349,-476.5C47.0349,-476.5 179.0349,-476.5 179.0349,-476.5 185.0349,-476.5 191.0349,-482.5 191.0349,-488.5 191.0349,-488.5 191.0349,-512.5 191.0349,-512.5 191.0349,-518.5 185.0349,-524.5 179.0349,-524.5 179.0349,-524.5 47.0349,-524.5 47.0349,-524.5 41.0349,-524.5 35.0349,-518.5 35.0349,-512.5 35.0349,-512.5 35.0349,-488.5 35.0349,-488.5 35.0349,-482.5 41.0349,-476.5 47.0349,-476.5"/>
<text text-anchor="start" x="42.0349" y="-505.7" font-family="Helvetica, Arial, sans-serif" font-size="16.00" fill="#000000">Count of livestock</text>
<text text-anchor="start" x="90.0349" y="-487.7" font-family="Helvetica, Arial, sans-serif" font-size="16.00" fill="#000000">cattle</text>
</g>
<!-- cattle_number_s&#45;&gt;et_actl_m_MAX_m -->
<g id="edge2" class="edge">
<title>cattle_number_s-&gt;et_actl_m_MAX_m</title>
<path fill="none" stroke="#000000" stroke-width="2" d="M127.4883,-476.2962C132.1865,-468.4286 137.6087,-459.3486 143.0893,-450.1707"/>
<polygon fill="#000000" stroke="#000000" stroke-width="2" points="146.7201,-452.2825 149.2665,-439.8263 139.5081,-447.9758 146.7201,-452.2825"/>
</g>
<!-- cattle_number_s&#45;&gt;rurpop_s -->
<g id="edge3" class="edge">
<title>cattle_number_s-&gt;rurpop_s</title>
<path fill="none" stroke="#000000" stroke-width="2" d="M50.0349,-395C48.1275,-361.4246 70.5255,-332.7661 95.96,-311.3035"/>
<polygon fill="#000000" stroke="#000000" stroke-width="2" points="98.6838,-314.5031 105.4287,-303.726 93.4352,-307.9447 98.6838,-314.5031"/>
</g>
<!-- ndvi_act_min_m -->
<g id="node7" class="node rankB">
<title>ndvi_act_min_m</title>
<path fill="none" stroke="#000000" d="M73.0349,-98.5C73.0349,-98.5 157.0349,-98.5 157.0349,-98.5 163.0349,-98.5 169.0349,-104.5 169.0349,-110.5 169.0349,-110.5 169.0349,-175.5 169.0349,-175.5 169.0349,-181.5 163.0349,-187.5 157.0349,-187.5 157.0349,-187.5 73.0349,-187.5 73.0349,-187.5 67.0349,-187.5 61.0349,-181.5 61.0349,-175.5 61.0349,-175.5 61.0349,-110.5 61.0349,-110.5 61.0349,-104.5 67.0349,-98.5 73.0349,-98.5"/>
<text text-anchor="start" x="75.0349" y="-168.7" font-family="Helvetica, Arial, sans-serif" font-size="16.00" fill="#000000">Density of</text>
<text text-anchor="start" x="74.0349" y="-150.7" font-family="Helvetica, Arial, sans-serif" font-size="16.00" fill="#000000">greenness</text>
<polyline fill="none" stroke="#000000" points="61.0349,-139.5 169.0349,-139.5 "/>
<text text-anchor="start" x="67.0349" y="-122.8" font-family="Helvetica, Arial, sans-serif" font-size="14.00" fill="#000000">effect: -0.613</text>
<text text-anchor="start" x="72.0349" y="-106.8" font-family="Helvetica, Arial, sans-serif" font-size="14.00" fill="#000000">error: 0.443</text>
</g>
<!-- cattle_number_s&#45;&gt;ndvi_act_min_m -->
<g id="edge4" class="edge">
<title>cattle_number_s-&gt;ndvi_act_min_m</title>
<path fill="none" stroke="#000000" stroke-width="2" d="M89.4644,-476.437C72.3223,-456.448 51.8135,-426.3093 50.0349,-395"/>
<path fill="none" stroke="#000000" stroke-width="2" d="M50.0349,-395C46.8587,-339.0901 30.6683,-321.5446 50.0349,-269"/>
</g>
<!-- spi_3_m -->
<g id="node3" class="node rankA">
<title>spi_3_m</title>
<path fill="none" stroke="#000000" d="M57.0349,-561.5C57.0349,-561.5 169.0349,-561.5 169.0349,-561.5 175.0349,-561.5 181.0349,-567.5 181.0349,-573.5 181.0349,-573.5 181.0349,-674.5 181.0349,-674.5 181.0349,-680.5 175.0349,-686.5 169.0349,-686.5 169.0349,-686.5 57.0349,-686.5 57.0349,-686.5 51.0349,-686.5 45.0349,-680.5 45.0349,-674.5 45.0349,-674.5 45.0349,-573.5 45.0349,-573.5 45.0349,-567.5 51.0349,-561.5 57.0349,-561.5"/>
<text text-anchor="start" x="68.0349" y="-667.7" font-family="Helvetica, Arial, sans-serif" font-size="16.00" fill="#000000">Variation in</text>
<text text-anchor="start" x="63.0349" y="-649.7" font-family="Helvetica, Arial, sans-serif" font-size="16.00" fill="#000000">precipitation</text>
<text text-anchor="start" x="59.5349" y="-631.7" font-family="Helvetica, Arial, sans-serif" font-size="16.00" fill="#000000">patterns over</text>
<text text-anchor="start" x="52.0349" y="-613.7" font-family="Helvetica, Arial, sans-serif" font-size="16.00" fill="#000000">3-month period</text>
<polyline fill="none" stroke="#000000" points="45.0349,-602.5 181.0349,-602.5 "/>
<text text-anchor="start" x="68.0349" y="-585.8" font-family="Helvetica, Arial, sans-serif" font-size="14.00" fill="#000000">effect: 0.393</text>
<text text-anchor="start" x="70.5349" y="-569.8" font-family="Helvetica, Arial, sans-serif" font-size="14.00" fill="#000000">error: 0.568</text>
</g>
<!-- spi_3_m&#45;&gt;cattle_number_s -->
<g id="edge5" class="edge">
<title>spi_3_m-&gt;cattle_number_s</title>
<path fill="none" stroke="#000000" stroke-width="2" d="M113.0349,-561.1646C113.0349,-552.8428 113.0349,-544.5473 113.0349,-536.8828"/>
<polygon fill="#000000" stroke="#000000" stroke-width="2" points="117.235,-536.6867 113.0349,-524.6868 108.835,-536.6868 117.235,-536.6867"/>
</g>
<!-- spam_V_agg_t_sum_s -->
<g id="node4" class="node rankB">
<title>spam_V_agg_t_sum_s</title>
<path fill="none" stroke="#000000" d="M232.0349,-476.5C232.0349,-476.5 336.0349,-476.5 336.0349,-476.5 342.0349,-476.5 348.0349,-482.5 348.0349,-488.5 348.0349,-488.5 348.0349,-512.5 348.0349,-512.5 348.0349,-518.5 342.0349,-524.5 336.0349,-524.5 336.0349,-524.5 232.0349,-524.5 232.0349,-524.5 226.0349,-524.5 220.0349,-518.5 220.0349,-512.5 220.0349,-512.5 220.0349,-488.5 220.0349,-488.5 220.0349,-482.5 226.0349,-476.5 232.0349,-476.5"/>
<text text-anchor="start" x="227.0349" y="-505.7" font-family="Helvetica, Arial, sans-serif" font-size="16.00" fill="#000000">Value (USD) of</text>
<text text-anchor="start" x="240.5349" y="-487.7" font-family="Helvetica, Arial, sans-serif" font-size="16.00" fill="#000000">agriculture</text>
</g>
<!-- spi_3_m&#45;&gt;spam_V_agg_t_sum_s -->
<g id="edge6" class="edge">
<title>spi_3_m-&gt;spam_V_agg_t_sum_s</title>
<path fill="none" stroke="#000000" stroke-width="2" d="M181.1099,-574.8347C201.1345,-560.3725 222.4908,-544.9485 240.5293,-531.9207"/>
<polygon fill="#000000" stroke="#000000" stroke-width="2" points="243.1857,-535.1831 250.4548,-524.7523 238.2676,-528.3733 243.1857,-535.1831"/>
</g>
<!-- spi_3_m&#45;&gt;ndvi_act_min_m -->
<g id="edge7" class="edge">
<title>spi_3_m-&gt;ndvi_act_min_m</title>
<path fill="none" stroke="#000000" stroke-width="2" d="M44.8621,-565.2607C34.7229,-553.0599 25.7656,-539.4705 20.0349,-525 -22.1455,-418.4919 10.4177,-376.4878 50.0349,-269"/>
<path fill="none" stroke="#000000" stroke-width="2" d="M50.0349,-269C57.9731,-244.7896 70.1189,-219.5577 81.7718,-198.0886"/>
<polygon fill="#000000" stroke="#000000" stroke-width="2" points="85.4679,-200.0837 87.6131,-187.5522 78.1213,-196.0108 85.4679,-200.0837"/>
</g>
<!-- spam_V_agg_t_sum_s&#45;&gt;et_actl_m_MAX_m -->
<g id="edge8" class="edge">
<title>spam_V_agg_t_sum_s-&gt;et_actl_m_MAX_m</title>
<path fill="none" stroke="#000000" stroke-width="2" d="M259.2575,-476.2962C250.6838,-467.921 240.7038,-458.1719 230.6935,-448.3934"/>
<polygon fill="#000000" stroke="#000000" stroke-width="2" points="233.4424,-445.2073 221.9234,-439.8263 227.5726,-451.2161 233.4424,-445.2073"/>
</g>
<!-- spam_V_agg_t_sum_s&#45;&gt;rurpop_s -->
<g id="edge9" class="edge">
<title>spam_V_agg_t_sum_s-&gt;rurpop_s</title>
<path fill="none" stroke="#000000" stroke-width="2" d="M288.1277,-476.3658C292.177,-445.1223 294.9828,-389.9533 273.0349,-350 263.4934,-332.631 248.4667,-317.9355 232.5854,-306.0304"/>
<polygon fill="#000000" stroke="#000000" stroke-width="2" points="234.8485,-302.4866 222.628,-298.9794 229.9942,-309.3419 234.8485,-302.4866"/>
</g>
<!-- yield_gap_maize_s -->
<g id="node5" class="node rankA">
<title>yield_gap_maize_s</title>
<path fill="none" stroke="#000000" d="M233.5349,-561.5C233.5349,-561.5 334.5349,-561.5 334.5349,-561.5 340.5349,-561.5 346.5349,-567.5 346.5349,-573.5 346.5349,-573.5 346.5349,-674.5 346.5349,-674.5 346.5349,-680.5 340.5349,-686.5 334.5349,-686.5 334.5349,-686.5 233.5349,-686.5 233.5349,-686.5 227.5349,-686.5 221.5349,-680.5 221.5349,-674.5 221.5349,-674.5 221.5349,-573.5 221.5349,-573.5 221.5349,-567.5 227.5349,-561.5 233.5349,-561.5"/>
<text text-anchor="start" x="232.0349" y="-667.7" font-family="Helvetica, Arial, sans-serif" font-size="16.00" fill="#000000">Gap between</text>
<text text-anchor="start" x="230.5349" y="-649.7" font-family="Helvetica, Arial, sans-serif" font-size="16.00" fill="#000000">observed and</text>
<text text-anchor="start" x="229.0349" y="-631.7" font-family="Helvetica, Arial, sans-serif" font-size="16.00" fill="#000000">potential corn</text>
<text text-anchor="start" x="265.5349" y="-613.7" font-family="Helvetica, Arial, sans-serif" font-size="16.00" fill="#000000">yield</text>
<polyline fill="none" stroke="#000000" points="221.5349,-602.5 346.5349,-602.5 "/>
<text text-anchor="start" x="236.0349" y="-585.8" font-family="Helvetica, Arial, sans-serif" font-size="14.00" fill="#000000">effect: -0.286</text>
<text text-anchor="start" x="241.0349" y="-569.8" font-family="Helvetica, Arial, sans-serif" font-size="14.00" fill="#000000">error: 0.338</text>
</g>
<!-- yield_gap_maize_s&#45;&gt;et_actl_m_MAX_m -->
<g id="edge10" class="edge">
<title>yield_gap_maize_s-&gt;et_actl_m_MAX_m</title>
<path fill="none" stroke="#000000" stroke-width="2" d="M346.7706,-583.2132C371.2793,-561.9672 393.3324,-533.5147 392.0349,-500.5"/>
<path fill="none" stroke="#000000" stroke-width="2" d="M392.0349,-500.5C390.8978,-471.5694 327.5421,-443.0079 269.7458,-422.9139"/>
<polygon fill="#000000" stroke="#000000" stroke-width="2" points="270.9941,-418.9022 258.2808,-419.0104 268.2867,-426.854 270.9941,-418.9022"/>
</g>
<!-- yield_gap_maize_s&#45;&gt;cattle_number_s -->
<g id="edge11" class="edge">
<title>yield_gap_maize_s-&gt;cattle_number_s</title>
<path fill="none" stroke="#000000" stroke-width="2" d="M221.3318,-578.7144C199.7405,-563.1208 176.0569,-546.0159 156.3583,-531.7891"/>
<polygon fill="#000000" stroke="#000000" stroke-width="2" points="158.6399,-528.2561 146.4526,-524.6351 153.7217,-535.0659 158.6399,-528.2561"/>
</g>
<!-- yield_gap_maize_s&#45;&gt;spam_V_agg_t_sum_s -->
<g id="edge12" class="edge">
<title>yield_gap_maize_s-&gt;spam_V_agg_t_sum_s</title>
<path fill="none" stroke="#000000" stroke-width="2" d="M284.0349,-561.1646C284.0349,-552.8428 284.0349,-544.5473 284.0349,-536.8828"/>
<polygon fill="#000000" stroke="#000000" stroke-width="2" points="288.235,-536.6867 284.0349,-524.6868 279.835,-536.6868 288.235,-536.6867"/>
</g>
<!-- yield_gap_maize_s&#45;&gt;ndvi_act_min_m -->
<g id="edge13" class="edge">
<title>yield_gap_maize_s-&gt;ndvi_act_min_m</title>
<path fill="none" stroke="#000000" stroke-width="2" d="M392.0349,-500.5C386.5022,-359.728 332.8384,-327.291 237.0349,-224 220.6191,-206.3012 199.5976,-190.5886 179.6452,-177.8235"/>
<polygon fill="#000000" stroke="#000000" stroke-width="2" points="181.7486,-174.1858 169.3388,-171.422 177.3165,-181.3214 181.7486,-174.1858"/>
</g>
<!-- rurpop_s&#45;&gt;ndvi_act_min_m -->
<g id="edge14" class="edge">
<title>rurpop_s-&gt;ndvi_act_min_m</title>
<path fill="none" stroke="#000000" stroke-width="2" d="M146.6213,-224.2223C143.4442,-216.0525 140.0931,-207.4354 136.8082,-198.9885"/>
<polygon fill="#000000" stroke="#000000" stroke-width="2" points="140.6562,-197.2952 132.3923,-187.6335 132.8273,-200.3398 140.6562,-197.2952"/>
</g>
<!-- acl_sum_evnt_m -->
<g id="node8" class="node rankC">
<title>acl_sum_evnt_m</title>
<path fill="none" stroke="#000000" d="M207.0349,-53C207.0349,-53 121.0349,-53 121.0349,-53 115.0349,-53 109.0349,-47 109.0349,-41 109.0349,-41 109.0349,-21 109.0349,-21 109.0349,-15 115.0349,-9 121.0349,-9 121.0349,-9 207.0349,-9 207.0349,-9 213.0349,-9 219.0349,-15 219.0349,-21 219.0349,-21 219.0349,-41 219.0349,-41 219.0349,-47 213.0349,-53 207.0349,-53"/>
<text text-anchor="middle" x="164.0349" y="-36.2" font-family="Helvetica, Arial, sans-serif" font-size="16.00" fill="#000000">Total conflict</text>
<text text-anchor="middle" x="164.0349" y="-18.2" font-family="Helvetica, Arial, sans-serif" font-size="16.00" fill="#000000">events</text>
</g>
<!-- rurpop_s&#45;&gt;acl_sum_evnt_m -->
<g id="edge15" class="edge">
<title>rurpop_s-&gt;acl_sum_evnt_m</title>
<path fill="none" stroke="#000000" stroke-width="2" d="M176.4502,-224.3386C179.1751,-212.6106 181.6568,-199.9092 183.0349,-188 187.6327,-148.2651 188.5438,-137.6188 183.0349,-98 181.5029,-86.9826 178.6182,-75.2309 175.5509,-64.6956"/>
<polygon fill="#000000" stroke="#000000" stroke-width="2" points="179.4933,-63.2277 171.9363,-53.0036 171.468,-65.7088 179.4933,-63.2277"/>
</g>
<!-- ndvi_act_min_m&#45;&gt;acl_sum_evnt_m -->
<g id="edge16" class="edge">
<title>ndvi_act_min_m-&gt;acl_sum_evnt_m</title>
<path fill="none" stroke="#000000" stroke-width="2" d="M134.5418,-98.4128C139.52,-87.034 144.7855,-74.9986 149.4681,-64.2954"/>
<polygon fill="#000000" stroke="#000000" stroke-width="2" points="153.3174,-65.9755 154.2794,-53.2982 145.6217,-62.6086 153.3174,-65.9755"/>
</g>
<!-- acl_sum_fatl_m -->
<g id="node9" class="node rankC">
<title>acl_sum_fatl_m</title>
<path fill="none" stroke="#000000" d="M357.5349,-62C357.5349,-62 260.5349,-62 260.5349,-62 254.5349,-62 248.5349,-56 248.5349,-50 248.5349,-50 248.5349,-12 248.5349,-12 248.5349,-6 254.5349,0 260.5349,0 260.5349,0 357.5349,0 357.5349,0 363.5349,0 369.5349,-6 369.5349,-12 369.5349,-12 369.5349,-50 369.5349,-50 369.5349,-56 363.5349,-62 357.5349,-62"/>
<text text-anchor="middle" x="309.0349" y="-45.2" font-family="Helvetica, Arial, sans-serif" font-size="16.00" fill="#000000">Reported</text>
<text text-anchor="middle" x="309.0349" y="-27.2" font-family="Helvetica, Arial, sans-serif" font-size="16.00" fill="#000000">fatalities from</text>
<text text-anchor="middle" x="309.0349" y="-9.2" font-family="Helvetica, Arial, sans-serif" font-size="16.00" fill="#000000">conflicts</text>
</g>
<!-- acl_sum_evnt_m&#45;&gt;acl_sum_fatl_m -->
<g id="edge17" class="edge">
<title>acl_sum_evnt_m-&gt;acl_sum_fatl_m</title>
<path fill="none" stroke="#000000" stroke-width="2" d="M219.2595,-31C224.8686,-31 230.4777,-31 236.0869,-31"/>
<polygon fill="#000000" stroke="#000000" stroke-width="2" points="236.3663,-35.1999 248.3663,-31 236.3664,-26.7999 236.3663,-35.1999"/>
</g>
</g>
<style>.node path {
  stroke: #fff;
}
.node text {
  fill: #fff;
}
.node polyline {
  stroke: #fff;
}
.rankA path {
  fill: #2e3348;
}
.rankB path {
  fill: #437387;
}
.rankC path {
  fill: #1b6002;
}
.edge path {
  stroke: #666;
};
</style></svg>
