<?xml version="1.0" encoding="UTF-8" standalone="no"?>
<!DOCTYPE svg PUBLIC "-//W3C//DTD SVG 1.1//EN" "http://www.w3.org/Graphics/SVG/1.1/DTD/svg11.dtd">
<!-- Generated by graphviz version 2.40.1 (20161225.0304)
 -->
<!-- Title: causalModel Pages: 1 -->
<svg xmlns="http://www.w3.org/2000/svg" xmlns:xlink="http://www.w3.org/1999/xlink" width="" height="" viewBox="0.00 0.00 408.71 740.00" preserveAspectRatio="xMinYMin">
<g id="graph0" class="graph" transform="scale(1 1) rotate(0) translate(4 736)">
<title>causalModel</title>
<polygon fill="#ffffff" stroke="transparent" points="-4,4 -4,-736 404.7066,-736 404.7066,4 -4,4"/>
<text text-anchor="middle" x="200.3533" y="-7.8" font-family="Helvetica, Arial, sans-serif" font-size="14.00" fill="#000000">Causal Model: Sub-Saharan Africa</text>
<!-- et_actl_m_MAX_m -->
<g id="node1" class="node rankB">
<title>et_actl_m_MAX_m</title>
<path fill="none" stroke="#000000" d="M106.3635,-395.5C106.3635,-395.5 250.3635,-395.5 250.3635,-395.5 256.3635,-395.5 262.3635,-401.5 262.3635,-407.5 262.3635,-407.5 262.3635,-472.5 262.3635,-472.5 262.3635,-478.5 256.3635,-484.5 250.3635,-484.5 250.3635,-484.5 106.3635,-484.5 106.3635,-484.5 100.3635,-484.5 94.3635,-478.5 94.3635,-472.5 94.3635,-472.5 94.3635,-407.5 94.3635,-407.5 94.3635,-401.5 100.3635,-395.5 106.3635,-395.5"/>
<text text-anchor="start" x="153.3635" y="-465.7" font-family="Helvetica, Arial, sans-serif" font-size="16.00" fill="#000000">Actual</text>
<text text-anchor="start" x="103.3635" y="-447.7" font-family="Helvetica, Arial, sans-serif" font-size="16.00" fill="#000000">evapotranspiration</text>
<polyline fill="none" stroke="#000000" points="94.3635,-436.5 262.3635,-436.5 "/>
<text text-anchor="start" x="133.3635" y="-419.8" font-family="Helvetica, Arial, sans-serif" font-size="14.00" fill="#000000">effect: 0.514</text>
<text text-anchor="start" x="135.8635" y="-403.8" font-family="Helvetica, Arial, sans-serif" font-size="14.00" fill="#000000">error: 0.543</text>
</g>
<!-- rurpop_s -->
<g id="node6" class="node rankB">
<title>rurpop_s</title>
<path fill="none" stroke="#000000" d="M117.8635,-269.5C117.8635,-269.5 214.8635,-269.5 214.8635,-269.5 220.8635,-269.5 226.8635,-275.5 226.8635,-281.5 226.8635,-281.5 226.8635,-346.5 226.8635,-346.5 226.8635,-352.5 220.8635,-358.5 214.8635,-358.5 214.8635,-358.5 117.8635,-358.5 117.8635,-358.5 111.8635,-358.5 105.8635,-352.5 105.8635,-346.5 105.8635,-346.5 105.8635,-281.5 105.8635,-281.5 105.8635,-275.5 111.8635,-269.5 117.8635,-269.5"/>
<text text-anchor="start" x="115.3635" y="-339.7" font-family="Helvetica, Arial, sans-serif" font-size="16.00" fill="#000000">Population in</text>
<text text-anchor="start" x="122.8635" y="-321.7" font-family="Helvetica, Arial, sans-serif" font-size="16.00" fill="#000000">rural areas</text>
<polyline fill="none" stroke="#000000" points="105.8635,-310.5 226.8635,-310.5 "/>
<text text-anchor="start" x="121.3635" y="-293.8" font-family="Helvetica, Arial, sans-serif" font-size="14.00" fill="#000000">effect: 3.216</text>
<text text-anchor="start" x="123.8635" y="-277.8" font-family="Helvetica, Arial, sans-serif" font-size="14.00" fill="#000000">error: 2.491</text>
</g>
<!-- et_actl_m_MAX_m&#45;&gt;rurpop_s -->
<g id="edge1" class="edge">
<title>et_actl_m_MAX_m-&gt;rurpop_s</title>
<path fill="none" stroke="#666666" stroke-width="2" d="M174.0989,-395.2223C173.3474,-387.331 172.5561,-379.0224 171.778,-370.8529"/>
<polygon fill="#666666" stroke="#666666" stroke-width="2" points="175.9332,-370.1812 170.6143,-358.6335 167.571,-370.9776 175.9332,-370.1812"/>
</g>
<!-- cattle_number_s -->
<g id="node2" class="node rankB">
<title>cattle_number_s</title>
<path fill="none" stroke="#000000" d="M47.3635,-521.5C47.3635,-521.5 183.3635,-521.5 183.3635,-521.5 189.3635,-521.5 195.3635,-527.5 195.3635,-533.5 195.3635,-533.5 195.3635,-557.5 195.3635,-557.5 195.3635,-563.5 189.3635,-569.5 183.3635,-569.5 183.3635,-569.5 47.3635,-569.5 47.3635,-569.5 41.3635,-569.5 35.3635,-563.5 35.3635,-557.5 35.3635,-557.5 35.3635,-533.5 35.3635,-533.5 35.3635,-527.5 41.3635,-521.5 47.3635,-521.5"/>
<text text-anchor="start" x="44.3635" y="-550.7" font-family="Helvetica, Arial, sans-serif" font-size="16.00" fill="#000000">Count of livestock</text>
<text text-anchor="start" x="92.3635" y="-532.7" font-family="Helvetica, Arial, sans-serif" font-size="16.00" fill="#000000">cattle</text>
</g>
<!-- cattle_number_s&#45;&gt;et_actl_m_MAX_m -->
<g id="edge2" class="edge">
<title>cattle_number_s-&gt;et_actl_m_MAX_m</title>
<path fill="none" stroke="#666666" stroke-width="2" d="M129.817,-521.2962C134.5151,-513.4286 139.9373,-504.3486 145.4179,-495.1707"/>
<polygon fill="#666666" stroke="#666666" stroke-width="2" points="149.0487,-497.2825 151.5951,-484.8263 141.8367,-492.9758 149.0487,-497.2825"/>
</g>
<!-- cattle_number_s&#45;&gt;rurpop_s -->
<g id="edge3" class="edge">
<title>cattle_number_s-&gt;rurpop_s</title>
<path fill="none" stroke="#666666" stroke-width="2" d="M50.3635,-440C48.3416,-406.5619 70.5666,-378.1516 96.0882,-356.8201"/>
<polygon fill="#666666" stroke="#666666" stroke-width="2" points="98.8023,-360.0283 105.6013,-349.2852 93.5867,-353.4435 98.8023,-360.0283"/>
</g>
<!-- ndvi_act_min_m -->
<g id="node7" class="node rankB">
<title>ndvi_act_min_m</title>
<path fill="none" stroke="#000000" d="M72.3635,-143.5C72.3635,-143.5 160.3635,-143.5 160.3635,-143.5 166.3635,-143.5 172.3635,-149.5 172.3635,-155.5 172.3635,-155.5 172.3635,-220.5 172.3635,-220.5 172.3635,-226.5 166.3635,-232.5 160.3635,-232.5 160.3635,-232.5 72.3635,-232.5 72.3635,-232.5 66.3635,-232.5 60.3635,-226.5 60.3635,-220.5 60.3635,-220.5 60.3635,-155.5 60.3635,-155.5 60.3635,-149.5 66.3635,-143.5 72.3635,-143.5"/>
<text text-anchor="start" x="76.3635" y="-213.7" font-family="Helvetica, Arial, sans-serif" font-size="16.00" fill="#000000">Density of</text>
<text text-anchor="start" x="75.3635" y="-195.7" font-family="Helvetica, Arial, sans-serif" font-size="16.00" fill="#000000">greenness</text>
<polyline fill="none" stroke="#000000" points="60.3635,-184.5 172.3635,-184.5 "/>
<text text-anchor="start" x="68.3635" y="-167.8" font-family="Helvetica, Arial, sans-serif" font-size="14.00" fill="#000000">effect: -0.613</text>
<text text-anchor="start" x="73.3635" y="-151.8" font-family="Helvetica, Arial, sans-serif" font-size="14.00" fill="#000000">error: 0.443</text>
</g>
<!-- cattle_number_s&#45;&gt;ndvi_act_min_m -->
<g id="edge4" class="edge">
<title>cattle_number_s-&gt;ndvi_act_min_m</title>
<path fill="none" stroke="#666666" stroke-width="2" d="M90.7238,-521.1693C73.1343,-501.2577 52.2592,-471.3521 50.3635,-440"/>
<path fill="none" stroke="#666666" stroke-width="2" d="M50.3635,-440C46.9836,-384.1021 30.8329,-366.4839 50.3635,-314"/>
</g>
<!-- spi_3_m -->
<g id="node3" class="node rankA">
<title>spi_3_m</title>
<path fill="none" stroke="#000000" d="M57.3635,-606.5C57.3635,-606.5 173.3635,-606.5 173.3635,-606.5 179.3635,-606.5 185.3635,-612.5 185.3635,-618.5 185.3635,-618.5 185.3635,-719.5 185.3635,-719.5 185.3635,-725.5 179.3635,-731.5 173.3635,-731.5 173.3635,-731.5 57.3635,-731.5 57.3635,-731.5 51.3635,-731.5 45.3635,-725.5 45.3635,-719.5 45.3635,-719.5 45.3635,-618.5 45.3635,-618.5 45.3635,-612.5 51.3635,-606.5 57.3635,-606.5"/>
<text text-anchor="start" x="70.3635" y="-712.7" font-family="Helvetica, Arial, sans-serif" font-size="16.00" fill="#000000">Variation in</text>
<text text-anchor="start" x="65.3635" y="-694.7" font-family="Helvetica, Arial, sans-serif" font-size="16.00" fill="#000000">precipitation</text>
<text text-anchor="start" x="61.8635" y="-676.7" font-family="Helvetica, Arial, sans-serif" font-size="16.00" fill="#000000">patterns over</text>
<text text-anchor="start" x="54.3635" y="-658.7" font-family="Helvetica, Arial, sans-serif" font-size="16.00" fill="#000000">3-month period</text>
<polyline fill="none" stroke="#000000" points="45.3635,-647.5 185.3635,-647.5 "/>
<text text-anchor="start" x="70.3635" y="-630.8" font-family="Helvetica, Arial, sans-serif" font-size="14.00" fill="#000000">effect: 0.393</text>
<text text-anchor="start" x="72.8635" y="-614.8" font-family="Helvetica, Arial, sans-serif" font-size="14.00" fill="#000000">error: 0.568</text>
</g>
<!-- spi_3_m&#45;&gt;cattle_number_s -->
<g id="edge5" class="edge">
<title>spi_3_m-&gt;cattle_number_s</title>
<path fill="none" stroke="#666666" stroke-width="2" d="M115.3635,-606.1646C115.3635,-597.8428 115.3635,-589.5473 115.3635,-581.8828"/>
<polygon fill="#666666" stroke="#666666" stroke-width="2" points="119.5636,-581.6867 115.3635,-569.6868 111.1636,-581.6868 119.5636,-581.6867"/>
</g>
<!-- spam_V_agg_t_sum_s -->
<g id="node4" class="node rankB">
<title>spam_V_agg_t_sum_s</title>
<path fill="none" stroke="#000000" d="M236.3635,-521.5C236.3635,-521.5 344.3635,-521.5 344.3635,-521.5 350.3635,-521.5 356.3635,-527.5 356.3635,-533.5 356.3635,-533.5 356.3635,-557.5 356.3635,-557.5 356.3635,-563.5 350.3635,-569.5 344.3635,-569.5 344.3635,-569.5 236.3635,-569.5 236.3635,-569.5 230.3635,-569.5 224.3635,-563.5 224.3635,-557.5 224.3635,-557.5 224.3635,-533.5 224.3635,-533.5 224.3635,-527.5 230.3635,-521.5 236.3635,-521.5"/>
<text text-anchor="start" x="233.3635" y="-550.7" font-family="Helvetica, Arial, sans-serif" font-size="16.00" fill="#000000">Value (USD) of</text>
<text text-anchor="start" x="246.8635" y="-532.7" font-family="Helvetica, Arial, sans-serif" font-size="16.00" fill="#000000">agriculture</text>
</g>
<!-- spi_3_m&#45;&gt;spam_V_agg_t_sum_s -->
<g id="edge6" class="edge">
<title>spi_3_m-&gt;spam_V_agg_t_sum_s</title>
<path fill="none" stroke="#666666" stroke-width="2" d="M185.5343,-619.4794C206.0739,-604.9844 227.9405,-589.5528 246.3589,-576.5546"/>
<polygon fill="#666666" stroke="#666666" stroke-width="2" points="248.8236,-579.9559 256.2063,-569.6052 243.9802,-573.0928 248.8236,-579.9559"/>
</g>
<!-- spi_3_m&#45;&gt;ndvi_act_min_m -->
<g id="edge7" class="edge">
<title>spi_3_m-&gt;ndvi_act_min_m</title>
<path fill="none" stroke="#666666" stroke-width="2" d="M45.2752,-609.8955C35.1091,-597.818 26.141,-584.3652 20.3635,-570 -22.3821,-463.7175 10.4107,-421.3636 50.3635,-314"/>
<path fill="none" stroke="#666666" stroke-width="2" d="M50.3635,-314C58.4503,-289.7514 70.788,-264.5122 82.6168,-243.0479"/>
<polygon fill="#666666" stroke="#666666" stroke-width="2" points="86.3194,-245.0324 88.5457,-232.515 78.9994,-240.912 86.3194,-245.0324"/>
</g>
<!-- spam_V_agg_t_sum_s&#45;&gt;et_actl_m_MAX_m -->
<g id="edge8" class="edge">
<title>spam_V_agg_t_sum_s-&gt;et_actl_m_MAX_m</title>
<path fill="none" stroke="#666666" stroke-width="2" d="M264.6684,-521.2962C255.6874,-512.8364 245.2183,-502.9748 234.7319,-493.0971"/>
<polygon fill="#666666" stroke="#666666" stroke-width="2" points="237.5664,-489.9972 225.9516,-484.8263 231.8068,-496.1116 237.5664,-489.9972"/>
</g>
<!-- spam_V_agg_t_sum_s&#45;&gt;rurpop_s -->
<g id="edge9" class="edge">
<title>spam_V_agg_t_sum_s-&gt;rurpop_s</title>
<path fill="none" stroke="#666666" stroke-width="2" d="M293.8895,-521.3034C297.2234,-489.9924 298.8294,-434.7505 276.3635,-395 266.9348,-378.3172 252.4997,-364.0962 237.1579,-352.445"/>
<polygon fill="#666666" stroke="#666666" stroke-width="2" points="239.1896,-348.734 226.9886,-345.1595 234.2975,-355.5624 239.1896,-348.734"/>
</g>
<!-- yield_gap_maize_s -->
<g id="node5" class="node rankA">
<title>yield_gap_maize_s</title>
<path fill="none" stroke="#000000" d="M237.8635,-606.5C237.8635,-606.5 342.8635,-606.5 342.8635,-606.5 348.8635,-606.5 354.8635,-612.5 354.8635,-618.5 354.8635,-618.5 354.8635,-719.5 354.8635,-719.5 354.8635,-725.5 348.8635,-731.5 342.8635,-731.5 342.8635,-731.5 237.8635,-731.5 237.8635,-731.5 231.8635,-731.5 225.8635,-725.5 225.8635,-719.5 225.8635,-719.5 225.8635,-618.5 225.8635,-618.5 225.8635,-612.5 231.8635,-606.5 237.8635,-606.5"/>
<text text-anchor="start" x="238.3635" y="-712.7" font-family="Helvetica, Arial, sans-serif" font-size="16.00" fill="#000000">Gap between</text>
<text text-anchor="start" x="236.8635" y="-694.7" font-family="Helvetica, Arial, sans-serif" font-size="16.00" fill="#000000">observed and</text>
<text text-anchor="start" x="235.3635" y="-676.7" font-family="Helvetica, Arial, sans-serif" font-size="16.00" fill="#000000">potential corn</text>
<text text-anchor="start" x="271.8635" y="-658.7" font-family="Helvetica, Arial, sans-serif" font-size="16.00" fill="#000000">yield</text>
<polyline fill="none" stroke="#000000" points="225.8635,-647.5 354.8635,-647.5 "/>
<text text-anchor="start" x="242.3635" y="-630.8" font-family="Helvetica, Arial, sans-serif" font-size="14.00" fill="#000000">effect: -0.286</text>
<text text-anchor="start" x="247.3635" y="-614.8" font-family="Helvetica, Arial, sans-serif" font-size="14.00" fill="#000000">error: 0.338</text>
</g>
<!-- yield_gap_maize_s&#45;&gt;et_actl_m_MAX_m -->
<g id="edge10" class="edge">
<title>yield_gap_maize_s-&gt;et_actl_m_MAX_m</title>
<path fill="none" stroke="#666666" stroke-width="2" d="M354.9626,-627.8996C379.6775,-606.7637 401.7359,-578.4911 400.3635,-545.5"/>
<path fill="none" stroke="#666666" stroke-width="2" d="M400.3635,-545.5C399.1284,-515.8099 333.53,-487.1992 273.9662,-467.2811"/>
<polygon fill="#666666" stroke="#666666" stroke-width="2" points="275.2549,-463.2837 262.5437,-463.5404 272.6406,-471.2666 275.2549,-463.2837"/>
</g>
<!-- yield_gap_maize_s&#45;&gt;cattle_number_s -->
<g id="edge11" class="edge">
<title>yield_gap_maize_s-&gt;cattle_number_s</title>
<path fill="none" stroke="#666666" stroke-width="2" d="M225.6971,-623.364C203.8082,-607.9167 179.8696,-591.0229 159.9013,-576.931"/>
<polygon fill="#666666" stroke="#666666" stroke-width="2" points="162.0791,-573.3273 149.853,-569.8397 157.2357,-580.1904 162.0791,-573.3273"/>
</g>
<!-- yield_gap_maize_s&#45;&gt;spam_V_agg_t_sum_s -->
<g id="edge12" class="edge">
<title>yield_gap_maize_s-&gt;spam_V_agg_t_sum_s</title>
<path fill="none" stroke="#666666" stroke-width="2" d="M290.3635,-606.1646C290.3635,-597.8428 290.3635,-589.5473 290.3635,-581.8828"/>
<polygon fill="#666666" stroke="#666666" stroke-width="2" points="294.5636,-581.6867 290.3635,-569.6868 286.1636,-581.6868 294.5636,-581.6867"/>
</g>
<!-- yield_gap_maize_s&#45;&gt;ndvi_act_min_m -->
<g id="edge13" class="edge">
<title>yield_gap_maize_s-&gt;ndvi_act_min_m</title>
<path fill="none" stroke="#666666" stroke-width="2" d="M400.3635,-545.5C394.4716,-403.8641 338.9055,-371.864 241.3635,-269 224.6203,-251.3433 203.2973,-235.723 183.0234,-223.0277"/>
<polygon fill="#666666" stroke="#666666" stroke-width="2" points="184.9828,-219.3037 172.5469,-216.6602 180.62,-226.4819 184.9828,-219.3037"/>
</g>
<!-- rurpop_s&#45;&gt;ndvi_act_min_m -->
<g id="edge14" class="edge">
<title>rurpop_s-&gt;ndvi_act_min_m</title>
<path fill="none" stroke="#666666" stroke-width="2" d="M148.5946,-269.2223C145.3526,-261.0525 141.9331,-252.4354 138.5811,-243.9885"/>
<polygon fill="#666666" stroke="#666666" stroke-width="2" points="142.4052,-242.2382 134.0752,-232.6335 134.5975,-245.3365 142.4052,-242.2382"/>
</g>
<!-- acl_sum_evnt_m -->
<g id="node8" class="node rankC">
<title>acl_sum_evnt_m</title>
<path fill="none" stroke="#000000" d="M208.3635,-98C208.3635,-98 124.3635,-98 124.3635,-98 118.3635,-98 112.3635,-92 112.3635,-86 112.3635,-86 112.3635,-60 112.3635,-60 112.3635,-54 118.3635,-48 124.3635,-48 124.3635,-48 208.3635,-48 208.3635,-48 214.3635,-48 220.3635,-54 220.3635,-60 220.3635,-60 220.3635,-86 220.3635,-86 220.3635,-92 214.3635,-98 208.3635,-98"/>
<text text-anchor="middle" x="166.3635" y="-78.2" font-family="Helvetica, Arial, sans-serif" font-size="16.00" fill="#000000">Total conflict</text>
<text text-anchor="middle" x="166.3635" y="-60.2" font-family="Helvetica, Arial, sans-serif" font-size="16.00" fill="#000000">events</text>
</g>
<!-- rurpop_s&#45;&gt;acl_sum_evnt_m -->
<g id="edge15" class="edge">
<title>rurpop_s-&gt;acl_sum_evnt_m</title>
<path fill="none" stroke="#666666" stroke-width="2" d="M179.4309,-269.3732C182.2992,-257.6447 184.9119,-244.9345 186.3635,-233 191.1931,-193.2926 191.9115,-182.6134 186.3635,-143 184.8389,-132.1142 182.0419,-120.5459 179.0131,-110.0152"/>
<polygon fill="#666666" stroke="#666666" stroke-width="2" points="182.9363,-108.4819 175.4133,-98.2328 174.9029,-110.9363 182.9363,-108.4819"/>
</g>
<!-- ndvi_act_min_m&#45;&gt;acl_sum_evnt_m -->
<g id="edge16" class="edge">
<title>ndvi_act_min_m-&gt;acl_sum_evnt_m</title>
<path fill="none" stroke="#666666" stroke-width="2" d="M135.838,-143.2087C140.711,-132.0006 145.879,-120.1143 150.55,-109.3711"/>
<polygon fill="#666666" stroke="#666666" stroke-width="2" points="154.4529,-110.9279 155.3859,-98.2484 146.7495,-107.5785 154.4529,-110.9279"/>
</g>
<!-- acl_sum_fatl_m -->
<g id="node9" class="node rankC">
<title>acl_sum_fatl_m</title>
<path fill="none" stroke="#000000" d="M356.8635,-107C356.8635,-107 261.8635,-107 261.8635,-107 255.8635,-107 249.8635,-101 249.8635,-95 249.8635,-95 249.8635,-51 249.8635,-51 249.8635,-45 255.8635,-39 261.8635,-39 261.8635,-39 356.8635,-39 356.8635,-39 362.8635,-39 368.8635,-45 368.8635,-51 368.8635,-51 368.8635,-95 368.8635,-95 368.8635,-101 362.8635,-107 356.8635,-107"/>
<text text-anchor="middle" x="309.3635" y="-87.2" font-family="Helvetica, Arial, sans-serif" font-size="16.00" fill="#000000">Reported</text>
<text text-anchor="middle" x="309.3635" y="-69.2" font-family="Helvetica, Arial, sans-serif" font-size="16.00" fill="#000000">fatalities from</text>
<text text-anchor="middle" x="309.3635" y="-51.2" font-family="Helvetica, Arial, sans-serif" font-size="16.00" fill="#000000">conflicts</text>
</g>
<!-- acl_sum_evnt_m&#45;&gt;acl_sum_fatl_m -->
<g id="edge17" class="edge">
<title>acl_sum_evnt_m-&gt;acl_sum_fatl_m</title>
<path fill="none" stroke="#666666" stroke-width="2" d="M220.5471,-73C226.1631,-73 231.7792,-73 237.3953,-73"/>
<polygon fill="#666666" stroke="#666666" stroke-width="2" points="237.69,-77.2001 249.69,-73 237.6899,-68.8001 237.69,-77.2001"/>
</g>
</g>
<style>.node path {
  stroke: #fff;
}
.node text {
  fill: #fff;
}
.node polyline {
  stroke: #fff;
}
.rankA path {
  fill: #2e3348;
}
.rankB path {
  fill: #437387;
}
.rankC path {
  fill: #1b6002;
}
</style></svg>
