<?xml version="1.0" encoding="UTF-8" standalone="no"?>
<!DOCTYPE svg PUBLIC "-//W3C//DTD SVG 1.1//EN" "http://www.w3.org/Graphics/SVG/1.1/DTD/svg11.dtd">
<!-- Generated by graphviz version 2.40.1 (20161225.0304)
 -->
<!-- Title: causalModel Pages: 1 -->
<svg xmlns="http://www.w3.org/2000/svg" xmlns:xlink="http://www.w3.org/1999/xlink" width="" height="" viewBox="0.00 0.00 481.23 899.00" preserveAspectRatio="xMinYMin">
<g id="graph0" class="graph" transform="scale(1 1) rotate(0) translate(4 895)">
<title>causalModel</title>
<polygon fill="#ffffff" stroke="transparent" points="-4,4 -4,-895 477.2277,-895 477.2277,4 -4,4"/>
<!-- et_actl_m_MAX_m -->
<g id="node1" class="node rankB">
<title>et_actl_m_MAX_m</title>
<path fill="none" stroke="#000000" d="M108.2277,-518.5C108.2277,-518.5 303.2277,-518.5 303.2277,-518.5 309.2277,-518.5 315.2277,-524.5 315.2277,-530.5 315.2277,-530.5 315.2277,-577.5 315.2277,-577.5 315.2277,-583.5 309.2277,-589.5 303.2277,-589.5 303.2277,-589.5 108.2277,-589.5 108.2277,-589.5 102.2277,-589.5 96.2277,-583.5 96.2277,-577.5 96.2277,-577.5 96.2277,-530.5 96.2277,-530.5 96.2277,-524.5 102.2277,-518.5 108.2277,-518.5"/>
<text text-anchor="start" x="103.7277" y="-570.7" font-family="Helvetica, Arial, sans-serif" font-size="16.00" fill="#000000">Actual evapotranspiration</text>
<polyline fill="none" stroke="#000000" points="96.2277,-559.5 315.2277,-559.5 "/>
<text text-anchor="start" x="160.7277" y="-542.8" font-family="Helvetica, Arial, sans-serif" font-size="14.00" fill="#000000">effect: 0.514</text>
<text text-anchor="start" x="163.2277" y="-526.8" font-family="Helvetica, Arial, sans-serif" font-size="14.00" fill="#000000">error: 0.543</text>
</g>
<!-- rurpop_s -->
<g id="node2" class="node rankB">
<title>rurpop_s</title>
<path fill="none" stroke="#000000" d="M110.2277,-374.5C110.2277,-374.5 295.2277,-374.5 295.2277,-374.5 301.2277,-374.5 307.2277,-380.5 307.2277,-386.5 307.2277,-386.5 307.2277,-433.5 307.2277,-433.5 307.2277,-439.5 301.2277,-445.5 295.2277,-445.5 295.2277,-445.5 110.2277,-445.5 110.2277,-445.5 104.2277,-445.5 98.2277,-439.5 98.2277,-433.5 98.2277,-433.5 98.2277,-386.5 98.2277,-386.5 98.2277,-380.5 104.2277,-374.5 110.2277,-374.5"/>
<text text-anchor="start" x="105.7277" y="-426.7" font-family="Helvetica, Arial, sans-serif" font-size="16.00" fill="#000000">Population in rural areas</text>
<polyline fill="none" stroke="#000000" points="98.2277,-415.5 307.2277,-415.5 "/>
<text text-anchor="start" x="157.7277" y="-398.8" font-family="Helvetica, Arial, sans-serif" font-size="14.00" fill="#000000">effect: 3.216</text>
<text text-anchor="start" x="160.2277" y="-382.8" font-family="Helvetica, Arial, sans-serif" font-size="14.00" fill="#000000">error: 2.491</text>
</g>
<!-- et_actl_m_MAX_m&#45;&gt;rurpop_s -->
<g id="edge1" class="edge">
<title>et_actl_m_MAX_m-&gt;rurpop_s</title>
<path fill="none" stroke="#000000" stroke-width="2" d="M204.9861,-518.4045C204.6057,-500.1446 204.137,-477.6456 203.7253,-457.886"/>
<polygon fill="#000000" stroke="#000000" stroke-width="2" points="207.9203,-457.595 203.4711,-445.6851 199.5221,-457.77 207.9203,-457.595"/>
</g>
<!-- ndvi_act_min_m -->
<g id="node4" class="node rankB">
<title>ndvi_act_min_m</title>
<path fill="none" stroke="#000000" d="M56.2277,-230.5C56.2277,-230.5 213.2277,-230.5 213.2277,-230.5 219.2277,-230.5 225.2277,-236.5 225.2277,-242.5 225.2277,-242.5 225.2277,-289.5 225.2277,-289.5 225.2277,-295.5 219.2277,-301.5 213.2277,-301.5 213.2277,-301.5 56.2277,-301.5 56.2277,-301.5 50.2277,-301.5 44.2277,-295.5 44.2277,-289.5 44.2277,-289.5 44.2277,-242.5 44.2277,-242.5 44.2277,-236.5 50.2277,-230.5 56.2277,-230.5"/>
<text text-anchor="start" x="51.7277" y="-282.7" font-family="Helvetica, Arial, sans-serif" font-size="16.00" fill="#000000">Density of greenness</text>
<polyline fill="none" stroke="#000000" points="44.2277,-271.5 225.2277,-271.5 "/>
<text text-anchor="start" x="86.7277" y="-254.8" font-family="Helvetica, Arial, sans-serif" font-size="14.00" fill="#000000">effect: -0.613</text>
<text text-anchor="start" x="91.7277" y="-238.8" font-family="Helvetica, Arial, sans-serif" font-size="14.00" fill="#000000">error: 0.443</text>
</g>
<!-- rurpop_s&#45;&gt;ndvi_act_min_m -->
<g id="edge14" class="edge">
<title>rurpop_s-&gt;ndvi_act_min_m</title>
<path fill="none" stroke="#000000" stroke-width="2" d="M185.9187,-374.4045C177.1325,-355.7985 166.2679,-332.791 156.8113,-312.7652"/>
<polygon fill="#000000" stroke="#000000" stroke-width="2" points="160.501,-310.7426 151.579,-301.6851 152.9053,-314.3295 160.501,-310.7426"/>
</g>
<!-- acl_sum_evnt_m -->
<g id="node8" class="node rankC">
<title>acl_sum_evnt_m</title>
<path fill="none" stroke="#000000" d="M127.7277,-121.5C127.7277,-121.5 275.7277,-121.5 275.7277,-121.5 281.7277,-121.5 287.7277,-127.5 287.7277,-133.5 287.7277,-133.5 287.7277,-145.5 287.7277,-145.5 287.7277,-151.5 281.7277,-157.5 275.7277,-157.5 275.7277,-157.5 127.7277,-157.5 127.7277,-157.5 121.7277,-157.5 115.7277,-151.5 115.7277,-145.5 115.7277,-145.5 115.7277,-133.5 115.7277,-133.5 115.7277,-127.5 121.7277,-121.5 127.7277,-121.5"/>
<text text-anchor="start" x="122.7277" y="-135.7" font-family="Helvetica, Arial, sans-serif" font-size="16.00" fill="#000000">Total conflict events</text>
</g>
<!-- rurpop_s&#45;&gt;acl_sum_evnt_m -->
<g id="edge15" class="edge">
<title>rurpop_s-&gt;acl_sum_evnt_m</title>
<path fill="none" stroke="#000000" stroke-width="2" d="M218.2945,-374.2812C226.4542,-353.6029 235.5925,-326.8292 239.7277,-302 244.9847,-270.4348 246.0464,-261.3699 239.7277,-230 235.4081,-208.5548 225.865,-185.8598 217.4234,-168.5613"/>
<polygon fill="#000000" stroke="#000000" stroke-width="2" points="221.0037,-166.3349 211.833,-157.5293 213.5108,-170.1319 221.0037,-166.3349"/>
</g>
<!-- cattle_number_s -->
<g id="node3" class="node rankB">
<title>cattle_number_s</title>
<path fill="none" stroke="#000000" d="M49.2277,-668.5C49.2277,-668.5 232.2277,-668.5 232.2277,-668.5 238.2277,-668.5 244.2277,-674.5 244.2277,-680.5 244.2277,-680.5 244.2277,-692.5 244.2277,-692.5 244.2277,-698.5 238.2277,-704.5 232.2277,-704.5 232.2277,-704.5 49.2277,-704.5 49.2277,-704.5 43.2277,-704.5 37.2277,-698.5 37.2277,-692.5 37.2277,-692.5 37.2277,-680.5 37.2277,-680.5 37.2277,-674.5 43.2277,-668.5 49.2277,-668.5"/>
<text text-anchor="start" x="44.7277" y="-682.7" font-family="Helvetica, Arial, sans-serif" font-size="16.00" fill="#000000">Count of livestock cattle</text>
</g>
<!-- cattle_number_s&#45;&gt;et_actl_m_MAX_m -->
<g id="edge2" class="edge">
<title>cattle_number_s-&gt;et_actl_m_MAX_m</title>
<path fill="none" stroke="#000000" stroke-width="2" d="M149.6294,-668.3543C158.1838,-650.9163 171.4708,-623.8313 182.9667,-600.3975"/>
<polygon fill="#000000" stroke="#000000" stroke-width="2" points="186.7534,-602.2146 188.2678,-589.5913 179.2119,-598.515 186.7534,-602.2146"/>
</g>
<!-- cattle_number_s&#45;&gt;rurpop_s -->
<g id="edge3" class="edge">
<title>cattle_number_s-&gt;rurpop_s</title>
<path fill="none" stroke="#000000" stroke-width="2" d="M51.7277,-554C49.374,-510.6875 82.2585,-476.3884 117.9312,-452.1468"/>
<polygon fill="#000000" stroke="#000000" stroke-width="2" points="120.2669,-455.638 128.0398,-445.5771 115.6893,-448.5949 120.2669,-455.638"/>
</g>
<!-- cattle_number_s&#45;&gt;ndvi_act_min_m -->
<g id="edge4" class="edge">
<title>cattle_number_s-&gt;ndvi_act_min_m</title>
<path fill="none" stroke="#000000" stroke-width="2" d="M119.1046,-668.4371C93.6009,-645.0454 54.3139,-601.5929 51.7277,-554"/>
<path fill="none" stroke="#000000" stroke-width="2" d="M51.7277,-554C48.255,-490.0943 29.0342,-469.8415 51.7277,-410"/>
</g>
<!-- ndvi_act_min_m&#45;&gt;acl_sum_evnt_m -->
<g id="edge16" class="edge">
<title>ndvi_act_min_m-&gt;acl_sum_evnt_m</title>
<path fill="none" stroke="#000000" stroke-width="2" d="M153.5692,-230.4261C163.9542,-210.8185 176.6803,-186.7909 186.4419,-168.3606"/>
<polygon fill="#000000" stroke="#000000" stroke-width="2" points="190.1842,-170.2683 192.0892,-157.698 182.761,-166.3366 190.1842,-170.2683"/>
</g>
<!-- spi_3_m -->
<g id="node5" class="node rankA">
<title>spi_3_m</title>
<path fill="none" stroke="#000000" d="M39.7277,-783.5C39.7277,-783.5 201.7277,-783.5 201.7277,-783.5 207.7277,-783.5 213.7277,-789.5 213.7277,-795.5 213.7277,-795.5 213.7277,-878.5 213.7277,-878.5 213.7277,-884.5 207.7277,-890.5 201.7277,-890.5 201.7277,-890.5 39.7277,-890.5 39.7277,-890.5 33.7277,-890.5 27.7277,-884.5 27.7277,-878.5 27.7277,-878.5 27.7277,-795.5 27.7277,-795.5 27.7277,-789.5 33.7277,-783.5 39.7277,-783.5"/>
<text text-anchor="start" x="75.7277" y="-871.7" font-family="Helvetica, Arial, sans-serif" font-size="16.00" fill="#000000">Variation in</text>
<text text-anchor="start" x="34.7277" y="-853.7" font-family="Helvetica, Arial, sans-serif" font-size="16.00" fill="#000000">precipitation patterns</text>
<text text-anchor="start" x="39.2277" y="-835.7" font-family="Helvetica, Arial, sans-serif" font-size="16.00" fill="#000000">over 3-month period</text>
<polyline fill="none" stroke="#000000" points="27.7277,-824.5 213.7277,-824.5 "/>
<text text-anchor="start" x="75.7277" y="-807.8" font-family="Helvetica, Arial, sans-serif" font-size="14.00" fill="#000000">effect: 0.393</text>
<text text-anchor="start" x="78.2277" y="-791.8" font-family="Helvetica, Arial, sans-serif" font-size="14.00" fill="#000000">error: 0.568</text>
</g>
<!-- spi_3_m&#45;&gt;cattle_number_s -->
<g id="edge5" class="edge">
<title>spi_3_m-&gt;cattle_number_s</title>
<path fill="none" stroke="#000000" stroke-width="2" d="M127.8917,-783.0911C130.8605,-760.7504 134.193,-735.6738 136.7182,-716.6712"/>
<polygon fill="#000000" stroke="#000000" stroke-width="2" points="140.9057,-717.0429 138.3231,-704.5942 132.5789,-715.9363 140.9057,-717.0429"/>
</g>
<!-- spi_3_m&#45;&gt;ndvi_act_min_m -->
<g id="edge7" class="edge">
<title>spi_3_m-&gt;ndvi_act_min_m</title>
<path fill="none" stroke="#000000" stroke-width="2" d="M66.4438,-783.4784C48.9816,-762.6718 31.8114,-737.4747 22.7277,-711 -20.8891,-583.8773 4.0723,-535.6646 51.7277,-410"/>
<path fill="none" stroke="#000000" stroke-width="2" d="M51.7277,-410C63.9664,-375.2842 84.6176,-339.4101 102.2582,-312.1523"/>
<polygon fill="#000000" stroke="#000000" stroke-width="2" points="106.0003,-314.1066 109.0973,-301.7758 98.9867,-309.4839 106.0003,-314.1066"/>
</g>
<!-- spam_V_agg_t_sum_s -->
<g id="node6" class="node rankB">
<title>spam_V_agg_t_sum_s</title>
<path fill="none" stroke="#000000" d="M285.7277,-662.5C285.7277,-662.5 389.7277,-662.5 389.7277,-662.5 395.7277,-662.5 401.7277,-668.5 401.7277,-674.5 401.7277,-674.5 401.7277,-698.5 401.7277,-698.5 401.7277,-704.5 395.7277,-710.5 389.7277,-710.5 389.7277,-710.5 285.7277,-710.5 285.7277,-710.5 279.7277,-710.5 273.7277,-704.5 273.7277,-698.5 273.7277,-698.5 273.7277,-674.5 273.7277,-674.5 273.7277,-668.5 279.7277,-662.5 285.7277,-662.5"/>
<text text-anchor="start" x="280.7277" y="-691.7" font-family="Helvetica, Arial, sans-serif" font-size="16.00" fill="#000000">Value (USD) of</text>
<text text-anchor="start" x="294.2277" y="-673.7" font-family="Helvetica, Arial, sans-serif" font-size="16.00" fill="#000000">agriculture</text>
</g>
<!-- spi_3_m&#45;&gt;spam_V_agg_t_sum_s -->
<g id="edge6" class="edge">
<title>spi_3_m-&gt;spam_V_agg_t_sum_s</title>
<path fill="none" stroke="#000000" stroke-width="2" d="M198.1506,-783.3034C229.9897,-761.2215 265.728,-736.4352 293.0707,-717.4718"/>
<polygon fill="#000000" stroke="#000000" stroke-width="2" points="295.6463,-720.7968 303.1133,-710.5068 290.8591,-713.8944 295.6463,-720.7968"/>
</g>
<!-- spam_V_agg_t_sum_s&#45;&gt;et_actl_m_MAX_m -->
<g id="edge8" class="edge">
<title>spam_V_agg_t_sum_s-&gt;et_actl_m_MAX_m</title>
<path fill="none" stroke="#000000" stroke-width="2" d="M313.5169,-662.1975C295.7238,-644.337 271.0472,-619.5669 249.7941,-598.2334"/>
<polygon fill="#000000" stroke="#000000" stroke-width="2" points="252.6762,-595.1754 241.2315,-589.6383 246.7253,-601.1038 252.6762,-595.1754"/>
</g>
<!-- spam_V_agg_t_sum_s&#45;&gt;rurpop_s -->
<g id="edge9" class="edge">
<title>spam_V_agg_t_sum_s-&gt;rurpop_s</title>
<path fill="none" stroke="#000000" stroke-width="2" d="M342.3112,-662.4216C347.5768,-628.3282 352.7837,-564.9173 329.7277,-518 317.107,-492.3177 295.2918,-470.3639 273.2666,-453.0893"/>
<polygon fill="#000000" stroke="#000000" stroke-width="2" points="275.6148,-449.5998 263.504,-445.7309 270.5587,-456.3078 275.6148,-449.5998"/>
</g>
<!-- yield_gap_maize_s -->
<g id="node7" class="node rankA">
<title>yield_gap_maize_s</title>
<path fill="none" stroke="#000000" d="M254.2277,-792.5C254.2277,-792.5 461.2277,-792.5 461.2277,-792.5 467.2277,-792.5 473.2277,-798.5 473.2277,-804.5 473.2277,-804.5 473.2277,-869.5 473.2277,-869.5 473.2277,-875.5 467.2277,-881.5 461.2277,-881.5 461.2277,-881.5 254.2277,-881.5 254.2277,-881.5 248.2277,-881.5 242.2277,-875.5 242.2277,-869.5 242.2277,-869.5 242.2277,-804.5 242.2277,-804.5 242.2277,-798.5 248.2277,-792.5 254.2277,-792.5"/>
<text text-anchor="start" x="249.7277" y="-862.7" font-family="Helvetica, Arial, sans-serif" font-size="16.00" fill="#000000">Gap between observed and</text>
<text text-anchor="start" x="281.2277" y="-844.7" font-family="Helvetica, Arial, sans-serif" font-size="16.00" fill="#000000">potential corn yield</text>
<polyline fill="none" stroke="#000000" points="242.2277,-833.5 473.2277,-833.5 "/>
<text text-anchor="start" x="309.7277" y="-816.8" font-family="Helvetica, Arial, sans-serif" font-size="14.00" fill="#000000">effect: -0.286</text>
<text text-anchor="start" x="314.7277" y="-800.8" font-family="Helvetica, Arial, sans-serif" font-size="14.00" fill="#000000">error: 0.338</text>
</g>
<!-- yield_gap_maize_s&#45;&gt;et_actl_m_MAX_m -->
<g id="edge10" class="edge">
<title>yield_gap_maize_s-&gt;et_actl_m_MAX_m</title>
<path fill="none" stroke="#000000" stroke-width="2" d="M403.3786,-792.2804C426.8577,-764.1295 449.8051,-725.7878 445.7277,-686.5"/>
<path fill="none" stroke="#000000" stroke-width="2" d="M445.7277,-686.5C439.6603,-628.0381 383.5983,-595.1463 327.1875,-576.7591"/>
<polygon fill="#000000" stroke="#000000" stroke-width="2" points="328.2448,-572.69 315.5397,-573.1618 325.7659,-580.7159 328.2448,-572.69"/>
</g>
<!-- yield_gap_maize_s&#45;&gt;cattle_number_s -->
<g id="edge11" class="edge">
<title>yield_gap_maize_s-&gt;cattle_number_s</title>
<path fill="none" stroke="#000000" stroke-width="2" d="M293.5013,-792.4559C255.4371,-766.0565 208.598,-733.5714 176.8933,-711.5826"/>
<polygon fill="#000000" stroke="#000000" stroke-width="2" points="179.0101,-707.9395 166.756,-704.5519 174.223,-714.8419 179.0101,-707.9395"/>
</g>
<!-- yield_gap_maize_s&#45;&gt;ndvi_act_min_m -->
<g id="edge13" class="edge">
<title>yield_gap_maize_s-&gt;ndvi_act_min_m</title>
<path fill="none" stroke="#000000" stroke-width="2" d="M445.7277,-686.5C430.3028,-537.8749 419.3986,-487.0829 321.7277,-374 297.9431,-346.4623 265.3143,-324.2815 233.9663,-307.354"/>
<polygon fill="#000000" stroke="#000000" stroke-width="2" points="235.5273,-303.4305 222.9481,-301.5854 231.6312,-310.8723 235.5273,-303.4305"/>
</g>
<!-- yield_gap_maize_s&#45;&gt;spam_V_agg_t_sum_s -->
<g id="edge12" class="edge">
<title>yield_gap_maize_s-&gt;spam_V_agg_t_sum_s</title>
<path fill="none" stroke="#000000" stroke-width="2" d="M351.7812,-792.2525C348.8304,-770.0478 345.3128,-743.5779 342.535,-722.675"/>
<polygon fill="#000000" stroke="#000000" stroke-width="2" points="346.6982,-722.1192 340.9539,-710.7771 338.3714,-723.2258 346.6982,-722.1192"/>
</g>
<!-- acl_sum_fatl_m -->
<g id="node9" class="node rankC">
<title>acl_sum_fatl_m</title>
<path fill="none" stroke="#000000" d="M112.7277,-.5C112.7277,-.5 290.7277,-.5 290.7277,-.5 296.7277,-.5 302.7277,-6.5 302.7277,-12.5 302.7277,-12.5 302.7277,-36.5 302.7277,-36.5 302.7277,-42.5 296.7277,-48.5 290.7277,-48.5 290.7277,-48.5 112.7277,-48.5 112.7277,-48.5 106.7277,-48.5 100.7277,-42.5 100.7277,-36.5 100.7277,-36.5 100.7277,-12.5 100.7277,-12.5 100.7277,-6.5 106.7277,-.5 112.7277,-.5"/>
<text text-anchor="start" x="107.7277" y="-29.7" font-family="Helvetica, Arial, sans-serif" font-size="16.00" fill="#000000">Reported fatalities from</text>
<text text-anchor="start" x="168.2277" y="-11.7" font-family="Helvetica, Arial, sans-serif" font-size="16.00" fill="#000000">conflicts</text>
</g>
<!-- acl_sum_evnt_m&#45;&gt;acl_sum_fatl_m -->
<g id="edge17" class="edge">
<title>acl_sum_evnt_m-&gt;acl_sum_fatl_m</title>
<path fill="none" stroke="#000000" stroke-width="2" d="M201.7277,-121.2779C201.7277,-105.0956 201.7277,-80.963 201.7277,-60.8451"/>
<polygon fill="#000000" stroke="#000000" stroke-width="2" points="205.9278,-60.6373 201.7277,-48.6373 197.5278,-60.6374 205.9278,-60.6373"/>
</g>
</g>
<style>.node path {
  stroke: #fff;
}
.node text {
  fill: #fff;
}
.rankC.node text {
  fill: #000;
}
.node polyline {
  stroke: #fff;
}
.rankA path {
  fill: #292a40;
}
.rankB path {
  fill: #4a6e81;
}
.rankC path {
  fill: #73b85f;
}
.edge path {
  stroke: #666;
};
</style></svg>
