<?xml version="1.0" encoding="UTF-8" standalone="no"?>
<!DOCTYPE svg PUBLIC "-//W3C//DTD SVG 1.1//EN" "http://www.w3.org/Graphics/SVG/1.1/DTD/svg11.dtd">
<!-- Generated by graphviz version 2.40.1 (20161225.0304)
 -->
<!-- Title: causalModel Pages: 1 -->
<svg xmlns="http://www.w3.org/2000/svg" xmlns:xlink="http://www.w3.org/1999/xlink" width="" height="" viewBox="0.00 0.00 434.35 776.00" preserveAspectRatio="xMinYMin">
<g id="graph0" class="graph" transform="scale(1 1) rotate(0) translate(4 772)">
<title>causalModel</title>
<text text-anchor="start" x="74.1742" y="-29.8" font-family="Helvetica, Arial, sans-serif" font-weight="bold" font-size="14.00" fill="#000000">Causal Model: Sub-Saharan Africa</text>
<text text-anchor="start" x="74.1742" y="-9.8" font-family="Helvetica, Arial, sans-serif" font-size="14.00" fill="#000000">***significance of 0.1%</text>
<!-- et_actl_m_MAX_m -->
<g id="node1" class="node rankB">
<title>et_actl_m_MAX_m</title>
<path fill="none" stroke="#000000" d="M114,-406.5C114,-406.5 258,-406.5 258,-406.5 264,-406.5 270,-412.5 270,-418.5 270,-418.5 270,-483.5 270,-483.5 270,-489.5 264,-495.5 258,-495.5 258,-495.5 114,-495.5 114,-495.5 108,-495.5 102,-489.5 102,-483.5 102,-483.5 102,-418.5 102,-418.5 102,-412.5 108,-406.5 114,-406.5"/>
<text text-anchor="start" x="161" y="-476.7" font-family="Helvetica, Arial, sans-serif" font-size="16.00" fill="#000000">Actual</text>
<text text-anchor="start" x="111" y="-458.7" font-family="Helvetica, Arial, sans-serif" font-size="16.00" fill="#000000">evapotranspiration</text>
<polyline fill="none" stroke="#000000" points="102,-447.5 270,-447.5 "/>
<text text-anchor="start" x="130" y="-430.8" font-family="Helvetica, Arial, sans-serif" font-size="14.00" fill="#000000">effect: 0.514***</text>
<text text-anchor="start" x="143.5" y="-414.8" font-family="Helvetica, Arial, sans-serif" font-size="14.00" fill="#000000">error: 0.543</text>
</g>
<!-- rurpop_s -->
<g id="node6" class="node rankB">
<title>rurpop_s</title>
<path fill="none" stroke="#000000" d="M124.5,-280.5C124.5,-280.5 229.5,-280.5 229.5,-280.5 235.5,-280.5 241.5,-286.5 241.5,-292.5 241.5,-292.5 241.5,-357.5 241.5,-357.5 241.5,-363.5 235.5,-369.5 229.5,-369.5 229.5,-369.5 124.5,-369.5 124.5,-369.5 118.5,-369.5 112.5,-363.5 112.5,-357.5 112.5,-357.5 112.5,-292.5 112.5,-292.5 112.5,-286.5 118.5,-280.5 124.5,-280.5"/>
<text text-anchor="start" x="126" y="-350.7" font-family="Helvetica, Arial, sans-serif" font-size="16.00" fill="#000000">Population in</text>
<text text-anchor="start" x="133.5" y="-332.7" font-family="Helvetica, Arial, sans-serif" font-size="16.00" fill="#000000">rural areas</text>
<polyline fill="none" stroke="#000000" points="112.5,-321.5 241.5,-321.5 "/>
<text text-anchor="start" x="121" y="-304.8" font-family="Helvetica, Arial, sans-serif" font-size="14.00" fill="#000000">effect: 3.216***</text>
<text text-anchor="start" x="134.5" y="-288.8" font-family="Helvetica, Arial, sans-serif" font-size="14.00" fill="#000000">error: 2.491</text>
</g>
<!-- et_actl_m_MAX_m&#45;&gt;rurpop_s -->
<g id="edge1" class="edge">
<title>et_actl_m_MAX_m-&gt;rurpop_s</title>
<path fill="none" stroke="#666666" stroke-width="2" d="M182.8016,-406.2223C182.2379,-398.331 181.6445,-390.0224 181.0609,-381.8529"/>
<polygon fill="#666666" stroke="#666666" stroke-width="2" points="185.2325,-381.3037 180.1881,-369.6335 176.8538,-381.9022 185.2325,-381.3037"/>
</g>
<!-- cattle_number_s -->
<g id="node2" class="node rankB">
<title>cattle_number_s</title>
<path fill="none" stroke="#000000" d="M55,-532.5C55,-532.5 191,-532.5 191,-532.5 197,-532.5 203,-538.5 203,-544.5 203,-544.5 203,-593.5 203,-593.5 203,-599.5 197,-605.5 191,-605.5 191,-605.5 55,-605.5 55,-605.5 49,-605.5 43,-599.5 43,-593.5 43,-593.5 43,-544.5 43,-544.5 43,-538.5 49,-532.5 55,-532.5"/>
<text text-anchor="start" x="52" y="-586.7" font-family="Helvetica, Arial, sans-serif" font-size="16.00" fill="#000000">Count of livestock</text>
<text text-anchor="start" x="100" y="-568.7" font-family="Helvetica, Arial, sans-serif" font-size="16.00" fill="#000000">cattle</text>
<polyline fill="none" stroke="#000000" points="43,-557.5 203,-557.5 "/>
<text text-anchor="start" x="56" y="-540.8" font-family="Helvetica, Arial, sans-serif" font-size="14.00" fill="#000000">effect: Inestimable</text>
</g>
<!-- cattle_number_s&#45;&gt;et_actl_m_MAX_m -->
<g id="edge2" class="edge">
<title>cattle_number_s-&gt;et_actl_m_MAX_m</title>
<path fill="none" stroke="#666666" stroke-width="2" d="M142.5883,-532.3109C147.0051,-524.038 151.7885,-515.0788 156.5112,-506.2329"/>
<polygon fill="#666666" stroke="#666666" stroke-width="2" points="160.2665,-508.1168 162.2133,-495.5529 152.8565,-504.1606 160.2665,-508.1168"/>
</g>
<!-- cattle_number_s&#45;&gt;rurpop_s -->
<g id="edge3" class="edge">
<title>cattle_number_s-&gt;rurpop_s</title>
<path fill="none" stroke="#666666" stroke-width="2" d="M58,-451C56.986,-418.4658 78.079,-390.928 102.7762,-369.9736"/>
<polygon fill="#666666" stroke="#666666" stroke-width="2" points="105.6483,-373.0539 112.3795,-362.2682 100.3914,-366.5022 105.6483,-373.0539"/>
</g>
<!-- ndvi_act_min_m -->
<g id="node7" class="node rankB">
<title>ndvi_act_min_m</title>
<path fill="none" stroke="#000000" d="M12,-154.5C12,-154.5 122,-154.5 122,-154.5 128,-154.5 134,-160.5 134,-166.5 134,-166.5 134,-231.5 134,-231.5 134,-237.5 128,-243.5 122,-243.5 122,-243.5 12,-243.5 12,-243.5 6,-243.5 0,-237.5 0,-231.5 0,-231.5 0,-166.5 0,-166.5 0,-160.5 6,-154.5 12,-154.5"/>
<text text-anchor="start" x="27" y="-224.7" font-family="Helvetica, Arial, sans-serif" font-size="16.00" fill="#000000">Density of</text>
<text text-anchor="start" x="26" y="-206.7" font-family="Helvetica, Arial, sans-serif" font-size="16.00" fill="#000000">greenness</text>
<polyline fill="none" stroke="#000000" points="0,-195.5 134,-195.5 "/>
<text text-anchor="start" x="8" y="-178.8" font-family="Helvetica, Arial, sans-serif" font-size="14.00" fill="#000000">effect: -0.613***</text>
<text text-anchor="start" x="24" y="-162.8" font-family="Helvetica, Arial, sans-serif" font-size="14.00" fill="#000000">error: 0.443</text>
</g>
<!-- cattle_number_s&#45;&gt;ndvi_act_min_m -->
<g id="edge4" class="edge">
<title>cattle_number_s-&gt;ndvi_act_min_m</title>
<path fill="none" stroke="#666666" stroke-width="2" d="M91.1995,-532.4421C75.1826,-510.4229 58.9326,-480.9229 58,-451"/>
<path fill="none" stroke="#666666" stroke-width="2" d="M58,-451C56.2555,-395.0272 49.5957,-380.3658 58,-325"/>
</g>
<!-- spi_3_m -->
<g id="node3" class="node rankA">
<title>spi_3_m</title>
<path fill="none" stroke="#000000" d="M70.5,-660.5C70.5,-660.5 175.5,-660.5 175.5,-660.5 181.5,-660.5 187.5,-666.5 187.5,-672.5 187.5,-672.5 187.5,-737.5 187.5,-737.5 187.5,-743.5 181.5,-749.5 175.5,-749.5 175.5,-749.5 70.5,-749.5 70.5,-749.5 64.5,-749.5 58.5,-743.5 58.5,-737.5 58.5,-737.5 58.5,-672.5 58.5,-672.5 58.5,-666.5 64.5,-660.5 70.5,-660.5"/>
<text text-anchor="start" x="78" y="-730.7" font-family="Helvetica, Arial, sans-serif" font-size="16.00" fill="#000000">Variation in</text>
<text text-anchor="start" x="73" y="-712.7" font-family="Helvetica, Arial, sans-serif" font-size="16.00" fill="#000000">precipitation</text>
<polyline fill="none" stroke="#000000" points="58.5,-701.5 187.5,-701.5 "/>
<text text-anchor="start" x="67" y="-684.8" font-family="Helvetica, Arial, sans-serif" font-size="14.00" fill="#000000">effect: 0.393***</text>
<text text-anchor="start" x="80.5" y="-668.8" font-family="Helvetica, Arial, sans-serif" font-size="14.00" fill="#000000">error: 0.568</text>
</g>
<!-- spi_3_m&#45;&gt;cattle_number_s -->
<g id="edge5" class="edge">
<title>spi_3_m-&gt;cattle_number_s</title>
<path fill="none" stroke="#666666" stroke-width="2" d="M123,-660.4685C123,-646.9456 123,-632.0113 123,-618.1999"/>
<polygon fill="#666666" stroke="#666666" stroke-width="2" points="127.2001,-617.9044 123,-605.9044 118.8001,-617.9045 127.2001,-617.9044"/>
</g>
<!-- spam_V_agg_t_sum_s -->
<g id="node4" class="node rankB">
<title>spam_V_agg_t_sum_s</title>
<path fill="none" stroke="#000000" d="M244,-532.5C244,-532.5 370,-532.5 370,-532.5 376,-532.5 382,-538.5 382,-544.5 382,-544.5 382,-593.5 382,-593.5 382,-599.5 376,-605.5 370,-605.5 370,-605.5 244,-605.5 244,-605.5 238,-605.5 232,-599.5 232,-593.5 232,-593.5 232,-544.5 232,-544.5 232,-538.5 238,-532.5 244,-532.5"/>
<text text-anchor="start" x="250" y="-586.7" font-family="Helvetica, Arial, sans-serif" font-size="16.00" fill="#000000">Value (USD) of</text>
<text text-anchor="start" x="263.5" y="-568.7" font-family="Helvetica, Arial, sans-serif" font-size="16.00" fill="#000000">agriculture</text>
<polyline fill="none" stroke="#000000" points="232,-557.5 382,-557.5 "/>
<text text-anchor="start" x="240" y="-540.8" font-family="Helvetica, Arial, sans-serif" font-size="14.00" fill="#000000">effect: Inestimable</text>
</g>
<!-- spi_3_m&#45;&gt;spam_V_agg_t_sum_s -->
<g id="edge6" class="edge">
<title>spi_3_m-&gt;spam_V_agg_t_sum_s</title>
<path fill="none" stroke="#666666" stroke-width="2" d="M183.2485,-660.4685C203.8745,-645.2232 226.9276,-628.184 247.4945,-612.9823"/>
<polygon fill="#666666" stroke="#666666" stroke-width="2" points="250.2162,-616.1934 257.3698,-605.6832 245.2232,-609.4384 250.2162,-616.1934"/>
</g>
<!-- spi_3_m&#45;&gt;ndvi_act_min_m -->
<g id="edge7" class="edge">
<title>spi_3_m-&gt;ndvi_act_min_m</title>
<path fill="none" stroke="#666666" stroke-width="2" d="M66.3071,-660.4512C50.9052,-645.0378 36.2219,-626.4428 28,-606 15.7278,-575.4865 26.9575,-564.8724 28,-532 29.7787,-475.9154 26.8217,-461.357 36,-406 42.1018,-369.1982 52.4015,-361.8817 58,-325"/>
<path fill="none" stroke="#666666" stroke-width="2" d="M58,-325C59.9333,-302.3356 61.7774,-277.3532 63.2872,-255.6515"/>
<polygon fill="#666666" stroke="#666666" stroke-width="2" points="67.4805,-255.8926 64.1128,-243.6329 59.1002,-255.3169 67.4805,-255.8926"/>
</g>
<!-- spam_V_agg_t_sum_s&#45;&gt;et_actl_m_MAX_m -->
<g id="edge8" class="edge">
<title>spam_V_agg_t_sum_s-&gt;et_actl_m_MAX_m</title>
<path fill="none" stroke="#666666" stroke-width="2" d="M269.3781,-532.3109C260.2423,-523.4016 250.2903,-513.6964 240.5463,-504.194"/>
<polygon fill="#666666" stroke="#666666" stroke-width="2" points="243.2091,-500.9242 231.6856,-495.5529 237.3444,-506.938 243.2091,-500.9242"/>
</g>
<!-- spam_V_agg_t_sum_s&#45;&gt;rurpop_s -->
<g id="edge9" class="edge">
<title>spam_V_agg_t_sum_s-&gt;rurpop_s</title>
<path fill="none" stroke="#666666" stroke-width="2" d="M309.5373,-532.4094C310.2613,-497.5573 306.8133,-444.8023 284,-406 275.6856,-391.8583 263.8506,-379.3683 251.0605,-368.6912"/>
<polygon fill="#666666" stroke="#666666" stroke-width="2" points="253.6377,-365.3747 241.6152,-361.2393 248.4347,-371.9694 253.6377,-365.3747"/>
</g>
<!-- yield_gap_maize_s -->
<g id="node5" class="node rankA">
<title>yield_gap_maize_s</title>
<path fill="none" stroke="#000000" d="M252,-642.5C252,-642.5 362,-642.5 362,-642.5 368,-642.5 374,-648.5 374,-654.5 374,-654.5 374,-755.5 374,-755.5 374,-761.5 368,-767.5 362,-767.5 362,-767.5 252,-767.5 252,-767.5 246,-767.5 240,-761.5 240,-755.5 240,-755.5 240,-654.5 240,-654.5 240,-648.5 246,-642.5 252,-642.5"/>
<text text-anchor="start" x="255" y="-748.7" font-family="Helvetica, Arial, sans-serif" font-size="16.00" fill="#000000">Gap between</text>
<text text-anchor="start" x="253.5" y="-730.7" font-family="Helvetica, Arial, sans-serif" font-size="16.00" fill="#000000">observed and</text>
<text text-anchor="start" x="252" y="-712.7" font-family="Helvetica, Arial, sans-serif" font-size="16.00" fill="#000000">potential corn</text>
<text text-anchor="start" x="288.5" y="-694.7" font-family="Helvetica, Arial, sans-serif" font-size="16.00" fill="#000000">yield</text>
<polyline fill="none" stroke="#000000" points="240,-683.5 374,-683.5 "/>
<text text-anchor="start" x="248" y="-666.8" font-family="Helvetica, Arial, sans-serif" font-size="14.00" fill="#000000">effect: -0.286***</text>
<text text-anchor="start" x="264" y="-650.8" font-family="Helvetica, Arial, sans-serif" font-size="14.00" fill="#000000">error: 0.338</text>
</g>
<!-- yield_gap_maize_s&#45;&gt;et_actl_m_MAX_m -->
<g id="edge10" class="edge">
<title>yield_gap_maize_s-&gt;et_actl_m_MAX_m</title>
<path fill="none" stroke="#666666" stroke-width="2" d="M374.3177,-661.5969C401.9989,-638.0495 427.3933,-606.1517 426,-569"/>
<path fill="none" stroke="#666666" stroke-width="2" d="M426,-569C424.7396,-535.3919 348.0488,-502.0331 281.7025,-479.404"/>
<polygon fill="#666666" stroke="#666666" stroke-width="2" points="283.0211,-475.4164 270.3084,-475.5864 280.3524,-483.3812 283.0211,-475.4164"/>
</g>
<!-- yield_gap_maize_s&#45;&gt;cattle_number_s -->
<g id="edge11" class="edge">
<title>yield_gap_maize_s-&gt;cattle_number_s</title>
<path fill="none" stroke="#666666" stroke-width="2" d="M239.7907,-655.3236C220.9072,-641.3662 200.518,-626.2959 182.1421,-612.7137"/>
<polygon fill="#666666" stroke="#666666" stroke-width="2" points="184.5965,-609.3051 172.4499,-605.55 179.6036,-616.0602 184.5965,-609.3051"/>
</g>
<!-- yield_gap_maize_s&#45;&gt;spam_V_agg_t_sum_s -->
<g id="edge12" class="edge">
<title>yield_gap_maize_s-&gt;spam_V_agg_t_sum_s</title>
<path fill="none" stroke="#666666" stroke-width="2" d="M307,-642.1752C307,-633.9539 307,-625.6311 307,-617.6913"/>
<polygon fill="#666666" stroke="#666666" stroke-width="2" points="311.2001,-617.5992 307,-605.5992 302.8001,-617.5993 311.2001,-617.5992"/>
</g>
<!-- yield_gap_maize_s&#45;&gt;ndvi_act_min_m -->
<g id="edge13" class="edge">
<title>yield_gap_maize_s-&gt;ndvi_act_min_m</title>
<path fill="none" stroke="#666666" stroke-width="2" d="M426,-569C420.4152,-420.0858 367.8382,-378.4826 256,-280 224.6927,-252.4314 182.5873,-233.1539 146.0646,-220.3425"/>
<polygon fill="#666666" stroke="#666666" stroke-width="2" points="147.1366,-216.2714 134.4236,-216.4078 144.4469,-224.2292 147.1366,-216.2714"/>
</g>
<!-- rurpop_s&#45;&gt;ndvi_act_min_m -->
<g id="edge14" class="edge">
<title>rurpop_s-&gt;ndvi_act_min_m</title>
<path fill="none" stroke="#666666" stroke-width="2" d="M137.9084,-280.2223C130.1276,-271.3098 121.8821,-261.8649 113.8717,-252.6894"/>
<polygon fill="#666666" stroke="#666666" stroke-width="2" points="117.0216,-249.9111 105.9657,-243.6335 110.6937,-255.4355 117.0216,-249.9111"/>
</g>
<!-- acl_sum_evnt_m -->
<g id="node8" class="node rankC">
<title>acl_sum_evnt_m</title>
<path fill="none" stroke="#000000" d="M164,-109C164,-109 80,-109 80,-109 74,-109 68,-103 68,-97 68,-97 68,-71 68,-71 68,-65 74,-59 80,-59 80,-59 164,-59 164,-59 170,-59 176,-65 176,-71 176,-71 176,-97 176,-97 176,-103 170,-109 164,-109"/>
<text text-anchor="middle" x="122" y="-89.2" font-family="Helvetica, Arial, sans-serif" font-size="16.00" fill="#000000">Total conflict</text>
<text text-anchor="middle" x="122" y="-71.2" font-family="Helvetica, Arial, sans-serif" font-size="16.00" fill="#000000">events</text>
</g>
<!-- rurpop_s&#45;&gt;acl_sum_evnt_m -->
<g id="edge15" class="edge">
<title>rurpop_s-&gt;acl_sum_evnt_m</title>
<path fill="none" stroke="#666666" stroke-width="2" d="M171.7456,-280.2194C167.1038,-245.432 159.3011,-196.1736 148,-154 145.05,-142.9912 141.0599,-131.2882 137.092,-120.6662"/>
<polygon fill="#666666" stroke="#666666" stroke-width="2" points="140.9165,-118.9108 132.678,-109.2274 133.0797,-121.9349 140.9165,-118.9108"/>
</g>
<!-- ndvi_act_min_m&#45;&gt;acl_sum_evnt_m -->
<g id="edge16" class="edge">
<title>ndvi_act_min_m-&gt;acl_sum_evnt_m</title>
<path fill="none" stroke="#666666" stroke-width="2" d="M88.4219,-154.2087C93.7823,-143.0006 99.4671,-131.1143 104.6051,-120.3711"/>
<polygon fill="#666666" stroke="#666666" stroke-width="2" points="108.5361,-121.8861 109.9247,-109.2484 100.9582,-118.2618 108.5361,-121.8861"/>
</g>
<!-- acl_sum_fatl_m -->
<g id="node9" class="node rankC">
<title>acl_sum_fatl_m</title>
<path fill="none" stroke="#000000" d="M312.5,-118C312.5,-118 217.5,-118 217.5,-118 211.5,-118 205.5,-112 205.5,-106 205.5,-106 205.5,-62 205.5,-62 205.5,-56 211.5,-50 217.5,-50 217.5,-50 312.5,-50 312.5,-50 318.5,-50 324.5,-56 324.5,-62 324.5,-62 324.5,-106 324.5,-106 324.5,-112 318.5,-118 312.5,-118"/>
<text text-anchor="middle" x="265" y="-98.2" font-family="Helvetica, Arial, sans-serif" font-size="16.00" fill="#000000">Reported</text>
<text text-anchor="middle" x="265" y="-80.2" font-family="Helvetica, Arial, sans-serif" font-size="16.00" fill="#000000">fatalities from</text>
<text text-anchor="middle" x="265" y="-62.2" font-family="Helvetica, Arial, sans-serif" font-size="16.00" fill="#000000">conflicts</text>
</g>
<!-- acl_sum_evnt_m&#45;&gt;acl_sum_fatl_m -->
<g id="edge17" class="edge">
<title>acl_sum_evnt_m-&gt;acl_sum_fatl_m</title>
<path fill="none" stroke="#666666" stroke-width="2" d="M176.1836,-84C181.7997,-84 187.4157,-84 193.0318,-84"/>
<polygon fill="#666666" stroke="#666666" stroke-width="2" points="193.3265,-88.2001 205.3265,-84 193.3264,-79.8001 193.3265,-88.2001"/>
</g>
</g>
<style>.node path {
  stroke: #fff;
}
.node text {
  fill: #fff;
}
.node polyline {
  stroke: #fff;
}
.rankA path {
  fill: #1b6002;
}
.rankB path {
  fill: #437387;
}
.rankC path {
  fill: #2e3348;
}
</style></svg>
