<?xml version="1.0" encoding="UTF-8" standalone="no"?>
<svg
   xmlns:dc="http://purl.org/dc/elements/1.1/"
   xmlns:cc="http://creativecommons.org/ns#"
   xmlns:rdf="http://www.w3.org/1999/02/22-rdf-syntax-ns#"
   xmlns:svg="http://www.w3.org/2000/svg"
   xmlns="http://www.w3.org/2000/svg"
   xmlns:sodipodi="http://sodipodi.sourceforge.net/DTD/sodipodi-0.dtd"
   xmlns:inkscape="http://www.inkscape.org/namespaces/inkscape"
   version="1.1"
   x="0px"
   y="0px"
   viewBox="0 0 82.899002 90.890999"
   enable-background="new 0 0 100 100"
   xml:space="preserve"
   id="svg12"
   sodipodi:docname="noun_1049513_cc.svg"
   width="82.899002"
   height="90.890999"
   inkscape:version="0.92.2 5c3e80d, 2017-08-06"><metadata
     id="metadata18"><rdf:RDF><cc:Work
         rdf:about=""><dc:format>image/svg+xml</dc:format><dc:type
           rdf:resource="http://purl.org/dc/dcmitype/StillImage" /><dc:title></dc:title></cc:Work></rdf:RDF></metadata><defs
     id="defs16" /><sodipodi:namedview
     pagecolor="#ffffff"
     bordercolor="#666666"
     borderopacity="1"
     objecttolerance="10"
     gridtolerance="10"
     guidetolerance="10"
     inkscape:pageopacity="0"
     inkscape:pageshadow="2"
     inkscape:window-width="640"
     inkscape:window-height="480"
     id="namedview14"
     showgrid="false"
     fit-margin-top="10"
     fit-margin-left="10"
     fit-margin-right="10"
     fit-margin-bottom="10"
     inkscape:zoom="1.888"
     inkscape:cx="40.454"
     inkscape:cy="33.24"
     inkscape:window-x="0"
     inkscape:window-y="0"
     inkscape:window-maximized="0"
     inkscape:current-layer="svg12" /><g
     id="g6"
     transform="translate(-9.546,-4.849)"><g
       id="g4"><path
         d="m 78.439,62.744 h -6.433 v -7.952 c 0,-2.209 -1.797,-4.006 -4.006,-4.006 H 52.06 v -12.94 h 6.492 c 2.209,0 4.006,-1.797 4.006,-4.006 V 18.855 c 0,-2.209 -1.797,-4.006 -4.006,-4.006 H 43.568 c -2.209,0 -4.006,1.797 -4.006,4.006 V 33.84 c 0,2.209 1.797,4.006 4.006,4.006 h 6.492 v 12.94 H 34.12 c -2.209,0 -4.006,1.797 -4.006,4.006 v 7.952 h -6.562 c -2.209,0 -4.006,1.797 -4.006,4.006 v 14.984 c 0,2.209 1.797,4.006 4.006,4.006 h 14.985 c 2.209,0 4.006,-1.797 4.006,-4.006 V 66.75 c 0,-2.209 -1.797,-4.006 -4.006,-4.006 h -6.423 v -7.952 c 0,-1.106 0.9,-2.006 2.006,-2.006 h 33.882 c 1.105,0 2.006,0.899 2.006,2.006 v 7.952 h -6.552 c -2.209,0 -4.006,1.797 -4.006,4.006 v 14.984 c 0,2.209 1.797,4.006 4.006,4.006 h 14.983 c 2.209,0 4.006,-1.797 4.006,-4.006 V 66.75 c 0,-2.209 -1.797,-4.006 -4.006,-4.006 z M 41.562,33.84 V 18.855 c 0,-1.106 0.9,-2.006 2.006,-2.006 h 14.985 c 1.105,0 2.006,0.9 2.006,2.006 V 33.84 c 0,1.106 -0.899,2.006 -2.006,2.006 H 43.568 c -1.106,0 -2.006,-0.9 -2.006,-2.006 z m -1.019,32.91 v 14.984 c 0,1.105 -0.9,2.006 -2.006,2.006 H 23.552 c -1.106,0 -2.006,-0.899 -2.006,-2.006 V 66.75 c 0,-1.105 0.9,-2.006 2.006,-2.006 h 14.985 c 1.106,0 2.006,0.901 2.006,2.006 z m 39.902,14.984 c 0,1.105 -0.898,2.006 -2.006,2.006 H 63.456 c -1.106,0 -2.006,-0.899 -2.006,-2.006 V 66.75 c 0,-1.105 0.899,-2.006 2.006,-2.006 h 14.983 c 1.106,0 2.006,0.898 2.006,2.006 z"
         id="path2"
         inkscape:connector-curvature="0"
         style="fill:#000000" /></g></g></svg>