<svg id="Layer_1" data-name="Layer 1" xmlns="http://www.w3.org/2000/svg" viewBox="0 0 291.47 53.2">
  <defs>
    <style>
      .cls-1 {
        fill: #c42d7c;
      }
    </style>
  </defs>
  <title>resource_watch_logo</title>
  <g>
    <g>
      <rect class="cls-1" x="16.74" y="38.78" width="21.48" height="15.17" transform="translate(-39.26 13.65) rotate(-45)"/>
      <rect class="cls-1" x="36.31" y="25.53" width="8.85" height="15.17" transform="translate(-26.01 19.14) rotate(-45)"/>
      <rect class="cls-1" x="38.77" y="43.25" width="21.48" height="15.17" transform="translate(-35.97 30.53) rotate(-45)"/>
      <rect class="cls-1" x="31.84" y="56.49" width="8.85" height="15.17" transform="translate(-49.22 25.05) rotate(-45)"/>
    </g>
    <g>
      <path class="cls-1" d="M78.2,38.9h7.29a12.63,12.63,0,0,1,2.73.28,6.27,6.27,0,0,1,2.26.93A4.68,4.68,0,0,1,92,41.86a6,6,0,0,1,.57,2.76,5.47,5.47,0,0,1-1,3.39,4.67,4.67,0,0,1-3,1.77l4.79,7.95h-5L84.4,50.2H82.35v7.53H78.2Zm4.15,7.79H84.8c.37,0,.77,0,1.18,0a3.29,3.29,0,0,0,1.13-.24,2.11,2.11,0,0,0,.88-3,2,2,0,0,0-.74-.66,3.32,3.32,0,0,0-1-.3,9,9,0,0,0-1.15-.08H82.35Z" transform="translate(-14.53 -19.36)"/>
      <path class="cls-1" d="M94.88,38.9h12.79v3.83H99v3.51h8.17v3.83H99V53.9h9.12v3.83H94.88Z" transform="translate(-14.53 -19.36)"/>
      <path class="cls-1" d="M120.07,43.5a2.94,2.94,0,0,0-1.37-.94,4.78,4.78,0,0,0-1.64-.31,4.36,4.36,0,0,0-.93.11,3.46,3.46,0,0,0-.9.33,1.84,1.84,0,0,0-.69.6,1.5,1.5,0,0,0-.27.9,1.48,1.48,0,0,0,.64,1.3,5.89,5.89,0,0,0,1.61.78c.64.21,1.34.42,2.09.63a8.81,8.81,0,0,1,2.08.91,4.83,4.83,0,0,1,1.61,1.57,4.72,4.72,0,0,1,.64,2.63,6,6,0,0,1-.58,2.74,5.48,5.48,0,0,1-1.59,1.94,6.59,6.59,0,0,1-2.31,1.15,10.61,10.61,0,0,1-6.18-.19,8.34,8.34,0,0,1-2.93-1.81l3-3.24a4.38,4.38,0,0,0,1.61,1.31,4.63,4.63,0,0,0,2,.47,4.44,4.44,0,0,0,1-.12,3.22,3.22,0,0,0,.93-.36,2,2,0,0,0,.67-.61,1.52,1.52,0,0,0,.25-.88,1.6,1.6,0,0,0-.65-1.34,5.85,5.85,0,0,0-1.64-.84c-.65-.23-1.36-.46-2.12-.69a9.28,9.28,0,0,1-2.13-.93,5.16,5.16,0,0,1-1.64-1.55,4.42,4.42,0,0,1-.65-2.52,5.64,5.64,0,0,1,.6-2.66,5.73,5.73,0,0,1,1.6-1.92,7,7,0,0,1,2.3-1.16,9.64,9.64,0,0,1,2.68-.38,10.6,10.6,0,0,1,3.09.45,7.15,7.15,0,0,1,2.69,1.52Z" transform="translate(-14.53 -19.36)"/>
      <path class="cls-1" d="M124.3,48.31a10.53,10.53,0,0,1,.76-4.09,8.92,8.92,0,0,1,2.11-3.13,9.37,9.37,0,0,1,3.22-2,12.35,12.35,0,0,1,8.14,0,9.37,9.37,0,0,1,3.22,2,8.92,8.92,0,0,1,2.11,3.13,11.41,11.41,0,0,1,0,8.19,9,9,0,0,1-2.11,3.13,9.37,9.37,0,0,1-3.22,2,12.35,12.35,0,0,1-8.14,0,9.37,9.37,0,0,1-3.22-2,9,9,0,0,1-2.11-3.13A10.55,10.55,0,0,1,124.3,48.31Zm4.31,0a6.83,6.83,0,0,0,.41,2.44,5.74,5.74,0,0,0,1.18,1.91,5.45,5.45,0,0,0,1.85,1.27,6.68,6.68,0,0,0,4.82,0,5.45,5.45,0,0,0,1.85-1.27,5.74,5.74,0,0,0,1.18-1.91,7.41,7.41,0,0,0,0-4.86A5.83,5.83,0,0,0,138.72,44a5.43,5.43,0,0,0-1.85-1.26,6.68,6.68,0,0,0-4.82,0A5.43,5.43,0,0,0,130.2,44,5.83,5.83,0,0,0,129,45.89,6.87,6.87,0,0,0,128.61,48.31Z" transform="translate(-14.53 -19.36)"/>
      <path class="cls-1" d="M162.6,50.47a9.21,9.21,0,0,1-.5,3.08A6.78,6.78,0,0,1,160.59,56a6.85,6.85,0,0,1-2.48,1.62,10.35,10.35,0,0,1-6.89,0A6.89,6.89,0,0,1,148.73,56a6.75,6.75,0,0,1-1.5-2.45,9,9,0,0,1-.51-3.08V38.9h4.15V50.31a4.48,4.48,0,0,0,.28,1.62,3.83,3.83,0,0,0,.79,1.29,3.36,3.36,0,0,0,1.21.85,3.7,3.7,0,0,0,1.53.31,3.61,3.61,0,0,0,1.51-.31,3.5,3.5,0,0,0,1.2-.85,3.81,3.81,0,0,0,.78-1.29,4.48,4.48,0,0,0,.28-1.62V38.9h4.15Z" transform="translate(-14.53 -19.36)"/>
      <path class="cls-1" d="M165.71,38.9H173a12.63,12.63,0,0,1,2.73.28,6.27,6.27,0,0,1,2.26.93,4.59,4.59,0,0,1,1.54,1.75,6,6,0,0,1,.57,2.76,5.53,5.53,0,0,1-1,3.39,4.7,4.7,0,0,1-3,1.77l4.79,7.95h-5l-3.94-7.53h-2v7.53h-4.15Zm4.15,7.79h2.45c.37,0,.77,0,1.18,0a3.29,3.29,0,0,0,1.13-.24,2.11,2.11,0,0,0,.88-3,2,2,0,0,0-.74-.66,3.24,3.24,0,0,0-1-.3,9,9,0,0,0-1.14-.08h-2.72Z" transform="translate(-14.53 -19.36)"/>
      <path class="cls-1" d="M194.55,43.79A4.06,4.06,0,0,0,193,42.65a4.92,4.92,0,0,0-2.06-.4,5.16,5.16,0,0,0-2.16.45A5,5,0,0,0,187.09,44a6.11,6.11,0,0,0-1.15,1.93,7.41,7.41,0,0,0,0,4.86,6.15,6.15,0,0,0,1.13,1.91,5.12,5.12,0,0,0,1.69,1.27,4.94,4.94,0,0,0,2.09.45,4.71,4.71,0,0,0,2.26-.53,4.45,4.45,0,0,0,1.62-1.49l3.46,2.58a7.26,7.26,0,0,1-3,2.47,9.4,9.4,0,0,1-3.78.8,11.63,11.63,0,0,1-4.07-.69,9.37,9.37,0,0,1-3.22-2A9.15,9.15,0,0,1,182,52.41a11.41,11.41,0,0,1,0-8.19,9.05,9.05,0,0,1,2.11-3.13,9.37,9.37,0,0,1,3.22-2,11.63,11.63,0,0,1,4.07-.69,9.66,9.66,0,0,1,1.66.15,8.66,8.66,0,0,1,1.71.46,7.78,7.78,0,0,1,1.61.85,6.56,6.56,0,0,1,1.38,1.31Z" transform="translate(-14.53 -19.36)"/>
      <path class="cls-1" d="M199.89,38.9h12.8v3.83H204v3.51h8.17v3.83H204V53.9h9.13v3.83H199.89Z" transform="translate(-14.53 -19.36)"/>
      <path class="cls-1" d="M215.06,38.9h1.8l4.69,16.68h0l4.76-16.68h2.24l4.76,16.68h0l4.68-16.68h1.81l-5.48,18.83h-2.15L227.5,41h-.05l-4.76,16.76h-2.15Z" transform="translate(-14.53 -19.36)"/>
      <path class="cls-1" d="M247.67,38.9h1.81l7.92,18.83h-2l-2-5h-10l-2.13,5h-1.83Zm.82,1.91L244.1,51.13h8.65Z" transform="translate(-14.53 -19.36)"/>
      <path class="cls-1" d="M263.57,40.49h-6.43V38.9h14.63v1.59h-6.44V57.73h-1.76Z" transform="translate(-14.53 -19.36)"/>
      <path class="cls-1" d="M289.46,54.78a8.08,8.08,0,0,1-3.14,2.63,9.39,9.39,0,0,1-3.86.8,10.33,10.33,0,0,1-3.95-.73,8.85,8.85,0,0,1-3.07-2,9.43,9.43,0,0,1-2-3.14,11.31,11.31,0,0,1,0-7.94,9.44,9.44,0,0,1,2-3.12,9,9,0,0,1,3.07-2.07,10.33,10.33,0,0,1,3.95-.74,9.43,9.43,0,0,1,3.58.68A7.07,7.07,0,0,1,289,41.37l-1.44,1.2a5.1,5.1,0,0,0-2.24-1.94,6.81,6.81,0,0,0-2.81-.61,8.35,8.35,0,0,0-3.31.63,7.43,7.43,0,0,0-2.52,1.76A7.69,7.69,0,0,0,275,45a9.44,9.44,0,0,0-.56,3.27,9.53,9.53,0,0,0,.56,3.28,7.78,7.78,0,0,0,1.59,2.63A7.57,7.57,0,0,0,279.15,56a8.35,8.35,0,0,0,3.31.63,6.85,6.85,0,0,0,3-.7,6.85,6.85,0,0,0,1.4-.91A5.92,5.92,0,0,0,288,53.69Z" transform="translate(-14.53 -19.36)"/>
      <path class="cls-1" d="M292,38.9h1.75v8.3h10.53V38.9H306V57.73h-1.76V48.79H293.71v8.94H292Z" transform="translate(-14.53 -19.36)"/>
    </g>
  </g>
  <g>
    <path class="cls-1" d="M81.81,19.6a4.58,4.58,0,0,1,1.41.19,2.65,2.65,0,0,1,1,.53,2.17,2.17,0,0,1,.59.84A3.06,3.06,0,0,1,85,22.24a2.75,2.75,0,0,1-.21,1.09,2.38,2.38,0,0,1-.6.86,2.86,2.86,0,0,1-1,.56,4.46,4.46,0,0,1-1.38.2H80.5v3.12H79.24V19.6Zm0,4.36a2.39,2.39,0,0,0,.84-.13,1.74,1.74,0,0,0,.61-.35,1.42,1.42,0,0,0,.36-.54,1.75,1.75,0,0,0,.13-.7A1.56,1.56,0,0,0,83.27,21a2.08,2.08,0,0,0-1.46-.45H80.5V24Z" transform="translate(-14.53 -19.36)"/>
    <path class="cls-1" d="M89.14,22a3.09,3.09,0,0,1,1.2.22,2.5,2.5,0,0,1,.91.62,2.6,2.6,0,0,1,.57,1,4.16,4.16,0,0,1,0,2.55,2.64,2.64,0,0,1-.57,1,2.6,2.6,0,0,1-.91.61,3.38,3.38,0,0,1-2.4,0,2.7,2.7,0,0,1-.91-.61,2.8,2.8,0,0,1-.58-1,4.16,4.16,0,0,1,0-2.55,2.76,2.76,0,0,1,.58-1,2.59,2.59,0,0,1,.91-.62A3.09,3.09,0,0,1,89.14,22Zm0,5.27a1.47,1.47,0,0,0,1.27-.57,2.68,2.68,0,0,0,.42-1.61,2.68,2.68,0,0,0-.42-1.61,1.45,1.45,0,0,0-1.27-.58,1.47,1.47,0,0,0-1.28.58,2.68,2.68,0,0,0-.42,1.61,2.68,2.68,0,0,0,.42,1.61A1.49,1.49,0,0,0,89.14,27.25Z" transform="translate(-14.53 -19.36)"/>
    <path class="cls-1" d="M102.05,22.08l-1.93,6H99.2c-.11,0-.18-.08-.22-.22l-1.27-3.91c0-.09,0-.19-.08-.29l-.06-.29a5.84,5.84,0,0,1-.15.6l-1.28,3.89a.25.25,0,0,1-.25.22H95l-1.93-6H94a.38.38,0,0,1,.22.06.27.27,0,0,1,.13.17L95.42,26l.09.44c0,.14,0,.28.08.42,0-.14.07-.28.11-.42s.08-.29.13-.44L97,22.28a.28.28,0,0,1,.12-.16.32.32,0,0,1,.2-.06h.5a.35.35,0,0,1,.21.06.28.28,0,0,1,.12.16L99.34,26l.12.44c0,.15.07.29.11.44,0-.15.05-.29.08-.43s.06-.29.1-.45l1.1-3.67a.3.3,0,0,1,.12-.17.37.37,0,0,1,.21-.06Z" transform="translate(-14.53 -19.36)"/>
    <path class="cls-1" d="M108.36,27.21a2.23,2.23,0,0,1-.49.43,2.49,2.49,0,0,1-.59.29,3.53,3.53,0,0,1-.64.16,3.85,3.85,0,0,1-.66.06,3.06,3.06,0,0,1-1.15-.21,2.6,2.6,0,0,1-.91-.61,2.74,2.74,0,0,1-.6-1A3.86,3.86,0,0,1,103.1,25a3.68,3.68,0,0,1,.19-1.17,2.86,2.86,0,0,1,.56-.94,2.48,2.48,0,0,1,.89-.63,3,3,0,0,1,1.18-.23,2.79,2.79,0,0,1,1,.18,2.4,2.4,0,0,1,.8.52,2.51,2.51,0,0,1,.53.85,3.32,3.32,0,0,1,.19,1.14.75.75,0,0,1-.06.36.24.24,0,0,1-.22.09h-3.93a3.45,3.45,0,0,0,.16.93,1.75,1.75,0,0,0,.37.66,1.51,1.51,0,0,0,.57.4,2,2,0,0,0,.74.13,2.19,2.19,0,0,0,.66-.09,2.82,2.82,0,0,0,.48-.19l.35-.19a.45.45,0,0,1,.24-.09.23.23,0,0,1,.22.11Zm-1-2.81a1.89,1.89,0,0,0-.1-.63,1.44,1.44,0,0,0-.28-.5,1.39,1.39,0,0,0-.46-.33,1.74,1.74,0,0,0-1.77.3,2.06,2.06,0,0,0-.53,1.16Z" transform="translate(-14.53 -19.36)"/>
    <path class="cls-1" d="M111.38,23.22a2.7,2.7,0,0,1,.7-.92,1.5,1.5,0,0,1,1-.34,1.36,1.36,0,0,1,.36.05,1,1,0,0,1,.31.13l-.08.87a.19.19,0,0,1-.19.16,1,1,0,0,1-.25,0,2,2,0,0,0-.35,0,1.44,1.44,0,0,0-.49.08,1,1,0,0,0-.38.24,1.26,1.26,0,0,0-.3.38,2.8,2.8,0,0,0-.24.52v3.75H110.3v-6H111a.38.38,0,0,1,.25.06.45.45,0,0,1,.1.24Z" transform="translate(-14.53 -19.36)"/>
    <path class="cls-1" d="M120.07,27.21a2.23,2.23,0,0,1-.49.43,2.69,2.69,0,0,1-.59.29,3.43,3.43,0,0,1-.65.16,3.66,3.66,0,0,1-.65.06,3.06,3.06,0,0,1-1.15-.21,2.6,2.6,0,0,1-.91-.61,2.9,2.9,0,0,1-.61-1,4.11,4.11,0,0,1-.21-1.37,3.42,3.42,0,0,1,.19-1.17,2.86,2.86,0,0,1,.56-.94,2.48,2.48,0,0,1,.89-.63,3,3,0,0,1,1.18-.23,2.79,2.79,0,0,1,1,.18,2.4,2.4,0,0,1,.8.52,2.34,2.34,0,0,1,.52.85,3.09,3.09,0,0,1,.2,1.14.75.75,0,0,1-.06.36.24.24,0,0,1-.22.09H116a3.1,3.1,0,0,0,.16.93,1.75,1.75,0,0,0,.37.66,1.51,1.51,0,0,0,.57.4,2,2,0,0,0,.74.13,2.19,2.19,0,0,0,.66-.09,2.82,2.82,0,0,0,.48-.19l.34-.19a.51.51,0,0,1,.25-.09.24.24,0,0,1,.22.11Zm-.95-2.81a1.89,1.89,0,0,0-.1-.63,1.44,1.44,0,0,0-.28-.5,1.39,1.39,0,0,0-.46-.33,1.57,1.57,0,0,0-.63-.12,1.54,1.54,0,0,0-1.14.42A2.06,2.06,0,0,0,116,24.4Z" transform="translate(-14.53 -19.36)"/>
    <path class="cls-1" d="M127,19.36v8.71h-.7a.28.28,0,0,1-.3-.23l-.1-.69a3,3,0,0,1-.87.72,2.14,2.14,0,0,1-1.12.28A2.18,2.18,0,0,1,123,28a2.1,2.1,0,0,1-.71-.59,2.85,2.85,0,0,1-.45-1,4.75,4.75,0,0,1-.16-1.31,4.08,4.08,0,0,1,.18-1.24,2.74,2.74,0,0,1,.51-1,2.33,2.33,0,0,1,1.89-.9,2.13,2.13,0,0,1,.92.18,2.07,2.07,0,0,1,.68.5V19.36Zm-1.16,4.17a1.55,1.55,0,0,0-.61-.52,1.7,1.7,0,0,0-.73-.15,1.44,1.44,0,0,0-1.22.57,2.69,2.69,0,0,0-.44,1.66,4.45,4.45,0,0,0,.1,1,2,2,0,0,0,.28.66,1.11,1.11,0,0,0,.46.38,1.51,1.51,0,0,0,.61.12,1.61,1.61,0,0,0,.87-.22,2.66,2.66,0,0,0,.68-.63Z" transform="translate(-14.53 -19.36)"/>
    <path class="cls-1" d="M133.94,22.9a3,3,0,0,1,.84-.67,2.31,2.31,0,0,1,1.07-.25,2.24,2.24,0,0,1,1,.2,1.92,1.92,0,0,1,.71.59,2.74,2.74,0,0,1,.46.92,4.22,4.22,0,0,1,.16,1.23,4.58,4.58,0,0,1-.18,1.32,3.07,3.07,0,0,1-.52,1,2.36,2.36,0,0,1-.81.66,2.44,2.44,0,0,1-1.07.23,2.2,2.2,0,0,1-.53-.06,1.91,1.91,0,0,1-.44-.16,2,2,0,0,1-.38-.26,2.72,2.72,0,0,1-.32-.35l-.06.5a.27.27,0,0,1-.29.25h-.74V19.36h1.15Zm0,3.69a1.55,1.55,0,0,0,.61.52,1.72,1.72,0,0,0,.72.15,1.46,1.46,0,0,0,1.23-.57,2.86,2.86,0,0,0,.44-1.73,2.57,2.57,0,0,0-.39-1.57,1.28,1.28,0,0,0-1.08-.5,1.6,1.6,0,0,0-.86.23,2.37,2.37,0,0,0-.67.64Z" transform="translate(-14.53 -19.36)"/>
    <path class="cls-1" d="M145.06,22.08l-3.33,7.72a.4.4,0,0,1-.4.28h-.85l1.1-2.39-2.46-5.61h1a.33.33,0,0,1,.23.07.48.48,0,0,1,.12.16L142,25.9l.09.28a2.68,2.68,0,0,1,.07.27l.09-.28.1-.27,1.47-3.59a.37.37,0,0,1,.13-.17.36.36,0,0,1,.2-.06Z" transform="translate(-14.53 -19.36)"/>
  </g>
</svg>
