<?xml version="1.0" standalone="no"?>
<!DOCTYPE svg PUBLIC "-//W3C//DTD SVG 1.1//EN" "http://www.w3.org/Graphics/SVG/1.1/DTD/svg11.dtd" >
<svg xmlns="http://www.w3.org/2000/svg">
<metadata>Generated by IcoMoon</metadata>
<defs>
<font id="icons" horiz-adv-x="1024">
<font-face units-per-em="1024" ascent="960" descent="-64" />
<missing-glyph horiz-adv-x="1024" />
<glyph unicode="&#x20;" horiz-adv-x="512" d="" />
<glyph unicode="&#xe900;" glyph-name="eye-regular" horiz-adv-x="1152" d="M576 672c-22.421-0.361-43.864-3.991-64.051-10.433l1.571 0.433c8.982-15.522 14.338-34.12 14.48-53.959v-0.041c0-61.856-50.144-112-112-112v0c-19.88 0.142-38.478 5.498-54.535 14.765l0.535-0.285c-5.551-18.541-8.746-39.847-8.746-61.899 0-123.391 100.029-223.42 223.42-223.42s223.42 100.029 223.42 223.42c0 123.391-100.029 223.42-223.42 223.42-0.237 0-0.474 0-0.711-0.001h0.037zM1145.040 477.2c-108.46 211.62-323.18 354.8-569.040 354.8s-460.64-143.28-569.040-354.82c-4.387-8.495-6.959-18.542-6.959-29.19s2.572-20.695 7.129-29.553l-0.17 0.363c108.46-211.62 323.18-354.8 569.040-354.8s460.64 143.28 569.040 354.82c4.387 8.495 6.959 18.542 6.959 29.19s-2.572 20.695-7.129 29.553l0.17-0.363zM576 160c-197.3 0-378.18 110-475.86 288 97.68 178 278.54 288 475.86 288s378.18-110 475.86-288c-97.66-178-278.54-288-475.86-288z" />
<glyph unicode="&#xe901;" glyph-name="book-reader-solid" d="M704 768c0 106.040-85.96 192-192 192s-192-85.96-192-192 85.96-192 192-192 192 85.96 192 192zM467.18 477.8c-118.66 72.64-310.86 92.6-407.58 98.1-32.5 1.84-59.6-22.92-59.6-54.18v-445.6c0-28.66 23.18-52.56 52.98-54.1 87.32-4.58 263.98-21.36 386.080-82.86 18.74-9.44 40.96 3.42 40.96 23.74v491.98c-0.020 9.34-4.64 17.9-12.84 22.92zM964.4 575.9c-96.7-5.48-288.92-25.46-407.56-98.1-8.2-5.020-12.82-13.92-12.82-23.26v-491.58c0-20.38 22.28-33.26 41.080-23.8 122.080 61.44 298.64 78.22 385.94 82.8 29.8 1.56 52.98 25.46 52.98 54.12v445.64c-0.020 31.26-27.12 56.020-59.62 54.18z" />
<glyph unicode="&#xe902;" glyph-name="angle-double-right-solid" horiz-adv-x="896" d="M448.6 414l-272-272c-18.8-18.8-49.2-18.8-67.8 0l-45.2 45.2c-18.8 18.8-18.8 49.2 0 67.8l192.8 192.8-192.8 192.8c-18.8 18.8-18.8 49.2 0 67.8l45 45.6c18.8 18.8 49.2 18.8 67.8 0l272-272c19-18.8 19-49.2 0.2-68zM832.6 482l-272 272c-18.8 18.8-49.2 18.8-67.8 0l-45.2-45.2c-18.8-18.8-18.8-49.2 0-67.8l192.8-192.8-192.8-192.8c-18.8-18.8-18.8-49.2 0-67.8l45.2-45.2c18.8-18.8 49.2-18.8 67.8 0l272 272c18.8 18.4 18.8 48.8 0 67.6z" />
<glyph unicode="&#xe903;" glyph-name="plus-circle-solid" d="M512 944c-274 0-496-222-496-496s222-496 496-496 496 222 496 496-222 496-496 496zM800 392c0-13.2-10.8-24-24-24h-184v-184c0-13.2-10.8-24-24-24h-112c-13.2 0-24 10.8-24 24v184h-184c-13.2 0-24 10.8-24 24v112c0 13.2 10.8 24 24 24h184v184c0 13.2 10.8 24 24 24h112c13.2 0 24-10.8 24-24v-184h184c13.2 0 24-10.8 24-24v-112z" />
<glyph unicode="&#xe904;" glyph-name="times-solid" horiz-adv-x="704" d="M485.44 448l200.14 200.14c24.56 24.56 24.56 64.38 0 88.96l-44.48 44.48c-24.56 24.56-64.38 24.56-88.96 0l-200.14-200.14-200.14 200.14c-24.56 24.56-64.38 24.56-88.96 0l-44.48-44.48c-24.56-24.56-24.56-64.38 0-88.96l200.14-200.14-200.14-200.14c-24.56-24.56-24.56-64.38 0-88.96l44.48-44.48c24.56-24.56 64.4-24.56 88.96 0l200.14 200.14 200.14-200.14c24.56-24.56 64.4-24.56 88.96 0l44.48 44.48c24.56 24.56 24.56 64.38 0 88.96l-200.14 200.14z" />
<glyph unicode="&#xe905;" glyph-name="arrow-right" d="M183.532-64h-25.994v170.142l506.486 335.557v12.603l-506.486 337.132v168.566h25.994l682.929-453.711v-116.578l-682.929-453.711z" />
<glyph unicode="&#xe906;" glyph-name="youtube-play" d="M406.286 306.286l276.571 142.857-276.571 144.571v-287.429zM512 798.857c215.429 0 358.286-10.286 358.286-10.286 20-2.286 64-2.286 102.857-43.429 0 0 31.429-30.857 40.571-101.714 10.857-82.857 10.286-165.714 10.286-165.714v-77.714s0.571-82.857-10.286-165.714c-9.143-70.286-40.571-101.714-40.571-101.714-38.857-40.571-82.857-40.571-102.857-42.857 0 0-142.857-10.857-358.286-10.857v0c-266.286 2.286-348 10.286-348 10.286-22.857 4-74.286 2.857-113.143 43.429 0 0-31.429 31.429-40.571 101.714-10.857 82.857-10.286 165.714-10.286 165.714v77.714s-0.571 82.857 10.286 165.714c9.143 70.857 40.571 101.714 40.571 101.714 38.857 41.143 82.857 41.143 102.857 43.429 0 0 142.857 10.286 358.286 10.286v0z" />
<glyph unicode="&#xe907;" glyph-name="twitter" horiz-adv-x="951" d="M925.714 717.714c-25.143-36.571-56.571-69.143-92.571-95.429 0.571-8 0.571-16 0.571-24 0-244-185.714-525.143-525.143-525.143-104.571 0-201.714 30.286-283.429 82.857 14.857-1.714 29.143-2.286 44.571-2.286 86.286 0 165.714 29.143 229.143 78.857-81.143 1.714-149.143 54.857-172.571 128 11.429-1.714 22.857-2.857 34.857-2.857 16.571 0 33.143 2.286 48.571 6.286-84.571 17.143-148 91.429-148 181.143v2.286c24.571-13.714 53.143-22.286 83.429-23.429-49.714 33.143-82.286 89.714-82.286 153.714 0 34.286 9.143 65.714 25.143 93.143 90.857-112 227.429-185.143 380.571-193.143-2.857 13.714-4.571 28-4.571 42.286 0 101.714 82.286 184.571 184.571 184.571 53.143 0 101.143-22.286 134.857-58.286 41.714 8 81.714 23.429 117.143 44.571-13.714-42.857-42.857-78.857-81.143-101.714 37.143 4 73.143 14.286 106.286 28.571z" />
<glyph unicode="&#xe908;" glyph-name="linkedin" horiz-adv-x="878" d="M199.429 593.714v-566.286h-188.571v566.286h188.571zM211.429 768.571c0.571-54.286-40.571-97.714-106.286-97.714v0h-1.143c-63.429 0-104 43.429-104 97.714 0 55.429 42.286 97.714 106.286 97.714 64.571 0 104.571-42.286 105.143-97.714zM877.714 352v-324.571h-188v302.857c0 76-27.429 128-95.429 128-52 0-82.857-34.857-96.571-68.571-4.571-12.571-6.286-29.143-6.286-46.286v-316h-188c2.286 513.143 0 566.286 0 566.286h188v-82.286h-1.143c24.571 38.857 69.143 95.429 170.857 95.429 124 0 216.571-81.143 216.571-254.857z" />
<glyph unicode="&#xe909;" glyph-name="facebook, facebook-f" horiz-adv-x="602" d="M548 944v-150.857h-89.714c-70.286 0-83.429-33.714-83.429-82.286v-108h167.429l-22.286-169.143h-145.143v-433.714h-174.857v433.714h-145.714v169.143h145.714v124.571c0 144.571 88.571 223.429 217.714 223.429 61.714 0 114.857-4.571 130.286-6.857z" />
<glyph unicode="&#xe90a;" glyph-name="arrow-up" d="M22.376 246.993c-14.104-19.409-22.563-43.713-22.563-69.993 0-66.189 53.657-119.846 119.846-119.846s119.846 53.657 119.846 119.846c0 39.919-19.517 75.279-49.529 97.060l-0.347 0.24c-19.404 14.003-43.664 22.397-69.884 22.397-39.902 0-75.264-19.439-97.133-49.364l-0.237-0.34zM219.591 521.956c-14.104-19.409-22.563-43.713-22.563-69.993 0-66.189 53.657-119.846 119.846-119.846s119.846 53.657 119.846 119.846c0 39.919-19.517 75.279-49.529 97.060l-0.347 0.24c-19.404 14.094-43.7 22.546-69.97 22.546-39.909 0-75.262-19.507-97.044-49.507l-0.24-0.346zM811.615 107.425c22.008-30.503 57.452-50.126 97.479-50.126 66.189 0 119.846 53.657 119.846 119.846s-53.657 119.846-119.846 119.846c-26.358 0-50.728-8.509-70.514-22.93l0.342 0.238c-30.242-22.030-49.674-57.323-49.674-97.154 0-26.162 8.383-50.366 22.609-70.073l-0.242 0.353zM614.4 382.009c22.020-30.359 57.381-49.876 97.3-49.876 66.189 0 119.846 53.657 119.846 119.846s-53.657 119.846-119.846 119.846c-26.28 0-50.585-8.459-70.339-22.802l0.346 0.24c-30.428-21.937-50.004-57.28-50.004-97.197 0-26.321 8.512-50.653 22.933-70.395l-0.236 0.339zM502.898 846.222h-11.378l-11.378-3.034-10.999-3.793-9.861-4.93-11.378-6.447h-3.413c-1.622-1.576-3.353-3.067-5.171-4.45l-0.139-0.101c-3.361-2.665-6.34-5.524-9.032-8.639l-0.071-0.084-8.723-9.102c0-1.896-3.034-3.413-4.172-5.31-0.849-0.995-1.605-2.115-2.229-3.314l-0.047-0.099c-2.276-3.793-4.551-7.585-6.447-11.378s-3.413-6.447-4.93-9.861-2.276-7.585-3.413-10.999-2.276-7.585-3.034-11.378 0-7.585 0-11.378 0-7.585 0-11.378 0-7.585 0-11.757 0-7.206 0-10.999 0-7.585 3.034-11.378c1.078-4.403 2.248-8.072 3.631-11.635l-0.217 0.636c1.624-3.88 3.275-7.12 5.132-10.224l-0.201 0.363c1.896-3.793 4.172-7.585 6.447-11.378 0.195-2.815 1.015-5.401 2.321-7.672l-0.046 0.087c1.484-1.956 2.975-3.688 4.564-5.323l-0.013 0.014c2.592-3.508 5.203-6.6 7.997-9.516l-0.032 0.034c3.003-2.882 6.218-5.616 9.592-8.15l0.269-0.193 4.93-4.551h3.413c3.379-2.327 7.241-4.483 11.302-6.269l0.455-0.178 9.481-4.93 11.378-3.793 10.999-3.034h45.511l11.378 3.034 10.999 3.793 9.481 3.413c4.41 2.090 8.139 4.238 11.68 6.641l-0.302-0.194h3.413l4.93 4.551c3.642 2.727 6.858 5.461 9.897 8.378l-0.036-0.034c2.872 3.364 5.62 7.078 8.104 10.976l0.239 0.402 4.93 4.93 1.896 3.413c2.21 3.239 4.358 6.968 6.223 10.858l0.225 0.52c1.655 2.74 3.306 5.981 4.734 9.339l0.197 0.521c1.274 2.931 2.567 6.586 3.632 10.338l0.16 0.66c0 3.793 2.276 7.585 2.655 11.378 0.164 1.648 0.258 3.563 0.258 5.499s-0.094 3.851-0.277 5.739l0.019-0.24c0.097 1.756 0.152 3.811 0.152 5.879s-0.055 4.123-0.164 6.163l0.012-0.285c0 3.793 0 7.585 0 11.378 0.177 1.706 0.278 3.686 0.278 5.689s-0.101 3.983-0.298 5.935l0.020-0.246c-0.538 4.111-1.468 7.825-2.771 11.359l0.116-0.36c0 3.793-2.276 7.585-3.793 11.378l-4.551 9.861c-2.276 3.793-4.172 7.585-6.827 11.378l-1.896 3.413-4.93 5.689-7.964 9.102c-2.869 3.185-5.971 6.046-9.317 8.603l-0.164 0.12c-1.956 1.484-3.688 2.975-5.323 4.564l0.014-0.013h-3.413l-11.757 8.344-9.481 4.93-10.999 3.793-11.378 3.034h-34.133z" />
<glyph unicode="&#xe90b;" glyph-name="badge-globe" d="M803.58 188.587l86.548-86.548c78.441 85.276 128.316 197.912 133.834 322.081l0.038 1.087h-122.301c-5.39-91.5-41.665-173.619-98.443-236.987l0.324 0.368zM669.476 785.052l-34.018-82.036c57.707-28.272 103.286-73.852 130.821-129.898l0.737-1.66 82.036 34.018c-37.563 79.474-100.102 142.013-177.328 178.617l-2.248 0.959zM767.016 324.426c-28.277-57.671-73.857-103.213-129.897-130.706l-1.661-0.736 34.018-82.036c79.474 37.563 142.013 100.102 178.617 177.328l0.959 2.248zM861.78 574.93l-82.151-33.902c10.008-27.713 15.794-59.695 15.794-93.028s-5.786-65.315-16.409-94.995l0.614 1.967 82.151-34.018c14.186 37.768 22.398 81.419 22.398 126.988s-8.211 89.219-23.235 129.553l0.837-2.566zM771.413 156.42c-63-56.454-145.119-92.729-235.558-98.069l-1.061-0.050v-122.301c125.256 5.556 237.891 55.432 323.531 134.202l-0.364-0.33zM384.955 98.567c37.852-14.239 81.602-22.481 127.277-22.481s89.425 8.242 129.844 23.32l-2.567-0.839-34.018 82.151c-27.713-10.008-59.695-15.794-93.028-15.794s-65.315 5.786-94.995 16.409l1.967-0.614zM161.989 320.955l82.036 34.018c-10.008 27.713-15.794 59.695-15.794 93.028s5.786 65.315 16.409 94.995l-0.614-1.967-82.036 33.902c-14.224-37.764-22.457-81.414-22.457-126.988s8.234-89.224 23.295-129.545l-0.837 2.557zM256.636 324.541l-82.036-34.018c37.646-79.523 100.31-142.075 177.669-178.619l2.254-0.958 34.018 82.036c-57.707 28.272-103.286 73.852-130.821 129.898l-0.737 1.66zM174.948 605.476l82.036-34.018c28.272 57.707 73.852 103.286 129.898 130.821l1.66 0.737-34.018 82.036c-79.474-37.563-142.013-100.102-178.617-177.328l-0.959-2.248zM252.587 156.42l-86.548-86.548c85.318-78.439 197.99-128.313 322.195-133.834l1.088-0.038v122.301c-91.541 5.372-173.702 41.65-237.104 98.444l0.369-0.325zM122.417 425.206h-122.417c5.556-125.256 55.432-237.891 134.202-323.531l-0.33 0.364 86.548 86.548c-56.42 63.007-92.657 145.13-97.954 235.566l-0.049 1.054zM220.42 707.413l-86.548 86.548c-78.439-85.318-128.313-197.99-133.834-322.195l-0.038-1.088h122.417c5.328 91.529 41.568 173.694 98.33 237.106l-0.327-0.371zM252.587 739.58c63.040 56.435 145.206 92.675 235.685 97.954l1.050 0.049v122.417c-125.293-5.559-237.965-55.433-323.65-134.205l0.367 0.333zM639.045 795.581c-37.848 14.267-81.598 22.526-127.277 22.526s-89.428-8.259-129.837-23.365l2.56 0.839 34.018-82.036c27.719 9.957 59.701 15.712 93.028 15.712s65.309-5.756 95.007-16.327l-1.98 0.615zM771.413 739.58l86.548 86.548c-85.276 78.441-197.912 128.316-322.081 133.834l-1.087 0.038v-122.417c91.489-5.346 173.612-41.583 236.989-98.329l-0.37 0.326zM901.699 470.678h122.301c-5.559 125.293-55.433 237.965-134.205 323.65l0.333-0.367-86.548-86.548c56.469-63.033 92.747-145.194 98.069-235.677l0.050-1.058zM601.672 636.023c0.694-0.694 3.24-4.397 2.083-4.513s5.091 0 5.207-0.81-3.587-0.81-2.43-3.703c1.504 2.314 11.571 1.504 11.571 3.471 0 3.934-13.538 10.182-17.125 11.571s-7.289 7.174-11.571 6.595c0-1.041 3.818-8.794 6.595-7.058 3.322-1.242 6.147-3.137 8.438-5.545l0.009-0.009c-0.387-0.273-0.869-0.436-1.388-0.436s-1.001 0.163-1.396 0.441l0.008-0.005zM590.796 638.684l-2.777-0.926c3.471-1.041 2.546-4.628 4.050-6.132s9.604 0.579 5.322 4.975c-1.157 1.157-8.909 7.521-6.595 2.083zM587.325 645.858v0s0 0 0 0v0zM586.515 648.635c-1.388 0 0-2.546 0.81-2.777s-0.694 0.81 0 1.388c0.193 0.17 0.313 0.418 0.313 0.694s-0.121 0.524-0.312 0.693l-0.001 0.001zM441.766 675.71v0zM381.831 633.361c1.157 0.579 1.273 1.157 0 1.388s-1.041-0.926 0-1.388zM396.525 612.881c0-0.81 0.694-1.041 1.62-0.579s-1.504 0.694-1.62 0.579zM412.377 666.685c-2.354-1.692-5.164-2.911-8.208-3.453l-0.123-0.018c2.344 1.602 5.098 2.807 8.063 3.444l0.152 0.027zM397.798 610.567c0-2.43-4.281-6.364-6.48-6.942 0.615 0.626 0.995 1.485 0.995 2.433 0 0.245-0.025 0.483-0.073 0.714l0.004-0.023c-0.694 0.579-2.083-1.041-2.893-1.041s6.017 9.719 1.273 6.48c-4.302-4.42-8.792-8.579-13.488-12.499l-0.281-0.228c-1.157 1.041 4.975 9.951 5.438 10.298 3.209 2.609 7.346 4.19 11.853 4.19 1.836 0 3.611-0.262 5.29-0.752l-0.133 0.033c3.24-1.504 1.388-6.711-1.504-2.661zM397.798 657.544c1.273-1.504-5.785-3.24-6.132-3.355s1.041 1.041 1.62 1.388 4.050 2.43 4.513 1.967zM392.591 650.949c-1.848-0.829-4.046-1.583-6.322-2.142l-0.274-0.057s6.364 3.703 6.595 2.198zM386.227 636.023c1.273-1.388-5.785-8.794-7.174-9.372 0.071 0.567 0.426 1.037 0.916 1.269l0.010 0.004c0.81 0.694 2.661 3.818 1.736 4.975 0-0.694-3.471 0-1.62 1.157s5.322 2.777 6.132 1.967zM391.318 624.452c-0.694 0.81 2.198 3.124 2.43 1.851s-1.504-2.893-2.43-1.851zM383.913 619.477s-1.273 0 0 0c5.091 1.62 6.942 4.513 9.951 0.694 1.157-1.504 0.926-5.207-1.736-4.397 0.694 0-8.331 0.694-6.595 1.62-1.357-0.825-2.998-1.314-4.753-1.314-0.946 0-1.858 0.142-2.717 0.405l0.066-0.017c1.627 1.094 3.491 2.102 5.451 2.927l0.218 0.082zM375.467 626.998l1.273 1.967c0-1.157 0-1.851-1.273-1.967zM387.037 599.922c0-0.81 3.703 3.124 2.893 2.777 3.090 0.515 6.649 0.81 10.278 0.81 0.048 0 0.095 0 0.143 0h-0.007c-0.847-0.843-1.898-1.482-3.072-1.838l-0.052-0.014h-0.81c-1.851-0.694-10.182-3.818-9.372-1.388zM398.608 605.36c1.552 1.347 3.593 2.168 5.825 2.168 0.435 0 0.862-0.031 1.28-0.091l-0.048 0.006c-2.546 0 0.694 0 0 0 9.025-0.926-5.438-3.587-7.058-2.083zM429.386 237.068q1.62-0.694 0-1.041t0 1.041zM438.758 233.134c0.81 0 0.694-0.694 0-1.041s-0.926 0 0 1.041zM423.716 636.254c0.926 0.579 2.198 0 3.008 1.157-1.273-1.504-1.273-1.504-3.008-1.157zM425.799 627.576s0 0 0 0v0c0 0.694 3.355 1.967 3.587 2.083-7.058-6.595-1.736 0-3.587-2.083zM451.254 634.634c0.694 2.314 2.661 1.967 3.818 2.893 0.13 0.026 0.28 0.041 0.433 0.041 0.772 0 1.456-0.378 1.877-0.96l0.005-0.007s-5.322-0.579-6.132-1.967zM463.635 634.634c1.157 1.736 2.777 1.388 4.513 1.967-1.254-0.989-2.784-1.685-4.456-1.959l-0.057-0.008zM434.94 662.519c0.502 0.502 1.196 0.813 1.963 0.813 0.042 0 0.084-0.001 0.126-0.003h-0.006c0.694-1.041-4.281-1.62-2.083-0.81zM463.288 664.833c-0.81-0.926-1.851 0-2.777-0.81 0.926 1.967 1.157 1.967 2.777 0.81zM458.197 661.478h-1.62c2.314 1.851 1.851 0 1.62 0zM426.725 668.189c5.932 2.447 10.954 5.045 15.721 8.012l-0.448-0.26c-0.926 0-1.967-0.926-2.893 0s1.851 0.81 2.661 1.62c-4.628 0-18.166-5.438-17.125-8.678-0.969-0.843-2.243-1.357-3.638-1.357-0.775 0-1.513 0.159-2.183 0.446l0.036-0.014c0.81 1.388 3.818 1.388 1.388 3.24-4.397-1.62-8.678-3.355-12.959-5.207-11.214-5.094-20.55-10.152-29.503-15.765l1.039 0.608c-15.084-9.697-28.17-20.503-39.848-32.671l-0.071-0.074c-6.595-6.711-31.704-35.985-31.588-42.117-0.671-4.721-2.177-8.975-4.372-12.783l0.091 0.171c-1.045-4.447-2.157-8.119-3.465-11.698l0.226 0.706c-2.116-6.401-3.415-13.779-3.585-21.436l-0.002-0.086c2.083 1.504 6.364 35.753 10.066 34.712-0.501-5.883-1.608-11.312-3.269-16.492l0.145 0.524c-3.008-7.174 1.041-15.967-1.041-23.141-0.514-1.712-0.959-3.787-1.248-5.911l-0.025-0.221c-3.471-2.661 0.926-6.711 0.926-9.604s8.794-9.488 10.529-10.414c3.703-2.314 4.397 1.736 7.752 0.926s3.934-6.132 5.554-8.447 10.414-2.893 11.571-4.397 0-7.521 3.934-8.331c0 0 0 2.661 0 2.893s3.587-3.471 2.777-4.165c-0.219-0.062-0.47-0.098-0.73-0.098-1.015 0-1.903 0.545-2.387 1.358l-0.007 0.013s-0.579-8.794 1.851-7.174c-0.023 0.225-0.036 0.487-0.036 0.752s0.013 0.527 0.038 0.785l-0.003-0.033c3.124-1.388 2.893-6.017 5.091-6.711s5.438-4.628 7.752-5.785 1.388 7.289 5.438 7.637 4.86-7.984 6.017-9.951-2.198-9.951 0-12.149-5.438-7.868-5.785-10.182-4.165-3.471-4.050-4.165c0-0.023 0-0.051 0-0.078 0-2.294-0.556-4.457-1.541-6.364l0.036 0.078c-1.967-5.207-0.926-5.67 2.314-7.984 0 0-6.132-12.612-2.546-15.852 6.749-6.2 11.952-13.975 15.037-22.748l0.12-0.393c3.383-9.573 10.333-17.163 19.213-21.311l0.226-0.095c7.757-3.701 13.071-11.385 13.306-20.334l0.001-0.030c-0.095-1.156-0.149-2.501-0.149-3.86 0-4.847 0.688-9.533 1.972-13.966l-0.088 0.354c1.62-3.587-1.504-9.488 0.926-12.728s0-3.124 0-5.091c1.35-2.23 2.358-4.833 2.871-7.61l0.022-0.142c0-3.934 0-8.562 0-12.496 0-1.388-1.157-3.587 0-4.513 2.741-5.178 4.904-11.181 6.176-17.506l0.072-0.429c0-0.926 4.050 0 0 4.050 4.397 2.43 3.471-7.868 3.818-7.984-3.934 1.273-1.388 0-1.041-4.86 0-3.008-0.81-1.504 1.62-2.083s0-3.471 1.388-5.554c3.357-4.227 6.803-8.003 10.488-11.532l0.041-0.039c5.091-5.322 13.653-4.513 19.554-5.785 1.668 0.172 3.197 0.54 4.639 1.083l-0.127-0.042c-1.851 1.504-5.901 1.62-8.331 3.124 0 0-7.521 4.513-5.901 0.694 0-0.926 1.967 0 2.546-0.579s-1.273-0.926 0-1.62-8.678 4.744 0 4.975c-6.017 5.438 0 3.818-1.504 7.174s5.091 4.513 1.62 6.48c-1.62 0.926-3.471 0.81-5.091 1.967s0 4.744 2.083 4.513c0 0 1.388 5.322 1.736 6.248s-4.975 5.785-3.934 6.942 7.058-3.587 8.562 0c0 1.273-2.083 4.86-1.851 6.248 2.661 0 19.786 0 16.777 7.521-0.926 2.661-8.215 6.827-7.405 9.025 2.546 0 6.595-3.934 9.372-2.546s3.934-1.273 6.248 1.273c0 0.579 4.165 4.628 3.124 5.322s-1.851 0-1.967-1.967c-1.273 1.851 1.041 3.124 2.314 4.513 0.265-0.44 0.533-0.818 0.824-1.175l-0.014 0.018c1.388 2.083 9.372 12.496 9.604 12.728 4.050 4.628 0.81 11.571 4.744 14.81 3.455 3.15 7.526 5.697 12.002 7.431l0.263 0.090c2.166 1.223 4.674 2.218 7.321 2.852l0.199 0.040c8.447-2.546 7.405 7.521 12.728 11.571s1.504 27.885 5.901 29.621c4.898 4.166 9.261 8.675 13.155 13.572l0.151 0.197c2.479 2.49 4.012 5.923 4.012 9.715 0 1.748-0.326 3.42-0.92 4.958l0.032-0.094c-2.198 7.521-4.281 3.24-9.719 6.48s-7.752 7.868-13.191 8.562c-1.437-0.109-3.112-0.171-4.802-0.171s-3.365 0.062-5.023 0.184l0.222-0.013c-1.273 0-4.86 2.546-6.248 0.694 0 0-2.893-1.157-2.661-1.273s0 4.165-1.157 5.091c-2.656 1.694-5.757 2.979-9.076 3.671l-0.18 0.031c-4.744 1.157-5.785-4.397-7.058 2.314-3.818 1.041-7.752 5.554-7.058 6.595s-6.017 13.885-6.827 12.728c0 4.513-14.116 10.066-17.703 7.868s-9.025 2.198-11.571 4.281-2.198 4.975-5.901 6.48c-1.62 0.694-4.281 0-3.703 3.008s-6.827 3.471-7.521 6.364c0.154-0.017 0.333-0.027 0.514-0.027 0.872 0 1.691 0.224 2.404 0.618l-0.026-0.013c-2.893-1.041-6.48 1.041-9.372-1.273s-6.711 1.62-11.571 0.694-1.967 1.041-5.67 3.355c1.62-1.041-6.711 3.703-4.86 3.587-1.736 0 0-2.893-1.62-3.587s-5.67-1.736-3.703-5.438c3.355-6.711-6.942-3.471-2.198 1.041 0.926 0.81 1.157 9.488 2.198 9.141-4.44-1.828-8.265-4.204-11.625-7.104l0.054 0.046c-3.008 4.86-8.099-11.571-9.835-11.571-0.926 4.050-4.86 5.785-8.215 7.058s-5.901-5.901-9.719-2.083c-6.827 6.942-3.818 17.934 0 25.802 1.504 3.703-12.496 4.744-14.232 3.355-3.471-2.893 0 5.67 0 5.438 0 3.471 1.157 5.785 2.661 5.67 2.063 3.542 3.977 7.667 5.507 11.973l0.162 0.523c-2.083 4.975-11.571-3.703-11.571-5.901s-2.546-3.355-3.471-5.207-2.43 0-3.818 0c-3.818-2.083-9.256-0.926-8.447 4.513s-1.736 19.901 5.785 24.414c2.314 1.504 2.661 8.099 5.322 10.414 0 0 7.868 4.744 7.174 5.554 1.157-1.157 7.058 1.273 7.868 0 0.984-1.201 2.467-1.962 4.127-1.962 0.382 0 0.755 0.040 1.114 0.117l-0.035-0.006s0.694 2.893 0.694 3.008-2.546 0-2.314 1.041 7.289 0 7.521 0c3.355 0 5.901-3.008 8.331-1.388s1.504-14.695 3.008-16.199 0-3.008 1.967-2.893 2.893 22.447 8.562 27.075c3.892 3.15 8.244 6.099 12.838 8.669l0.468 0.241c2.4 0.943 4.444 2.318 6.129 4.046l0.004 0.004c0 0.694-0.81 1.504-1.62 0.81 0 1.388 2.083 0 2.43 1.967s-1.157 1.851-0.926 2.314 1.388 3.008 0.926 2.546v0c2.43 0 0 2.198 0 2.546 3.008-1.504 1.736 3.355 4.744 3.587-2.083-0.926-1.736-3.24-1.388-4.744s3.355 4.397 3.008 4.165c3.899 1.69 7.245 3.587 10.36 5.789l-0.178-0.119c-0.579 0-1.388 0-2.198 0 3.682 0.594 6.88 1.358 9.986 2.333l-0.498-0.135c-0.013 0.154-0.020 0.333-0.020 0.513 0 3.18 2.212 5.844 5.181 6.536l0.045 0.009c6.666 1.773 12.324 3.788 17.765 6.2l-0.757-0.299s0 0 0 0 1.504 0 1.851-0.694-1.967 0-1.851 0.694c-3.24-0.926-8.447-8.678-4.86-6.48s16.662 4.165 18.513 7.868c0 0-0.926 2.777-0.926 2.777-3.124 0-3.471-3.934-7.289-3.934-7.174 0-2.893 4.397-4.397 6.364-0.204-0.046-0.439-0.072-0.68-0.072-0.974 0-1.847 0.43-2.441 1.11l-0.003 0.004c0.694 0 9.488 2.198 4.86 3.24-7.637 1.62-12.612-6.711-18.744-6.595 4.628 2.893 10.876 8.909 16.546 9.604s14.232-2.083 19.554 1.62 7.868 0.81 10.529 6.132c0.81 1.388-3.471 3.24-4.513 3.471s1.388 0 1.736 0.926c-7.058 3.124-8.562 6.248-9.372 14.348-3.587-2.546-15.62-8.099-9.256 0.926-2.198 1.041-9.604 7.058-12.381 2.893-1.372-2.424-3.199-4.436-5.381-5.979l-0.057-0.038c-4.86-2.198-0.579-1.736-2.198-4.975-2.661-5.207-9.256-4.513-12.265-9.141s-2.661-4.975-5.67-6.364-3.587 1.967-2.314 4.513c0.926-1.041 1.736-1.273 2.546 0s-1.388 0-1.967 1.041c1.094 1.694 2.237 3.168 3.493 4.537l-0.022-0.024s-7.174 1.273-6.942 3.124-4.165 1.62-5.091 2.777c3.703 4.513 3.703 6.595 10.761 10.182 2.43 1.157 15.967 8.099 18.513 6.364 0-1.504-1.967-1.157-2.893-1.967 1.435-0.469 3.087-0.739 4.802-0.739s3.367 0.27 4.915 0.771l-0.113-0.032s-2.777 4.165-1.62 4.975 3.934 0 4.281 0c2.198 0.579 4.513 0.81 5.785 3.008 2.359 2.239 5.555 3.616 9.073 3.616 0.309 0 0.615-0.011 0.919-0.031l-0.041 0.002c9.372-5.322-12.728-10.992-12.959-10.414 0-1.504 6.48 1.157 7.984-3.008 0-0.926 7.058-3.124 7.752-2.198s-1.851 3.008-1.967 3.587c7.058-3.471 6.711-1.736 5.438 3.124s4.165 0 4.513 0 6.017 2.083 6.711 3.124c-1.736 1.388-4.744 1.273-6.248 2.893s3.703 1.736 1.967 3.24-5.554 1.388-4.397 4.86c-0.513 0.219-1.109 0.347-1.736 0.347s-1.223-0.128-1.765-0.358l0.030 0.011c0-0.694 0.926 0 1.273-0.579-0.985-0.518-2.153-0.822-3.391-0.822-0.15 0-0.299 0.004-0.447 0.013l0.020-0.001c0 0.694 1.504 0.694 1.62 1.851-3.703 0-5.67-1.851-8.909-2.777 0.926 1.273 2.43 1.736 3.587 2.661-3.677-0.397-6.963-1.815-9.64-3.962l0.036 0.028c0.439-0.375 0.791-0.839 1.031-1.364l0.010-0.025c-2.696-1.83-5.801-3.362-9.111-4.439l-0.261-0.073c0.579 2.083 2.777 1.62 3.587 3.24-1.235-0.11-2.373-0.398-3.432-0.838l0.077 0.028c1.388 0 5.322 4.165 6.248 5.091-5.785 0.694-8.099-6.711-13.538-5.67 1.157 1.273 3.355 0.694 4.165 2.661-1.967 0-9.604-5.322-10.761-2.661zM445.353 263.564c-0.070 0.663-0.531 1.201-1.146 1.386l-0.011 0.003c-2.893 0 1.157-3.587 1.157-1.388zM462.478 622.254v0s0 0 0 0zM476.594 620.287s1.736 0.926 0.81 0-1.62-0.926-0.81 0zM474.395 623.411c-1.413 0.599-3.054 1.046-4.766 1.263l-0.093 0.010s3.818 4.165 4.165 4.628c-2.546 0.694-2.893 0-4.050-1.388s-4.628-4.165-7.174-6.942v0c-0.793-0.774-1.483-1.648-2.051-2.603l-0.032-0.058c0-0.694 9.256 0 10.761-1.041s-1.273-0.579-1.504-1.388 4.86 2.198 5.438 1.504c0.098-0.24 0.155-0.518 0.155-0.81s-0.057-0.57-0.16-0.825l0.005 0.015c4.050-3.934 3.703 4.628 3.818 5.091-2.661 0 0.694 4.281-4.050 2.661zM470.693 629.196v0zM431.931 477.274c-1.967 0-2.893-3.124-2.777-3.124s4.975 1.736 2.777 3.124zM402.079 512.911s0.926 0 1.041 0c-2.777 1.273-11.571 5.207-14.695 1.851 3.008-0.926 1.62-2.314 3.124-4.628-1.041 0-8.909 0-7.058-1.157s7.289 0.926 9.719-2.661c3.24 1.736 5.67 4.397 10.066 2.546s-1.967 3.24-2.198 3.471zM386.459 516.614c-7.289 5.785-25.455 20.017-32.861 7.521 3.587 0 5.554 4.513 9.488 2.893-0.14-0.473-0.478-0.849-0.915-1.037l-0.011-0.004c0.926-3.008 12.381-3.934 14.116-7.752 0-0.694-3.703-2.893-1.273-2.661v0c3.818 0 7.637 0 11.571 1.041zM377.434 531.887c0.81 1.157 0.81 2.893 0 5.67-1.967-2.661-0.81-2.661 0-5.67zM359.499 524.019c0 1.62-1.62 0-1.273-1.273 0.037-0.004 0.079-0.006 0.122-0.006 0.639 0 1.157 0.518 1.157 1.157 0 0.043-0.002 0.086-0.007 0.127v-0.005zM376.045 508.746c-0.791 0.491-1.75 0.782-2.777 0.782s-1.986-0.291-2.8-0.795l0.023 0.013c0-0.81 6.248-3.355 6.711-1.504-0.139 0.548-0.591 0.961-1.15 1.040l-0.007 0.001zM455.188 621.444c-1.599 1.674-3.776 2.783-6.21 3.006l-0.038 0.003c1.217-1.42 3.013-2.314 5.017-2.314 0.435 0 0.861 0.042 1.273 0.123l-0.042-0.007zM450.676 614.154c-0.278-0.050-0.599-0.079-0.926-0.079s-0.647 0.029-0.959 0.084l0.033-0.005s-3.355 1.273-2.893 1.388 2.314-4.397 4.744-1.273zM455.304 652.106c-0.579 0 0 0 0 0s0 0 0 0zM436.328 654.883c0.899 0.202 1.659 0.698 2.192 1.38l0.006 0.008c-0.069 0.008-0.149 0.013-0.23 0.013-0.906 0-1.677-0.579-1.964-1.387l-0.005-0.015zM432.047 656.387c0.018 0 0.040 0 0.061 0 1.441 0 2.782 0.432 3.899 1.174l-0.026-0.016c-0.239 0.044-0.515 0.069-0.796 0.069-1.212 0-2.316-0.466-3.141-1.229l0.003 0.003zM458.197 667.958c-2.546 0-3.24 0-4.050-1.62 0.123-0.011 0.267-0.017 0.412-0.017 1.445 0 2.743 0.631 3.633 1.632l0.004 0.005zM455.767 676.983c-0.311 0.041-0.67 0.065-1.035 0.065-1.827 0-3.517-0.588-4.89-1.585l0.024 0.017c0.147-0.007 0.318-0.012 0.491-0.012 2 0 3.869 0.564 5.455 1.542l-0.045-0.026zM449.056 676.751c-2.437-0.2-4.626-1.128-6.385-2.562l0.021 0.017c0.066-0.002 0.143-0.003 0.221-0.003 2.4 0 4.572 0.974 6.143 2.548v0zM446.047 678.487c2.083 0.694 4.513 0 6.48 1.157-0.677 0.268-1.462 0.423-2.282 0.423-1.611 0-3.083-0.599-4.204-1.586l0.007 0.006zM458.659 680.222c-1.388 0-3.008 0-4.165-1.157s1.157 0 1.62-0.81 2.546 1.851 2.546 1.967zM460.974 677.908c-0.346-0.027-0.75-0.043-1.157-0.043s-0.811 0.015-1.21 0.046l0.053-0.003c1.851 0 2.198 0 2.314 0zM469.42 678.95c-5.438 0-6.364 2.43-10.761-0.81 0.325 0.22 0.726 0.351 1.157 0.351s0.832-0.131 1.164-0.356l-0.007 0.005c0.872-0.236 1.874-0.371 2.907-0.371 2.031 0 3.94 0.523 5.599 1.443l-0.059-0.030zM534.331 675.131c-0.926 2.661 0 0.694 0 3.471-1.62-0.926-5.091 3.124-6.827 3.355s0 3.008-2.661 3.355-5.554 0-8.562 0.694c-7.289 1.157-14.81-1.157-22.331 0-1.807 0.25-3.895 0.393-6.017 0.393-6.697 0-13.061-1.422-18.808-3.981l0.294 0.117c1.851-1.157-2.43-1.273-3.124-1.967 1.388 0 2.777 0 4.165 0-0.694 0 0 0 0 0 6.827-1.041 14.348 5.785 21.406 4.281-1.62-2.661-11.571-0.926-10.529-4.165 0-1.273 7.521 0 8.909-1.041s0-4.050 0-6.017c0.528 0.341 1.172 0.543 1.864 0.543 1.356 0 2.531-0.778 3.102-1.912l0.009-0.020c-2.661 0-4.513 1.273-6.132-1.157 2.083-1.504 9.025 0.81 1.967-1.967s0-9.604 1.967-12.381 11.571-6.595 13.191-4.397c2.272 2.934 3.869 6.503 4.495 10.397l0.018 0.132c3.935 0.641 7.437 1.607 10.776 2.901l-0.362-0.124c4.628 3.124 11.571 2.661 15.158 6.48-1.073-0.083-2.325-0.13-3.587-0.13s-2.513 0.047-3.752 0.14l0.165-0.010s-1.273 1.157 0 1.041c1.228-0.083 2.662-0.131 4.108-0.131s2.879 0.047 4.301 0.141l-0.193-0.010s-3.008 1.851-3.124 2.43zM554.58 682.536s1.967 0 1.157 0c-3.141 1.174-6.77 1.853-10.559 1.853-0.112 0-0.223-0.001-0.335-0.002h0.017c2.549-0.803 5.82-1.605 9.154-2.227l0.565-0.087c-3.24 0.926 0 0 0 0zM558.282 661.709c4.513 2.083-8.215 3.355-9.951 3.008s-7.405 0-7.174-0.579 4.513-1.967 5.322-2.777c3.24-3.008 8.331-1.157 11.571 0zM749.776 511.638c1.157-4.050 2.314-8.099 3.355-12.265-0.386 4.527-1.583 8.692-3.446 12.468l0.091-0.203zM755.214 434.462v0c0-0.926 0-0.579 0 0zM755.214 434.462c-1.041-4.513 0-6.132-2.777-8.678 0 3.587-1.388 10.414 2.314 12.496 0.223-0.53 0.352-1.147 0.352-1.793s-0.129-1.263-0.364-1.825l0.012 0.031c0 0.81 0 0 0 0zM752.090 393.040c0.031-0.601 0.049-1.305 0.049-2.014 0-5.835-1.21-11.387-3.392-16.419l0.103 0.267c0 6.827 2.777 13.075 2.893 19.786 0.253-0.314 0.406-0.717 0.406-1.157 0-0.165-0.021-0.324-0.062-0.476l0.003 0.013zM751.049 441.405c0 1.388 0 2.661 0 4.281 0.579-1.736 0-2.893 0-4.281zM749.313 398.478c-0.77 2.117-1.215 4.561-1.215 7.108 0 0.552 0.021 1.1 0.062 1.642l-0.004-0.072c-0.039 0.871-0.061 1.893-0.061 2.92 0 3.871 0.317 7.669 0.926 11.368l-0.055-0.403c0-7.521 0-15.042 0-22.563zM747.578 398.478c0-1.62-2.198-2.43-2.43-3.934 0 2.314 0 2.43 2.43 3.934zM745.032 369.898c0.015-0.122 0.023-0.262 0.023-0.405s-0.008-0.283-0.025-0.422l0.002 0.017-1.62-0.579c-0.926 0 1.736 1.273 1.851 1.388zM757.991 481.902v0c-1.62 5.901-3.124 11.571-4.628 17.587 0.026-0.277 0.040-0.6 0.040-0.926s-0.015-0.648-0.043-0.967l0.003 0.041c-4.281 11.571-9.372 22.216-14.116 33.323v0.926c-1.041 2.43-14.463 22.1-12.843 23.141 9.169-12.491 17.175-26.749 23.357-41.944l0.479-1.331c-2.66 9.331-5.419 17.018-8.607 24.478l0.508-1.337c-9.587 22.096-21.219 41.151-35.084 58.329l0.372-0.476c-13.594 16.806-28.8 31.461-45.624 44.075l-0.658 0.472c-7.501 5.693-16.005 11.317-24.864 16.392l-1.169 0.617c-4.397 2.546-8.794 4.86-13.191 7.058-1.967 0.926-8.794 2.777-9.835 4.397 0-0.694 3.934-2.661 4.513-3.24-3.76 1.128-7.020 2.544-10.068 4.288l0.233-0.123s0.694 0 0.694 0c-3.934 2.546-18.86 7.984-21.753 3.934 4.077-3.145 7.472-6.945 10.080-11.273l0.102-0.182c0.694-4.281 7.405-8.794 11.571-10.298 6.017-1.967 1.504 0.694 4.050 2.083s3.124-2.661 4.628-1.851v0l-1.388 2.43s10.876-11.571 12.265-9.141c-1.516 3.825-3.758 7.071-6.58 9.705l-0.015 0.014c-2.777 2.661-7.289 2.893-10.298 5.554s-7.289 5.554-7.984 7.521c7.637 0 16.315-16.315 23.951-10.066l-3.124 2.314c1.504 0 7.752-2.43 5.67-5.091-6.017 1.041 5.091-5.091 5.322-5.785s-1.851 0.926-2.893 1.041c0-2.083 6.364-4.281 6.827-7.868-3.587-0.579-2.083 2.198-4.397-0.694-0.694-1.041-3.934-0.694-5.67-0.81-4.165 0-8.794 6.711-11.571 8.909 1.405-3.858 4.205-6.922 7.776-8.638l0.092-0.040c2.198-1.157-3.008-1.736-2.893-3.471s1.388-0.694 1.273-0.926-1.157 0.81-1.273 0.926c-0.053-2.447-0.345-4.796-0.855-7.063l0.045 0.236c3.355-3.934-4.628-2.777-4.744-3.008s1.851-1.273 2.198-2.661c-0.438 0.034-0.948 0.053-1.462 0.053-1.783 0-3.511-0.23-5.158-0.663l0.141 0.031c3.24-0.926 21.29-9.256 17.356-15.62-1.273-1.967-13.538 0.579-15.736 0.694-4.744 0 0-4.513 0-5.091 0.81-3.587 3.587-5.207 3.24-9.372s2.893-3.124 3.818-5.554 0-2.43 2.661-2.777 4.050 0 7.521-2.43 3.24 1.736 6.132 1.851c7.174 0 1.041 1.736 4.513 2.661s-1.157 7.868-0.926 9.141 0 3.703 2.083 4.397-1.041 4.628-1.273 5.67c-0.694 3.008 9.951-2.546 8.678 4.975 7.005-3.266 13.002-6.815 18.61-10.871l-0.328 0.226c3.519-1.894 6.506-4.291 8.993-7.137l0.032-0.037c3.008-3.703-4.165-2.198-4.628-3.24s6.248-4.281 7.405-4.165c-0.226 1.995-0.551 3.764-0.986 5.489l0.060-0.283c0 2.661-4.165 5.207-3.934 7.405 1.256-0.097 2.378-0.607 3.244-1.393l-0.005 0.004c-3.587 4.397-9.372 4.86-13.422 8.099s-5.67 3.703-8.099 5.785c0 0-4.281 5.554-1.273 4.513 5.767-3.011 10.649-6.044 15.29-9.391l-0.364 0.25c3.12-1.553 5.692-3.791 7.594-6.53l0.043-0.066c2.551-3.127 5.32-5.895 8.343-8.364l0.104-0.082c2.026-1.874 4.304-3.524 6.764-4.885l0.178-0.090c-0.926 1.967-1.736 4.513-2.661 6.132s-6.942 3.355-6.942 6.595c1.273 0 1.388 1.273 4.050 1.157-1.388 0 1.851 2.198 1.62 1.851-6.271 4.348-11.133 10.327-14.021 17.327l-0.095 0.26c1.388 0 2.198-1.967 3.818-1.041-0.156 0.467-0.246 1.004-0.246 1.562s0.090 1.095 0.256 1.598l-0.010-0.036s5.322-4.628 4.397-5.438c-1.421 0.026-2.693 0.643-3.584 1.616l-0.003 0.004c0.694-2.43 3.24-2.546 4.165-4.165 0 0.694 0 1.157 0 1.967 6.183-2.842 11.129-7.489 14.268-13.261l0.080-0.161c-1.967 0-5.554 3.818-6.827 2.777-0.244-0.415-0.388-0.914-0.388-1.446s0.144-1.031 0.395-1.46l-0.007 0.014c-0.243 0.052-0.523 0.082-0.81 0.082s-0.566-0.030-0.836-0.086l0.026 0.005c0.678-0.528 1.146-1.299 1.271-2.181l0.002-0.018-2.198-0.579c0-2.43 13.306-14.579 14.232-13.422s0 1.736 0 1.851 2.777-2.777 3.818-2.083-0.926 1.736 0 2.198 9.604-14 10.529-15.736c3.703-6.942 1.273-2.777-1.504-3.703-0.42-0.661-0.708-1.446-0.807-2.288l-0.003-0.026c-4.951 1.346-9.275 3.492-13.060 6.32l0.101-0.072c-5.785 4.050 1.851-11.571-1.504-9.372s-3.124 2.661-5.554 2.893-4.397 4.165-7.637 5.207-13.075 1.851-11.571 6.595-4.165 7.405-5.901 9.025c-0.751 0.038-1.63 0.059-2.514 0.059-4.196 0-8.278-0.485-12.194-1.403l0.36 0.071c-3.124-1.041-8.215-2.083-9.951-5.091-3.124-5.438-10.066 1.851-12.959 0.694s0-5.207-0.81-6.595-3.934-2.314-4.628-4.86c-1.273-4.744 2.314-8.678 0.694-12.959s-7.984-4.975-8.099-7.752c0.016-0.142 0.025-0.307 0.025-0.474 0-1.452-0.685-2.743-1.75-3.569l-0.010-0.008c-3.008-1.736 0-5.67-1.851-7.752-10.182-10.414 3.355-20.596 1.041-31.935-1.388-6.48-2.083-7.868 0.694-13.422 0.694-1.388 0-11.571 5.207-7.405 0.694-5.901 8.215-7.058 9.604-12.612s8.099-9.488 13.075-13.538c1.823-1.711 3.828-3.274 5.968-4.645l0.165-0.099c4.050-2.083 6.827 1.157 10.876 2.198 1.239 0.377 2.662 0.594 4.137 0.594 2.371 0 4.61-0.561 6.593-1.558l-0.084 0.038c1.967-0.926 16.315 9.372 20.249 7.405s3.008-4.975 4.281-7.405 5.901 1.041 8.562 0c4.744-2.083 6.132-19.439 2.198-22.563s3.818-11.571 4.744-13.653c2.464-5.224 3.902-11.348 3.902-17.807 0-0.94-0.030-1.874-0.091-2.799l0.007 0.126c-0.694-4.744 0.694-12.381-2.083-16.662-2.236-3.767-4.448-8.22-6.341-12.837l-0.254-0.7c-5.67-12.265 0-26.265-5.091-39.109-1.837-5.866-3.264-12.777-4.009-19.891l-0.040-0.474c-1.041-4.397-6.364-10.761-4.281-15.389 3.24 2.893 7.984 2.546 11.571 4.397 7.521 3.587 11.571 11.571 16.43 17.934 2.637 2.984 4.788 6.474 6.283 10.293l0.081 0.236c1.62 3.587 4.975 5.901 6.48 9.372 3.818 8.794 7.289 17.472 11.571 26.265 6.079 17.025 10.209 36.732 11.537 57.203l0.034 0.65c1.315 8.564 2.066 18.445 2.066 28.5 0 12.338-1.131 24.411-3.294 36.123l0.187-1.216zM647.145 594.715c0.242-0.080 0.521-0.126 0.81-0.126s0.568 0.046 0.829 0.132l-0.019-0.005c2.083 2.546-3.587 0.81-1.62 0zM657.211 601.311s-1.851 4.86-3.124 4.050 2.314-3.703 3.124-4.050zM658.137 600.269c-0.547-0.505-1.153-0.963-1.801-1.36l-0.051-0.029c1.851-1.041 4.628-7.868 6.364-5.207 0 0.926-3.008 6.595-4.513 6.595zM700.948 580.831c-1.504 1.041-3.008 0.694-4.397 1.388 0-1.62 2.083-1.041 2.893-1.851s0.926 0 1.504 0z" />
<glyph unicode="&#xe90c;" glyph-name="badge-location" d="M220.42 707.413l-86.548 86.548c-78.439-85.318-128.313-197.99-133.834-322.195l-0.038-1.088h122.417c5.328 91.529 41.568 173.694 98.33 237.106l-0.327-0.371zM635.459 703.016c57.707-28.272 103.286-73.852 130.821-129.898l0.737-1.66 82.036 34.018c-37.563 79.474-100.102 142.013-177.328 178.617l-2.248 0.959zM861.78 574.93l-82.151-33.902c10.008-27.713 15.794-59.695 15.794-93.028s-5.786-65.315-16.409-94.995l0.614 1.967 82.151-34.018c14.186 37.768 22.398 81.419 22.398 126.988s-8.211 89.219-23.235 129.553l0.837-2.566zM849.052 290.524l-82.036 34.018c-28.272-57.707-73.852-103.286-129.898-130.821l-1.66-0.737 34.018-82.036c79.474 37.563 142.013 100.102 178.617 177.328l0.959 2.248zM174.948 605.476l82.036-34.018c28.272 57.707 73.852 103.286 129.898 130.821l1.66 0.737-34.018 82.036c-79.474-37.563-142.013-100.102-178.617-177.328l-0.959-2.248zM354.524 110.948l34.018 82.036c-57.707 28.272-103.286 73.852-130.821 129.898l-0.737 1.66-82.036-34.018c37.563-79.474 100.102-142.013 177.328-178.617l2.248-0.959zM161.989 320.955l82.036 34.018c-10.008 27.713-15.794 59.695-15.794 93.028s5.786 65.315 16.409 94.995l-0.614-1.967-82.036 33.902c-14.224-37.764-22.457-81.414-22.457-126.988s8.234-89.224 23.295-129.545l-0.837 2.557zM252.24 739.58c63.040 56.435 145.206 92.675 235.685 97.954l1.050 0.049v122.417c-125.166-5.646-237.702-55.504-323.302-134.204l0.366 0.332zM638.698 797.433c-37.764 14.224-81.414 22.457-126.988 22.457s-89.224-8.234-129.545-23.295l2.557 0.837 33.902-82.036c27.716 9.982 59.698 15.753 93.028 15.753s65.312-5.771 95.001-16.368l-1.973 0.615zM771.066 739.58l86.548 86.548c-85.191 78.369-197.69 128.229-321.717 133.832l-1.103 0.040v-122.417c91.489-5.346 173.612-41.583 236.989-98.329l-0.37 0.326zM901.699 470.678h122.301c-5.559 125.293-55.433 237.965-134.205 323.65l0.333-0.367-86.548-86.548c56.469-63.033 92.747-145.194 98.069-235.677l0.050-1.058zM803.58 188.587l86.548-86.548c78.441 85.276 128.316 197.912 133.834 322.081l0.038 1.087h-122.301c-5.39-91.5-41.665-173.619-98.443-236.987l0.324 0.368zM771.413 156.42c-63-56.454-145.119-92.729-235.558-98.069l-1.061-0.050v-122.301c125.256 5.556 237.891 55.432 323.531 134.202l-0.364-0.33zM578.531 166.024c-17.009-30.315-34.712-64.68-48.134-89.672 39.477 2.003 76.506 9.853 111.104 22.705l-2.571-0.837-34.018 82.151c-7.289-2.546-14.579-4.744-22.1-6.711l-4.281-7.637zM385.070 98.22c31.988-11.992 68.975-19.839 107.51-21.831l0.907-0.037c-13.075 25.108-30.662 59.357-48.018 89.672l-4.397 7.174c-7.405 1.967-14.695 4.165-22.1 6.711zM252.587 156.073l-86.548-86.548c85.357-78.313 198.032-128.068 322.213-133.488l1.070-0.037v122.301c-91.541 5.372-173.702 41.65-237.104 98.444l0.369-0.325zM122.417 425.206h-122.417c5.556-125.256 55.432-237.891 134.202-323.531l-0.33 0.364 86.548 86.548c-56.42 63.007-92.657 145.13-97.954 235.566l-0.049 1.054zM604.334 490.001c0-51.122-41.443-92.565-92.565-92.565s-92.565 41.443-92.565 92.565c0 51.122 41.443 92.565 92.565 92.565v0c51.122 0 92.565-41.443 92.565-92.565v0zM696.899 490.001c0.258 3.66 0.405 7.932 0.405 12.238 0 102.244-82.885 185.13-185.13 185.13s-185.13-82.885-185.13-185.13c0-4.306 0.147-8.578 0.436-12.81l-0.031 0.572c0-86.201 139.889-297.828 180.849-358.689 5.67-8.562 5.901-7.637 11.571 0.926 40.844 61.324 177.031 271.91 177.031 358.111z" />
<glyph unicode="&#xe90d;" glyph-name="badge-wri" d="M771.507 156.354c-63.046-56.397-145.183-92.63-235.629-97.964l-1.062-0.050v-122.34c125.261 5.527 237.903 55.413 323.524 134.21l-0.361-0.328zM663.372 582.503c29.293-32.711 48.083-75.369 50.758-122.34l0.024-0.533h63.567c-2.977 65.006-28.82 123.457-69.607 167.996l0.181-0.2zM714.154 436.015c-2.7-47.504-21.489-90.162-50.951-123.064l0.169 0.191 44.923-45.633c40.891 44.498 66.801 103.333 69.41 168.168l0.016 0.516zM650.232 602.745l42.26 41.55c-26.846 24.558-59.018 43.791-94.538 55.739l-1.878 0.548c17.756-31.073 37.288-62.857 55.044-97.659zM669.586 785.101l-34.092-82.034c57.677-28.327 103.246-73.896 130.834-129.913l0.739-1.661 82.034 33.382c-37.481 79.693-100.007 142.449-177.273 179.264l-2.242 0.962zM861.708 575.046l-82.034-34.092c9.962-27.695 15.72-59.652 15.72-92.954s-5.759-65.259-16.334-94.929l0.614 1.975 82.034-34.269c14.217 37.783 22.447 81.453 22.447 127.046s-8.23 89.263-23.285 129.607l0.838-2.561zM849.101 290.769l-82.034 33.737c-28.327-57.677-73.896-103.246-129.913-130.834l-1.661-0.739 33.914-82.034c79.479 37.575 142.043 100.082 178.732 177.268l0.961 2.247zM252.493 156.354l-86.473-86.473c85.259-78.469 197.902-128.354 322.082-133.844l1.080-0.038v122.34c-91.507 5.384-173.644 41.617-237.065 98.343l0.374-0.329zM244.325 355.046c-9.962 27.695-15.72 59.652-15.72 92.954s5.759 65.259 16.334 94.929l-0.614-1.975-82.034 34.092c-14.238-37.808-22.479-81.509-22.479-127.134s8.242-89.327 23.318-129.695l-0.838 2.561zM174.899 604.876l82.034-33.914c28.327 57.677 73.896 103.246 129.913 130.834l1.661 0.739-33.382 82.566c-79.811-37.624-142.601-100.414-179.267-177.971l-0.959-2.255zM315.705 627.071c-40.607-44.338-66.449-102.79-69.405-167.212l-0.021-0.584h63.567c2.789 47.489 21.56 90.123 50.957 123.072l-0.174-0.199zM428.812 700.049c-37.398-12.496-69.57-31.729-96.619-56.47l0.203 0.183 41.372-41.372c17.756 35.512 36.933 66.586 55.044 97.659zM315.705 267.508l44.923 44.923c-29.223 32.75-47.994 75.384-50.757 122.322l-0.026 0.551h-63.567c2.848-65.028 28.719-123.515 69.599-167.986l-0.172 0.19zM388.506 192.044c-57.677 28.327-103.246 73.896-130.834 129.913l-0.739 1.661-82.034-33.204c37.777-79.509 100.532-142.035 177.964-178.556l2.261-0.959zM122.163 424.295h-122.163c5.609-125.247 55.476-237.867 134.215-323.53l-0.333 0.367 86.473 86.473c-56.467 63.326-92.708 145.771-97.966 236.529l-0.049 1.049zM220.354 707.329l-86.473 86.65c-78.429-85.346-128.301-198.032-133.843-322.248l-0.039-1.092h122.34c5.399 91.505 41.629 173.638 98.344 237.066l-0.33-0.376zM252.493 739.646c63.104 56.292 145.205 92.497 235.602 97.962l1.089 0.053v122.34c-125.247-5.609-237.867-55.476-323.53-134.215l0.367 0.333zM445.325 729.169c17.756 30.363 35.512 64.81 48.297 90.024-39.558-2.124-76.619-10.018-111.275-22.864l2.607 0.846 34.092-82.034c7.28 2.486 14.738 4.794 22.195 6.747 1.42 2.308 2.841 4.794 4.084 7.28zM332.396 251.705c44.296-40.683 102.774-66.546 167.232-69.407l0.564-0.020v63.567c-47.504 2.7-90.162 21.489-123.064 50.951l0.191-0.169zM604.954 180.68c-27.695-9.962-59.652-15.72-92.954-15.72s-65.259 5.759-94.929 16.334l1.975-0.614-34.092-82.034c37.783-14.217 81.453-22.447 127.046-22.447s89.263 8.23 129.607 23.285l-2.561-0.838zM646.681 296.984c-32.711-29.293-75.369-48.083-122.34-50.758l-0.533-0.024v-63.922c65.351 2.626 124.186 28.536 168.875 69.6l-0.191-0.173zM639.223 797.708c-32.068 12.004-69.146 19.843-107.775 21.804l-0.893 0.036c13.14-25.036 31.251-59.483 48.297-89.846 1.243-2.486 2.663-4.972 4.084-7.28 7.458-1.953 14.915-4.261 22.195-6.747zM771.684 739.646l86.473 86.473c-85.339 78.442-198.029 128.317-322.252 133.843l-1.088 0.039v-122.34c91.485-5.517 173.586-41.722 237.076-98.352l-0.386 0.338zM901.66 470.639h122.34c-5.483 125.326-55.377 238.038-134.21 323.702l0.328-0.361-86.473-86.65c56.456-63.014 92.705-145.17 97.966-235.644l0.049-1.046zM890.118 102.020c78.469 85.259 128.354 197.902 133.844 322.082l0.038 1.080h-122.34c-5.384-91.507-41.617-173.644-98.343-237.065l0.329 0.374z" />
<glyph unicode="&#xe90e;" glyph-name="magnify" d="M123.535 558.974c0 152.745 123.825 276.57 276.57 276.57v0c158.204-4.416 285.486-130.814 291.304-288.245l0.016-0.54c0.003-0.48 0.005-1.048 0.005-1.617 0-152.745-123.825-276.57-276.57-276.57-0.488 0-0.976 0.001-1.463 0.004h0.075c-158.154 5.198-284.998 132.202-289.926 289.936l-0.011 0.462zM1001.183 93.645l-244.995 244.073c36.561 59.084 58.25 130.716 58.31 207.411v0.017c-4.164 226.942-186.651 409.912-413.007 414.847l-0.465 0.008c-221.481 0-401.026-179.546-401.026-401.026v0c5.043-226.25 187.201-408.328 413.008-413.234l0.464-0.008c0.46-0.002 1.003-0.003 1.547-0.003 73.769 0 142.88 19.941 202.238 54.727l-1.889-1.023 246.147-245.456c11.203-11.122 26.636-17.995 43.675-17.995s32.472 6.873 43.679 17.999l61.072 61.072c23.047 23.047 15.211 54.623-8.758 78.592z" />
<glyph unicode="&#xe90f;" glyph-name="plus" horiz-adv-x="991" d="M404.769 960v-428.192h-404.769v-166.153h404.769v-429.655h179.328v429.655h406.965v166.153h-406.965v428.192h-179.328z" />
<glyph unicode="&#xe910;" glyph-name="user" d="M395.264 860.672c-38.493-29.476-63.069-75.453-63.069-127.169 0-1.913 0.034-3.817 0.1-5.714l-0.008 0.275c3.072-39.424 11.264-91.648 11.264-91.648s-16.384-8.704-16.384-43.52c5.632-88.064 35.328-51.2 41.472-88.576 14.336-93.184 47.616-76.288 47.616-126.976 0-84.48-34.816-123.904-143.36-171.008s-221.696-105.984-221.696-208.384v-51.2h921.6v51.2c0 102.4-112.64 161.792-221.696 208.384s-143.36 86.528-143.36 171.008c0 51.2 33.28 33.792 47.616 126.976 6.144 38.4 35.84 0 41.472 88.576 0 34.816-16.384 43.52-16.384 43.52s8.192 51.2 11.264 91.648c0.076 1.83 0.119 3.976 0.119 6.133 0 72.941-49.521 134.315-116.777 152.335l-1.102 0.251c-16.896 17.408-28.16 45.056 24.064 72.704-114.688 5.632-141.312-54.272-202.752-98.816z" />
<glyph unicode="&#xe911;" glyph-name="angle-down" horiz-adv-x="658" d="M614.286 530.286c0-4.571-2.286-9.714-5.714-13.143l-266.286-266.286c-3.429-3.429-8.571-5.714-13.143-5.714s-9.714 2.286-13.143 5.714l-266.286 266.286c-3.429 3.429-5.714 8.571-5.714 13.143s2.286 9.714 5.714 13.143l28.571 28.571c3.429 3.429 8 5.714 13.143 5.714 4.571 0 9.714-2.286 13.143-5.714l224.571-224.571 224.571 224.571c3.429 3.429 8.571 5.714 13.143 5.714s9.714-2.286 13.143-5.714l28.571-28.571c3.429-3.429 5.714-8.571 5.714-13.143z" />
<glyph unicode="&#xe912;" glyph-name="bars, navicon, reorder" horiz-adv-x="878" d="M877.714 182.857v-73.143c0-20-16.571-36.571-36.571-36.571h-804.571c-20 0-36.571 16.571-36.571 36.571v73.143c0 20 16.571 36.571 36.571 36.571h804.571c20 0 36.571-16.571 36.571-36.571zM877.714 475.428v-73.143c0-20-16.571-36.571-36.571-36.571h-804.571c-20 0-36.571 16.571-36.571 36.571v73.143c0 20 16.571 36.571 36.571 36.571h804.571c20 0 36.571-16.571 36.571-36.571zM877.714 768v-73.143c0-20-16.571-36.571-36.571-36.571h-804.571c-20 0-36.571 16.571-36.571 36.571v73.143c0 20 16.571 36.571 36.571 36.571h804.571c20 0 36.571-16.571 36.571-36.571z" />
<glyph unicode="&#xe913;" glyph-name="arrow-down, down, download, bottom" d="M512-32l480 480h-288v512h-384v-512h-288z" />
<glyph unicode="&#xe914;" glyph-name="vimeo" horiz-adv-x="1029" d="M976.571 654.857c-4-90.286-67.429-214.286-189.714-372-126.857-164-233.143-246.286-321.143-246.286-54.286 0-100 50.286-137.143 150.286-25.143 91.429-50.286 183.429-75.429 275.429-27.429 100-57.714 149.714-89.714 149.714-6.857 0-30.857-14.286-72.571-43.429l-44 56c45.714 40.571 90.857 81.714 136 121.143 60.571 53.714 106.857 80.571 137.714 83.429 72.571 6.857 116.571-42.286 133.714-148 17.714-114.286 30.857-185.714 37.714-213.143 21.143-94.857 43.429-142.286 68.571-142.286 19.429 0 48.571 30.286 88 92 38.857 61.714 59.429 108.571 62.286 140.571 5.143 53.143-15.429 79.429-62.286 79.429-22.286 0-45.143-5.143-69.143-14.857 45.714 149.714 133.143 222.286 262.286 218.286 95.429-2.857 140.571-65.143 134.857-186.286z" />
<glyph unicode="&#xe915;" glyph-name="info, information" d="M448 656c0 26.4 21.6 48 48 48h32c26.4 0 48-21.6 48-48v-32c0-26.4-21.6-48-48-48h-32c-26.4 0-48 21.6-48 48v32zM640 192h-256v64h64v192h-64v64h192v-256h64zM512 960c-282.77 0-512-229.23-512-512s229.23-512 512-512 512 229.23 512 512-229.23 512-512 512zM512 32c-229.75 0-416 186.25-416 416s186.25 416 416 416 416-186.25 416-416-186.25-416-416-416z" />
</font>
</defs>
</svg>
